<?xml version="1.0" encoding="utf-8" standalone="no"?>
<!DOCTYPE svg PUBLIC "-//W3C//DTD SVG 1.1//EN"
  "http://www.w3.org/Graphics/SVG/1.1/DTD/svg11.dtd">
<svg xmlns:xlink="http://www.w3.org/1999/xlink" width="455.075945pt" height="349.28073pt" viewBox="0 0 455.075945 349.28073" xmlns="http://www.w3.org/2000/svg" version="1.1">
 <metadata>
  <rdf:RDF xmlns:dc="http://purl.org/dc/elements/1.1/" xmlns:cc="http://creativecommons.org/ns#" xmlns:rdf="http://www.w3.org/1999/02/22-rdf-syntax-ns#">
   <cc:Work>
    <dc:type rdf:resource="http://purl.org/dc/dcmitype/StillImage"/>
    <dc:date>2023-06-21T11:29:13.200505</dc:date>
    <dc:format>image/svg+xml</dc:format>
    <dc:creator>
     <cc:Agent>
      <dc:title>Matplotlib v3.6.1, https://matplotlib.org/</dc:title>
     </cc:Agent>
    </dc:creator>
   </cc:Work>
  </rdf:RDF>
 </metadata>
 <defs>
  <style type="text/css">*{stroke-linejoin: round; stroke-linecap: butt}</style>
 </defs>
 <g id="figure_1">
  <g id="patch_1">
   <path d="M 0 349.28073 
L 455.075945 349.28073 
L 455.075945 0 
L 0 0 
z
" style="fill: #ffffff"/>
  </g>
  <g id="axes_1">
   <g id="patch_2">
    <path d="M 46.115945 302.8533 
L 447.875945 302.8533 
L 447.875945 25.6533 
L 46.115945 25.6533 
z
" style="fill: #ffffff"/>
   </g>
   <g id="matplotlib.axis_1">
    <g id="xtick_1">
     <g id="line2d_1">
      <defs>
       <path id="mf981143662" d="M 0 0 
L 0 3.5 
" style="stroke: #000000; stroke-width: 0.8"/>
      </defs>
      <g>
       <use xlink:href="#mf981143662" x="46.115945" y="302.8533" style="stroke: #000000; stroke-width: 0.8"/>
      </g>
     </g>
     <g id="text_1">
      <!-- $\mathdefault{0}$ -->
      <g transform="translate(42.457826 320.231025) scale(0.15 -0.15)">
       <defs>
        <path id="CMR17-30" d="M 2688 2025 
C 2688 2416 2682 3080 2413 3591 
C 2176 4039 1798 4198 1466 4198 
C 1158 4198 768 4058 525 3597 
C 269 3118 243 2524 243 2025 
C 243 1661 250 1106 448 619 
C 723 -39 1216 -128 1466 -128 
C 1760 -128 2208 -7 2470 600 
C 2662 1042 2688 1559 2688 2025 
z
M 1466 -26 
C 1056 -26 813 325 723 812 
C 653 1188 653 1738 653 2096 
C 653 2588 653 2997 736 3387 
C 858 3929 1216 4096 1466 4096 
C 1728 4096 2067 3923 2189 3400 
C 2272 3036 2278 2607 2278 2096 
C 2278 1680 2278 1169 2202 792 
C 2067 95 1690 -26 1466 -26 
z
" transform="scale(0.015625)"/>
       </defs>
       <use xlink:href="#CMR17-30" transform="scale(0.996264)"/>
      </g>
     </g>
    </g>
    <g id="xtick_2">
     <g id="line2d_2">
      <g>
       <use xlink:href="#mf981143662" x="131.144517" y="302.8533" style="stroke: #000000; stroke-width: 0.8"/>
      </g>
     </g>
     <g id="text_2">
      <!-- $\mathdefault{200}$ -->
      <g transform="translate(120.17016 320.231025) scale(0.15 -0.15)">
       <defs>
        <path id="CMR17-32" d="M 2669 989 
L 2554 989 
C 2490 536 2438 459 2413 420 
C 2381 369 1920 369 1830 369 
L 602 369 
C 832 619 1280 1072 1824 1597 
C 2214 1967 2669 2402 2669 3035 
C 2669 3790 2067 4224 1395 4224 
C 691 4224 262 3604 262 3030 
C 262 2780 448 2748 525 2748 
C 589 2748 781 2787 781 3010 
C 781 3207 614 3264 525 3264 
C 486 3264 448 3258 422 3245 
C 544 3790 915 4058 1306 4058 
C 1862 4058 2227 3617 2227 3035 
C 2227 2479 1901 2000 1536 1584 
L 262 146 
L 262 0 
L 2515 0 
L 2669 989 
z
" transform="scale(0.015625)"/>
       </defs>
       <use xlink:href="#CMR17-32" transform="scale(0.996264)"/>
       <use xlink:href="#CMR17-30" transform="translate(45.690477 0) scale(0.996264)"/>
       <use xlink:href="#CMR17-30" transform="translate(91.380954 0) scale(0.996264)"/>
      </g>
     </g>
    </g>
    <g id="xtick_3">
     <g id="line2d_3">
      <g>
       <use xlink:href="#mf981143662" x="216.173088" y="302.8533" style="stroke: #000000; stroke-width: 0.8"/>
      </g>
     </g>
     <g id="text_3">
      <!-- $\mathdefault{400}$ -->
      <g transform="translate(205.198731 320.231025) scale(0.15 -0.15)">
       <defs>
        <path id="CMR17-34" d="M 2150 4122 
C 2150 4256 2144 4256 2029 4256 
L 128 1254 
L 128 1088 
L 1779 1088 
L 1779 457 
C 1779 224 1766 160 1318 160 
L 1197 160 
L 1197 0 
C 1402 0 1747 0 1965 0 
C 2182 0 2528 0 2733 0 
L 2733 160 
L 2611 160 
C 2163 160 2150 224 2150 457 
L 2150 1088 
L 2803 1088 
L 2803 1254 
L 2150 1254 
L 2150 4122 
z
M 1798 3703 
L 1798 1254 
L 256 1254 
L 1798 3703 
z
" transform="scale(0.015625)"/>
       </defs>
       <use xlink:href="#CMR17-34" transform="scale(0.996264)"/>
       <use xlink:href="#CMR17-30" transform="translate(45.690477 0) scale(0.996264)"/>
       <use xlink:href="#CMR17-30" transform="translate(91.380954 0) scale(0.996264)"/>
      </g>
     </g>
    </g>
    <g id="xtick_4">
     <g id="line2d_4">
      <g>
       <use xlink:href="#mf981143662" x="301.201659" y="302.8533" style="stroke: #000000; stroke-width: 0.8"/>
      </g>
     </g>
     <g id="text_4">
      <!-- $\mathdefault{600}$ -->
      <g transform="translate(290.227303 320.231025) scale(0.15 -0.15)">
       <defs>
        <path id="CMR17-36" d="M 678 2176 
C 678 3690 1395 4032 1811 4032 
C 1946 4032 2272 4009 2400 3776 
C 2298 3776 2106 3776 2106 3553 
C 2106 3381 2246 3323 2336 3323 
C 2394 3323 2566 3348 2566 3560 
C 2566 3954 2246 4179 1805 4179 
C 1043 4179 243 3390 243 1984 
C 243 253 966 -128 1478 -128 
C 2099 -128 2688 427 2688 1283 
C 2688 2081 2170 2662 1517 2662 
C 1126 2662 838 2407 678 1960 
L 678 2176 
z
M 1478 25 
C 691 25 691 1200 691 1436 
C 691 1896 909 2560 1504 2560 
C 1613 2560 1926 2560 2138 2120 
C 2253 1870 2253 1609 2253 1289 
C 2253 944 2253 690 2118 434 
C 1978 171 1773 25 1478 25 
z
" transform="scale(0.015625)"/>
       </defs>
       <use xlink:href="#CMR17-36" transform="scale(0.996264)"/>
       <use xlink:href="#CMR17-30" transform="translate(45.690477 0) scale(0.996264)"/>
       <use xlink:href="#CMR17-30" transform="translate(91.380954 0) scale(0.996264)"/>
      </g>
     </g>
    </g>
    <g id="xtick_5">
     <g id="line2d_5">
      <g>
       <use xlink:href="#mf981143662" x="386.230231" y="302.8533" style="stroke: #000000; stroke-width: 0.8"/>
      </g>
     </g>
     <g id="text_5">
      <!-- $\mathdefault{800}$ -->
      <g transform="translate(375.255874 320.231025) scale(0.15 -0.15)">
       <defs>
        <path id="CMR17-38" d="M 1741 2264 
C 2144 2467 2554 2773 2554 3263 
C 2554 3841 1990 4179 1472 4179 
C 890 4179 378 3759 378 3180 
C 378 3021 416 2747 666 2505 
C 730 2442 998 2251 1171 2130 
C 883 1983 211 1634 211 934 
C 211 279 838 -128 1459 -128 
C 2144 -128 2720 362 2720 1010 
C 2720 1590 2330 1857 2074 2029 
L 1741 2264 
z
M 902 2822 
C 851 2854 595 3051 595 3351 
C 595 3739 998 4032 1459 4032 
C 1965 4032 2336 3676 2336 3262 
C 2336 2669 1670 2331 1638 2331 
C 1632 2331 1626 2331 1574 2370 
L 902 2822 
z
M 2080 1519 
C 2176 1449 2483 1240 2483 851 
C 2483 381 2010 25 1472 25 
C 890 25 448 438 448 940 
C 448 1443 838 1862 1280 2060 
L 2080 1519 
z
" transform="scale(0.015625)"/>
       </defs>
       <use xlink:href="#CMR17-38" transform="scale(0.996264)"/>
       <use xlink:href="#CMR17-30" transform="translate(45.690477 0) scale(0.996264)"/>
       <use xlink:href="#CMR17-30" transform="translate(91.380954 0) scale(0.996264)"/>
      </g>
     </g>
    </g>
    <g id="text_6">
     <!-- Time [s] -->
     <g transform="translate(220.942013 338.34474) scale(0.15 -0.15)">
      <defs>
       <path id="CMR17-54" d="M 3981 4326 
L 288 4326 
L 179 2918 
L 294 2918 
C 378 3976 467 4160 1453 4160 
C 1568 4160 1754 4160 1805 4154 
C 1926 4135 1926 4058 1926 3912 
L 1926 459 
C 1926 230 1907 160 1376 160 
L 1197 160 
L 1197 0 
C 1504 0 1824 0 2138 0 
C 2451 0 2771 0 3078 0 
L 3078 160 
L 2899 160 
C 2368 160 2349 230 2349 459 
L 2349 3912 
C 2349 4052 2349 4129 2464 4154 
C 2515 4160 2701 4160 2816 4160 
C 3795 4160 3891 3976 3974 2918 
L 4090 2918 
L 3981 4326 
z
" transform="scale(0.015625)"/>
       <path id="CMR17-69" d="M 992 3909 
C 992 4049 877 4170 730 4170 
C 589 4170 467 4056 467 3909 
C 467 3769 582 3648 730 3648 
C 870 3648 992 3763 992 3909 
z
M 243 2706 
L 243 2541 
C 602 2541 653 2502 653 2197 
L 653 427 
C 653 184 627 153 218 153 
L 218 -13 
C 371 0 646 0 806 0 
C 960 0 1222 0 1370 -13 
L 1370 153 
C 992 153 979 191 979 420 
L 979 2776 
L 243 2706 
z
" transform="scale(0.015625)"/>
       <path id="CMR17-6d" d="M 4326 1933 
C 4326 2252 4269 2790 3507 2790 
C 3072 2790 2771 2496 2656 2151 
L 2650 2151 
C 2573 2676 2195 2790 1837 2790 
C 1331 2790 1069 2400 973 2144 
L 966 2144 
L 966 2790 
L 211 2720 
L 211 2554 
C 589 2554 646 2515 646 2208 
L 646 428 
C 646 184 621 153 211 153 
L 211 -13 
C 365 0 646 0 813 0 
C 979 0 1267 0 1421 -13 
L 1421 153 
C 1011 153 986 178 986 428 
L 986 1658 
C 986 2247 1344 2688 1792 2688 
C 2266 2688 2317 2266 2317 1958 
L 2317 428 
C 2317 184 2291 153 1882 153 
L 1882 -13 
C 2035 0 2317 0 2483 0 
C 2650 0 2938 0 3091 -13 
L 3091 153 
C 2682 153 2656 178 2656 428 
L 2656 1658 
C 2656 2247 3014 2688 3462 2688 
C 3936 2688 3987 2266 3987 1958 
L 3987 428 
C 3987 184 3962 153 3552 153 
L 3552 -13 
C 3706 0 3987 0 4154 0 
C 4320 0 4608 0 4762 -13 
L 4762 153 
C 4352 153 4326 178 4326 428 
L 4326 1933 
z
" transform="scale(0.015625)"/>
       <path id="CMR17-65" d="M 2438 1472 
C 2464 1498 2464 1511 2464 1576 
C 2464 2238 2118 2816 1389 2816 
C 710 2816 173 2169 173 1383 
C 173 551 781 -64 1459 -64 
C 2176 -64 2458 607 2458 740 
C 2458 784 2419 784 2406 784 
C 2362 784 2355 771 2330 696 
C 2189 265 1837 51 1504 51 
C 1229 51 954 203 781 480 
C 582 803 582 1176 582 1472 
L 2438 1472 
z
M 589 1568 
C 634 2505 1126 2714 1382 2714 
C 1818 2714 2112 2297 2118 1568 
L 589 1568 
z
" transform="scale(0.015625)"/>
       <path id="CMR17-5b" d="M 1504 -1600 
L 1504 -1377 
L 902 -1377 
L 902 4544 
L 1504 4544 
L 1504 4767 
L 678 4767 
L 678 -1600 
L 1504 -1600 
z
" transform="scale(0.015625)"/>
       <path id="CMR17-73" d="M 1978 2697 
C 1978 2813 1971 2819 1933 2819 
C 1907 2819 1901 2813 1824 2717 
C 1805 2691 1747 2626 1728 2601 
C 1523 2819 1235 2819 1126 2819 
C 416 2819 160 2447 160 2076 
C 160 1498 813 1365 998 1325 
C 1402 1243 1542 1217 1677 1101 
C 1760 1025 1901 884 1901 654 
C 1901 384 1747 38 1158 38 
C 602 38 403 460 288 1021 
C 269 1110 269 1117 218 1117 
C 166 1117 160 1110 160 983 
L 160 63 
C 160 -51 166 -58 205 -58 
C 237 -58 243 -51 275 0 
C 314 57 410 211 448 276 
C 576 103 800 -64 1158 -64 
C 1792 -64 2131 283 2131 784 
C 2131 1112 1958 1285 1875 1362 
C 1683 1561 1459 1606 1190 1657 
C 838 1735 390 1825 390 2217 
C 390 2383 480 2737 1126 2737 
C 1811 2737 1850 2094 1862 1888 
C 1869 1856 1901 1849 1920 1849 
C 1978 1849 1978 1869 1978 1978 
L 1978 2697 
z
" transform="scale(0.015625)"/>
       <path id="CMR17-5d" d="M 915 4767 
L 90 4767 
L 90 4544 
L 691 4544 
L 691 -1377 
L 90 -1377 
L 90 -1600 
L 915 -1600 
L 915 4767 
z
" transform="scale(0.015625)"/>
      </defs>
      <use xlink:href="#CMR17-54" transform="scale(0.996264)"/>
      <use xlink:href="#CMR17-69" transform="translate(66.509881 0) scale(0.996264)"/>
      <use xlink:href="#CMR17-6d" transform="translate(91.380939 0) scale(0.996264)"/>
      <use xlink:href="#CMR17-65" transform="translate(168.300529 0) scale(0.996264)"/>
      <use xlink:href="#CMR17-5b" transform="translate(238.862156 0) scale(0.996264)"/>
      <use xlink:href="#CMR17-73" transform="translate(263.733214 0) scale(0.996264)"/>
      <use xlink:href="#CMR17-5d" transform="translate(299.534552 0) scale(0.996264)"/>
     </g>
    </g>
   </g>
   <g id="matplotlib.axis_2">
    <g id="ytick_1">
     <g id="line2d_6">
      <defs>
       <path id="mbcfc0a6a73" d="M 0 0 
L -3.5 0 
" style="stroke: #000000; stroke-width: 0.8"/>
      </defs>
      <g>
       <use xlink:href="#mbcfc0a6a73" x="46.115945" y="296.915972" style="stroke: #000000; stroke-width: 0.8"/>
      </g>
     </g>
     <g id="text_7">
      <!-- $\mathdefault{0}$ -->
      <g transform="translate(31.799707 302.104834) scale(0.15 -0.15)">
       <use xlink:href="#CMR17-30" transform="scale(0.996264)"/>
      </g>
     </g>
    </g>
    <g id="ytick_2">
     <g id="line2d_7">
      <g>
       <use xlink:href="#mbcfc0a6a73" x="46.115945" y="261.014108" style="stroke: #000000; stroke-width: 0.8"/>
      </g>
     </g>
     <g id="text_8">
      <!-- $\mathdefault{5}$ -->
      <g transform="translate(31.799707 266.20297) scale(0.15 -0.15)">
       <defs>
        <path id="CMR17-35" d="M 730 3692 
C 794 3666 1056 3584 1325 3584 
C 1920 3584 2246 3911 2432 4100 
C 2432 4157 2432 4192 2394 4192 
C 2387 4192 2374 4192 2323 4163 
C 2099 4058 1837 3973 1517 3973 
C 1325 3973 1037 3999 723 4139 
C 653 4171 640 4171 634 4171 
C 602 4171 595 4164 595 4037 
L 595 2203 
C 595 2089 595 2057 659 2057 
C 691 2057 704 2070 736 2114 
C 941 2401 1222 2522 1542 2522 
C 1766 2522 2246 2382 2246 1289 
C 2246 1085 2246 715 2054 421 
C 1894 159 1645 25 1370 25 
C 947 25 518 320 403 814 
C 429 807 480 795 506 795 
C 589 795 749 840 749 1038 
C 749 1210 627 1280 506 1280 
C 358 1280 262 1190 262 1011 
C 262 454 704 -128 1382 -128 
C 2042 -128 2669 440 2669 1264 
C 2669 2030 2170 2624 1549 2624 
C 1222 2624 947 2503 730 2274 
L 730 3692 
z
" transform="scale(0.015625)"/>
       </defs>
       <use xlink:href="#CMR17-35" transform="scale(0.996264)"/>
      </g>
     </g>
    </g>
    <g id="ytick_3">
     <g id="line2d_8">
      <g>
       <use xlink:href="#mbcfc0a6a73" x="46.115945" y="225.112243" style="stroke: #000000; stroke-width: 0.8"/>
      </g>
     </g>
     <g id="text_9">
      <!-- $\mathdefault{10}$ -->
      <g transform="translate(24.483469 230.301106) scale(0.15 -0.15)">
       <defs>
        <path id="CMR17-31" d="M 1702 4058 
C 1702 4192 1696 4192 1606 4192 
C 1357 3916 979 3827 621 3827 
C 602 3827 570 3827 563 3808 
C 557 3795 557 3782 557 3648 
C 755 3648 1088 3686 1344 3839 
L 1344 461 
C 1344 236 1331 160 781 160 
L 589 160 
L 589 0 
C 896 0 1216 0 1523 0 
C 1830 0 2150 0 2458 0 
L 2458 160 
L 2266 160 
C 1715 160 1702 230 1702 458 
L 1702 4058 
z
" transform="scale(0.015625)"/>
       </defs>
       <use xlink:href="#CMR17-31" transform="scale(0.996264)"/>
       <use xlink:href="#CMR17-30" transform="translate(45.690477 0) scale(0.996264)"/>
      </g>
     </g>
    </g>
    <g id="ytick_4">
     <g id="line2d_9">
      <g>
       <use xlink:href="#mbcfc0a6a73" x="46.115945" y="189.210379" style="stroke: #000000; stroke-width: 0.8"/>
      </g>
     </g>
     <g id="text_10">
      <!-- $\mathdefault{15}$ -->
      <g transform="translate(24.483469 194.399242) scale(0.15 -0.15)">
       <use xlink:href="#CMR17-31" transform="scale(0.996264)"/>
       <use xlink:href="#CMR17-35" transform="translate(45.690477 0) scale(0.996264)"/>
      </g>
     </g>
    </g>
    <g id="ytick_5">
     <g id="line2d_10">
      <g>
       <use xlink:href="#mbcfc0a6a73" x="46.115945" y="153.308515" style="stroke: #000000; stroke-width: 0.8"/>
      </g>
     </g>
     <g id="text_11">
      <!-- $\mathdefault{20}$ -->
      <g transform="translate(24.483469 158.497377) scale(0.15 -0.15)">
       <use xlink:href="#CMR17-32" transform="scale(0.996264)"/>
       <use xlink:href="#CMR17-30" transform="translate(45.690477 0) scale(0.996264)"/>
      </g>
     </g>
    </g>
    <g id="ytick_6">
     <g id="line2d_11">
      <g>
       <use xlink:href="#mbcfc0a6a73" x="46.115945" y="117.406651" style="stroke: #000000; stroke-width: 0.8"/>
      </g>
     </g>
     <g id="text_12">
      <!-- $\mathdefault{25}$ -->
      <g transform="translate(24.483469 122.595513) scale(0.15 -0.15)">
       <use xlink:href="#CMR17-32" transform="scale(0.996264)"/>
       <use xlink:href="#CMR17-35" transform="translate(45.690477 0) scale(0.996264)"/>
      </g>
     </g>
    </g>
    <g id="ytick_7">
     <g id="line2d_12">
      <g>
       <use xlink:href="#mbcfc0a6a73" x="46.115945" y="81.504787" style="stroke: #000000; stroke-width: 0.8"/>
      </g>
     </g>
     <g id="text_13">
      <!-- $\mathdefault{30}$ -->
      <g transform="translate(24.483469 86.693649) scale(0.15 -0.15)">
       <defs>
        <path id="CMR17-33" d="M 1414 2157 
C 1984 2157 2234 1662 2234 1090 
C 2234 320 1824 25 1453 25 
C 1114 25 563 194 390 693 
C 422 680 454 680 486 680 
C 640 680 755 782 755 948 
C 755 1133 614 1216 486 1216 
C 378 1216 211 1165 211 926 
C 211 335 787 -128 1466 -128 
C 2176 -128 2720 430 2720 1085 
C 2720 1707 2208 2157 1600 2227 
C 2086 2328 2554 2756 2554 3329 
C 2554 3820 2048 4179 1472 4179 
C 890 4179 378 3829 378 3329 
C 378 3110 544 3072 627 3072 
C 762 3072 877 3155 877 3321 
C 877 3486 762 3569 627 3569 
C 602 3569 570 3569 544 3557 
C 730 3959 1235 4032 1459 4032 
C 1683 4032 2106 3925 2106 3320 
C 2106 3143 2080 2828 1862 2550 
C 1670 2304 1453 2304 1242 2284 
C 1210 2284 1062 2269 1037 2269 
C 992 2263 966 2257 966 2208 
C 966 2163 973 2157 1101 2157 
L 1414 2157 
z
" transform="scale(0.015625)"/>
       </defs>
       <use xlink:href="#CMR17-33" transform="scale(0.996264)"/>
       <use xlink:href="#CMR17-30" transform="translate(45.690477 0) scale(0.996264)"/>
      </g>
     </g>
    </g>
    <g id="ytick_8">
     <g id="line2d_13">
      <g>
       <use xlink:href="#mbcfc0a6a73" x="46.115945" y="45.602922" style="stroke: #000000; stroke-width: 0.8"/>
      </g>
     </g>
     <g id="text_14">
      <!-- $\mathdefault{35}$ -->
      <g transform="translate(24.483469 50.791785) scale(0.15 -0.15)">
       <use xlink:href="#CMR17-33" transform="scale(0.996264)"/>
       <use xlink:href="#CMR17-35" transform="translate(45.690477 0) scale(0.996264)"/>
      </g>
     </g>
    </g>
    <g id="text_15">
     <!-- X-coordinate -->
     <g transform="translate(17.577725 205.709389) rotate(-90) scale(0.15 -0.15)">
      <defs>
       <path id="CMR17-58" d="M 2336 2398 
L 3283 3753 
C 3379 3886 3571 4160 4096 4160 
L 4096 4332 
C 3949 4319 3706 4319 3552 4319 
C 3341 4319 3078 4319 2918 4332 
L 2918 4166 
C 3123 4147 3174 4020 3174 3918 
C 3174 3843 3142 3792 3098 3728 
L 2253 2513 
L 1306 3887 
C 1261 3956 1254 3975 1254 3994 
C 1254 4052 1325 4160 1536 4160 
L 1536 4319 
C 1331 4319 1018 4319 806 4319 
C 640 4319 320 4319 166 4332 
L 166 4160 
C 518 4160 634 4148 774 3951 
L 2010 2163 
L 896 549 
C 621 153 205 153 83 153 
L 83 -13 
C 230 0 474 0 627 0 
C 800 0 1101 0 1261 -13 
L 1261 153 
C 1062 172 1005 299 1005 401 
C 1005 483 1037 528 1069 572 
L 2093 2048 
L 3206 422 
C 3258 352 3258 333 3258 314 
C 3258 263 3200 153 2976 153 
L 2976 0 
C 3181 0 3494 0 3706 0 
C 3872 0 4192 0 4346 -13 
L 4346 153 
C 3936 153 3872 184 3744 363 
L 2336 2398 
z
" transform="scale(0.015625)"/>
       <path id="CMR17-2d" d="M 1632 1216 
L 1632 1496 
L 26 1496 
L 26 1216 
L 1632 1216 
z
" transform="scale(0.015625)"/>
       <path id="CMR17-63" d="M 2234 2240 
C 2112 2240 1933 2240 1933 2017 
C 1933 1838 2080 1787 2163 1787 
C 2208 1787 2394 1807 2394 2024 
C 2394 2467 1958 2803 1466 2803 
C 787 2803 211 2178 211 1363 
C 211 516 813 -64 1466 -64 
C 2259 -64 2458 677 2458 748 
C 2458 774 2451 793 2406 793 
C 2362 793 2355 787 2330 703 
C 2163 180 1798 51 1523 51 
C 1114 51 621 427 621 1369 
C 621 2338 1094 2688 1472 2688 
C 1722 2688 2093 2573 2234 2240 
z
" transform="scale(0.015625)"/>
       <path id="CMR17-6f" d="M 2758 1356 
C 2758 2176 2163 2816 1466 2816 
C 768 2816 173 2176 173 1356 
C 173 551 768 -64 1466 -64 
C 2163 -64 2758 551 2758 1356 
z
M 1466 51 
C 1165 51 909 230 762 480 
C 602 767 582 1126 582 1408 
C 582 1677 595 2010 762 2298 
C 890 2509 1139 2714 1466 2714 
C 1754 2714 1997 2554 2150 2330 
C 2349 2029 2349 1607 2349 1408 
C 2349 1158 2336 775 2163 467 
C 1984 173 1709 51 1466 51 
z
" transform="scale(0.015625)"/>
       <path id="CMR17-72" d="M 960 1497 
C 960 2112 1222 2688 1702 2688 
C 1747 2688 1792 2682 1837 2662 
C 1837 2662 1696 2617 1696 2452 
C 1696 2298 1818 2234 1914 2234 
C 1990 2234 2131 2279 2131 2458 
C 2131 2663 1926 2790 1709 2790 
C 1222 2790 1011 2317 947 2093 
L 941 2093 
L 941 2790 
L 198 2720 
L 198 2554 
C 576 2554 634 2515 634 2208 
L 634 428 
C 634 184 608 153 198 153 
L 198 -13 
C 352 0 646 0 813 0 
C 998 0 1325 0 1498 -13 
L 1498 153 
C 1037 153 960 153 960 440 
L 960 1497 
z
" transform="scale(0.015625)"/>
       <path id="CMR17-64" d="M 1869 4326 
L 1869 4160 
C 2246 4160 2304 4122 2304 3820 
L 2304 2345 
C 2278 2377 2016 2790 1498 2790 
C 845 2790 211 2208 211 1364 
C 211 525 806 -64 1434 -64 
C 1978 -64 2259 337 2291 380 
L 2291 -63 
L 3066 -63 
L 3066 128 
C 2688 128 2630 166 2630 473 
L 2630 4396 
L 1869 4326 
z
M 2291 755 
C 2291 563 2176 390 2029 262 
C 1811 70 1594 38 1472 38 
C 1286 38 621 134 621 1356 
C 621 2612 1363 2688 1530 2688 
C 1824 2688 2061 2522 2208 2291 
C 2291 2157 2291 2138 2291 2023 
L 2291 755 
z
" transform="scale(0.015625)"/>
       <path id="CMR17-6e" d="M 2656 1933 
C 2656 2259 2592 2790 1837 2790 
C 1331 2790 1069 2400 973 2144 
L 966 2144 
L 966 2790 
L 211 2720 
L 211 2554 
C 589 2554 646 2515 646 2208 
L 646 428 
C 646 184 621 153 211 153 
L 211 -13 
C 365 0 646 0 813 0 
C 979 0 1267 0 1421 -13 
L 1421 153 
C 1011 153 986 178 986 428 
L 986 1658 
C 986 2247 1344 2688 1792 2688 
C 2266 2688 2317 2266 2317 1958 
L 2317 428 
C 2317 184 2291 153 1882 153 
L 1882 -13 
C 2035 0 2317 0 2483 0 
C 2650 0 2938 0 3091 -13 
L 3091 153 
C 2682 153 2656 178 2656 428 
L 2656 1933 
z
" transform="scale(0.015625)"/>
       <path id="CMR17-61" d="M 2304 1653 
C 2304 2072 2304 2294 2035 2543 
C 1798 2752 1523 2816 1306 2816 
C 800 2816 435 2407 435 1971 
C 435 1728 627 1728 666 1728 
C 749 1728 896 1778 896 1954 
C 896 2112 774 2181 666 2181 
C 640 2181 608 2174 589 2168 
C 723 2592 1069 2714 1293 2714 
C 1613 2714 1965 2429 1965 1885 
L 1965 1600 
C 1587 1600 1133 1549 774 1357 
C 371 1133 256 813 256 570 
C 256 77 832 -64 1171 -64 
C 1523 -64 1850 139 1990 511 
C 2003 233 2182 -18 2464 -18 
C 2598 -18 2938 70 2938 567 
L 2938 920 
L 2822 920 
L 2822 562 
C 2822 178 2650 128 2566 128 
C 2304 128 2304 458 2304 738 
L 2304 1653 
z
M 1965 870 
C 1965 317 1568 38 1216 38 
C 896 38 646 275 646 570 
C 646 761 730 1100 1101 1305 
C 1408 1478 1760 1504 1965 1504 
L 1965 870 
z
" transform="scale(0.015625)"/>
       <path id="CMR17-74" d="M 966 2560 
L 1862 2560 
L 1862 2725 
L 966 2725 
L 966 3904 
L 851 3904 
C 838 3245 614 2668 70 2668 
L 70 2560 
L 627 2560 
L 627 771 
C 627 650 627 -64 1370 -64 
C 1747 -64 1965 306 1965 777 
L 1965 1140 
L 1850 1140 
L 1850 783 
C 1850 344 1677 51 1408 51 
C 1222 51 966 178 966 758 
L 966 2560 
z
" transform="scale(0.015625)"/>
      </defs>
      <use xlink:href="#CMR17-58" transform="scale(0.996264)"/>
      <use xlink:href="#CMR17-2d" transform="translate(69.07243 0) scale(0.996264)"/>
      <use xlink:href="#CMR17-63" transform="translate(99.148396 0) scale(0.996264)"/>
      <use xlink:href="#CMR17-6f" transform="translate(139.634057 0) scale(0.996264)"/>
      <use xlink:href="#CMR17-6f" transform="translate(187.926972 0) scale(0.996264)"/>
      <use xlink:href="#CMR17-72" transform="translate(233.61745 0) scale(0.996264)"/>
      <use xlink:href="#CMR17-64" transform="translate(268.898217 0) scale(0.996264)"/>
      <use xlink:href="#CMR17-69" transform="translate(319.793587 0) scale(0.996264)"/>
      <use xlink:href="#CMR17-6e" transform="translate(344.664646 0) scale(0.996264)"/>
      <use xlink:href="#CMR17-61" transform="translate(395.560015 0) scale(0.996264)"/>
      <use xlink:href="#CMR17-74" transform="translate(441.250493 0) scale(0.996264)"/>
      <use xlink:href="#CMR17-65" transform="translate(476.53126 0) scale(0.996264)"/>
     </g>
    </g>
   </g>
   <g id="line2d_14">
    <path d="M 46.115945 296.493407 
L 46.755792 296.317603 
L 47.395639 296.332416 
L 48.035486 296.471952 
L 48.675334 296.174957 
L 49.955028 296.449564 
L 50.594875 296.256598 
L 51.874569 295.219587 
L 52.514416 295.286494 
L 53.79411 295.54824 
L 54.433958 295.173712 
L 55.073805 294.586479 
L 55.713652 294.316785 
L 56.353499 294.403114 
L 56.993346 294.626876 
L 58.912887 294.802163 
L 60.192581 295.136324 
L 60.832429 294.962271 
L 61.472276 295.0073 
L 64.031664 294.800986 
L 64.671511 294.887459 
L 65.951205 294.329185 
L 66.591053 293.638993 
L 67.2309 293.383085 
L 68.510594 293.560325 
L 69.150441 293.375962 
L 70.430135 293.3792 
L 71.069982 293.068707 
L 71.709829 292.912907 
L 72.349677 293.514787 
L 73.629371 292.890935 
L 74.269218 292.71666 
L 74.909065 292.971255 
L 75.548912 292.763469 
L 76.188759 292.86296 
L 77.468453 292.49824 
L 80.027842 293.12131 
L 80.667689 292.570202 
L 82.58723 291.967884 
L 83.227077 292.065127 
L 83.866925 291.839276 
L 85.146619 292.369116 
L 85.786466 292.274299 
L 86.426313 291.966067 
L 87.706007 291.786694 
L 88.345854 292.209324 
L 88.985701 292.209202 
L 89.625549 292.686459 
L 90.265396 292.78249 
L 91.54509 293.738872 
L 92.824784 293.987284 
L 94.104478 293.961945 
L 94.744325 293.730529 
L 95.384173 293.051668 
L 96.02402 293.099776 
L 96.663867 292.570518 
L 97.303714 292.529741 
L 97.943561 292.760424 
L 99.223255 293.9671 
L 100.502949 293.770559 
L 101.142796 293.742254 
L 101.782644 293.39565 
L 103.062338 293.449266 
L 103.702185 293.331781 
L 104.981879 293.634118 
L 105.621726 293.706532 
L 106.261573 293.486468 
L 108.181115 293.392778 
L 109.460809 293.434381 
L 110.100656 293.331444 
L 110.740503 293.382352 
L 111.38035 293.678026 
L 112.020197 293.65385 
L 113.299892 292.846797 
L 114.579586 292.887223 
L 115.219433 292.513398 
L 115.85928 292.617729 
L 116.499127 292.410913 
L 117.138974 292.075855 
L 118.418668 291.889833 
L 119.058516 291.899562 
L 119.698363 292.431721 
L 121.617904 292.492546 
L 122.897598 292.31453 
L 123.537445 292.231238 
L 124.177292 292.311364 
L 127.376528 291.564325 
L 128.016375 291.740919 
L 129.296069 291.800595 
L 129.935916 292.317805 
L 130.575764 292.301807 
L 131.215611 292.407818 
L 131.855458 292.28512 
L 132.495305 291.921118 
L 133.135152 291.817333 
L 133.774999 291.892001 
L 134.414846 292.13831 
L 135.054693 291.886552 
L 135.69454 292.161696 
L 136.974235 291.808544 
L 137.614082 291.920852 
L 138.253929 291.682162 
L 138.893776 291.687332 
L 139.533623 291.374699 
L 140.813317 291.093056 
L 141.453164 291.30604 
L 142.093012 291.239981 
L 142.732859 290.972971 
L 143.372706 290.918415 
L 145.932094 291.669553 
L 147.211788 291.803223 
L 148.491483 291.486842 
L 149.13133 291.664211 
L 150.411024 291.739411 
L 151.690718 291.471239 
L 152.330565 291.414686 
L 152.970412 291.475698 
L 153.610259 291.362549 
L 154.250107 291.062848 
L 154.889954 291.228449 
L 155.529801 291.548708 
L 156.809495 291.731269 
L 158.089189 291.362413 
L 158.729036 291.380457 
L 159.368883 291.115272 
L 160.008731 290.987612 
L 160.648578 290.997636 
L 161.288425 290.850259 
L 161.928272 290.925538 
L 162.568119 291.129848 
L 163.207966 290.842475 
L 163.847813 290.799752 
L 165.127507 291.179385 
L 166.407202 290.789836 
L 167.047049 290.456106 
L 167.686896 290.302497 
L 168.326743 290.374343 
L 168.96659 290.306317 
L 170.246284 290.047881 
L 170.886131 289.965967 
L 171.525979 289.553304 
L 172.165826 289.758907 
L 172.805673 289.054663 
L 173.44552 288.782448 
L 174.725214 288.668955 
L 175.365061 288.615123 
L 176.004908 288.8267 
L 176.644755 288.770385 
L 177.284603 289.015932 
L 177.92445 289.022854 
L 178.564297 289.288492 
L 179.204144 288.993306 
L 181.123685 289.060321 
L 181.763532 288.923901 
L 183.043227 289.604457 
L 184.322921 289.741307 
L 186.882309 289.707926 
L 187.522156 289.784978 
L 188.80185 289.580675 
L 190.081545 289.290394 
L 191.361239 289.05551 
L 192.001086 289.085668 
L 193.28078 288.857813 
L 193.920627 287.82758 
L 195.200322 287.857666 
L 195.840169 288.020524 
L 196.480016 287.927854 
L 197.119863 288.221388 
L 199.039404 288.422912 
L 199.679251 287.959024 
L 200.319098 288.090719 
L 202.23864 287.983624 
L 203.518334 288.258805 
L 204.158181 287.997633 
L 206.71757 288.027051 
L 207.357417 288.115211 
L 207.997264 288.061653 
L 208.637111 288.339146 
L 209.276958 288.418647 
L 210.556652 288.725558 
L 211.196499 288.260277 
L 212.476194 287.914858 
L 213.755888 287.825663 
L 215.035582 288.191244 
L 215.675429 288.183633 
L 216.955123 288.5027 
L 218.234818 287.77553 
L 219.514512 287.7261 
L 220.154359 287.924451 
L 221.434053 287.786681 
L 222.0739 287.507063 
L 223.353594 287.277707 
L 223.993442 286.860535 
L 224.633289 287.173269 
L 225.273136 287.27691 
L 225.912983 287.809651 
L 229.112218 287.533924 
L 229.752065 287.857364 
L 230.391913 287.767229 
L 231.671607 287.25412 
L 232.311454 287.44361 
L 233.591148 286.919407 
L 235.510689 287.077791 
L 236.790384 287.174726 
L 237.430231 287.460634 
L 240.629466 286.797671 
L 241.269313 286.505063 
L 242.549008 286.920835 
L 243.188855 287.335136 
L 243.828702 287.360138 
L 245.748243 287.903613 
L 246.38809 287.831034 
L 247.027937 288.106092 
L 248.947479 287.892146 
L 249.587326 288.443247 
L 250.227173 288.481288 
L 251.506867 288.900751 
L 252.146714 289.642735 
L 252.786561 289.7262 
L 255.34595 289.27813 
L 256.625644 288.831849 
L 259.185033 288.269195 
L 259.82488 288.095135 
L 261.104574 288.507985 
L 262.384268 287.838272 
L 263.024115 287.874798 
L 263.663962 287.640115 
L 264.303809 287.154233 
L 264.943657 287.401906 
L 265.583504 287.79674 
L 266.223351 287.526737 
L 266.863198 288.141298 
L 267.503045 288.532571 
L 270.062433 288.10159 
L 270.70228 287.383754 
L 273.261669 287.359678 
L 273.901516 287.526902 
L 274.541363 287.401095 
L 275.18121 287.591446 
L 275.821057 287.448945 
L 276.460904 287.009506 
L 277.100752 286.923736 
L 277.740599 287.605333 
L 278.380446 287.973421 
L 279.020293 287.746234 
L 280.299987 289.069777 
L 280.939834 289.212279 
L 281.579681 288.911938 
L 284.13907 289.223042 
L 286.058611 289.040295 
L 286.698458 289.334604 
L 287.338305 289.255455 
L 287.978152 289.474406 
L 288.618 289.429586 
L 289.257847 289.565259 
L 290.537541 289.63516 
L 291.177388 289.993496 
L 293.096929 290.133866 
L 295.016471 290.24481 
L 296.296165 290.67859 
L 298.215706 290.305821 
L 298.855553 290.55521 
L 299.4954 290.66196 
L 300.775095 290.314545 
L 301.414942 290.447016 
L 302.694636 290.414956 
L 303.334483 290.217919 
L 303.97433 290.345816 
L 304.614177 290.249218 
L 305.254024 290.306159 
L 305.893872 290.201045 
L 306.533719 290.521512 
L 307.173566 291.121964 
L 307.813413 290.78682 
L 308.45326 290.185335 
L 309.093107 290.108289 
L 309.732954 290.179325 
L 313.572037 289.679011 
L 314.211884 289.30464 
L 314.851731 289.128391 
L 315.491578 289.290552 
L 316.131425 289.11072 
L 316.771272 289.489082 
L 317.411119 289.580137 
L 318.050967 289.914168 
L 318.690814 290.105783 
L 321.250202 290.248752 
L 322.529896 290.525713 
L 324.449438 290.378393 
L 325.089285 290.649273 
L 325.729132 290.436892 
L 326.368979 290.526366 
L 327.008826 290.377266 
L 327.648673 290.63242 
L 328.28852 290.715957 
L 330.208062 290.624486 
L 331.487756 290.370789 
L 332.127603 290.433373 
L 334.047144 289.645004 
L 334.686991 289.458882 
L 339.165921 290.48304 
L 339.805768 290.525038 
L 340.445615 290.130757 
L 341.085463 290.278069 
L 341.72531 289.896289 
L 344.284698 287.170339 
L 344.924545 286.619712 
L 346.204239 286.774327 
L 347.483934 286.682785 
L 348.763628 286.512559 
L 349.403475 286.228698 
L 350.043322 285.682968 
L 351.323016 285.617641 
L 351.962863 285.755059 
L 352.60271 285.630472 
L 353.242558 285.225506 
L 354.522252 285.346575 
L 361.56057 285.374521 
L 364.119958 285.272365 
L 374.357512 285.162757 
L 376.277054 285.131537 
L 382.675525 284.963688 
L 384.595066 284.890635 
L 391.633384 284.885264 
L 394.83262 284.815378 
L 398.031855 284.729759 
L 399.311549 284.656763 
L 404.430326 284.591286 
L 405.710021 284.665732 
L 409.549103 284.72996 
L 410.828797 284.683575 
L 413.388186 284.801742 
L 418.506963 284.764548 
L 421.066351 284.527667 
L 422.346045 284.529147 
L 424.265587 284.37884 
L 426.824975 284.443614 
L 428.744517 284.42608 
L 428.744517 284.42608 
" clip-path="url(#p2d228451ec)" style="fill: none; stroke: #4169e1; stroke-opacity: 0.7; stroke-width: 1.5; stroke-linecap: square"/>
   </g>
   <g id="line2d_15">
    <path d="M 46.115945 296.781433 
L 46.755792 297.18329 
L 47.395639 296.920632 
L 48.035486 296.514754 
L 48.675334 295.467439 
L 49.955028 296.333105 
L 50.594875 296.774892 
L 51.234722 296.397628 
L 51.874569 296.319707 
L 52.514416 296.490815 
L 53.154263 297.086132 
L 53.79411 298.266607 
L 54.433958 298.64367 
L 55.073805 297.712275 
L 55.713652 297.396856 
L 56.353499 297.832029 
L 57.633193 296.490736 
L 58.27304 296.391044 
L 58.912887 295.414412 
L 60.192581 294.838489 
L 61.472276 295.287779 
L 62.112123 294.670676 
L 63.391817 294.020609 
L 64.031664 294.115217 
L 64.671511 293.819063 
L 65.311358 293.871515 
L 65.951205 294.438729 
L 66.591053 294.120186 
L 67.2309 293.559636 
L 67.870747 294.008876 
L 68.510594 293.771177 
L 69.150441 293.952876 
L 69.790288 295.1167 
L 70.430135 294.924194 
L 71.069982 295.783002 
L 71.709829 295.889401 
L 72.349677 295.479179 
L 72.989524 294.839193 
L 74.269218 294.692799 
L 74.909065 294.216791 
L 75.548912 294.622159 
L 76.188759 295.306915 
L 77.468453 295.279342 
L 78.748148 294.914479 
L 79.387995 294.901662 
L 80.027842 296.149984 
L 80.667689 295.743273 
L 81.307536 294.763713 
L 81.947383 294.624701 
L 82.58723 294.090703 
L 83.227077 294.418739 
L 83.866925 293.601627 
L 84.506772 292.516163 
L 85.146619 292.661019 
L 85.786466 291.786278 
L 86.426313 292.419278 
L 87.06616 292.372936 
L 88.345854 292.588534 
L 88.985701 292.91947 
L 89.625549 292.158975 
L 90.265396 291.845221 
L 90.905243 292.218852 
L 91.54509 292.897929 
L 92.184937 293.354636 
L 92.824784 292.742071 
L 93.464631 291.856516 
L 94.744325 291.790449 
L 95.384173 292.827798 
L 96.02402 292.573139 
L 96.663867 291.350666 
L 97.303714 290.676587 
L 97.943561 290.715189 
L 98.583408 291.066524 
L 99.863102 290.977021 
L 100.502949 290.723259 
L 101.142796 290.679272 
L 101.782644 291.179996 
L 102.422491 290.304672 
L 103.062338 288.918839 
L 103.702185 288.97705 
L 104.342032 288.28316 
L 104.981879 289.51048 
L 105.621726 290.113962 
L 106.261573 290.200578 
L 106.90142 290.003829 
L 107.541268 289.459456 
L 108.181115 289.137165 
L 109.460809 289.662934 
L 110.100656 289.511026 
L 110.740503 289.12353 
L 111.38035 289.688101 
L 112.660044 289.873218 
L 113.939739 288.911414 
L 115.219433 288.8389 
L 115.85928 289.690075 
L 116.499127 289.777166 
L 117.138974 290.422854 
L 117.778821 290.702774 
L 118.418668 291.292613 
L 119.058516 291.188562 
L 119.698363 290.971585 
L 120.33821 290.609989 
L 120.978057 289.894616 
L 121.617904 289.820119 
L 122.897598 289.102671 
L 123.537445 288.780042 
L 124.177292 288.952601 
L 124.81714 289.440708 
L 125.456987 289.452412 
L 126.096834 289.089373 
L 126.736681 289.1575 
L 127.376528 289.517933 
L 128.016375 289.358543 
L 128.656222 288.915723 
L 129.935916 288.711269 
L 131.855458 287.196411 
L 132.495305 287.427188 
L 133.774999 287.45535 
L 134.414846 287.55413 
L 135.054693 287.36879 
L 135.69454 286.743954 
L 136.334388 287.166024 
L 137.614082 287.560025 
L 138.253929 287.294804 
L 138.893776 286.810172 
L 139.533623 285.995278 
L 140.17347 285.719114 
L 140.813317 285.746349 
L 141.453164 284.945278 
L 142.732859 284.946958 
L 143.372706 284.701914 
L 144.012553 285.093323 
L 145.292247 285.424259 
L 145.932094 285.04581 
L 146.571941 285.401217 
L 147.211788 285.115647 
L 147.851635 284.562866 
L 149.13133 284.047581 
L 150.411024 282.828956 
L 151.050871 281.359299 
L 151.690718 280.723772 
L 152.970412 281.565491 
L 153.610259 280.564051 
L 154.889954 280.242299 
L 155.529801 279.619782 
L 156.169648 279.212569 
L 157.449342 279.81791 
L 158.089189 279.725211 
L 158.729036 279.265732 
L 160.648578 279.290296 
L 161.928272 280.558429 
L 163.207966 279.839358 
L 163.847813 279.078712 
L 164.48766 279.196894 
L 165.127507 279.634976 
L 165.767355 279.069227 
L 166.407202 279.4196 
L 167.686896 278.732719 
L 168.326743 279.554355 
L 169.606437 280.388814 
L 170.246284 280.390487 
L 171.525979 280.084367 
L 172.165826 279.715446 
L 173.44552 279.884853 
L 174.085367 279.614835 
L 174.725214 279.796599 
L 175.365061 279.85527 
L 176.004908 280.174983 
L 176.644755 279.769665 
L 177.284603 280.534325 
L 177.92445 280.724547 
L 179.843991 280.550746 
L 180.483838 280.145134 
L 181.123685 280.046986 
L 181.763532 280.236354 
L 182.403379 281.111354 
L 183.043227 281.079731 
L 184.322921 280.649333 
L 184.962768 280.722292 
L 185.602615 280.282882 
L 186.882309 280.812356 
L 187.522156 281.643936 
L 188.80185 280.839139 
L 190.081545 280.898463 
L 190.721392 280.828813 
L 191.361239 281.352119 
L 192.001086 281.202523 
L 193.28078 280.447729 
L 193.920627 280.555938 
L 195.200322 279.864001 
L 195.840169 279.119999 
L 196.480016 278.867286 
L 197.75971 279.418006 
L 198.399557 278.380148 
L 199.039404 277.625642 
L 199.679251 277.114378 
L 200.319098 278.330797 
L 200.958946 278.739368 
L 201.598793 280.788302 
L 202.23864 281.263743 
L 204.158181 281.22461 
L 204.798028 281.292565 
L 205.437875 281.030266 
L 206.077722 281.421 
L 206.71757 280.08968 
L 207.357417 279.226621 
L 207.997264 278.633759 
L 208.637111 278.486525 
L 209.276958 278.155453 
L 209.916805 278.135218 
L 210.556652 278.445741 
L 211.196499 278.988117 
L 213.116041 278.681566 
L 213.755888 278.376838 
L 214.395735 278.44172 
L 215.035582 278.662121 
L 215.675429 278.346637 
L 216.315276 278.709842 
L 216.955123 279.362165 
L 217.59497 280.534016 
L 218.234818 280.311568 
L 218.874665 280.461214 
L 219.514512 279.09224 
L 220.154359 278.761792 
L 221.434053 277.640943 
L 222.0739 277.559539 
L 223.353594 276.339781 
L 223.993442 276.856078 
L 224.633289 276.637249 
L 225.273136 276.120104 
L 225.912983 276.536257 
L 226.55283 276.304396 
L 227.192677 276.215754 
L 227.832524 275.29304 
L 228.472371 275.083689 
L 229.112218 276.003035 
L 229.752065 276.00366 
L 230.391913 278.402429 
L 231.03176 278.084346 
L 231.671607 278.840087 
L 232.311454 279.101079 
L 232.951301 279.815842 
L 233.591148 279.81083 
L 234.230995 280.264027 
L 234.870842 280.298421 
L 235.510689 280.16195 
L 237.430231 280.765332 
L 238.709925 280.390322 
L 239.349772 279.812072 
L 239.989619 279.915412 
L 240.629466 279.803111 
L 241.909161 280.572811 
L 242.549008 280.68135 
L 243.188855 279.740333 
L 243.828702 279.770412 
L 244.468549 279.535686 
L 245.108396 280.460769 
L 245.748243 279.537631 
L 246.38809 278.999513 
L 247.027937 279.45487 
L 247.667785 278.465846 
L 248.307632 279.13599 
L 248.947479 279.631199 
L 249.587326 279.635837 
L 250.227173 279.295552 
L 251.506867 279.489631 
L 252.146714 279.870765 
L 252.786561 279.91496 
L 253.426409 279.244457 
L 254.706103 279.447202 
L 255.34595 279.298403 
L 255.985797 280.152365 
L 256.625644 280.690878 
L 257.265491 280.573623 
L 257.905338 280.678937 
L 258.545185 280.366828 
L 259.185033 279.92945 
L 259.82488 280.036294 
L 261.104574 280.944274 
L 261.744421 280.491228 
L 262.384268 280.940777 
L 263.024115 280.868104 
L 263.663962 280.665991 
L 264.303809 280.624108 
L 265.583504 281.619875 
L 266.223351 281.387403 
L 266.863198 280.836676 
L 267.503045 280.933876 
L 268.142892 280.299304 
L 269.422586 280.859603 
L 270.062433 279.98191 
L 270.70228 279.771238 
L 271.981975 280.838241 
L 272.621822 280.82686 
L 273.901516 279.546758 
L 275.18121 279.041654 
L 275.821057 279.091005 
L 276.460904 278.718171 
L 277.100752 278.081761 
L 277.740599 278.005462 
L 278.380446 278.903066 
L 279.020293 277.986154 
L 279.66014 278.194299 
L 280.939834 278.939004 
L 281.579681 278.927386 
L 282.859376 279.627415 
L 283.499223 278.63256 
L 284.13907 277.26174 
L 284.778917 276.978374 
L 286.698458 277.934146 
L 287.978152 278.065318 
L 288.618 278.581299 
L 289.257847 278.670853 
L 289.897694 279.02636 
L 291.177388 278.543092 
L 291.817235 278.062797 
L 292.457082 277.812037 
L 293.096929 277.096183 
L 293.736776 277.00953 
L 294.376624 277.119275 
L 295.016471 276.561266 
L 295.656318 277.313532 
L 296.296165 277.259744 
L 296.936012 277.450606 
L 298.215706 278.124024 
L 298.855553 277.711828 
L 299.4954 276.849838 
L 300.135248 276.661727 
L 301.414942 276.61853 
L 302.054789 277.17218 
L 302.694636 276.986962 
L 303.334483 275.949484 
L 303.97433 275.782964 
L 304.614177 275.197907 
L 305.254024 274.096783 
L 306.533719 273.904873 
L 307.173566 274.221764 
L 307.813413 273.925129 
L 308.45326 275.175627 
L 309.093107 275.673449 
L 309.732954 275.180179 
L 310.372801 275.158825 
L 311.012648 275.581189 
L 311.652495 276.510042 
L 312.292343 277.233421 
L 312.93219 277.088758 
L 314.211884 276.019127 
L 314.851731 276.1562 
L 315.491578 276.061139 
L 316.131425 274.712083 
L 316.771272 274.920831 
L 318.050967 274.361667 
L 318.690814 273.86816 
L 319.330661 273.902425 
L 319.970508 274.32705 
L 320.610355 274.149472 
L 321.250202 274.60213 
L 321.890049 274.431316 
L 322.529896 274.069533 
L 323.169743 273.929861 
L 323.809591 273.648196 
L 325.089285 273.370804 
L 325.729132 272.891593 
L 327.008826 272.814009 
L 327.648673 273.372614 
L 328.28852 273.55152 
L 329.568215 274.158943 
L 330.208062 273.867471 
L 332.76745 273.317619 
L 334.047144 272.393512 
L 334.686991 272.672685 
L 335.326839 272.630702 
L 335.966686 271.841363 
L 336.606533 272.418723 
L 337.886227 271.525132 
L 338.526074 272.237835 
L 339.165921 272.333829 
L 339.805768 272.727522 
L 342.365157 272.368991 
L 343.005004 272.345318 
L 343.644851 272.912739 
L 344.284698 273.278041 
L 344.924545 272.883199 
L 345.564392 272.029618 
L 346.204239 271.635085 
L 346.844087 274.076606 
L 348.123781 273.165137 
L 348.763628 273.163471 
L 349.403475 272.51825 
L 350.043322 271.276699 
L 350.683169 271.213432 
L 351.323016 271.675281 
L 352.60271 270.131846 
L 353.242558 269.594603 
L 354.522252 268.205991 
L 355.162099 268.066828 
L 357.721487 268.092713 
L 367.959041 268.148038 
L 369.878582 268.069319 
L 371.158277 268.171073 
L 371.798124 268.144304 
L 373.077818 268.319871 
L 374.997359 268.149933 
L 376.277054 268.231065 
L 379.476289 268.134316 
L 380.755983 268.221163 
L 382.675525 267.900114 
L 385.234913 267.839124 
L 385.87476 267.968995 
L 386.514607 267.905363 
L 389.713843 268.748066 
L 390.35369 268.765808 
L 392.913078 269.470102 
L 396.112314 269.446608 
L 397.392008 269.34874 
L 398.031855 269.499492 
L 398.671702 269.456934 
L 399.951397 269.756133 
L 402.510785 270.127588 
L 408.909256 269.778198 
L 410.18895 269.64455 
L 412.108492 269.659628 
L 412.748339 269.780668 
L 413.388186 269.778535 
L 414.028033 269.936202 
L 414.66788 269.951633 
L 415.947574 270.238589 
L 416.587421 270.326233 
L 417.227269 270.177721 
L 420.426504 270.171962 
L 421.066351 270.297899 
L 422.346045 270.056337 
L 422.985893 270.07115 
L 423.62574 269.931348 
L 424.905434 270.27215 
L 426.185128 270.546641 
L 426.824975 270.479627 
L 427.464822 270.747699 
L 428.744517 270.824206 
L 428.744517 270.824206 
" clip-path="url(#p2d228451ec)" style="fill: none; stroke: #ff8c00; stroke-opacity: 0.7; stroke-width: 1.5; stroke-linecap: square"/>
   </g>
   <g id="line2d_16">
    <path d="M 46.115945 295.316551 
L 47.395639 294.893268 
L 48.035486 295.555844 
L 48.675334 295.840144 
L 49.315181 297.398213 
L 49.955028 298.195881 
L 50.594875 296.166707 
L 51.234722 296.162765 
L 51.874569 295.890191 
L 52.514416 296.123122 
L 53.154263 294.891451 
L 53.79411 294.492151 
L 54.433958 294.248234 
L 55.073805 293.753391 
L 55.713652 294.014591 
L 56.353499 295.180253 
L 56.993346 292.14819 
L 57.633193 291.298185 
L 58.27304 291.522923 
L 58.912887 288.739286 
L 59.552734 287.615953 
L 60.192581 288.516939 
L 60.832429 289.846471 
L 61.472276 289.444658 
L 62.112123 289.422937 
L 62.75197 287.953861 
L 63.391817 289.504276 
L 64.031664 290.164073 
L 64.671511 288.9619 
L 65.311358 291.848108 
L 65.951205 291.621359 
L 66.591053 290.097145 
L 67.2309 291.698914 
L 67.870747 292.646515 
L 68.510594 291.758655 
L 69.150441 291.793444 
L 70.430135 292.125098 
L 71.069982 291.176599 
L 71.709829 287.628562 
L 72.349677 287.155239 
L 72.989524 288.930758 
L 73.629371 291.705728 
L 74.269218 292.750602 
L 74.909065 292.265991 
L 75.548912 290.892012 
L 76.188759 292.805194 
L 76.828606 294.345872 
L 77.468453 297.477369 
L 78.108301 293.679261 
L 78.748148 292.725434 
L 79.387995 293.512791 
L 80.027842 295.571935 
L 80.667689 295.353056 
L 81.947383 291.686255 
L 82.58723 290.98665 
L 83.227077 289.067042 
L 83.866925 289.345281 
L 84.506772 288.801289 
L 85.146619 290.818658 
L 85.786466 290.639227 
L 86.426313 293.895045 
L 87.06616 294.694817 
L 87.706007 292.225688 
L 88.345854 288.526094 
L 88.985701 287.869585 
L 89.625549 288.003061 
L 90.265396 287.102671 
L 90.905243 286.951223 
L 91.54509 287.715042 
L 92.184937 288.231986 
L 92.824784 290.608933 
L 93.464631 290.615561 
L 94.104478 291.396347 
L 94.744325 291.019536 
L 95.384173 290.797777 
L 96.02402 289.545046 
L 97.303714 289.719551 
L 97.943561 290.086482 
L 98.583408 290.259335 
L 99.223255 290.76436 
L 99.863102 290.78007 
L 100.502949 290.356795 
L 101.142796 286.029952 
L 103.702185 281.342073 
L 104.342032 281.521741 
L 104.981879 285.900935 
L 105.621726 282.524336 
L 106.261573 288.39674 
L 106.90142 290.497149 
L 107.541268 291.717052 
L 108.181115 292.244077 
L 108.820962 292.242669 
L 109.460809 291.676116 
L 110.100656 292.871096 
L 110.740503 291.515276 
L 111.38035 288.954209 
L 112.020197 287.911138 
L 112.660044 290.279189 
L 113.299892 287.790048 
L 113.939739 287.285771 
L 114.579586 288.714557 
L 115.219433 288.837528 
L 115.85928 289.809808 
L 116.499127 292.309533 
L 117.138974 291.493462 
L 118.418668 290.991856 
L 119.058516 287.748998 
L 119.698363 287.910061 
L 120.33821 285.732764 
L 120.978057 284.810574 
L 121.617904 284.149786 
L 122.257751 280.747108 
L 122.897598 283.648014 
L 123.537445 284.690626 
L 124.177292 285.487145 
L 124.81714 285.739657 
L 125.456987 284.555326 
L 126.096834 287.802212 
L 126.736681 290.005459 
L 127.376528 289.202478 
L 128.016375 289.284478 
L 128.656222 285.903642 
L 129.296069 285.639893 
L 129.935916 286.365168 
L 130.575764 286.510693 
L 131.855458 292.458913 
L 132.495305 292.208333 
L 133.135152 291.525659 
L 133.774999 292.004597 
L 134.414846 291.990093 
L 135.054693 291.769353 
L 135.69454 291.020555 
L 136.334388 289.676892 
L 136.974235 288.953735 
L 137.614082 288.019935 
L 138.253929 286.079152 
L 138.893776 283.016895 
L 139.533623 280.999577 
L 140.17347 279.934541 
L 140.813317 280.202232 
L 141.453164 279.56379 
L 142.093012 279.262752 
L 142.732859 279.786058 
L 143.372706 281.954229 
L 144.012553 283.327813 
L 144.6524 282.616288 
L 145.292247 284.849693 
L 146.571941 281.976998 
L 147.211788 282.697922 
L 147.851635 283.738961 
L 148.491483 281.131021 
L 149.771177 278.443048 
L 150.411024 277.833262 
L 151.050871 278.518026 
L 152.330565 276.799001 
L 152.970412 276.144094 
L 153.610259 277.038244 
L 154.250107 279.551253 
L 154.889954 279.139645 
L 155.529801 279.934196 
L 156.169648 275.743479 
L 156.809495 280.211897 
L 157.449342 281.533538 
L 158.089189 280.379645 
L 158.729036 277.404752 
L 159.368883 277.204901 
L 160.648578 279.194575 
L 161.928272 279.934965 
L 162.568119 276.468115 
L 163.207966 276.078013 
L 163.847813 274.720736 
L 164.48766 275.537187 
L 165.127507 275.223599 
L 165.767355 274.253487 
L 166.407202 275.615195 
L 167.047049 279.265675 
L 167.686896 279.30228 
L 168.326743 276.521121 
L 168.96659 277.621994 
L 169.606437 276.725072 
L 170.246284 274.907921 
L 170.886131 272.448744 
L 171.525979 271.017545 
L 172.165826 272.919453 
L 172.805673 272.024764 
L 173.44552 271.529089 
L 174.085367 272.52505 
L 174.725214 273.30053 
L 175.365061 272.484516 
L 176.004908 272.52538 
L 176.644755 272.37009 
L 177.284603 276.059416 
L 178.564297 279.059239 
L 179.204144 271.755041 
L 179.843991 271.061941 
L 180.483838 269.496253 
L 181.123685 271.408423 
L 181.763532 270.574171 
L 182.403379 268.586766 
L 183.043227 267.006797 
L 184.322921 264.897634 
L 184.962768 264.846273 
L 185.602615 263.93178 
L 186.882309 263.609066 
L 187.522156 263.168557 
L 188.162003 262.085426 
L 188.80185 262.110199 
L 189.441698 261.406465 
L 190.081545 261.605483 
L 190.721392 259.997238 
L 191.361239 259.378871 
L 192.001086 259.240599 
L 192.640933 257.704853 
L 193.28078 258.433173 
L 193.920627 257.222677 
L 194.560474 258.807335 
L 195.840169 265.241509 
L 196.480016 265.081394 
L 197.119863 261.497656 
L 197.75971 260.268017 
L 198.399557 261.329979 
L 199.039404 261.07522 
L 199.679251 263.042972 
L 200.319098 263.902944 
L 200.958946 263.890314 
L 202.23864 265.522305 
L 202.878487 265.733372 
L 203.518334 265.512977 
L 204.158181 265.057289 
L 204.798028 265.027484 
L 205.437875 263.54972 
L 206.077722 263.329957 
L 206.71757 263.586354 
L 207.357417 263.335637 
L 208.637111 266.50211 
L 209.276958 269.168426 
L 209.916805 267.868779 
L 210.556652 270.630293 
L 211.196499 270.678559 
L 212.476194 269.340418 
L 213.116041 267.92671 
L 213.755888 268.822993 
L 214.395735 268.194646 
L 215.035582 268.025541 
L 215.675429 266.264052 
L 216.315276 260.086698 
L 216.955123 261.766855 
L 217.59497 263.085394 
L 218.234818 258.302828 
L 218.874665 257.994222 
L 219.514512 256.414928 
L 220.154359 255.499804 
L 220.794206 257.506546 
L 221.434053 255.001228 
L 222.0739 256.079583 
L 222.713747 255.937361 
L 223.353594 258.350807 
L 223.993442 256.940725 
L 224.633289 257.850349 
L 225.273136 256.271256 
L 225.912983 256.490925 
L 226.55283 255.714038 
L 227.192677 257.209365 
L 228.472371 254.683037 
L 229.112218 254.264335 
L 229.752065 250.725416 
L 230.391913 248.801313 
L 231.03176 248.430016 
L 231.671607 248.779341 
L 232.311454 248.510522 
L 232.951301 245.528212 
L 233.591148 244.106247 
L 234.230995 243.490673 
L 234.870842 241.855738 
L 235.510689 243.861705 
L 236.150537 244.697134 
L 236.790384 244.449016 
L 237.430231 245.865115 
L 238.070078 244.946616 
L 238.709925 240.362774 
L 239.349772 240.343265 
L 239.989619 241.881013 
L 240.629466 242.120874 
L 241.269313 243.078843 
L 242.549008 244.204381 
L 243.188855 242.05829 
L 243.828702 241.877538 
L 245.108396 237.693564 
L 245.748243 238.871525 
L 246.38809 239.39216 
L 247.027937 238.796727 
L 247.667785 236.822649 
L 248.307632 237.78469 
L 248.947479 236.680635 
L 249.587326 236.552021 
L 250.227173 237.066968 
L 250.86702 240.191479 
L 251.506867 241.486919 
L 252.146714 240.907412 
L 253.426409 241.150353 
L 254.066256 241.667677 
L 254.706103 244.768629 
L 255.34595 244.235271 
L 255.985797 241.912119 
L 256.625644 241.489568 
L 257.265491 240.589307 
L 257.905338 242.28697 
L 258.545185 242.485184 
L 259.185033 244.413653 
L 259.82488 243.307409 
L 260.464727 242.929764 
L 261.104574 241.221927 
L 261.744421 240.599338 
L 262.384268 235.898535 
L 263.024115 234.816087 
L 263.663962 234.685533 
L 264.303809 236.618755 
L 264.943657 234.619186 
L 265.583504 233.760299 
L 266.223351 231.130573 
L 266.863198 230.831777 
L 267.503045 232.602887 
L 268.142892 229.288772 
L 268.782739 228.964506 
L 270.062433 227.628067 
L 270.70228 226.85268 
L 271.342128 224.322955 
L 271.981975 225.271511 
L 272.621822 224.023764 
L 273.261669 223.020536 
L 273.901516 224.439328 
L 274.541363 226.628817 
L 275.18121 227.817707 
L 275.821057 227.351077 
L 276.460904 227.965594 
L 277.100752 226.7266 
L 277.740599 226.767248 
L 278.380446 226.357708 
L 279.020293 226.290413 
L 279.66014 224.79067 
L 280.299987 228.160685 
L 280.939834 227.886108 
L 281.579681 230.654874 
L 282.219528 225.19616 
L 282.859376 222.595968 
L 283.499223 221.810557 
L 284.13907 220.289043 
L 284.778917 219.516112 
L 285.418764 219.064373 
L 286.058611 217.819239 
L 286.698458 219.571509 
L 287.338305 222.300567 
L 287.978152 222.953709 
L 288.618 222.521314 
L 289.257847 222.270956 
L 289.897694 222.60671 
L 290.537541 223.548265 
L 291.177388 223.670274 
L 291.817235 223.182245 
L 292.457082 225.402632 
L 293.096929 226.395534 
L 294.376624 222.524523 
L 295.016471 220.954642 
L 295.656318 221.421733 
L 296.296165 221.241319 
L 296.936012 220.898327 
L 297.575859 221.598097 
L 298.215706 220.815745 
L 298.855553 218.22796 
L 299.4954 217.842475 
L 300.135248 219.249907 
L 300.775095 220.229173 
L 301.414942 219.775008 
L 302.054789 216.85847 
L 303.334483 213.036113 
L 303.97433 209.758431 
L 304.614177 208.576706 
L 305.254024 207.741665 
L 305.893872 205.293897 
L 306.533719 206.649853 
L 307.173566 207.241279 
L 307.813413 205.055768 
L 308.45326 204.397076 
L 309.093107 204.569879 
L 310.372801 208.283194 
L 311.652495 209.1292 
L 312.292343 205.623613 
L 312.93219 204.652683 
L 313.572037 206.774648 
L 314.211884 212.20362 
L 314.851731 213.279348 
L 315.491578 215.427098 
L 316.131425 215.80503 
L 316.771272 213.348998 
L 318.050967 210.107088 
L 318.690814 210.579564 
L 319.330661 209.783368 
L 319.970508 209.479897 
L 320.610355 205.544363 
L 321.250202 203.851174 
L 322.529896 202.453263 
L 323.169743 202.40504 
L 323.809591 201.0686 
L 324.449438 203.762417 
L 325.089285 204.933795 
L 325.729132 207.644895 
L 326.368979 209.349171 
L 327.008826 209.847518 
L 327.648673 208.583327 
L 328.28852 208.688189 
L 328.928367 210.811396 
L 329.568215 207.051215 
L 330.208062 201.734465 
L 330.847909 202.189686 
L 331.487756 200.870673 
L 332.127603 201.160738 
L 332.76745 201.928744 
L 334.047144 199.991494 
L 334.686991 199.50992 
L 335.326839 201.500133 
L 335.966686 200.543628 
L 336.606533 197.490204 
L 337.24638 199.188685 
L 337.886227 199.388393 
L 338.526074 199.407715 
L 339.165921 200.394707 
L 339.805768 201.649391 
L 340.445615 203.286789 
L 341.085463 203.559435 
L 341.72531 204.793828 
L 342.365157 205.768484 
L 343.005004 201.764019 
L 343.644851 198.558449 
L 344.284698 196.438056 
L 344.924545 197.247263 
L 345.564392 196.048665 
L 346.844087 195.240758 
L 347.483934 194.421025 
L 348.123781 194.868125 
L 348.763628 193.448429 
L 349.403475 192.766646 
L 350.043322 191.358022 
L 350.683169 191.730475 
L 351.323016 190.478735 
L 351.962863 191.368979 
L 352.60271 191.093999 
L 353.242558 191.171784 
L 353.882405 190.430763 
L 354.522252 190.683612 
L 355.162099 191.73833 
L 355.801946 189.337651 
L 356.441793 191.733577 
L 357.08164 189.5849 
L 357.721487 188.977355 
L 358.361334 187.653186 
L 359.001182 183.033069 
L 359.641029 181.672661 
L 360.280876 181.250555 
L 360.920723 179.991219 
L 361.56057 177.358097 
L 362.200417 175.729689 
L 362.840264 176.23597 
L 363.480111 171.139176 
L 364.119958 172.490766 
L 364.759806 171.703331 
L 365.399653 170.362446 
L 366.0395 169.914061 
L 366.679347 167.959412 
L 367.319194 165.270729 
L 367.959041 164.819313 
L 368.598888 164.756808 
L 369.238735 162.721058 
L 369.878582 162.005304 
L 370.51843 162.095877 
L 371.158277 164.21418 
L 371.798124 164.613804 
L 372.437971 163.871475 
L 373.077818 163.524915 
L 373.717665 162.762553 
L 374.357512 163.443834 
L 374.997359 163.305978 
L 375.637206 163.955428 
L 376.277054 163.965933 
L 376.916901 162.934681 
L 377.556748 163.53799 
L 378.196595 163.024565 
L 378.836442 162.881087 
L 379.476289 162.320206 
L 380.755983 157.946476 
L 381.39583 157.149397 
L 382.035678 155.087833 
L 382.675525 154.013656 
L 383.315372 154.57272 
L 383.955219 156.710181 
L 384.595066 153.855789 
L 385.234913 151.848731 
L 386.514607 151.29977 
L 387.154454 151.170128 
L 388.434149 151.863192 
L 389.073996 151.989244 
L 389.713843 149.535538 
L 390.993537 147.785853 
L 391.633384 145.782989 
L 392.273231 146.586473 
L 392.913078 143.631663 
L 393.552925 141.566329 
L 394.192773 140.56196 
L 395.472467 135.449003 
L 396.112314 136.859746 
L 396.752161 137.323497 
L 397.392008 137.224825 
L 398.671702 133.959945 
L 399.311549 133.887919 
L 399.951397 135.092713 
L 400.591244 134.429369 
L 401.231091 134.386272 
L 401.870938 134.152666 
L 402.510785 134.75194 
L 403.150632 133.404881 
L 403.790479 132.673409 
L 404.430326 132.614939 
L 405.070173 132.804185 
L 405.710021 132.182314 
L 406.989715 128.320301 
L 407.629562 127.81524 
L 408.269409 128.870245 
L 408.909256 128.343156 
L 409.549103 126.324214 
L 410.18895 125.362705 
L 410.828797 122.892456 
L 411.468645 121.35862 
L 412.108492 120.923468 
L 412.748339 119.828763 
L 413.388186 119.005461 
L 414.028033 118.385494 
L 414.66788 117.549684 
L 415.307727 118.190511 
L 415.947574 117.729114 
L 416.587421 117.692817 
L 417.227269 118.279037 
L 417.867116 112.728494 
L 418.506963 113.50834 
L 419.14681 113.684468 
L 419.786657 113.339738 
L 420.426504 111.551983 
L 421.066351 110.78835 
L 421.706198 112.180388 
L 422.346045 110.409184 
L 423.62574 110.023404 
L 424.265587 109.389291 
L 424.905434 108.153247 
L 425.545281 106.191907 
L 426.185128 100.696717 
L 426.824975 101.009472 
L 427.464822 101.889937 
L 428.104669 101.542852 
L 428.744517 99.612983 
L 428.744517 99.612983 
" clip-path="url(#p2d228451ec)" style="fill: none; stroke: #dc143c; stroke-opacity: 0.7; stroke-width: 1.5; stroke-linecap: square"/>
   </g>
   <g id="line2d_17">
    <path d="M 46.115945 296.857208 
L 46.755792 296.525726 
L 48.035486 298.257912 
L 48.675334 298.827617 
L 49.315181 301.709424 
L 49.955028 302.164846 
L 50.594875 302.765649 
L 51.234722 302.8533 
L 51.874569 301.495707 
L 52.514416 297.824863 
L 53.154263 297.505265 
L 53.79411 295.224693 
L 54.433958 294.875827 
L 55.073805 295.527395 
L 55.713652 296.841677 
L 56.353499 296.668759 
L 56.993346 294.0669 
L 57.633193 288.076639 
L 58.27304 287.680289 
L 58.912887 290.542228 
L 60.192581 290.057883 
L 60.832429 287.78271 
L 61.472276 292.843588 
L 62.112123 294.280481 
L 62.75197 293.70944 
L 63.391817 291.931077 
L 64.031664 289.643382 
L 64.671511 289.091211 
L 65.311358 285.63124 
L 65.951205 283.865113 
L 66.591053 284.525312 
L 67.2309 283.826454 
L 67.870747 282.820972 
L 68.510594 283.799262 
L 69.150441 281.802594 
L 69.790288 278.927666 
L 70.430135 278.568698 
L 71.069982 279.351329 
L 71.709829 283.165407 
L 72.349677 285.417689 
L 72.989524 285.739556 
L 73.629371 284.69138 
L 74.269218 287.402761 
L 74.909065 288.113754 
L 75.548912 286.924878 
L 76.828606 297.167881 
L 77.468453 297.997975 
L 78.748148 299.27746 
L 79.387995 296.538988 
L 80.027842 295.94721 
L 80.667689 293.62194 
L 81.307536 295.26654 
L 81.947383 296.343969 
L 82.58723 293.931594 
L 83.227077 296.213064 
L 83.866925 297.729207 
L 84.506772 294.511265 
L 85.786466 293.613919 
L 86.426313 294.41988 
L 87.06616 293.159072 
L 87.706007 287.438016 
L 88.345854 286.725924 
L 88.985701 287.64797 
L 89.625549 287.533522 
L 90.905243 290.912979 
L 91.54509 289.411965 
L 92.184937 293.30912 
L 92.824784 294.629461 
L 93.464631 293.407017 
L 94.104478 287.819208 
L 94.744325 286.729514 
L 95.384173 284.964349 
L 96.663867 284.486 
L 97.303714 284.868864 
L 97.943561 285.573855 
L 98.583408 287.298817 
L 99.223255 287.921901 
L 99.863102 286.136904 
L 100.502949 285.064838 
L 101.782644 290.452042 
L 102.422491 286.628515 
L 103.062338 283.706046 
L 103.702185 284.830658 
L 104.342032 288.319709 
L 104.981879 288.33254 
L 105.621726 288.196838 
L 106.90142 292.313863 
L 108.181115 295.175299 
L 109.460809 298.081497 
L 110.100656 296.952613 
L 110.740503 297.229661 
L 111.38035 297.796336 
L 112.020197 297.66365 
L 112.660044 298.226368 
L 113.299892 297.818624 
L 113.939739 296.979676 
L 114.579586 294.912971 
L 115.219433 294.105466 
L 115.85928 293.560024 
L 116.499127 296.994532 
L 117.138974 297.717416 
L 117.778821 295.657604 
L 118.418668 294.056424 
L 119.058516 294.2705 
L 119.698363 293.833115 
L 120.33821 293.110216 
L 120.978057 293.933575 
L 121.617904 293.952675 
L 122.257751 293.509488 
L 122.897598 292.637231 
L 123.537445 292.099184 
L 124.177292 290.613349 
L 124.81714 290.656266 
L 125.456987 290.067153 
L 126.736681 289.880427 
L 127.376528 290.148262 
L 128.016375 290.712783 
L 128.656222 290.537884 
L 129.296069 292.620321 
L 129.935916 292.855026 
L 130.575764 293.75016 
L 131.215611 293.309192 
L 132.495305 294.757896 
L 133.135152 294.419557 
L 133.774999 294.506224 
L 134.414846 290.976899 
L 135.054693 289.979523 
L 135.69454 290.560552 
L 136.334388 294.09382 
L 136.974235 293.600937 
L 137.614082 294.003577 
L 138.253929 293.018401 
L 138.893776 291.271402 
L 139.533623 291.301315 
L 140.17347 289.40299 
L 140.813317 283.477409 
L 141.453164 280.71234 
L 142.093012 281.59297 
L 142.732859 285.27658 
L 143.372706 285.852978 
L 144.012553 284.921497 
L 144.6524 284.773193 
L 145.292247 284.308049 
L 145.932094 282.253622 
L 146.571941 282.45338 
L 147.851635 283.117227 
L 148.491483 286.22421 
L 149.13133 287.187874 
L 149.771177 287.592351 
L 150.411024 286.786333 
L 151.050871 284.240747 
L 151.690718 283.262306 
L 152.970412 283.539986 
L 153.610259 282.462147 
L 154.250107 280.712699 
L 154.889954 280.273605 
L 155.529801 282.608598 
L 156.169648 281.178332 
L 157.449342 283.550031 
L 158.089189 284.007076 
L 158.729036 279.869716 
L 159.368883 284.938198 
L 160.008731 288.633591 
L 160.648578 288.900924 
L 161.288425 288.070944 
L 161.928272 286.876712 
L 162.568119 283.11765 
L 163.207966 280.754396 
L 163.847813 281.569476 
L 164.48766 280.976549 
L 165.127507 272.545226 
L 165.767355 270.714712 
L 166.407202 271.364026 
L 167.047049 271.486638 
L 167.686896 268.884938 
L 168.326743 272.545585 
L 168.96659 272.720083 
L 170.246284 264.38334 
L 170.886131 264.42192 
L 171.525979 265.247663 
L 172.165826 267.193213 
L 172.805673 266.984911 
L 173.44552 269.542122 
L 174.085367 270.417502 
L 174.725214 266.260454 
L 175.365061 265.808651 
L 176.644755 268.367592 
L 177.284603 267.387177 
L 177.92445 265.736359 
L 178.564297 265.196273 
L 179.204144 264.449751 
L 179.843991 264.924804 
L 180.483838 264.741755 
L 181.123685 265.248661 
L 181.763532 266.545781 
L 182.403379 266.474415 
L 183.043227 267.612583 
L 183.683074 266.980495 
L 184.322921 267.458284 
L 184.962768 265.64007 
L 185.602615 267.988993 
L 186.242462 269.319149 
L 186.882309 267.685227 
L 187.522156 267.138678 
L 188.162003 264.94878 
L 188.80185 261.756443 
L 189.441698 259.385836 
L 190.081545 255.522379 
L 190.721392 256.342485 
L 191.361239 259.692474 
L 192.001086 259.803964 
L 192.640933 260.066327 
L 193.28078 263.11502 
L 193.920627 264.496646 
L 194.560474 264.657939 
L 195.200322 263.751682 
L 195.840169 263.195799 
L 196.480016 264.740262 
L 197.119863 261.048739 
L 197.75971 260.286743 
L 199.039404 259.333821 
L 200.319098 259.657039 
L 200.958946 260.618548 
L 201.598793 258.780258 
L 202.23864 259.838508 
L 202.878487 259.712837 
L 203.518334 261.067601 
L 204.158181 261.189259 
L 204.798028 260.373489 
L 205.437875 258.608446 
L 206.077722 257.233864 
L 206.71757 255.045107 
L 207.357417 254.473671 
L 207.997264 254.505961 
L 208.637111 254.335212 
L 209.276958 256.76258 
L 210.556652 255.758671 
L 211.196499 255.95341 
L 211.836346 254.736652 
L 212.476194 254.266704 
L 213.116041 253.538219 
L 213.755888 254.847805 
L 214.395735 251.397047 
L 215.675429 248.564397 
L 216.315276 250.765777 
L 216.955123 254.508963 
L 217.59497 254.425706 
L 218.234818 253.632519 
L 218.874665 252.189343 
L 219.514512 250.092358 
L 220.154359 249.231762 
L 220.794206 246.360058 
L 221.434053 246.077317 
L 222.0739 249.575458 
L 222.713747 252.394207 
L 223.353594 258.052398 
L 223.993442 258.270796 
L 225.273136 253.885175 
L 225.912983 252.626039 
L 226.55283 250.924068 
L 227.192677 254.348876 
L 227.832524 255.719322 
L 229.112218 259.444586 
L 229.752065 257.735995 
L 230.391913 258.873459 
L 231.03176 262.411408 
L 231.671607 264.639284 
L 232.951301 259.67453 
L 233.591148 255.904461 
L 234.230995 254.760721 
L 234.870842 254.340267 
L 235.510689 252.987779 
L 236.150537 253.445413 
L 236.790384 253.255744 
L 238.070078 247.285256 
L 238.709925 246.394797 
L 239.349772 243.135223 
L 240.629466 231.626127 
L 241.269313 226.978595 
L 241.909161 227.956454 
L 243.188855 221.932035 
L 243.828702 221.787171 
L 244.468549 220.409803 
L 245.108396 219.95871 
L 245.748243 217.913604 
L 246.38809 218.263805 
L 247.027937 218.354845 
L 247.667785 218.882042 
L 248.307632 214.576281 
L 248.947479 214.311563 
L 249.587326 214.367792 
L 250.227173 217.551885 
L 250.86702 218.73529 
L 251.506867 222.422986 
L 252.146714 222.808055 
L 252.786561 224.039273 
L 253.426409 228.328426 
L 254.066256 230.575358 
L 254.706103 231.636416 
L 255.34595 231.378375 
L 255.985797 232.438852 
L 256.625644 236.274758 
L 257.265491 229.707014 
L 257.905338 225.428352 
L 258.545185 222.681766 
L 259.185033 220.873325 
L 259.82488 222.67669 
L 260.464727 223.30974 
L 261.104574 224.714458 
L 262.384268 226.43741 
L 263.024115 224.864348 
L 263.663962 224.602494 
L 264.303809 223.71691 
L 265.583504 225.084297 
L 266.223351 220.659895 
L 266.863198 220.572417 
L 267.503045 216.189625 
L 268.142892 221.505837 
L 268.782739 223.733827 
L 269.422586 222.815321 
L 270.062433 223.207729 
L 270.70228 224.110854 
L 271.342128 220.503241 
L 271.981975 219.446262 
L 272.621822 220.043568 
L 273.261669 218.990818 
L 273.901516 218.98381 
L 274.541363 218.338352 
L 275.18121 219.122226 
L 275.821057 217.665034 
L 276.460904 217.503561 
L 277.100752 214.133705 
L 278.380446 212.777375 
L 279.020293 211.632293 
L 279.66014 215.988761 
L 280.939834 211.620545 
L 281.579681 210.580246 
L 282.219528 212.706153 
L 282.859376 211.498422 
L 283.499223 209.221813 
L 284.13907 211.258231 
L 284.778917 212.546857 
L 285.418764 212.461382 
L 286.698458 210.740979 
L 287.338305 210.190861 
L 287.978152 210.117528 
L 288.618 210.944722 
L 289.257847 212.658253 
L 289.897694 213.11369 
L 290.537541 211.085723 
L 291.177388 205.245315 
L 291.817235 203.072261 
L 293.096929 207.097744 
L 293.736776 203.904905 
L 294.376624 203.881927 
L 295.656318 199.045135 
L 296.296165 194.06625 
L 296.936012 192.890126 
L 297.575859 193.293455 
L 298.215706 193.252362 
L 298.855553 189.562095 
L 299.4954 190.399837 
L 300.135248 190.535122 
L 300.775095 192.051703 
L 301.414942 192.939851 
L 302.054789 191.703735 
L 302.694636 190.942422 
L 303.334483 188.631634 
L 303.97433 190.105686 
L 304.614177 185.297435 
L 305.254024 185.51393 
L 305.893872 186.366858 
L 306.533719 186.494281 
L 307.173566 187.627315 
L 307.813413 188.038255 
L 308.45326 188.90619 
L 309.093107 188.694376 
L 310.372801 184.906492 
L 311.012648 186.302149 
L 311.652495 185.825458 
L 312.292343 185.940502 
L 312.93219 187.651822 
L 313.572037 186.611393 
L 314.211884 184.617612 
L 314.851731 184.649342 
L 315.491578 184.133461 
L 316.131425 186.02956 
L 316.771272 188.338775 
L 317.411119 188.54468 
L 318.050967 189.094093 
L 318.690814 180.530766 
L 319.330661 178.225033 
L 319.970508 174.247049 
L 320.610355 173.258865 
L 321.250202 170.426395 
L 321.890049 165.76774 
L 322.529896 164.99608 
L 323.169743 161.553393 
L 324.449438 159.312664 
L 325.729132 160.050935 
L 326.368979 161.890102 
L 327.008826 160.736568 
L 327.648673 157.482789 
L 328.28852 158.473623 
L 328.928367 160.357846 
L 329.568215 159.187338 
L 330.208062 160.443831 
L 330.847909 160.824757 
L 332.127603 158.64341 
L 333.407297 155.51905 
L 334.047144 157.387642 
L 335.326839 160.044459 
L 335.966686 158.830487 
L 336.606533 155.684034 
L 337.24638 154.75103 
L 337.886227 151.202806 
L 338.526074 149.578678 
L 339.165921 149.511031 
L 339.805768 149.626736 
L 340.445615 151.451958 
L 341.085463 151.958224 
L 341.72531 149.363051 
L 342.365157 149.526526 
L 343.005004 153.139022 
L 343.644851 151.862769 
L 344.284698 149.871665 
L 344.924545 148.848376 
L 345.564392 145.392886 
L 346.204239 142.771885 
L 346.844087 142.205117 
L 347.483934 142.147595 
L 348.123781 151.840631 
L 348.763628 154.426449 
L 349.403475 154.966341 
L 350.043322 150.898179 
L 350.683169 138.960888 
L 351.323016 137.52151 
L 351.962863 138.475961 
L 352.60271 139.83726 
L 353.242558 141.705025 
L 353.882405 141.370607 
L 354.522252 138.941472 
L 355.162099 142.216562 
L 355.801946 143.363943 
L 356.441793 143.575893 
L 357.721487 138.669365 
L 358.361334 137.80502 
L 359.001182 136.626247 
L 359.641029 135.950351 
L 360.280876 133.902164 
L 360.920723 132.292741 
L 361.56057 133.371987 
L 362.200417 133.218349 
L 362.840264 132.220184 
L 363.480111 132.728561 
L 364.119958 129.95525 
L 364.759806 128.725345 
L 365.399653 130.780584 
L 366.0395 129.389465 
L 366.679347 129.596662 
L 367.319194 128.940721 
L 367.959041 129.818995 
L 368.598888 129.473117 
L 369.238735 131.028831 
L 369.878582 131.183833 
L 370.51843 130.551063 
L 371.158277 128.932298 
L 371.798124 125.159465 
L 372.437971 119.813124 
L 373.077818 122.331173 
L 373.717665 111.768019 
L 374.357512 109.402122 
L 374.997359 108.98714 
L 375.637206 111.572009 
L 376.277054 110.975514 
L 376.916901 109.788627 
L 377.556748 109.11019 
L 378.196595 110.178579 
L 378.836442 111.821994 
L 379.476289 111.826632 
L 380.755983 108.573356 
L 381.39583 106.406269 
L 382.035678 107.329263 
L 383.315372 99.907752 
L 383.955219 102.52731 
L 384.595066 106.081436 
L 385.234913 106.554494 
L 385.87476 108.801455 
L 386.514607 109.063984 
L 387.154454 110.501861 
L 387.794302 110.748887 
L 388.434149 110.015943 
L 389.073996 110.37708 
L 389.713843 110.422561 
L 390.35369 111.379166 
L 390.993537 105.754844 
L 391.633384 102.817174 
L 392.273231 104.031569 
L 392.913078 105.612178 
L 393.552925 101.653114 
L 394.192773 98.926059 
L 394.83262 95.513708 
L 395.472467 94.654605 
L 396.112314 95.023935 
L 396.752161 94.656343 
L 397.392008 95.405156 
L 398.031855 95.980138 
L 398.671702 94.99665 
L 399.311549 95.085399 
L 399.951397 96.306098 
L 400.591244 99.058414 
L 401.231091 99.718743 
L 401.870938 102.675692 
L 402.510785 102.601584 
L 403.150632 102.864988 
L 403.790479 101.720538 
L 405.070173 98.477393 
L 405.710021 99.056813 
L 406.349868 99.910035 
L 406.989715 100.472869 
L 407.629562 97.765875 
L 408.269409 97.706982 
L 408.909256 97.187841 
L 409.549103 97.844185 
L 410.828797 97.053877 
L 411.468645 94.909832 
L 412.108492 93.551356 
L 413.388186 91.855947 
L 414.028033 91.942241 
L 415.307727 87.746678 
L 415.947574 88.236551 
L 416.587421 87.966706 
L 417.227269 86.41222 
L 417.867116 79.237785 
L 418.506963 75.824236 
L 419.14681 74.274754 
L 419.786657 71.716043 
L 420.426504 70.682184 
L 421.066351 68.951312 
L 421.706198 69.763822 
L 422.346045 67.256931 
L 422.985893 66.137015 
L 423.62574 66.85679 
L 424.265587 66.759144 
L 424.905434 65.980964 
L 426.185128 63.278688 
L 426.824975 63.122005 
L 427.464822 60.078109 
L 428.104669 57.876118 
L 428.744517 54.580528 
L 428.744517 54.580528 
" clip-path="url(#p2d228451ec)" style="fill: none; stroke: #32cd32; stroke-opacity: 0.7; stroke-width: 1.5; stroke-linecap: square"/>
   </g>
   <g id="line2d_18">
    <path d="M 46.115945 296.914536 
L 53.79411 296.785289 
L 61.472276 296.449248 
L 69.150441 295.906411 
L 76.828606 295.156781 
L 84.506772 294.200355 
L 92.824784 292.930866 
L 101.142796 291.418678 
L 109.460809 289.663795 
L 117.778821 287.666216 
L 126.096834 285.425939 
L 134.414846 282.942966 
L 142.732859 280.217297 
L 151.050871 277.248931 
L 159.368883 274.037868 
L 167.686896 270.584109 
L 176.004908 266.887653 
L 184.322921 262.9485 
L 192.640933 258.766644 
L 200.958946 254.342098 
L 209.276958 249.674863 
L 217.59497 244.764924 
L 225.912983 239.612288 
L 234.870842 233.791871 
L 243.828702 227.68999 
L 252.786561 221.306646 
L 261.744421 214.641824 
L 270.70228 207.695531 
L 279.66014 200.467768 
L 288.618 192.958534 
L 297.575859 185.167829 
L 306.533719 177.095654 
L 316.131425 168.134549 
L 325.729132 158.850327 
L 335.326839 149.24306 
L 344.924545 139.312604 
L 354.522252 129.05896 
L 364.119958 118.482271 
L 373.717665 107.582465 
L 383.315372 96.359542 
L 393.552925 84.032278 
L 403.790479 71.337379 
L 414.028033 58.274773 
L 424.265587 44.844603 
L 428.744517 38.8533 
L 428.744517 38.8533 
" clip-path="url(#p2d228451ec)" style="fill: none; stroke: #000000; stroke-width: 2; stroke-linecap: square"/>
   </g>
   <g id="patch_3">
    <path d="M 46.115945 302.8533 
L 46.115945 25.6533 
" style="fill: none; stroke: #000000; stroke-width: 0.8; stroke-linejoin: miter; stroke-linecap: square"/>
   </g>
   <g id="patch_4">
    <path d="M 447.875945 302.8533 
L 447.875945 25.6533 
" style="fill: none; stroke: #000000; stroke-width: 0.8; stroke-linejoin: miter; stroke-linecap: square"/>
   </g>
   <g id="patch_5">
    <path d="M 46.115945 302.8533 
L 447.875945 302.8533 
" style="fill: none; stroke: #000000; stroke-width: 0.8; stroke-linejoin: miter; stroke-linecap: square"/>
   </g>
   <g id="patch_6">
    <path d="M 46.115945 25.6533 
L 447.875945 25.6533 
" style="fill: none; stroke: #000000; stroke-width: 0.8; stroke-linejoin: miter; stroke-linecap: square"/>
   </g>
   <g id="text_16">
    <!-- True Movement vs. Predicted Movement Along X-Axis -->
    <g transform="translate(48.120565 19.6533) scale(0.18 -0.18)">
     <defs>
      <path id="CMR17-75" d="M 1882 2693 
L 1882 2528 
C 2259 2528 2317 2489 2317 2186 
L 2317 1032 
C 2317 500 2029 38 1555 38 
C 1030 38 986 348 986 678 
L 986 2763 
L 211 2693 
L 211 2528 
C 467 2528 640 2528 646 2274 
L 646 1058 
C 646 633 646 361 813 183 
C 896 101 1056 -64 1517 -64 
C 2061 -64 2272 377 2323 506 
L 2330 506 
L 2330 -63 
L 3091 -63 
L 3091 128 
C 2714 128 2656 166 2656 473 
L 2656 2763 
L 1882 2693 
z
" transform="scale(0.015625)"/>
      <path id="CMR17-4d" d="M 1338 4224 
C 1299 4320 1293 4320 1158 4320 
L 339 4320 
L 339 4160 
C 781 4160 851 4160 851 3875 
L 851 610 
C 851 451 851 153 339 153 
L 339 -13 
C 486 0 755 0 915 0 
C 1075 0 1344 0 1491 -13 
L 1491 153 
C 979 153 979 451 979 610 
L 979 4135 
L 986 4135 
L 2490 89 
C 2515 25 2528 -13 2579 -13 
C 2630 -13 2643 25 2669 89 
L 4186 4166 
L 4192 4166 
L 4192 438 
C 4192 153 4122 153 3680 153 
L 3680 -13 
C 3853 0 4198 0 4384 0 
C 4570 0 4922 0 5094 -13 
L 5094 153 
C 4653 153 4582 153 4582 438 
L 4582 3875 
C 4582 4160 4653 4160 5094 4160 
L 5094 4320 
L 4282 4320 
C 4147 4320 4141 4314 4102 4218 
L 2720 502 
L 1338 4224 
z
" transform="scale(0.015625)"/>
      <path id="CMR17-76" d="M 2502 2163 
C 2560 2304 2662 2560 3034 2560 
L 3034 2726 
C 2912 2726 2752 2726 2630 2726 
C 2496 2726 2285 2726 2157 2732 
L 2157 2566 
C 2317 2553 2406 2477 2406 2311 
C 2406 2253 2406 2240 2368 2151 
L 1664 377 
L 902 2286 
C 864 2369 864 2381 864 2407 
C 864 2560 1075 2560 1171 2560 
L 1171 2732 
C 1018 2726 736 2726 576 2726 
C 403 2726 205 2726 64 2732 
L 64 2560 
C 307 2560 442 2560 518 2362 
L 1446 44 
C 1485 -51 1491 -64 1549 -64 
C 1606 -64 1613 -51 1651 44 
L 2502 2163 
z
" transform="scale(0.015625)"/>
      <path id="CMR17-2e" d="M 1062 261 
C 1062 420 934 522 800 522 
C 672 522 538 420 538 261 
C 538 102 666 0 800 0 
C 928 0 1062 102 1062 261 
z
" transform="scale(0.015625)"/>
      <path id="CMR17-50" d="M 1267 2042 
L 2291 2042 
C 3117 2042 3718 2578 3718 3184 
C 3718 3791 3130 4352 2291 4352 
L 333 4352 
L 333 4186 
C 774 4186 845 4186 845 3899 
L 845 446 
C 845 160 774 160 333 160 
L 333 0 
C 518 0 858 0 1056 0 
C 1254 0 1594 0 1779 0 
L 1779 160 
C 1338 160 1267 160 1267 446 
L 1267 2042 
z
M 1254 2176 
L 1254 3938 
C 1254 4155 1267 4186 1523 4186 
L 2170 4186 
C 2995 4186 3232 3714 3232 3184 
C 3232 2604 2950 2176 2170 2176 
L 1254 2176 
z
" transform="scale(0.015625)"/>
      <path id="CMR17-41" d="M 2323 4378 
C 2291 4461 2278 4480 2214 4480 
C 2150 4480 2138 4461 2106 4378 
L 749 566 
C 627 223 371 153 147 153 
L 147 -13 
C 262 0 518 0 640 0 
C 800 0 1056 0 1210 -13 
L 1210 153 
C 909 153 864 361 864 439 
C 864 497 877 530 890 569 
L 1229 1536 
L 2906 1536 
L 3290 442 
C 3322 365 3322 352 3322 327 
C 3322 153 3046 153 2925 153 
L 2925 0 
C 3110 0 3443 0 3642 0 
C 3808 0 4128 0 4282 -13 
L 4282 153 
C 3942 153 3827 153 3744 387 
L 2323 4378 
z
M 2067 3893 
L 2848 1702 
L 1286 1702 
L 2067 3893 
z
" transform="scale(0.015625)"/>
      <path id="CMR17-6c" d="M 979 4396 
L 218 4326 
L 218 4160 
C 595 4160 653 4122 653 3817 
L 653 426 
C 653 184 627 153 218 153 
L 218 -13 
C 371 0 653 0 813 0 
C 979 0 1261 0 1414 -13 
L 1414 153 
C 1005 153 979 178 979 426 
L 979 4396 
z
" transform="scale(0.015625)"/>
      <path id="CMR17-67" d="M 710 1164 
C 832 1068 1043 960 1299 960 
C 1805 960 2240 1357 2240 1888 
C 2240 2054 2189 2310 1997 2509 
C 2176 2692 2438 2752 2586 2752 
C 2611 2752 2650 2752 2682 2734 
C 2656 2728 2598 2703 2598 2605 
C 2598 2527 2656 2471 2739 2471 
C 2835 2471 2886 2533 2886 2614 
C 2886 2731 2790 2854 2586 2854 
C 2330 2854 2106 2738 1926 2580 
C 1734 2753 1504 2816 1299 2816 
C 794 2816 358 2419 358 1888 
C 358 1522 570 1292 634 1228 
C 442 1004 442 743 442 711 
C 442 545 506 302 723 168 
C 390 85 128 -169 128 -486 
C 128 -943 736 -1280 1466 -1280 
C 2170 -1280 2803 -956 2803 -479 
C 2803 384 1856 384 1363 384 
C 1216 384 954 384 922 391 
C 723 423 589 602 589 826 
C 589 883 589 1024 710 1164 
z
M 1299 1068 
C 736 1068 736 1760 736 1889 
C 736 2016 736 2708 1299 2708 
C 1862 2708 1862 2016 1862 1889 
C 1862 1760 1862 1068 1299 1068 
z
M 1466 -1171 
C 826 -1171 384 -835 384 -486 
C 384 -289 493 -105 634 -4 
C 794 104 858 104 1293 104 
C 1818 104 2547 104 2547 -486 
C 2547 -835 2106 -1171 1466 -1171 
z
" transform="scale(0.015625)"/>
      <path id="CMR17-78" d="M 1664 1477 
C 1856 1726 2074 2006 2253 2216 
C 2464 2458 2707 2560 2989 2560 
L 2989 2726 
C 2880 2726 2656 2726 2541 2726 
C 2368 2726 2170 2726 2022 2732 
L 2022 2566 
C 2112 2553 2163 2489 2163 2400 
C 2163 2285 2099 2215 2067 2171 
L 1594 1573 
L 1030 2306 
C 973 2376 973 2388 973 2420 
C 973 2497 1037 2560 1146 2560 
L 1146 2732 
C 992 2726 717 2726 557 2726 
C 384 2726 179 2726 38 2732 
L 38 2560 
C 384 2560 461 2534 614 2343 
L 1350 1395 
C 1363 1382 1395 1344 1395 1325 
C 1395 1299 838 619 768 530 
C 480 185 179 160 6 160 
L 6 0 
C 115 0 339 0 454 0 
C 582 0 864 0 979 -6 
L 979 160 
C 941 166 838 179 838 325 
C 838 440 890 510 947 586 
L 1478 1236 
L 2035 512 
C 2086 442 2163 346 2163 301 
C 2163 211 2086 160 1984 160 
L 1984 -6 
C 2138 0 2413 0 2573 0 
C 2746 0 2950 0 3091 -6 
L 3091 160 
C 2771 160 2675 172 2522 370 
L 1664 1477 
z
" transform="scale(0.015625)"/>
     </defs>
     <use xlink:href="#CMR17-54" transform="scale(0.996264)"/>
     <use xlink:href="#CMR17-72" transform="translate(58.702625 0) scale(0.996264)"/>
     <use xlink:href="#CMR17-75" transform="translate(93.983393 0) scale(0.996264)"/>
     <use xlink:href="#CMR17-65" transform="translate(144.878763 0) scale(0.996264)"/>
     <use xlink:href="#CMR17-4d" transform="translate(215.44039 0) scale(0.996264)"/>
     <use xlink:href="#CMR17-6f" transform="translate(300.12733 0) scale(0.996264)"/>
     <use xlink:href="#CMR17-76" transform="translate(343.215353 0) scale(0.996264)"/>
     <use xlink:href="#CMR17-65" transform="translate(388.905815 0) scale(0.996264)"/>
     <use xlink:href="#CMR17-6d" transform="translate(429.391476 0) scale(0.996264)"/>
     <use xlink:href="#CMR17-65" transform="translate(506.311066 0) scale(0.996264)"/>
     <use xlink:href="#CMR17-6e" transform="translate(546.796726 0) scale(0.996264)"/>
     <use xlink:href="#CMR17-74" transform="translate(595.089642 0) scale(0.996264)"/>
     <use xlink:href="#CMR17-76" transform="translate(660.446376 0) scale(0.996264)"/>
     <use xlink:href="#CMR17-73" transform="translate(708.739292 0) scale(0.996264)"/>
     <use xlink:href="#CMR17-2e" transform="translate(744.540629 0) scale(0.996264)"/>
     <use xlink:href="#CMR17-50" transform="translate(809.897348 0) scale(0.996264)"/>
     <use xlink:href="#CMR17-72" transform="translate(872.483649 0) scale(0.996264)"/>
     <use xlink:href="#CMR17-65" transform="translate(907.764417 0) scale(0.996264)"/>
     <use xlink:href="#CMR17-64" transform="translate(948.250077 0) scale(0.996264)"/>
     <use xlink:href="#CMR17-69" transform="translate(999.145447 0) scale(0.996264)"/>
     <use xlink:href="#CMR17-63" transform="translate(1024.016505 0) scale(0.996264)"/>
     <use xlink:href="#CMR17-74" transform="translate(1064.502166 0) scale(0.996264)"/>
     <use xlink:href="#CMR17-65" transform="translate(1099.782934 0) scale(0.996264)"/>
     <use xlink:href="#CMR17-64" transform="translate(1140.268594 0) scale(0.996264)"/>
     <use xlink:href="#CMR17-4d" transform="translate(1221.23993 0) scale(0.996264)"/>
     <use xlink:href="#CMR17-6f" transform="translate(1305.926871 0) scale(0.996264)"/>
     <use xlink:href="#CMR17-76" transform="translate(1349.014894 0) scale(0.996264)"/>
     <use xlink:href="#CMR17-65" transform="translate(1394.705356 0) scale(0.996264)"/>
     <use xlink:href="#CMR17-6d" transform="translate(1435.191016 0) scale(0.996264)"/>
     <use xlink:href="#CMR17-65" transform="translate(1512.110606 0) scale(0.996264)"/>
     <use xlink:href="#CMR17-6e" transform="translate(1552.596267 0) scale(0.996264)"/>
     <use xlink:href="#CMR17-74" transform="translate(1600.889183 0) scale(0.996264)"/>
     <use xlink:href="#CMR17-41" transform="translate(1666.245917 0) scale(0.996264)"/>
     <use xlink:href="#CMR17-6c" transform="translate(1735.318347 0) scale(0.996264)"/>
     <use xlink:href="#CMR17-6f" transform="translate(1760.189405 0) scale(0.996264)"/>
     <use xlink:href="#CMR17-6e" transform="translate(1805.879882 0) scale(0.996264)"/>
     <use xlink:href="#CMR17-67" transform="translate(1856.775252 0) scale(0.996264)"/>
     <use xlink:href="#CMR17-58" transform="translate(1932.541695 0) scale(0.996264)"/>
     <use xlink:href="#CMR17-2d" transform="translate(2001.614125 0) scale(0.996264)"/>
     <use xlink:href="#CMR17-41" transform="translate(2031.690092 0) scale(0.996264)"/>
     <use xlink:href="#CMR17-78" transform="translate(2100.762521 0) scale(0.996264)"/>
     <use xlink:href="#CMR17-69" transform="translate(2149.055437 0) scale(0.996264)"/>
     <use xlink:href="#CMR17-73" transform="translate(2173.926496 0) scale(0.996264)"/>
    </g>
   </g>
   <g id="legend_1">
    <g id="patch_7">
     <path d="M 54.515945 118.876279 
L 180.706649 118.876279 
Q 183.106649 118.876279 183.106649 116.476279 
L 183.106649 34.0533 
Q 183.106649 31.6533 180.706649 31.6533 
L 54.515945 31.6533 
Q 52.115945 31.6533 52.115945 34.0533 
L 52.115945 116.476279 
Q 52.115945 118.876279 54.515945 118.876279 
z
" style="fill: #ffffff; opacity: 0.8; stroke: #cccccc; stroke-linejoin: miter"/>
    </g>
    <g id="line2d_19">
     <path d="M 56.915945 40.6533 
L 68.915945 40.6533 
L 80.915945 40.6533 
" style="fill: none; stroke: #4169e1; stroke-opacity: 0.7; stroke-width: 1.5; stroke-linecap: square"/>
    </g>
    <g id="text_17">
     <!-- Variance = 0.001 -->
     <g transform="translate(90.515945 44.8533) scale(0.12 -0.12)">
      <defs>
       <path id="CMR17-56" d="M 3776 3745 
C 3834 3886 3936 4160 4365 4160 
L 4365 4332 
C 4218 4319 4051 4319 3891 4319 
C 3738 4319 3475 4319 3328 4332 
L 3328 4160 
C 3648 4160 3661 3936 3661 3898 
C 3661 3827 3642 3783 3622 3732 
L 2362 446 
L 1043 3886 
C 1024 3931 1011 3963 1011 3994 
C 1011 4160 1267 4160 1402 4160 
L 1402 4319 
C 1197 4319 896 4319 685 4319 
C 518 4319 218 4319 64 4332 
L 64 4160 
C 435 4160 506 4135 582 3931 
L 2106 -26 
C 2138 -115 2144 -128 2214 -128 
C 2285 -128 2291 -115 2323 -26 
L 3776 3745 
z
" transform="scale(0.015625)"/>
       <path id="CMR17-3d" d="M 4115 2017 
C 4211 2017 4307 2017 4307 2125 
C 4307 2240 4198 2240 4090 2240 
L 512 2240 
C 403 2240 294 2240 294 2125 
C 294 2017 390 2017 486 2017 
L 4115 2017 
z
M 4090 896 
C 4198 896 4307 896 4307 1011 
C 4307 1119 4211 1119 4115 1119 
L 486 1119 
C 390 1119 294 1119 294 1011 
C 294 896 403 896 512 896 
L 4090 896 
z
" transform="scale(0.015625)"/>
      </defs>
      <use xlink:href="#CMR17-56" transform="scale(0.996264)"/>
      <use xlink:href="#CMR17-61" transform="translate(61.265174 0) scale(0.996264)"/>
      <use xlink:href="#CMR17-72" transform="translate(106.955652 0) scale(0.996264)"/>
      <use xlink:href="#CMR17-69" transform="translate(142.236419 0) scale(0.996264)"/>
      <use xlink:href="#CMR17-61" transform="translate(167.107478 0) scale(0.996264)"/>
      <use xlink:href="#CMR17-6e" transform="translate(212.797955 0) scale(0.996264)"/>
      <use xlink:href="#CMR17-63" transform="translate(263.693325 0) scale(0.996264)"/>
      <use xlink:href="#CMR17-65" transform="translate(304.178985 0) scale(0.996264)"/>
      <use xlink:href="#CMR17-3d" transform="translate(374.740612 0) scale(0.996264)"/>
      <use xlink:href="#CMR17-30" transform="translate(476.531367 0) scale(0.996264)"/>
      <use xlink:href="#CMR17-2e" transform="translate(522.221844 0) scale(0.996264)"/>
      <use xlink:href="#CMR17-30" transform="translate(547.092902 0) scale(0.996264)"/>
      <use xlink:href="#CMR17-30" transform="translate(592.783379 0) scale(0.996264)"/>
      <use xlink:href="#CMR17-31" transform="translate(638.473857 0) scale(0.996264)"/>
     </g>
    </g>
    <g id="line2d_20">
     <path d="M 56.915945 57.377896 
L 68.915945 57.377896 
L 80.915945 57.377896 
" style="fill: none; stroke: #ff8c00; stroke-opacity: 0.7; stroke-width: 1.5; stroke-linecap: square"/>
    </g>
    <g id="text_18">
     <!-- Variance = 0.005 -->
     <g transform="translate(90.515945 61.577896) scale(0.12 -0.12)">
      <use xlink:href="#CMR17-56" transform="scale(0.996264)"/>
      <use xlink:href="#CMR17-61" transform="translate(61.265174 0) scale(0.996264)"/>
      <use xlink:href="#CMR17-72" transform="translate(106.955652 0) scale(0.996264)"/>
      <use xlink:href="#CMR17-69" transform="translate(142.236419 0) scale(0.996264)"/>
      <use xlink:href="#CMR17-61" transform="translate(167.107478 0) scale(0.996264)"/>
      <use xlink:href="#CMR17-6e" transform="translate(212.797955 0) scale(0.996264)"/>
      <use xlink:href="#CMR17-63" transform="translate(263.693325 0) scale(0.996264)"/>
      <use xlink:href="#CMR17-65" transform="translate(304.178985 0) scale(0.996264)"/>
      <use xlink:href="#CMR17-3d" transform="translate(374.740612 0) scale(0.996264)"/>
      <use xlink:href="#CMR17-30" transform="translate(476.531367 0) scale(0.996264)"/>
      <use xlink:href="#CMR17-2e" transform="translate(522.221844 0) scale(0.996264)"/>
      <use xlink:href="#CMR17-30" transform="translate(547.092902 0) scale(0.996264)"/>
      <use xlink:href="#CMR17-30" transform="translate(592.783379 0) scale(0.996264)"/>
      <use xlink:href="#CMR17-35" transform="translate(638.473857 0) scale(0.996264)"/>
     </g>
    </g>
    <g id="line2d_21">
     <path d="M 56.915945 74.102492 
L 68.915945 74.102492 
L 80.915945 74.102492 
" style="fill: none; stroke: #dc143c; stroke-opacity: 0.7; stroke-width: 1.5; stroke-linecap: square"/>
    </g>
    <g id="text_19">
     <!-- Variance = 0.05 -->
     <g transform="translate(90.515945 78.302492) scale(0.12 -0.12)">
      <use xlink:href="#CMR17-56" transform="scale(0.996264)"/>
      <use xlink:href="#CMR17-61" transform="translate(61.265174 0) scale(0.996264)"/>
      <use xlink:href="#CMR17-72" transform="translate(106.955652 0) scale(0.996264)"/>
      <use xlink:href="#CMR17-69" transform="translate(142.236419 0) scale(0.996264)"/>
      <use xlink:href="#CMR17-61" transform="translate(167.107478 0) scale(0.996264)"/>
      <use xlink:href="#CMR17-6e" transform="translate(212.797955 0) scale(0.996264)"/>
      <use xlink:href="#CMR17-63" transform="translate(263.693325 0) scale(0.996264)"/>
      <use xlink:href="#CMR17-65" transform="translate(304.178985 0) scale(0.996264)"/>
      <use xlink:href="#CMR17-3d" transform="translate(374.740612 0) scale(0.996264)"/>
      <use xlink:href="#CMR17-30" transform="translate(476.531367 0) scale(0.996264)"/>
      <use xlink:href="#CMR17-2e" transform="translate(522.221844 0) scale(0.996264)"/>
      <use xlink:href="#CMR17-30" transform="translate(547.092902 0) scale(0.996264)"/>
      <use xlink:href="#CMR17-35" transform="translate(592.783379 0) scale(0.996264)"/>
     </g>
    </g>
    <g id="line2d_22">
     <path d="M 56.915945 90.827087 
L 68.915945 90.827087 
L 80.915945 90.827087 
" style="fill: none; stroke: #32cd32; stroke-opacity: 0.7; stroke-width: 1.5; stroke-linecap: square"/>
    </g>
    <g id="text_20">
     <!-- Variance = 0.08 -->
     <g transform="translate(90.515945 95.027087) scale(0.12 -0.12)">
      <use xlink:href="#CMR17-56" transform="scale(0.996264)"/>
      <use xlink:href="#CMR17-61" transform="translate(61.265174 0) scale(0.996264)"/>
      <use xlink:href="#CMR17-72" transform="translate(106.955652 0) scale(0.996264)"/>
      <use xlink:href="#CMR17-69" transform="translate(142.236419 0) scale(0.996264)"/>
      <use xlink:href="#CMR17-61" transform="translate(167.107478 0) scale(0.996264)"/>
      <use xlink:href="#CMR17-6e" transform="translate(212.797955 0) scale(0.996264)"/>
      <use xlink:href="#CMR17-63" transform="translate(263.693325 0) scale(0.996264)"/>
      <use xlink:href="#CMR17-65" transform="translate(304.178985 0) scale(0.996264)"/>
      <use xlink:href="#CMR17-3d" transform="translate(374.740612 0) scale(0.996264)"/>
      <use xlink:href="#CMR17-30" transform="translate(476.531367 0) scale(0.996264)"/>
      <use xlink:href="#CMR17-2e" transform="translate(522.221844 0) scale(0.996264)"/>
      <use xlink:href="#CMR17-30" transform="translate(547.092902 0) scale(0.996264)"/>
      <use xlink:href="#CMR17-38" transform="translate(592.783379 0) scale(0.996264)"/>
     </g>
    </g>
    <g id="line2d_23">
     <path d="M 56.915945 107.551683 
L 68.915945 107.551683 
L 80.915945 107.551683 
" style="fill: none; stroke: #000000; stroke-width: 2; stroke-linecap: square"/>
    </g>
    <g id="text_21">
     <!-- Ground Truth -->
     <g transform="translate(90.515945 111.751683) scale(0.12 -0.12)">
      <defs>
       <path id="CMR17-47" d="M 3974 1233 
C 3974 1473 3994 1505 4390 1505 
L 4390 1670 
C 4237 1664 3891 1664 3718 1664 
C 3539 1664 3040 1664 2797 1664 
L 2797 1505 
L 2989 1505 
C 3539 1505 3552 1434 3552 1201 
L 3552 774 
C 3552 63 2720 63 2522 63 
C 1862 63 781 511 781 2160 
C 781 3808 1843 4250 2464 4250 
C 3187 4250 3712 3626 3834 2741 
C 3846 2664 3846 2651 3904 2651 
C 3974 2651 3974 2664 3974 2779 
L 3974 4288 
C 3974 4402 3968 4409 3930 4409 
C 3904 4409 3898 4402 3853 4326 
L 3571 3791 
C 3258 4187 2874 4416 2381 4416 
C 1286 4416 294 3456 294 2148 
C 294 845 1267 -128 2394 -128 
C 2912 -128 3418 56 3616 417 
C 3725 158 3904 -20 3936 -20 
C 3968 -20 3974 -13 3974 100 
L 3974 1233 
z
" transform="scale(0.015625)"/>
       <path id="CMR17-68" d="M 2656 1933 
C 2656 2259 2592 2790 1837 2790 
C 1312 2790 1056 2368 979 2157 
L 973 2157 
L 973 4396 
L 211 4326 
L 211 4160 
C 589 4160 646 4122 646 3817 
L 646 426 
C 646 184 621 153 211 153 
L 211 -13 
C 365 0 646 0 813 0 
C 979 0 1267 0 1421 -13 
L 1421 153 
C 1011 153 986 178 986 428 
L 986 1658 
C 986 2247 1344 2688 1792 2688 
C 2266 2688 2317 2266 2317 1958 
L 2317 428 
C 2317 184 2291 153 1882 153 
L 1882 -13 
C 2035 0 2317 0 2483 0 
C 2650 0 2938 0 3091 -13 
L 3091 153 
C 2682 153 2656 178 2656 428 
L 2656 1933 
z
" transform="scale(0.015625)"/>
      </defs>
      <use xlink:href="#CMR17-47" transform="scale(0.996264)"/>
      <use xlink:href="#CMR17-72" transform="translate(72.355346 0) scale(0.996264)"/>
      <use xlink:href="#CMR17-6f" transform="translate(107.636114 0) scale(0.996264)"/>
      <use xlink:href="#CMR17-75" transform="translate(153.326591 0) scale(0.996264)"/>
      <use xlink:href="#CMR17-6e" transform="translate(204.221961 0) scale(0.996264)"/>
      <use xlink:href="#CMR17-64" transform="translate(255.11733 0) scale(0.996264)"/>
      <use xlink:href="#CMR17-54" transform="translate(336.088667 0) scale(0.996264)"/>
      <use xlink:href="#CMR17-72" transform="translate(394.791292 0) scale(0.996264)"/>
      <use xlink:href="#CMR17-75" transform="translate(430.072059 0) scale(0.996264)"/>
      <use xlink:href="#CMR17-74" transform="translate(480.967429 0) scale(0.996264)"/>
      <use xlink:href="#CMR17-68" transform="translate(516.248197 0) scale(0.996264)"/>
     </g>
    </g>
   </g>
  </g>
 </g>
 <defs>
  <clipPath id="p2d228451ec">
   <rect x="46.115945" y="25.6533" width="401.76" height="277.2"/>
  </clipPath>
 </defs>
</svg>
