<?xml version="1.0" encoding="utf-8" standalone="no"?>
<!DOCTYPE svg PUBLIC "-//W3C//DTD SVG 1.1//EN"
  "http://www.w3.org/Graphics/SVG/1.1/DTD/svg11.dtd">
<svg xmlns:xlink="http://www.w3.org/1999/xlink" width="460.8pt" height="345.6pt" viewBox="0 0 460.8 345.6" xmlns="http://www.w3.org/2000/svg" version="1.1">
 <metadata>
  <rdf:RDF xmlns:dc="http://purl.org/dc/elements/1.1/" xmlns:cc="http://creativecommons.org/ns#" xmlns:rdf="http://www.w3.org/1999/02/22-rdf-syntax-ns#">
   <cc:Work>
    <dc:type rdf:resource="http://purl.org/dc/dcmitype/StillImage"/>
    <dc:date>2023-06-11T20:32:45.384262</dc:date>
    <dc:format>image/svg+xml</dc:format>
    <dc:creator>
     <cc:Agent>
      <dc:title>Matplotlib v3.6.1, https://matplotlib.org/</dc:title>
     </cc:Agent>
    </dc:creator>
   </cc:Work>
  </rdf:RDF>
 </metadata>
 <defs>
  <style type="text/css">*{stroke-linejoin: round; stroke-linecap: butt}</style>
 </defs>
 <g id="figure_1">
  <g id="patch_1">
   <path d="M 0 345.6 
L 460.8 345.6 
L 460.8 0 
L 0 0 
z
" style="fill: #ffffff"/>
  </g>
  <g id="axes_1">
   <g id="patch_2">
    <path d="M 57.6 307.584 
L 414.72 307.584 
L 414.72 41.472 
L 57.6 41.472 
z
" style="fill: #ffffff"/>
   </g>
   <g id="matplotlib.axis_1">
    <g id="xtick_1">
     <g id="line2d_1">
      <defs>
       <path id="m0ecd1f3137" d="M 0 0 
L 0 3.5 
" style="stroke: #000000; stroke-width: 0.8"/>
      </defs>
      <g>
       <use xlink:href="#m0ecd1f3137" x="57.6" y="307.584" style="stroke: #000000; stroke-width: 0.8"/>
      </g>
     </g>
     <g id="text_1">
      <!-- 0 -->
      <g transform="translate(54.41875 322.182437) scale(0.1 -0.1)">
       <defs>
        <path id="DejaVuSans-30" d="M 2034 4250 
Q 1547 4250 1301 3770 
Q 1056 3291 1056 2328 
Q 1056 1369 1301 889 
Q 1547 409 2034 409 
Q 2525 409 2770 889 
Q 3016 1369 3016 2328 
Q 3016 3291 2770 3770 
Q 2525 4250 2034 4250 
z
M 2034 4750 
Q 2819 4750 3233 4129 
Q 3647 3509 3647 2328 
Q 3647 1150 3233 529 
Q 2819 -91 2034 -91 
Q 1250 -91 836 529 
Q 422 1150 422 2328 
Q 422 3509 836 4129 
Q 1250 4750 2034 4750 
z
" transform="scale(0.015625)"/>
       </defs>
       <use xlink:href="#DejaVuSans-30"/>
      </g>
     </g>
    </g>
    <g id="xtick_2">
     <g id="line2d_2">
      <g>
       <use xlink:href="#m0ecd1f3137" x="133.180952" y="307.584" style="stroke: #000000; stroke-width: 0.8"/>
      </g>
     </g>
     <g id="text_2">
      <!-- 2 -->
      <g transform="translate(129.999702 322.182437) scale(0.1 -0.1)">
       <defs>
        <path id="DejaVuSans-32" d="M 1228 531 
L 3431 531 
L 3431 0 
L 469 0 
L 469 531 
Q 828 903 1448 1529 
Q 2069 2156 2228 2338 
Q 2531 2678 2651 2914 
Q 2772 3150 2772 3378 
Q 2772 3750 2511 3984 
Q 2250 4219 1831 4219 
Q 1534 4219 1204 4116 
Q 875 4013 500 3803 
L 500 4441 
Q 881 4594 1212 4672 
Q 1544 4750 1819 4750 
Q 2544 4750 2975 4387 
Q 3406 4025 3406 3419 
Q 3406 3131 3298 2873 
Q 3191 2616 2906 2266 
Q 2828 2175 2409 1742 
Q 1991 1309 1228 531 
z
" transform="scale(0.015625)"/>
       </defs>
       <use xlink:href="#DejaVuSans-32"/>
      </g>
     </g>
    </g>
    <g id="xtick_3">
     <g id="line2d_3">
      <g>
       <use xlink:href="#m0ecd1f3137" x="208.761905" y="307.584" style="stroke: #000000; stroke-width: 0.8"/>
      </g>
     </g>
     <g id="text_3">
      <!-- 4 -->
      <g transform="translate(205.580655 322.182437) scale(0.1 -0.1)">
       <defs>
        <path id="DejaVuSans-34" d="M 2419 4116 
L 825 1625 
L 2419 1625 
L 2419 4116 
z
M 2253 4666 
L 3047 4666 
L 3047 1625 
L 3713 1625 
L 3713 1100 
L 3047 1100 
L 3047 0 
L 2419 0 
L 2419 1100 
L 313 1100 
L 313 1709 
L 2253 4666 
z
" transform="scale(0.015625)"/>
       </defs>
       <use xlink:href="#DejaVuSans-34"/>
      </g>
     </g>
    </g>
    <g id="xtick_4">
     <g id="line2d_4">
      <g>
       <use xlink:href="#m0ecd1f3137" x="284.342857" y="307.584" style="stroke: #000000; stroke-width: 0.8"/>
      </g>
     </g>
     <g id="text_4">
      <!-- 6 -->
      <g transform="translate(281.161607 322.182437) scale(0.1 -0.1)">
       <defs>
        <path id="DejaVuSans-36" d="M 2113 2584 
Q 1688 2584 1439 2293 
Q 1191 2003 1191 1497 
Q 1191 994 1439 701 
Q 1688 409 2113 409 
Q 2538 409 2786 701 
Q 3034 994 3034 1497 
Q 3034 2003 2786 2293 
Q 2538 2584 2113 2584 
z
M 3366 4563 
L 3366 3988 
Q 3128 4100 2886 4159 
Q 2644 4219 2406 4219 
Q 1781 4219 1451 3797 
Q 1122 3375 1075 2522 
Q 1259 2794 1537 2939 
Q 1816 3084 2150 3084 
Q 2853 3084 3261 2657 
Q 3669 2231 3669 1497 
Q 3669 778 3244 343 
Q 2819 -91 2113 -91 
Q 1303 -91 875 529 
Q 447 1150 447 2328 
Q 447 3434 972 4092 
Q 1497 4750 2381 4750 
Q 2619 4750 2861 4703 
Q 3103 4656 3366 4563 
z
" transform="scale(0.015625)"/>
       </defs>
       <use xlink:href="#DejaVuSans-36"/>
      </g>
     </g>
    </g>
    <g id="xtick_5">
     <g id="line2d_5">
      <g>
       <use xlink:href="#m0ecd1f3137" x="359.92381" y="307.584" style="stroke: #000000; stroke-width: 0.8"/>
      </g>
     </g>
     <g id="text_5">
      <!-- 8 -->
      <g transform="translate(356.74256 322.182437) scale(0.1 -0.1)">
       <defs>
        <path id="DejaVuSans-38" d="M 2034 2216 
Q 1584 2216 1326 1975 
Q 1069 1734 1069 1313 
Q 1069 891 1326 650 
Q 1584 409 2034 409 
Q 2484 409 2743 651 
Q 3003 894 3003 1313 
Q 3003 1734 2745 1975 
Q 2488 2216 2034 2216 
z
M 1403 2484 
Q 997 2584 770 2862 
Q 544 3141 544 3541 
Q 544 4100 942 4425 
Q 1341 4750 2034 4750 
Q 2731 4750 3128 4425 
Q 3525 4100 3525 3541 
Q 3525 3141 3298 2862 
Q 3072 2584 2669 2484 
Q 3125 2378 3379 2068 
Q 3634 1759 3634 1313 
Q 3634 634 3220 271 
Q 2806 -91 2034 -91 
Q 1263 -91 848 271 
Q 434 634 434 1313 
Q 434 1759 690 2068 
Q 947 2378 1403 2484 
z
M 1172 3481 
Q 1172 3119 1398 2916 
Q 1625 2713 2034 2713 
Q 2441 2713 2670 2916 
Q 2900 3119 2900 3481 
Q 2900 3844 2670 4047 
Q 2441 4250 2034 4250 
Q 1625 4250 1398 4047 
Q 1172 3844 1172 3481 
z
" transform="scale(0.015625)"/>
       </defs>
       <use xlink:href="#DejaVuSans-38"/>
      </g>
     </g>
    </g>
    <g id="text_6">
     <!-- Time [s] -->
     <g transform="translate(215.831094 335.860562) scale(0.1 -0.1)">
      <defs>
       <path id="DejaVuSans-54" d="M -19 4666 
L 3928 4666 
L 3928 4134 
L 2272 4134 
L 2272 0 
L 1638 0 
L 1638 4134 
L -19 4134 
L -19 4666 
z
" transform="scale(0.015625)"/>
       <path id="DejaVuSans-69" d="M 603 3500 
L 1178 3500 
L 1178 0 
L 603 0 
L 603 3500 
z
M 603 4863 
L 1178 4863 
L 1178 4134 
L 603 4134 
L 603 4863 
z
" transform="scale(0.015625)"/>
       <path id="DejaVuSans-6d" d="M 3328 2828 
Q 3544 3216 3844 3400 
Q 4144 3584 4550 3584 
Q 5097 3584 5394 3201 
Q 5691 2819 5691 2113 
L 5691 0 
L 5113 0 
L 5113 2094 
Q 5113 2597 4934 2840 
Q 4756 3084 4391 3084 
Q 3944 3084 3684 2787 
Q 3425 2491 3425 1978 
L 3425 0 
L 2847 0 
L 2847 2094 
Q 2847 2600 2669 2842 
Q 2491 3084 2119 3084 
Q 1678 3084 1418 2786 
Q 1159 2488 1159 1978 
L 1159 0 
L 581 0 
L 581 3500 
L 1159 3500 
L 1159 2956 
Q 1356 3278 1631 3431 
Q 1906 3584 2284 3584 
Q 2666 3584 2933 3390 
Q 3200 3197 3328 2828 
z
" transform="scale(0.015625)"/>
       <path id="DejaVuSans-65" d="M 3597 1894 
L 3597 1613 
L 953 1613 
Q 991 1019 1311 708 
Q 1631 397 2203 397 
Q 2534 397 2845 478 
Q 3156 559 3463 722 
L 3463 178 
Q 3153 47 2828 -22 
Q 2503 -91 2169 -91 
Q 1331 -91 842 396 
Q 353 884 353 1716 
Q 353 2575 817 3079 
Q 1281 3584 2069 3584 
Q 2775 3584 3186 3129 
Q 3597 2675 3597 1894 
z
M 3022 2063 
Q 3016 2534 2758 2815 
Q 2500 3097 2075 3097 
Q 1594 3097 1305 2825 
Q 1016 2553 972 2059 
L 3022 2063 
z
" transform="scale(0.015625)"/>
       <path id="DejaVuSans-20" transform="scale(0.015625)"/>
       <path id="DejaVuSans-5b" d="M 550 4863 
L 1875 4863 
L 1875 4416 
L 1125 4416 
L 1125 -397 
L 1875 -397 
L 1875 -844 
L 550 -844 
L 550 4863 
z
" transform="scale(0.015625)"/>
       <path id="DejaVuSans-73" d="M 2834 3397 
L 2834 2853 
Q 2591 2978 2328 3040 
Q 2066 3103 1784 3103 
Q 1356 3103 1142 2972 
Q 928 2841 928 2578 
Q 928 2378 1081 2264 
Q 1234 2150 1697 2047 
L 1894 2003 
Q 2506 1872 2764 1633 
Q 3022 1394 3022 966 
Q 3022 478 2636 193 
Q 2250 -91 1575 -91 
Q 1294 -91 989 -36 
Q 684 19 347 128 
L 347 722 
Q 666 556 975 473 
Q 1284 391 1588 391 
Q 1994 391 2212 530 
Q 2431 669 2431 922 
Q 2431 1156 2273 1281 
Q 2116 1406 1581 1522 
L 1381 1569 
Q 847 1681 609 1914 
Q 372 2147 372 2553 
Q 372 3047 722 3315 
Q 1072 3584 1716 3584 
Q 2034 3584 2315 3537 
Q 2597 3491 2834 3397 
z
" transform="scale(0.015625)"/>
       <path id="DejaVuSans-5d" d="M 1947 4863 
L 1947 -844 
L 622 -844 
L 622 -397 
L 1369 -397 
L 1369 4416 
L 622 4416 
L 622 4863 
L 1947 4863 
z
" transform="scale(0.015625)"/>
      </defs>
      <use xlink:href="#DejaVuSans-54"/>
      <use xlink:href="#DejaVuSans-69" x="57.958984"/>
      <use xlink:href="#DejaVuSans-6d" x="85.742188"/>
      <use xlink:href="#DejaVuSans-65" x="183.154297"/>
      <use xlink:href="#DejaVuSans-20" x="244.677734"/>
      <use xlink:href="#DejaVuSans-5b" x="276.464844"/>
      <use xlink:href="#DejaVuSans-73" x="315.478516"/>
      <use xlink:href="#DejaVuSans-5d" x="367.578125"/>
     </g>
    </g>
   </g>
   <g id="matplotlib.axis_2">
    <g id="ytick_1">
     <g id="line2d_6">
      <defs>
       <path id="m9034914193" d="M 0 0 
L -3.5 0 
" style="stroke: #000000; stroke-width: 0.8"/>
      </defs>
      <g>
       <use xlink:href="#m9034914193" x="57.6" y="301.346513" style="stroke: #000000; stroke-width: 0.8"/>
      </g>
     </g>
     <g id="text_7">
      <!-- 0 -->
      <g transform="translate(44.2375 305.145732) scale(0.1 -0.1)">
       <use xlink:href="#DejaVuSans-30"/>
      </g>
     </g>
    </g>
    <g id="ytick_2">
     <g id="line2d_7">
      <g>
       <use xlink:href="#m9034914193" x="57.6" y="266.955522" style="stroke: #000000; stroke-width: 0.8"/>
      </g>
     </g>
     <g id="text_8">
      <!-- 5 -->
      <g transform="translate(44.2375 270.75474) scale(0.1 -0.1)">
       <defs>
        <path id="DejaVuSans-35" d="M 691 4666 
L 3169 4666 
L 3169 4134 
L 1269 4134 
L 1269 2991 
Q 1406 3038 1543 3061 
Q 1681 3084 1819 3084 
Q 2600 3084 3056 2656 
Q 3513 2228 3513 1497 
Q 3513 744 3044 326 
Q 2575 -91 1722 -91 
Q 1428 -91 1123 -41 
Q 819 9 494 109 
L 494 744 
Q 775 591 1075 516 
Q 1375 441 1709 441 
Q 2250 441 2565 725 
Q 2881 1009 2881 1497 
Q 2881 1984 2565 2268 
Q 2250 2553 1709 2553 
Q 1456 2553 1204 2497 
Q 953 2441 691 2322 
L 691 4666 
z
" transform="scale(0.015625)"/>
       </defs>
       <use xlink:href="#DejaVuSans-35"/>
      </g>
     </g>
    </g>
    <g id="ytick_3">
     <g id="line2d_8">
      <g>
       <use xlink:href="#m9034914193" x="57.6" y="232.564531" style="stroke: #000000; stroke-width: 0.8"/>
      </g>
     </g>
     <g id="text_9">
      <!-- 10 -->
      <g transform="translate(37.875 236.363749) scale(0.1 -0.1)">
       <defs>
        <path id="DejaVuSans-31" d="M 794 531 
L 1825 531 
L 1825 4091 
L 703 3866 
L 703 4441 
L 1819 4666 
L 2450 4666 
L 2450 531 
L 3481 531 
L 3481 0 
L 794 0 
L 794 531 
z
" transform="scale(0.015625)"/>
       </defs>
       <use xlink:href="#DejaVuSans-31"/>
       <use xlink:href="#DejaVuSans-30" x="63.623047"/>
      </g>
     </g>
    </g>
    <g id="ytick_4">
     <g id="line2d_9">
      <g>
       <use xlink:href="#m9034914193" x="57.6" y="198.17354" style="stroke: #000000; stroke-width: 0.8"/>
      </g>
     </g>
     <g id="text_10">
      <!-- 15 -->
      <g transform="translate(37.875 201.972758) scale(0.1 -0.1)">
       <use xlink:href="#DejaVuSans-31"/>
       <use xlink:href="#DejaVuSans-35" x="63.623047"/>
      </g>
     </g>
    </g>
    <g id="ytick_5">
     <g id="line2d_10">
      <g>
       <use xlink:href="#m9034914193" x="57.6" y="163.782548" style="stroke: #000000; stroke-width: 0.8"/>
      </g>
     </g>
     <g id="text_11">
      <!-- 20 -->
      <g transform="translate(37.875 167.581767) scale(0.1 -0.1)">
       <use xlink:href="#DejaVuSans-32"/>
       <use xlink:href="#DejaVuSans-30" x="63.623047"/>
      </g>
     </g>
    </g>
    <g id="ytick_6">
     <g id="line2d_11">
      <g>
       <use xlink:href="#m9034914193" x="57.6" y="129.391557" style="stroke: #000000; stroke-width: 0.8"/>
      </g>
     </g>
     <g id="text_12">
      <!-- 25 -->
      <g transform="translate(37.875 133.190776) scale(0.1 -0.1)">
       <use xlink:href="#DejaVuSans-32"/>
       <use xlink:href="#DejaVuSans-35" x="63.623047"/>
      </g>
     </g>
    </g>
    <g id="ytick_7">
     <g id="line2d_12">
      <g>
       <use xlink:href="#m9034914193" x="57.6" y="95.000566" style="stroke: #000000; stroke-width: 0.8"/>
      </g>
     </g>
     <g id="text_13">
      <!-- 30 -->
      <g transform="translate(37.875 98.799785) scale(0.1 -0.1)">
       <defs>
        <path id="DejaVuSans-33" d="M 2597 2516 
Q 3050 2419 3304 2112 
Q 3559 1806 3559 1356 
Q 3559 666 3084 287 
Q 2609 -91 1734 -91 
Q 1441 -91 1130 -33 
Q 819 25 488 141 
L 488 750 
Q 750 597 1062 519 
Q 1375 441 1716 441 
Q 2309 441 2620 675 
Q 2931 909 2931 1356 
Q 2931 1769 2642 2001 
Q 2353 2234 1838 2234 
L 1294 2234 
L 1294 2753 
L 1863 2753 
Q 2328 2753 2575 2939 
Q 2822 3125 2822 3475 
Q 2822 3834 2567 4026 
Q 2313 4219 1838 4219 
Q 1578 4219 1281 4162 
Q 984 4106 628 3988 
L 628 4550 
Q 988 4650 1302 4700 
Q 1616 4750 1894 4750 
Q 2613 4750 3031 4423 
Q 3450 4097 3450 3541 
Q 3450 3153 3228 2886 
Q 3006 2619 2597 2516 
z
" transform="scale(0.015625)"/>
       </defs>
       <use xlink:href="#DejaVuSans-33"/>
       <use xlink:href="#DejaVuSans-30" x="63.623047"/>
      </g>
     </g>
    </g>
    <g id="ytick_8">
     <g id="line2d_13">
      <g>
       <use xlink:href="#m9034914193" x="57.6" y="60.609575" style="stroke: #000000; stroke-width: 0.8"/>
      </g>
     </g>
     <g id="text_14">
      <!-- 35 -->
      <g transform="translate(37.875 64.408794) scale(0.1 -0.1)">
       <use xlink:href="#DejaVuSans-33"/>
       <use xlink:href="#DejaVuSans-35" x="63.623047"/>
      </g>
     </g>
    </g>
    <g id="text_15">
     <!-- X-coordinate -->
     <g transform="translate(31.795312 206.175656) rotate(-90) scale(0.1 -0.1)">
      <defs>
       <path id="DejaVuSans-58" d="M 403 4666 
L 1081 4666 
L 2241 2931 
L 3406 4666 
L 4084 4666 
L 2584 2425 
L 4184 0 
L 3506 0 
L 2194 1984 
L 872 0 
L 191 0 
L 1856 2491 
L 403 4666 
z
" transform="scale(0.015625)"/>
       <path id="DejaVuSans-2d" d="M 313 2009 
L 1997 2009 
L 1997 1497 
L 313 1497 
L 313 2009 
z
" transform="scale(0.015625)"/>
       <path id="DejaVuSans-63" d="M 3122 3366 
L 3122 2828 
Q 2878 2963 2633 3030 
Q 2388 3097 2138 3097 
Q 1578 3097 1268 2742 
Q 959 2388 959 1747 
Q 959 1106 1268 751 
Q 1578 397 2138 397 
Q 2388 397 2633 464 
Q 2878 531 3122 666 
L 3122 134 
Q 2881 22 2623 -34 
Q 2366 -91 2075 -91 
Q 1284 -91 818 406 
Q 353 903 353 1747 
Q 353 2603 823 3093 
Q 1294 3584 2113 3584 
Q 2378 3584 2631 3529 
Q 2884 3475 3122 3366 
z
" transform="scale(0.015625)"/>
       <path id="DejaVuSans-6f" d="M 1959 3097 
Q 1497 3097 1228 2736 
Q 959 2375 959 1747 
Q 959 1119 1226 758 
Q 1494 397 1959 397 
Q 2419 397 2687 759 
Q 2956 1122 2956 1747 
Q 2956 2369 2687 2733 
Q 2419 3097 1959 3097 
z
M 1959 3584 
Q 2709 3584 3137 3096 
Q 3566 2609 3566 1747 
Q 3566 888 3137 398 
Q 2709 -91 1959 -91 
Q 1206 -91 779 398 
Q 353 888 353 1747 
Q 353 2609 779 3096 
Q 1206 3584 1959 3584 
z
" transform="scale(0.015625)"/>
       <path id="DejaVuSans-72" d="M 2631 2963 
Q 2534 3019 2420 3045 
Q 2306 3072 2169 3072 
Q 1681 3072 1420 2755 
Q 1159 2438 1159 1844 
L 1159 0 
L 581 0 
L 581 3500 
L 1159 3500 
L 1159 2956 
Q 1341 3275 1631 3429 
Q 1922 3584 2338 3584 
Q 2397 3584 2469 3576 
Q 2541 3569 2628 3553 
L 2631 2963 
z
" transform="scale(0.015625)"/>
       <path id="DejaVuSans-64" d="M 2906 2969 
L 2906 4863 
L 3481 4863 
L 3481 0 
L 2906 0 
L 2906 525 
Q 2725 213 2448 61 
Q 2172 -91 1784 -91 
Q 1150 -91 751 415 
Q 353 922 353 1747 
Q 353 2572 751 3078 
Q 1150 3584 1784 3584 
Q 2172 3584 2448 3432 
Q 2725 3281 2906 2969 
z
M 947 1747 
Q 947 1113 1208 752 
Q 1469 391 1925 391 
Q 2381 391 2643 752 
Q 2906 1113 2906 1747 
Q 2906 2381 2643 2742 
Q 2381 3103 1925 3103 
Q 1469 3103 1208 2742 
Q 947 2381 947 1747 
z
" transform="scale(0.015625)"/>
       <path id="DejaVuSans-6e" d="M 3513 2113 
L 3513 0 
L 2938 0 
L 2938 2094 
Q 2938 2591 2744 2837 
Q 2550 3084 2163 3084 
Q 1697 3084 1428 2787 
Q 1159 2491 1159 1978 
L 1159 0 
L 581 0 
L 581 3500 
L 1159 3500 
L 1159 2956 
Q 1366 3272 1645 3428 
Q 1925 3584 2291 3584 
Q 2894 3584 3203 3211 
Q 3513 2838 3513 2113 
z
" transform="scale(0.015625)"/>
       <path id="DejaVuSans-61" d="M 2194 1759 
Q 1497 1759 1228 1600 
Q 959 1441 959 1056 
Q 959 750 1161 570 
Q 1363 391 1709 391 
Q 2188 391 2477 730 
Q 2766 1069 2766 1631 
L 2766 1759 
L 2194 1759 
z
M 3341 1997 
L 3341 0 
L 2766 0 
L 2766 531 
Q 2569 213 2275 61 
Q 1981 -91 1556 -91 
Q 1019 -91 701 211 
Q 384 513 384 1019 
Q 384 1609 779 1909 
Q 1175 2209 1959 2209 
L 2766 2209 
L 2766 2266 
Q 2766 2663 2505 2880 
Q 2244 3097 1772 3097 
Q 1472 3097 1187 3025 
Q 903 2953 641 2809 
L 641 3341 
Q 956 3463 1253 3523 
Q 1550 3584 1831 3584 
Q 2591 3584 2966 3190 
Q 3341 2797 3341 1997 
z
" transform="scale(0.015625)"/>
       <path id="DejaVuSans-74" d="M 1172 4494 
L 1172 3500 
L 2356 3500 
L 2356 3053 
L 1172 3053 
L 1172 1153 
Q 1172 725 1289 603 
Q 1406 481 1766 481 
L 2356 481 
L 2356 0 
L 1766 0 
Q 1100 0 847 248 
Q 594 497 594 1153 
L 594 3053 
L 172 3053 
L 172 3500 
L 594 3500 
L 594 4494 
L 1172 4494 
z
" transform="scale(0.015625)"/>
      </defs>
      <use xlink:href="#DejaVuSans-58"/>
      <use xlink:href="#DejaVuSans-2d" x="63.505859"/>
      <use xlink:href="#DejaVuSans-63" x="99.589844"/>
      <use xlink:href="#DejaVuSans-6f" x="154.570312"/>
      <use xlink:href="#DejaVuSans-6f" x="215.751953"/>
      <use xlink:href="#DejaVuSans-72" x="276.933594"/>
      <use xlink:href="#DejaVuSans-64" x="316.296875"/>
      <use xlink:href="#DejaVuSans-69" x="379.773438"/>
      <use xlink:href="#DejaVuSans-6e" x="407.556641"/>
      <use xlink:href="#DejaVuSans-61" x="470.935547"/>
      <use xlink:href="#DejaVuSans-74" x="532.214844"/>
      <use xlink:href="#DejaVuSans-65" x="571.423828"/>
     </g>
    </g>
   </g>
   <g id="line2d_14">
    <path d="M 57.6 301.345137 
L 64.993789 301.202071 
L 72.387578 300.826521 
L 79.781366 300.218488 
L 87.175155 299.377972 
L 94.568944 298.304974 
L 101.962733 296.999492 
L 109.356522 295.461527 
L 116.750311 293.691078 
L 124.144099 291.688147 
L 131.537888 289.452732 
L 138.931677 286.984835 
L 146.325466 284.284454 
L 153.719255 281.351591 
L 161.113043 278.186244 
L 168.506832 274.788414 
L 175.900621 271.158101 
L 183.29441 267.295298 
L 191.256952 262.875368 
L 199.219494 258.185812 
L 207.182035 253.226638 
L 215.144577 247.997832 
L 223.107119 242.4994 
L 231.069661 236.731343 
L 239.032203 230.693661 
L 246.994744 224.386353 
L 254.957286 217.80942 
L 263.488581 210.463504 
L 272.019876 202.808069 
L 280.551171 194.843116 
L 289.082465 186.568643 
L 297.61376 177.984652 
L 306.145055 169.091142 
L 314.67635 159.888181 
L 323.207645 150.375633 
L 332.307692 139.887688 
L 341.40774 129.047647 
L 350.507788 117.855443 
L 359.607836 106.311075 
L 368.707883 94.414544 
L 377.807931 82.165848 
L 387.476732 68.765674 
L 397.145533 54.968008 
L 397.714286 54.144 
L 397.714286 54.144 
" clip-path="url(#pd1f08d9693)" style="fill: none; stroke: #000000; stroke-width: 2; stroke-linecap: square"/>
   </g>
   <g id="line2d_15">
    <path d="M 57.6 300.74205 
L 58.168753 303.488618 
L 58.737506 304.404766 
L 59.306259 303.398534 
L 59.875012 302.090576 
L 60.443765 302.13569 
L 61.012518 295.215741 
L 61.581271 295.855069 
L 62.718777 298.650809 
L 63.28753 299.035129 
L 63.856283 300.986343 
L 64.425036 302.152424 
L 64.993789 300.387121 
L 65.562542 301.381475 
L 66.131295 305.975189 
L 66.700048 305.660986 
L 67.268801 306.488853 
L 67.837554 307.584 
L 68.406307 306.036894 
L 68.97506 303.198488 
L 69.543813 304.648667 
L 70.112566 301.623525 
L 70.681319 301.153779 
L 71.250072 297.661869 
L 71.818825 298.460902 
L 72.387578 299.042949 
L 72.956331 298.875555 
L 73.525084 299.397575 
L 74.66259 295.982983 
L 75.231343 296.682407 
L 75.800096 295.12803 
L 76.368849 294.267643 
L 76.937602 294.110566 
L 77.506355 293.360244 
L 78.075108 292.146765 
L 78.64386 289.485239 
L 79.212613 287.837436 
L 79.781366 284.036956 
L 80.350119 281.171423 
L 80.918872 281.020536 
L 82.056378 279.791402 
L 82.625131 280.675574 
L 83.193884 279.915925 
L 83.762637 275.604588 
L 84.33139 274.122879 
L 84.900143 272.052576 
L 85.468896 272.773246 
L 86.037649 274.65953 
L 86.606402 274.83934 
L 87.175155 277.807792 
L 88.312661 275.116263 
L 88.881414 273.887652 
L 89.450167 274.224209 
L 90.01892 277.926564 
L 90.587673 277.64515 
L 91.725179 280.460382 
L 92.862685 278.963074 
L 93.431438 274.850393 
L 94.000191 273.147324 
L 94.568944 273.307098 
L 95.137697 275.848626 
L 95.70645 276.919238 
L 96.275203 276.221019 
L 96.843956 274.679133 
L 97.412709 271.140376 
L 97.981462 277.938979 
L 99.118968 281.07314 
L 99.687721 281.504837 
L 100.256474 277.34828 
L 100.825227 276.99723 
L 101.39398 277.666183 
L 101.962733 277.157595 
L 102.531486 275.995551 
L 103.100239 275.707919 
L 103.668992 277.873348 
L 104.237745 278.15913 
L 104.806498 279.582415 
L 105.944004 283.523973 
L 106.512757 282.897362 
L 107.08151 283.281964 
L 107.650263 283.233569 
L 108.219016 284.054523 
L 108.787769 282.635049 
L 109.356522 283.193146 
L 110.494028 276.822552 
L 111.631534 279.971336 
L 112.200287 278.31034 
L 113.337793 279.279506 
L 113.906546 282.673133 
L 115.044052 280.610004 
L 115.612805 284.519537 
L 116.181558 287.430852 
L 116.750311 289.272283 
L 117.319064 288.858284 
L 117.887817 285.785408 
L 118.45657 283.940538 
L 119.025323 283.587315 
L 119.594075 285.007394 
L 120.162828 282.822026 
L 120.731581 284.633585 
L 121.300334 284.005138 
L 121.869087 284.714796 
L 122.43784 284.719012 
L 123.006593 285.125658 
L 123.575346 283.710902 
L 124.144099 283.576282 
L 124.712852 284.43682 
L 125.281605 284.019334 
L 125.850358 285.372585 
L 126.419111 285.309897 
L 126.987864 285.624052 
L 127.556617 288.776496 
L 128.12537 290.421692 
L 128.694123 291.190922 
L 129.262876 290.006978 
L 130.400382 281.349238 
L 130.969135 275.49237 
L 131.537888 273.904318 
L 132.106641 279.89223 
L 132.675394 281.942737 
L 133.244147 276.514071 
L 133.8129 276.969153 
L 134.950406 280.735889 
L 135.519159 281.784539 
L 136.087912 278.659196 
L 136.656665 278.806575 
L 137.225418 280.536235 
L 137.794171 281.846284 
L 138.362924 285.933557 
L 138.931677 286.277605 
L 139.50043 288.664759 
L 140.637936 287.233633 
L 141.206689 281.205711 
L 141.775442 282.823326 
L 142.344195 286.59482 
L 142.912948 284.778474 
L 143.481701 284.160564 
L 144.050454 286.036111 
L 144.619207 287.144836 
L 145.18796 285.869363 
L 145.756713 285.6334 
L 146.325466 287.424792 
L 147.462972 287.375049 
L 148.031725 290.6821 
L 148.600478 292.633555 
L 149.169231 292.968984 
L 149.737984 291.103273 
L 150.306737 289.98311 
L 150.87549 287.514931 
L 151.444243 290.737298 
L 152.012996 290.510909 
L 152.581749 288.575666 
L 153.150502 287.61549 
L 153.719255 287.881553 
L 154.288008 289.435936 
L 154.856761 290.507518 
L 155.425514 290.924282 
L 155.994267 290.170142 
L 156.56302 290.372224 
L 157.131773 289.740791 
L 157.700526 288.207263 
L 158.269279 287.064189 
L 158.838032 286.990351 
L 159.406785 286.621205 
L 159.975538 285.4238 
L 160.54429 283.070838 
L 161.113043 282.123407 
L 161.681796 283.138079 
L 162.250549 281.372542 
L 162.819302 281.024154 
L 163.388055 280.187724 
L 163.956808 281.034513 
L 164.525561 280.51353 
L 165.094314 282.16546 
L 165.663067 282.35794 
L 166.23182 281.031273 
L 166.800573 281.762845 
L 167.369326 283.512294 
L 167.938079 283.717519 
L 168.506832 283.128965 
L 169.075585 284.944383 
L 170.213091 282.725573 
L 170.781844 281.386415 
L 171.350597 278.741486 
L 171.91935 280.112834 
L 172.488103 277.43727 
L 173.056856 276.667476 
L 173.625609 274.670962 
L 174.194362 274.048423 
L 174.763115 271.15275 
L 175.900621 269.882463 
L 176.469374 270.119293 
L 178.175633 267.460141 
L 178.744386 268.009062 
L 179.313139 272.375913 
L 179.881892 270.918004 
L 180.450645 267.271781 
L 181.588151 263.929919 
L 182.156904 263.905474 
L 182.725657 264.16893 
L 183.29441 266.083064 
L 183.863163 265.668941 
L 184.431916 261.891909 
L 185.000669 265.282799 
L 185.569422 265.924487 
L 186.138175 268.255377 
L 186.706928 269.4382 
L 187.275681 273.277322 
L 187.844434 273.319623 
L 188.413187 273.50239 
L 188.98194 273.808683 
L 189.550693 273.862732 
L 190.119446 275.134146 
L 190.688199 273.202143 
L 192.394458 277.374878 
L 192.963211 276.817812 
L 194.66947 279.836915 
L 195.238223 276.243758 
L 195.806976 274.151809 
L 196.944482 276.244384 
L 197.513235 276.92688 
L 198.081988 276.616838 
L 198.650741 274.00022 
L 199.219494 273.638331 
L 199.788247 272.755404 
L 200.357 273.258489 
L 200.925753 272.890045 
L 201.494505 271.742541 
L 202.063258 269.590931 
L 202.632011 272.301918 
L 203.200764 268.25255 
L 203.769517 263.154849 
L 204.33827 263.200548 
L 204.907023 263.587275 
L 205.475776 266.162067 
L 206.044529 270.397888 
L 206.613282 261.613088 
L 207.182035 260.591304 
L 207.750788 262.081514 
L 208.319541 262.750308 
L 209.457047 257.667588 
L 210.0258 256.329049 
L 210.594553 254.161488 
L 211.163306 253.066238 
L 211.732059 253.137001 
L 212.300812 252.790842 
L 212.869565 248.887327 
L 213.438318 248.140272 
L 214.007071 248.020977 
L 214.575824 248.031157 
L 215.144577 249.972198 
L 215.71333 252.455049 
L 216.282083 252.686266 
L 216.850836 254.848875 
L 217.419589 253.373783 
L 217.988342 247.789374 
L 218.557095 247.775969 
L 219.125848 245.906949 
L 219.694601 247.062672 
L 220.263354 247.049562 
L 220.832107 247.52856 
L 221.40086 248.333818 
L 221.969613 247.887003 
L 222.538366 249.597398 
L 223.107119 250.830425 
L 223.675872 252.715038 
L 224.244625 250.807452 
L 224.813378 252.064298 
L 225.382131 254.25638 
L 226.519637 250.548914 
L 227.08839 251.250263 
L 227.657143 257.54951 
L 228.225896 255.780472 
L 229.363402 258.454413 
L 229.932155 258.016168 
L 230.500908 258.923155 
L 231.069661 259.14867 
L 231.638414 259.619586 
L 232.207167 260.400179 
L 232.77592 260.773892 
L 233.344673 258.802154 
L 233.913426 255.251593 
L 235.619685 235.955991 
L 236.188438 237.08491 
L 236.757191 235.767886 
L 237.325944 235.273399 
L 237.894697 234.973186 
L 238.46345 231.379231 
L 239.032203 239.784039 
L 239.600956 240.833294 
L 240.169709 238.420629 
L 240.738462 240.938909 
L 241.307215 237.871246 
L 242.44472 234.271548 
L 243.013473 233.206693 
L 243.582226 233.455883 
L 244.150979 236.465411 
L 245.288485 234.368613 
L 245.857238 234.502215 
L 246.425991 233.413362 
L 247.563497 227.117307 
L 248.13225 228.019039 
L 248.701003 225.210767 
L 249.838509 221.297217 
L 250.407262 221.351437 
L 250.976015 216.633626 
L 251.544768 216.388329 
L 252.113521 215.82151 
L 252.682274 216.027946 
L 253.251027 219.381446 
L 253.81978 223.664218 
L 254.388533 226.575821 
L 254.957286 226.666716 
L 255.526039 226.434364 
L 256.094792 226.058519 
L 256.663545 226.543803 
L 257.801051 229.312305 
L 258.938557 228.305502 
L 259.50731 226.66728 
L 260.076063 226.682461 
L 260.644816 228.159677 
L 261.213569 232.459535 
L 261.782322 232.829781 
L 262.919828 237.72505 
L 264.057334 234.161105 
L 265.19484 233.792626 
L 265.763593 234.872909 
L 266.332346 234.981695 
L 266.901099 232.764329 
L 267.469852 231.936166 
L 268.607358 230.997753 
L 269.176111 232.491656 
L 269.744864 230.83778 
L 270.313617 230.685661 
L 270.88237 230.281492 
L 271.451123 226.170716 
L 272.588629 227.645188 
L 273.157382 228.012264 
L 273.726135 226.832674 
L 274.294888 227.504309 
L 274.863641 228.803711 
L 275.432394 227.256701 
L 276.001147 224.914619 
L 276.5699 224.050257 
L 277.138653 223.792661 
L 277.707406 222.502841 
L 278.276159 222.436941 
L 278.844912 222.580991 
L 279.413665 221.483967 
L 280.551171 218.249535 
L 281.119924 218.842353 
L 281.688677 219.648437 
L 282.25743 217.010496 
L 282.826183 216.51638 
L 283.394935 216.833926 
L 283.963688 217.380736 
L 284.532441 218.206072 
L 285.669947 216.944438 
L 286.2387 215.262829 
L 286.807453 212.008719 
L 287.376206 209.735082 
L 288.513712 206.51059 
L 289.082465 207.041552 
L 289.651218 203.945359 
L 290.219971 203.205801 
L 290.788724 203.502245 
L 291.357477 199.089702 
L 291.92623 196.952288 
L 292.494983 196.257026 
L 293.063736 191.969611 
L 293.632489 191.689008 
L 294.201242 191.086891 
L 294.769995 185.518783 
L 295.338748 186.398656 
L 295.907501 187.74322 
L 296.476254 188.654175 
L 297.045007 189.884093 
L 297.61376 186.689796 
L 298.182513 185.428259 
L 298.751266 184.531067 
L 299.320019 184.014555 
L 299.888772 183.058726 
L 300.457525 183.566392 
L 301.026278 186.268933 
L 301.595031 184.568567 
L 302.163784 190.919345 
L 302.732537 191.451428 
L 303.30129 191.547806 
L 304.438796 192.884439 
L 305.007549 195.783146 
L 305.576302 186.744175 
L 306.145055 188.346059 
L 306.713808 187.963858 
L 307.282561 186.13921 
L 307.851314 185.495892 
L 308.420067 182.771204 
L 308.98882 180.727891 
L 309.557573 179.271577 
L 310.126326 175.804607 
L 310.695079 176.702432 
L 311.263832 175.216755 
L 312.401338 173.443796 
L 312.970091 171.181392 
L 313.538844 171.524628 
L 314.107597 172.133238 
L 314.67635 173.106888 
L 315.245103 172.181372 
L 315.813856 173.713539 
L 316.382609 172.341317 
L 318.088868 169.992186 
L 318.657621 170.804845 
L 319.226374 168.79009 
L 319.795127 168.725517 
L 320.36388 167.637957 
L 320.932633 164.728294 
L 321.501386 164.538208 
L 322.070139 162.459775 
L 322.638892 162.822187 
L 323.207645 162.118203 
L 324.345151 165.176849 
L 324.913903 165.16865 
L 325.482656 166.00422 
L 326.051409 165.721753 
L 326.620162 160.7884 
L 327.188915 159.769305 
L 327.757668 157.29345 
L 328.326421 152.859701 
L 328.895174 150.729008 
L 330.03268 155.571156 
L 330.601433 155.473197 
L 331.170186 153.592285 
L 331.738939 150.794667 
L 332.307692 149.912235 
L 333.445198 145.390776 
L 334.582704 139.865224 
L 335.151457 134.752281 
L 335.72021 131.964767 
L 336.857716 141.894897 
L 337.426469 140.656553 
L 337.995222 141.901975 
L 338.563975 143.802346 
L 339.132728 141.871305 
L 339.701481 143.063084 
L 340.270234 142.15435 
L 340.838987 141.735915 
L 341.40774 142.957056 
L 341.976493 141.124092 
L 342.545246 142.382665 
L 343.113999 142.089241 
L 343.682752 140.982986 
L 344.251505 140.483395 
L 345.389011 135.006987 
L 345.957764 134.227316 
L 346.526517 136.405827 
L 347.09527 135.380308 
L 347.664023 131.475136 
L 348.232776 130.806884 
L 348.801529 128.71272 
L 349.370282 128.97749 
L 349.939035 127.625188 
L 350.507788 125.232036 
L 351.076541 126.084815 
L 351.645294 125.84121 
L 352.214047 124.727699 
L 352.7828 125.637313 
L 353.351553 129.64061 
L 353.920306 129.359085 
L 354.489059 126.483978 
L 355.057812 128.480196 
L 355.626565 129.945692 
L 356.195318 130.371921 
L 356.764071 128.814882 
L 357.332824 127.627024 
L 357.901577 127.664896 
L 358.47033 127.066809 
L 359.039083 125.044736 
L 359.607836 124.771031 
L 360.176589 122.299488 
L 360.745342 122.39341 
L 361.314095 121.795557 
L 361.882848 119.191884 
L 362.451601 117.279367 
L 363.589107 114.362288 
L 364.15786 112.492911 
L 364.726613 111.667844 
L 365.295366 110.182627 
L 366.432871 114.298046 
L 367.001624 110.233863 
L 367.570377 100.425965 
L 368.13913 99.110159 
L 368.707883 98.993525 
L 369.276636 98.229915 
L 369.845389 97.268377 
L 370.414142 91.820087 
L 370.982895 90.26342 
L 371.551648 92.779878 
L 372.120401 94.025004 
L 372.689154 93.292847 
L 373.257907 93.108305 
L 373.82666 88.553569 
L 374.395413 85.445071 
L 374.964166 85.496815 
L 375.532919 87.337882 
L 376.670425 88.385947 
L 377.239178 87.012041 
L 377.807931 88.044424 
L 378.376684 87.038336 
L 378.945437 89.730078 
L 379.51419 88.539414 
L 380.082943 88.516757 
L 380.651696 87.888152 
L 381.220449 82.954874 
L 381.789202 81.363438 
L 382.926708 94.37183 
L 383.495461 95.892249 
L 384.632967 97.390623 
L 385.770473 102.521064 
L 386.339226 104.280287 
L 386.907979 100.304716 
L 387.476732 98.476925 
L 388.045485 95.163731 
L 388.614238 95.171324 
L 389.182991 98.100233 
L 389.751744 94.820784 
L 390.320497 87.130814 
L 391.458003 98.482943 
L 392.026756 97.200104 
L 392.595509 94.626791 
L 393.164262 99.898235 
L 393.733015 101.83916 
L 394.301768 103.346338 
L 394.870521 101.433683 
L 395.439274 100.510333 
L 396.008027 101.568915 
L 396.57678 99.83239 
L 397.145533 100.55716 
L 397.714286 100.196969 
L 397.714286 100.196969 
" clip-path="url(#pd1f08d9693)" style="fill: none; stroke-dasharray: 5.55,2.4; stroke-dashoffset: 0; stroke: #4169e1; stroke-opacity: 0.7; stroke-width: 1.5"/>
   </g>
   <g id="line2d_16">
    <path d="M 57.6 299.395429 
L 58.168753 300.228737 
L 58.737506 298.516829 
L 59.306259 295.015971 
L 59.875012 296.183785 
L 60.443765 296.454786 
L 61.012518 297.182679 
L 61.581271 296.820872 
L 62.150024 291.233271 
L 63.28753 293.903635 
L 63.856283 293.59347 
L 64.425036 293.144537 
L 64.993789 292.250749 
L 65.562542 293.024134 
L 66.131295 295.66713 
L 66.700048 290.384281 
L 67.268801 291.421906 
L 67.837554 293.257284 
L 68.406307 291.776704 
L 68.97506 292.466725 
L 69.543813 293.870654 
L 70.681319 294.272719 
L 71.250072 292.431501 
L 71.818825 291.048364 
L 72.387578 297.251818 
L 72.956331 298.648402 
L 73.525084 300.456144 
L 74.66259 288.377395 
L 75.231343 287.976706 
L 75.800096 286.075633 
L 76.368849 286.277804 
L 76.937602 292.396993 
L 77.506355 292.766813 
L 78.075108 296.832977 
L 79.212613 294.699842 
L 79.781366 296.773213 
L 80.350119 294.607172 
L 80.918872 293.181259 
L 81.487625 293.416611 
L 82.625131 291.407929 
L 83.193884 292.838037 
L 83.762637 295.75775 
L 84.33139 297.117191 
L 84.900143 297.703427 
L 85.468896 301.439176 
L 86.037649 300.078132 
L 86.606402 303.710329 
L 87.175155 296.040568 
L 87.743908 294.609208 
L 88.312661 294.040938 
L 88.881414 289.950033 
L 89.450167 288.022047 
L 90.01892 289.084955 
L 90.587673 287.034585 
L 91.156426 287.275831 
L 91.725179 288.503631 
L 92.293932 288.626915 
L 92.862685 291.581239 
L 93.431438 291.510627 
L 94.568944 290.384316 
L 95.137697 290.4599 
L 95.70645 290.162624 
L 96.275203 289.329571 
L 96.843956 286.507337 
L 97.412709 284.81358 
L 97.981462 284.247085 
L 98.550215 284.116626 
L 99.118968 283.339844 
L 99.687721 283.044797 
L 100.256474 282.179609 
L 100.825227 282.593291 
L 101.39398 284.527365 
L 102.531486 282.414362 
L 103.100239 280.515704 
L 103.668992 279.063104 
L 104.237745 279.363523 
L 105.375251 277.995353 
L 105.944004 279.68188 
L 106.512757 280.070189 
L 107.08151 279.040206 
L 107.650263 279.848065 
L 108.787769 283.643716 
L 109.356522 286.258855 
L 109.925275 286.955266 
L 110.494028 286.555402 
L 111.062781 287.383206 
L 111.631534 288.47316 
L 112.200287 288.696516 
L 113.337793 283.831332 
L 113.906546 286.675777 
L 114.475299 287.751362 
L 115.044052 283.204041 
L 115.612805 287.958506 
L 116.750311 289.709365 
L 117.319064 288.652743 
L 117.887817 288.452904 
L 119.025323 285.664971 
L 120.162828 283.859863 
L 120.731581 285.854341 
L 121.300334 284.672687 
L 121.869087 285.671065 
L 122.43784 287.159239 
L 123.006593 286.250752 
L 123.575346 285.691245 
L 124.144099 286.602228 
L 124.712852 285.373218 
L 125.281605 286.165119 
L 125.850358 288.644991 
L 126.419111 288.634722 
L 126.987864 288.455951 
L 127.556617 287.056967 
L 128.12537 284.706391 
L 128.694123 283.248254 
L 129.262876 284.90733 
L 130.400382 286.834918 
L 130.969135 285.347782 
L 131.537888 285.180855 
L 132.106641 284.127659 
L 132.675394 285.568421 
L 133.244147 286.094693 
L 133.8129 284.133856 
L 134.950406 283.160295 
L 135.519159 282.278428 
L 136.087912 284.969585 
L 136.656665 286.959296 
L 137.225418 287.927581 
L 137.794171 286.545786 
L 138.362924 286.641014 
L 138.931677 287.569 
L 139.50043 287.545491 
L 140.069183 287.104756 
L 140.637936 288.366617 
L 141.206689 286.53813 
L 141.775442 286.48664 
L 142.344195 287.333174 
L 142.912948 285.399225 
L 143.481701 283.99927 
L 144.050454 281.509865 
L 144.619207 278.101594 
L 145.18796 278.353226 
L 145.756713 276.455359 
L 146.325466 276.65061 
L 146.894219 276.584064 
L 147.462972 276.808197 
L 148.600478 278.855541 
L 149.169231 280.819039 
L 149.737984 283.66726 
L 150.306737 282.912247 
L 150.87549 281.018803 
L 151.444243 281.780102 
L 152.012996 282.895822 
L 152.581749 283.111075 
L 153.150502 287.112549 
L 153.719255 286.123678 
L 154.288008 284.289854 
L 154.856761 283.742521 
L 155.425514 281.433902 
L 155.994267 281.010253 
L 157.131773 278.96346 
L 158.838032 273.786398 
L 159.406785 270.904323 
L 159.975538 270.211874 
L 160.54429 268.631732 
L 161.113043 268.166367 
L 162.819302 268.273598 
L 163.388055 267.216501 
L 164.525561 270.339994 
L 165.094314 270.011106 
L 165.663067 272.391747 
L 166.23182 271.983753 
L 166.800573 273.089774 
L 167.369326 267.624392 
L 167.938079 268.22523 
L 168.506832 277.579126 
L 169.075585 280.134122 
L 169.644338 279.530821 
L 170.213091 276.071782 
L 170.781844 276.669601 
L 171.350597 277.021448 
L 171.91935 276.745474 
L 172.488103 272.243597 
L 173.056856 266.502166 
L 173.625609 267.416223 
L 174.194362 267.621166 
L 174.763115 265.18801 
L 175.331868 267.86528 
L 175.900621 266.562123 
L 176.469374 267.729154 
L 177.038127 271.829633 
L 177.60688 271.354721 
L 178.175633 272.016734 
L 178.744386 271.181019 
L 179.313139 272.028695 
L 180.450645 272.704801 
L 181.019398 271.349727 
L 182.156904 267.002789 
L 182.725657 265.945169 
L 183.29441 264.031029 
L 183.863163 264.247988 
L 184.431916 264.660783 
L 185.000669 265.71735 
L 185.569422 267.296295 
L 186.138175 268.505063 
L 186.706928 270.010824 
L 187.275681 272.021535 
L 187.844434 271.690212 
L 188.413187 273.572761 
L 188.98194 268.891115 
L 189.550693 268.828462 
L 190.119446 269.158622 
L 190.688199 270.100743 
L 191.256952 268.555501 
L 191.825705 268.898482 
L 192.394458 266.463531 
L 192.963211 265.624412 
L 193.531964 265.335761 
L 194.100717 265.568712 
L 195.238223 267.916062 
L 195.806976 266.465705 
L 196.375729 267.302575 
L 197.513235 268.360311 
L 198.081988 268.849619 
L 198.650741 268.254834 
L 199.219494 268.751818 
L 199.788247 268.327371 
L 200.357 270.199431 
L 200.925753 270.652044 
L 201.494505 269.447293 
L 202.063258 273.139015 
L 202.632011 273.344481 
L 203.200764 273.829978 
L 203.769517 275.521657 
L 204.33827 275.766335 
L 204.907023 275.295929 
L 205.475776 282.704216 
L 206.044529 282.183949 
L 206.613282 284.594984 
L 207.182035 281.823421 
L 207.750788 276.154293 
L 208.319541 273.354894 
L 208.888294 271.914194 
L 209.457047 276.113162 
L 210.0258 273.917008 
L 210.594553 272.421591 
L 211.163306 270.194273 
L 211.732059 264.378577 
L 212.300812 260.126131 
L 212.869565 257.298263 
L 213.438318 263.675557 
L 214.007071 268.17026 
L 214.575824 259.9725 
L 215.144577 257.575221 
L 215.71333 259.253322 
L 216.282083 256.587319 
L 216.850836 256.202607 
L 217.419589 256.73249 
L 217.988342 258.154743 
L 218.557095 256.586246 
L 219.125848 256.612679 
L 219.694601 257.278289 
L 220.263354 258.145575 
L 221.40086 259.104492 
L 221.969613 257.878659 
L 222.538366 255.41059 
L 223.107119 258.297707 
L 224.244625 259.936025 
L 224.813378 260.209619 
L 225.382131 257.882607 
L 225.950884 257.20018 
L 226.519637 251.696211 
L 227.08839 258.360051 
L 227.657143 257.747623 
L 228.225896 258.011801 
L 228.794649 257.173252 
L 229.363402 255.341877 
L 229.932155 255.681508 
L 230.500908 257.809829 
L 231.069661 254.332329 
L 231.638414 251.966848 
L 232.207167 251.79252 
L 232.77592 251.013777 
L 233.344673 250.547745 
L 233.913426 250.436738 
L 234.482179 253.758206 
L 235.050932 253.043644 
L 235.619685 251.130376 
L 236.188438 250.79981 
L 236.757191 250.101419 
L 237.325944 250.905576 
L 237.894697 249.399822 
L 238.46345 248.423744 
L 239.032203 248.03071 
L 239.600956 249.048284 
L 240.169709 245.406381 
L 240.738462 248.701877 
L 241.307215 245.946168 
L 241.875968 245.516831 
L 242.44472 245.239688 
L 243.013473 245.941808 
L 243.582226 243.390484 
L 244.150979 245.270709 
L 244.719732 245.875729 
L 245.288485 244.042765 
L 245.857238 241.472575 
L 246.994744 239.915405 
L 247.563497 240.470249 
L 248.13225 242.137703 
L 248.701003 240.742199 
L 249.269756 241.464169 
L 249.838509 240.404886 
L 250.407262 239.06645 
L 250.976015 238.816015 
L 251.544768 240.269358 
L 252.113521 237.653648 
L 252.682274 237.834812 
L 253.251027 238.319987 
L 253.81978 238.405889 
L 254.388533 237.46936 
L 254.957286 232.305518 
L 255.526039 228.517928 
L 256.094792 226.36486 
L 256.663545 222.805743 
L 257.232298 223.760464 
L 257.801051 225.911009 
L 258.369804 231.276705 
L 258.938557 232.796917 
L 259.50731 231.994603 
L 260.076063 230.734779 
L 260.644816 231.781413 
L 261.213569 233.783155 
L 261.782322 234.071413 
L 262.351075 235.893331 
L 262.919828 232.838978 
L 263.488581 231.01717 
L 264.057334 231.7966 
L 265.19484 231.61884 
L 265.763593 232.586788 
L 266.901099 228.88532 
L 268.038605 220.73046 
L 268.607358 220.905689 
L 269.176111 224.192161 
L 269.744864 224.089566 
L 270.313617 225.127382 
L 271.451123 220.174536 
L 272.019876 219.041009 
L 272.588629 217.647927 
L 273.157382 215.0063 
L 273.726135 215.768672 
L 274.294888 218.654345 
L 274.863641 220.840222 
L 275.432394 217.376004 
L 276.001147 215.138017 
L 277.138653 214.557188 
L 277.707406 216.753231 
L 278.276159 217.336729 
L 279.413665 221.701297 
L 279.982418 220.724146 
L 280.551171 217.278361 
L 281.119924 217.942988 
L 281.688677 217.927078 
L 282.25743 213.830877 
L 282.826183 202.017324 
L 283.963688 192.384676 
L 284.532441 193.886063 
L 285.101194 197.764356 
L 285.669947 194.836073 
L 286.2387 193.496812 
L 286.807453 192.914015 
L 287.376206 189.524467 
L 287.944959 188.258961 
L 288.513712 186.376494 
L 289.082465 186.590165 
L 289.651218 187.129272 
L 290.219971 186.334647 
L 290.788724 186.407969 
L 291.357477 187.116231 
L 291.92623 187.219837 
L 292.494983 187.518199 
L 293.063736 183.381562 
L 293.632489 186.140524 
L 294.201242 186.297615 
L 294.769995 186.299438 
L 295.338748 186.073434 
L 295.907501 186.219582 
L 297.045007 185.931592 
L 297.61376 184.497501 
L 298.182513 187.101264 
L 298.751266 188.35465 
L 299.320019 188.426816 
L 299.888772 189.699503 
L 300.457525 189.737698 
L 301.026278 190.572986 
L 301.595031 190.30376 
L 302.163784 190.259533 
L 302.732537 189.370608 
L 303.30129 187.790886 
L 303.870043 186.780918 
L 304.438796 185.268616 
L 305.007549 182.250009 
L 305.576302 180.377068 
L 306.145055 178.086525 
L 307.282561 174.849906 
L 307.851314 176.733329 
L 308.420067 178.189299 
L 308.98882 177.183039 
L 309.557573 177.736968 
L 310.695079 174.504126 
L 311.263832 172.954179 
L 312.401338 172.859239 
L 312.970091 173.55578 
L 313.538844 172.878807 
L 314.107597 175.206878 
L 314.67635 174.742882 
L 315.245103 172.766459 
L 315.813856 169.766732 
L 316.382609 170.178661 
L 316.951362 167.793735 
L 317.520115 166.427064 
L 318.088868 171.11803 
L 318.657621 173.2174 
L 319.226374 170.29993 
L 319.795127 171.107678 
L 320.36388 165.787213 
L 320.932633 157.6974 
L 321.501386 152.967751 
L 322.070139 152.360585 
L 322.638892 151.152196 
L 323.207645 154.326718 
L 323.776398 155.679013 
L 324.345151 158.072605 
L 324.913903 155.269237 
L 325.482656 154.845974 
L 326.051409 154.901006 
L 326.620162 150.081226 
L 327.188915 148.914965 
L 327.757668 149.10957 
L 328.326421 148.912427 
L 328.895174 148.32657 
L 329.463927 147.903072 
L 330.03268 153.002183 
L 330.601433 154.491953 
L 331.170186 153.614535 
L 331.738939 151.447869 
L 332.876445 145.216737 
L 333.445198 142.897312 
L 334.013951 142.806685 
L 334.582704 141.354436 
L 335.151457 140.469006 
L 335.72021 140.281898 
L 336.288963 137.714879 
L 336.857716 135.733552 
L 337.426469 135.796563 
L 337.995222 135.168824 
L 339.132728 133.379275 
L 339.701481 133.777427 
L 340.270234 133.9992 
L 340.838987 135.081966 
L 341.40774 138.690427 
L 341.976493 139.299444 
L 342.545246 138.377683 
L 343.113999 135.562766 
L 343.682752 135.089587 
L 344.251505 134.46266 
L 344.820258 134.680555 
L 345.389011 133.381291 
L 345.957764 132.700342 
L 346.526517 131.826598 
L 347.09527 130.603001 
L 347.664023 131.510744 
L 348.232776 132.821041 
L 348.801529 131.308408 
L 349.939035 138.70633 
L 350.507788 140.450359 
L 351.076541 140.000559 
L 351.645294 141.232967 
L 352.214047 141.203859 
L 354.489059 119.755958 
L 355.057812 121.334897 
L 355.626565 115.683687 
L 356.764071 111.477448 
L 357.332824 111.066476 
L 357.901577 113.845213 
L 358.47033 113.391582 
L 359.039083 116.718016 
L 359.607836 122.950964 
L 360.176589 124.864554 
L 360.745342 127.217696 
L 361.314095 127.665659 
L 361.882848 123.341625 
L 362.451601 122.813104 
L 363.020354 122.657093 
L 363.589107 121.420338 
L 364.15786 120.682059 
L 364.726613 120.510029 
L 365.295366 118.664539 
L 365.864118 113.433223 
L 366.432871 112.660416 
L 367.001624 109.333507 
L 368.13913 107.083566 
L 368.707883 111.097648 
L 369.276636 110.690534 
L 369.845389 109.627825 
L 370.414142 110.275015 
L 370.982895 114.466693 
L 371.551648 114.875684 
L 372.120401 113.908554 
L 372.689154 118.414352 
L 373.257907 121.070464 
L 373.82666 121.485068 
L 374.395413 121.566039 
L 374.964166 120.235575 
L 375.532919 117.271443 
L 376.101672 116.905158 
L 376.670425 115.231748 
L 377.239178 112.910645 
L 377.807931 111.540129 
L 378.376684 109.767081 
L 378.945437 108.69433 
L 379.51419 110.427251 
L 380.082943 110.447885 
L 380.651696 113.856892 
L 381.220449 114.904731 
L 381.789202 113.636226 
L 382.357955 113.585444 
L 382.926708 110.070554 
L 384.064214 105.339495 
L 384.632967 102.734158 
L 385.20172 104.226445 
L 385.770473 104.228281 
L 386.339226 101.351007 
L 386.907979 101.440032 
L 387.476732 96.530174 
L 388.045485 97.118659 
L 388.614238 94.225985 
L 389.182991 96.458497 
L 389.751744 97.302445 
L 390.320497 97.35128 
L 390.88925 96.298338 
L 391.458003 94.172012 
L 392.026756 95.013896 
L 392.595509 96.913689 
L 393.164262 97.950962 
L 393.733015 97.848085 
L 394.301768 97.174586 
L 394.870521 97.430152 
L 395.439274 97.259992 
L 396.008027 98.33425 
L 396.57678 99.159641 
L 397.145533 98.355779 
L 397.714286 98.674893 
L 397.714286 98.674893 
" clip-path="url(#pd1f08d9693)" style="fill: none; stroke-dasharray: 5.55,2.4; stroke-dashoffset: 0; stroke: #ff8c00; stroke-opacity: 0.7; stroke-width: 1.5"/>
   </g>
   <g id="line2d_17">
    <path d="M 57.6 301.788891 
L 58.168753 302.997177 
L 58.737506 305.333956 
L 59.306259 304.710605 
L 59.875012 301.758579 
L 60.443765 299.933655 
L 61.012518 292.893193 
L 61.581271 293.672624 
L 62.150024 293.548411 
L 62.718777 293.994537 
L 63.28753 295.259954 
L 63.856283 295.944314 
L 64.425036 297.596547 
L 64.993789 297.216196 
L 65.562542 298.849073 
L 66.131295 299.396076 
L 66.700048 298.433307 
L 67.268801 296.845736 
L 67.837554 294.585877 
L 68.406307 293.543651 
L 68.97506 292.094222 
L 69.543813 293.257057 
L 70.112566 292.772577 
L 70.681319 292.891639 
L 71.250072 294.466141 
L 72.956331 290.332722 
L 73.525084 293.257153 
L 74.093837 295.247525 
L 74.66259 294.183963 
L 75.231343 295.386128 
L 75.800096 294.664068 
L 76.368849 294.721054 
L 76.937602 295.227406 
L 77.506355 296.01419 
L 78.075108 295.763142 
L 78.64386 295.364097 
L 79.212613 297.772518 
L 79.781366 299.004534 
L 80.350119 298.02869 
L 80.918872 293.998314 
L 81.487625 293.763691 
L 82.056378 293.658881 
L 82.625131 292.533677 
L 84.33139 301.229136 
L 84.900143 300.41753 
L 85.468896 301.097233 
L 86.037649 304.379351 
L 86.606402 306.254802 
L 87.175155 303.721974 
L 87.743908 296.273119 
L 88.312661 291.248073 
L 88.881414 293.324106 
L 89.450167 292.678855 
L 90.01892 292.65626 
L 90.587673 291.233058 
L 91.156426 291.397192 
L 91.725179 292.192099 
L 92.293932 290.709331 
L 93.431438 292.042395 
L 94.568944 291.814692 
L 95.137697 288.328236 
L 95.70645 288.918482 
L 96.275203 286.466439 
L 96.843956 289.647007 
L 97.412709 291.417792 
L 97.981462 292.215588 
L 98.550215 291.958433 
L 99.118968 291.869621 
L 99.687721 291.372692 
L 100.256474 292.398149 
L 100.825227 289.779798 
L 101.39398 289.863237 
L 101.962733 292.58461 
L 102.531486 295.872444 
L 103.100239 296.520975 
L 103.668992 297.933819 
L 104.237745 297.915613 
L 104.806498 298.720995 
L 105.375251 296.910137 
L 105.944004 300.837932 
L 106.512757 303.009998 
L 107.08151 303.852096 
L 107.650263 303.986964 
L 108.219016 303.721967 
L 109.356522 300.053315 
L 109.925275 299.602945 
L 110.494028 299.734841 
L 111.062781 299.990552 
L 111.631534 299.699549 
L 112.200287 301.265192 
L 113.337793 303.269863 
L 113.906546 303.008402 
L 114.475299 302.045372 
L 115.044052 302.130483 
L 116.181558 299.237128 
L 116.750311 298.946586 
L 117.887817 299.288852 
L 118.45657 300.238126 
L 119.025323 299.751273 
L 119.594075 296.986946 
L 120.162828 295.539787 
L 120.731581 292.939057 
L 121.869087 290.540698 
L 122.43784 288.443742 
L 123.006593 285.276043 
L 124.144099 291.562799 
L 124.712852 293.117086 
L 125.281605 290.699392 
L 125.850358 289.032014 
L 126.419111 290.340866 
L 126.987864 289.2451 
L 127.556617 290.916303 
L 128.12537 290.219727 
L 128.694123 290.663804 
L 129.262876 289.931146 
L 130.400382 284.374834 
L 130.969135 284.456416 
L 131.537888 283.972734 
L 132.106641 282.430711 
L 132.675394 280.402956 
L 133.244147 279.625521 
L 133.8129 278.389501 
L 134.381653 276.809909 
L 134.950406 276.765786 
L 135.519159 277.174199 
L 136.087912 277.153558 
L 136.656665 278.096277 
L 137.225418 279.26044 
L 137.794171 280.127203 
L 138.362924 282.631513 
L 138.931677 287.128087 
L 139.50043 288.947556 
L 140.069183 289.263548 
L 140.637936 290.844983 
L 141.206689 293.145486 
L 141.775442 292.643879 
L 142.344195 292.550584 
L 142.912948 293.636947 
L 143.481701 289.517945 
L 144.050454 287.832195 
L 144.619207 284.33602 
L 145.18796 283.070906 
L 145.756713 283.603004 
L 146.325466 281.036493 
L 146.894219 281.529062 
L 147.462972 280.496968 
L 148.031725 280.143332 
L 148.600478 280.556072 
L 149.169231 279.929633 
L 149.737984 280.323403 
L 150.87549 285.148583 
L 151.444243 284.812817 
L 152.581749 283.558323 
L 153.150502 282.141896 
L 153.719255 281.637345 
L 154.288008 282.916401 
L 154.856761 282.155494 
L 155.425514 283.550888 
L 156.56302 283.422018 
L 157.700526 281.241498 
L 158.269279 279.067121 
L 158.838032 278.894836 
L 159.406785 279.180026 
L 159.975538 277.89945 
L 160.54429 277.421533 
L 161.681796 274.305915 
L 162.250549 274.611397 
L 162.819302 279.189725 
L 163.388055 278.088147 
L 163.956808 274.94741 
L 164.525561 273.707024 
L 165.094314 278.194814 
L 165.663067 275.721696 
L 166.23182 272.501461 
L 166.800573 271.522852 
L 167.369326 271.765494 
L 167.938079 273.109342 
L 168.506832 271.744687 
L 169.075585 273.319623 
L 170.781844 272.296759 
L 171.350597 275.367249 
L 171.91935 273.717224 
L 172.488103 273.487114 
L 173.056856 274.10838 
L 173.625609 274.221994 
L 174.194362 273.343256 
L 174.763115 269.47383 
L 175.331868 269.746137 
L 175.900621 267.019537 
L 176.469374 265.829072 
L 177.038127 265.530318 
L 177.60688 260.65296 
L 178.175633 264.117811 
L 179.313139 274.017182 
L 179.881892 275.523219 
L 180.450645 275.806607 
L 181.019398 274.75967 
L 182.156904 276.752318 
L 182.725657 277.229232 
L 183.29441 280.624978 
L 184.431916 282.244835 
L 185.000669 281.607975 
L 186.138175 286.455344 
L 186.706928 287.378178 
L 187.844434 294.004504 
L 188.413187 290.526722 
L 188.98194 285.979077 
L 189.550693 284.641281 
L 190.119446 282.477373 
L 190.688199 283.413936 
L 191.256952 283.199749 
L 191.825705 287.805094 
L 192.963211 288.583149 
L 193.531964 286.582048 
L 194.100717 286.489935 
L 194.66947 285.45923 
L 195.238223 283.260153 
L 195.806976 283.261384 
L 196.375729 284.654426 
L 196.944482 284.64514 
L 197.513235 285.09441 
L 198.081988 280.683112 
L 198.650741 281.336232 
L 199.219494 280.77561 
L 199.788247 282.106762 
L 200.357 282.34289 
L 200.925753 280.799044 
L 201.494505 278.751824 
L 202.063258 277.324688 
L 203.200764 275.635767 
L 203.769517 275.058768 
L 204.907023 272.582947 
L 205.475776 271.916353 
L 206.044529 272.3785 
L 206.613282 271.538761 
L 207.182035 273.572651 
L 207.750788 275.020436 
L 208.319541 273.104947 
L 208.888294 272.833107 
L 209.457047 267.323168 
L 210.0258 270.179533 
L 210.594553 266.794035 
L 211.163306 264.921783 
L 211.732059 264.529368 
L 212.300812 264.304802 
L 212.869565 261.353236 
L 213.438318 260.12521 
L 214.007071 259.234909 
L 214.575824 257.094758 
L 215.71333 258.692398 
L 216.282083 259.021307 
L 216.850836 259.710351 
L 217.419589 261.529559 
L 218.557095 256.393271 
L 219.125848 255.286624 
L 219.694601 253.519869 
L 220.263354 252.858476 
L 220.832107 250.749132 
L 221.40086 251.338965 
L 221.969613 249.109177 
L 222.538366 246.096154 
L 223.107119 245.992266 
L 223.675872 245.694027 
L 224.244625 245.740256 
L 224.813378 240.518183 
L 225.382131 238.972535 
L 225.950884 238.498958 
L 226.519637 239.540482 
L 227.08839 240.253875 
L 227.657143 238.561405 
L 228.225896 238.715614 
L 228.794649 240.77723 
L 229.363402 240.996968 
L 229.932155 240.176818 
L 230.500908 237.706445 
L 231.069661 238.45559 
L 231.638414 240.703791 
L 232.77592 246.935515 
L 233.913426 248.62489 
L 234.482179 249.036577 
L 235.050932 250.666483 
L 235.619685 247.399759 
L 236.757191 244.063303 
L 237.325944 234.666797 
L 237.894697 235.450464 
L 238.46345 235.856003 
L 239.032203 238.792602 
L 239.600956 239.43052 
L 240.169709 240.705483 
L 240.738462 241.527463 
L 241.307215 240.694183 
L 241.875968 235.697722 
L 242.44472 234.688078 
L 243.013473 234.234853 
L 243.582226 233.235568 
L 244.150979 233.627109 
L 244.719732 234.298132 
L 245.288485 234.604659 
L 245.857238 233.288454 
L 246.425991 235.234166 
L 246.994744 235.717112 
L 247.563497 235.303209 
L 248.13225 233.344848 
L 248.701003 234.121727 
L 249.269756 233.64491 
L 249.838509 231.61547 
L 250.407262 230.061905 
L 250.976015 229.582997 
L 251.544768 229.461039 
L 252.113521 229.012739 
L 253.251027 230.164851 
L 254.388533 230.804606 
L 254.957286 229.37707 
L 256.094792 221.92728 
L 256.663545 221.169729 
L 257.232298 221.255631 
L 257.801051 221.869173 
L 258.369804 220.877261 
L 258.938557 220.794455 
L 259.50731 221.172879 
L 260.076063 221.23272 
L 260.644816 218.058713 
L 261.213569 212.217341 
L 261.782322 210.83514 
L 262.351075 209.838496 
L 262.919828 209.133831 
L 263.488581 205.06698 
L 264.057334 203.708433 
L 264.626087 204.53762 
L 265.763593 205.239781 
L 266.332346 203.454015 
L 266.901099 203.082317 
L 267.469852 199.364988 
L 268.038605 199.343425 
L 268.607358 199.531179 
L 269.744864 199.330948 
L 270.313617 201.362891 
L 271.451123 204.44169 
L 272.019876 207.239053 
L 272.588629 208.90866 
L 273.157382 207.774342 
L 273.726135 204.56644 
L 274.294888 204.868585 
L 274.863641 203.847241 
L 275.432394 203.370954 
L 276.001147 201.945117 
L 276.5699 201.115833 
L 277.707406 200.967505 
L 278.844912 197.062202 
L 279.413665 195.718656 
L 279.982418 197.183698 
L 280.551171 197.337818 
L 281.119924 198.852707 
L 281.688677 196.988667 
L 282.25743 197.392217 
L 282.826183 199.057168 
L 283.394935 202.574665 
L 283.963688 202.666344 
L 284.532441 201.877305 
L 285.101194 201.687907 
L 285.669947 201.054968 
L 286.2387 201.703472 
L 286.807453 200.089131 
L 287.376206 199.019922 
L 287.944959 192.483736 
L 288.513712 192.124068 
L 289.082465 191.507396 
L 289.651218 190.183219 
L 290.219971 194.059098 
L 290.788724 186.425983 
L 291.357477 184.690194 
L 291.92623 183.765255 
L 292.494983 183.66656 
L 293.063736 181.837557 
L 293.632489 181.128388 
L 294.201242 184.78003 
L 294.769995 186.244797 
L 295.338748 183.850015 
L 295.907501 179.747637 
L 296.476254 180.946989 
L 297.045007 184.605874 
L 297.61376 182.836512 
L 298.182513 181.764353 
L 298.751266 185.051148 
L 299.320019 184.217153 
L 300.457525 179.082399 
L 301.026278 180.907123 
L 301.595031 181.6109 
L 302.163784 181.032485 
L 302.732537 181.770179 
L 303.30129 184.612436 
L 304.438796 178.153051 
L 305.007549 178.668359 
L 305.576302 175.006839 
L 306.145055 177.91944 
L 306.713808 176.93638 
L 307.282561 176.548636 
L 307.851314 176.678895 
L 308.420067 174.74119 
L 308.98882 175.67985 
L 310.126326 169.96307 
L 310.695079 170.63615 
L 311.263832 167.264182 
L 311.832585 165.397866 
L 312.401338 158.528534 
L 313.538844 156.088431 
L 314.107597 156.42234 
L 315.245103 154.023891 
L 315.813856 155.267559 
L 316.382609 155.880675 
L 316.951362 157.850845 
L 317.520115 157.56831 
L 318.088868 153.678228 
L 318.657621 154.05527 
L 319.226374 154.87154 
L 319.795127 153.847933 
L 320.36388 155.411657 
L 320.932633 154.536517 
L 321.501386 154.131687 
L 322.070139 153.995292 
L 322.638892 153.108004 
L 323.207645 155.388106 
L 323.776398 154.653474 
L 324.345151 154.965015 
L 324.913903 153.880811 
L 325.482656 152.206355 
L 326.051409 155.643824 
L 327.188915 152.455305 
L 328.326421 149.90143 
L 329.463927 147.860249 
L 330.03268 149.735954 
L 330.601433 151.155628 
L 331.170186 151.2668 
L 331.738939 148.311011 
L 332.307692 147.229862 
L 332.876445 148.830989 
L 333.445198 153.420557 
L 334.013951 153.631078 
L 334.582704 151.886368 
L 335.151457 151.464899 
L 335.72021 149.667385 
L 336.288963 149.930366 
L 336.857716 149.988501 
L 337.426469 149.786371 
L 337.995222 150.751781 
L 338.563975 150.897324 
L 339.132728 151.967544 
L 339.701481 148.109803 
L 340.270234 147.284227 
L 340.838987 146.962087 
L 341.40774 145.321843 
L 342.545246 147.478013 
L 343.113999 149.360659 
L 344.251505 143.91902 
L 345.957764 140.619425 
L 346.526517 138.942163 
L 347.09527 135.953358 
L 347.664023 136.677378 
L 348.232776 137.850166 
L 349.939035 124.201317 
L 350.507788 119.480851 
L 351.076541 122.04384 
L 351.645294 125.207426 
L 352.214047 123.859065 
L 353.351553 120.065567 
L 353.920306 124.348263 
L 354.489059 124.070404 
L 355.057812 122.711142 
L 355.626565 123.10161 
L 356.195318 120.923374 
L 356.764071 123.29704 
L 357.332824 122.977355 
L 357.901577 120.9873 
L 358.47033 120.060202 
L 359.039083 122.038055 
L 359.607836 121.770933 
L 360.176589 121.186527 
L 360.745342 117.163696 
L 361.314095 116.668933 
L 361.882848 115.866633 
L 362.451601 116.990303 
L 363.020354 119.519052 
L 363.589107 119.739554 
L 364.15786 120.115564 
L 364.726613 120.736322 
L 365.295366 113.462661 
L 365.864118 109.678566 
L 366.432871 107.421946 
L 367.001624 103.963574 
L 367.570377 101.787443 
L 368.13913 102.568937 
L 368.707883 101.978773 
L 369.276636 102.982488 
L 370.414142 100.549456 
L 370.982895 98.539317 
L 371.551648 98.420764 
L 372.120401 97.450629 
L 372.689154 97.273075 
L 373.257907 93.815645 
L 373.82666 91.992221 
L 374.395413 91.80228 
L 374.964166 91.73367 
L 375.532919 92.762786 
L 376.101672 91.998508 
L 376.670425 89.040023 
L 377.239178 87.338749 
L 378.376684 86.023967 
L 378.945437 86.210807 
L 379.51419 86.517822 
L 380.082943 86.206659 
L 380.651696 82.749271 
L 381.220449 80.49305 
L 381.789202 77.746427 
L 382.357955 77.539985 
L 382.926708 78.328839 
L 383.495461 80.80208 
L 384.064214 80.511153 
L 384.632967 79.782725 
L 385.20172 80.966174 
L 385.770473 81.416854 
L 386.339226 82.89978 
L 386.907979 82.650589 
L 387.476732 83.335121 
L 388.045485 82.684836 
L 388.614238 83.20165 
L 389.182991 84.711057 
L 389.751744 84.238449 
L 390.320497 85.38728 
L 390.88925 85.555851 
L 391.458003 85.881231 
L 392.026756 86.377527 
L 392.595509 85.200055 
L 393.164262 86.17709 
L 393.733015 86.342249 
L 394.301768 84.930341 
L 394.870521 84.953486 
L 395.439274 86.685471 
L 397.145533 84.478347 
L 397.714286 80.19283 
L 397.714286 80.19283 
" clip-path="url(#pd1f08d9693)" style="fill: none; stroke-dasharray: 5.55,2.4; stroke-dashoffset: 0; stroke: #dc143c; stroke-opacity: 0.7; stroke-width: 1.5"/>
   </g>
   <g id="line2d_18">
    <path d="M 57.6 299.68247 
L 58.168753 298.995758 
L 58.737506 299.42894 
L 59.306259 298.411806 
L 59.875012 297.637933 
L 60.443765 294.675603 
L 61.012518 294.154112 
L 62.150024 302.633596 
L 63.28753 306.995687 
L 63.856283 306.152028 
L 65.562542 302.345268 
L 66.131295 302.226049 
L 67.268801 299.244219 
L 67.837554 299.067793 
L 68.406307 299.17109 
L 68.97506 298.424248 
L 69.543813 296.543859 
L 70.112566 297.094473 
L 70.681319 295.472786 
L 71.818825 295.132714 
L 72.387578 296.985742 
L 72.956331 296.672316 
L 73.525084 298.497584 
L 74.093837 299.638835 
L 74.66259 299.73374 
L 75.231343 298.949825 
L 75.800096 301.052876 
L 76.368849 302.265557 
L 76.937602 299.968858 
L 77.506355 296.562389 
L 78.075108 297.543887 
L 78.64386 297.365116 
L 79.212613 295.853295 
L 79.781366 295.498861 
L 80.350119 296.495753 
L 80.918872 295.441456 
L 81.487625 295.586125 
L 82.056378 297.012319 
L 82.625131 297.488855 
L 83.193884 297.586931 
L 84.33139 293.525933 
L 84.900143 293.082825 
L 85.468896 291.744816 
L 86.037649 290.101463 
L 86.606402 289.135744 
L 87.175155 287.051994 
L 87.743908 287.949406 
L 88.312661 287.040878 
L 88.881414 285.329954 
L 89.450167 290.192049 
L 90.01892 294.063416 
L 91.156426 291.626312 
L 91.725179 290.454659 
L 92.293932 287.186531 
L 92.862685 285.227166 
L 93.431438 285.666883 
L 94.000191 287.075964 
L 94.568944 287.351106 
L 95.137697 289.534851 
L 95.70645 290.600202 
L 96.275203 293.231656 
L 96.843956 291.404896 
L 97.412709 292.374509 
L 97.981462 292.736735 
L 98.550215 290.76576 
L 99.687721 290.271761 
L 100.825227 288.670489 
L 101.39398 286.715175 
L 101.962733 286.89288 
L 102.531486 283.853996 
L 103.100239 284.067936 
L 103.668992 284.100194 
L 104.237745 285.189089 
L 104.806498 287.695422 
L 105.375251 288.651374 
L 105.944004 290.736067 
L 106.512757 286.874736 
L 107.08151 289.525435 
L 107.650263 290.189449 
L 108.219016 293.184348 
L 108.787769 290.93517 
L 109.356522 291.508695 
L 110.494028 294.789004 
L 111.062781 291.10643 
L 111.631534 285.455839 
L 112.200287 285.510067 
L 112.76904 284.870387 
L 113.906546 281.770665 
L 114.475299 282.401644 
L 115.044052 282.756119 
L 115.612805 281.709628 
L 116.181558 284.002262 
L 116.750311 287.064622 
L 117.319064 287.360522 
L 117.887817 285.781102 
L 118.45657 287.68128 
L 119.025323 288.8861 
L 119.594075 289.297333 
L 120.162828 292.45801 
L 120.731581 290.462115 
L 121.869087 279.699138 
L 122.43784 283.53557 
L 123.006593 283.528162 
L 123.575346 285.761967 
L 124.144099 286.92203 
L 124.712852 283.832529 
L 125.281605 286.620469 
L 125.850358 285.306623 
L 126.419111 284.693061 
L 126.987864 280.402791 
L 127.556617 278.026511 
L 128.12537 276.976376 
L 128.694123 277.330245 
L 129.262876 275.690627 
L 129.831629 278.003476 
L 130.400382 279.721932 
L 130.969135 280.470645 
L 131.537888 279.542184 
L 132.106641 279.289507 
L 132.675394 277.462045 
L 133.244147 276.612932 
L 133.8129 277.138763 
L 134.381653 276.795885 
L 134.950406 275.689375 
L 135.519159 276.56552 
L 136.087912 277.108863 
L 136.656665 280.09828 
L 137.225418 281.323177 
L 137.794171 282.157702 
L 138.362924 280.364851 
L 138.931677 279.398829 
L 139.50043 280.190166 
L 141.206689 280.837934 
L 141.775442 282.385164 
L 142.344195 283.464043 
L 142.912948 283.251665 
L 143.481701 283.461519 
L 144.050454 284.15987 
L 144.619207 283.919545 
L 145.18796 285.819063 
L 145.756713 291.078058 
L 146.325466 291.20311 
L 146.894219 293.211785 
L 147.462972 293.334279 
L 148.600478 295.024389 
L 149.169231 296.082181 
L 150.306737 300.459163 
L 151.444243 288.675228 
L 152.012996 288.792322 
L 152.581749 287.906053 
L 153.150502 287.625732 
L 154.288008 284.359351 
L 154.856761 286.418952 
L 155.425514 287.075221 
L 155.994267 286.016137 
L 156.56302 284.169657 
L 157.131773 283.589818 
L 157.700526 282.521792 
L 158.269279 283.633667 
L 158.838032 283.354914 
L 159.406785 281.876769 
L 159.975538 281.916022 
L 160.54429 280.24623 
L 161.113043 280.379873 
L 161.681796 279.92336 
L 162.250549 281.089132 
L 162.819302 280.436632 
L 163.388055 278.969423 
L 164.525561 278.268459 
L 165.094314 278.510021 
L 165.663067 274.545242 
L 166.23182 271.923672 
L 166.800573 271.947292 
L 167.369326 274.975377 
L 167.938079 274.075688 
L 168.506832 270.495751 
L 169.075585 272.160612 
L 169.644338 274.771404 
L 170.213091 272.227447 
L 170.781844 271.315708 
L 171.350597 273.572727 
L 171.91935 273.36559 
L 172.488103 272.117733 
L 173.056856 272.191695 
L 173.625609 270.482676 
L 174.194362 272.961131 
L 174.763115 272.285376 
L 175.331868 271.385322 
L 175.900621 272.204062 
L 176.469374 275.453763 
L 177.038127 274.563194 
L 177.60688 275.453178 
L 178.175633 274.398344 
L 178.744386 275.198767 
L 179.313139 274.919946 
L 179.881892 275.347852 
L 180.450645 276.687017 
L 181.019398 277.459975 
L 181.588151 277.869008 
L 182.156904 275.123754 
L 182.725657 273.665954 
L 183.29441 274.003034 
L 183.863163 273.998976 
L 184.431916 274.296774 
L 185.000669 274.170036 
L 185.569422 278.291673 
L 186.138175 281.275497 
L 186.706928 279.363454 
L 187.275681 277.991398 
L 187.844434 276.216651 
L 188.98194 273.958676 
L 189.550693 272.007765 
L 190.119446 266.505357 
L 190.688199 265.872054 
L 191.256952 266.052222 
L 191.825705 269.208166 
L 192.394458 269.044898 
L 192.963211 267.845891 
L 193.531964 267.231509 
L 194.100717 266.448138 
L 195.238223 266.40865 
L 195.806976 266.164412 
L 196.375729 265.602222 
L 196.944482 266.780637 
L 197.513235 269.85612 
L 198.081988 270.419974 
L 198.650741 271.187691 
L 199.219494 271.507589 
L 199.788247 269.574877 
L 200.357 271.702029 
L 200.925753 271.129577 
L 202.063258 267.401463 
L 202.632011 269.064178 
L 203.200764 268.426266 
L 203.769517 265.853325 
L 204.33827 266.694425 
L 204.907023 266.569614 
L 205.475776 266.091496 
L 206.044529 265.451927 
L 206.613282 265.293591 
L 207.182035 265.747015 
L 207.750788 266.840587 
L 208.319541 266.637618 
L 208.888294 264.8623 
L 209.457047 262.260993 
L 210.0258 261.734185 
L 210.594553 260.106865 
L 211.163306 257.487441 
L 212.300812 255.088539 
L 212.869565 254.294368 
L 213.438318 252.909292 
L 214.007071 248.160831 
L 214.575824 245.589616 
L 215.144577 244.590283 
L 215.71333 246.262118 
L 216.282083 245.880385 
L 216.850836 244.958239 
L 217.419589 242.862583 
L 217.988342 242.317128 
L 218.557095 242.249391 
L 219.125848 242.294602 
L 219.694601 238.075618 
L 220.263354 240.311438 
L 220.832107 240.200954 
L 221.40086 240.450261 
L 221.969613 239.784617 
L 222.538366 240.437495 
L 223.107119 242.035046 
L 223.675872 241.912793 
L 224.813378 241.127997 
L 225.382131 241.669098 
L 225.950884 243.914459 
L 227.08839 242.972751 
L 227.657143 241.579978 
L 228.225896 238.995577 
L 228.794649 238.651427 
L 229.363402 238.61641 
L 229.932155 235.085528 
L 230.500908 235.518682 
L 231.069661 231.381212 
L 231.638414 231.790637 
L 232.207167 230.56085 
L 232.77592 230.432874 
L 233.344673 231.055069 
L 233.913426 230.854274 
L 234.482179 230.242045 
L 235.050932 229.844678 
L 235.619685 230.319308 
L 236.188438 231.357881 
L 236.757191 231.137793 
L 237.325944 231.452498 
L 237.894697 233.95231 
L 238.46345 234.975566 
L 239.032203 237.3343 
L 239.600956 236.36393 
L 240.169709 231.035672 
L 240.738462 231.083785 
L 241.307215 233.322068 
L 241.875968 232.282469 
L 242.44472 231.69525 
L 243.013473 229.906286 
L 243.582226 232.338589 
L 244.150979 231.331572 
L 245.857238 230.821836 
L 246.425991 231.927224 
L 246.994744 230.056822 
L 247.563497 230.282283 
L 248.13225 228.68773 
L 248.701003 228.644171 
L 249.269756 231.593315 
L 249.838509 232.373165 
L 250.407262 228.270939 
L 250.976015 229.55851 
L 251.544768 232.130578 
L 252.113521 231.717205 
L 252.682274 230.556351 
L 253.251027 229.103765 
L 253.81978 226.894736 
L 254.388533 222.475665 
L 254.957286 221.429718 
L 255.526039 221.642248 
L 256.094792 223.189086 
L 256.663545 223.654423 
L 257.232298 225.513091 
L 258.369804 226.740712 
L 258.938557 229.840406 
L 259.50731 233.603304 
L 260.076063 234.961713 
L 261.213569 230.583699 
L 261.782322 229.592915 
L 262.351075 229.634088 
L 262.919828 224.283462 
L 263.488581 221.04705 
L 264.057334 219.127888 
L 264.626087 219.700656 
L 265.19484 218.844733 
L 265.763593 215.918431 
L 266.332346 215.889481 
L 266.901099 217.140618 
L 267.469852 215.314264 
L 268.038605 212.815676 
L 268.607358 213.247847 
L 269.176111 215.350939 
L 269.744864 218.175973 
L 270.313617 220.324062 
L 270.88237 218.678178 
L 271.451123 218.319321 
L 272.019876 219.362084 
L 273.157382 222.583412 
L 273.726135 221.504856 
L 274.294888 218.488243 
L 274.863641 220.111573 
L 275.432394 213.929937 
L 276.001147 217.801531 
L 277.138653 194.767992 
L 277.707406 193.13107 
L 278.276159 193.042472 
L 278.844912 193.233384 
L 279.413665 192.494136 
L 280.551171 195.145722 
L 281.119924 195.235297 
L 281.688677 196.393008 
L 282.25743 201.646294 
L 282.826183 201.853616 
L 283.394935 199.701717 
L 283.963688 199.893295 
L 284.532441 196.472142 
L 285.101194 195.044551 
L 285.669947 190.587499 
L 286.2387 190.189974 
L 286.807453 189.491149 
L 287.376206 189.242763 
L 287.944959 188.179552 
L 288.513712 187.52829 
L 289.082465 189.144288 
L 289.651218 184.787328 
L 290.219971 185.045941 
L 290.788724 185.92937 
L 291.357477 188.033156 
L 291.92623 187.606584 
L 292.494983 188.680388 
L 293.063736 188.810661 
L 293.632489 188.045234 
L 294.769995 189.305864 
L 295.338748 188.75968 
L 295.907501 185.889387 
L 296.476254 190.201508 
L 297.045007 189.696882 
L 297.61376 188.790233 
L 298.182513 189.860714 
L 298.751266 194.143204 
L 299.888772 187.46933 
L 300.457525 186.849824 
L 301.026278 185.587812 
L 302.163784 184.367737 
L 302.732537 182.146588 
L 303.30129 184.037412 
L 303.870043 177.379089 
L 304.438796 174.697293 
L 305.007549 174.834609 
L 305.576302 175.098539 
L 306.145055 174.749725 
L 307.282561 175.011063 
L 307.851314 170.925083 
L 308.420067 170.585217 
L 308.98882 169.356613 
L 309.557573 169.219792 
L 310.126326 169.449468 
L 310.695079 169.542881 
L 311.263832 170.183854 
L 311.832585 163.86019 
L 312.401338 163.055956 
L 312.970091 168.36228 
L 313.538844 168.638962 
L 314.107597 169.518127 
L 314.67635 166.031169 
L 315.245103 164.687981 
L 316.382609 160.163165 
L 316.951362 158.695048 
L 317.520115 159.634857 
L 318.088868 159.717513 
L 318.657621 158.601215 
L 319.226374 158.520025 
L 319.795127 156.768712 
L 320.36388 157.116721 
L 320.932633 155.966226 
L 321.501386 154.417792 
L 322.070139 155.721376 
L 322.638892 155.336953 
L 323.207645 156.36803 
L 323.776398 154.825353 
L 324.345151 154.106829 
L 324.913903 153.667112 
L 325.482656 153.739609 
L 326.051409 153.464357 
L 326.620162 150.86003 
L 327.188915 150.542443 
L 327.757668 152.33984 
L 328.895174 144.364569 
L 329.463927 144.413136 
L 330.03268 146.624429 
L 330.601433 147.394533 
L 331.170186 147.319877 
L 331.738939 149.378721 
L 332.307692 149.426765 
L 332.876445 143.447279 
L 333.445198 136.245317 
L 334.013951 130.842162 
L 334.582704 131.713094 
L 335.151457 134.097256 
L 335.72021 135.825947 
L 336.288963 135.953338 
L 336.857716 133.522204 
L 337.426469 132.525849 
L 337.995222 132.172695 
L 338.563975 129.383015 
L 340.270234 125.630579 
L 340.838987 132.828896 
L 341.40774 128.454169 
L 341.976493 127.982944 
L 342.545246 128.494592 
L 343.113999 127.659428 
L 343.682752 128.020437 
L 344.251505 127.673913 
L 344.820258 131.629702 
L 345.389011 127.8027 
L 345.957764 127.96332 
L 346.526517 128.004603 
L 347.09527 127.764671 
L 347.664023 127.034523 
L 348.232776 127.841968 
L 348.801529 126.882549 
L 349.370282 126.325449 
L 349.939035 126.953917 
L 350.507788 126.652982 
L 351.076541 123.763994 
L 351.645294 122.656763 
L 352.214047 121.806975 
L 352.7828 118.622858 
L 353.351553 116.279228 
L 353.920306 115.46313 
L 355.057812 112.317675 
L 355.626565 110.244215 
L 356.195318 108.715136 
L 356.764071 109.372671 
L 357.332824 111.073093 
L 357.901577 111.699243 
L 358.47033 111.489884 
L 359.039083 112.590196 
L 359.607836 109.87954 
L 360.176589 110.547592 
L 360.745342 110.362245 
L 361.314095 109.197841 
L 361.882848 106.700767 
L 362.451601 106.220772 
L 363.020354 107.330589 
L 363.589107 108.034188 
L 364.15786 108.389591 
L 364.726613 106.832732 
L 365.295366 106.850966 
L 365.864118 106.111298 
L 366.432871 108.847824 
L 367.001624 100.982687 
L 367.570377 104.927698 
L 368.13913 107.905779 
L 368.707883 115.892206 
L 369.276636 117.606322 
L 370.414142 114.619794 
L 370.982895 112.869259 
L 371.551648 112.389986 
L 372.120401 113.044962 
L 372.689154 111.565936 
L 373.257907 106.834788 
L 373.82666 97.575365 
L 374.395413 96.990436 
L 374.964166 97.193941 
L 375.532919 98.079138 
L 376.101672 98.146627 
L 376.670425 98.513668 
L 377.239178 98.018238 
L 377.807931 99.068938 
L 378.376684 99.744728 
L 378.945437 99.286571 
L 379.51419 96.99382 
L 380.082943 97.402089 
L 380.651696 96.11817 
L 381.220449 95.60646 
L 381.789202 94.491414 
L 382.357955 92.475841 
L 382.926708 93.66264 
L 383.495461 90.295198 
L 384.064214 89.377433 
L 384.632967 91.263036 
L 385.20172 92.033229 
L 385.770473 92.057447 
L 386.339226 89.681325 
L 386.907979 90.109431 
L 387.476732 90.120856 
L 388.045485 89.18377 
L 388.614238 91.220412 
L 389.182991 92.306961 
L 389.751744 94.277337 
L 390.320497 95.531432 
L 390.88925 93.639391 
L 391.458003 93.206828 
L 392.026756 90.541561 
L 393.164262 81.571558 
L 394.301768 81.975247 
L 394.870521 81.615077 
L 395.439274 81.025319 
L 396.008027 81.016997 
L 396.57678 80.149408 
L 397.145533 77.292163 
L 397.714286 77.255145 
L 397.714286 77.255145 
" clip-path="url(#pd1f08d9693)" style="fill: none; stroke-dasharray: 5.55,2.4; stroke-dashoffset: 0; stroke: #32cd32; stroke-opacity: 0.7; stroke-width: 1.5"/>
   </g>
   <g id="patch_3">
    <path d="M 57.6 307.584 
L 57.6 41.472 
" style="fill: none; stroke: #000000; stroke-width: 0.8; stroke-linejoin: miter; stroke-linecap: square"/>
   </g>
   <g id="patch_4">
    <path d="M 414.72 307.584 
L 414.72 41.472 
" style="fill: none; stroke: #000000; stroke-width: 0.8; stroke-linejoin: miter; stroke-linecap: square"/>
   </g>
   <g id="patch_5">
    <path d="M 57.6 307.584 
L 414.72 307.584 
" style="fill: none; stroke: #000000; stroke-width: 0.8; stroke-linejoin: miter; stroke-linecap: square"/>
   </g>
   <g id="patch_6">
    <path d="M 57.6 41.472 
L 414.72 41.472 
" style="fill: none; stroke: #000000; stroke-width: 0.8; stroke-linejoin: miter; stroke-linecap: square"/>
   </g>
   <g id="text_16">
    <!-- True Movement vs. Actual Movement Along X-Axis -->
    <g transform="translate(85.69125 35.472) scale(0.12 -0.12)">
     <defs>
      <path id="DejaVuSans-75" d="M 544 1381 
L 544 3500 
L 1119 3500 
L 1119 1403 
Q 1119 906 1312 657 
Q 1506 409 1894 409 
Q 2359 409 2629 706 
Q 2900 1003 2900 1516 
L 2900 3500 
L 3475 3500 
L 3475 0 
L 2900 0 
L 2900 538 
Q 2691 219 2414 64 
Q 2138 -91 1772 -91 
Q 1169 -91 856 284 
Q 544 659 544 1381 
z
M 1991 3584 
L 1991 3584 
z
" transform="scale(0.015625)"/>
      <path id="DejaVuSans-4d" d="M 628 4666 
L 1569 4666 
L 2759 1491 
L 3956 4666 
L 4897 4666 
L 4897 0 
L 4281 0 
L 4281 4097 
L 3078 897 
L 2444 897 
L 1241 4097 
L 1241 0 
L 628 0 
L 628 4666 
z
" transform="scale(0.015625)"/>
      <path id="DejaVuSans-76" d="M 191 3500 
L 800 3500 
L 1894 563 
L 2988 3500 
L 3597 3500 
L 2284 0 
L 1503 0 
L 191 3500 
z
" transform="scale(0.015625)"/>
      <path id="DejaVuSans-2e" d="M 684 794 
L 1344 794 
L 1344 0 
L 684 0 
L 684 794 
z
" transform="scale(0.015625)"/>
      <path id="DejaVuSans-41" d="M 2188 4044 
L 1331 1722 
L 3047 1722 
L 2188 4044 
z
M 1831 4666 
L 2547 4666 
L 4325 0 
L 3669 0 
L 3244 1197 
L 1141 1197 
L 716 0 
L 50 0 
L 1831 4666 
z
" transform="scale(0.015625)"/>
      <path id="DejaVuSans-6c" d="M 603 4863 
L 1178 4863 
L 1178 0 
L 603 0 
L 603 4863 
z
" transform="scale(0.015625)"/>
      <path id="DejaVuSans-67" d="M 2906 1791 
Q 2906 2416 2648 2759 
Q 2391 3103 1925 3103 
Q 1463 3103 1205 2759 
Q 947 2416 947 1791 
Q 947 1169 1205 825 
Q 1463 481 1925 481 
Q 2391 481 2648 825 
Q 2906 1169 2906 1791 
z
M 3481 434 
Q 3481 -459 3084 -895 
Q 2688 -1331 1869 -1331 
Q 1566 -1331 1297 -1286 
Q 1028 -1241 775 -1147 
L 775 -588 
Q 1028 -725 1275 -790 
Q 1522 -856 1778 -856 
Q 2344 -856 2625 -561 
Q 2906 -266 2906 331 
L 2906 616 
Q 2728 306 2450 153 
Q 2172 0 1784 0 
Q 1141 0 747 490 
Q 353 981 353 1791 
Q 353 2603 747 3093 
Q 1141 3584 1784 3584 
Q 2172 3584 2450 3431 
Q 2728 3278 2906 2969 
L 2906 3500 
L 3481 3500 
L 3481 434 
z
" transform="scale(0.015625)"/>
      <path id="DejaVuSans-78" d="M 3513 3500 
L 2247 1797 
L 3578 0 
L 2900 0 
L 1881 1375 
L 863 0 
L 184 0 
L 1544 1831 
L 300 3500 
L 978 3500 
L 1906 2253 
L 2834 3500 
L 3513 3500 
z
" transform="scale(0.015625)"/>
     </defs>
     <use xlink:href="#DejaVuSans-54"/>
     <use xlink:href="#DejaVuSans-72" x="46.333984"/>
     <use xlink:href="#DejaVuSans-75" x="87.447266"/>
     <use xlink:href="#DejaVuSans-65" x="150.826172"/>
     <use xlink:href="#DejaVuSans-20" x="212.349609"/>
     <use xlink:href="#DejaVuSans-4d" x="244.136719"/>
     <use xlink:href="#DejaVuSans-6f" x="330.416016"/>
     <use xlink:href="#DejaVuSans-76" x="391.597656"/>
     <use xlink:href="#DejaVuSans-65" x="450.777344"/>
     <use xlink:href="#DejaVuSans-6d" x="512.300781"/>
     <use xlink:href="#DejaVuSans-65" x="609.712891"/>
     <use xlink:href="#DejaVuSans-6e" x="671.236328"/>
     <use xlink:href="#DejaVuSans-74" x="734.615234"/>
     <use xlink:href="#DejaVuSans-20" x="773.824219"/>
     <use xlink:href="#DejaVuSans-76" x="805.611328"/>
     <use xlink:href="#DejaVuSans-73" x="864.791016"/>
     <use xlink:href="#DejaVuSans-2e" x="916.890625"/>
     <use xlink:href="#DejaVuSans-20" x="948.677734"/>
     <use xlink:href="#DejaVuSans-41" x="980.464844"/>
     <use xlink:href="#DejaVuSans-63" x="1047.123047"/>
     <use xlink:href="#DejaVuSans-74" x="1102.103516"/>
     <use xlink:href="#DejaVuSans-75" x="1141.3125"/>
     <use xlink:href="#DejaVuSans-61" x="1204.691406"/>
     <use xlink:href="#DejaVuSans-6c" x="1265.970703"/>
     <use xlink:href="#DejaVuSans-20" x="1293.753906"/>
     <use xlink:href="#DejaVuSans-4d" x="1325.541016"/>
     <use xlink:href="#DejaVuSans-6f" x="1411.820312"/>
     <use xlink:href="#DejaVuSans-76" x="1473.001953"/>
     <use xlink:href="#DejaVuSans-65" x="1532.181641"/>
     <use xlink:href="#DejaVuSans-6d" x="1593.705078"/>
     <use xlink:href="#DejaVuSans-65" x="1691.117188"/>
     <use xlink:href="#DejaVuSans-6e" x="1752.640625"/>
     <use xlink:href="#DejaVuSans-74" x="1816.019531"/>
     <use xlink:href="#DejaVuSans-20" x="1855.228516"/>
     <use xlink:href="#DejaVuSans-41" x="1887.015625"/>
     <use xlink:href="#DejaVuSans-6c" x="1955.423828"/>
     <use xlink:href="#DejaVuSans-6f" x="1983.207031"/>
     <use xlink:href="#DejaVuSans-6e" x="2044.388672"/>
     <use xlink:href="#DejaVuSans-67" x="2107.767578"/>
     <use xlink:href="#DejaVuSans-20" x="2171.244141"/>
     <use xlink:href="#DejaVuSans-58" x="2203.03125"/>
     <use xlink:href="#DejaVuSans-2d" x="2266.537109"/>
     <use xlink:href="#DejaVuSans-41" x="2300.371094"/>
     <use xlink:href="#DejaVuSans-78" x="2368.779297"/>
     <use xlink:href="#DejaVuSans-69" x="2427.958984"/>
     <use xlink:href="#DejaVuSans-73" x="2455.742188"/>
    </g>
   </g>
   <g id="legend_1">
    <g id="patch_7">
     <path d="M 64.6 122.862625 
L 206.607812 122.862625 
Q 208.607812 122.862625 208.607812 120.862625 
L 208.607812 48.472 
Q 208.607812 46.472 206.607812 46.472 
L 64.6 46.472 
Q 62.6 46.472 62.6 48.472 
L 62.6 120.862625 
Q 62.6 122.862625 64.6 122.862625 
z
" style="fill: #ffffff; opacity: 0.8; stroke: #cccccc; stroke-linejoin: miter"/>
    </g>
    <g id="line2d_19">
     <path d="M 66.6 54.570438 
L 76.6 54.570438 
L 86.6 54.570438 
" style="fill: none; stroke: #000000; stroke-width: 2; stroke-linecap: square"/>
    </g>
    <g id="text_17">
     <!-- Ground Truth -->
     <g transform="translate(94.6 58.070438) scale(0.1 -0.1)">
      <defs>
       <path id="DejaVuSans-47" d="M 3809 666 
L 3809 1919 
L 2778 1919 
L 2778 2438 
L 4434 2438 
L 4434 434 
Q 4069 175 3628 42 
Q 3188 -91 2688 -91 
Q 1594 -91 976 548 
Q 359 1188 359 2328 
Q 359 3472 976 4111 
Q 1594 4750 2688 4750 
Q 3144 4750 3555 4637 
Q 3966 4525 4313 4306 
L 4313 3634 
Q 3963 3931 3569 4081 
Q 3175 4231 2741 4231 
Q 1884 4231 1454 3753 
Q 1025 3275 1025 2328 
Q 1025 1384 1454 906 
Q 1884 428 2741 428 
Q 3075 428 3337 486 
Q 3600 544 3809 666 
z
" transform="scale(0.015625)"/>
       <path id="DejaVuSans-68" d="M 3513 2113 
L 3513 0 
L 2938 0 
L 2938 2094 
Q 2938 2591 2744 2837 
Q 2550 3084 2163 3084 
Q 1697 3084 1428 2787 
Q 1159 2491 1159 1978 
L 1159 0 
L 581 0 
L 581 4863 
L 1159 4863 
L 1159 2956 
Q 1366 3272 1645 3428 
Q 1925 3584 2291 3584 
Q 2894 3584 3203 3211 
Q 3513 2838 3513 2113 
z
" transform="scale(0.015625)"/>
      </defs>
      <use xlink:href="#DejaVuSans-47"/>
      <use xlink:href="#DejaVuSans-72" x="77.490234"/>
      <use xlink:href="#DejaVuSans-6f" x="116.353516"/>
      <use xlink:href="#DejaVuSans-75" x="177.535156"/>
      <use xlink:href="#DejaVuSans-6e" x="240.914062"/>
      <use xlink:href="#DejaVuSans-64" x="304.292969"/>
      <use xlink:href="#DejaVuSans-20" x="367.769531"/>
      <use xlink:href="#DejaVuSans-54" x="399.556641"/>
      <use xlink:href="#DejaVuSans-72" x="445.890625"/>
      <use xlink:href="#DejaVuSans-75" x="487.003906"/>
      <use xlink:href="#DejaVuSans-74" x="550.382812"/>
      <use xlink:href="#DejaVuSans-68" x="589.591797"/>
     </g>
    </g>
    <g id="line2d_20">
     <path d="M 66.6 69.248563 
L 76.6 69.248563 
L 86.6 69.248563 
" style="fill: none; stroke-dasharray: 5.55,2.4; stroke-dashoffset: 0; stroke: #4169e1; stroke-opacity: 0.7; stroke-width: 1.5"/>
    </g>
    <g id="text_18">
     <!-- Particle Count = 500 -->
     <g transform="translate(94.6 72.748563) scale(0.1 -0.1)">
      <defs>
       <path id="DejaVuSans-50" d="M 1259 4147 
L 1259 2394 
L 2053 2394 
Q 2494 2394 2734 2622 
Q 2975 2850 2975 3272 
Q 2975 3691 2734 3919 
Q 2494 4147 2053 4147 
L 1259 4147 
z
M 628 4666 
L 2053 4666 
Q 2838 4666 3239 4311 
Q 3641 3956 3641 3272 
Q 3641 2581 3239 2228 
Q 2838 1875 2053 1875 
L 1259 1875 
L 1259 0 
L 628 0 
L 628 4666 
z
" transform="scale(0.015625)"/>
       <path id="DejaVuSans-43" d="M 4122 4306 
L 4122 3641 
Q 3803 3938 3442 4084 
Q 3081 4231 2675 4231 
Q 1875 4231 1450 3742 
Q 1025 3253 1025 2328 
Q 1025 1406 1450 917 
Q 1875 428 2675 428 
Q 3081 428 3442 575 
Q 3803 722 4122 1019 
L 4122 359 
Q 3791 134 3420 21 
Q 3050 -91 2638 -91 
Q 1578 -91 968 557 
Q 359 1206 359 2328 
Q 359 3453 968 4101 
Q 1578 4750 2638 4750 
Q 3056 4750 3426 4639 
Q 3797 4528 4122 4306 
z
" transform="scale(0.015625)"/>
       <path id="DejaVuSans-3d" d="M 678 2906 
L 4684 2906 
L 4684 2381 
L 678 2381 
L 678 2906 
z
M 678 1631 
L 4684 1631 
L 4684 1100 
L 678 1100 
L 678 1631 
z
" transform="scale(0.015625)"/>
      </defs>
      <use xlink:href="#DejaVuSans-50"/>
      <use xlink:href="#DejaVuSans-61" x="55.802734"/>
      <use xlink:href="#DejaVuSans-72" x="117.082031"/>
      <use xlink:href="#DejaVuSans-74" x="158.195312"/>
      <use xlink:href="#DejaVuSans-69" x="197.404297"/>
      <use xlink:href="#DejaVuSans-63" x="225.1875"/>
      <use xlink:href="#DejaVuSans-6c" x="280.167969"/>
      <use xlink:href="#DejaVuSans-65" x="307.951172"/>
      <use xlink:href="#DejaVuSans-20" x="369.474609"/>
      <use xlink:href="#DejaVuSans-43" x="401.261719"/>
      <use xlink:href="#DejaVuSans-6f" x="471.085938"/>
      <use xlink:href="#DejaVuSans-75" x="532.267578"/>
      <use xlink:href="#DejaVuSans-6e" x="595.646484"/>
      <use xlink:href="#DejaVuSans-74" x="659.025391"/>
      <use xlink:href="#DejaVuSans-20" x="698.234375"/>
      <use xlink:href="#DejaVuSans-3d" x="730.021484"/>
      <use xlink:href="#DejaVuSans-20" x="813.810547"/>
      <use xlink:href="#DejaVuSans-35" x="845.597656"/>
      <use xlink:href="#DejaVuSans-30" x="909.220703"/>
      <use xlink:href="#DejaVuSans-30" x="972.84375"/>
     </g>
    </g>
    <g id="line2d_21">
     <path d="M 66.6 83.926688 
L 76.6 83.926688 
L 86.6 83.926688 
" style="fill: none; stroke-dasharray: 5.55,2.4; stroke-dashoffset: 0; stroke: #ff8c00; stroke-opacity: 0.7; stroke-width: 1.5"/>
    </g>
    <g id="text_19">
     <!-- Particle Count = 1000 -->
     <g transform="translate(94.6 87.426688) scale(0.1 -0.1)">
      <use xlink:href="#DejaVuSans-50"/>
      <use xlink:href="#DejaVuSans-61" x="55.802734"/>
      <use xlink:href="#DejaVuSans-72" x="117.082031"/>
      <use xlink:href="#DejaVuSans-74" x="158.195312"/>
      <use xlink:href="#DejaVuSans-69" x="197.404297"/>
      <use xlink:href="#DejaVuSans-63" x="225.1875"/>
      <use xlink:href="#DejaVuSans-6c" x="280.167969"/>
      <use xlink:href="#DejaVuSans-65" x="307.951172"/>
      <use xlink:href="#DejaVuSans-20" x="369.474609"/>
      <use xlink:href="#DejaVuSans-43" x="401.261719"/>
      <use xlink:href="#DejaVuSans-6f" x="471.085938"/>
      <use xlink:href="#DejaVuSans-75" x="532.267578"/>
      <use xlink:href="#DejaVuSans-6e" x="595.646484"/>
      <use xlink:href="#DejaVuSans-74" x="659.025391"/>
      <use xlink:href="#DejaVuSans-20" x="698.234375"/>
      <use xlink:href="#DejaVuSans-3d" x="730.021484"/>
      <use xlink:href="#DejaVuSans-20" x="813.810547"/>
      <use xlink:href="#DejaVuSans-31" x="845.597656"/>
      <use xlink:href="#DejaVuSans-30" x="909.220703"/>
      <use xlink:href="#DejaVuSans-30" x="972.84375"/>
      <use xlink:href="#DejaVuSans-30" x="1036.466797"/>
     </g>
    </g>
    <g id="line2d_22">
     <path d="M 66.6 98.604813 
L 76.6 98.604813 
L 86.6 98.604813 
" style="fill: none; stroke-dasharray: 5.55,2.4; stroke-dashoffset: 0; stroke: #dc143c; stroke-opacity: 0.7; stroke-width: 1.5"/>
    </g>
    <g id="text_20">
     <!-- Particle Count = 2000 -->
     <g transform="translate(94.6 102.104813) scale(0.1 -0.1)">
      <use xlink:href="#DejaVuSans-50"/>
      <use xlink:href="#DejaVuSans-61" x="55.802734"/>
      <use xlink:href="#DejaVuSans-72" x="117.082031"/>
      <use xlink:href="#DejaVuSans-74" x="158.195312"/>
      <use xlink:href="#DejaVuSans-69" x="197.404297"/>
      <use xlink:href="#DejaVuSans-63" x="225.1875"/>
      <use xlink:href="#DejaVuSans-6c" x="280.167969"/>
      <use xlink:href="#DejaVuSans-65" x="307.951172"/>
      <use xlink:href="#DejaVuSans-20" x="369.474609"/>
      <use xlink:href="#DejaVuSans-43" x="401.261719"/>
      <use xlink:href="#DejaVuSans-6f" x="471.085938"/>
      <use xlink:href="#DejaVuSans-75" x="532.267578"/>
      <use xlink:href="#DejaVuSans-6e" x="595.646484"/>
      <use xlink:href="#DejaVuSans-74" x="659.025391"/>
      <use xlink:href="#DejaVuSans-20" x="698.234375"/>
      <use xlink:href="#DejaVuSans-3d" x="730.021484"/>
      <use xlink:href="#DejaVuSans-20" x="813.810547"/>
      <use xlink:href="#DejaVuSans-32" x="845.597656"/>
      <use xlink:href="#DejaVuSans-30" x="909.220703"/>
      <use xlink:href="#DejaVuSans-30" x="972.84375"/>
      <use xlink:href="#DejaVuSans-30" x="1036.466797"/>
     </g>
    </g>
    <g id="line2d_23">
     <path d="M 66.6 113.282938 
L 76.6 113.282938 
L 86.6 113.282938 
" style="fill: none; stroke-dasharray: 5.55,2.4; stroke-dashoffset: 0; stroke: #32cd32; stroke-opacity: 0.7; stroke-width: 1.5"/>
    </g>
    <g id="text_21">
     <!-- Particle Count = 3000 -->
     <g transform="translate(94.6 116.782938) scale(0.1 -0.1)">
      <use xlink:href="#DejaVuSans-50"/>
      <use xlink:href="#DejaVuSans-61" x="55.802734"/>
      <use xlink:href="#DejaVuSans-72" x="117.082031"/>
      <use xlink:href="#DejaVuSans-74" x="158.195312"/>
      <use xlink:href="#DejaVuSans-69" x="197.404297"/>
      <use xlink:href="#DejaVuSans-63" x="225.1875"/>
      <use xlink:href="#DejaVuSans-6c" x="280.167969"/>
      <use xlink:href="#DejaVuSans-65" x="307.951172"/>
      <use xlink:href="#DejaVuSans-20" x="369.474609"/>
      <use xlink:href="#DejaVuSans-43" x="401.261719"/>
      <use xlink:href="#DejaVuSans-6f" x="471.085938"/>
      <use xlink:href="#DejaVuSans-75" x="532.267578"/>
      <use xlink:href="#DejaVuSans-6e" x="595.646484"/>
      <use xlink:href="#DejaVuSans-74" x="659.025391"/>
      <use xlink:href="#DejaVuSans-20" x="698.234375"/>
      <use xlink:href="#DejaVuSans-3d" x="730.021484"/>
      <use xlink:href="#DejaVuSans-20" x="813.810547"/>
      <use xlink:href="#DejaVuSans-33" x="845.597656"/>
      <use xlink:href="#DejaVuSans-30" x="909.220703"/>
      <use xlink:href="#DejaVuSans-30" x="972.84375"/>
      <use xlink:href="#DejaVuSans-30" x="1036.466797"/>
     </g>
    </g>
   </g>
  </g>
 </g>
 <defs>
  <clipPath id="pd1f08d9693">
   <rect x="57.6" y="41.472" width="357.12" height="266.112"/>
  </clipPath>
 </defs>
</svg>
