<?xml version="1.0" encoding="utf-8" standalone="no"?>
<!DOCTYPE svg PUBLIC "-//W3C//DTD SVG 1.1//EN"
  "http://www.w3.org/Graphics/SVG/1.1/DTD/svg11.dtd">
<svg xmlns:xlink="http://www.w3.org/1999/xlink" width="460.8pt" height="345.6pt" viewBox="0 0 460.8 345.6" xmlns="http://www.w3.org/2000/svg" version="1.1">
 <metadata>
  <rdf:RDF xmlns:dc="http://purl.org/dc/elements/1.1/" xmlns:cc="http://creativecommons.org/ns#" xmlns:rdf="http://www.w3.org/1999/02/22-rdf-syntax-ns#">
   <cc:Work>
    <dc:type rdf:resource="http://purl.org/dc/dcmitype/StillImage"/>
    <dc:date>2023-06-11T20:34:17.751952</dc:date>
    <dc:format>image/svg+xml</dc:format>
    <dc:creator>
     <cc:Agent>
      <dc:title>Matplotlib v3.6.1, https://matplotlib.org/</dc:title>
     </cc:Agent>
    </dc:creator>
   </cc:Work>
  </rdf:RDF>
 </metadata>
 <defs>
  <style type="text/css">*{stroke-linejoin: round; stroke-linecap: butt}</style>
 </defs>
 <g id="figure_1">
  <g id="patch_1">
   <path d="M 0 345.6 
L 460.8 345.6 
L 460.8 0 
L 0 0 
z
" style="fill: #ffffff"/>
  </g>
  <g id="axes_1">
   <g id="patch_2">
    <path d="M 57.6 307.584 
L 414.72 307.584 
L 414.72 41.472 
L 57.6 41.472 
z
" style="fill: #ffffff"/>
   </g>
   <g id="matplotlib.axis_1">
    <g id="xtick_1">
     <g id="line2d_1">
      <defs>
       <path id="m51fbf59790" d="M 0 0 
L 0 3.5 
" style="stroke: #000000; stroke-width: 0.8"/>
      </defs>
      <g>
       <use xlink:href="#m51fbf59790" x="57.6" y="307.584" style="stroke: #000000; stroke-width: 0.8"/>
      </g>
     </g>
     <g id="text_1">
      <!-- 0 -->
      <g transform="translate(54.41875 322.182437) scale(0.1 -0.1)">
       <defs>
        <path id="DejaVuSans-30" d="M 2034 4250 
Q 1547 4250 1301 3770 
Q 1056 3291 1056 2328 
Q 1056 1369 1301 889 
Q 1547 409 2034 409 
Q 2525 409 2770 889 
Q 3016 1369 3016 2328 
Q 3016 3291 2770 3770 
Q 2525 4250 2034 4250 
z
M 2034 4750 
Q 2819 4750 3233 4129 
Q 3647 3509 3647 2328 
Q 3647 1150 3233 529 
Q 2819 -91 2034 -91 
Q 1250 -91 836 529 
Q 422 1150 422 2328 
Q 422 3509 836 4129 
Q 1250 4750 2034 4750 
z
" transform="scale(0.015625)"/>
       </defs>
       <use xlink:href="#DejaVuSans-30"/>
      </g>
     </g>
    </g>
    <g id="xtick_2">
     <g id="line2d_2">
      <g>
       <use xlink:href="#m51fbf59790" x="133.180952" y="307.584" style="stroke: #000000; stroke-width: 0.8"/>
      </g>
     </g>
     <g id="text_2">
      <!-- 2 -->
      <g transform="translate(129.999702 322.182437) scale(0.1 -0.1)">
       <defs>
        <path id="DejaVuSans-32" d="M 1228 531 
L 3431 531 
L 3431 0 
L 469 0 
L 469 531 
Q 828 903 1448 1529 
Q 2069 2156 2228 2338 
Q 2531 2678 2651 2914 
Q 2772 3150 2772 3378 
Q 2772 3750 2511 3984 
Q 2250 4219 1831 4219 
Q 1534 4219 1204 4116 
Q 875 4013 500 3803 
L 500 4441 
Q 881 4594 1212 4672 
Q 1544 4750 1819 4750 
Q 2544 4750 2975 4387 
Q 3406 4025 3406 3419 
Q 3406 3131 3298 2873 
Q 3191 2616 2906 2266 
Q 2828 2175 2409 1742 
Q 1991 1309 1228 531 
z
" transform="scale(0.015625)"/>
       </defs>
       <use xlink:href="#DejaVuSans-32"/>
      </g>
     </g>
    </g>
    <g id="xtick_3">
     <g id="line2d_3">
      <g>
       <use xlink:href="#m51fbf59790" x="208.761905" y="307.584" style="stroke: #000000; stroke-width: 0.8"/>
      </g>
     </g>
     <g id="text_3">
      <!-- 4 -->
      <g transform="translate(205.580655 322.182437) scale(0.1 -0.1)">
       <defs>
        <path id="DejaVuSans-34" d="M 2419 4116 
L 825 1625 
L 2419 1625 
L 2419 4116 
z
M 2253 4666 
L 3047 4666 
L 3047 1625 
L 3713 1625 
L 3713 1100 
L 3047 1100 
L 3047 0 
L 2419 0 
L 2419 1100 
L 313 1100 
L 313 1709 
L 2253 4666 
z
" transform="scale(0.015625)"/>
       </defs>
       <use xlink:href="#DejaVuSans-34"/>
      </g>
     </g>
    </g>
    <g id="xtick_4">
     <g id="line2d_4">
      <g>
       <use xlink:href="#m51fbf59790" x="284.342857" y="307.584" style="stroke: #000000; stroke-width: 0.8"/>
      </g>
     </g>
     <g id="text_4">
      <!-- 6 -->
      <g transform="translate(281.161607 322.182437) scale(0.1 -0.1)">
       <defs>
        <path id="DejaVuSans-36" d="M 2113 2584 
Q 1688 2584 1439 2293 
Q 1191 2003 1191 1497 
Q 1191 994 1439 701 
Q 1688 409 2113 409 
Q 2538 409 2786 701 
Q 3034 994 3034 1497 
Q 3034 2003 2786 2293 
Q 2538 2584 2113 2584 
z
M 3366 4563 
L 3366 3988 
Q 3128 4100 2886 4159 
Q 2644 4219 2406 4219 
Q 1781 4219 1451 3797 
Q 1122 3375 1075 2522 
Q 1259 2794 1537 2939 
Q 1816 3084 2150 3084 
Q 2853 3084 3261 2657 
Q 3669 2231 3669 1497 
Q 3669 778 3244 343 
Q 2819 -91 2113 -91 
Q 1303 -91 875 529 
Q 447 1150 447 2328 
Q 447 3434 972 4092 
Q 1497 4750 2381 4750 
Q 2619 4750 2861 4703 
Q 3103 4656 3366 4563 
z
" transform="scale(0.015625)"/>
       </defs>
       <use xlink:href="#DejaVuSans-36"/>
      </g>
     </g>
    </g>
    <g id="xtick_5">
     <g id="line2d_5">
      <g>
       <use xlink:href="#m51fbf59790" x="359.92381" y="307.584" style="stroke: #000000; stroke-width: 0.8"/>
      </g>
     </g>
     <g id="text_5">
      <!-- 8 -->
      <g transform="translate(356.74256 322.182437) scale(0.1 -0.1)">
       <defs>
        <path id="DejaVuSans-38" d="M 2034 2216 
Q 1584 2216 1326 1975 
Q 1069 1734 1069 1313 
Q 1069 891 1326 650 
Q 1584 409 2034 409 
Q 2484 409 2743 651 
Q 3003 894 3003 1313 
Q 3003 1734 2745 1975 
Q 2488 2216 2034 2216 
z
M 1403 2484 
Q 997 2584 770 2862 
Q 544 3141 544 3541 
Q 544 4100 942 4425 
Q 1341 4750 2034 4750 
Q 2731 4750 3128 4425 
Q 3525 4100 3525 3541 
Q 3525 3141 3298 2862 
Q 3072 2584 2669 2484 
Q 3125 2378 3379 2068 
Q 3634 1759 3634 1313 
Q 3634 634 3220 271 
Q 2806 -91 2034 -91 
Q 1263 -91 848 271 
Q 434 634 434 1313 
Q 434 1759 690 2068 
Q 947 2378 1403 2484 
z
M 1172 3481 
Q 1172 3119 1398 2916 
Q 1625 2713 2034 2713 
Q 2441 2713 2670 2916 
Q 2900 3119 2900 3481 
Q 2900 3844 2670 4047 
Q 2441 4250 2034 4250 
Q 1625 4250 1398 4047 
Q 1172 3844 1172 3481 
z
" transform="scale(0.015625)"/>
       </defs>
       <use xlink:href="#DejaVuSans-38"/>
      </g>
     </g>
    </g>
    <g id="text_6">
     <!-- Time [s] -->
     <g transform="translate(215.831094 335.860562) scale(0.1 -0.1)">
      <defs>
       <path id="DejaVuSans-54" d="M -19 4666 
L 3928 4666 
L 3928 4134 
L 2272 4134 
L 2272 0 
L 1638 0 
L 1638 4134 
L -19 4134 
L -19 4666 
z
" transform="scale(0.015625)"/>
       <path id="DejaVuSans-69" d="M 603 3500 
L 1178 3500 
L 1178 0 
L 603 0 
L 603 3500 
z
M 603 4863 
L 1178 4863 
L 1178 4134 
L 603 4134 
L 603 4863 
z
" transform="scale(0.015625)"/>
       <path id="DejaVuSans-6d" d="M 3328 2828 
Q 3544 3216 3844 3400 
Q 4144 3584 4550 3584 
Q 5097 3584 5394 3201 
Q 5691 2819 5691 2113 
L 5691 0 
L 5113 0 
L 5113 2094 
Q 5113 2597 4934 2840 
Q 4756 3084 4391 3084 
Q 3944 3084 3684 2787 
Q 3425 2491 3425 1978 
L 3425 0 
L 2847 0 
L 2847 2094 
Q 2847 2600 2669 2842 
Q 2491 3084 2119 3084 
Q 1678 3084 1418 2786 
Q 1159 2488 1159 1978 
L 1159 0 
L 581 0 
L 581 3500 
L 1159 3500 
L 1159 2956 
Q 1356 3278 1631 3431 
Q 1906 3584 2284 3584 
Q 2666 3584 2933 3390 
Q 3200 3197 3328 2828 
z
" transform="scale(0.015625)"/>
       <path id="DejaVuSans-65" d="M 3597 1894 
L 3597 1613 
L 953 1613 
Q 991 1019 1311 708 
Q 1631 397 2203 397 
Q 2534 397 2845 478 
Q 3156 559 3463 722 
L 3463 178 
Q 3153 47 2828 -22 
Q 2503 -91 2169 -91 
Q 1331 -91 842 396 
Q 353 884 353 1716 
Q 353 2575 817 3079 
Q 1281 3584 2069 3584 
Q 2775 3584 3186 3129 
Q 3597 2675 3597 1894 
z
M 3022 2063 
Q 3016 2534 2758 2815 
Q 2500 3097 2075 3097 
Q 1594 3097 1305 2825 
Q 1016 2553 972 2059 
L 3022 2063 
z
" transform="scale(0.015625)"/>
       <path id="DejaVuSans-20" transform="scale(0.015625)"/>
       <path id="DejaVuSans-5b" d="M 550 4863 
L 1875 4863 
L 1875 4416 
L 1125 4416 
L 1125 -397 
L 1875 -397 
L 1875 -844 
L 550 -844 
L 550 4863 
z
" transform="scale(0.015625)"/>
       <path id="DejaVuSans-73" d="M 2834 3397 
L 2834 2853 
Q 2591 2978 2328 3040 
Q 2066 3103 1784 3103 
Q 1356 3103 1142 2972 
Q 928 2841 928 2578 
Q 928 2378 1081 2264 
Q 1234 2150 1697 2047 
L 1894 2003 
Q 2506 1872 2764 1633 
Q 3022 1394 3022 966 
Q 3022 478 2636 193 
Q 2250 -91 1575 -91 
Q 1294 -91 989 -36 
Q 684 19 347 128 
L 347 722 
Q 666 556 975 473 
Q 1284 391 1588 391 
Q 1994 391 2212 530 
Q 2431 669 2431 922 
Q 2431 1156 2273 1281 
Q 2116 1406 1581 1522 
L 1381 1569 
Q 847 1681 609 1914 
Q 372 2147 372 2553 
Q 372 3047 722 3315 
Q 1072 3584 1716 3584 
Q 2034 3584 2315 3537 
Q 2597 3491 2834 3397 
z
" transform="scale(0.015625)"/>
       <path id="DejaVuSans-5d" d="M 1947 4863 
L 1947 -844 
L 622 -844 
L 622 -397 
L 1369 -397 
L 1369 4416 
L 622 4416 
L 622 4863 
L 1947 4863 
z
" transform="scale(0.015625)"/>
      </defs>
      <use xlink:href="#DejaVuSans-54"/>
      <use xlink:href="#DejaVuSans-69" x="57.958984"/>
      <use xlink:href="#DejaVuSans-6d" x="85.742188"/>
      <use xlink:href="#DejaVuSans-65" x="183.154297"/>
      <use xlink:href="#DejaVuSans-20" x="244.677734"/>
      <use xlink:href="#DejaVuSans-5b" x="276.464844"/>
      <use xlink:href="#DejaVuSans-73" x="315.478516"/>
      <use xlink:href="#DejaVuSans-5d" x="367.578125"/>
     </g>
    </g>
   </g>
   <g id="matplotlib.axis_2">
    <g id="ytick_1">
     <g id="line2d_6">
      <defs>
       <path id="mde7c4d0036" d="M 0 0 
L -3.5 0 
" style="stroke: #000000; stroke-width: 0.8"/>
      </defs>
      <g>
       <use xlink:href="#mde7c4d0036" x="57.6" y="286.408679" style="stroke: #000000; stroke-width: 0.8"/>
      </g>
     </g>
     <g id="text_7">
      <!-- 0 -->
      <g transform="translate(44.2375 290.207898) scale(0.1 -0.1)">
       <use xlink:href="#DejaVuSans-30"/>
      </g>
     </g>
    </g>
    <g id="ytick_2">
     <g id="line2d_7">
      <g>
       <use xlink:href="#mde7c4d0036" x="57.6" y="254.09585" style="stroke: #000000; stroke-width: 0.8"/>
      </g>
     </g>
     <g id="text_8">
      <!-- 5 -->
      <g transform="translate(44.2375 257.895069) scale(0.1 -0.1)">
       <defs>
        <path id="DejaVuSans-35" d="M 691 4666 
L 3169 4666 
L 3169 4134 
L 1269 4134 
L 1269 2991 
Q 1406 3038 1543 3061 
Q 1681 3084 1819 3084 
Q 2600 3084 3056 2656 
Q 3513 2228 3513 1497 
Q 3513 744 3044 326 
Q 2575 -91 1722 -91 
Q 1428 -91 1123 -41 
Q 819 9 494 109 
L 494 744 
Q 775 591 1075 516 
Q 1375 441 1709 441 
Q 2250 441 2565 725 
Q 2881 1009 2881 1497 
Q 2881 1984 2565 2268 
Q 2250 2553 1709 2553 
Q 1456 2553 1204 2497 
Q 953 2441 691 2322 
L 691 4666 
z
" transform="scale(0.015625)"/>
       </defs>
       <use xlink:href="#DejaVuSans-35"/>
      </g>
     </g>
    </g>
    <g id="ytick_3">
     <g id="line2d_8">
      <g>
       <use xlink:href="#mde7c4d0036" x="57.6" y="221.783021" style="stroke: #000000; stroke-width: 0.8"/>
      </g>
     </g>
     <g id="text_9">
      <!-- 10 -->
      <g transform="translate(37.875 225.58224) scale(0.1 -0.1)">
       <defs>
        <path id="DejaVuSans-31" d="M 794 531 
L 1825 531 
L 1825 4091 
L 703 3866 
L 703 4441 
L 1819 4666 
L 2450 4666 
L 2450 531 
L 3481 531 
L 3481 0 
L 794 0 
L 794 531 
z
" transform="scale(0.015625)"/>
       </defs>
       <use xlink:href="#DejaVuSans-31"/>
       <use xlink:href="#DejaVuSans-30" x="63.623047"/>
      </g>
     </g>
    </g>
    <g id="ytick_4">
     <g id="line2d_9">
      <g>
       <use xlink:href="#mde7c4d0036" x="57.6" y="189.470192" style="stroke: #000000; stroke-width: 0.8"/>
      </g>
     </g>
     <g id="text_10">
      <!-- 15 -->
      <g transform="translate(37.875 193.269411) scale(0.1 -0.1)">
       <use xlink:href="#DejaVuSans-31"/>
       <use xlink:href="#DejaVuSans-35" x="63.623047"/>
      </g>
     </g>
    </g>
    <g id="ytick_5">
     <g id="line2d_10">
      <g>
       <use xlink:href="#mde7c4d0036" x="57.6" y="157.157363" style="stroke: #000000; stroke-width: 0.8"/>
      </g>
     </g>
     <g id="text_11">
      <!-- 20 -->
      <g transform="translate(37.875 160.956582) scale(0.1 -0.1)">
       <use xlink:href="#DejaVuSans-32"/>
       <use xlink:href="#DejaVuSans-30" x="63.623047"/>
      </g>
     </g>
    </g>
    <g id="ytick_6">
     <g id="line2d_11">
      <g>
       <use xlink:href="#mde7c4d0036" x="57.6" y="124.844534" style="stroke: #000000; stroke-width: 0.8"/>
      </g>
     </g>
     <g id="text_12">
      <!-- 25 -->
      <g transform="translate(37.875 128.643753) scale(0.1 -0.1)">
       <use xlink:href="#DejaVuSans-32"/>
       <use xlink:href="#DejaVuSans-35" x="63.623047"/>
      </g>
     </g>
    </g>
    <g id="ytick_7">
     <g id="line2d_12">
      <g>
       <use xlink:href="#mde7c4d0036" x="57.6" y="92.531705" style="stroke: #000000; stroke-width: 0.8"/>
      </g>
     </g>
     <g id="text_13">
      <!-- 30 -->
      <g transform="translate(37.875 96.330924) scale(0.1 -0.1)">
       <defs>
        <path id="DejaVuSans-33" d="M 2597 2516 
Q 3050 2419 3304 2112 
Q 3559 1806 3559 1356 
Q 3559 666 3084 287 
Q 2609 -91 1734 -91 
Q 1441 -91 1130 -33 
Q 819 25 488 141 
L 488 750 
Q 750 597 1062 519 
Q 1375 441 1716 441 
Q 2309 441 2620 675 
Q 2931 909 2931 1356 
Q 2931 1769 2642 2001 
Q 2353 2234 1838 2234 
L 1294 2234 
L 1294 2753 
L 1863 2753 
Q 2328 2753 2575 2939 
Q 2822 3125 2822 3475 
Q 2822 3834 2567 4026 
Q 2313 4219 1838 4219 
Q 1578 4219 1281 4162 
Q 984 4106 628 3988 
L 628 4550 
Q 988 4650 1302 4700 
Q 1616 4750 1894 4750 
Q 2613 4750 3031 4423 
Q 3450 4097 3450 3541 
Q 3450 3153 3228 2886 
Q 3006 2619 2597 2516 
z
" transform="scale(0.015625)"/>
       </defs>
       <use xlink:href="#DejaVuSans-33"/>
       <use xlink:href="#DejaVuSans-30" x="63.623047"/>
      </g>
     </g>
    </g>
    <g id="ytick_8">
     <g id="line2d_13">
      <g>
       <use xlink:href="#mde7c4d0036" x="57.6" y="60.218876" style="stroke: #000000; stroke-width: 0.8"/>
      </g>
     </g>
     <g id="text_14">
      <!-- 35 -->
      <g transform="translate(37.875 64.018095) scale(0.1 -0.1)">
       <use xlink:href="#DejaVuSans-33"/>
       <use xlink:href="#DejaVuSans-35" x="63.623047"/>
      </g>
     </g>
    </g>
    <g id="text_15">
     <!-- X-coordinate -->
     <g transform="translate(31.795312 206.175656) rotate(-90) scale(0.1 -0.1)">
      <defs>
       <path id="DejaVuSans-58" d="M 403 4666 
L 1081 4666 
L 2241 2931 
L 3406 4666 
L 4084 4666 
L 2584 2425 
L 4184 0 
L 3506 0 
L 2194 1984 
L 872 0 
L 191 0 
L 1856 2491 
L 403 4666 
z
" transform="scale(0.015625)"/>
       <path id="DejaVuSans-2d" d="M 313 2009 
L 1997 2009 
L 1997 1497 
L 313 1497 
L 313 2009 
z
" transform="scale(0.015625)"/>
       <path id="DejaVuSans-63" d="M 3122 3366 
L 3122 2828 
Q 2878 2963 2633 3030 
Q 2388 3097 2138 3097 
Q 1578 3097 1268 2742 
Q 959 2388 959 1747 
Q 959 1106 1268 751 
Q 1578 397 2138 397 
Q 2388 397 2633 464 
Q 2878 531 3122 666 
L 3122 134 
Q 2881 22 2623 -34 
Q 2366 -91 2075 -91 
Q 1284 -91 818 406 
Q 353 903 353 1747 
Q 353 2603 823 3093 
Q 1294 3584 2113 3584 
Q 2378 3584 2631 3529 
Q 2884 3475 3122 3366 
z
" transform="scale(0.015625)"/>
       <path id="DejaVuSans-6f" d="M 1959 3097 
Q 1497 3097 1228 2736 
Q 959 2375 959 1747 
Q 959 1119 1226 758 
Q 1494 397 1959 397 
Q 2419 397 2687 759 
Q 2956 1122 2956 1747 
Q 2956 2369 2687 2733 
Q 2419 3097 1959 3097 
z
M 1959 3584 
Q 2709 3584 3137 3096 
Q 3566 2609 3566 1747 
Q 3566 888 3137 398 
Q 2709 -91 1959 -91 
Q 1206 -91 779 398 
Q 353 888 353 1747 
Q 353 2609 779 3096 
Q 1206 3584 1959 3584 
z
" transform="scale(0.015625)"/>
       <path id="DejaVuSans-72" d="M 2631 2963 
Q 2534 3019 2420 3045 
Q 2306 3072 2169 3072 
Q 1681 3072 1420 2755 
Q 1159 2438 1159 1844 
L 1159 0 
L 581 0 
L 581 3500 
L 1159 3500 
L 1159 2956 
Q 1341 3275 1631 3429 
Q 1922 3584 2338 3584 
Q 2397 3584 2469 3576 
Q 2541 3569 2628 3553 
L 2631 2963 
z
" transform="scale(0.015625)"/>
       <path id="DejaVuSans-64" d="M 2906 2969 
L 2906 4863 
L 3481 4863 
L 3481 0 
L 2906 0 
L 2906 525 
Q 2725 213 2448 61 
Q 2172 -91 1784 -91 
Q 1150 -91 751 415 
Q 353 922 353 1747 
Q 353 2572 751 3078 
Q 1150 3584 1784 3584 
Q 2172 3584 2448 3432 
Q 2725 3281 2906 2969 
z
M 947 1747 
Q 947 1113 1208 752 
Q 1469 391 1925 391 
Q 2381 391 2643 752 
Q 2906 1113 2906 1747 
Q 2906 2381 2643 2742 
Q 2381 3103 1925 3103 
Q 1469 3103 1208 2742 
Q 947 2381 947 1747 
z
" transform="scale(0.015625)"/>
       <path id="DejaVuSans-6e" d="M 3513 2113 
L 3513 0 
L 2938 0 
L 2938 2094 
Q 2938 2591 2744 2837 
Q 2550 3084 2163 3084 
Q 1697 3084 1428 2787 
Q 1159 2491 1159 1978 
L 1159 0 
L 581 0 
L 581 3500 
L 1159 3500 
L 1159 2956 
Q 1366 3272 1645 3428 
Q 1925 3584 2291 3584 
Q 2894 3584 3203 3211 
Q 3513 2838 3513 2113 
z
" transform="scale(0.015625)"/>
       <path id="DejaVuSans-61" d="M 2194 1759 
Q 1497 1759 1228 1600 
Q 959 1441 959 1056 
Q 959 750 1161 570 
Q 1363 391 1709 391 
Q 2188 391 2477 730 
Q 2766 1069 2766 1631 
L 2766 1759 
L 2194 1759 
z
M 3341 1997 
L 3341 0 
L 2766 0 
L 2766 531 
Q 2569 213 2275 61 
Q 1981 -91 1556 -91 
Q 1019 -91 701 211 
Q 384 513 384 1019 
Q 384 1609 779 1909 
Q 1175 2209 1959 2209 
L 2766 2209 
L 2766 2266 
Q 2766 2663 2505 2880 
Q 2244 3097 1772 3097 
Q 1472 3097 1187 3025 
Q 903 2953 641 2809 
L 641 3341 
Q 956 3463 1253 3523 
Q 1550 3584 1831 3584 
Q 2591 3584 2966 3190 
Q 3341 2797 3341 1997 
z
" transform="scale(0.015625)"/>
       <path id="DejaVuSans-74" d="M 1172 4494 
L 1172 3500 
L 2356 3500 
L 2356 3053 
L 1172 3053 
L 1172 1153 
Q 1172 725 1289 603 
Q 1406 481 1766 481 
L 2356 481 
L 2356 0 
L 1766 0 
Q 1100 0 847 248 
Q 594 497 594 1153 
L 594 3053 
L 172 3053 
L 172 3500 
L 594 3500 
L 594 4494 
L 1172 4494 
z
" transform="scale(0.015625)"/>
      </defs>
      <use xlink:href="#DejaVuSans-58"/>
      <use xlink:href="#DejaVuSans-2d" x="63.505859"/>
      <use xlink:href="#DejaVuSans-63" x="99.589844"/>
      <use xlink:href="#DejaVuSans-6f" x="154.570312"/>
      <use xlink:href="#DejaVuSans-6f" x="215.751953"/>
      <use xlink:href="#DejaVuSans-72" x="276.933594"/>
      <use xlink:href="#DejaVuSans-64" x="316.296875"/>
      <use xlink:href="#DejaVuSans-69" x="379.773438"/>
      <use xlink:href="#DejaVuSans-6e" x="407.556641"/>
      <use xlink:href="#DejaVuSans-61" x="470.935547"/>
      <use xlink:href="#DejaVuSans-74" x="532.214844"/>
      <use xlink:href="#DejaVuSans-65" x="571.423828"/>
     </g>
    </g>
   </g>
   <g id="line2d_14">
    <path d="M 57.6 286.407387 
L 64.993789 286.272965 
L 72.387578 285.920109 
L 79.781366 285.348819 
L 87.175155 284.559093 
L 94.568944 283.550933 
L 101.962733 282.324338 
L 109.356522 280.879309 
L 116.750311 279.215844 
L 124.144099 277.333944 
L 131.537888 275.233611 
L 138.931677 272.914842 
L 146.325466 270.377639 
L 154.288008 267.400981 
L 162.250549 264.17099 
L 170.213091 260.687667 
L 178.175633 256.951012 
L 186.138175 252.961017 
L 194.100717 248.717697 
L 202.063258 244.22105 
L 210.0258 239.471064 
L 217.988342 234.467746 
L 225.950884 229.211095 
L 233.913426 223.701111 
L 242.44472 217.516435 
L 250.976015 211.040945 
L 259.50731 204.274638 
L 268.038605 197.217516 
L 276.5699 189.869579 
L 285.101194 182.230826 
L 293.632489 174.301258 
L 302.163784 166.080874 
L 311.263832 156.991986 
L 320.36388 147.57215 
L 329.463927 137.821431 
L 338.563975 127.739764 
L 347.664023 117.327278 
L 356.764071 106.583909 
L 365.864118 95.509656 
L 375.532919 83.380712 
L 385.20172 70.878168 
L 394.870521 58.002152 
L 397.714286 54.144 
L 397.714286 54.144 
" clip-path="url(#p248fa20b41)" style="fill: none; stroke: #000000; stroke-width: 2; stroke-linecap: square"/>
   </g>
   <g id="line2d_15">
    <path d="M 57.6 284.760686 
L 58.168753 284.15199 
L 58.737506 285.690178 
L 59.306259 289.493378 
L 59.875012 290.368067 
L 60.443765 288.434435 
L 61.012518 288.373338 
L 61.581271 286.579446 
L 62.150024 287.791979 
L 62.718777 286.343608 
L 63.28753 287.787927 
L 63.856283 287.704333 
L 64.425036 285.260301 
L 64.993789 284.966913 
L 65.562542 286.385085 
L 66.131295 285.512948 
L 66.700048 285.345219 
L 67.268801 285.86521 
L 67.837554 287.422733 
L 68.97506 289.97526 
L 69.543813 292.126674 
L 70.112566 293.491199 
L 70.681319 293.513159 
L 71.250072 293.728569 
L 71.818825 294.429867 
L 72.387578 293.83113 
L 72.956331 292.826233 
L 73.525084 293.324168 
L 74.093837 294.320915 
L 74.66259 294.351509 
L 75.231343 296.534305 
L 75.800096 294.938381 
L 76.368849 290.219635 
L 77.506355 286.349263 
L 78.075108 285.69339 
L 78.64386 284.584749 
L 80.350119 280.492504 
L 80.918872 278.370346 
L 82.056378 279.012008 
L 82.625131 280.548528 
L 83.193884 284.034727 
L 83.762637 285.900289 
L 84.33139 286.164285 
L 84.900143 286.178554 
L 86.037649 280.72442 
L 86.606402 279.535295 
L 87.175155 282.28078 
L 87.743908 283.850311 
L 88.312661 281.526618 
L 88.881414 280.212753 
L 89.450167 280.26939 
L 90.01892 279.152058 
L 90.587673 278.419177 
L 91.156426 279.472349 
L 91.725179 278.751133 
L 92.293932 280.24789 
L 92.862685 282.057809 
L 93.431438 281.317063 
L 94.000191 281.169807 
L 94.568944 281.300124 
L 95.137697 282.519475 
L 95.70645 282.581716 
L 96.843956 284.217269 
L 97.412709 281.482052 
L 98.550215 279.811757 
L 99.118968 280.218136 
L 99.687721 280.853716 
L 100.256474 278.041615 
L 100.825227 277.407327 
L 101.39398 277.451738 
L 101.962733 278.29253 
L 102.531486 278.039573 
L 103.100239 277.479417 
L 103.668992 276.749257 
L 104.237745 277.297114 
L 104.806498 277.018494 
L 105.375251 277.135557 
L 105.944004 276.771876 
L 106.512757 277.078893 
L 107.08151 277.232036 
L 107.650263 276.193696 
L 108.219016 274.099127 
L 108.787769 273.549175 
L 109.925275 268.210094 
L 110.494028 275.445538 
L 111.631534 277.097188 
L 112.200287 277.384398 
L 112.76904 277.826883 
L 113.337793 278.582693 
L 114.475299 276.946779 
L 115.044052 277.259916 
L 115.612805 278.186021 
L 116.181558 278.69615 
L 116.750311 280.693432 
L 117.319064 281.512187 
L 118.45657 283.795696 
L 119.025323 284.260374 
L 119.594075 285.395052 
L 120.162828 286.949286 
L 120.731581 287.309057 
L 121.300334 287.258778 
L 122.43784 286.830853 
L 123.006593 287.493576 
L 123.575346 285.12796 
L 124.144099 284.788262 
L 124.712852 285.528807 
L 125.281605 285.888553 
L 125.850358 285.799505 
L 126.419111 287.220042 
L 126.987864 286.533937 
L 127.556617 286.084323 
L 128.12537 287.167721 
L 128.694123 283.943004 
L 129.831629 281.796256 
L 130.969135 274.641207 
L 131.537888 274.540914 
L 132.106641 274.71762 
L 133.244147 272.126868 
L 133.8129 273.005557 
L 134.381653 272.548279 
L 134.950406 272.684135 
L 135.519159 272.614546 
L 136.087912 273.60454 
L 136.656665 271.22775 
L 137.225418 270.911065 
L 137.794171 271.183934 
L 138.362924 273.879341 
L 138.931677 275.355469 
L 140.069183 276.644292 
L 140.637936 277.526438 
L 141.206689 276.865305 
L 141.775442 275.618851 
L 142.344195 274.751115 
L 142.912948 273.010863 
L 143.481701 273.222208 
L 144.050454 273.903821 
L 144.619207 274.380662 
L 145.18796 274.195419 
L 145.756713 272.619425 
L 146.325466 272.095208 
L 147.462972 264.532306 
L 148.031725 263.24316 
L 148.600478 263.735549 
L 149.169231 263.233001 
L 149.737984 261.363477 
L 150.306737 261.825409 
L 150.87549 261.311331 
L 152.012996 259.353484 
L 152.581749 260.10119 
L 153.150502 261.328282 
L 153.719255 261.023062 
L 154.288008 267.023774 
L 154.856761 267.347503 
L 155.425514 268.084339 
L 155.994267 268.159389 
L 156.56302 270.019083 
L 157.131773 265.321101 
L 157.700526 262.653063 
L 158.838032 258.688369 
L 159.406785 260.45972 
L 159.975538 258.722434 
L 160.54429 262.397391 
L 161.113043 260.193145 
L 162.250549 253.28054 
L 162.819302 252.458456 
L 163.388055 253.15936 
L 164.525561 256.325797 
L 165.094314 255.494388 
L 165.663067 253.951742 
L 166.23182 254.39581 
L 166.800573 254.619221 
L 167.369326 253.167761 
L 168.506832 255.993292 
L 169.075585 256.400938 
L 169.644338 255.32368 
L 170.213091 257.210962 
L 170.781844 260.028434 
L 171.91935 263.059953 
L 172.488103 264.089233 
L 173.056856 262.688394 
L 173.625609 262.567873 
L 174.194362 259.828624 
L 174.763115 259.480693 
L 175.331868 258.207826 
L 175.900621 253.03345 
L 176.469374 250.662716 
L 177.038127 253.477654 
L 177.60688 254.993223 
L 178.175633 255.795531 
L 178.744386 257.16195 
L 179.313139 257.182275 
L 179.881892 256.393015 
L 181.019398 252.772007 
L 181.588151 252.584857 
L 182.156904 254.99701 
L 183.29441 258.53657 
L 183.863163 254.677733 
L 185.000669 257.179929 
L 185.569422 254.678916 
L 186.138175 254.561039 
L 186.706928 255.300983 
L 187.275681 255.069378 
L 187.844434 255.291761 
L 188.413187 255.655526 
L 188.98194 254.119129 
L 189.550693 250.769186 
L 190.119446 249.234637 
L 190.688199 246.397099 
L 191.256952 247.378407 
L 191.825705 248.083706 
L 192.394458 247.594018 
L 192.963211 246.909697 
L 193.531964 246.41714 
L 194.100717 248.038849 
L 194.66947 251.51392 
L 195.806976 253.793299 
L 196.375729 255.590694 
L 196.944482 254.618013 
L 197.513235 249.725902 
L 198.081988 243.291248 
L 198.650741 243.592468 
L 199.219494 245.578273 
L 199.788247 246.250166 
L 200.357 245.336353 
L 200.925753 246.280883 
L 201.494505 245.568424 
L 202.063258 242.72662 
L 202.632011 241.114029 
L 203.200764 242.041007 
L 203.769517 243.492693 
L 204.33827 239.648933 
L 204.907023 236.86864 
L 205.475776 237.098934 
L 206.044529 238.790969 
L 207.182035 243.15262 
L 207.750788 244.734417 
L 208.319541 245.547285 
L 208.888294 245.209706 
L 210.0258 242.495661 
L 210.594553 248.171739 
L 211.163306 244.320283 
L 211.732059 243.292961 
L 212.300812 243.674711 
L 212.869565 244.971237 
L 213.438318 245.832051 
L 214.007071 245.362694 
L 214.575824 241.155241 
L 215.144577 245.319932 
L 215.71333 246.526719 
L 216.282083 244.28035 
L 216.850836 242.559996 
L 217.419589 241.462342 
L 217.988342 243.736416 
L 218.557095 244.852481 
L 219.125848 245.058934 
L 219.694601 243.235282 
L 220.263354 242.737639 
L 220.832107 241.416897 
L 221.40086 237.675931 
L 221.969613 237.66256 
L 223.107119 239.083362 
L 223.675872 238.135064 
L 224.244625 238.484741 
L 224.813378 240.843215 
L 225.382131 238.176657 
L 225.950884 238.067395 
L 226.519637 239.385719 
L 227.08839 243.139649 
L 227.657143 243.664235 
L 228.225896 241.561963 
L 228.794649 234.273177 
L 229.363402 232.281615 
L 229.932155 231.518179 
L 230.500908 229.847463 
L 231.069661 229.543684 
L 231.638414 230.899265 
L 232.207167 230.712749 
L 232.77592 229.730659 
L 233.344673 230.608631 
L 233.913426 229.388641 
L 234.482179 229.308091 
L 235.050932 228.310426 
L 235.619685 226.289847 
L 236.188438 227.526349 
L 236.757191 230.572486 
L 237.325944 228.973783 
L 237.894697 227.998329 
L 238.46345 231.287317 
L 239.032203 232.592212 
L 239.600956 231.185719 
L 240.169709 232.508761 
L 240.738462 230.134563 
L 241.307215 234.399914 
L 241.875968 235.399227 
L 242.44472 236.136206 
L 243.013473 238.029104 
L 243.582226 237.926802 
L 244.150979 236.207158 
L 244.719732 233.133484 
L 245.288485 232.837053 
L 245.857238 232.081598 
L 246.425991 230.141 
L 246.994744 229.722471 
L 248.13225 227.964065 
L 248.701003 228.112807 
L 249.269756 227.858286 
L 249.838509 225.882162 
L 250.407262 224.87967 
L 250.976015 225.282404 
L 251.544768 221.31433 
L 252.113521 224.474783 
L 252.682274 223.93271 
L 253.251027 221.668673 
L 255.526039 208.732794 
L 256.094792 208.740148 
L 256.663545 210.524928 
L 257.232298 213.021172 
L 257.801051 213.304226 
L 258.369804 211.658856 
L 258.938557 208.074872 
L 260.644816 201.1266 
L 261.213569 199.981982 
L 261.782322 202.038842 
L 262.351075 203.097294 
L 262.919828 202.18003 
L 263.488581 202.915031 
L 264.057334 202.533513 
L 264.626087 204.623507 
L 265.19484 204.979471 
L 265.763593 203.592902 
L 266.332346 202.766999 
L 266.901099 202.297306 
L 267.469852 203.68003 
L 268.038605 203.909587 
L 268.607358 202.753699 
L 269.176111 205.222309 
L 269.744864 204.451383 
L 270.313617 204.170643 
L 270.88237 204.795372 
L 271.451123 204.628457 
L 272.019876 205.018318 
L 272.588629 204.948994 
L 273.157382 203.796176 
L 273.726135 202.934664 
L 274.294888 199.727079 
L 274.863641 195.156591 
L 275.432394 193.072569 
L 276.001147 194.017002 
L 276.5699 194.19469 
L 277.138653 193.056561 
L 277.707406 196.305125 
L 278.276159 197.634403 
L 279.413665 193.693873 
L 279.982418 190.640919 
L 280.551171 189.331208 
L 281.119924 193.841989 
L 281.688677 194.475585 
L 282.25743 195.558343 
L 282.826183 192.470031 
L 283.394935 190.395968 
L 283.963688 191.646326 
L 284.532441 190.439454 
L 285.101194 190.543276 
L 285.669947 192.714905 
L 286.2387 193.921459 
L 286.807453 196.062901 
L 287.376206 194.757101 
L 287.944959 195.389683 
L 288.513712 196.232802 
L 289.082465 194.056223 
L 289.651218 189.296673 
L 290.219971 189.660715 
L 290.788724 189.609971 
L 291.357477 188.16688 
L 291.92623 187.483729 
L 292.494983 188.266042 
L 293.063736 188.655198 
L 294.201242 189.921422 
L 294.769995 189.198047 
L 295.338748 190.444864 
L 295.907501 190.23664 
L 296.476254 190.407988 
L 297.045007 191.051679 
L 297.61376 188.267535 
L 298.182513 190.485546 
L 298.751266 189.732321 
L 299.320019 190.404977 
L 299.888772 190.418102 
L 300.457525 189.124187 
L 301.026278 188.870835 
L 301.595031 184.58225 
L 302.163784 182.014182 
L 302.732537 181.244477 
L 303.30129 180.284696 
L 304.438796 173.166541 
L 305.007549 172.315796 
L 305.576302 169.541539 
L 306.145055 169.013748 
L 306.713808 166.831676 
L 307.282561 164.140075 
L 307.851314 163.533583 
L 308.420067 163.841595 
L 308.98882 162.45701 
L 309.557573 161.62858 
L 310.126326 158.916571 
L 310.695079 159.351224 
L 311.263832 161.026191 
L 311.832585 164.326449 
L 312.401338 155.839317 
L 312.970091 158.400871 
L 313.538844 158.331547 
L 314.107597 163.043339 
L 314.67635 158.719152 
L 315.245103 158.110883 
L 315.813856 162.243073 
L 316.382609 168.971089 
L 316.951362 168.559449 
L 317.520115 166.665439 
L 318.088868 166.206629 
L 318.657621 166.35437 
L 319.226374 167.119493 
L 319.795127 164.798999 
L 320.36388 161.625103 
L 320.932633 159.167028 
L 321.501386 158.820686 
L 322.070139 157.914595 
L 322.638892 156.533862 
L 323.776398 154.882153 
L 324.345151 153.14254 
L 324.913903 150.997782 
L 325.482656 150.035668 
L 326.051409 149.952947 
L 326.620162 149.010821 
L 327.188915 149.047044 
L 327.757668 148.434774 
L 328.326421 145.200996 
L 328.895174 145.06103 
L 329.463927 144.607843 
L 330.03268 148.354056 
L 330.601433 150.574872 
L 331.170186 151.668247 
L 331.738939 151.198516 
L 332.307692 149.539866 
L 332.876445 148.589106 
L 333.445198 138.803541 
L 334.013951 139.707615 
L 334.582704 141.490294 
L 335.151457 141.105526 
L 335.72021 140.211385 
L 336.288963 141.714203 
L 336.857716 140.757679 
L 337.426469 138.284216 
L 337.995222 136.429886 
L 338.563975 135.527156 
L 339.132728 132.747496 
L 339.701481 135.838826 
L 340.270234 136.61043 
L 340.838987 135.873698 
L 341.40774 134.655297 
L 341.976493 128.411044 
L 342.545246 127.253191 
L 343.113999 127.910001 
L 344.251505 125.237077 
L 344.820258 125.301755 
L 345.389011 124.549492 
L 345.957764 124.808428 
L 346.526517 124.642224 
L 347.09527 123.508567 
L 347.664023 123.864906 
L 348.232776 125.428841 
L 348.801529 125.850084 
L 349.370282 126.120193 
L 349.939035 125.756687 
L 350.507788 126.127179 
L 351.076541 124.572628 
L 351.645294 125.000412 
L 352.214047 123.053757 
L 352.7828 121.584409 
L 353.351553 118.899627 
L 353.920306 117.575492 
L 354.489059 117.9645 
L 355.057812 115.579839 
L 355.626565 114.12697 
L 356.195318 114.355389 
L 356.764071 114.136334 
L 357.332824 113.701843 
L 357.901577 111.08917 
L 358.47033 111.376819 
L 359.607836 106.209241 
L 360.176589 100.786069 
L 360.745342 100.651047 
L 361.314095 101.297413 
L 361.882848 102.459176 
L 362.451601 105.880878 
L 363.020354 104.026632 
L 363.589107 106.775116 
L 364.15786 105.523944 
L 364.726613 105.604468 
L 365.295366 105.216216 
L 365.864118 108.541426 
L 366.432871 107.917847 
L 367.001624 106.928137 
L 367.570377 109.044466 
L 368.13913 108.538873 
L 368.707883 108.742406 
L 369.276636 110.37821 
L 369.845389 109.864326 
L 370.414142 106.555816 
L 370.982895 104.989755 
L 371.551648 102.352628 
L 372.120401 105.538944 
L 372.689154 103.95926 
L 373.257907 102.925004 
L 373.82666 102.610775 
L 374.395413 101.340215 
L 374.964166 101.218712 
L 375.532919 99.056247 
L 376.101672 97.735538 
L 376.670425 101.197386 
L 377.239178 99.923272 
L 377.807931 99.554828 
L 379.51419 96.967165 
L 380.082943 92.245931 
L 380.651696 93.280607 
L 381.220449 89.653473 
L 381.789202 88.109792 
L 382.357955 88.630733 
L 382.926708 88.729675 
L 383.495461 88.99241 
L 384.064214 88.15576 
L 384.632967 86.739211 
L 385.20172 83.422544 
L 385.770473 82.289618 
L 386.339226 82.288054 
L 386.907979 82.911381 
L 387.476732 86.991076 
L 388.045485 87.004648 
L 388.614238 86.208156 
L 389.182991 87.181632 
L 390.320497 84.136219 
L 390.88925 84.131927 
L 391.458003 79.702944 
L 392.026756 77.168248 
L 392.595509 73.716346 
L 393.733015 72.130956 
L 394.301768 69.36627 
L 394.870521 68.552239 
L 395.439274 68.713964 
L 396.008027 68.07028 
L 396.57678 66.313231 
L 397.145533 65.460987 
L 397.714286 65.524811 
L 397.714286 65.524811 
" clip-path="url(#p248fa20b41)" style="fill: none; stroke-dasharray: 5.55,2.4; stroke-dashoffset: 0; stroke: #4169e1; stroke-opacity: 0.7; stroke-width: 1.5"/>
   </g>
   <g id="line2d_16">
    <path d="M 57.6 286.428629 
L 58.168753 286.656894 
L 58.737506 285.703413 
L 59.306259 287.55888 
L 59.875012 285.466915 
L 60.443765 284.546084 
L 61.012518 285.354176 
L 61.581271 284.791093 
L 62.150024 282.068207 
L 63.28753 279.607242 
L 63.856283 279.422672 
L 64.425036 276.878043 
L 64.993789 276.914414 
L 65.562542 277.576278 
L 66.131295 277.654772 
L 66.700048 274.392824 
L 67.268801 278.911424 
L 67.837554 278.116044 
L 68.406307 280.837889 
L 68.97506 281.762605 
L 70.112566 279.369414 
L 71.250072 275.080661 
L 71.818825 273.598943 
L 72.387578 273.553027 
L 72.956331 274.872211 
L 73.525084 275.289971 
L 74.093837 277.672596 
L 74.66259 278.022195 
L 75.231343 278.169438 
L 75.800096 278.117686 
L 76.368849 277.894714 
L 76.937602 279.153906 
L 77.506355 279.508133 
L 78.64386 280.442484 
L 79.212613 282.442603 
L 79.781366 282.455786 
L 80.350119 281.685022 
L 81.487625 276.852962 
L 82.056378 275.578466 
L 82.625131 275.38466 
L 83.193884 271.810331 
L 83.762637 271.261834 
L 84.33139 270.110134 
L 84.900143 270.549097 
L 85.468896 270.119659 
L 86.037649 268.910423 
L 86.606402 271.674501 
L 87.175155 272.334471 
L 87.743908 272.196664 
L 88.312661 272.303128 
L 88.881414 274.672356 
L 89.450167 277.706699 
L 90.01892 278.786077 
L 90.587673 280.154312 
L 91.156426 280.319986 
L 91.725179 279.394378 
L 92.293932 279.899661 
L 92.862685 282.572009 
L 93.431438 281.742914 
L 94.000191 284.616216 
L 94.568944 284.549942 
L 95.137697 286.588966 
L 95.70645 286.248737 
L 96.275203 285.37779 
L 96.843956 285.361207 
L 97.412709 286.112364 
L 97.981462 284.395862 
L 98.550215 283.073905 
L 99.118968 280.1036 
L 99.687721 280.708431 
L 100.825227 284.047613 
L 101.39398 282.888578 
L 101.962733 284.347108 
L 103.100239 283.966392 
L 103.668992 285.189406 
L 104.237745 282.22042 
L 104.806498 282.592547 
L 105.375251 284.488005 
L 106.512757 285.139438 
L 107.650263 279.29428 
L 108.219016 279.55158 
L 108.787769 279.600308 
L 109.356522 276.64793 
L 110.494028 275.691425 
L 111.062781 272.57981 
L 111.631534 275.031617 
L 112.76904 277.96451 
L 113.337793 277.264679 
L 113.906546 277.438018 
L 115.044052 278.802957 
L 115.612805 277.455208 
L 116.181558 278.411926 
L 116.750311 278.738447 
L 117.319064 280.082784 
L 117.887817 282.007504 
L 118.45657 281.184432 
L 119.025323 283.48652 
L 119.594075 285.185232 
L 120.162828 285.418556 
L 120.731581 285.875712 
L 121.300334 287.174739 
L 121.869087 287.276162 
L 122.43784 285.616957 
L 123.575346 287.074524 
L 124.712852 286.555489 
L 125.281605 283.032183 
L 125.850358 276.762796 
L 126.419111 275.961315 
L 126.987864 275.420915 
L 127.556617 276.799943 
L 128.12537 277.307558 
L 128.694123 281.158814 
L 129.262876 278.232144 
L 129.831629 277.658973 
L 130.400382 278.006265 
L 130.969135 277.870221 
L 131.537888 278.732101 
L 132.106641 278.748632 
L 132.675394 275.194363 
L 133.244147 273.015994 
L 133.8129 273.994575 
L 134.381653 277.141534 
L 134.950406 277.497389 
L 135.519159 281.036251 
L 136.087912 276.486721 
L 136.656665 276.758466 
L 137.225418 269.861868 
L 137.794171 264.88217 
L 138.362924 263.142654 
L 138.931677 269.191777 
L 140.637936 271.157535 
L 141.206689 272.411124 
L 142.344195 271.362469 
L 142.912948 269.446312 
L 143.481701 271.864126 
L 144.050454 270.81507 
L 144.619207 268.589757 
L 145.18796 267.877763 
L 145.756713 267.658023 
L 146.325466 266.888784 
L 146.894219 268.628338 
L 147.462972 269.168635 
L 148.031725 267.418081 
L 149.737984 267.964743 
L 150.306737 267.393517 
L 150.87549 267.672732 
L 151.444243 265.685674 
L 152.012996 269.8811 
L 152.581749 271.214366 
L 153.150502 272.97601 
L 153.719255 273.795722 
L 154.856761 268.51967 
L 155.425514 268.954439 
L 155.994267 270.053366 
L 156.56302 268.34595 
L 157.131773 267.957117 
L 158.269279 266.47485 
L 158.838032 266.284514 
L 159.406785 266.472775 
L 159.975538 265.919496 
L 160.54429 266.847701 
L 161.113043 267.182643 
L 161.681796 265.071678 
L 162.250549 265.36378 
L 162.819302 265.184004 
L 163.388055 264.026888 
L 165.094314 262.707749 
L 165.663067 263.386913 
L 166.23182 261.203503 
L 166.800573 257.859513 
L 167.369326 257.908195 
L 167.938079 258.891281 
L 168.506832 258.321257 
L 169.075585 263.525025 
L 169.644338 266.251006 
L 170.213091 263.938771 
L 170.781844 262.709249 
L 171.350597 263.178916 
L 172.488103 262.249547 
L 173.056856 260.288216 
L 173.625609 260.463546 
L 174.194362 260.147668 
L 174.763115 259.513943 
L 175.331868 259.234256 
L 175.900621 261.366941 
L 176.469374 261.288996 
L 177.038127 260.00546 
L 177.60688 258.057616 
L 178.175633 258.465379 
L 178.744386 259.408648 
L 179.313139 258.538386 
L 179.881892 258.229728 
L 180.450645 258.441706 
L 181.019398 258.97839 
L 181.588151 257.671155 
L 182.156904 257.056778 
L 182.725657 260.010436 
L 183.29441 258.926793 
L 183.863163 259.53693 
L 184.431916 261.443839 
L 185.000669 260.233692 
L 185.569422 259.785519 
L 186.138175 256.652771 
L 186.706928 254.250706 
L 187.275681 254.3115 
L 187.844434 255.75238 
L 188.413187 256.304516 
L 188.98194 255.741872 
L 189.550693 254.26517 
L 190.119446 254.82285 
L 190.688199 254.513061 
L 191.256952 250.423588 
L 191.825705 247.78701 
L 192.394458 246.593535 
L 192.963211 249.966503 
L 193.531964 252.237275 
L 194.100717 252.697396 
L 195.806976 249.332435 
L 196.375729 250.329719 
L 196.944482 254.974805 
L 197.513235 256.446473 
L 198.081988 257.10137 
L 198.650741 255.842152 
L 199.219494 255.749311 
L 199.788247 256.532322 
L 200.357 255.284187 
L 200.925753 254.795132 
L 201.494505 255.384997 
L 202.063258 251.890545 
L 202.632011 252.559446 
L 203.200764 250.647302 
L 203.769517 250.804524 
L 204.33827 252.097186 
L 204.907023 252.37209 
L 205.475776 251.417162 
L 206.044529 252.90361 
L 207.182035 248.376854 
L 207.750788 256.256965 
L 208.319541 257.371434 
L 208.888294 257.881906 
L 209.457047 253.905483 
L 210.0258 246.778785 
L 210.594553 245.708545 
L 211.163306 247.190618 
L 211.732059 246.538965 
L 212.300812 242.807855 
L 212.869565 240.956924 
L 213.438318 240.549162 
L 214.007071 244.189597 
L 214.575824 248.859989 
L 215.144577 250.750865 
L 215.71333 245.596394 
L 216.282083 244.009801 
L 216.850836 243.476788 
L 217.988342 233.109185 
L 218.557095 229.813063 
L 219.125848 228.379466 
L 219.694601 232.829692 
L 220.263354 235.622632 
L 220.832107 236.466229 
L 221.40086 238.012999 
L 221.969613 238.642544 
L 223.107119 234.684313 
L 223.675872 231.746036 
L 224.244625 234.117571 
L 224.813378 231.669442 
L 225.382131 234.238066 
L 225.950884 232.133331 
L 226.519637 232.692007 
L 227.657143 230.965248 
L 228.225896 232.372272 
L 228.794649 233.00422 
L 229.363402 234.02926 
L 229.932155 236.410987 
L 230.500908 237.215383 
L 231.069661 234.822805 
L 231.638414 230.883186 
L 232.207167 230.028687 
L 232.77592 229.610959 
L 233.344673 227.488006 
L 233.913426 226.066074 
L 234.482179 227.443744 
L 235.050932 226.184798 
L 235.619685 226.90931 
L 236.188438 227.264221 
L 236.757191 226.939444 
L 237.325944 225.121919 
L 237.894697 225.250899 
L 238.46345 225.12283 
L 239.032203 225.344671 
L 239.600956 223.628019 
L 240.169709 222.962 
L 240.738462 222.871524 
L 241.307215 224.71059 
L 241.875968 225.577168 
L 242.44472 225.925132 
L 243.013473 225.513176 
L 243.582226 225.4115 
L 244.150979 224.522329 
L 244.719732 226.719097 
L 245.288485 226.083142 
L 245.857238 227.764559 
L 246.425991 227.157653 
L 246.994744 228.088876 
L 247.563497 228.115302 
L 248.13225 228.952631 
L 248.701003 229.289757 
L 249.269756 229.326781 
L 249.838509 229.655603 
L 250.976015 228.11927 
L 251.544768 225.580412 
L 252.113521 222.376711 
L 252.682274 219.996406 
L 253.251027 219.42149 
L 253.81978 215.26882 
L 254.388533 213.733818 
L 254.957286 213.375624 
L 255.526039 214.34844 
L 256.094792 215.603658 
L 256.663545 215.320165 
L 257.232298 212.754558 
L 258.369804 209.881483 
L 258.938557 209.689919 
L 259.50731 209.2048 
L 260.076063 208.118411 
L 260.644816 207.793757 
L 261.213569 207.056592 
L 261.782322 210.046356 
L 262.919828 205.518243 
L 263.488581 204.198296 
L 264.057334 203.579899 
L 264.626087 200.514317 
L 265.19484 195.973828 
L 265.763593 196.804785 
L 266.332346 196.764154 
L 266.901099 197.791463 
L 267.469852 197.82671 
L 268.038605 198.351884 
L 268.607358 198.376817 
L 269.176111 199.163304 
L 269.744864 198.722008 
L 270.313617 199.812353 
L 270.88237 200.454486 
L 271.451123 200.780219 
L 272.019876 200.031136 
L 272.588629 197.941627 
L 273.726135 198.762341 
L 274.294888 199.688511 
L 274.863641 201.221308 
L 275.432394 201.185868 
L 276.001147 196.86711 
L 276.5699 195.844648 
L 277.138653 196.817096 
L 277.707406 198.087953 
L 278.276159 196.770003 
L 278.844912 194.878817 
L 279.413665 192.101213 
L 279.982418 190.470985 
L 280.551171 189.444588 
L 281.119924 189.80792 
L 281.688677 189.244093 
L 282.25743 187.670975 
L 283.394935 190.561145 
L 283.963688 194.386635 
L 284.532441 194.176414 
L 285.101194 194.658547 
L 286.2387 183.374506 
L 287.376206 177.483354 
L 287.944959 178.785451 
L 288.513712 176.362086 
L 289.082465 175.756518 
L 289.651218 174.325945 
L 290.788724 182.907534 
L 291.357477 184.890437 
L 291.92623 184.468528 
L 292.494983 184.39786 
L 293.632489 185.128253 
L 294.201242 184.866345 
L 294.769995 183.366616 
L 295.338748 185.683407 
L 295.907501 187.344002 
L 297.045007 187.919881 
L 297.61376 185.755936 
L 298.182513 184.980557 
L 298.751266 182.288001 
L 299.320019 182.903347 
L 299.888772 181.533431 
L 300.457525 180.988779 
L 301.026278 181.598367 
L 301.595031 180.267699 
L 302.163784 180.239283 
L 302.732537 177.540664 
L 303.30129 183.626618 
L 303.870043 183.547038 
L 304.438796 183.753374 
L 305.007549 183.028578 
L 305.576302 184.542454 
L 306.145055 182.945664 
L 306.713808 177.43409 
L 307.282561 173.617325 
L 307.851314 174.949473 
L 308.420067 175.624442 
L 308.98882 175.383828 
L 309.557573 174.875728 
L 310.126326 175.149076 
L 310.695079 175.987968 
L 311.832585 176.798452 
L 312.401338 176.877366 
L 312.970091 175.515232 
L 314.107597 173.580682 
L 314.67635 172.265433 
L 315.245103 168.569583 
L 315.813856 167.031647 
L 316.382609 166.101606 
L 316.951362 166.68959 
L 317.520115 166.537875 
L 318.088868 165.550485 
L 318.657621 165.390646 
L 319.226374 166.008125 
L 319.795127 164.131015 
L 320.36388 162.760841 
L 320.932633 161.86891 
L 321.501386 158.902961 
L 322.070139 159.064609 
L 322.638892 160.050951 
L 323.207645 155.084793 
L 323.776398 152.062361 
L 324.345151 146.78225 
L 324.913903 143.592509 
L 325.482656 145.311629 
L 326.051409 142.112652 
L 326.620162 142.261395 
L 327.188915 143.429058 
L 328.326421 148.467287 
L 328.895174 148.427361 
L 329.463927 147.623463 
L 330.03268 147.216645 
L 330.601433 144.391663 
L 331.738939 137.36615 
L 332.307692 137.612716 
L 332.876445 138.583639 
L 333.445198 138.512835 
L 334.013951 139.776609 
L 334.582704 139.23716 
L 335.151457 139.417071 
L 335.72021 138.52218 
L 336.288963 138.375939 
L 336.857716 140.485495 
L 337.426469 139.47968 
L 337.995222 137.297556 
L 338.563975 136.811636 
L 339.132728 139.839064 
L 339.701481 140.187751 
L 340.270234 138.875314 
L 340.838987 138.339697 
L 341.40774 138.026896 
L 341.976493 140.015556 
L 342.545246 140.453434 
L 343.113999 139.833086 
L 343.682752 138.727522 
L 344.251505 138.445211 
L 344.820258 139.117764 
L 345.389011 138.669048 
L 345.957764 139.083732 
L 346.526517 139.71665 
L 347.09527 138.448371 
L 347.664023 136.777035 
L 348.232776 136.876669 
L 348.801529 137.803614 
L 349.370282 137.724551 
L 349.939035 137.912973 
L 350.507788 138.676752 
L 351.076541 136.803228 
L 351.645294 138.463875 
L 352.214047 138.361527 
L 352.7828 139.219594 
L 353.351553 139.803196 
L 353.920306 138.23543 
L 354.489059 139.941573 
L 355.057812 139.75251 
L 355.626565 142.644845 
L 356.195318 136.415384 
L 356.764071 134.391243 
L 357.332824 128.081007 
L 357.901577 123.129815 
L 358.47033 120.976211 
L 359.039083 119.72891 
L 360.176589 120.62137 
L 360.745342 120.959718 
L 361.314095 121.536321 
L 361.882848 122.81315 
L 362.451601 122.506753 
L 364.15786 117.362725 
L 364.726613 117.288832 
L 365.295366 117.510472 
L 366.432871 109.536791 
L 367.001624 109.391538 
L 367.570377 109.914482 
L 368.13913 109.555105 
L 368.707883 109.052473 
L 369.276636 107.020668 
L 369.845389 105.818702 
L 370.414142 106.031514 
L 370.982895 105.981029 
L 371.551648 104.599145 
L 372.689154 108.628942 
L 373.257907 108.798171 
L 373.82666 108.62215 
L 374.395413 105.564226 
L 374.964166 104.848865 
L 375.532919 103.698677 
L 376.101672 102.800322 
L 376.670425 102.654274 
L 377.239178 103.205725 
L 377.807931 100.58951 
L 378.376684 102.594276 
L 378.945437 102.629775 
L 379.51419 101.239212 
L 380.651696 100.095829 
L 381.220449 98.191407 
L 381.789202 99.296862 
L 382.926708 93.908943 
L 383.495461 92.421654 
L 384.064214 89.386388 
L 384.632967 88.699449 
L 385.770473 102.776184 
L 386.339226 105.137328 
L 386.907979 105.175502 
L 387.476732 105.471791 
L 388.045485 105.363182 
L 388.614238 106.118442 
L 389.182991 104.815498 
L 389.751744 108.165764 
L 390.320497 109.494596 
L 391.458003 107.142171 
L 392.595509 104.00643 
L 393.164262 105.069594 
L 393.733015 103.42458 
L 394.301768 104.188242 
L 394.870521 103.26118 
L 395.439274 100.598829 
L 396.008027 101.507615 
L 396.57678 101.937537 
L 397.145533 101.33637 
L 397.714286 103.545204 
L 397.714286 103.545204 
" clip-path="url(#p248fa20b41)" style="fill: none; stroke-dasharray: 5.55,2.4; stroke-dashoffset: 0; stroke: #ff8c00; stroke-opacity: 0.7; stroke-width: 1.5"/>
   </g>
   <g id="line2d_17">
    <path d="M 57.6 286.035557 
L 58.168753 285.400752 
L 58.737506 284.950033 
L 59.306259 283.768502 
L 59.875012 284.579974 
L 60.443765 284.933004 
L 61.012518 286.230939 
L 61.581271 284.468772 
L 62.150024 283.823588 
L 62.718777 281.698929 
L 63.28753 282.521614 
L 63.856283 281.444531 
L 64.425036 282.808339 
L 64.993789 283.706306 
L 65.562542 286.171426 
L 66.131295 287.453011 
L 66.700048 286.433916 
L 67.268801 289.626455 
L 68.406307 290.003178 
L 69.543813 288.429091 
L 70.681319 283.671893 
L 71.250072 284.121551 
L 71.818825 284.094596 
L 72.387578 284.384772 
L 72.956331 283.665792 
L 73.525084 283.599182 
L 74.093837 282.415538 
L 74.66259 282.825232 
L 75.231343 282.114666 
L 75.800096 282.512049 
L 76.368849 281.893912 
L 77.506355 281.310245 
L 78.075108 282.846688 
L 78.64386 278.754042 
L 79.212613 281.5333 
L 79.781366 282.058713 
L 80.350119 281.69584 
L 80.918872 281.679316 
L 81.487625 281.527859 
L 82.056378 280.334759 
L 82.625131 279.907745 
L 83.762637 277.949892 
L 84.33139 277.542343 
L 84.900143 277.830302 
L 85.468896 277.956173 
L 86.037649 279.880641 
L 86.606402 278.305042 
L 87.175155 278.266661 
L 87.743908 276.282983 
L 88.312661 275.351998 
L 88.881414 276.166262 
L 89.450167 274.867467 
L 90.01892 272.949772 
L 91.725179 274.599226 
L 92.293932 277.654759 
L 92.862685 278.925222 
L 93.431438 281.131969 
L 94.000191 282.833375 
L 94.568944 285.648539 
L 95.137697 285.012248 
L 95.70645 282.755262 
L 96.275203 282.321455 
L 96.843956 282.131598 
L 97.412709 283.525832 
L 97.981462 285.481637 
L 98.550215 285.66096 
L 99.118968 285.467407 
L 99.687721 286.275505 
L 100.256474 284.963856 
L 100.825227 284.961853 
L 101.39398 286.484912 
L 101.962733 285.281886 
L 102.531486 284.84965 
L 103.100239 284.691808 
L 103.668992 283.885816 
L 104.237745 283.504635 
L 105.375251 285.768918 
L 105.944004 286.420907 
L 106.512757 285.787523 
L 107.08151 284.893906 
L 107.650263 283.259297 
L 108.219016 284.698523 
L 108.787769 283.90534 
L 109.356522 286.133393 
L 109.925275 285.449395 
L 110.494028 286.517793 
L 111.062781 286.720272 
L 111.631534 282.332235 
L 112.200287 281.07597 
L 112.76904 281.863667 
L 113.337793 282.969017 
L 113.906546 281.989635 
L 114.475299 281.309741 
L 115.044052 278.237075 
L 115.612805 275.903404 
L 116.181558 276.22829 
L 117.319064 277.065354 
L 117.887817 279.611766 
L 118.45657 277.855603 
L 119.025323 275.451225 
L 119.594075 274.39329 
L 120.162828 272.865462 
L 120.731581 272.734381 
L 121.300334 271.625043 
L 121.869087 268.261465 
L 122.43784 266.848703 
L 123.006593 266.460787 
L 123.575346 263.950165 
L 124.144099 261.96743 
L 124.712852 263.476452 
L 125.281605 265.57327 
L 125.850358 267.123517 
L 126.419111 266.750556 
L 127.556617 268.18648 
L 128.12537 272.275759 
L 128.694123 271.350145 
L 129.262876 273.880013 
L 130.400382 276.884538 
L 130.969135 276.301427 
L 131.537888 278.332857 
L 132.106641 278.260916 
L 132.675394 276.447158 
L 133.244147 274.116575 
L 133.8129 275.782069 
L 134.381653 274.672912 
L 134.950406 275.016236 
L 135.519159 276.49427 
L 136.087912 274.724464 
L 136.656665 275.361414 
L 137.794171 272.559963 
L 138.362924 271.832349 
L 138.931677 270.6805 
L 139.50043 266.88658 
L 140.637936 272.994933 
L 141.206689 272.103228 
L 141.775442 271.488269 
L 142.344195 272.237875 
L 142.912948 271.486072 
L 143.481701 272.61346 
L 144.050454 271.891508 
L 144.619207 270.736925 
L 145.18796 271.099585 
L 146.325466 270.710538 
L 146.894219 271.812083 
L 147.462972 267.333311 
L 148.031725 266.792576 
L 149.169231 270.984642 
L 149.737984 271.718408 
L 150.87549 275.11435 
L 151.444243 274.865723 
L 152.012996 276.280262 
L 152.581749 276.886987 
L 153.150502 276.298325 
L 153.719255 276.522595 
L 154.288008 273.928573 
L 154.856761 272.555963 
L 155.425514 272.571589 
L 155.994267 271.533229 
L 156.56302 271.083803 
L 157.131773 273.415368 
L 157.700526 273.384683 
L 158.269279 273.63452 
L 158.838032 269.369756 
L 159.406785 270.171489 
L 159.975538 271.399008 
L 160.54429 273.722701 
L 161.113043 276.954889 
L 161.681796 277.516253 
L 162.250549 277.89918 
L 162.819302 278.89881 
L 163.388055 277.919052 
L 163.956808 279.464375 
L 164.525561 277.508382 
L 165.094314 278.280562 
L 165.663067 277.955495 
L 166.23182 277.169414 
L 166.800573 276.101242 
L 167.369326 276.960505 
L 167.938079 277.410927 
L 168.506832 278.249645 
L 169.644338 276.778429 
L 170.213091 278.700738 
L 170.781844 278.296195 
L 171.350597 273.512229 
L 171.91935 273.601832 
L 172.488103 276.971136 
L 173.056856 277.997443 
L 173.625609 276.821528 
L 174.763115 271.874634 
L 175.331868 271.215478 
L 175.900621 266.434808 
L 176.469374 268.774457 
L 177.038127 274.645381 
L 177.60688 274.538206 
L 178.744386 276.965514 
L 179.313139 280.267523 
L 179.881892 281.22616 
L 180.450645 281.356769 
L 181.019398 279.236737 
L 181.588151 279.428753 
L 182.156904 278.020321 
L 182.725657 273.507336 
L 183.29441 273.443887 
L 183.863163 272.82624 
L 184.431916 266.597154 
L 185.000669 268.590067 
L 185.569422 269.390191 
L 186.138175 268.947111 
L 187.275681 264.537011 
L 187.844434 266.870966 
L 188.413187 266.826329 
L 188.98194 263.906672 
L 189.550693 263.115363 
L 190.119446 260.338379 
L 190.688199 258.913894 
L 191.256952 254.945775 
L 191.825705 254.806487 
L 192.394458 251.080249 
L 192.963211 246.10428 
L 193.531964 246.893954 
L 194.100717 246.967143 
L 194.66947 247.844533 
L 195.238223 250.015121 
L 195.806976 254.352072 
L 196.375729 255.528233 
L 196.944482 254.227053 
L 197.513235 255.207173 
L 198.081988 255.274487 
L 199.219494 256.489804 
L 199.788247 256.380794 
L 200.357 257.014507 
L 200.925753 255.861404 
L 201.494505 255.273731 
L 202.063258 255.700867 
L 202.632011 257.573952 
L 203.200764 255.126668 
L 203.769517 244.585519 
L 204.33827 246.058415 
L 204.907023 246.382746 
L 205.475776 245.759102 
L 206.044529 247.688145 
L 206.613282 248.116756 
L 207.750788 246.14038 
L 208.319541 243.490612 
L 209.457047 245.929972 
L 210.0258 241.540177 
L 210.594553 241.579082 
L 211.163306 241.856274 
L 211.732059 241.748233 
L 212.300812 242.011557 
L 212.869565 241.248968 
L 213.438318 237.915673 
L 214.007071 240.713046 
L 214.575824 241.163972 
L 215.144577 239.397824 
L 216.282083 238.266985 
L 216.850836 237.34318 
L 217.419589 237.791062 
L 217.988342 236.846222 
L 219.125848 233.376425 
L 220.263354 234.901048 
L 220.832107 237.769974 
L 221.40086 233.435415 
L 221.969613 234.659962 
L 222.538366 234.440738 
L 223.107119 236.982033 
L 223.675872 237.775429 
L 224.244625 238.241057 
L 224.813378 239.410439 
L 225.382131 238.006252 
L 226.519637 235.613765 
L 227.657143 233.006378 
L 228.225896 231.654701 
L 228.794649 231.991814 
L 229.363402 230.102954 
L 229.932155 228.903438 
L 230.500908 228.320592 
L 231.069661 228.389114 
L 231.638414 229.017476 
L 232.207167 230.532101 
L 233.344673 230.334683 
L 233.913426 229.985297 
L 234.482179 228.565051 
L 235.050932 230.751195 
L 235.619685 231.74908 
L 236.757191 232.19269 
L 237.894697 229.5799 
L 238.46345 230.075198 
L 239.032203 234.916681 
L 239.600956 231.066917 
L 240.169709 228.154239 
L 240.738462 226.457524 
L 241.307215 222.966718 
L 241.875968 224.937232 
L 242.44472 228.26451 
L 243.013473 227.468147 
L 243.582226 225.918088 
L 244.150979 223.014205 
L 244.719732 221.147822 
L 245.288485 217.102818 
L 245.857238 216.045833 
L 246.425991 216.663054 
L 246.994744 215.415449 
L 247.563497 215.23557 
L 248.13225 214.87638 
L 249.269756 218.912744 
L 249.838509 221.304953 
L 250.407262 221.795494 
L 251.544768 220.257649 
L 252.113521 218.372874 
L 252.682274 217.930162 
L 253.251027 216.011032 
L 253.81978 212.343798 
L 254.388533 212.94229 
L 254.957286 218.072649 
L 255.526039 221.749015 
L 256.094792 222.784202 
L 257.232298 226.38716 
L 257.801051 225.869334 
L 258.369804 226.775657 
L 258.938557 224.946518 
L 259.50731 224.522665 
L 260.076063 222.422919 
L 260.644816 221.53418 
L 261.213569 217.912597 
L 261.782322 226.326315 
L 262.919828 224.594735 
L 263.488581 223.315755 
L 264.057334 221.2032 
L 265.19484 220.431285 
L 265.763593 219.369104 
L 266.901099 215.098867 
L 267.469852 214.231158 
L 268.038605 214.844682 
L 268.607358 212.354939 
L 269.176111 211.090357 
L 269.744864 212.105122 
L 270.313617 212.869398 
L 270.88237 215.303401 
L 271.451123 214.610523 
L 272.019876 213.65736 
L 272.588629 214.503897 
L 273.157382 214.738372 
L 273.726135 213.43983 
L 274.294888 212.865921 
L 274.863641 212.74606 
L 275.432394 211.826288 
L 276.001147 210.268901 
L 276.5699 209.064188 
L 277.138653 208.631532 
L 277.707406 206.946347 
L 278.276159 206.057279 
L 278.844912 205.490428 
L 279.413665 203.363526 
L 279.982418 200.528502 
L 280.551171 201.873407 
L 281.688677 194.485764 
L 282.25743 192.942962 
L 282.826183 188.185809 
L 283.394935 187.860432 
L 284.532441 188.576982 
L 285.101194 188.130276 
L 285.669947 187.310041 
L 286.2387 189.019887 
L 286.807453 185.937334 
L 287.376206 181.408949 
L 288.513712 180.169849 
L 289.082465 179.019157 
L 289.651218 178.741745 
L 290.219971 178.865426 
L 290.788724 180.189463 
L 291.357477 178.413395 
L 291.92623 175.087959 
L 292.494983 175.015863 
L 293.063736 177.086075 
L 293.632489 175.955035 
L 294.201242 175.715914 
L 294.769995 175.744969 
L 295.338748 175.903658 
L 295.907501 178.412613 
L 296.476254 180.123616 
L 297.045007 179.934502 
L 297.61376 177.737785 
L 298.182513 181.82804 
L 298.751266 182.161276 
L 299.888772 169.639325 
L 300.457525 165.933315 
L 301.595031 170.866934 
L 302.163784 171.937407 
L 302.732537 172.371193 
L 303.870043 174.058783 
L 304.438796 173.746899 
L 305.007549 174.312548 
L 305.576302 178.31678 
L 306.145055 178.372073 
L 306.713808 174.64833 
L 307.282561 174.409965 
L 307.851314 175.032394 
L 308.420067 175.160689 
L 308.98882 174.355369 
L 309.557573 175.421059 
L 310.126326 171.947921 
L 310.695079 170.738258 
L 311.263832 168.897978 
L 311.832585 169.868248 
L 312.401338 168.11783 
L 312.970091 167.823085 
L 313.538844 167.29857 
L 314.107597 168.09229 
L 314.67635 166.865734 
L 315.245103 167.731601 
L 315.813856 167.660597 
L 316.382609 168.354735 
L 316.951362 169.292362 
L 317.520115 168.589636 
L 318.088868 166.811597 
L 319.226374 168.293437 
L 319.795127 168.719456 
L 320.36388 166.448019 
L 320.932633 168.20351 
L 322.070139 166.108301 
L 322.638892 164.50236 
L 323.776398 163.58931 
L 324.345151 165.065838 
L 324.913903 164.382053 
L 325.482656 159.26913 
L 326.051409 157.742646 
L 326.620162 158.464967 
L 327.188915 158.81684 
L 327.757668 159.449797 
L 328.326421 154.881642 
L 328.895174 152.525248 
L 329.463927 151.67016 
L 330.03268 151.549827 
L 330.601433 147.679953 
L 331.738939 143.766468 
L 332.307692 143.66014 
L 332.876445 142.43527 
L 334.013951 141.310318 
L 334.582704 141.583885 
L 335.151457 140.819777 
L 336.288963 137.968196 
L 336.857716 134.845471 
L 337.426469 134.016718 
L 337.995222 133.653141 
L 338.563975 134.60613 
L 339.132728 134.375985 
L 339.701481 128.991531 
L 340.838987 136.239227 
L 341.40774 136.380609 
L 341.976493 136.361887 
L 342.545246 137.259795 
L 343.113999 137.055585 
L 343.682752 136.260709 
L 344.820258 132.737363 
L 345.389011 131.597004 
L 346.526517 128.958992 
L 347.09527 126.785049 
L 347.664023 123.746893 
L 348.232776 126.500683 
L 348.801529 128.333499 
L 349.370282 126.623007 
L 349.939035 122.419011 
L 350.507788 121.326811 
L 351.076541 121.010701 
L 351.645294 122.488361 
L 352.214047 124.479057 
L 352.7828 124.610861 
L 353.351553 124.498018 
L 353.920306 125.395261 
L 354.489059 123.946483 
L 355.626565 120.417767 
L 356.195318 118.617574 
L 356.764071 116.27618 
L 357.332824 118.918019 
L 357.901577 114.259763 
L 359.039083 112.354127 
L 359.607836 110.901898 
L 360.176589 108.489861 
L 361.314095 110.85571 
L 361.882848 108.772877 
L 362.451601 107.524276 
L 363.020354 105.870706 
L 363.589107 102.502876 
L 364.15786 102.581241 
L 364.726613 100.187675 
L 365.295366 100.31944 
L 365.864118 98.094656 
L 366.432871 99.209501 
L 367.001624 99.463563 
L 367.570377 102.770219 
L 368.13913 102.080657 
L 368.707883 101.085008 
L 369.276636 101.415219 
L 369.845389 97.935671 
L 370.414142 97.213964 
L 370.982895 97.114576 
L 371.551648 99.346423 
L 372.120401 102.563172 
L 373.257907 98.627042 
L 373.82666 97.722942 
L 374.395413 95.01178 
L 374.964166 94.203959 
L 375.532919 92.897241 
L 376.101672 92.711016 
L 376.670425 92.918606 
L 377.239178 92.43783 
L 377.807931 92.175915 
L 378.376684 91.770822 
L 378.945437 94.504908 
L 380.082943 90.137073 
L 380.651696 89.931705 
L 381.220449 88.400413 
L 381.789202 88.023646 
L 382.357955 92.277449 
L 382.926708 92.195083 
L 383.495461 93.171247 
L 384.064214 95.64188 
L 384.632967 96.375756 
L 385.20172 96.393554 
L 386.339226 93.229204 
L 386.907979 87.481062 
L 387.476732 83.668516 
L 388.045485 81.255149 
L 388.614238 81.442104 
L 389.182991 82.471927 
L 389.751744 81.239361 
L 390.320497 78.440132 
L 390.88925 77.383141 
L 392.026756 81.778713 
L 393.164262 81.753089 
L 393.733015 82.242603 
L 394.301768 80.086762 
L 394.870521 82.345222 
L 395.439274 77.938864 
L 396.008027 76.88383 
L 396.57678 78.041618 
L 397.145533 78.091341 
L 397.714286 77.957159 
L 397.714286 77.957159 
" clip-path="url(#p248fa20b41)" style="fill: none; stroke-dasharray: 5.55,2.4; stroke-dashoffset: 0; stroke: #dc143c; stroke-opacity: 0.7; stroke-width: 1.5"/>
   </g>
   <g id="line2d_18">
    <path d="M 57.6 286.786707 
L 58.168753 286.235004 
L 58.737506 284.672162 
L 59.306259 281.943977 
L 59.875012 280.74817 
L 60.443765 278.710658 
L 61.012518 277.463131 
L 61.581271 274.795966 
L 62.150024 273.258327 
L 62.718777 273.140489 
L 63.28753 272.519695 
L 63.856283 271.641755 
L 64.425036 272.725883 
L 64.993789 273.187103 
L 65.562542 274.33448 
L 66.131295 274.628262 
L 66.700048 274.139498 
L 67.268801 278.913337 
L 67.837554 279.440767 
L 68.406307 279.158876 
L 68.97506 279.486935 
L 69.543813 278.08251 
L 70.112566 280.937193 
L 70.681319 281.371988 
L 71.250072 281.506881 
L 71.818825 280.842607 
L 72.387578 279.77534 
L 72.956331 281.597551 
L 73.525084 281.968386 
L 74.093837 280.416026 
L 74.66259 283.902425 
L 75.231343 283.872458 
L 75.800096 284.489045 
L 76.368849 283.18499 
L 76.937602 282.732675 
L 77.506355 282.633294 
L 78.075108 282.291489 
L 78.64386 287.003804 
L 79.212613 287.294697 
L 79.781366 288.192186 
L 80.350119 288.163227 
L 80.918872 288.553495 
L 81.487625 287.926846 
L 82.056378 285.991941 
L 82.625131 285.705035 
L 83.193884 285.735093 
L 83.762637 283.238254 
L 84.33139 281.523787 
L 84.900143 280.972556 
L 85.468896 282.025147 
L 86.037649 282.653302 
L 86.606402 283.460127 
L 87.175155 285.090639 
L 87.743908 285.132006 
L 88.312661 283.796659 
L 89.450167 283.528915 
L 90.01892 284.0339 
L 90.587673 285.721928 
L 91.156426 286.464012 
L 91.725179 287.527905 
L 92.293932 288.347753 
L 92.862685 288.448582 
L 93.431438 288.037492 
L 94.000191 289.419291 
L 95.137697 298.887241 
L 95.70645 299.513108 
L 96.275203 301.434481 
L 96.843956 300.904505 
L 97.412709 300.118593 
L 97.981462 302.241791 
L 98.550215 302.200444 
L 100.256474 303.046219 
L 100.825227 304.069321 
L 101.39398 301.510668 
L 101.962733 302.667164 
L 102.531486 301.833344 
L 103.100239 303.605955 
L 103.668992 303.789078 
L 104.237745 303.033003 
L 104.806498 301.703524 
L 105.375251 298.230838 
L 105.944004 296.228891 
L 107.08151 295.549319 
L 108.219016 299.593994 
L 108.787769 299.690112 
L 109.356522 297.917249 
L 109.925275 297.740343 
L 110.494028 298.46722 
L 111.062781 302.901483 
L 111.631534 301.531426 
L 112.200287 301.956327 
L 112.76904 303.892233 
L 113.337793 303.593844 
L 113.906546 301.67695 
L 114.475299 298.254104 
L 115.044052 296.689969 
L 115.612805 300.704049 
L 116.181558 299.167561 
L 116.750311 301.47831 
L 117.887817 302.840419 
L 118.45657 302.913995 
L 119.025323 303.235191 
L 119.594075 306.527997 
L 120.162828 306.739433 
L 120.731581 304.211872 
L 121.300334 305.328629 
L 121.869087 304.779744 
L 122.43784 305.882167 
L 123.006593 306.39998 
L 123.575346 307.584 
L 124.144099 304.771453 
L 124.712852 304.508303 
L 125.281605 305.790373 
L 125.850358 306.257533 
L 126.987864 304.296202 
L 127.556617 302.412635 
L 128.12537 302.077416 
L 128.694123 304.102939 
L 129.262876 303.633711 
L 129.831629 303.440765 
L 130.400382 302.489301 
L 130.969135 300.083223 
L 132.106641 297.24045 
L 133.244147 296.371235 
L 134.381653 294.746275 
L 134.950406 293.03226 
L 136.087912 291.416935 
L 136.656665 292.304071 
L 137.225418 293.501933 
L 138.362924 291.160391 
L 138.931677 291.203309 
L 139.50043 290.965454 
L 140.069183 293.924973 
L 140.637936 294.395312 
L 141.206689 295.033574 
L 141.775442 295.493296 
L 142.344195 296.634707 
L 142.912948 297.298807 
L 143.481701 297.259056 
L 144.050454 298.605267 
L 144.619207 298.023041 
L 145.18796 297.650733 
L 145.756713 295.706224 
L 146.325466 294.805782 
L 147.462972 295.015382 
L 148.031725 292.491802 
L 149.737984 300.477097 
L 150.306737 302.455792 
L 150.87549 302.400996 
L 151.444243 299.867167 
L 152.012996 298.607451 
L 152.581749 295.129039 
L 153.150502 294.047807 
L 153.719255 294.623092 
L 154.856761 293.376863 
L 155.425514 294.067473 
L 155.994267 293.767306 
L 156.56302 295.696976 
L 157.131773 296.435725 
L 157.700526 294.570047 
L 158.269279 294.090046 
L 158.838032 294.750895 
L 159.975538 293.925826 
L 160.54429 292.121103 
L 161.113043 291.921584 
L 161.681796 292.59835 
L 162.250549 292.29587 
L 162.819302 290.704735 
L 163.388055 285.039359 
L 163.956808 282.937958 
L 164.525561 276.570108 
L 165.663067 274.532661 
L 166.23182 274.033732 
L 166.800573 275.274874 
L 167.369326 274.890978 
L 167.938079 275.296343 
L 168.506832 273.536644 
L 169.075585 275.533112 
L 169.644338 279.12509 
L 170.213091 278.8875 
L 170.781844 275.697881 
L 171.350597 275.334795 
L 171.91935 274.009775 
L 172.488103 277.877924 
L 173.056856 278.08408 
L 173.625609 277.139654 
L 174.194362 275.95409 
L 174.763115 272.208942 
L 175.331868 271.515432 
L 175.900621 273.403593 
L 176.469374 276.371151 
L 177.038127 276.185656 
L 177.60688 276.869506 
L 178.175633 274.603653 
L 178.744386 275.321153 
L 179.313139 274.729001 
L 180.450645 272.46148 
L 181.019398 269.923676 
L 181.588151 265.43892 
L 182.156904 261.943654 
L 183.29441 257.779972 
L 183.863163 258.927943 
L 184.431916 258.617204 
L 185.000669 260.149181 
L 185.569422 258.69288 
L 186.138175 258.0497 
L 186.706928 258.507592 
L 187.275681 259.739118 
L 187.844434 260.048979 
L 188.413187 262.715724 
L 188.98194 261.876146 
L 189.550693 262.15414 
L 190.688199 259.964661 
L 191.256952 257.772333 
L 191.825705 257.272983 
L 192.394458 255.511618 
L 193.531964 255.10697 
L 194.100717 252.535703 
L 194.66947 251.423269 
L 195.238223 249.178503 
L 195.806976 248.169574 
L 196.375729 247.638067 
L 196.944482 248.771065 
L 197.513235 248.362036 
L 198.081988 247.115097 
L 198.650741 247.579122 
L 199.219494 247.015858 
L 199.788247 249.752651 
L 200.357 250.353702 
L 201.494505 249.535761 
L 202.063258 247.936502 
L 203.200764 245.791919 
L 203.769517 249.489611 
L 204.33827 245.596277 
L 205.475776 243.989063 
L 206.044529 244.604823 
L 206.613282 242.999095 
L 207.182035 243.666555 
L 207.750788 243.772057 
L 208.319541 245.85816 
L 208.888294 245.689616 
L 209.457047 248.246453 
L 210.0258 241.436531 
L 210.594553 243.38683 
L 211.163306 244.213224 
L 211.732059 244.643236 
L 212.300812 243.91676 
L 212.869565 241.435781 
L 213.438318 240.292256 
L 214.575824 242.106544 
L 215.144577 242.474419 
L 215.71333 242.481366 
L 216.282083 241.795113 
L 216.850836 241.810493 
L 217.419589 241.277862 
L 217.988342 247.442232 
L 218.557095 249.781538 
L 219.125848 249.662362 
L 220.263354 247.647703 
L 220.832107 247.639424 
L 221.40086 249.002108 
L 223.107119 243.161448 
L 223.675872 243.046556 
L 224.244625 245.304131 
L 224.813378 243.035589 
L 225.382131 242.188237 
L 225.950884 240.266509 
L 226.519637 240.471224 
L 227.08839 238.965614 
L 227.657143 238.673784 
L 228.225896 236.108578 
L 228.794649 234.832719 
L 229.363402 231.9112 
L 230.500908 223.473131 
L 231.069661 227.314635 
L 231.638414 228.677235 
L 232.207167 230.395075 
L 232.77592 232.600458 
L 233.344673 233.183214 
L 234.482179 232.202009 
L 235.050932 232.896534 
L 236.188438 229.256714 
L 236.757191 227.293354 
L 237.325944 225.978487 
L 238.46345 232.956462 
L 239.032203 235.012398 
L 239.600956 235.543646 
L 240.169709 236.599223 
L 240.738462 236.095931 
L 241.307215 234.50128 
L 241.875968 230.231295 
L 242.44472 228.44415 
L 243.582226 221.68733 
L 244.150979 220.899123 
L 245.288485 222.380395 
L 246.425991 220.979014 
L 247.563497 220.797991 
L 248.13225 219.877566 
L 248.701003 221.375014 
L 249.269756 221.836945 
L 250.407262 221.026746 
L 250.976015 222.057351 
L 251.544768 221.511891 
L 252.113521 221.378096 
L 252.682274 220.552484 
L 253.251027 222.435786 
L 253.81978 221.865212 
L 254.388533 222.287412 
L 254.957286 222.264315 
L 255.526039 225.308526 
L 256.094792 226.782075 
L 256.663545 228.902597 
L 257.232298 227.366491 
L 258.369804 226.471794 
L 258.938557 224.942266 
L 259.50731 224.916448 
L 260.076063 224.133831 
L 260.644816 224.716658 
L 261.213569 223.603811 
L 262.351075 223.264358 
L 262.919828 219.751831 
L 263.488581 220.337113 
L 264.057334 218.716844 
L 264.626087 216.701428 
L 265.19484 215.266745 
L 265.763593 214.922504 
L 266.332346 212.943104 
L 266.901099 216.068323 
L 267.469852 216.887738 
L 268.038605 219.151742 
L 268.607358 222.306722 
L 269.176111 221.12669 
L 269.744864 222.07564 
L 270.313617 220.314106 
L 270.88237 222.29644 
L 271.451123 223.863308 
L 272.019876 223.638114 
L 272.588629 224.291938 
L 273.157382 223.886412 
L 273.726135 219.589562 
L 274.863641 217.314868 
L 275.432394 217.47377 
L 276.001147 215.668407 
L 276.5699 215.496987 
L 277.138653 216.228737 
L 277.707406 217.541665 
L 278.276159 216.501147 
L 278.844912 215.781385 
L 279.413665 217.358406 
L 279.982418 216.578459 
L 281.119924 217.284274 
L 281.688677 218.053656 
L 282.25743 218.551719 
L 282.826183 217.908629 
L 283.394935 218.385605 
L 283.963688 219.610404 
L 284.532441 219.685492 
L 285.101194 221.961938 
L 285.669947 222.873431 
L 286.2387 221.627551 
L 286.807453 222.042345 
L 287.944959 222.581536 
L 288.513712 222.038739 
L 289.082465 222.489154 
L 289.651218 224.598354 
L 290.219971 223.98169 
L 290.788724 222.754765 
L 291.357477 222.906209 
L 291.92623 222.216556 
L 292.494983 220.899156 
L 293.063736 217.898761 
L 293.632489 216.670751 
L 294.201242 216.976339 
L 294.769995 215.760705 
L 295.338748 217.45042 
L 295.907501 217.468147 
L 296.476254 218.373003 
L 297.045007 218.746158 
L 297.61376 216.377919 
L 298.182513 216.313028 
L 298.751266 215.842179 
L 299.320019 216.526067 
L 300.457525 212.289034 
L 301.026278 208.683168 
L 301.595031 208.913849 
L 302.163784 211.61822 
L 302.732537 213.156129 
L 303.30129 208.13542 
L 303.870043 205.334706 
L 304.438796 203.540523 
L 305.007549 204.520397 
L 305.576302 206.767224 
L 306.145055 206.626217 
L 306.713808 205.83211 
L 307.282561 205.399991 
L 307.851314 206.102775 
L 308.420067 205.316979 
L 308.98882 204.895038 
L 309.557573 199.315272 
L 310.126326 199.130655 
L 310.695079 196.403304 
L 311.263832 195.291226 
L 311.832585 201.885163 
L 312.401338 203.234424 
L 313.538844 200.390701 
L 314.107597 199.562478 
L 315.245103 199.242367 
L 315.813856 199.240707 
L 316.382609 196.984308 
L 317.520115 199.820903 
L 318.088868 202.050242 
L 319.795127 196.114298 
L 320.36388 196.268366 
L 320.932633 197.936877 
L 321.501386 197.878404 
L 322.070139 199.818512 
L 322.638892 197.931449 
L 323.207645 195.434869 
L 323.776398 194.105565 
L 324.345151 193.787374 
L 324.913903 193.832747 
L 326.051409 195.603536 
L 326.620162 194.758891 
L 327.188915 195.99677 
L 327.757668 194.99674 
L 328.326421 189.216207 
L 328.895174 188.406667 
L 329.463927 187.214324 
L 330.03268 186.854521 
L 330.601433 186.05114 
L 331.170186 186.157093 
L 331.738939 184.841787 
L 332.307692 183.155419 
L 332.876445 180.837484 
L 333.445198 182.659617 
L 334.013951 178.335553 
L 334.582704 176.872681 
L 335.151457 176.986887 
L 335.72021 176.616356 
L 336.288963 177.459514 
L 336.857716 176.351501 
L 337.426469 177.96172 
L 337.995222 174.166946 
L 338.563975 174.053645 
L 339.132728 173.686416 
L 339.701481 174.867308 
L 340.270234 173.192967 
L 340.838987 172.950905 
L 341.40774 170.868388 
L 341.976493 167.936354 
L 342.545246 168.485763 
L 343.113999 167.934635 
L 343.682752 164.438756 
L 344.251505 167.536031 
L 344.820258 168.199555 
L 345.389011 169.433744 
L 345.957764 168.65991 
L 346.526517 168.137702 
L 347.09527 167.785305 
L 347.664023 167.197179 
L 348.232776 168.028653 
L 348.801529 165.1865 
L 349.370282 161.471727 
L 349.939035 162.111896 
L 350.507788 162.574234 
L 351.076541 162.353874 
L 352.214047 161.085039 
L 352.7828 158.677966 
L 353.351553 158.685043 
L 353.920306 160.754725 
L 354.489059 159.851614 
L 355.057812 160.912541 
L 355.626565 160.312989 
L 356.764071 159.811416 
L 357.332824 158.677314 
L 357.901577 157.840172 
L 358.47033 158.073497 
L 359.039083 157.506659 
L 359.607836 155.45652 
L 360.176589 154.439014 
L 360.745342 153.109005 
L 361.314095 152.384791 
L 361.882848 153.030718 
L 362.451601 150.62906 
L 363.020354 150.91974 
L 363.589107 151.583174 
L 364.15786 151.88285 
L 364.726613 148.672596 
L 365.295366 147.665321 
L 365.864118 145.917785 
L 366.432871 144.885985 
L 367.570377 148.287311 
L 368.13913 144.829405 
L 368.707883 143.960953 
L 369.276636 144.369225 
L 370.414142 141.125851 
L 370.982895 140.624931 
L 371.551648 141.47523 
L 372.120401 141.440617 
L 372.689154 139.632326 
L 373.257907 141.058388 
L 373.82666 141.339581 
L 374.395413 138.796923 
L 374.964166 137.61746 
L 376.101672 133.689454 
L 376.670425 134.10554 
L 377.239178 131.815736 
L 377.807931 131.370324 
L 378.376684 130.073985 
L 378.945437 129.738325 
L 379.51419 130.00678 
L 380.082943 130.092015 
L 381.220449 130.753252 
L 381.789202 129.448777 
L 382.357955 126.056317 
L 382.926708 125.400283 
L 383.495461 125.465781 
L 384.064214 125.82877 
L 384.632967 127.655524 
L 385.20172 126.765377 
L 385.770473 126.192904 
L 386.907979 124.112617 
L 387.476732 122.627971 
L 388.045485 121.948038 
L 388.614238 124.126711 
L 389.182991 123.949592 
L 390.320497 116.808062 
L 390.88925 116.718769 
L 391.458003 117.168415 
L 392.026756 116.599884 
L 392.595509 119.572806 
L 393.164262 117.847288 
L 393.733015 116.714976 
L 394.301768 113.343442 
L 394.870521 112.292474 
L 395.439274 113.698431 
L 396.008027 113.436497 
L 396.57678 112.117416 
L 397.145533 111.409261 
L 397.714286 111.693032 
L 397.714286 111.693032 
" clip-path="url(#p248fa20b41)" style="fill: none; stroke-dasharray: 5.55,2.4; stroke-dashoffset: 0; stroke: #32cd32; stroke-opacity: 0.7; stroke-width: 1.5"/>
   </g>
   <g id="patch_3">
    <path d="M 57.6 307.584 
L 57.6 41.472 
" style="fill: none; stroke: #000000; stroke-width: 0.8; stroke-linejoin: miter; stroke-linecap: square"/>
   </g>
   <g id="patch_4">
    <path d="M 414.72 307.584 
L 414.72 41.472 
" style="fill: none; stroke: #000000; stroke-width: 0.8; stroke-linejoin: miter; stroke-linecap: square"/>
   </g>
   <g id="patch_5">
    <path d="M 57.6 307.584 
L 414.72 307.584 
" style="fill: none; stroke: #000000; stroke-width: 0.8; stroke-linejoin: miter; stroke-linecap: square"/>
   </g>
   <g id="patch_6">
    <path d="M 57.6 41.472 
L 414.72 41.472 
" style="fill: none; stroke: #000000; stroke-width: 0.8; stroke-linejoin: miter; stroke-linecap: square"/>
   </g>
   <g id="text_16">
    <!-- True Movement vs. Actual Movement Along X-Axis -->
    <g transform="translate(85.69125 35.472) scale(0.12 -0.12)">
     <defs>
      <path id="DejaVuSans-75" d="M 544 1381 
L 544 3500 
L 1119 3500 
L 1119 1403 
Q 1119 906 1312 657 
Q 1506 409 1894 409 
Q 2359 409 2629 706 
Q 2900 1003 2900 1516 
L 2900 3500 
L 3475 3500 
L 3475 0 
L 2900 0 
L 2900 538 
Q 2691 219 2414 64 
Q 2138 -91 1772 -91 
Q 1169 -91 856 284 
Q 544 659 544 1381 
z
M 1991 3584 
L 1991 3584 
z
" transform="scale(0.015625)"/>
      <path id="DejaVuSans-4d" d="M 628 4666 
L 1569 4666 
L 2759 1491 
L 3956 4666 
L 4897 4666 
L 4897 0 
L 4281 0 
L 4281 4097 
L 3078 897 
L 2444 897 
L 1241 4097 
L 1241 0 
L 628 0 
L 628 4666 
z
" transform="scale(0.015625)"/>
      <path id="DejaVuSans-76" d="M 191 3500 
L 800 3500 
L 1894 563 
L 2988 3500 
L 3597 3500 
L 2284 0 
L 1503 0 
L 191 3500 
z
" transform="scale(0.015625)"/>
      <path id="DejaVuSans-2e" d="M 684 794 
L 1344 794 
L 1344 0 
L 684 0 
L 684 794 
z
" transform="scale(0.015625)"/>
      <path id="DejaVuSans-41" d="M 2188 4044 
L 1331 1722 
L 3047 1722 
L 2188 4044 
z
M 1831 4666 
L 2547 4666 
L 4325 0 
L 3669 0 
L 3244 1197 
L 1141 1197 
L 716 0 
L 50 0 
L 1831 4666 
z
" transform="scale(0.015625)"/>
      <path id="DejaVuSans-6c" d="M 603 4863 
L 1178 4863 
L 1178 0 
L 603 0 
L 603 4863 
z
" transform="scale(0.015625)"/>
      <path id="DejaVuSans-67" d="M 2906 1791 
Q 2906 2416 2648 2759 
Q 2391 3103 1925 3103 
Q 1463 3103 1205 2759 
Q 947 2416 947 1791 
Q 947 1169 1205 825 
Q 1463 481 1925 481 
Q 2391 481 2648 825 
Q 2906 1169 2906 1791 
z
M 3481 434 
Q 3481 -459 3084 -895 
Q 2688 -1331 1869 -1331 
Q 1566 -1331 1297 -1286 
Q 1028 -1241 775 -1147 
L 775 -588 
Q 1028 -725 1275 -790 
Q 1522 -856 1778 -856 
Q 2344 -856 2625 -561 
Q 2906 -266 2906 331 
L 2906 616 
Q 2728 306 2450 153 
Q 2172 0 1784 0 
Q 1141 0 747 490 
Q 353 981 353 1791 
Q 353 2603 747 3093 
Q 1141 3584 1784 3584 
Q 2172 3584 2450 3431 
Q 2728 3278 2906 2969 
L 2906 3500 
L 3481 3500 
L 3481 434 
z
" transform="scale(0.015625)"/>
      <path id="DejaVuSans-78" d="M 3513 3500 
L 2247 1797 
L 3578 0 
L 2900 0 
L 1881 1375 
L 863 0 
L 184 0 
L 1544 1831 
L 300 3500 
L 978 3500 
L 1906 2253 
L 2834 3500 
L 3513 3500 
z
" transform="scale(0.015625)"/>
     </defs>
     <use xlink:href="#DejaVuSans-54"/>
     <use xlink:href="#DejaVuSans-72" x="46.333984"/>
     <use xlink:href="#DejaVuSans-75" x="87.447266"/>
     <use xlink:href="#DejaVuSans-65" x="150.826172"/>
     <use xlink:href="#DejaVuSans-20" x="212.349609"/>
     <use xlink:href="#DejaVuSans-4d" x="244.136719"/>
     <use xlink:href="#DejaVuSans-6f" x="330.416016"/>
     <use xlink:href="#DejaVuSans-76" x="391.597656"/>
     <use xlink:href="#DejaVuSans-65" x="450.777344"/>
     <use xlink:href="#DejaVuSans-6d" x="512.300781"/>
     <use xlink:href="#DejaVuSans-65" x="609.712891"/>
     <use xlink:href="#DejaVuSans-6e" x="671.236328"/>
     <use xlink:href="#DejaVuSans-74" x="734.615234"/>
     <use xlink:href="#DejaVuSans-20" x="773.824219"/>
     <use xlink:href="#DejaVuSans-76" x="805.611328"/>
     <use xlink:href="#DejaVuSans-73" x="864.791016"/>
     <use xlink:href="#DejaVuSans-2e" x="916.890625"/>
     <use xlink:href="#DejaVuSans-20" x="948.677734"/>
     <use xlink:href="#DejaVuSans-41" x="980.464844"/>
     <use xlink:href="#DejaVuSans-63" x="1047.123047"/>
     <use xlink:href="#DejaVuSans-74" x="1102.103516"/>
     <use xlink:href="#DejaVuSans-75" x="1141.3125"/>
     <use xlink:href="#DejaVuSans-61" x="1204.691406"/>
     <use xlink:href="#DejaVuSans-6c" x="1265.970703"/>
     <use xlink:href="#DejaVuSans-20" x="1293.753906"/>
     <use xlink:href="#DejaVuSans-4d" x="1325.541016"/>
     <use xlink:href="#DejaVuSans-6f" x="1411.820312"/>
     <use xlink:href="#DejaVuSans-76" x="1473.001953"/>
     <use xlink:href="#DejaVuSans-65" x="1532.181641"/>
     <use xlink:href="#DejaVuSans-6d" x="1593.705078"/>
     <use xlink:href="#DejaVuSans-65" x="1691.117188"/>
     <use xlink:href="#DejaVuSans-6e" x="1752.640625"/>
     <use xlink:href="#DejaVuSans-74" x="1816.019531"/>
     <use xlink:href="#DejaVuSans-20" x="1855.228516"/>
     <use xlink:href="#DejaVuSans-41" x="1887.015625"/>
     <use xlink:href="#DejaVuSans-6c" x="1955.423828"/>
     <use xlink:href="#DejaVuSans-6f" x="1983.207031"/>
     <use xlink:href="#DejaVuSans-6e" x="2044.388672"/>
     <use xlink:href="#DejaVuSans-67" x="2107.767578"/>
     <use xlink:href="#DejaVuSans-20" x="2171.244141"/>
     <use xlink:href="#DejaVuSans-58" x="2203.03125"/>
     <use xlink:href="#DejaVuSans-2d" x="2266.537109"/>
     <use xlink:href="#DejaVuSans-41" x="2300.371094"/>
     <use xlink:href="#DejaVuSans-78" x="2368.779297"/>
     <use xlink:href="#DejaVuSans-69" x="2427.958984"/>
     <use xlink:href="#DejaVuSans-73" x="2455.742188"/>
    </g>
   </g>
   <g id="legend_1">
    <g id="patch_7">
     <path d="M 64.6 122.862625 
L 237.182813 122.862625 
Q 239.182813 122.862625 239.182813 120.862625 
L 239.182813 48.472 
Q 239.182813 46.472 237.182813 46.472 
L 64.6 46.472 
Q 62.6 46.472 62.6 48.472 
L 62.6 120.862625 
Q 62.6 122.862625 64.6 122.862625 
z
" style="fill: #ffffff; opacity: 0.8; stroke: #cccccc; stroke-linejoin: miter"/>
    </g>
    <g id="line2d_19">
     <path d="M 66.6 54.570438 
L 76.6 54.570438 
L 86.6 54.570438 
" style="fill: none; stroke: #000000; stroke-width: 2; stroke-linecap: square"/>
    </g>
    <g id="text_17">
     <!-- Ground Truth -->
     <g transform="translate(94.6 58.070438) scale(0.1 -0.1)">
      <defs>
       <path id="DejaVuSans-47" d="M 3809 666 
L 3809 1919 
L 2778 1919 
L 2778 2438 
L 4434 2438 
L 4434 434 
Q 4069 175 3628 42 
Q 3188 -91 2688 -91 
Q 1594 -91 976 548 
Q 359 1188 359 2328 
Q 359 3472 976 4111 
Q 1594 4750 2688 4750 
Q 3144 4750 3555 4637 
Q 3966 4525 4313 4306 
L 4313 3634 
Q 3963 3931 3569 4081 
Q 3175 4231 2741 4231 
Q 1884 4231 1454 3753 
Q 1025 3275 1025 2328 
Q 1025 1384 1454 906 
Q 1884 428 2741 428 
Q 3075 428 3337 486 
Q 3600 544 3809 666 
z
" transform="scale(0.015625)"/>
       <path id="DejaVuSans-68" d="M 3513 2113 
L 3513 0 
L 2938 0 
L 2938 2094 
Q 2938 2591 2744 2837 
Q 2550 3084 2163 3084 
Q 1697 3084 1428 2787 
Q 1159 2491 1159 1978 
L 1159 0 
L 581 0 
L 581 4863 
L 1159 4863 
L 1159 2956 
Q 1366 3272 1645 3428 
Q 1925 3584 2291 3584 
Q 2894 3584 3203 3211 
Q 3513 2838 3513 2113 
z
" transform="scale(0.015625)"/>
      </defs>
      <use xlink:href="#DejaVuSans-47"/>
      <use xlink:href="#DejaVuSans-72" x="77.490234"/>
      <use xlink:href="#DejaVuSans-6f" x="116.353516"/>
      <use xlink:href="#DejaVuSans-75" x="177.535156"/>
      <use xlink:href="#DejaVuSans-6e" x="240.914062"/>
      <use xlink:href="#DejaVuSans-64" x="304.292969"/>
      <use xlink:href="#DejaVuSans-20" x="367.769531"/>
      <use xlink:href="#DejaVuSans-54" x="399.556641"/>
      <use xlink:href="#DejaVuSans-72" x="445.890625"/>
      <use xlink:href="#DejaVuSans-75" x="487.003906"/>
      <use xlink:href="#DejaVuSans-74" x="550.382812"/>
      <use xlink:href="#DejaVuSans-68" x="589.591797"/>
     </g>
    </g>
    <g id="line2d_20">
     <path d="M 66.6 69.248563 
L 76.6 69.248563 
L 86.6 69.248563 
" style="fill: none; stroke-dasharray: 5.55,2.4; stroke-dashoffset: 0; stroke: #4169e1; stroke-opacity: 0.7; stroke-width: 1.5"/>
    </g>
    <g id="text_18">
     <!-- Downsampling Level = 0.01 -->
     <g transform="translate(94.6 72.748563) scale(0.1 -0.1)">
      <defs>
       <path id="DejaVuSans-44" d="M 1259 4147 
L 1259 519 
L 2022 519 
Q 2988 519 3436 956 
Q 3884 1394 3884 2338 
Q 3884 3275 3436 3711 
Q 2988 4147 2022 4147 
L 1259 4147 
z
M 628 4666 
L 1925 4666 
Q 3281 4666 3915 4102 
Q 4550 3538 4550 2338 
Q 4550 1131 3912 565 
Q 3275 0 1925 0 
L 628 0 
L 628 4666 
z
" transform="scale(0.015625)"/>
       <path id="DejaVuSans-77" d="M 269 3500 
L 844 3500 
L 1563 769 
L 2278 3500 
L 2956 3500 
L 3675 769 
L 4391 3500 
L 4966 3500 
L 4050 0 
L 3372 0 
L 2619 2869 
L 1863 0 
L 1184 0 
L 269 3500 
z
" transform="scale(0.015625)"/>
       <path id="DejaVuSans-70" d="M 1159 525 
L 1159 -1331 
L 581 -1331 
L 581 3500 
L 1159 3500 
L 1159 2969 
Q 1341 3281 1617 3432 
Q 1894 3584 2278 3584 
Q 2916 3584 3314 3078 
Q 3713 2572 3713 1747 
Q 3713 922 3314 415 
Q 2916 -91 2278 -91 
Q 1894 -91 1617 61 
Q 1341 213 1159 525 
z
M 3116 1747 
Q 3116 2381 2855 2742 
Q 2594 3103 2138 3103 
Q 1681 3103 1420 2742 
Q 1159 2381 1159 1747 
Q 1159 1113 1420 752 
Q 1681 391 2138 391 
Q 2594 391 2855 752 
Q 3116 1113 3116 1747 
z
" transform="scale(0.015625)"/>
       <path id="DejaVuSans-4c" d="M 628 4666 
L 1259 4666 
L 1259 531 
L 3531 531 
L 3531 0 
L 628 0 
L 628 4666 
z
" transform="scale(0.015625)"/>
       <path id="DejaVuSans-3d" d="M 678 2906 
L 4684 2906 
L 4684 2381 
L 678 2381 
L 678 2906 
z
M 678 1631 
L 4684 1631 
L 4684 1100 
L 678 1100 
L 678 1631 
z
" transform="scale(0.015625)"/>
      </defs>
      <use xlink:href="#DejaVuSans-44"/>
      <use xlink:href="#DejaVuSans-6f" x="77.001953"/>
      <use xlink:href="#DejaVuSans-77" x="138.183594"/>
      <use xlink:href="#DejaVuSans-6e" x="219.970703"/>
      <use xlink:href="#DejaVuSans-73" x="283.349609"/>
      <use xlink:href="#DejaVuSans-61" x="335.449219"/>
      <use xlink:href="#DejaVuSans-6d" x="396.728516"/>
      <use xlink:href="#DejaVuSans-70" x="494.140625"/>
      <use xlink:href="#DejaVuSans-6c" x="557.617188"/>
      <use xlink:href="#DejaVuSans-69" x="585.400391"/>
      <use xlink:href="#DejaVuSans-6e" x="613.183594"/>
      <use xlink:href="#DejaVuSans-67" x="676.5625"/>
      <use xlink:href="#DejaVuSans-20" x="740.039062"/>
      <use xlink:href="#DejaVuSans-4c" x="771.826172"/>
      <use xlink:href="#DejaVuSans-65" x="825.789062"/>
      <use xlink:href="#DejaVuSans-76" x="887.3125"/>
      <use xlink:href="#DejaVuSans-65" x="946.492188"/>
      <use xlink:href="#DejaVuSans-6c" x="1008.015625"/>
      <use xlink:href="#DejaVuSans-20" x="1035.798828"/>
      <use xlink:href="#DejaVuSans-3d" x="1067.585938"/>
      <use xlink:href="#DejaVuSans-20" x="1151.375"/>
      <use xlink:href="#DejaVuSans-30" x="1183.162109"/>
      <use xlink:href="#DejaVuSans-2e" x="1246.785156"/>
      <use xlink:href="#DejaVuSans-30" x="1278.572266"/>
      <use xlink:href="#DejaVuSans-31" x="1342.195312"/>
     </g>
    </g>
    <g id="line2d_21">
     <path d="M 66.6 83.926688 
L 76.6 83.926688 
L 86.6 83.926688 
" style="fill: none; stroke-dasharray: 5.55,2.4; stroke-dashoffset: 0; stroke: #ff8c00; stroke-opacity: 0.7; stroke-width: 1.5"/>
    </g>
    <g id="text_19">
     <!-- Downsampling Level = 0.02 -->
     <g transform="translate(94.6 87.426688) scale(0.1 -0.1)">
      <use xlink:href="#DejaVuSans-44"/>
      <use xlink:href="#DejaVuSans-6f" x="77.001953"/>
      <use xlink:href="#DejaVuSans-77" x="138.183594"/>
      <use xlink:href="#DejaVuSans-6e" x="219.970703"/>
      <use xlink:href="#DejaVuSans-73" x="283.349609"/>
      <use xlink:href="#DejaVuSans-61" x="335.449219"/>
      <use xlink:href="#DejaVuSans-6d" x="396.728516"/>
      <use xlink:href="#DejaVuSans-70" x="494.140625"/>
      <use xlink:href="#DejaVuSans-6c" x="557.617188"/>
      <use xlink:href="#DejaVuSans-69" x="585.400391"/>
      <use xlink:href="#DejaVuSans-6e" x="613.183594"/>
      <use xlink:href="#DejaVuSans-67" x="676.5625"/>
      <use xlink:href="#DejaVuSans-20" x="740.039062"/>
      <use xlink:href="#DejaVuSans-4c" x="771.826172"/>
      <use xlink:href="#DejaVuSans-65" x="825.789062"/>
      <use xlink:href="#DejaVuSans-76" x="887.3125"/>
      <use xlink:href="#DejaVuSans-65" x="946.492188"/>
      <use xlink:href="#DejaVuSans-6c" x="1008.015625"/>
      <use xlink:href="#DejaVuSans-20" x="1035.798828"/>
      <use xlink:href="#DejaVuSans-3d" x="1067.585938"/>
      <use xlink:href="#DejaVuSans-20" x="1151.375"/>
      <use xlink:href="#DejaVuSans-30" x="1183.162109"/>
      <use xlink:href="#DejaVuSans-2e" x="1246.785156"/>
      <use xlink:href="#DejaVuSans-30" x="1278.572266"/>
      <use xlink:href="#DejaVuSans-32" x="1342.195312"/>
     </g>
    </g>
    <g id="line2d_22">
     <path d="M 66.6 98.604813 
L 76.6 98.604813 
L 86.6 98.604813 
" style="fill: none; stroke-dasharray: 5.55,2.4; stroke-dashoffset: 0; stroke: #dc143c; stroke-opacity: 0.7; stroke-width: 1.5"/>
    </g>
    <g id="text_20">
     <!-- Downsampling Level = 0.06 -->
     <g transform="translate(94.6 102.104813) scale(0.1 -0.1)">
      <use xlink:href="#DejaVuSans-44"/>
      <use xlink:href="#DejaVuSans-6f" x="77.001953"/>
      <use xlink:href="#DejaVuSans-77" x="138.183594"/>
      <use xlink:href="#DejaVuSans-6e" x="219.970703"/>
      <use xlink:href="#DejaVuSans-73" x="283.349609"/>
      <use xlink:href="#DejaVuSans-61" x="335.449219"/>
      <use xlink:href="#DejaVuSans-6d" x="396.728516"/>
      <use xlink:href="#DejaVuSans-70" x="494.140625"/>
      <use xlink:href="#DejaVuSans-6c" x="557.617188"/>
      <use xlink:href="#DejaVuSans-69" x="585.400391"/>
      <use xlink:href="#DejaVuSans-6e" x="613.183594"/>
      <use xlink:href="#DejaVuSans-67" x="676.5625"/>
      <use xlink:href="#DejaVuSans-20" x="740.039062"/>
      <use xlink:href="#DejaVuSans-4c" x="771.826172"/>
      <use xlink:href="#DejaVuSans-65" x="825.789062"/>
      <use xlink:href="#DejaVuSans-76" x="887.3125"/>
      <use xlink:href="#DejaVuSans-65" x="946.492188"/>
      <use xlink:href="#DejaVuSans-6c" x="1008.015625"/>
      <use xlink:href="#DejaVuSans-20" x="1035.798828"/>
      <use xlink:href="#DejaVuSans-3d" x="1067.585938"/>
      <use xlink:href="#DejaVuSans-20" x="1151.375"/>
      <use xlink:href="#DejaVuSans-30" x="1183.162109"/>
      <use xlink:href="#DejaVuSans-2e" x="1246.785156"/>
      <use xlink:href="#DejaVuSans-30" x="1278.572266"/>
      <use xlink:href="#DejaVuSans-36" x="1342.195312"/>
     </g>
    </g>
    <g id="line2d_23">
     <path d="M 66.6 113.282938 
L 76.6 113.282938 
L 86.6 113.282938 
" style="fill: none; stroke-dasharray: 5.55,2.4; stroke-dashoffset: 0; stroke: #32cd32; stroke-opacity: 0.7; stroke-width: 1.5"/>
    </g>
    <g id="text_21">
     <!-- Downsampling Level = 0.1 -->
     <g transform="translate(94.6 116.782938) scale(0.1 -0.1)">
      <use xlink:href="#DejaVuSans-44"/>
      <use xlink:href="#DejaVuSans-6f" x="77.001953"/>
      <use xlink:href="#DejaVuSans-77" x="138.183594"/>
      <use xlink:href="#DejaVuSans-6e" x="219.970703"/>
      <use xlink:href="#DejaVuSans-73" x="283.349609"/>
      <use xlink:href="#DejaVuSans-61" x="335.449219"/>
      <use xlink:href="#DejaVuSans-6d" x="396.728516"/>
      <use xlink:href="#DejaVuSans-70" x="494.140625"/>
      <use xlink:href="#DejaVuSans-6c" x="557.617188"/>
      <use xlink:href="#DejaVuSans-69" x="585.400391"/>
      <use xlink:href="#DejaVuSans-6e" x="613.183594"/>
      <use xlink:href="#DejaVuSans-67" x="676.5625"/>
      <use xlink:href="#DejaVuSans-20" x="740.039062"/>
      <use xlink:href="#DejaVuSans-4c" x="771.826172"/>
      <use xlink:href="#DejaVuSans-65" x="825.789062"/>
      <use xlink:href="#DejaVuSans-76" x="887.3125"/>
      <use xlink:href="#DejaVuSans-65" x="946.492188"/>
      <use xlink:href="#DejaVuSans-6c" x="1008.015625"/>
      <use xlink:href="#DejaVuSans-20" x="1035.798828"/>
      <use xlink:href="#DejaVuSans-3d" x="1067.585938"/>
      <use xlink:href="#DejaVuSans-20" x="1151.375"/>
      <use xlink:href="#DejaVuSans-30" x="1183.162109"/>
      <use xlink:href="#DejaVuSans-2e" x="1246.785156"/>
      <use xlink:href="#DejaVuSans-31" x="1278.572266"/>
     </g>
    </g>
   </g>
  </g>
 </g>
 <defs>
  <clipPath id="p248fa20b41">
   <rect x="57.6" y="41.472" width="357.12" height="266.112"/>
  </clipPath>
 </defs>
</svg>
