<?xml version="1.0" encoding="utf-8" standalone="no"?>
<!DOCTYPE svg PUBLIC "-//W3C//DTD SVG 1.1//EN"
  "http://www.w3.org/Graphics/SVG/1.1/DTD/svg11.dtd">
<svg xmlns:xlink="http://www.w3.org/1999/xlink" width="460.8pt" height="345.6pt" viewBox="0 0 460.8 345.6" xmlns="http://www.w3.org/2000/svg" version="1.1">
 <metadata>
  <rdf:RDF xmlns:dc="http://purl.org/dc/elements/1.1/" xmlns:cc="http://creativecommons.org/ns#" xmlns:rdf="http://www.w3.org/1999/02/22-rdf-syntax-ns#">
   <cc:Work>
    <dc:type rdf:resource="http://purl.org/dc/dcmitype/StillImage"/>
    <dc:date>2023-06-11T20:34:39.184121</dc:date>
    <dc:format>image/svg+xml</dc:format>
    <dc:creator>
     <cc:Agent>
      <dc:title>Matplotlib v3.6.1, https://matplotlib.org/</dc:title>
     </cc:Agent>
    </dc:creator>
   </cc:Work>
  </rdf:RDF>
 </metadata>
 <defs>
  <style type="text/css">*{stroke-linejoin: round; stroke-linecap: butt}</style>
 </defs>
 <g id="figure_1">
  <g id="patch_1">
   <path d="M 0 345.6 
L 460.8 345.6 
L 460.8 0 
L 0 0 
z
" style="fill: #ffffff"/>
  </g>
  <g id="axes_1">
   <g id="patch_2">
    <path d="M 57.6 307.584 
L 414.72 307.584 
L 414.72 41.472 
L 57.6 41.472 
z
" style="fill: #ffffff"/>
   </g>
   <g id="matplotlib.axis_1">
    <g id="xtick_1">
     <g id="line2d_1">
      <defs>
       <path id="mf423387eb8" d="M 0 0 
L 0 3.5 
" style="stroke: #000000; stroke-width: 0.8"/>
      </defs>
      <g>
       <use xlink:href="#mf423387eb8" x="57.6" y="307.584" style="stroke: #000000; stroke-width: 0.8"/>
      </g>
     </g>
     <g id="text_1">
      <!-- 0 -->
      <g transform="translate(54.41875 322.182437) scale(0.1 -0.1)">
       <defs>
        <path id="DejaVuSans-30" d="M 2034 4250 
Q 1547 4250 1301 3770 
Q 1056 3291 1056 2328 
Q 1056 1369 1301 889 
Q 1547 409 2034 409 
Q 2525 409 2770 889 
Q 3016 1369 3016 2328 
Q 3016 3291 2770 3770 
Q 2525 4250 2034 4250 
z
M 2034 4750 
Q 2819 4750 3233 4129 
Q 3647 3509 3647 2328 
Q 3647 1150 3233 529 
Q 2819 -91 2034 -91 
Q 1250 -91 836 529 
Q 422 1150 422 2328 
Q 422 3509 836 4129 
Q 1250 4750 2034 4750 
z
" transform="scale(0.015625)"/>
       </defs>
       <use xlink:href="#DejaVuSans-30"/>
      </g>
     </g>
    </g>
    <g id="xtick_2">
     <g id="line2d_2">
      <g>
       <use xlink:href="#mf423387eb8" x="133.180952" y="307.584" style="stroke: #000000; stroke-width: 0.8"/>
      </g>
     </g>
     <g id="text_2">
      <!-- 2 -->
      <g transform="translate(129.999702 322.182437) scale(0.1 -0.1)">
       <defs>
        <path id="DejaVuSans-32" d="M 1228 531 
L 3431 531 
L 3431 0 
L 469 0 
L 469 531 
Q 828 903 1448 1529 
Q 2069 2156 2228 2338 
Q 2531 2678 2651 2914 
Q 2772 3150 2772 3378 
Q 2772 3750 2511 3984 
Q 2250 4219 1831 4219 
Q 1534 4219 1204 4116 
Q 875 4013 500 3803 
L 500 4441 
Q 881 4594 1212 4672 
Q 1544 4750 1819 4750 
Q 2544 4750 2975 4387 
Q 3406 4025 3406 3419 
Q 3406 3131 3298 2873 
Q 3191 2616 2906 2266 
Q 2828 2175 2409 1742 
Q 1991 1309 1228 531 
z
" transform="scale(0.015625)"/>
       </defs>
       <use xlink:href="#DejaVuSans-32"/>
      </g>
     </g>
    </g>
    <g id="xtick_3">
     <g id="line2d_3">
      <g>
       <use xlink:href="#mf423387eb8" x="208.761905" y="307.584" style="stroke: #000000; stroke-width: 0.8"/>
      </g>
     </g>
     <g id="text_3">
      <!-- 4 -->
      <g transform="translate(205.580655 322.182437) scale(0.1 -0.1)">
       <defs>
        <path id="DejaVuSans-34" d="M 2419 4116 
L 825 1625 
L 2419 1625 
L 2419 4116 
z
M 2253 4666 
L 3047 4666 
L 3047 1625 
L 3713 1625 
L 3713 1100 
L 3047 1100 
L 3047 0 
L 2419 0 
L 2419 1100 
L 313 1100 
L 313 1709 
L 2253 4666 
z
" transform="scale(0.015625)"/>
       </defs>
       <use xlink:href="#DejaVuSans-34"/>
      </g>
     </g>
    </g>
    <g id="xtick_4">
     <g id="line2d_4">
      <g>
       <use xlink:href="#mf423387eb8" x="284.342857" y="307.584" style="stroke: #000000; stroke-width: 0.8"/>
      </g>
     </g>
     <g id="text_4">
      <!-- 6 -->
      <g transform="translate(281.161607 322.182437) scale(0.1 -0.1)">
       <defs>
        <path id="DejaVuSans-36" d="M 2113 2584 
Q 1688 2584 1439 2293 
Q 1191 2003 1191 1497 
Q 1191 994 1439 701 
Q 1688 409 2113 409 
Q 2538 409 2786 701 
Q 3034 994 3034 1497 
Q 3034 2003 2786 2293 
Q 2538 2584 2113 2584 
z
M 3366 4563 
L 3366 3988 
Q 3128 4100 2886 4159 
Q 2644 4219 2406 4219 
Q 1781 4219 1451 3797 
Q 1122 3375 1075 2522 
Q 1259 2794 1537 2939 
Q 1816 3084 2150 3084 
Q 2853 3084 3261 2657 
Q 3669 2231 3669 1497 
Q 3669 778 3244 343 
Q 2819 -91 2113 -91 
Q 1303 -91 875 529 
Q 447 1150 447 2328 
Q 447 3434 972 4092 
Q 1497 4750 2381 4750 
Q 2619 4750 2861 4703 
Q 3103 4656 3366 4563 
z
" transform="scale(0.015625)"/>
       </defs>
       <use xlink:href="#DejaVuSans-36"/>
      </g>
     </g>
    </g>
    <g id="xtick_5">
     <g id="line2d_5">
      <g>
       <use xlink:href="#mf423387eb8" x="359.92381" y="307.584" style="stroke: #000000; stroke-width: 0.8"/>
      </g>
     </g>
     <g id="text_5">
      <!-- 8 -->
      <g transform="translate(356.74256 322.182437) scale(0.1 -0.1)">
       <defs>
        <path id="DejaVuSans-38" d="M 2034 2216 
Q 1584 2216 1326 1975 
Q 1069 1734 1069 1313 
Q 1069 891 1326 650 
Q 1584 409 2034 409 
Q 2484 409 2743 651 
Q 3003 894 3003 1313 
Q 3003 1734 2745 1975 
Q 2488 2216 2034 2216 
z
M 1403 2484 
Q 997 2584 770 2862 
Q 544 3141 544 3541 
Q 544 4100 942 4425 
Q 1341 4750 2034 4750 
Q 2731 4750 3128 4425 
Q 3525 4100 3525 3541 
Q 3525 3141 3298 2862 
Q 3072 2584 2669 2484 
Q 3125 2378 3379 2068 
Q 3634 1759 3634 1313 
Q 3634 634 3220 271 
Q 2806 -91 2034 -91 
Q 1263 -91 848 271 
Q 434 634 434 1313 
Q 434 1759 690 2068 
Q 947 2378 1403 2484 
z
M 1172 3481 
Q 1172 3119 1398 2916 
Q 1625 2713 2034 2713 
Q 2441 2713 2670 2916 
Q 2900 3119 2900 3481 
Q 2900 3844 2670 4047 
Q 2441 4250 2034 4250 
Q 1625 4250 1398 4047 
Q 1172 3844 1172 3481 
z
" transform="scale(0.015625)"/>
       </defs>
       <use xlink:href="#DejaVuSans-38"/>
      </g>
     </g>
    </g>
    <g id="text_6">
     <!-- Time [s] -->
     <g transform="translate(215.831094 335.860562) scale(0.1 -0.1)">
      <defs>
       <path id="DejaVuSans-54" d="M -19 4666 
L 3928 4666 
L 3928 4134 
L 2272 4134 
L 2272 0 
L 1638 0 
L 1638 4134 
L -19 4134 
L -19 4666 
z
" transform="scale(0.015625)"/>
       <path id="DejaVuSans-69" d="M 603 3500 
L 1178 3500 
L 1178 0 
L 603 0 
L 603 3500 
z
M 603 4863 
L 1178 4863 
L 1178 4134 
L 603 4134 
L 603 4863 
z
" transform="scale(0.015625)"/>
       <path id="DejaVuSans-6d" d="M 3328 2828 
Q 3544 3216 3844 3400 
Q 4144 3584 4550 3584 
Q 5097 3584 5394 3201 
Q 5691 2819 5691 2113 
L 5691 0 
L 5113 0 
L 5113 2094 
Q 5113 2597 4934 2840 
Q 4756 3084 4391 3084 
Q 3944 3084 3684 2787 
Q 3425 2491 3425 1978 
L 3425 0 
L 2847 0 
L 2847 2094 
Q 2847 2600 2669 2842 
Q 2491 3084 2119 3084 
Q 1678 3084 1418 2786 
Q 1159 2488 1159 1978 
L 1159 0 
L 581 0 
L 581 3500 
L 1159 3500 
L 1159 2956 
Q 1356 3278 1631 3431 
Q 1906 3584 2284 3584 
Q 2666 3584 2933 3390 
Q 3200 3197 3328 2828 
z
" transform="scale(0.015625)"/>
       <path id="DejaVuSans-65" d="M 3597 1894 
L 3597 1613 
L 953 1613 
Q 991 1019 1311 708 
Q 1631 397 2203 397 
Q 2534 397 2845 478 
Q 3156 559 3463 722 
L 3463 178 
Q 3153 47 2828 -22 
Q 2503 -91 2169 -91 
Q 1331 -91 842 396 
Q 353 884 353 1716 
Q 353 2575 817 3079 
Q 1281 3584 2069 3584 
Q 2775 3584 3186 3129 
Q 3597 2675 3597 1894 
z
M 3022 2063 
Q 3016 2534 2758 2815 
Q 2500 3097 2075 3097 
Q 1594 3097 1305 2825 
Q 1016 2553 972 2059 
L 3022 2063 
z
" transform="scale(0.015625)"/>
       <path id="DejaVuSans-20" transform="scale(0.015625)"/>
       <path id="DejaVuSans-5b" d="M 550 4863 
L 1875 4863 
L 1875 4416 
L 1125 4416 
L 1125 -397 
L 1875 -397 
L 1875 -844 
L 550 -844 
L 550 4863 
z
" transform="scale(0.015625)"/>
       <path id="DejaVuSans-73" d="M 2834 3397 
L 2834 2853 
Q 2591 2978 2328 3040 
Q 2066 3103 1784 3103 
Q 1356 3103 1142 2972 
Q 928 2841 928 2578 
Q 928 2378 1081 2264 
Q 1234 2150 1697 2047 
L 1894 2003 
Q 2506 1872 2764 1633 
Q 3022 1394 3022 966 
Q 3022 478 2636 193 
Q 2250 -91 1575 -91 
Q 1294 -91 989 -36 
Q 684 19 347 128 
L 347 722 
Q 666 556 975 473 
Q 1284 391 1588 391 
Q 1994 391 2212 530 
Q 2431 669 2431 922 
Q 2431 1156 2273 1281 
Q 2116 1406 1581 1522 
L 1381 1569 
Q 847 1681 609 1914 
Q 372 2147 372 2553 
Q 372 3047 722 3315 
Q 1072 3584 1716 3584 
Q 2034 3584 2315 3537 
Q 2597 3491 2834 3397 
z
" transform="scale(0.015625)"/>
       <path id="DejaVuSans-5d" d="M 1947 4863 
L 1947 -844 
L 622 -844 
L 622 -397 
L 1369 -397 
L 1369 4416 
L 622 4416 
L 622 4863 
L 1947 4863 
z
" transform="scale(0.015625)"/>
      </defs>
      <use xlink:href="#DejaVuSans-54"/>
      <use xlink:href="#DejaVuSans-69" x="57.958984"/>
      <use xlink:href="#DejaVuSans-6d" x="85.742188"/>
      <use xlink:href="#DejaVuSans-65" x="183.154297"/>
      <use xlink:href="#DejaVuSans-20" x="244.677734"/>
      <use xlink:href="#DejaVuSans-5b" x="276.464844"/>
      <use xlink:href="#DejaVuSans-73" x="315.478516"/>
      <use xlink:href="#DejaVuSans-5d" x="367.578125"/>
     </g>
    </g>
   </g>
   <g id="matplotlib.axis_2">
    <g id="ytick_1">
     <g id="line2d_6">
      <defs>
       <path id="m21859c59a4" d="M 0 0 
L -3.5 0 
" style="stroke: #000000; stroke-width: 0.8"/>
      </defs>
      <g>
       <use xlink:href="#m21859c59a4" x="57.6" y="301.884165" style="stroke: #000000; stroke-width: 0.8"/>
      </g>
     </g>
     <g id="text_7">
      <!-- 0 -->
      <g transform="translate(44.2375 305.683384) scale(0.1 -0.1)">
       <use xlink:href="#DejaVuSans-30"/>
      </g>
     </g>
    </g>
    <g id="ytick_2">
     <g id="line2d_7">
      <g>
       <use xlink:href="#m21859c59a4" x="57.6" y="267.418375" style="stroke: #000000; stroke-width: 0.8"/>
      </g>
     </g>
     <g id="text_8">
      <!-- 5 -->
      <g transform="translate(44.2375 271.217594) scale(0.1 -0.1)">
       <defs>
        <path id="DejaVuSans-35" d="M 691 4666 
L 3169 4666 
L 3169 4134 
L 1269 4134 
L 1269 2991 
Q 1406 3038 1543 3061 
Q 1681 3084 1819 3084 
Q 2600 3084 3056 2656 
Q 3513 2228 3513 1497 
Q 3513 744 3044 326 
Q 2575 -91 1722 -91 
Q 1428 -91 1123 -41 
Q 819 9 494 109 
L 494 744 
Q 775 591 1075 516 
Q 1375 441 1709 441 
Q 2250 441 2565 725 
Q 2881 1009 2881 1497 
Q 2881 1984 2565 2268 
Q 2250 2553 1709 2553 
Q 1456 2553 1204 2497 
Q 953 2441 691 2322 
L 691 4666 
z
" transform="scale(0.015625)"/>
       </defs>
       <use xlink:href="#DejaVuSans-35"/>
      </g>
     </g>
    </g>
    <g id="ytick_3">
     <g id="line2d_8">
      <g>
       <use xlink:href="#m21859c59a4" x="57.6" y="232.952586" style="stroke: #000000; stroke-width: 0.8"/>
      </g>
     </g>
     <g id="text_9">
      <!-- 10 -->
      <g transform="translate(37.875 236.751804) scale(0.1 -0.1)">
       <defs>
        <path id="DejaVuSans-31" d="M 794 531 
L 1825 531 
L 1825 4091 
L 703 3866 
L 703 4441 
L 1819 4666 
L 2450 4666 
L 2450 531 
L 3481 531 
L 3481 0 
L 794 0 
L 794 531 
z
" transform="scale(0.015625)"/>
       </defs>
       <use xlink:href="#DejaVuSans-31"/>
       <use xlink:href="#DejaVuSans-30" x="63.623047"/>
      </g>
     </g>
    </g>
    <g id="ytick_4">
     <g id="line2d_9">
      <g>
       <use xlink:href="#m21859c59a4" x="57.6" y="198.486796" style="stroke: #000000; stroke-width: 0.8"/>
      </g>
     </g>
     <g id="text_10">
      <!-- 15 -->
      <g transform="translate(37.875 202.286015) scale(0.1 -0.1)">
       <use xlink:href="#DejaVuSans-31"/>
       <use xlink:href="#DejaVuSans-35" x="63.623047"/>
      </g>
     </g>
    </g>
    <g id="ytick_5">
     <g id="line2d_10">
      <g>
       <use xlink:href="#m21859c59a4" x="57.6" y="164.021006" style="stroke: #000000; stroke-width: 0.8"/>
      </g>
     </g>
     <g id="text_11">
      <!-- 20 -->
      <g transform="translate(37.875 167.820225) scale(0.1 -0.1)">
       <use xlink:href="#DejaVuSans-32"/>
       <use xlink:href="#DejaVuSans-30" x="63.623047"/>
      </g>
     </g>
    </g>
    <g id="ytick_6">
     <g id="line2d_11">
      <g>
       <use xlink:href="#m21859c59a4" x="57.6" y="129.555217" style="stroke: #000000; stroke-width: 0.8"/>
      </g>
     </g>
     <g id="text_12">
      <!-- 25 -->
      <g transform="translate(37.875 133.354435) scale(0.1 -0.1)">
       <use xlink:href="#DejaVuSans-32"/>
       <use xlink:href="#DejaVuSans-35" x="63.623047"/>
      </g>
     </g>
    </g>
    <g id="ytick_7">
     <g id="line2d_12">
      <g>
       <use xlink:href="#m21859c59a4" x="57.6" y="95.089427" style="stroke: #000000; stroke-width: 0.8"/>
      </g>
     </g>
     <g id="text_13">
      <!-- 30 -->
      <g transform="translate(37.875 98.888646) scale(0.1 -0.1)">
       <defs>
        <path id="DejaVuSans-33" d="M 2597 2516 
Q 3050 2419 3304 2112 
Q 3559 1806 3559 1356 
Q 3559 666 3084 287 
Q 2609 -91 1734 -91 
Q 1441 -91 1130 -33 
Q 819 25 488 141 
L 488 750 
Q 750 597 1062 519 
Q 1375 441 1716 441 
Q 2309 441 2620 675 
Q 2931 909 2931 1356 
Q 2931 1769 2642 2001 
Q 2353 2234 1838 2234 
L 1294 2234 
L 1294 2753 
L 1863 2753 
Q 2328 2753 2575 2939 
Q 2822 3125 2822 3475 
Q 2822 3834 2567 4026 
Q 2313 4219 1838 4219 
Q 1578 4219 1281 4162 
Q 984 4106 628 3988 
L 628 4550 
Q 988 4650 1302 4700 
Q 1616 4750 1894 4750 
Q 2613 4750 3031 4423 
Q 3450 4097 3450 3541 
Q 3450 3153 3228 2886 
Q 3006 2619 2597 2516 
z
" transform="scale(0.015625)"/>
       </defs>
       <use xlink:href="#DejaVuSans-33"/>
       <use xlink:href="#DejaVuSans-30" x="63.623047"/>
      </g>
     </g>
    </g>
    <g id="ytick_8">
     <g id="line2d_13">
      <g>
       <use xlink:href="#m21859c59a4" x="57.6" y="60.623637" style="stroke: #000000; stroke-width: 0.8"/>
      </g>
     </g>
     <g id="text_14">
      <!-- 35 -->
      <g transform="translate(37.875 64.422856) scale(0.1 -0.1)">
       <use xlink:href="#DejaVuSans-33"/>
       <use xlink:href="#DejaVuSans-35" x="63.623047"/>
      </g>
     </g>
    </g>
    <g id="text_15">
     <!-- X-coordinate -->
     <g transform="translate(31.795312 206.175656) rotate(-90) scale(0.1 -0.1)">
      <defs>
       <path id="DejaVuSans-58" d="M 403 4666 
L 1081 4666 
L 2241 2931 
L 3406 4666 
L 4084 4666 
L 2584 2425 
L 4184 0 
L 3506 0 
L 2194 1984 
L 872 0 
L 191 0 
L 1856 2491 
L 403 4666 
z
" transform="scale(0.015625)"/>
       <path id="DejaVuSans-2d" d="M 313 2009 
L 1997 2009 
L 1997 1497 
L 313 1497 
L 313 2009 
z
" transform="scale(0.015625)"/>
       <path id="DejaVuSans-63" d="M 3122 3366 
L 3122 2828 
Q 2878 2963 2633 3030 
Q 2388 3097 2138 3097 
Q 1578 3097 1268 2742 
Q 959 2388 959 1747 
Q 959 1106 1268 751 
Q 1578 397 2138 397 
Q 2388 397 2633 464 
Q 2878 531 3122 666 
L 3122 134 
Q 2881 22 2623 -34 
Q 2366 -91 2075 -91 
Q 1284 -91 818 406 
Q 353 903 353 1747 
Q 353 2603 823 3093 
Q 1294 3584 2113 3584 
Q 2378 3584 2631 3529 
Q 2884 3475 3122 3366 
z
" transform="scale(0.015625)"/>
       <path id="DejaVuSans-6f" d="M 1959 3097 
Q 1497 3097 1228 2736 
Q 959 2375 959 1747 
Q 959 1119 1226 758 
Q 1494 397 1959 397 
Q 2419 397 2687 759 
Q 2956 1122 2956 1747 
Q 2956 2369 2687 2733 
Q 2419 3097 1959 3097 
z
M 1959 3584 
Q 2709 3584 3137 3096 
Q 3566 2609 3566 1747 
Q 3566 888 3137 398 
Q 2709 -91 1959 -91 
Q 1206 -91 779 398 
Q 353 888 353 1747 
Q 353 2609 779 3096 
Q 1206 3584 1959 3584 
z
" transform="scale(0.015625)"/>
       <path id="DejaVuSans-72" d="M 2631 2963 
Q 2534 3019 2420 3045 
Q 2306 3072 2169 3072 
Q 1681 3072 1420 2755 
Q 1159 2438 1159 1844 
L 1159 0 
L 581 0 
L 581 3500 
L 1159 3500 
L 1159 2956 
Q 1341 3275 1631 3429 
Q 1922 3584 2338 3584 
Q 2397 3584 2469 3576 
Q 2541 3569 2628 3553 
L 2631 2963 
z
" transform="scale(0.015625)"/>
       <path id="DejaVuSans-64" d="M 2906 2969 
L 2906 4863 
L 3481 4863 
L 3481 0 
L 2906 0 
L 2906 525 
Q 2725 213 2448 61 
Q 2172 -91 1784 -91 
Q 1150 -91 751 415 
Q 353 922 353 1747 
Q 353 2572 751 3078 
Q 1150 3584 1784 3584 
Q 2172 3584 2448 3432 
Q 2725 3281 2906 2969 
z
M 947 1747 
Q 947 1113 1208 752 
Q 1469 391 1925 391 
Q 2381 391 2643 752 
Q 2906 1113 2906 1747 
Q 2906 2381 2643 2742 
Q 2381 3103 1925 3103 
Q 1469 3103 1208 2742 
Q 947 2381 947 1747 
z
" transform="scale(0.015625)"/>
       <path id="DejaVuSans-6e" d="M 3513 2113 
L 3513 0 
L 2938 0 
L 2938 2094 
Q 2938 2591 2744 2837 
Q 2550 3084 2163 3084 
Q 1697 3084 1428 2787 
Q 1159 2491 1159 1978 
L 1159 0 
L 581 0 
L 581 3500 
L 1159 3500 
L 1159 2956 
Q 1366 3272 1645 3428 
Q 1925 3584 2291 3584 
Q 2894 3584 3203 3211 
Q 3513 2838 3513 2113 
z
" transform="scale(0.015625)"/>
       <path id="DejaVuSans-61" d="M 2194 1759 
Q 1497 1759 1228 1600 
Q 959 1441 959 1056 
Q 959 750 1161 570 
Q 1363 391 1709 391 
Q 2188 391 2477 730 
Q 2766 1069 2766 1631 
L 2766 1759 
L 2194 1759 
z
M 3341 1997 
L 3341 0 
L 2766 0 
L 2766 531 
Q 2569 213 2275 61 
Q 1981 -91 1556 -91 
Q 1019 -91 701 211 
Q 384 513 384 1019 
Q 384 1609 779 1909 
Q 1175 2209 1959 2209 
L 2766 2209 
L 2766 2266 
Q 2766 2663 2505 2880 
Q 2244 3097 1772 3097 
Q 1472 3097 1187 3025 
Q 903 2953 641 2809 
L 641 3341 
Q 956 3463 1253 3523 
Q 1550 3584 1831 3584 
Q 2591 3584 2966 3190 
Q 3341 2797 3341 1997 
z
" transform="scale(0.015625)"/>
       <path id="DejaVuSans-74" d="M 1172 4494 
L 1172 3500 
L 2356 3500 
L 2356 3053 
L 1172 3053 
L 1172 1153 
Q 1172 725 1289 603 
Q 1406 481 1766 481 
L 2356 481 
L 2356 0 
L 1766 0 
Q 1100 0 847 248 
Q 594 497 594 1153 
L 594 3053 
L 172 3053 
L 172 3500 
L 594 3500 
L 594 4494 
L 1172 4494 
z
" transform="scale(0.015625)"/>
      </defs>
      <use xlink:href="#DejaVuSans-58"/>
      <use xlink:href="#DejaVuSans-2d" x="63.505859"/>
      <use xlink:href="#DejaVuSans-63" x="99.589844"/>
      <use xlink:href="#DejaVuSans-6f" x="154.570312"/>
      <use xlink:href="#DejaVuSans-6f" x="215.751953"/>
      <use xlink:href="#DejaVuSans-72" x="276.933594"/>
      <use xlink:href="#DejaVuSans-64" x="316.296875"/>
      <use xlink:href="#DejaVuSans-69" x="379.773438"/>
      <use xlink:href="#DejaVuSans-6e" x="407.556641"/>
      <use xlink:href="#DejaVuSans-61" x="470.935547"/>
      <use xlink:href="#DejaVuSans-74" x="532.214844"/>
      <use xlink:href="#DejaVuSans-65" x="571.423828"/>
     </g>
    </g>
   </g>
   <g id="line2d_14">
    <path d="M 57.6 301.882786 
L 64.993789 301.739409 
L 72.387578 301.363042 
L 79.781366 300.753687 
L 87.175155 299.911343 
L 94.568944 298.83601 
L 101.962733 297.527689 
L 109.356522 295.98638 
L 116.750311 294.21208 
L 124.144099 292.204793 
L 131.537888 289.964516 
L 138.931677 287.491251 
L 146.325466 284.784997 
L 153.719255 281.845755 
L 161.113043 278.673524 
L 168.506832 275.268303 
L 175.900621 271.630095 
L 183.29441 267.75889 
L 191.256952 263.329347 
L 199.219494 258.629592 
L 207.182035 253.659632 
L 215.144577 248.419453 
L 223.107119 242.909063 
L 231.069661 237.128461 
L 239.032203 231.077647 
L 246.994744 224.756621 
L 254.957286 218.165383 
L 263.488581 210.803491 
L 272.019876 203.131406 
L 280.551171 195.149129 
L 289.082465 186.85666 
L 297.61376 178.253999 
L 306.145055 169.341146 
L 314.67635 160.118169 
L 323.207645 150.584932 
L 332.307692 140.074176 
L 341.40774 129.210559 
L 350.507788 117.994012 
L 359.607836 106.424536 
L 368.707883 94.50213 
L 377.807931 82.226794 
L 387.476732 68.797475 
L 397.145533 54.9698 
L 397.714286 54.144 
L 397.714286 54.144 
" clip-path="url(#p284c7bfcf5)" style="fill: none; stroke: #000000; stroke-width: 2; stroke-linecap: square"/>
   </g>
   <g id="line2d_15">
    <path d="M 57.6 301.478503 
L 58.168753 301.30973 
L 58.737506 301.323951 
L 59.306259 301.457906 
L 59.875012 301.172791 
L 61.012518 301.436413 
L 61.581271 301.251166 
L 62.718777 300.255636 
L 63.28753 300.319866 
L 64.425036 300.571142 
L 64.993789 300.211595 
L 65.562542 299.647852 
L 66.131295 299.388945 
L 66.700048 299.471822 
L 67.268801 299.686633 
L 68.97506 299.854909 
L 70.112566 300.175703 
L 70.681319 300.008612 
L 71.250072 300.051839 
L 73.525084 299.853778 
L 74.093837 299.936793 
L 75.231343 299.40085 
L 75.800096 298.738265 
L 76.368849 298.492593 
L 77.506355 298.662744 
L 78.075108 298.485755 
L 79.212613 298.488864 
L 79.781366 298.19079 
L 80.350119 298.041222 
L 80.918872 298.619028 
L 82.056378 298.020129 
L 82.625131 297.852826 
L 83.193884 298.097236 
L 83.762637 297.897762 
L 84.33139 297.993274 
L 85.468896 297.643143 
L 87.743908 298.241289 
L 88.312661 297.712226 
L 90.01892 297.134 
L 90.587673 297.227354 
L 91.156426 297.010537 
L 92.293932 297.519183 
L 92.862685 297.428159 
L 93.431438 297.132256 
L 94.568944 296.960058 
L 95.137697 297.365783 
L 95.70645 297.365665 
L 96.275203 297.823833 
L 96.843956 297.916022 
L 97.981462 298.834149 
L 99.118968 299.072625 
L 100.256474 299.048299 
L 100.825227 298.826139 
L 101.39398 298.174433 
L 101.962733 298.220617 
L 102.531486 297.712529 
L 103.100239 297.673383 
L 103.668992 297.894839 
L 104.806498 299.053248 
L 105.944004 298.864569 
L 106.512757 298.837396 
L 107.08151 298.504656 
L 108.219016 298.556128 
L 108.787769 298.443342 
L 109.925275 298.733585 
L 110.494028 298.803103 
L 111.062781 298.591841 
L 112.76904 298.501899 
L 113.906546 298.541838 
L 114.475299 298.443018 
L 115.044052 298.49189 
L 115.612805 298.775737 
L 116.181558 298.752527 
L 117.319064 297.977757 
L 118.45657 298.016566 
L 119.025323 297.657694 
L 119.594075 297.757852 
L 120.162828 297.559308 
L 120.731581 297.237653 
L 121.869087 297.059072 
L 122.43784 297.068412 
L 123.006593 297.579284 
L 124.712852 297.637676 
L 125.850358 297.466781 
L 126.419111 297.386821 
L 126.987864 297.463741 
L 129.831629 296.746584 
L 130.400382 296.916114 
L 131.537888 296.973403 
L 132.106641 297.469924 
L 132.675394 297.454566 
L 133.244147 297.556337 
L 133.8129 297.438547 
L 134.381653 297.089105 
L 134.950406 296.989471 
L 135.519159 297.061153 
L 136.087912 297.297609 
L 136.656665 297.055921 
L 137.225418 297.32006 
L 138.362924 296.981034 
L 138.931677 297.08885 
L 139.50043 296.859708 
L 140.069183 296.864671 
L 140.637936 296.564543 
L 141.775442 296.294165 
L 142.344195 296.49863 
L 142.912948 296.435213 
L 143.481701 296.178884 
L 144.050454 296.12651 
L 146.894219 296.933933 
L 147.462972 296.975926 
L 148.600478 296.6722 
L 149.737984 296.900384 
L 150.306737 296.914667 
L 151.444243 296.657221 
L 152.012996 296.602931 
L 152.581749 296.661502 
L 153.150502 296.552879 
L 153.719255 296.265166 
L 154.288008 296.424143 
L 154.856761 296.731591 
L 155.994267 296.90685 
L 157.131773 296.552748 
L 157.700526 296.570071 
L 158.269279 296.315493 
L 158.838032 296.192939 
L 159.406785 296.202562 
L 159.975538 296.06108 
L 160.54429 296.133348 
L 161.113043 296.329486 
L 161.681796 296.053608 
L 162.250549 296.012594 
L 163.388055 296.377042 
L 164.525561 296.003074 
L 165.094314 295.682694 
L 165.663067 295.535229 
L 166.23182 295.604202 
L 166.800573 295.538896 
L 167.938079 295.290797 
L 168.506832 295.21216 
L 169.075585 294.816003 
L 169.644338 295.013382 
L 170.213091 294.337308 
L 170.781844 294.075982 
L 171.91935 293.967028 
L 172.488103 293.91535 
L 173.056856 294.118464 
L 173.625609 294.064401 
L 174.194362 294.300126 
L 174.763115 294.306771 
L 175.331868 294.561784 
L 175.900621 294.278406 
L 177.60688 294.34274 
L 178.175633 294.211777 
L 179.313139 294.86511 
L 180.450645 294.996487 
L 182.725657 294.964441 
L 183.29441 295.038411 
L 184.431916 294.84228 
L 185.569422 294.56361 
L 186.706928 294.338122 
L 187.275681 294.367073 
L 188.413187 294.148332 
L 188.98194 293.159309 
L 190.119446 293.188191 
L 190.688199 293.344535 
L 191.256952 293.255572 
L 191.825705 293.537364 
L 193.531964 293.730827 
L 194.100717 293.285495 
L 194.66947 293.411922 
L 196.375729 293.309111 
L 197.513235 293.573284 
L 198.081988 293.322559 
L 200.357 293.350801 
L 200.925753 293.435435 
L 201.494505 293.384019 
L 202.063258 293.650412 
L 202.632011 293.726733 
L 203.769517 294.021367 
L 204.33827 293.574697 
L 205.475776 293.243095 
L 206.613282 293.157468 
L 207.750788 293.508427 
L 208.319541 293.50112 
L 209.457047 293.807424 
L 210.594553 293.10934 
L 211.732059 293.061888 
L 212.300812 293.252304 
L 213.438318 293.120045 
L 214.007071 292.851612 
L 215.144577 292.631431 
L 215.71333 292.230945 
L 216.282083 292.53117 
L 216.850836 292.630666 
L 217.419589 293.142097 
L 220.263354 292.877399 
L 220.832107 293.187902 
L 221.40086 293.101372 
L 222.538366 292.608787 
L 223.107119 292.790697 
L 224.244625 292.287462 
L 225.950884 292.439511 
L 227.08839 292.532569 
L 227.657143 292.807041 
L 230.500908 292.170596 
L 231.069661 291.889692 
L 232.207167 292.288834 
L 232.77592 292.686562 
L 233.344673 292.710564 
L 235.050932 293.2323 
L 235.619685 293.162624 
L 236.188438 293.426681 
L 237.894697 293.221292 
L 238.46345 293.750349 
L 239.032203 293.786869 
L 240.169709 294.189553 
L 240.738462 294.901858 
L 241.307215 294.981984 
L 243.582226 294.551837 
L 244.719732 294.123407 
L 246.994744 293.583259 
L 247.563497 293.416162 
L 248.701003 293.812498 
L 249.838509 293.169573 
L 250.407262 293.204638 
L 250.976015 292.979342 
L 251.544768 292.512896 
L 252.113521 292.750662 
L 252.682274 293.129703 
L 253.251027 292.870499 
L 253.81978 293.460478 
L 254.388533 293.8361 
L 256.663545 293.422359 
L 257.232298 292.733236 
L 259.50731 292.710123 
L 260.076063 292.870658 
L 260.644816 292.749883 
L 261.213569 292.93262 
L 261.782322 292.795819 
L 262.351075 292.373958 
L 262.919828 292.291619 
L 263.488581 292.945952 
L 264.057334 293.299316 
L 264.626087 293.081216 
L 265.763593 294.351818 
L 266.332346 294.48862 
L 266.901099 294.200293 
L 269.176111 294.498953 
L 270.88237 294.323515 
L 271.451123 294.606052 
L 272.019876 294.530068 
L 272.588629 294.740261 
L 273.157382 294.697234 
L 273.726135 294.827481 
L 274.863641 294.894585 
L 275.432394 295.238589 
L 277.138653 295.373343 
L 278.844912 295.479849 
L 279.982418 295.896279 
L 281.688677 295.53842 
L 282.25743 295.777833 
L 282.826183 295.880314 
L 283.963688 295.546795 
L 284.532441 295.673967 
L 285.669947 295.643189 
L 286.2387 295.454034 
L 286.807453 295.576815 
L 287.376206 295.484081 
L 287.944959 295.538744 
L 288.513712 295.437835 
L 289.082465 295.745484 
L 289.651218 296.321917 
L 290.219971 296.000179 
L 290.788724 295.422753 
L 291.357477 295.348789 
L 291.92623 295.416983 
L 295.338748 294.936682 
L 295.907501 294.577287 
L 296.476254 294.408087 
L 297.045007 294.563762 
L 297.61376 294.391123 
L 298.182513 294.754351 
L 298.751266 294.841763 
L 299.320019 295.162433 
L 299.888772 295.346384 
L 302.163784 295.483633 
L 303.30129 295.749516 
L 305.007549 295.608089 
L 305.576302 295.868134 
L 306.145055 295.664248 
L 306.713808 295.750144 
L 307.282561 295.607007 
L 307.851314 295.851955 
L 308.420067 295.93215 
L 310.126326 295.844339 
L 311.263832 295.60079 
L 311.832585 295.66087 
L 313.538844 294.904036 
L 314.107597 294.725358 
L 318.088868 295.70855 
L 318.657621 295.748868 
L 319.226374 295.370358 
L 319.795127 295.511778 
L 320.36388 295.145269 
L 322.638892 292.528357 
L 323.207645 291.999756 
L 324.345151 292.148186 
L 325.482656 292.060305 
L 326.620162 291.896889 
L 327.188915 291.624382 
L 327.757668 291.100481 
L 328.895174 291.037767 
L 329.463927 291.169688 
L 330.03268 291.050085 
L 330.601433 290.661318 
L 331.738939 290.777544 
L 337.995222 290.804372 
L 340.270234 290.706303 
L 349.370282 290.601079 
L 351.076541 290.571107 
L 356.764071 290.409973 
L 359.039083 290.347224 
L 360.745342 290.406795 
L 369.845389 290.209713 
L 376.101672 290.052466 
L 377.239178 290.123934 
L 380.651696 290.185594 
L 381.789202 290.141064 
L 384.064214 290.254504 
L 388.614238 290.218798 
L 390.88925 289.991393 
L 392.026756 289.992813 
L 393.733015 289.848518 
L 396.008027 289.910701 
L 397.714286 289.893868 
L 397.714286 289.893868 
" clip-path="url(#p284c7bfcf5)" style="fill: none; stroke-dasharray: 5.55,2.4; stroke-dashoffset: 0; stroke: #4169e1; stroke-opacity: 0.7; stroke-width: 1.5"/>
   </g>
   <g id="line2d_16">
    <path d="M 57.6 301.755008 
L 58.168753 302.14079 
L 58.737506 301.888639 
L 59.306259 301.498996 
L 59.875012 300.493574 
L 61.581271 301.748728 
L 62.150024 301.386555 
L 62.718777 301.31175 
L 63.28753 301.476014 
L 63.856283 302.047519 
L 64.425036 303.180775 
L 64.993789 303.542755 
L 65.562542 302.648616 
L 66.131295 302.345813 
L 66.700048 302.76358 
L 67.837554 301.475938 
L 68.406307 301.380234 
L 68.97506 300.442668 
L 70.112566 299.889781 
L 71.250072 300.3211 
L 71.818825 299.728681 
L 72.956331 299.104616 
L 73.525084 299.19544 
L 74.093837 298.911132 
L 74.66259 298.961487 
L 75.231343 299.506012 
L 75.800096 299.20021 
L 76.368849 298.662082 
L 76.937602 299.093353 
L 77.506355 298.865162 
L 78.075108 299.039593 
L 78.64386 300.156864 
L 79.212613 299.972058 
L 79.781366 300.796514 
L 80.350119 300.898657 
L 80.918872 300.504844 
L 81.487625 299.890457 
L 82.625131 299.749919 
L 83.193884 299.292951 
L 83.762637 299.682104 
L 84.33139 300.33947 
L 85.468896 300.313001 
L 86.606402 299.962732 
L 87.175155 299.950427 
L 87.743908 301.148817 
L 88.312661 300.758374 
L 88.881414 299.817996 
L 89.450167 299.684544 
L 90.01892 299.171907 
L 90.587673 299.486821 
L 91.156426 298.702393 
L 91.725179 297.660348 
L 92.293932 297.79941 
L 92.862685 296.959658 
L 93.431438 297.567339 
L 94.000191 297.52285 
L 95.137697 297.729824 
L 95.70645 298.047523 
L 96.275203 297.317448 
L 96.843956 297.016244 
L 97.412709 297.37493 
L 97.981462 298.026843 
L 98.550215 298.465283 
L 99.118968 297.87722 
L 99.687721 297.027087 
L 100.825227 296.963663 
L 101.39398 297.959518 
L 101.962733 297.715045 
L 102.531486 296.541471 
L 103.100239 295.894355 
L 103.668992 295.931413 
L 104.237745 296.268695 
L 105.375251 296.182772 
L 105.944004 295.939161 
L 106.512757 295.896933 
L 107.08151 296.377628 
L 107.650263 295.537317 
L 108.219016 294.206917 
L 108.787769 294.2628 
L 109.356522 293.596666 
L 109.925275 294.774893 
L 110.494028 295.354235 
L 111.062781 295.437387 
L 111.631534 295.248508 
L 112.200287 294.72591 
L 112.76904 294.416511 
L 113.906546 294.921248 
L 114.475299 294.775417 
L 115.044052 294.40342 
L 115.612805 294.945409 
L 116.750311 295.123121 
L 117.887817 294.19979 
L 119.025323 294.130176 
L 119.594075 294.947304 
L 120.162828 295.030911 
L 120.731581 295.650772 
L 121.300334 295.919495 
L 121.869087 296.48574 
L 123.006593 296.177554 
L 123.575346 295.830421 
L 124.144099 295.143663 
L 124.712852 295.072146 
L 125.850358 294.383396 
L 126.419111 294.073672 
L 126.987864 294.239329 
L 127.556617 294.707912 
L 128.12537 294.719148 
L 128.694123 294.37063 
L 129.262876 294.436032 
L 129.831629 294.782048 
L 130.400382 294.629033 
L 130.969135 294.203926 
L 132.106641 294.00765 
L 133.8129 292.553386 
L 134.381653 292.774933 
L 135.519159 292.801967 
L 136.087912 292.896797 
L 136.656665 292.71887 
L 137.225418 292.119028 
L 137.794171 292.524215 
L 138.931677 292.902456 
L 139.50043 292.647843 
L 140.069183 292.182597 
L 140.637936 291.400299 
L 141.206689 291.135181 
L 141.775442 291.161327 
L 142.344195 290.392299 
L 143.481701 290.393912 
L 144.050454 290.158669 
L 144.619207 290.534422 
L 145.756713 290.852121 
L 146.325466 290.48881 
L 146.894219 290.83 
L 147.462972 290.555853 
L 148.031725 290.025183 
L 149.169231 289.530509 
L 150.306737 288.36063 
L 150.87549 286.949759 
L 151.444243 286.339653 
L 152.581749 287.147703 
L 153.150502 286.186321 
L 154.288008 285.877439 
L 154.856761 285.279823 
L 155.425514 284.888898 
L 156.56302 285.470026 
L 157.131773 285.381035 
L 157.700526 284.939935 
L 159.406785 284.963516 
L 160.54429 286.180924 
L 161.681796 285.490615 
L 162.250549 284.760396 
L 162.819302 284.87385 
L 163.388055 285.294409 
L 163.956808 284.75129 
L 164.525561 285.087648 
L 165.663067 284.428242 
L 166.23182 285.217012 
L 167.369326 286.018094 
L 167.938079 286.0197 
L 169.075585 285.725824 
L 169.644338 285.37166 
L 170.781844 285.53429 
L 171.350597 285.275073 
L 171.91935 285.449567 
L 172.488103 285.505891 
L 173.056856 285.812815 
L 173.625609 285.42371 
L 174.194362 286.157784 
L 174.763115 286.340397 
L 176.469374 286.173548 
L 177.038127 285.784161 
L 177.60688 285.689938 
L 178.175633 285.871731 
L 178.744386 286.711731 
L 179.313139 286.681374 
L 180.450645 286.268191 
L 181.019398 286.338233 
L 181.588151 285.916399 
L 182.725657 286.424693 
L 183.29441 287.223011 
L 184.431916 286.450405 
L 185.569422 286.507356 
L 186.138175 286.440493 
L 186.706928 286.942866 
L 187.275681 286.799254 
L 188.413187 286.074652 
L 188.98194 286.178532 
L 190.119446 285.514273 
L 190.688199 284.800031 
L 191.256952 284.557427 
L 192.394458 285.086118 
L 192.963211 284.089774 
L 193.531964 283.365448 
L 194.100717 282.874634 
L 194.66947 284.042397 
L 195.238223 284.434625 
L 195.806976 286.401601 
L 196.375729 286.858025 
L 198.081988 286.820457 
L 198.650741 286.885694 
L 199.219494 286.633887 
L 199.788247 287.008992 
L 200.357 285.730925 
L 200.925753 284.902388 
L 201.494505 284.33324 
L 202.063258 284.191896 
L 202.632011 283.874067 
L 203.200764 283.854642 
L 203.769517 284.152743 
L 204.33827 284.673425 
L 206.044529 284.379135 
L 206.613282 284.086596 
L 207.182035 284.148883 
L 207.750788 284.360468 
L 208.319541 284.057604 
L 208.888294 284.40628 
L 209.457047 285.03251 
L 210.0258 286.157487 
L 210.594553 285.943937 
L 211.163306 286.087597 
L 211.732059 284.773382 
L 212.300812 284.456152 
L 213.438318 283.380137 
L 214.007071 283.30199 
L 215.144577 282.131021 
L 215.71333 282.626667 
L 216.282083 282.416591 
L 216.850836 281.920132 
L 217.419589 282.319639 
L 217.988342 282.097052 
L 218.557095 282.011956 
L 219.125848 281.12615 
L 219.694601 280.925174 
L 220.263354 281.807746 
L 220.832107 281.808346 
L 221.40086 284.111164 
L 221.969613 283.805804 
L 222.538366 284.531315 
L 223.107119 284.781868 
L 223.675872 285.46804 
L 224.244625 285.463229 
L 224.813378 285.898297 
L 225.382131 285.931316 
L 225.950884 285.800304 
L 227.657143 286.37955 
L 228.794649 286.019541 
L 229.363402 285.464421 
L 229.932155 285.563628 
L 230.500908 285.455819 
L 231.638414 286.194731 
L 232.207167 286.298928 
L 232.77592 285.395552 
L 233.344673 285.424427 
L 233.913426 285.19909 
L 234.482179 286.08717 
L 235.050932 285.200958 
L 235.619685 284.684364 
L 236.188438 285.121508 
L 236.757191 284.172044 
L 237.325944 284.815382 
L 237.894697 285.290783 
L 238.46345 285.295236 
L 239.032203 284.968562 
L 240.169709 285.154877 
L 240.738462 285.520766 
L 241.307215 285.563194 
L 241.875968 284.91951 
L 243.013473 285.114146 
L 243.582226 284.971299 
L 244.150979 285.791102 
L 244.719732 286.308075 
L 245.288485 286.19551 
L 245.857238 286.296612 
L 246.994744 285.577104 
L 247.563497 285.679674 
L 248.701003 286.551335 
L 249.269756 286.116411 
L 249.838509 286.547978 
L 250.407262 286.478212 
L 250.976015 286.284183 
L 251.544768 286.243976 
L 252.682274 287.199912 
L 253.251027 286.976739 
L 253.81978 286.448041 
L 254.388533 286.541353 
L 254.957286 285.932164 
L 256.094792 286.47005 
L 256.663545 285.627465 
L 257.232298 285.42522 
L 258.369804 286.449543 
L 258.938557 286.438618 
L 260.076063 285.209719 
L 261.213569 284.72482 
L 261.782322 284.772197 
L 262.351075 284.414276 
L 262.919828 283.803322 
L 263.488581 283.730075 
L 264.057334 284.591775 
L 264.626087 283.71154 
L 265.19484 283.911358 
L 266.332346 284.626275 
L 266.901099 284.615122 
L 268.038605 285.28715 
L 268.607358 284.332089 
L 269.176111 283.016103 
L 269.744864 282.744071 
L 271.451123 283.661612 
L 272.588629 283.787537 
L 273.157382 284.282879 
L 273.726135 284.36885 
L 274.294888 284.710138 
L 275.432394 284.246201 
L 276.001147 283.785117 
L 276.5699 283.544387 
L 277.138653 282.857167 
L 277.707406 282.773981 
L 278.276159 282.879336 
L 278.844912 282.343648 
L 279.413665 283.065823 
L 279.982418 283.014186 
L 280.551171 283.197413 
L 281.688677 283.843895 
L 282.25743 283.448187 
L 282.826183 282.620677 
L 283.394935 282.44009 
L 284.532441 282.398621 
L 285.101194 282.930124 
L 285.669947 282.752315 
L 286.2387 281.756337 
L 286.807453 281.596478 
L 287.376206 281.034823 
L 287.944959 279.977743 
L 289.082465 279.79351 
L 289.651218 280.097726 
L 290.219971 279.812956 
L 290.788724 281.013434 
L 291.357477 281.491343 
L 291.92623 281.017804 
L 292.494983 280.997304 
L 293.063736 281.402773 
L 294.201242 282.988916 
L 294.769995 282.85004 
L 295.907501 281.823193 
L 296.476254 281.954784 
L 297.045007 281.863525 
L 297.61376 280.568432 
L 298.182513 280.76883 
L 299.320019 280.232032 
L 299.888772 279.758265 
L 300.457525 279.791159 
L 301.026278 280.1988 
L 301.595031 280.028325 
L 302.163784 280.462877 
L 302.732537 280.298896 
L 303.30129 279.951584 
L 303.870043 279.817498 
L 304.438796 279.5471 
L 305.576302 279.280804 
L 306.145055 278.820761 
L 307.282561 278.746281 
L 307.851314 279.282541 
L 308.420067 279.454291 
L 309.557573 280.037418 
L 310.695079 279.598475 
L 311.832585 279.208315 
L 312.401338 279.229746 
L 313.538844 278.342604 
L 314.107597 278.61061 
L 314.67635 278.570305 
L 315.245103 277.812541 
L 315.813856 278.366806 
L 316.951362 277.508959 
L 317.520115 278.193153 
L 318.088868 278.285308 
L 318.657621 278.663253 
L 320.932633 278.319064 
L 321.501386 278.296337 
L 322.070139 278.841062 
L 322.638892 279.191751 
L 323.207645 278.812703 
L 323.776398 277.993265 
L 324.345151 277.614514 
L 324.913903 279.958374 
L 326.051409 279.083363 
L 326.620162 279.081764 
L 327.188915 278.462352 
L 327.757668 277.270463 
L 328.326421 277.209727 
L 328.895174 277.653102 
L 330.03268 276.171404 
L 330.601433 275.655651 
L 331.738939 274.322583 
L 332.307692 274.188987 
L 334.582704 274.213836 
L 343.682752 274.266948 
L 345.389011 274.191379 
L 346.526517 274.289061 
L 347.09527 274.263364 
L 348.232776 274.431908 
L 349.939035 274.268768 
L 351.076541 274.346654 
L 353.920306 274.253775 
L 355.057812 274.337148 
L 356.764071 274.028941 
L 359.039083 273.970391 
L 359.607836 274.095067 
L 360.176589 274.03398 
L 363.020354 274.842975 
L 363.589107 274.860008 
L 365.864118 275.53613 
L 368.707883 275.513576 
L 369.845389 275.419622 
L 370.414142 275.564344 
L 370.982895 275.523488 
L 375.532919 276.17565 
L 377.239178 275.987701 
L 377.807931 275.902329 
L 378.376684 275.98888 
L 381.789202 275.682334 
L 385.20172 275.998399 
L 386.339226 276.273877 
L 386.907979 276.358015 
L 387.476732 276.215444 
L 391.458003 276.212363 
L 392.026756 276.098915 
L 392.595509 276.113136 
L 393.164262 275.978926 
L 394.301768 276.306096 
L 395.439274 276.569608 
L 396.008027 276.505274 
L 396.57678 276.762623 
L 397.714286 276.83607 
L 397.714286 276.83607 
" clip-path="url(#p284c7bfcf5)" style="fill: none; stroke-dasharray: 5.55,2.4; stroke-dashoffset: 0; stroke: #ff8c00; stroke-opacity: 0.7; stroke-width: 1.5"/>
   </g>
   <g id="line2d_17">
    <path d="M 57.6 300.348721 
L 58.737506 299.942369 
L 59.306259 300.578442 
L 59.875012 300.85137 
L 60.443765 302.347116 
L 61.012518 303.112877 
L 61.581271 301.164871 
L 62.150024 301.161086 
L 62.718777 300.899415 
L 63.28753 301.123029 
L 63.856283 299.940625 
L 64.425036 299.557297 
L 64.993789 299.323136 
L 65.562542 298.848087 
L 66.131295 299.09884 
L 66.700048 300.217875 
L 67.268801 297.307094 
L 67.837554 296.491089 
L 68.406307 296.706838 
L 68.97506 294.034547 
L 69.543813 292.956147 
L 70.112566 293.821093 
L 70.681319 295.097444 
L 71.250072 294.711703 
L 71.818825 294.690851 
L 72.387578 293.280539 
L 72.956331 294.768937 
L 73.525084 295.402342 
L 74.093837 294.248255 
L 74.66259 297.019015 
L 75.231343 296.801336 
L 75.800096 295.338091 
L 76.368849 296.875789 
L 76.937602 297.785486 
L 77.506355 296.93314 
L 78.075108 296.966538 
L 79.212613 297.284926 
L 79.781366 296.374367 
L 80.350119 292.968251 
L 80.918872 292.513861 
L 81.487625 294.21836 
L 82.056378 296.882331 
L 82.625131 297.88541 
L 83.193884 297.420183 
L 83.762637 296.101164 
L 84.900143 299.416869 
L 85.468896 302.423106 
L 86.037649 298.776922 
L 86.606402 297.861249 
L 87.175155 298.617111 
L 87.743908 300.59389 
L 88.312661 300.383766 
L 89.450167 296.863637 
L 90.01892 296.192016 
L 90.587673 294.349192 
L 91.156426 294.616302 
L 91.725179 294.094069 
L 92.293932 296.030743 
L 92.862685 295.85849 
L 93.431438 298.984075 
L 94.000191 299.751856 
L 94.568944 297.381492 
L 95.137697 293.829882 
L 95.70645 293.199634 
L 96.275203 293.327771 
L 96.843956 292.463396 
L 97.412709 292.318006 
L 97.981462 293.051272 
L 98.550215 293.547538 
L 99.118968 295.829408 
L 99.687721 295.83577 
L 100.256474 296.585325 
L 100.825227 296.223586 
L 101.39398 296.010698 
L 101.962733 294.808076 
L 103.100239 294.975601 
L 103.668992 295.327855 
L 104.237745 295.493794 
L 104.806498 295.978617 
L 105.375251 295.9937 
L 105.944004 295.587355 
L 106.512757 291.433586 
L 108.787769 286.933222 
L 109.356522 287.105703 
L 109.925275 291.30973 
L 110.494028 288.068195 
L 111.062781 293.705702 
L 111.631534 295.722095 
L 112.200287 296.893201 
L 112.76904 297.399145 
L 113.337793 297.397794 
L 113.906546 296.853904 
L 114.475299 298.001084 
L 115.044052 296.699497 
L 115.612805 294.240873 
L 116.181558 293.239524 
L 116.750311 295.512853 
L 117.319064 293.123278 
L 117.887817 292.639172 
L 118.45657 294.010807 
L 119.025323 294.128859 
L 119.594075 295.062248 
L 120.162828 297.461983 
L 120.731581 296.678555 
L 121.869087 296.197013 
L 122.43784 293.08387 
L 123.006593 293.23849 
L 123.575346 291.148285 
L 124.144099 290.262983 
L 124.712852 289.628626 
L 125.281605 286.362055 
L 125.850358 289.146926 
L 126.419111 290.147833 
L 126.987864 290.912491 
L 127.556617 291.154903 
L 128.12537 290.017945 
L 128.694123 293.134955 
L 129.262876 295.250073 
L 129.831629 294.479211 
L 130.400382 294.557931 
L 130.969135 291.312328 
L 131.537888 291.059129 
L 132.106641 291.755393 
L 132.675394 291.895097 
L 133.8129 297.605389 
L 134.381653 297.364831 
L 134.950406 296.709464 
L 135.519159 297.169245 
L 136.087912 297.155321 
L 136.656665 296.943411 
L 137.225418 296.224565 
L 137.794171 294.934649 
L 138.362924 294.240418 
L 138.931677 293.34397 
L 139.50043 291.480818 
L 140.069183 288.541052 
L 140.637936 286.604426 
L 141.206689 285.581991 
L 141.775442 285.838975 
L 142.344195 285.22607 
L 142.912948 284.937074 
L 143.481701 285.439448 
L 144.050454 287.520892 
L 144.619207 288.839532 
L 145.18796 288.156468 
L 145.756713 290.300537 
L 146.894219 287.54275 
L 147.462972 288.234837 
L 148.031725 289.234234 
L 148.600478 286.730612 
L 149.737984 284.150158 
L 150.306737 283.564764 
L 150.87549 284.222137 
L 152.012996 282.571873 
L 152.581749 281.943162 
L 153.150502 282.801546 
L 153.719255 285.214034 
L 154.288008 284.818891 
L 154.856761 285.58166 
L 155.425514 281.558572 
L 155.994267 285.848253 
L 156.56302 287.117028 
L 157.131773 286.009291 
L 157.700526 283.153394 
L 158.269279 282.961536 
L 159.406785 284.871624 
L 160.54429 285.582398 
L 161.113043 282.254223 
L 161.681796 281.879724 
L 162.250549 280.576738 
L 162.819302 281.360532 
L 163.388055 281.059487 
L 163.956808 280.12818 
L 164.525561 281.435419 
L 165.094314 284.93988 
L 165.663067 284.975021 
L 166.23182 282.305108 
L 166.800573 283.361946 
L 167.369326 282.500901 
L 167.938079 280.756436 
L 168.506832 278.395626 
L 169.075585 277.021675 
L 169.644338 278.847507 
L 170.213091 277.988606 
L 170.781844 277.512757 
L 171.91935 279.21334 
L 172.488103 278.429968 
L 173.056856 278.469197 
L 173.625609 278.320118 
L 174.194362 281.861871 
L 175.331868 284.741701 
L 175.900621 277.729671 
L 176.469374 277.064295 
L 177.038127 275.561235 
L 177.60688 277.396918 
L 178.175633 276.596036 
L 178.744386 274.688127 
L 179.313139 273.171357 
L 180.450645 271.14656 
L 181.019398 271.097254 
L 181.588151 270.219341 
L 182.725657 269.909535 
L 183.29441 269.486647 
L 183.863163 268.446841 
L 184.431916 268.470623 
L 185.000669 267.795038 
L 185.569422 267.986096 
L 186.138175 266.44218 
L 186.706928 265.848548 
L 187.275681 265.715807 
L 187.844434 264.241491 
L 188.413187 264.940678 
L 188.98194 263.778602 
L 189.550693 265.299873 
L 190.688199 271.476681 
L 191.256952 271.32297 
L 191.825705 267.882581 
L 192.394458 266.702128 
L 192.963211 267.721612 
L 193.531964 267.477043 
L 194.100717 269.366085 
L 194.66947 270.191658 
L 195.238223 270.179533 
L 196.375729 271.746244 
L 196.944482 271.948869 
L 197.513235 271.73729 
L 198.081988 271.29983 
L 198.650741 271.271216 
L 199.219494 269.852563 
L 199.788247 269.641591 
L 200.357 269.887732 
L 200.925753 269.647043 
L 202.063258 272.686857 
L 202.632011 275.246521 
L 203.200764 273.99886 
L 203.769517 276.649913 
L 204.33827 276.696249 
L 205.475776 275.411633 
L 206.044529 274.054474 
L 206.613282 274.914905 
L 207.182035 274.311692 
L 207.750788 274.149351 
L 208.319541 272.458321 
L 208.888294 266.528062 
L 209.457047 268.141013 
L 210.0258 269.40681 
L 210.594553 264.815546 
L 211.163306 264.519285 
L 211.732059 263.003163 
L 212.300812 262.124644 
L 212.869565 264.051116 
L 213.438318 261.64601 
L 214.007071 262.681232 
L 214.575824 262.544699 
L 215.144577 264.861606 
L 215.71333 263.507928 
L 216.282083 264.381167 
L 216.850836 262.865238 
L 217.419589 263.07612 
L 217.988342 262.330308 
L 218.557095 263.765822 
L 219.694601 261.340547 
L 220.263354 260.938593 
L 220.832107 257.541231 
L 221.40086 255.694092 
L 221.969613 255.337647 
L 222.538366 255.672999 
L 223.107119 255.414933 
L 223.675872 252.551915 
L 224.244625 251.186829 
L 224.813378 250.595878 
L 225.382131 249.026341 
L 225.950884 250.952069 
L 226.519637 251.754081 
L 227.08839 251.515887 
L 227.657143 252.875342 
L 228.225896 251.993583 
L 228.794649 247.593095 
L 229.363402 247.574366 
L 229.932155 249.050605 
L 230.500908 249.280871 
L 231.069661 250.200521 
L 232.207167 251.281038 
L 232.77592 249.22079 
L 233.344673 249.047268 
L 234.482179 245.030653 
L 235.050932 246.161496 
L 235.619685 246.661305 
L 236.188438 246.08969 
L 236.757191 244.194575 
L 237.325944 245.118134 
L 237.894697 244.058242 
L 238.46345 243.934772 
L 239.032203 244.429121 
L 239.600956 247.428652 
L 240.169709 248.672274 
L 240.738462 248.115948 
L 241.875968 248.349171 
L 242.44472 248.845802 
L 243.013473 251.822716 
L 243.582226 251.310692 
L 244.150979 249.080466 
L 244.719732 248.674817 
L 245.288485 247.810567 
L 245.857238 249.440323 
L 246.425991 249.630609 
L 246.994744 251.481939 
L 247.563497 250.419944 
L 248.13225 250.057406 
L 248.701003 248.417882 
L 249.269756 247.820197 
L 249.838509 243.307425 
L 250.407262 242.268275 
L 250.976015 242.142944 
L 251.544768 243.998837 
L 252.113521 242.079251 
L 252.682274 241.254719 
L 253.251027 238.730182 
L 253.81978 238.443337 
L 254.388533 240.143604 
L 254.957286 236.962053 
L 255.526039 236.650758 
L 256.663545 235.367776 
L 257.232298 234.623404 
L 257.801051 232.194869 
L 258.369804 233.105483 
L 259.50731 230.944547 
L 260.076063 232.306586 
L 260.644816 234.408496 
L 261.213569 235.549831 
L 261.782322 235.101865 
L 262.351075 235.691802 
L 262.919828 234.502367 
L 263.488581 234.54139 
L 264.057334 234.148231 
L 264.626087 234.083629 
L 265.19484 232.643876 
L 265.763593 235.87909 
L 266.332346 235.615495 
L 266.901099 238.273511 
L 267.469852 233.033146 
L 268.038605 230.536961 
L 268.607358 229.782967 
L 269.176111 228.322314 
L 269.744864 227.5803 
L 270.313617 227.14663 
L 270.88237 225.951302 
L 271.451123 227.63348 
L 272.019876 230.253377 
L 272.588629 230.880392 
L 273.157382 230.465293 
L 273.726135 230.224949 
L 274.294888 230.547273 
L 274.863641 231.451166 
L 275.432394 231.568295 
L 276.001147 231.099787 
L 276.5699 233.231359 
L 277.138653 234.184545 
L 278.276159 230.468374 
L 278.844912 228.961289 
L 279.413665 229.409695 
L 279.982418 229.236498 
L 280.551171 228.907226 
L 281.119924 229.579005 
L 281.688677 228.827947 
L 282.25743 226.343674 
L 282.826183 225.973608 
L 283.394935 227.324743 
L 283.963688 228.264838 
L 284.532441 227.828839 
L 285.101194 225.028963 
L 286.2387 221.3595 
L 286.807453 218.212925 
L 287.376206 217.07847 
L 287.944959 216.27683 
L 288.513712 213.926973 
L 289.082465 215.228691 
L 289.651218 215.79646 
L 290.219971 213.698369 
L 290.788724 213.066025 
L 291.357477 213.231916 
L 292.494983 216.796698 
L 293.632489 217.608864 
L 294.201242 214.2435 
L 294.769995 213.311408 
L 295.338748 215.348494 
L 295.907501 220.560308 
L 296.476254 221.593006 
L 297.045007 223.654846 
L 297.61376 224.017661 
L 298.182513 221.65987 
L 299.320019 218.547636 
L 299.888772 219.001213 
L 300.457525 218.236865 
L 301.026278 217.945533 
L 301.595031 214.167421 
L 302.163784 212.541959 
L 303.30129 211.199964 
L 303.870043 211.15367 
L 304.438796 209.870688 
L 305.007549 212.456752 
L 305.576302 213.581275 
L 306.145055 216.183931 
L 306.713808 217.820036 
L 307.282561 218.298449 
L 307.851314 217.084826 
L 308.420067 217.185493 
L 308.98882 219.223772 
L 309.557573 215.613998 
L 310.126326 210.509918 
L 310.695079 210.94693 
L 311.263832 209.680678 
L 311.832585 209.959141 
L 312.401338 210.696426 
L 313.538844 208.836666 
L 314.107597 208.374355 
L 314.67635 210.28496 
L 315.245103 209.366715 
L 315.813856 206.435427 
L 316.382609 208.065969 
L 316.951362 208.257689 
L 317.520115 208.276238 
L 318.088868 209.223751 
L 318.657621 210.428248 
L 319.226374 212.00015 
L 319.795127 212.26189 
L 320.932633 214.382577 
L 321.501386 210.53829 
L 322.070139 207.460943 
L 322.638892 205.425366 
L 323.207645 206.202204 
L 323.776398 205.05155 
L 324.913903 204.27596 
L 325.482656 203.489016 
L 326.051409 203.918232 
L 326.620162 202.555324 
L 327.188915 201.900812 
L 327.757668 200.548533 
L 328.326421 200.906088 
L 328.895174 199.704417 
L 329.463927 200.559052 
L 330.03268 200.295071 
L 330.601433 200.369745 
L 331.170186 199.658364 
L 331.738939 199.9011 
L 332.307692 200.913629 
L 332.876445 198.608977 
L 333.445198 200.909065 
L 334.013951 198.846336 
L 334.582704 198.263092 
L 335.151457 196.991891 
L 335.72021 192.556578 
L 336.288963 191.250586 
L 336.857716 190.845365 
L 337.426469 189.636402 
L 337.995222 187.108605 
L 338.563975 185.545333 
L 339.132728 186.031363 
L 339.701481 181.138441 
L 340.270234 182.435967 
L 340.838987 181.680029 
L 341.40774 180.39278 
L 341.976493 179.96233 
L 342.545246 178.085868 
L 343.113999 175.504732 
L 343.682752 175.071373 
L 344.251505 175.011368 
L 344.820258 173.057047 
L 345.389011 172.369923 
L 345.957764 172.456874 
L 346.526517 174.490445 
L 347.09527 174.874084 
L 347.664023 174.161448 
L 348.232776 173.82875 
L 348.801529 173.096883 
L 349.370282 173.750912 
L 349.939035 173.618571 
L 350.507788 174.242043 
L 351.076541 174.252128 
L 351.645294 173.262125 
L 352.214047 173.841302 
L 352.7828 173.348414 
L 353.351553 173.210675 
L 353.920306 172.67223 
L 355.057812 168.473449 
L 355.626565 167.708253 
L 356.195318 165.729152 
L 356.764071 164.697942 
L 357.332824 165.234643 
L 357.901577 167.286605 
L 358.47033 164.546389 
L 359.039083 162.619614 
L 360.176589 162.092611 
L 360.745342 161.968155 
L 361.882848 162.633496 
L 362.451601 162.754506 
L 363.020354 160.398948 
L 364.15786 158.719251 
L 364.726613 156.796501 
L 365.295366 157.567846 
L 365.864118 154.731228 
L 366.432871 152.748508 
L 367.001624 151.784314 
L 368.13913 146.875875 
L 368.707883 148.230188 
L 369.276636 148.675389 
L 369.845389 148.580663 
L 370.982895 145.446379 
L 371.551648 145.377234 
L 372.120401 146.533837 
L 372.689154 145.897026 
L 373.257907 145.855653 
L 373.82666 145.631391 
L 374.395413 146.206694 
L 374.964166 144.913517 
L 375.532919 144.211304 
L 376.101672 144.155173 
L 376.670425 144.336849 
L 377.239178 143.739854 
L 378.376684 140.03232 
L 378.945437 139.547463 
L 379.51419 140.560267 
L 380.082943 140.054261 
L 380.651696 138.116078 
L 381.220449 137.193029 
L 381.789202 134.821589 
L 382.357955 133.349107 
L 382.926708 132.931361 
L 383.495461 131.880444 
L 384.064214 131.090075 
L 384.632967 130.494906 
L 385.20172 129.692528 
L 385.770473 130.307722 
L 386.339226 129.864782 
L 386.907979 129.829937 
L 387.476732 130.392708 
L 388.045485 125.064186 
L 388.614238 125.812839 
L 389.182991 125.981921 
L 389.751744 125.65098 
L 390.320497 123.934736 
L 390.88925 123.201648 
L 391.458003 124.538004 
L 392.026756 122.837648 
L 393.164262 122.467299 
L 393.733015 121.858551 
L 394.301768 120.671949 
L 394.870521 118.789062 
L 395.439274 113.51368 
L 396.008027 113.813925 
L 396.57678 114.659171 
L 397.145533 114.32597 
L 397.714286 112.473296 
L 397.714286 112.473296 
" clip-path="url(#p284c7bfcf5)" style="fill: none; stroke-dasharray: 5.55,2.4; stroke-dashoffset: 0; stroke: #dc143c; stroke-opacity: 0.7; stroke-width: 1.5"/>
   </g>
   <g id="line2d_18">
    <path d="M 57.6 301.827751 
L 58.168753 301.509529 
L 59.306259 303.172427 
L 59.875012 303.719344 
L 60.443765 306.485879 
L 61.581271 307.499855 
L 62.150024 307.584 
L 62.718777 306.280711 
L 63.28753 302.756701 
L 63.856283 302.449886 
L 64.425036 300.260537 
L 64.993789 299.925626 
L 65.562542 300.551132 
L 66.131295 301.812841 
L 66.700048 301.64684 
L 67.268801 299.149056 
L 67.837554 293.398405 
L 68.406307 293.017909 
L 68.97506 295.765371 
L 70.112566 295.300399 
L 70.681319 293.116233 
L 71.250072 297.974676 
L 71.818825 299.354093 
L 72.387578 298.805894 
L 72.956331 297.098666 
L 73.525084 294.902478 
L 74.093837 294.372394 
L 74.66259 291.050823 
L 75.231343 289.35534 
L 75.800096 289.989132 
L 76.368849 289.318228 
L 76.937602 288.352965 
L 77.506355 289.292123 
L 78.075108 287.375322 
L 78.64386 284.615391 
L 79.212613 284.270782 
L 79.781366 285.022108 
L 80.350119 288.683623 
L 80.918872 290.845813 
L 81.487625 291.154806 
L 82.056378 290.148557 
L 82.625131 292.751482 
L 83.193884 293.434036 
L 83.762637 292.292715 
L 84.900143 302.125998 
L 85.468896 302.922888 
L 86.606402 304.151194 
L 87.175155 301.52226 
L 87.743908 300.954154 
L 88.312661 298.721894 
L 88.881414 300.30071 
L 89.450167 301.335042 
L 90.01892 299.019162 
L 90.587673 301.209373 
L 91.156426 302.66487 
L 91.725179 299.575646 
L 92.862685 298.714195 
L 93.431438 299.487917 
L 94.000191 298.277541 
L 94.568944 292.785327 
L 95.137697 292.101719 
L 95.70645 292.986883 
L 96.275203 292.877013 
L 97.412709 296.121292 
L 97.981462 294.680319 
L 98.550215 298.421587 
L 99.118968 299.689115 
L 99.687721 298.515568 
L 100.256474 293.151271 
L 100.825227 292.105166 
L 101.39398 290.410607 
L 102.531486 289.951392 
L 103.100239 290.318942 
L 103.668992 290.995733 
L 104.237745 292.651697 
L 104.806498 293.249857 
L 105.375251 291.53626 
L 105.944004 290.507077 
L 107.08151 295.678792 
L 107.650263 292.008207 
L 108.219016 289.202636 
L 108.787769 290.282263 
L 109.356522 293.631752 
L 109.925275 293.64407 
L 110.494028 293.513796 
L 111.631534 297.46614 
L 112.76904 300.213119 
L 113.906546 303.003069 
L 114.475299 301.919341 
L 115.044052 302.185306 
L 115.612805 302.729314 
L 116.181558 302.601936 
L 116.750311 303.142146 
L 117.319064 302.750711 
L 117.887817 301.945321 
L 118.45657 299.961284 
L 119.025323 299.186079 
L 119.594075 298.662455 
L 120.162828 301.959583 
L 120.731581 302.653552 
L 121.300334 300.676132 
L 121.869087 299.138999 
L 122.43784 299.344512 
L 123.006593 298.924622 
L 123.575346 298.23064 
L 124.144099 299.021064 
L 124.712852 299.0394 
L 125.281605 298.61394 
L 125.850358 297.776573 
L 126.419111 297.260048 
L 126.987864 295.833647 
L 127.556617 295.874848 
L 128.12537 295.309299 
L 129.262876 295.130042 
L 129.831629 295.387164 
L 130.400382 295.929104 
L 130.969135 295.7612 
L 131.537888 297.76034 
L 132.106641 297.985657 
L 132.675394 298.844985 
L 133.244147 298.421656 
L 134.381653 299.812412 
L 134.950406 299.487607 
L 135.519159 299.570807 
L 136.087912 296.182655 
L 136.656665 295.225174 
L 137.225418 295.782962 
L 137.794171 299.174899 
L 138.362924 298.701732 
L 138.931677 299.088266 
L 139.50043 298.142497 
L 140.069183 296.465378 
L 140.637936 296.494095 
L 141.206689 294.671702 
L 141.775442 288.983144 
L 142.344195 286.328679 
L 142.912948 287.174083 
L 143.481701 290.710349 
L 144.050454 291.26369 
L 144.619207 290.369469 
L 145.18796 290.227097 
L 145.756713 289.780558 
L 146.325466 287.808309 
L 146.894219 288.000076 
L 148.031725 288.63737 
L 148.600478 291.620074 
L 149.169231 292.54519 
L 149.737984 292.933489 
L 150.306737 292.159711 
L 150.87549 289.715949 
L 151.444243 288.776646 
L 152.581749 289.043218 
L 153.150502 288.008493 
L 153.719255 286.329023 
L 154.288008 285.907493 
L 154.856761 288.149086 
L 155.425514 286.776031 
L 156.56302 289.052862 
L 157.131773 289.491625 
L 157.700526 285.51976 
L 158.269279 290.385502 
L 158.838032 293.93308 
L 159.406785 294.189719 
L 159.975538 293.392939 
L 160.54429 292.246475 
L 161.113043 288.637776 
L 161.681796 286.369052 
L 162.250549 287.151529 
L 162.819302 286.582319 
L 163.388055 278.488249 
L 163.956808 276.730956 
L 164.525561 277.354297 
L 165.094314 277.472005 
L 165.663067 274.974372 
L 166.23182 278.488594 
L 166.800573 278.656111 
L 167.938079 270.652838 
L 168.506832 270.689875 
L 169.075585 271.482588 
L 169.644338 273.350317 
L 170.213091 273.150346 
L 170.781844 275.605269 
L 171.350597 276.445634 
L 171.91935 272.454868 
L 172.488103 272.021137 
L 173.625609 274.47772 
L 174.194362 273.536522 
L 174.763115 271.951736 
L 175.331868 271.433254 
L 175.900621 270.716593 
L 176.469374 271.172644 
L 177.038127 270.996917 
L 177.60688 271.483546 
L 178.175633 272.728781 
L 178.744386 272.66027 
L 179.313139 273.752912 
L 179.881892 273.146107 
L 180.450645 273.604785 
L 181.019398 271.859299 
L 181.588151 274.114265 
L 182.156904 275.391215 
L 182.725657 273.82265 
L 183.29441 273.297963 
L 183.863163 271.19566 
L 184.431916 268.131017 
L 185.000669 265.855235 
L 185.569422 262.146316 
L 186.138175 262.933618 
L 186.706928 266.149607 
L 187.275681 266.256637 
L 187.844434 266.508506 
L 188.413187 269.435251 
L 188.98194 270.761612 
L 189.550693 270.916453 
L 190.119446 270.046447 
L 190.688199 269.512799 
L 191.256952 270.995483 
L 191.825705 267.451621 
L 192.394458 266.720105 
L 193.531964 265.8053 
L 194.66947 266.115589 
L 195.238223 267.038638 
L 195.806976 265.273879 
L 196.375729 266.2898 
L 196.944482 266.169156 
L 197.513235 267.469729 
L 198.081988 267.58652 
L 198.650741 266.803381 
L 199.219494 265.10894 
L 199.788247 263.789341 
L 200.357 261.688134 
L 200.925753 261.139556 
L 201.494505 261.170555 
L 202.063258 261.006635 
L 202.632011 263.336909 
L 203.769517 262.373156 
L 204.33827 262.560105 
L 204.907023 261.392018 
L 205.475776 260.940868 
L 206.044529 260.241523 
L 206.613282 261.498724 
L 207.182035 258.185997 
L 208.319541 255.466653 
L 208.888294 257.579978 
L 209.457047 261.173436 
L 210.0258 261.09351 
L 210.594553 260.33205 
L 211.163306 258.946601 
L 211.732059 256.933496 
L 212.300812 256.107323 
L 212.869565 253.350488 
L 213.438318 253.079056 
L 214.575824 259.14327 
L 215.144577 264.575134 
L 215.71333 264.784796 
L 216.850836 260.5746 
L 217.419589 259.36583 
L 217.988342 257.731937 
L 218.557095 261.019753 
L 219.125848 262.335381 
L 220.263354 265.911634 
L 220.832107 264.271387 
L 221.40086 265.363353 
L 221.969613 268.759784 
L 222.538366 270.898545 
L 223.675872 266.132381 
L 224.244625 262.513114 
L 224.813378 261.415124 
L 225.382131 261.011488 
L 225.950884 259.7131 
L 226.519637 260.152428 
L 227.08839 259.970346 
L 228.225896 254.238678 
L 228.794649 253.383837 
L 229.363402 250.254646 
L 230.500908 239.205914 
L 231.069661 234.744283 
L 231.638414 235.683027 
L 232.77592 229.899585 
L 233.344673 229.760516 
L 233.913426 228.438243 
L 234.482179 228.005194 
L 235.050932 226.041891 
L 235.619685 226.378085 
L 236.188438 226.465483 
L 236.757191 226.971592 
L 237.325944 222.838062 
L 237.894697 222.583932 
L 238.46345 222.637912 
L 239.032203 225.694642 
L 239.600956 226.83071 
L 240.169709 230.370898 
L 240.738462 230.740564 
L 241.307215 231.922534 
L 241.875968 236.040121 
L 242.44472 238.197176 
L 243.013473 239.215792 
L 243.582226 238.968072 
L 244.150979 239.98613 
L 244.719732 243.668599 
L 245.288485 237.363566 
L 245.857238 233.25605 
L 246.425991 230.619327 
L 246.994744 228.883224 
L 247.563497 230.614454 
L 248.13225 231.222182 
L 248.701003 232.570712 
L 249.838509 234.224745 
L 250.407262 232.714606 
L 250.976015 232.463227 
L 251.544768 231.613066 
L 252.682274 232.925757 
L 253.251027 228.678331 
L 253.81978 228.594352 
L 254.388533 224.386872 
L 254.957286 229.490435 
L 255.526039 231.629306 
L 256.094792 230.74754 
L 256.663545 231.124251 
L 257.232298 231.991252 
L 257.801051 228.527943 
L 258.369804 227.513243 
L 258.938557 228.086657 
L 259.50731 227.076017 
L 260.076063 227.069289 
L 260.644816 226.449649 
L 261.213569 227.202169 
L 261.782322 225.803264 
L 262.351075 225.648251 
L 262.919828 222.413188 
L 264.057334 221.111112 
L 264.626087 220.011833 
L 265.19484 224.194043 
L 266.332346 220.000556 
L 266.901099 219.001868 
L 267.469852 221.042739 
L 268.038605 219.883317 
L 268.607358 217.697772 
L 269.176111 219.652734 
L 269.744864 220.889814 
L 270.313617 220.807758 
L 271.451123 219.156171 
L 272.019876 218.628059 
L 272.588629 218.557659 
L 273.157382 219.351765 
L 273.726135 220.996755 
L 274.294888 221.433974 
L 274.863641 219.487126 
L 275.432394 213.880334 
L 276.001147 211.794203 
L 277.138653 215.658666 
L 277.707406 212.59354 
L 278.276159 212.571482 
L 279.413665 207.928161 
L 279.982418 203.148432 
L 280.551171 202.019353 
L 281.119924 202.406549 
L 281.688677 202.367099 
L 282.25743 198.824444 
L 282.826183 199.628675 
L 283.394935 199.758549 
L 283.963688 201.214467 
L 284.532441 202.067088 
L 285.101194 200.880417 
L 285.669947 200.149557 
L 286.2387 197.931201 
L 286.807453 199.34629 
L 287.376206 194.73037 
L 287.944959 194.938205 
L 288.513712 195.757016 
L 289.082465 195.879342 
L 289.651218 196.967055 
L 290.219971 197.361557 
L 290.788724 198.194774 
L 291.357477 197.991433 
L 292.494983 194.355065 
L 293.063736 195.694895 
L 293.632489 195.237272 
L 294.201242 195.347714 
L 294.769995 196.990581 
L 295.338748 195.991769 
L 295.907501 194.077739 
L 296.476254 194.1082 
L 297.045007 193.612954 
L 297.61376 195.43321 
L 298.182513 197.650056 
L 298.751266 197.847724 
L 299.320019 198.375161 
L 299.888772 190.154367 
L 300.457525 187.940864 
L 301.026278 184.121999 
L 301.595031 183.173342 
L 302.163784 180.454171 
L 302.732537 175.981862 
L 303.30129 175.241068 
L 303.870043 171.936089 
L 305.007549 169.784989 
L 306.145055 170.49373 
L 306.713808 172.25933 
L 307.282561 171.151937 
L 307.851314 168.028309 
L 308.420067 168.97951 
L 308.98882 170.788364 
L 309.557573 169.664676 
L 310.126326 170.87091 
L 310.695079 171.236599 
L 311.832585 169.142505 
L 312.970091 166.14312 
L 313.538844 167.936968 
L 314.67635 170.487512 
L 315.245103 169.3221 
L 315.813856 166.301504 
L 316.382609 165.405821 
L 316.951362 161.999526 
L 317.520115 160.440362 
L 318.088868 160.375422 
L 318.657621 160.486498 
L 319.226374 162.238711 
L 319.795127 162.724727 
L 320.36388 160.233361 
L 320.932633 160.390297 
L 321.501386 163.858293 
L 322.070139 162.63309 
L 322.638892 160.721631 
L 323.207645 159.739273 
L 323.776398 156.422003 
L 324.345151 153.905842 
L 324.913903 153.361744 
L 325.482656 153.306523 
L 326.051409 162.611838 
L 326.620162 165.094223 
L 327.188915 165.612519 
L 327.757668 161.707083 
L 328.326421 150.247284 
L 328.895174 148.865482 
L 329.463927 149.781755 
L 330.03268 151.088601 
L 330.601433 152.881656 
L 331.170186 152.560614 
L 331.738939 150.228645 
L 332.307692 153.372732 
L 332.876445 154.474217 
L 333.445198 154.677689 
L 334.582704 149.967422 
L 335.151457 149.137651 
L 335.72021 148.006029 
L 336.288963 147.357169 
L 336.857716 145.39091 
L 337.426469 143.845864 
L 337.995222 144.88194 
L 338.563975 144.734447 
L 339.132728 143.776208 
L 339.701481 144.264251 
L 340.270234 141.601872 
L 340.838987 140.421163 
L 341.40774 142.394192 
L 341.976493 141.058719 
L 342.545246 141.257627 
L 343.113999 140.627924 
L 343.682752 141.471067 
L 344.251505 141.139024 
L 344.820258 142.632509 
L 345.389011 142.781312 
L 345.957764 142.173852 
L 346.526517 140.619838 
L 347.09527 136.997918 
L 347.664023 131.865431 
L 348.232776 134.282758 
L 348.801529 124.14213 
L 349.370282 121.870869 
L 349.939035 121.472486 
L 350.507788 123.953961 
L 351.076541 123.381325 
L 351.645294 122.241914 
L 352.214047 121.590614 
L 352.7828 122.616267 
L 353.351553 124.193946 
L 353.920306 124.198399 
L 355.057812 121.075254 
L 355.626565 118.99485 
L 356.195318 119.880925 
L 357.332824 112.756274 
L 357.901577 115.271049 
L 358.47033 118.683011 
L 359.039083 119.137146 
L 359.607836 121.294229 
L 360.176589 121.546256 
L 360.745342 122.926618 
L 361.314095 123.163763 
L 361.882848 122.460137 
L 362.451601 122.806829 
L 363.020354 122.85049 
L 363.589107 123.768831 
L 364.15786 118.369483 
L 364.726613 115.549319 
L 365.295366 116.715138 
L 365.864118 118.232522 
L 366.432871 114.431821 
L 367.001624 111.813848 
L 367.570377 108.537992 
L 368.13913 107.713253 
L 368.707883 108.06781 
L 369.276636 107.714921 
L 370.414142 108.985765 
L 370.982895 108.041616 
L 371.551648 108.126815 
L 372.120401 109.298686 
L 372.689154 111.94091 
L 373.257907 112.574825 
L 373.82666 115.413496 
L 374.395413 115.342352 
L 374.964166 115.595221 
L 375.532919 114.496548 
L 376.670425 111.383129 
L 377.239178 111.939372 
L 377.807931 112.758466 
L 378.376684 113.298786 
L 378.945437 110.700072 
L 379.51419 110.643535 
L 380.082943 110.145159 
L 380.651696 110.775249 
L 381.789202 110.016554 
L 382.357955 107.95827 
L 382.926708 106.654133 
L 384.064214 105.026541 
L 384.632967 105.109383 
L 385.770473 101.081642 
L 386.339226 101.551921 
L 386.907979 101.292869 
L 387.476732 99.800563 
L 388.045485 92.913105 
L 388.614238 89.636098 
L 389.182991 88.148596 
L 389.751744 85.692233 
L 390.320497 84.699729 
L 390.88925 83.038091 
L 391.458003 83.818101 
L 392.026756 81.411485 
L 392.595509 80.336366 
L 393.164262 81.02735 
L 393.733015 80.93361 
L 394.301768 80.186557 
L 395.439274 77.592373 
L 396.008027 77.441957 
L 396.57678 74.519816 
L 397.145533 72.405905 
L 397.714286 69.242139 
L 397.714286 69.242139 
" clip-path="url(#p284c7bfcf5)" style="fill: none; stroke-dasharray: 5.55,2.4; stroke-dashoffset: 0; stroke: #32cd32; stroke-opacity: 0.7; stroke-width: 1.5"/>
   </g>
   <g id="patch_3">
    <path d="M 57.6 307.584 
L 57.6 41.472 
" style="fill: none; stroke: #000000; stroke-width: 0.8; stroke-linejoin: miter; stroke-linecap: square"/>
   </g>
   <g id="patch_4">
    <path d="M 414.72 307.584 
L 414.72 41.472 
" style="fill: none; stroke: #000000; stroke-width: 0.8; stroke-linejoin: miter; stroke-linecap: square"/>
   </g>
   <g id="patch_5">
    <path d="M 57.6 307.584 
L 414.72 307.584 
" style="fill: none; stroke: #000000; stroke-width: 0.8; stroke-linejoin: miter; stroke-linecap: square"/>
   </g>
   <g id="patch_6">
    <path d="M 57.6 41.472 
L 414.72 41.472 
" style="fill: none; stroke: #000000; stroke-width: 0.8; stroke-linejoin: miter; stroke-linecap: square"/>
   </g>
   <g id="text_16">
    <!-- True Movement vs. Actual Movement Along X-Axis -->
    <g transform="translate(85.69125 35.472) scale(0.12 -0.12)">
     <defs>
      <path id="DejaVuSans-75" d="M 544 1381 
L 544 3500 
L 1119 3500 
L 1119 1403 
Q 1119 906 1312 657 
Q 1506 409 1894 409 
Q 2359 409 2629 706 
Q 2900 1003 2900 1516 
L 2900 3500 
L 3475 3500 
L 3475 0 
L 2900 0 
L 2900 538 
Q 2691 219 2414 64 
Q 2138 -91 1772 -91 
Q 1169 -91 856 284 
Q 544 659 544 1381 
z
M 1991 3584 
L 1991 3584 
z
" transform="scale(0.015625)"/>
      <path id="DejaVuSans-4d" d="M 628 4666 
L 1569 4666 
L 2759 1491 
L 3956 4666 
L 4897 4666 
L 4897 0 
L 4281 0 
L 4281 4097 
L 3078 897 
L 2444 897 
L 1241 4097 
L 1241 0 
L 628 0 
L 628 4666 
z
" transform="scale(0.015625)"/>
      <path id="DejaVuSans-76" d="M 191 3500 
L 800 3500 
L 1894 563 
L 2988 3500 
L 3597 3500 
L 2284 0 
L 1503 0 
L 191 3500 
z
" transform="scale(0.015625)"/>
      <path id="DejaVuSans-2e" d="M 684 794 
L 1344 794 
L 1344 0 
L 684 0 
L 684 794 
z
" transform="scale(0.015625)"/>
      <path id="DejaVuSans-41" d="M 2188 4044 
L 1331 1722 
L 3047 1722 
L 2188 4044 
z
M 1831 4666 
L 2547 4666 
L 4325 0 
L 3669 0 
L 3244 1197 
L 1141 1197 
L 716 0 
L 50 0 
L 1831 4666 
z
" transform="scale(0.015625)"/>
      <path id="DejaVuSans-6c" d="M 603 4863 
L 1178 4863 
L 1178 0 
L 603 0 
L 603 4863 
z
" transform="scale(0.015625)"/>
      <path id="DejaVuSans-67" d="M 2906 1791 
Q 2906 2416 2648 2759 
Q 2391 3103 1925 3103 
Q 1463 3103 1205 2759 
Q 947 2416 947 1791 
Q 947 1169 1205 825 
Q 1463 481 1925 481 
Q 2391 481 2648 825 
Q 2906 1169 2906 1791 
z
M 3481 434 
Q 3481 -459 3084 -895 
Q 2688 -1331 1869 -1331 
Q 1566 -1331 1297 -1286 
Q 1028 -1241 775 -1147 
L 775 -588 
Q 1028 -725 1275 -790 
Q 1522 -856 1778 -856 
Q 2344 -856 2625 -561 
Q 2906 -266 2906 331 
L 2906 616 
Q 2728 306 2450 153 
Q 2172 0 1784 0 
Q 1141 0 747 490 
Q 353 981 353 1791 
Q 353 2603 747 3093 
Q 1141 3584 1784 3584 
Q 2172 3584 2450 3431 
Q 2728 3278 2906 2969 
L 2906 3500 
L 3481 3500 
L 3481 434 
z
" transform="scale(0.015625)"/>
      <path id="DejaVuSans-78" d="M 3513 3500 
L 2247 1797 
L 3578 0 
L 2900 0 
L 1881 1375 
L 863 0 
L 184 0 
L 1544 1831 
L 300 3500 
L 978 3500 
L 1906 2253 
L 2834 3500 
L 3513 3500 
z
" transform="scale(0.015625)"/>
     </defs>
     <use xlink:href="#DejaVuSans-54"/>
     <use xlink:href="#DejaVuSans-72" x="46.333984"/>
     <use xlink:href="#DejaVuSans-75" x="87.447266"/>
     <use xlink:href="#DejaVuSans-65" x="150.826172"/>
     <use xlink:href="#DejaVuSans-20" x="212.349609"/>
     <use xlink:href="#DejaVuSans-4d" x="244.136719"/>
     <use xlink:href="#DejaVuSans-6f" x="330.416016"/>
     <use xlink:href="#DejaVuSans-76" x="391.597656"/>
     <use xlink:href="#DejaVuSans-65" x="450.777344"/>
     <use xlink:href="#DejaVuSans-6d" x="512.300781"/>
     <use xlink:href="#DejaVuSans-65" x="609.712891"/>
     <use xlink:href="#DejaVuSans-6e" x="671.236328"/>
     <use xlink:href="#DejaVuSans-74" x="734.615234"/>
     <use xlink:href="#DejaVuSans-20" x="773.824219"/>
     <use xlink:href="#DejaVuSans-76" x="805.611328"/>
     <use xlink:href="#DejaVuSans-73" x="864.791016"/>
     <use xlink:href="#DejaVuSans-2e" x="916.890625"/>
     <use xlink:href="#DejaVuSans-20" x="948.677734"/>
     <use xlink:href="#DejaVuSans-41" x="980.464844"/>
     <use xlink:href="#DejaVuSans-63" x="1047.123047"/>
     <use xlink:href="#DejaVuSans-74" x="1102.103516"/>
     <use xlink:href="#DejaVuSans-75" x="1141.3125"/>
     <use xlink:href="#DejaVuSans-61" x="1204.691406"/>
     <use xlink:href="#DejaVuSans-6c" x="1265.970703"/>
     <use xlink:href="#DejaVuSans-20" x="1293.753906"/>
     <use xlink:href="#DejaVuSans-4d" x="1325.541016"/>
     <use xlink:href="#DejaVuSans-6f" x="1411.820312"/>
     <use xlink:href="#DejaVuSans-76" x="1473.001953"/>
     <use xlink:href="#DejaVuSans-65" x="1532.181641"/>
     <use xlink:href="#DejaVuSans-6d" x="1593.705078"/>
     <use xlink:href="#DejaVuSans-65" x="1691.117188"/>
     <use xlink:href="#DejaVuSans-6e" x="1752.640625"/>
     <use xlink:href="#DejaVuSans-74" x="1816.019531"/>
     <use xlink:href="#DejaVuSans-20" x="1855.228516"/>
     <use xlink:href="#DejaVuSans-41" x="1887.015625"/>
     <use xlink:href="#DejaVuSans-6c" x="1955.423828"/>
     <use xlink:href="#DejaVuSans-6f" x="1983.207031"/>
     <use xlink:href="#DejaVuSans-6e" x="2044.388672"/>
     <use xlink:href="#DejaVuSans-67" x="2107.767578"/>
     <use xlink:href="#DejaVuSans-20" x="2171.244141"/>
     <use xlink:href="#DejaVuSans-58" x="2203.03125"/>
     <use xlink:href="#DejaVuSans-2d" x="2266.537109"/>
     <use xlink:href="#DejaVuSans-41" x="2300.371094"/>
     <use xlink:href="#DejaVuSans-78" x="2368.779297"/>
     <use xlink:href="#DejaVuSans-69" x="2427.958984"/>
     <use xlink:href="#DejaVuSans-73" x="2455.742188"/>
    </g>
   </g>
   <g id="legend_1">
    <g id="patch_7">
     <path d="M 64.6 122.862625 
L 183.164062 122.862625 
Q 185.164062 122.862625 185.164062 120.862625 
L 185.164062 48.472 
Q 185.164062 46.472 183.164062 46.472 
L 64.6 46.472 
Q 62.6 46.472 62.6 48.472 
L 62.6 120.862625 
Q 62.6 122.862625 64.6 122.862625 
z
" style="fill: #ffffff; opacity: 0.8; stroke: #cccccc; stroke-linejoin: miter"/>
    </g>
    <g id="line2d_19">
     <path d="M 66.6 54.570438 
L 76.6 54.570438 
L 86.6 54.570438 
" style="fill: none; stroke: #000000; stroke-width: 2; stroke-linecap: square"/>
    </g>
    <g id="text_17">
     <!-- Ground Truth -->
     <g transform="translate(94.6 58.070438) scale(0.1 -0.1)">
      <defs>
       <path id="DejaVuSans-47" d="M 3809 666 
L 3809 1919 
L 2778 1919 
L 2778 2438 
L 4434 2438 
L 4434 434 
Q 4069 175 3628 42 
Q 3188 -91 2688 -91 
Q 1594 -91 976 548 
Q 359 1188 359 2328 
Q 359 3472 976 4111 
Q 1594 4750 2688 4750 
Q 3144 4750 3555 4637 
Q 3966 4525 4313 4306 
L 4313 3634 
Q 3963 3931 3569 4081 
Q 3175 4231 2741 4231 
Q 1884 4231 1454 3753 
Q 1025 3275 1025 2328 
Q 1025 1384 1454 906 
Q 1884 428 2741 428 
Q 3075 428 3337 486 
Q 3600 544 3809 666 
z
" transform="scale(0.015625)"/>
       <path id="DejaVuSans-68" d="M 3513 2113 
L 3513 0 
L 2938 0 
L 2938 2094 
Q 2938 2591 2744 2837 
Q 2550 3084 2163 3084 
Q 1697 3084 1428 2787 
Q 1159 2491 1159 1978 
L 1159 0 
L 581 0 
L 581 4863 
L 1159 4863 
L 1159 2956 
Q 1366 3272 1645 3428 
Q 1925 3584 2291 3584 
Q 2894 3584 3203 3211 
Q 3513 2838 3513 2113 
z
" transform="scale(0.015625)"/>
      </defs>
      <use xlink:href="#DejaVuSans-47"/>
      <use xlink:href="#DejaVuSans-72" x="77.490234"/>
      <use xlink:href="#DejaVuSans-6f" x="116.353516"/>
      <use xlink:href="#DejaVuSans-75" x="177.535156"/>
      <use xlink:href="#DejaVuSans-6e" x="240.914062"/>
      <use xlink:href="#DejaVuSans-64" x="304.292969"/>
      <use xlink:href="#DejaVuSans-20" x="367.769531"/>
      <use xlink:href="#DejaVuSans-54" x="399.556641"/>
      <use xlink:href="#DejaVuSans-72" x="445.890625"/>
      <use xlink:href="#DejaVuSans-75" x="487.003906"/>
      <use xlink:href="#DejaVuSans-74" x="550.382812"/>
      <use xlink:href="#DejaVuSans-68" x="589.591797"/>
     </g>
    </g>
    <g id="line2d_20">
     <path d="M 66.6 69.248563 
L 76.6 69.248563 
L 86.6 69.248563 
" style="fill: none; stroke-dasharray: 5.55,2.4; stroke-dashoffset: 0; stroke: #4169e1; stroke-opacity: 0.7; stroke-width: 1.5"/>
    </g>
    <g id="text_18">
     <!-- Variance = 0.001 -->
     <g transform="translate(94.6 72.748563) scale(0.1 -0.1)">
      <defs>
       <path id="DejaVuSans-56" d="M 1831 0 
L 50 4666 
L 709 4666 
L 2188 738 
L 3669 4666 
L 4325 4666 
L 2547 0 
L 1831 0 
z
" transform="scale(0.015625)"/>
       <path id="DejaVuSans-3d" d="M 678 2906 
L 4684 2906 
L 4684 2381 
L 678 2381 
L 678 2906 
z
M 678 1631 
L 4684 1631 
L 4684 1100 
L 678 1100 
L 678 1631 
z
" transform="scale(0.015625)"/>
      </defs>
      <use xlink:href="#DejaVuSans-56"/>
      <use xlink:href="#DejaVuSans-61" x="60.658203"/>
      <use xlink:href="#DejaVuSans-72" x="121.9375"/>
      <use xlink:href="#DejaVuSans-69" x="163.050781"/>
      <use xlink:href="#DejaVuSans-61" x="190.833984"/>
      <use xlink:href="#DejaVuSans-6e" x="252.113281"/>
      <use xlink:href="#DejaVuSans-63" x="315.492188"/>
      <use xlink:href="#DejaVuSans-65" x="370.472656"/>
      <use xlink:href="#DejaVuSans-20" x="431.996094"/>
      <use xlink:href="#DejaVuSans-3d" x="463.783203"/>
      <use xlink:href="#DejaVuSans-20" x="547.572266"/>
      <use xlink:href="#DejaVuSans-30" x="579.359375"/>
      <use xlink:href="#DejaVuSans-2e" x="642.982422"/>
      <use xlink:href="#DejaVuSans-30" x="674.769531"/>
      <use xlink:href="#DejaVuSans-30" x="738.392578"/>
      <use xlink:href="#DejaVuSans-31" x="802.015625"/>
     </g>
    </g>
    <g id="line2d_21">
     <path d="M 66.6 83.926688 
L 76.6 83.926688 
L 86.6 83.926688 
" style="fill: none; stroke-dasharray: 5.55,2.4; stroke-dashoffset: 0; stroke: #ff8c00; stroke-opacity: 0.7; stroke-width: 1.5"/>
    </g>
    <g id="text_19">
     <!-- Variance = 0.005 -->
     <g transform="translate(94.6 87.426688) scale(0.1 -0.1)">
      <use xlink:href="#DejaVuSans-56"/>
      <use xlink:href="#DejaVuSans-61" x="60.658203"/>
      <use xlink:href="#DejaVuSans-72" x="121.9375"/>
      <use xlink:href="#DejaVuSans-69" x="163.050781"/>
      <use xlink:href="#DejaVuSans-61" x="190.833984"/>
      <use xlink:href="#DejaVuSans-6e" x="252.113281"/>
      <use xlink:href="#DejaVuSans-63" x="315.492188"/>
      <use xlink:href="#DejaVuSans-65" x="370.472656"/>
      <use xlink:href="#DejaVuSans-20" x="431.996094"/>
      <use xlink:href="#DejaVuSans-3d" x="463.783203"/>
      <use xlink:href="#DejaVuSans-20" x="547.572266"/>
      <use xlink:href="#DejaVuSans-30" x="579.359375"/>
      <use xlink:href="#DejaVuSans-2e" x="642.982422"/>
      <use xlink:href="#DejaVuSans-30" x="674.769531"/>
      <use xlink:href="#DejaVuSans-30" x="738.392578"/>
      <use xlink:href="#DejaVuSans-35" x="802.015625"/>
     </g>
    </g>
    <g id="line2d_22">
     <path d="M 66.6 98.604813 
L 76.6 98.604813 
L 86.6 98.604813 
" style="fill: none; stroke-dasharray: 5.55,2.4; stroke-dashoffset: 0; stroke: #dc143c; stroke-opacity: 0.7; stroke-width: 1.5"/>
    </g>
    <g id="text_20">
     <!-- Variance = 0.05 -->
     <g transform="translate(94.6 102.104813) scale(0.1 -0.1)">
      <use xlink:href="#DejaVuSans-56"/>
      <use xlink:href="#DejaVuSans-61" x="60.658203"/>
      <use xlink:href="#DejaVuSans-72" x="121.9375"/>
      <use xlink:href="#DejaVuSans-69" x="163.050781"/>
      <use xlink:href="#DejaVuSans-61" x="190.833984"/>
      <use xlink:href="#DejaVuSans-6e" x="252.113281"/>
      <use xlink:href="#DejaVuSans-63" x="315.492188"/>
      <use xlink:href="#DejaVuSans-65" x="370.472656"/>
      <use xlink:href="#DejaVuSans-20" x="431.996094"/>
      <use xlink:href="#DejaVuSans-3d" x="463.783203"/>
      <use xlink:href="#DejaVuSans-20" x="547.572266"/>
      <use xlink:href="#DejaVuSans-30" x="579.359375"/>
      <use xlink:href="#DejaVuSans-2e" x="642.982422"/>
      <use xlink:href="#DejaVuSans-30" x="674.769531"/>
      <use xlink:href="#DejaVuSans-35" x="738.392578"/>
     </g>
    </g>
    <g id="line2d_23">
     <path d="M 66.6 113.282938 
L 76.6 113.282938 
L 86.6 113.282938 
" style="fill: none; stroke-dasharray: 5.55,2.4; stroke-dashoffset: 0; stroke: #32cd32; stroke-opacity: 0.7; stroke-width: 1.5"/>
    </g>
    <g id="text_21">
     <!-- Variance = 0.08 -->
     <g transform="translate(94.6 116.782938) scale(0.1 -0.1)">
      <use xlink:href="#DejaVuSans-56"/>
      <use xlink:href="#DejaVuSans-61" x="60.658203"/>
      <use xlink:href="#DejaVuSans-72" x="121.9375"/>
      <use xlink:href="#DejaVuSans-69" x="163.050781"/>
      <use xlink:href="#DejaVuSans-61" x="190.833984"/>
      <use xlink:href="#DejaVuSans-6e" x="252.113281"/>
      <use xlink:href="#DejaVuSans-63" x="315.492188"/>
      <use xlink:href="#DejaVuSans-65" x="370.472656"/>
      <use xlink:href="#DejaVuSans-20" x="431.996094"/>
      <use xlink:href="#DejaVuSans-3d" x="463.783203"/>
      <use xlink:href="#DejaVuSans-20" x="547.572266"/>
      <use xlink:href="#DejaVuSans-30" x="579.359375"/>
      <use xlink:href="#DejaVuSans-2e" x="642.982422"/>
      <use xlink:href="#DejaVuSans-30" x="674.769531"/>
      <use xlink:href="#DejaVuSans-38" x="738.392578"/>
     </g>
    </g>
   </g>
  </g>
 </g>
 <defs>
  <clipPath id="p284c7bfcf5">
   <rect x="57.6" y="41.472" width="357.12" height="266.112"/>
  </clipPath>
 </defs>
</svg>
