<?xml version="1.0" encoding="utf-8" standalone="no"?>
<!DOCTYPE svg PUBLIC "-//W3C//DTD SVG 1.1//EN"
  "http://www.w3.org/Graphics/SVG/1.1/DTD/svg11.dtd">
<svg xmlns:xlink="http://www.w3.org/1999/xlink" width="447.759707pt" height="349.28073pt" viewBox="0 0 447.759707 349.28073" xmlns="http://www.w3.org/2000/svg" version="1.1">
 <metadata>
  <rdf:RDF xmlns:dc="http://purl.org/dc/elements/1.1/" xmlns:cc="http://creativecommons.org/ns#" xmlns:rdf="http://www.w3.org/1999/02/22-rdf-syntax-ns#">
   <cc:Work>
    <dc:type rdf:resource="http://purl.org/dc/dcmitype/StillImage"/>
    <dc:date>2023-06-21T11:06:27.936451</dc:date>
    <dc:format>image/svg+xml</dc:format>
    <dc:creator>
     <cc:Agent>
      <dc:title>Matplotlib v3.6.1, https://matplotlib.org/</dc:title>
     </cc:Agent>
    </dc:creator>
   </cc:Work>
  </rdf:RDF>
 </metadata>
 <defs>
  <style type="text/css">*{stroke-linejoin: round; stroke-linecap: butt}</style>
 </defs>
 <g id="figure_1">
  <g id="patch_1">
   <path d="M 0 349.28073 
L 447.759707 349.28073 
L 447.759707 0 
L 0 0 
z
" style="fill: #ffffff"/>
  </g>
  <g id="axes_1">
   <g id="patch_2">
    <path d="M 38.799707 302.8533 
L 440.559707 302.8533 
L 440.559707 25.6533 
L 38.799707 25.6533 
z
" style="fill: #ffffff"/>
   </g>
   <g id="matplotlib.axis_1">
    <g id="xtick_1">
     <g id="line2d_1">
      <defs>
       <path id="ma20a7325ba" d="M 0 0 
L 0 3.5 
" style="stroke: #000000; stroke-width: 0.8"/>
      </defs>
      <g>
       <use xlink:href="#ma20a7325ba" x="38.799707" y="302.8533" style="stroke: #000000; stroke-width: 0.8"/>
      </g>
     </g>
     <g id="text_1">
      <!-- $\mathdefault{0}$ -->
      <g transform="translate(35.141588 320.231025) scale(0.15 -0.15)">
       <defs>
        <path id="CMR17-30" d="M 2688 2025 
C 2688 2416 2682 3080 2413 3591 
C 2176 4039 1798 4198 1466 4198 
C 1158 4198 768 4058 525 3597 
C 269 3118 243 2524 243 2025 
C 243 1661 250 1106 448 619 
C 723 -39 1216 -128 1466 -128 
C 1760 -128 2208 -7 2470 600 
C 2662 1042 2688 1559 2688 2025 
z
M 1466 -26 
C 1056 -26 813 325 723 812 
C 653 1188 653 1738 653 2096 
C 653 2588 653 2997 736 3387 
C 858 3929 1216 4096 1466 4096 
C 1728 4096 2067 3923 2189 3400 
C 2272 3036 2278 2607 2278 2096 
C 2278 1680 2278 1169 2202 792 
C 2067 95 1690 -26 1466 -26 
z
" transform="scale(0.015625)"/>
       </defs>
       <use xlink:href="#CMR17-30" transform="scale(0.996264)"/>
      </g>
     </g>
    </g>
    <g id="xtick_2">
     <g id="line2d_2">
      <g>
       <use xlink:href="#ma20a7325ba" x="123.828279" y="302.8533" style="stroke: #000000; stroke-width: 0.8"/>
      </g>
     </g>
     <g id="text_2">
      <!-- $\mathdefault{200}$ -->
      <g transform="translate(112.853922 320.231025) scale(0.15 -0.15)">
       <defs>
        <path id="CMR17-32" d="M 2669 989 
L 2554 989 
C 2490 536 2438 459 2413 420 
C 2381 369 1920 369 1830 369 
L 602 369 
C 832 619 1280 1072 1824 1597 
C 2214 1967 2669 2402 2669 3035 
C 2669 3790 2067 4224 1395 4224 
C 691 4224 262 3604 262 3030 
C 262 2780 448 2748 525 2748 
C 589 2748 781 2787 781 3010 
C 781 3207 614 3264 525 3264 
C 486 3264 448 3258 422 3245 
C 544 3790 915 4058 1306 4058 
C 1862 4058 2227 3617 2227 3035 
C 2227 2479 1901 2000 1536 1584 
L 262 146 
L 262 0 
L 2515 0 
L 2669 989 
z
" transform="scale(0.015625)"/>
       </defs>
       <use xlink:href="#CMR17-32" transform="scale(0.996264)"/>
       <use xlink:href="#CMR17-30" transform="translate(45.690477 0) scale(0.996264)"/>
       <use xlink:href="#CMR17-30" transform="translate(91.380954 0) scale(0.996264)"/>
      </g>
     </g>
    </g>
    <g id="xtick_3">
     <g id="line2d_3">
      <g>
       <use xlink:href="#ma20a7325ba" x="208.85685" y="302.8533" style="stroke: #000000; stroke-width: 0.8"/>
      </g>
     </g>
     <g id="text_3">
      <!-- $\mathdefault{400}$ -->
      <g transform="translate(197.882493 320.231025) scale(0.15 -0.15)">
       <defs>
        <path id="CMR17-34" d="M 2150 4122 
C 2150 4256 2144 4256 2029 4256 
L 128 1254 
L 128 1088 
L 1779 1088 
L 1779 457 
C 1779 224 1766 160 1318 160 
L 1197 160 
L 1197 0 
C 1402 0 1747 0 1965 0 
C 2182 0 2528 0 2733 0 
L 2733 160 
L 2611 160 
C 2163 160 2150 224 2150 457 
L 2150 1088 
L 2803 1088 
L 2803 1254 
L 2150 1254 
L 2150 4122 
z
M 1798 3703 
L 1798 1254 
L 256 1254 
L 1798 3703 
z
" transform="scale(0.015625)"/>
       </defs>
       <use xlink:href="#CMR17-34" transform="scale(0.996264)"/>
       <use xlink:href="#CMR17-30" transform="translate(45.690477 0) scale(0.996264)"/>
       <use xlink:href="#CMR17-30" transform="translate(91.380954 0) scale(0.996264)"/>
      </g>
     </g>
    </g>
    <g id="xtick_4">
     <g id="line2d_4">
      <g>
       <use xlink:href="#ma20a7325ba" x="293.885422" y="302.8533" style="stroke: #000000; stroke-width: 0.8"/>
      </g>
     </g>
     <g id="text_4">
      <!-- $\mathdefault{600}$ -->
      <g transform="translate(282.911065 320.231025) scale(0.15 -0.15)">
       <defs>
        <path id="CMR17-36" d="M 678 2176 
C 678 3690 1395 4032 1811 4032 
C 1946 4032 2272 4009 2400 3776 
C 2298 3776 2106 3776 2106 3553 
C 2106 3381 2246 3323 2336 3323 
C 2394 3323 2566 3348 2566 3560 
C 2566 3954 2246 4179 1805 4179 
C 1043 4179 243 3390 243 1984 
C 243 253 966 -128 1478 -128 
C 2099 -128 2688 427 2688 1283 
C 2688 2081 2170 2662 1517 2662 
C 1126 2662 838 2407 678 1960 
L 678 2176 
z
M 1478 25 
C 691 25 691 1200 691 1436 
C 691 1896 909 2560 1504 2560 
C 1613 2560 1926 2560 2138 2120 
C 2253 1870 2253 1609 2253 1289 
C 2253 944 2253 690 2118 434 
C 1978 171 1773 25 1478 25 
z
" transform="scale(0.015625)"/>
       </defs>
       <use xlink:href="#CMR17-36" transform="scale(0.996264)"/>
       <use xlink:href="#CMR17-30" transform="translate(45.690477 0) scale(0.996264)"/>
       <use xlink:href="#CMR17-30" transform="translate(91.380954 0) scale(0.996264)"/>
      </g>
     </g>
    </g>
    <g id="xtick_5">
     <g id="line2d_5">
      <g>
       <use xlink:href="#ma20a7325ba" x="378.913993" y="302.8533" style="stroke: #000000; stroke-width: 0.8"/>
      </g>
     </g>
     <g id="text_5">
      <!-- $\mathdefault{800}$ -->
      <g transform="translate(367.939636 320.231025) scale(0.15 -0.15)">
       <defs>
        <path id="CMR17-38" d="M 1741 2264 
C 2144 2467 2554 2773 2554 3263 
C 2554 3841 1990 4179 1472 4179 
C 890 4179 378 3759 378 3180 
C 378 3021 416 2747 666 2505 
C 730 2442 998 2251 1171 2130 
C 883 1983 211 1634 211 934 
C 211 279 838 -128 1459 -128 
C 2144 -128 2720 362 2720 1010 
C 2720 1590 2330 1857 2074 2029 
L 1741 2264 
z
M 902 2822 
C 851 2854 595 3051 595 3351 
C 595 3739 998 4032 1459 4032 
C 1965 4032 2336 3676 2336 3262 
C 2336 2669 1670 2331 1638 2331 
C 1632 2331 1626 2331 1574 2370 
L 902 2822 
z
M 2080 1519 
C 2176 1449 2483 1240 2483 851 
C 2483 381 2010 25 1472 25 
C 890 25 448 438 448 940 
C 448 1443 838 1862 1280 2060 
L 2080 1519 
z
" transform="scale(0.015625)"/>
       </defs>
       <use xlink:href="#CMR17-38" transform="scale(0.996264)"/>
       <use xlink:href="#CMR17-30" transform="translate(45.690477 0) scale(0.996264)"/>
       <use xlink:href="#CMR17-30" transform="translate(91.380954 0) scale(0.996264)"/>
      </g>
     </g>
    </g>
    <g id="text_6">
     <!-- Time [s] -->
     <g transform="translate(213.625775 338.34474) scale(0.15 -0.15)">
      <defs>
       <path id="CMR17-54" d="M 3981 4326 
L 288 4326 
L 179 2918 
L 294 2918 
C 378 3976 467 4160 1453 4160 
C 1568 4160 1754 4160 1805 4154 
C 1926 4135 1926 4058 1926 3912 
L 1926 459 
C 1926 230 1907 160 1376 160 
L 1197 160 
L 1197 0 
C 1504 0 1824 0 2138 0 
C 2451 0 2771 0 3078 0 
L 3078 160 
L 2899 160 
C 2368 160 2349 230 2349 459 
L 2349 3912 
C 2349 4052 2349 4129 2464 4154 
C 2515 4160 2701 4160 2816 4160 
C 3795 4160 3891 3976 3974 2918 
L 4090 2918 
L 3981 4326 
z
" transform="scale(0.015625)"/>
       <path id="CMR17-69" d="M 992 3909 
C 992 4049 877 4170 730 4170 
C 589 4170 467 4056 467 3909 
C 467 3769 582 3648 730 3648 
C 870 3648 992 3763 992 3909 
z
M 243 2706 
L 243 2541 
C 602 2541 653 2502 653 2197 
L 653 427 
C 653 184 627 153 218 153 
L 218 -13 
C 371 0 646 0 806 0 
C 960 0 1222 0 1370 -13 
L 1370 153 
C 992 153 979 191 979 420 
L 979 2776 
L 243 2706 
z
" transform="scale(0.015625)"/>
       <path id="CMR17-6d" d="M 4326 1933 
C 4326 2252 4269 2790 3507 2790 
C 3072 2790 2771 2496 2656 2151 
L 2650 2151 
C 2573 2676 2195 2790 1837 2790 
C 1331 2790 1069 2400 973 2144 
L 966 2144 
L 966 2790 
L 211 2720 
L 211 2554 
C 589 2554 646 2515 646 2208 
L 646 428 
C 646 184 621 153 211 153 
L 211 -13 
C 365 0 646 0 813 0 
C 979 0 1267 0 1421 -13 
L 1421 153 
C 1011 153 986 178 986 428 
L 986 1658 
C 986 2247 1344 2688 1792 2688 
C 2266 2688 2317 2266 2317 1958 
L 2317 428 
C 2317 184 2291 153 1882 153 
L 1882 -13 
C 2035 0 2317 0 2483 0 
C 2650 0 2938 0 3091 -13 
L 3091 153 
C 2682 153 2656 178 2656 428 
L 2656 1658 
C 2656 2247 3014 2688 3462 2688 
C 3936 2688 3987 2266 3987 1958 
L 3987 428 
C 3987 184 3962 153 3552 153 
L 3552 -13 
C 3706 0 3987 0 4154 0 
C 4320 0 4608 0 4762 -13 
L 4762 153 
C 4352 153 4326 178 4326 428 
L 4326 1933 
z
" transform="scale(0.015625)"/>
       <path id="CMR17-65" d="M 2438 1472 
C 2464 1498 2464 1511 2464 1576 
C 2464 2238 2118 2816 1389 2816 
C 710 2816 173 2169 173 1383 
C 173 551 781 -64 1459 -64 
C 2176 -64 2458 607 2458 740 
C 2458 784 2419 784 2406 784 
C 2362 784 2355 771 2330 696 
C 2189 265 1837 51 1504 51 
C 1229 51 954 203 781 480 
C 582 803 582 1176 582 1472 
L 2438 1472 
z
M 589 1568 
C 634 2505 1126 2714 1382 2714 
C 1818 2714 2112 2297 2118 1568 
L 589 1568 
z
" transform="scale(0.015625)"/>
       <path id="CMR17-5b" d="M 1504 -1600 
L 1504 -1377 
L 902 -1377 
L 902 4544 
L 1504 4544 
L 1504 4767 
L 678 4767 
L 678 -1600 
L 1504 -1600 
z
" transform="scale(0.015625)"/>
       <path id="CMR17-73" d="M 1978 2697 
C 1978 2813 1971 2819 1933 2819 
C 1907 2819 1901 2813 1824 2717 
C 1805 2691 1747 2626 1728 2601 
C 1523 2819 1235 2819 1126 2819 
C 416 2819 160 2447 160 2076 
C 160 1498 813 1365 998 1325 
C 1402 1243 1542 1217 1677 1101 
C 1760 1025 1901 884 1901 654 
C 1901 384 1747 38 1158 38 
C 602 38 403 460 288 1021 
C 269 1110 269 1117 218 1117 
C 166 1117 160 1110 160 983 
L 160 63 
C 160 -51 166 -58 205 -58 
C 237 -58 243 -51 275 0 
C 314 57 410 211 448 276 
C 576 103 800 -64 1158 -64 
C 1792 -64 2131 283 2131 784 
C 2131 1112 1958 1285 1875 1362 
C 1683 1561 1459 1606 1190 1657 
C 838 1735 390 1825 390 2217 
C 390 2383 480 2737 1126 2737 
C 1811 2737 1850 2094 1862 1888 
C 1869 1856 1901 1849 1920 1849 
C 1978 1849 1978 1869 1978 1978 
L 1978 2697 
z
" transform="scale(0.015625)"/>
       <path id="CMR17-5d" d="M 915 4767 
L 90 4767 
L 90 4544 
L 691 4544 
L 691 -1377 
L 90 -1377 
L 90 -1600 
L 915 -1600 
L 915 4767 
z
" transform="scale(0.015625)"/>
      </defs>
      <use xlink:href="#CMR17-54" transform="scale(0.996264)"/>
      <use xlink:href="#CMR17-69" transform="translate(66.509881 0) scale(0.996264)"/>
      <use xlink:href="#CMR17-6d" transform="translate(91.380939 0) scale(0.996264)"/>
      <use xlink:href="#CMR17-65" transform="translate(168.300529 0) scale(0.996264)"/>
      <use xlink:href="#CMR17-5b" transform="translate(238.862156 0) scale(0.996264)"/>
      <use xlink:href="#CMR17-73" transform="translate(263.733214 0) scale(0.996264)"/>
      <use xlink:href="#CMR17-5d" transform="translate(299.534552 0) scale(0.996264)"/>
     </g>
    </g>
   </g>
   <g id="matplotlib.axis_2">
    <g id="ytick_1">
     <g id="line2d_6">
      <defs>
       <path id="md568593366" d="M 0 0 
L -3.5 0 
" style="stroke: #000000; stroke-width: 0.8"/>
      </defs>
      <g>
       <use xlink:href="#md568593366" x="38.799707" y="289.894985" style="stroke: #000000; stroke-width: 0.8"/>
      </g>
     </g>
     <g id="text_7">
      <!-- $\mathdefault{0}$ -->
      <g transform="translate(24.483469 295.083848) scale(0.15 -0.15)">
       <use xlink:href="#CMR17-30" transform="scale(0.996264)"/>
      </g>
     </g>
    </g>
    <g id="ytick_2">
     <g id="line2d_7">
      <g>
       <use xlink:href="#md568593366" x="38.799707" y="248.423355" style="stroke: #000000; stroke-width: 0.8"/>
      </g>
     </g>
     <g id="text_8">
      <!-- $\mathdefault{1}$ -->
      <g transform="translate(24.483469 253.612217) scale(0.15 -0.15)">
       <defs>
        <path id="CMR17-31" d="M 1702 4058 
C 1702 4192 1696 4192 1606 4192 
C 1357 3916 979 3827 621 3827 
C 602 3827 570 3827 563 3808 
C 557 3795 557 3782 557 3648 
C 755 3648 1088 3686 1344 3839 
L 1344 461 
C 1344 236 1331 160 781 160 
L 589 160 
L 589 0 
C 896 0 1216 0 1523 0 
C 1830 0 2150 0 2458 0 
L 2458 160 
L 2266 160 
C 1715 160 1702 230 1702 458 
L 1702 4058 
z
" transform="scale(0.015625)"/>
       </defs>
       <use xlink:href="#CMR17-31" transform="scale(0.996264)"/>
      </g>
     </g>
    </g>
    <g id="ytick_3">
     <g id="line2d_8">
      <g>
       <use xlink:href="#md568593366" x="38.799707" y="206.951724" style="stroke: #000000; stroke-width: 0.8"/>
      </g>
     </g>
     <g id="text_9">
      <!-- $\mathdefault{2}$ -->
      <g transform="translate(24.483469 212.140586) scale(0.15 -0.15)">
       <use xlink:href="#CMR17-32" transform="scale(0.996264)"/>
      </g>
     </g>
    </g>
    <g id="ytick_4">
     <g id="line2d_9">
      <g>
       <use xlink:href="#md568593366" x="38.799707" y="165.480093" style="stroke: #000000; stroke-width: 0.8"/>
      </g>
     </g>
     <g id="text_10">
      <!-- $\mathdefault{3}$ -->
      <g transform="translate(24.483469 170.668956) scale(0.15 -0.15)">
       <defs>
        <path id="CMR17-33" d="M 1414 2157 
C 1984 2157 2234 1662 2234 1090 
C 2234 320 1824 25 1453 25 
C 1114 25 563 194 390 693 
C 422 680 454 680 486 680 
C 640 680 755 782 755 948 
C 755 1133 614 1216 486 1216 
C 378 1216 211 1165 211 926 
C 211 335 787 -128 1466 -128 
C 2176 -128 2720 430 2720 1085 
C 2720 1707 2208 2157 1600 2227 
C 2086 2328 2554 2756 2554 3329 
C 2554 3820 2048 4179 1472 4179 
C 890 4179 378 3829 378 3329 
C 378 3110 544 3072 627 3072 
C 762 3072 877 3155 877 3321 
C 877 3486 762 3569 627 3569 
C 602 3569 570 3569 544 3557 
C 730 3959 1235 4032 1459 4032 
C 1683 4032 2106 3925 2106 3320 
C 2106 3143 2080 2828 1862 2550 
C 1670 2304 1453 2304 1242 2284 
C 1210 2284 1062 2269 1037 2269 
C 992 2263 966 2257 966 2208 
C 966 2163 973 2157 1101 2157 
L 1414 2157 
z
" transform="scale(0.015625)"/>
       </defs>
       <use xlink:href="#CMR17-33" transform="scale(0.996264)"/>
      </g>
     </g>
    </g>
    <g id="ytick_5">
     <g id="line2d_10">
      <g>
       <use xlink:href="#md568593366" x="38.799707" y="124.008462" style="stroke: #000000; stroke-width: 0.8"/>
      </g>
     </g>
     <g id="text_11">
      <!-- $\mathdefault{4}$ -->
      <g transform="translate(24.483469 129.197325) scale(0.15 -0.15)">
       <use xlink:href="#CMR17-34" transform="scale(0.996264)"/>
      </g>
     </g>
    </g>
    <g id="ytick_6">
     <g id="line2d_11">
      <g>
       <use xlink:href="#md568593366" x="38.799707" y="82.536832" style="stroke: #000000; stroke-width: 0.8"/>
      </g>
     </g>
     <g id="text_12">
      <!-- $\mathdefault{5}$ -->
      <g transform="translate(24.483469 87.725694) scale(0.15 -0.15)">
       <defs>
        <path id="CMR17-35" d="M 730 3692 
C 794 3666 1056 3584 1325 3584 
C 1920 3584 2246 3911 2432 4100 
C 2432 4157 2432 4192 2394 4192 
C 2387 4192 2374 4192 2323 4163 
C 2099 4058 1837 3973 1517 3973 
C 1325 3973 1037 3999 723 4139 
C 653 4171 640 4171 634 4171 
C 602 4171 595 4164 595 4037 
L 595 2203 
C 595 2089 595 2057 659 2057 
C 691 2057 704 2070 736 2114 
C 941 2401 1222 2522 1542 2522 
C 1766 2522 2246 2382 2246 1289 
C 2246 1085 2246 715 2054 421 
C 1894 159 1645 25 1370 25 
C 947 25 518 320 403 814 
C 429 807 480 795 506 795 
C 589 795 749 840 749 1038 
C 749 1210 627 1280 506 1280 
C 358 1280 262 1190 262 1011 
C 262 454 704 -128 1382 -128 
C 2042 -128 2669 440 2669 1264 
C 2669 2030 2170 2624 1549 2624 
C 1222 2624 947 2503 730 2274 
L 730 3692 
z
" transform="scale(0.015625)"/>
       </defs>
       <use xlink:href="#CMR17-35" transform="scale(0.996264)"/>
      </g>
     </g>
    </g>
    <g id="ytick_7">
     <g id="line2d_12">
      <g>
       <use xlink:href="#md568593366" x="38.799707" y="41.065201" style="stroke: #000000; stroke-width: 0.8"/>
      </g>
     </g>
     <g id="text_13">
      <!-- $\mathdefault{6}$ -->
      <g transform="translate(24.483469 46.254063) scale(0.15 -0.15)">
       <use xlink:href="#CMR17-36" transform="scale(0.996264)"/>
      </g>
     </g>
    </g>
    <g id="text_14">
     <!-- X-position -->
     <g transform="translate(17.577725 197.620878) rotate(-90) scale(0.15 -0.15)">
      <defs>
       <path id="CMR17-58" d="M 2336 2398 
L 3283 3753 
C 3379 3886 3571 4160 4096 4160 
L 4096 4332 
C 3949 4319 3706 4319 3552 4319 
C 3341 4319 3078 4319 2918 4332 
L 2918 4166 
C 3123 4147 3174 4020 3174 3918 
C 3174 3843 3142 3792 3098 3728 
L 2253 2513 
L 1306 3887 
C 1261 3956 1254 3975 1254 3994 
C 1254 4052 1325 4160 1536 4160 
L 1536 4319 
C 1331 4319 1018 4319 806 4319 
C 640 4319 320 4319 166 4332 
L 166 4160 
C 518 4160 634 4148 774 3951 
L 2010 2163 
L 896 549 
C 621 153 205 153 83 153 
L 83 -13 
C 230 0 474 0 627 0 
C 800 0 1101 0 1261 -13 
L 1261 153 
C 1062 172 1005 299 1005 401 
C 1005 483 1037 528 1069 572 
L 2093 2048 
L 3206 422 
C 3258 352 3258 333 3258 314 
C 3258 263 3200 153 2976 153 
L 2976 0 
C 3181 0 3494 0 3706 0 
C 3872 0 4192 0 4346 -13 
L 4346 153 
C 3936 153 3872 184 3744 363 
L 2336 2398 
z
" transform="scale(0.015625)"/>
       <path id="CMR17-2d" d="M 1632 1216 
L 1632 1496 
L 26 1496 
L 26 1216 
L 1632 1216 
z
" transform="scale(0.015625)"/>
       <path id="CMR17-70" d="M 1408 -1063 
C 998 -1063 973 -1037 973 -789 
L 973 402 
C 1158 134 1427 -38 1766 -38 
C 2406 -38 3053 523 3053 1388 
C 3053 2191 2496 2802 1837 2802 
C 1453 2802 1139 2592 960 2338 
L 960 2802 
L 198 2732 
L 198 2567 
C 576 2567 634 2528 634 2223 
L 634 -789 
C 634 -1031 608 -1063 198 -1063 
L 198 -1228 
C 352 -1216 634 -1216 800 -1216 
C 966 -1216 1254 -1216 1408 -1228 
L 1408 -1063 
z
M 973 2012 
C 973 2102 973 2235 1222 2471 
C 1254 2497 1472 2688 1792 2688 
C 2259 2688 2643 2108 2643 1382 
C 2643 656 2234 64 1728 64 
C 1498 64 1248 172 1056 472 
C 973 612 973 650 973 752 
L 973 2012 
z
" transform="scale(0.015625)"/>
       <path id="CMR17-6f" d="M 2758 1356 
C 2758 2176 2163 2816 1466 2816 
C 768 2816 173 2176 173 1356 
C 173 551 768 -64 1466 -64 
C 2163 -64 2758 551 2758 1356 
z
M 1466 51 
C 1165 51 909 230 762 480 
C 602 767 582 1126 582 1408 
C 582 1677 595 2010 762 2298 
C 890 2509 1139 2714 1466 2714 
C 1754 2714 1997 2554 2150 2330 
C 2349 2029 2349 1607 2349 1408 
C 2349 1158 2336 775 2163 467 
C 1984 173 1709 51 1466 51 
z
" transform="scale(0.015625)"/>
       <path id="CMR17-74" d="M 966 2560 
L 1862 2560 
L 1862 2725 
L 966 2725 
L 966 3904 
L 851 3904 
C 838 3245 614 2668 70 2668 
L 70 2560 
L 627 2560 
L 627 771 
C 627 650 627 -64 1370 -64 
C 1747 -64 1965 306 1965 777 
L 1965 1140 
L 1850 1140 
L 1850 783 
C 1850 344 1677 51 1408 51 
C 1222 51 966 178 966 758 
L 966 2560 
z
" transform="scale(0.015625)"/>
       <path id="CMR17-6e" d="M 2656 1933 
C 2656 2259 2592 2790 1837 2790 
C 1331 2790 1069 2400 973 2144 
L 966 2144 
L 966 2790 
L 211 2720 
L 211 2554 
C 589 2554 646 2515 646 2208 
L 646 428 
C 646 184 621 153 211 153 
L 211 -13 
C 365 0 646 0 813 0 
C 979 0 1267 0 1421 -13 
L 1421 153 
C 1011 153 986 178 986 428 
L 986 1658 
C 986 2247 1344 2688 1792 2688 
C 2266 2688 2317 2266 2317 1958 
L 2317 428 
C 2317 184 2291 153 1882 153 
L 1882 -13 
C 2035 0 2317 0 2483 0 
C 2650 0 2938 0 3091 -13 
L 3091 153 
C 2682 153 2656 178 2656 428 
L 2656 1933 
z
" transform="scale(0.015625)"/>
      </defs>
      <use xlink:href="#CMR17-58" transform="scale(0.996264)"/>
      <use xlink:href="#CMR17-2d" transform="translate(69.07243 0) scale(0.996264)"/>
      <use xlink:href="#CMR17-70" transform="translate(99.148396 0) scale(0.996264)"/>
      <use xlink:href="#CMR17-6f" transform="translate(152.646205 0) scale(0.996264)"/>
      <use xlink:href="#CMR17-73" transform="translate(198.336682 0) scale(0.996264)"/>
      <use xlink:href="#CMR17-69" transform="translate(234.138019 0) scale(0.996264)"/>
      <use xlink:href="#CMR17-74" transform="translate(259.009078 0) scale(0.996264)"/>
      <use xlink:href="#CMR17-69" transform="translate(294.289846 0) scale(0.996264)"/>
      <use xlink:href="#CMR17-6f" transform="translate(319.160904 0) scale(0.996264)"/>
      <use xlink:href="#CMR17-6e" transform="translate(364.851381 0) scale(0.996264)"/>
     </g>
    </g>
   </g>
   <g id="line2d_13">
    <path d="M 38.799707 284.893921 
L 39.439554 286.540801 
L 40.079401 286.840268 
L 40.719249 289.310899 
L 41.359096 286.787931 
L 41.998943 286.850885 
L 42.63879 283.495 
L 43.278637 283.883548 
L 43.918484 283.028237 
L 44.558331 277.23548 
L 45.198178 277.456109 
L 45.838025 274.605307 
L 47.11772 262.951987 
L 48.397414 265.107184 
L 49.037261 260.201754 
L 49.677108 257.533137 
L 50.316955 257.091299 
L 50.956802 260.378921 
L 51.596649 260.852195 
L 52.236497 254.593131 
L 52.876344 249.7835 
L 53.516191 258.454471 
L 54.156038 264.58601 
L 54.795885 260.341181 
L 55.435732 263.157105 
L 56.075579 262.168712 
L 56.715426 259.998253 
L 57.355273 261.753332 
L 57.995121 248.488672 
L 58.634968 255.667826 
L 59.274815 265.043276 
L 59.914662 262.651981 
L 60.554509 264.987622 
L 61.194356 268.3287 
L 61.834203 269.250988 
L 62.47405 270.620838 
L 63.113897 264.034189 
L 63.753745 262.82695 
L 64.393592 267.86455 
L 65.033439 268.157257 
L 65.673286 270.072334 
L 66.313133 274.388369 
L 66.95298 276.405923 
L 67.592827 275.53083 
L 68.232674 276.244681 
L 68.872521 276.209554 
L 70.152216 281.330057 
L 70.792063 273.483334 
L 72.071757 264.647347 
L 72.711604 266.979462 
L 73.351451 264.550759 
L 73.991298 266.362448 
L 74.631145 274.586687 
L 75.270993 264.995294 
L 75.91084 257.767991 
L 76.550687 259.950809 
L 77.190534 267.926467 
L 77.830381 264.814229 
L 78.470228 260.101351 
L 79.110075 256.468436 
L 79.749922 257.764176 
L 80.389769 266.203528 
L 81.029616 259.081107 
L 81.669464 265.338554 
L 82.309311 264.465743 
L 82.949158 261.993536 
L 83.589005 261.840837 
L 84.228852 260.239369 
L 84.868699 264.945652 
L 85.508546 267.275321 
L 86.148393 266.219744 
L 87.428088 259.259394 
L 88.067935 263.894471 
L 88.707782 266.682443 
L 89.347629 264.630634 
L 89.987476 271.576924 
L 91.26717 264.921474 
L 91.907017 268.590345 
L 92.546864 266.640473 
L 93.186712 256.759857 
L 93.826559 257.020133 
L 94.466406 255.166351 
L 95.106253 254.900104 
L 95.7461 251.798523 
L 96.385947 260.280011 
L 97.025794 265.474498 
L 97.665641 261.200888 
L 98.305488 261.128686 
L 98.945336 260.768464 
L 99.585183 262.461667 
L 100.22503 263.577088 
L 100.864877 262.835949 
L 101.504724 262.270276 
L 102.144571 258.851396 
L 102.784418 262.674002 
L 103.424265 259.36863 
L 104.064112 259.69157 
L 104.70396 257.714451 
L 105.343807 258.110837 
L 105.983654 256.165486 
L 106.623501 253.046944 
L 107.263348 255.209606 
L 107.903195 256.267465 
L 108.543042 254.937926 
L 109.182889 250.926914 
L 109.822736 252.603612 
L 110.462584 255.976749 
L 111.742278 260.199473 
L 112.382125 260.211168 
L 113.021972 258.254993 
L 113.661819 254.460753 
L 114.301666 258.031419 
L 114.941513 250.442816 
L 115.58136 250.394294 
L 116.221208 252.954752 
L 116.861055 250.746015 
L 117.500902 250.955239 
L 118.140749 253.437565 
L 118.780596 253.705596 
L 119.420443 249.803033 
L 120.06029 252.633347 
L 120.700137 247.952527 
L 121.339984 247.17257 
L 121.979831 247.384117 
L 122.619679 246.617141 
L 123.259526 242.782964 
L 123.899373 246.161036 
L 124.53922 244.351628 
L 125.179067 244.908966 
L 125.818914 253.732802 
L 126.458761 253.262679 
L 127.738455 226.345393 
L 128.378303 228.692107 
L 129.01815 234.718557 
L 129.657997 232.514215 
L 130.297844 234.103574 
L 130.937691 230.958573 
L 131.577538 231.612788 
L 132.217385 234.820743 
L 132.857232 232.838689 
L 133.497079 229.384351 
L 134.776774 237.163392 
L 135.416621 235.048546 
L 136.056468 238.914781 
L 136.696315 236.970798 
L 137.336162 239.523957 
L 137.976009 233.105891 
L 138.615856 236.861022 
L 139.255703 234.722621 
L 139.895551 235.053316 
L 140.535398 231.443957 
L 141.175245 231.47224 
L 141.815092 231.776891 
L 142.454939 238.331938 
L 143.094786 240.071217 
L 143.734633 235.574116 
L 144.37448 237.81769 
L 145.014327 238.937507 
L 145.654175 242.582158 
L 146.294022 242.290405 
L 146.933869 238.15726 
L 147.573716 239.36172 
L 148.213563 236.663327 
L 148.85341 235.449577 
L 149.493257 245.180149 
L 150.133104 244.643589 
L 150.772951 241.317274 
L 151.412799 242.773467 
L 152.052646 242.573159 
L 152.692493 242.748501 
L 153.33234 246.788833 
L 153.972187 246.452996 
L 154.612034 239.827778 
L 155.251881 235.396701 
L 155.891728 241.529899 
L 156.531575 243.282241 
L 157.171423 247.671598 
L 157.81127 243.070445 
L 158.451117 241.064006 
L 159.090964 243.87682 
L 159.730811 243.44369 
L 160.370658 244.897561 
L 161.010505 251.087658 
L 161.650352 250.70728 
L 162.290199 253.445652 
L 162.930047 248.799253 
L 163.569894 246.979064 
L 164.209741 249.165241 
L 164.849588 252.398203 
L 165.489435 254.852701 
L 166.129282 260.196197 
L 166.769129 258.152682 
L 167.408976 250.363978 
L 168.048823 247.298478 
L 168.68867 243.063146 
L 169.328518 242.757334 
L 169.968365 239.95124 
L 170.608212 241.314536 
L 171.248059 237.146181 
L 171.887906 235.651751 
L 172.527753 238.267782 
L 173.1676 233.301803 
L 173.807447 222.162149 
L 174.447294 219.612888 
L 175.087142 222.585907 
L 175.726989 222.586529 
L 176.366836 228.963953 
L 177.006683 229.317955 
L 177.64653 230.141623 
L 178.286377 215.81193 
L 178.926224 231.765652 
L 179.566071 234.503816 
L 180.205918 234.853008 
L 180.845766 234.532722 
L 181.485613 234.619522 
L 182.12546 235.834268 
L 182.765307 236.725244 
L 183.405154 230.450296 
L 184.045001 229.146553 
L 184.684848 219.17416 
L 185.324695 222.28279 
L 185.964542 219.36099 
L 186.60439 222.192714 
L 187.244237 219.154046 
L 187.884084 218.792082 
L 188.523931 220.985973 
L 189.163778 218.94955 
L 189.803625 219.385002 
L 190.443472 220.290867 
L 191.083319 217.054379 
L 191.723166 222.503212 
L 192.363014 226.529195 
L 193.002861 223.64024 
L 193.642708 237.599591 
L 194.282555 240.332364 
L 194.922402 240.630296 
L 195.562249 240.223874 
L 196.202096 235.638729 
L 196.841943 236.182007 
L 197.48179 238.373203 
L 198.761485 238.718537 
L 200.041179 233.636023 
L 200.681026 229.423376 
L 201.320873 226.824432 
L 201.96072 232.990641 
L 202.600567 234.264027 
L 203.240414 240.032524 
L 203.880262 235.159939 
L 204.520109 233.252825 
L 205.159956 235.483708 
L 205.799803 235.562089 
L 206.43965 240.511521 
L 207.079497 239.347122 
L 207.719344 237.622483 
L 208.359191 240.693291 
L 208.999038 242.117925 
L 209.638885 237.636086 
L 210.278733 236.997049 
L 210.91858 228.530409 
L 211.558427 226.37745 
L 212.198274 230.4797 
L 212.838121 222.398911 
L 213.477968 230.390038 
L 214.117815 230.378177 
L 214.757662 234.948807 
L 215.397509 229.863265 
L 216.037357 232.310838 
L 216.677204 232.333316 
L 217.317051 226.41465 
L 217.956898 224.843373 
L 218.596745 232.40473 
L 219.236592 229.963585 
L 219.876439 228.379784 
L 220.516286 224.067978 
L 221.156133 223.008171 
L 221.795981 224.170372 
L 222.435828 224.99039 
L 223.075675 223.410487 
L 223.715522 222.817774 
L 224.355369 224.862823 
L 224.995216 223.334013 
L 225.635063 223.909515 
L 226.27491 220.856166 
L 226.914757 220.111585 
L 227.554605 222.174301 
L 228.194452 225.42887 
L 228.834299 222.913906 
L 229.474146 210.751355 
L 230.113993 212.13547 
L 230.75384 210.416264 
L 231.393687 214.602203 
L 232.033534 207.820057 
L 232.673381 209.32444 
L 233.313229 201.511475 
L 233.953076 200.144529 
L 234.592923 200.916689 
L 235.23277 199.456598 
L 235.872617 199.944179 
L 236.512464 204.844219 
L 237.152311 203.13961 
L 238.432005 198.804124 
L 239.071853 205.719477 
L 239.7117 207.92187 
L 240.351547 200.885585 
L 240.991394 199.690954 
L 241.631241 203.374837 
L 242.271088 204.956399 
L 242.910935 203.732571 
L 243.550782 200.70958 
L 244.190629 198.372819 
L 244.830477 204.742447 
L 246.110171 200.498655 
L 246.750018 200.301665 
L 248.029712 185.733718 
L 248.669559 185.997685 
L 249.309406 192.004021 
L 249.949253 186.668571 
L 250.5891 186.115174 
L 251.228948 189.66838 
L 251.868795 188.038338 
L 252.508642 190.148622 
L 253.148489 186.982719 
L 253.788336 187.938682 
L 254.428183 189.998909 
L 255.06803 197.32479 
L 255.707877 196.407147 
L 256.347724 192.116451 
L 256.987572 186.86411 
L 257.627419 185.645549 
L 258.267266 184.777258 
L 258.907113 184.214612 
L 259.54696 180.940054 
L 260.186807 185.461954 
L 261.466501 187.597951 
L 262.106348 193.124211 
L 262.746196 182.973822 
L 263.386043 178.240375 
L 264.02589 179.204963 
L 264.665737 181.015656 
L 265.305584 182.109305 
L 265.945431 174.905185 
L 267.225125 185.66699 
L 269.144667 182.224098 
L 269.784514 173.517544 
L 271.064208 170.995654 
L 271.704055 172.084989 
L 272.343902 167.557573 
L 272.983749 175.56392 
L 273.623596 176.691451 
L 274.263444 168.619122 
L 274.903291 170.195749 
L 275.543138 170.196828 
L 276.182985 170.683705 
L 276.822832 168.278599 
L 277.462679 168.161234 
L 279.38222 181.723619 
L 280.022068 181.620644 
L 280.661915 175.730263 
L 281.301762 176.166171 
L 281.941609 187.233622 
L 282.581456 186.898656 
L 283.221303 192.049433 
L 283.86115 187.773749 
L 284.500997 184.84046 
L 285.140844 200.205492 
L 285.780692 201.610261 
L 286.420539 208.95584 
L 287.060386 208.96372 
L 287.700233 201.972847 
L 288.34008 202.369316 
L 288.979927 201.544943 
L 289.619774 196.680155 
L 290.259621 202.314491 
L 290.899468 201.574595 
L 291.539315 196.496518 
L 292.179163 196.094534 
L 292.81901 195.048702 
L 293.458857 199.078376 
L 294.098704 204.123068 
L 294.738551 200.7975 
L 295.378398 203.266264 
L 296.018245 204.773385 
L 296.658092 198.309865 
L 297.297939 199.270722 
L 297.937787 201.959286 
L 298.577634 194.494517 
L 299.217481 193.368894 
L 299.857328 187.491991 
L 300.497175 189.696208 
L 301.137022 188.447538 
L 301.776869 186.110695 
L 302.416716 188.720256 
L 303.056563 187.634197 
L 303.696411 192.86858 
L 304.336258 195.867021 
L 304.976105 193.727665 
L 305.615952 192.957454 
L 306.255799 192.715425 
L 306.895646 188.341952 
L 307.535493 190.413625 
L 308.17534 192.015799 
L 308.815187 200.35168 
L 309.455035 203.158272 
L 310.094882 196.633333 
L 310.734729 195.401543 
L 311.374576 192.481028 
L 312.014423 188.948599 
L 312.65427 189.223224 
L 313.294117 190.966359 
L 314.573811 201.514378 
L 315.213659 205.159693 
L 315.853506 200.485716 
L 316.493353 189.23326 
L 317.1332 187.95892 
L 317.773047 196.37932 
L 318.412894 201.681177 
L 319.052741 200.765152 
L 319.692588 199.180645 
L 320.332435 202.472207 
L 320.972283 200.078672 
L 321.61213 202.410124 
L 322.251977 201.278488 
L 322.891824 201.07059 
L 323.531671 200.061834 
L 324.171518 203.126256 
L 324.811365 202.654226 
L 325.451212 205.495157 
L 326.091059 201.465649 
L 326.730907 196.465498 
L 327.370754 196.160018 
L 328.010601 199.421264 
L 328.650448 201.030239 
L 329.290295 194.483651 
L 329.930142 194.988568 
L 330.569989 190.687006 
L 331.209836 191.018655 
L 332.48953 183.49678 
L 333.129378 189.075253 
L 333.769225 191.575992 
L 334.409072 195.024898 
L 335.048919 195.4443 
L 335.688766 192.319123 
L 336.328613 191.406705 
L 336.96846 195.14276 
L 337.608307 189.428011 
L 338.248154 187.320754 
L 338.888002 184.170652 
L 339.527849 184.920335 
L 340.167696 180.134052 
L 340.807543 178.827198 
L 341.44739 180.757703 
L 342.087237 183.064935 
L 342.727084 181.569925 
L 343.366931 177.205989 
L 344.006778 177.292416 
L 344.646626 164.63403 
L 345.286473 165.334611 
L 345.92632 168.488155 
L 346.566167 169.277733 
L 347.206014 172.422983 
L 347.845861 177.486503 
L 348.485708 175.885823 
L 349.125555 180.058367 
L 349.765402 173.401009 
L 350.40525 172.223588 
L 351.045097 175.660839 
L 351.684944 174.732124 
L 352.324791 177.695189 
L 352.964638 178.118075 
L 353.604485 184.770788 
L 354.244332 178.424509 
L 354.884179 177.662468 
L 355.524026 178.536565 
L 356.163874 180.7176 
L 356.803721 183.309411 
L 357.443568 194.10684 
L 358.083415 195.053969 
L 358.723262 198.86036 
L 359.363109 200.456893 
L 360.002956 202.66899 
L 360.642803 205.644206 
L 361.28265 206.928375 
L 361.922498 206.316047 
L 362.562345 201.019788 
L 363.202192 201.928514 
L 363.842039 208.185007 
L 364.481886 218.606123 
L 365.121733 219.058371 
L 366.401427 234.774751 
L 367.041274 229.148046 
L 367.681122 193.902468 
L 368.960816 189.646317 
L 369.600663 188.682641 
L 370.24051 190.327199 
L 370.880357 191.54717 
L 371.520204 191.070826 
L 372.799898 195.781796 
L 373.439745 191.726576 
L 374.079593 193.735088 
L 374.71944 192.9548 
L 375.359287 198.010316 
L 375.999134 190.259683 
L 376.638981 183.949691 
L 377.278828 179.039077 
L 377.918675 182.609121 
L 378.558522 183.372945 
L 379.198369 183.431337 
L 379.838217 182.623968 
L 380.478064 183.513617 
L 381.117911 185.770254 
L 381.757758 188.632751 
L 382.397605 188.059115 
L 383.037452 175.447343 
L 383.677299 173.474248 
L 384.317146 187.718965 
L 384.956993 183.764189 
L 385.596841 184.511632 
L 386.236688 181.856618 
L 386.876535 183.495411 
L 387.516382 178.088837 
L 388.156229 181.077159 
L 389.435923 177.480407 
L 390.07577 170.671263 
L 390.715617 184.236675 
L 391.355465 183.915933 
L 391.995312 184.351759 
L 392.635159 181.555907 
L 393.275006 185.962019 
L 393.914853 186.523296 
L 394.5547 180.184648 
L 395.194547 182.370866 
L 395.834394 182.104204 
L 396.474241 180.700928 
L 397.114089 178.888784 
L 397.753936 177.720611 
L 398.393783 182.76128 
L 399.673477 167.752282 
L 400.313324 168.868408 
L 402.232865 169.003398 
L 402.872713 170.386187 
L 403.51256 173.561462 
L 404.152407 171.580114 
L 404.792254 170.394979 
L 405.432101 173.823397 
L 406.071948 178.575673 
L 406.711795 181.597172 
L 407.351642 173.553458 
L 407.991489 175.331306 
L 408.631337 174.5139 
L 409.271184 176.806866 
L 409.911031 177.85556 
L 410.550878 169.219424 
L 411.190725 165.879009 
L 411.830572 161.528054 
L 412.470419 162.729529 
L 413.110266 167.154676 
L 413.750113 167.860482 
L 414.38996 170.650486 
L 415.029808 166.158486 
L 415.669655 165.712044 
L 416.309502 181.98659 
L 416.949349 186.336674 
L 418.229043 173.840774 
L 418.86889 173.785285 
L 419.508737 173.601897 
L 420.148584 170.828482 
L 420.788432 168.770494 
L 421.428279 168.592912 
L 421.428279 168.592912 
" clip-path="url(#pc0db9c6dca)" style="fill: none; stroke: #4169e1; stroke-width: 1.5; stroke-linecap: square"/>
   </g>
   <g id="line2d_14">
    <path d="M 38.799707 288.154794 
L 39.439554 288.054391 
L 40.079401 288.466371 
L 40.719249 288.529656 
L 41.359096 287.336849 
L 41.998943 285.587825 
L 42.63879 290.20482 
L 43.278637 282.999041 
L 44.558331 278.98637 
L 45.198178 284.457598 
L 45.838025 283.322686 
L 47.11772 286.796971 
L 47.757567 288.239645 
L 48.397414 287.050529 
L 49.037261 287.996373 
L 49.677108 289.620941 
L 50.316955 290.2533 
L 50.956802 284.773073 
L 51.596649 285.033307 
L 52.236497 276.695685 
L 52.876344 270.825127 
L 53.516191 267.514778 
L 54.156038 265.304548 
L 54.795885 267.947369 
L 55.435732 271.273725 
L 56.075579 266.424614 
L 56.715426 262.985122 
L 57.355273 268.020981 
L 57.995121 266.27374 
L 58.634968 258.921151 
L 59.274815 258.959554 
L 59.914662 265.943335 
L 60.554509 271.323243 
L 61.194356 267.557287 
L 61.834203 270.337172 
L 62.47405 266.902491 
L 63.113897 266.534347 
L 63.753745 270.464282 
L 64.393592 271.387855 
L 65.033439 270.47888 
L 65.673286 266.669255 
L 66.313133 261.862278 
L 66.95298 253.027659 
L 67.592827 257.059531 
L 68.872521 270.443837 
L 69.512369 273.47927 
L 70.152216 274.433076 
L 70.792063 281.632758 
L 71.43191 284.745163 
L 72.071757 284.745328 
L 72.711604 285.049067 
L 73.351451 279.89236 
L 73.991298 279.098468 
L 74.631145 281.786576 
L 75.270993 282.969804 
L 75.91084 281.582909 
L 76.550687 280.536912 
L 77.830381 271.589905 
L 78.470228 268.839963 
L 79.110075 276.604572 
L 79.749922 270.778803 
L 80.389769 274.32554 
L 81.029616 265.762146 
L 81.669464 265.372561 
L 82.309311 262.380881 
L 82.949158 265.140569 
L 83.589005 264.341452 
L 84.228852 263.224414 
L 84.868699 265.69521 
L 85.508546 266.073515 
L 86.148393 263.891195 
L 86.78824 268.612781 
L 87.428088 270.32332 
L 88.067935 265.641588 
L 88.707782 268.730395 
L 89.347629 273.436222 
L 89.987476 262.893677 
L 90.627323 260.476047 
L 91.26717 260.628082 
L 91.907017 264.982769 
L 92.546864 263.402285 
L 93.186712 267.621609 
L 93.826559 256.353892 
L 94.466406 254.808244 
L 95.106253 262.366324 
L 95.7461 266.074303 
L 96.385947 266.102752 
L 97.025794 265.106811 
L 97.665641 262.293956 
L 98.305488 262.724349 
L 99.585183 261.949368 
L 100.864877 254.712279 
L 101.504724 258.994722 
L 102.784418 256.363803 
L 103.424265 259.789194 
L 104.064112 262.090994 
L 104.70396 263.602759 
L 105.343807 265.506639 
L 105.983654 264.958301 
L 107.263348 268.352878 
L 107.903195 269.513752 
L 108.543042 271.535743 
L 109.182889 267.421716 
L 109.822736 266.631059 
L 110.462584 264.32872 
L 111.102431 264.235077 
L 111.742278 264.715194 
L 112.382125 264.789512 
L 113.021972 267.631645 
L 113.661819 263.197913 
L 114.301666 264.059777 
L 114.941513 262.164357 
L 115.58136 265.706035 
L 116.221208 265.780766 
L 117.500902 269.60217 
L 118.140749 267.504867 
L 118.780596 270.012573 
L 119.420443 267.573212 
L 120.06029 269.422888 
L 120.700137 268.373075 
L 121.339984 267.984901 
L 121.979831 265.642832 
L 123.259526 256.41585 
L 123.899373 253.331688 
L 124.53922 256.202064 
L 125.179067 253.073942 
L 125.818914 248.978328 
L 127.098608 242.98095 
L 127.738455 237.308667 
L 128.378303 236.270591 
L 129.01815 240.237974 
L 129.657997 239.730901 
L 130.297844 239.033016 
L 130.937691 238.049226 
L 131.577538 237.9273 
L 132.217385 235.962623 
L 132.857232 232.526034 
L 133.497079 233.547564 
L 134.136927 237.49757 
L 134.776774 242.294718 
L 136.056468 238.730729 
L 136.696315 239.970151 
L 137.336162 238.912956 
L 137.976009 232.153163 
L 138.615856 237.737111 
L 139.255703 238.612494 
L 139.895551 237.355198 
L 140.535398 238.126446 
L 141.175245 236.359465 
L 141.815092 233.531929 
L 142.454939 233.335519 
L 143.094786 230.877205 
L 143.734633 229.569978 
L 144.37448 231.007426 
L 145.014327 225.975756 
L 145.654175 221.827971 
L 146.294022 220.702721 
L 146.933869 221.563548 
L 147.573716 221.727859 
L 148.213563 223.606731 
L 148.85341 216.546559 
L 149.493257 214.920788 
L 150.133104 214.56803 
L 150.772951 215.693778 
L 151.412799 206.915063 
L 152.052646 201.285455 
L 152.692493 201.738118 
L 153.33234 196.790926 
L 153.972187 197.637693 
L 154.612034 196.889338 
L 155.891728 196.400636 
L 156.531575 202.92458 
L 157.171423 201.484975 
L 158.451117 200.882765 
L 159.090964 204.898132 
L 159.730811 207.289469 
L 160.370658 203.020835 
L 161.010505 203.620059 
L 161.650352 207.434537 
L 162.290199 209.181446 
L 162.930047 214.974286 
L 163.569894 218.029958 
L 164.209741 219.247938 
L 164.849588 214.064814 
L 165.489435 215.900099 
L 166.129282 213.837217 
L 166.769129 213.639024 
L 167.408976 218.462921 
L 168.048823 215.024509 
L 168.68867 218.50601 
L 169.328518 220.788194 
L 169.968365 220.300156 
L 170.608212 221.844352 
L 171.248059 218.977792 
L 172.527753 215.93564 
L 173.1676 215.534444 
L 173.807447 215.564386 
L 174.447294 214.386716 
L 175.087142 212.29327 
L 175.726989 213.264328 
L 176.366836 216.094518 
L 177.006683 218.173906 
L 178.286377 218.115099 
L 178.926224 219.604096 
L 179.566071 220.372192 
L 180.205918 219.448827 
L 180.845766 219.950924 
L 181.485613 215.896615 
L 182.12546 214.366146 
L 182.765307 213.330807 
L 183.405154 212.751324 
L 184.045001 210.478762 
L 184.684848 212.075627 
L 185.324695 211.252373 
L 185.964542 210.841473 
L 186.60439 213.159363 
L 187.884084 205.279256 
L 188.523931 203.83397 
L 189.163778 197.246243 
L 189.803625 192.424543 
L 190.443472 193.215656 
L 191.723166 196.544252 
L 192.363014 199.29407 
L 193.002861 197.543719 
L 194.282555 199.98196 
L 194.922402 201.850672 
L 195.562249 203.218987 
L 196.202096 202.440813 
L 196.841943 202.081835 
L 197.48179 200.339404 
L 198.121638 201.254019 
L 198.761485 200.540417 
L 199.401332 200.511345 
L 200.041179 203.123768 
L 200.681026 194.167098 
L 201.320873 192.129929 
L 201.96072 192.646624 
L 202.600567 195.241089 
L 203.240414 192.77444 
L 203.880262 196.078484 
L 204.520109 191.935634 
L 205.159956 191.667562 
L 205.799803 194.159924 
L 206.43965 189.625416 
L 207.719344 187.837491 
L 208.359191 190.146341 
L 208.999038 190.562218 
L 209.638885 183.640645 
L 210.278733 183.030846 
L 210.91858 183.852109 
L 211.558427 182.959722 
L 212.198274 180.594097 
L 212.838121 184.602164 
L 213.477968 184.605855 
L 214.117815 183.463561 
L 214.757662 183.272252 
L 215.397509 181.458283 
L 216.037357 181.966145 
L 216.677204 183.156961 
L 217.317051 183.374894 
L 217.956898 183.123908 
L 219.236592 184.179651 
L 219.876439 182.391478 
L 220.516286 180.238478 
L 221.156133 178.771004 
L 221.795981 182.861642 
L 222.435828 184.917598 
L 223.075675 183.113001 
L 223.715522 182.90162 
L 224.995216 186.448938 
L 225.635063 185.991962 
L 226.27491 185.007591 
L 226.914757 190.293233 
L 227.554605 184.545141 
L 228.194452 173.740039 
L 228.834299 173.875029 
L 229.474146 175.112709 
L 230.113993 176.757225 
L 230.75384 176.794591 
L 231.393687 177.616766 
L 232.033534 176.929622 
L 232.673381 172.593183 
L 233.313229 170.689345 
L 233.953076 172.022741 
L 234.592923 165.490046 
L 235.23277 168.682989 
L 235.872617 166.507843 
L 236.512464 169.395388 
L 237.792158 172.274764 
L 238.432005 175.26831 
L 239.071853 171.245645 
L 239.7117 172.044472 
L 240.351547 172.132433 
L 240.991394 171.324856 
L 241.631241 171.759893 
L 242.271088 170.959118 
L 242.910935 171.370102 
L 243.550782 169.573302 
L 244.190629 165.383215 
L 245.470324 167.774428 
L 246.110171 166.744024 
L 246.750018 168.159161 
L 247.389865 168.667229 
L 248.029712 168.207143 
L 248.669559 168.621154 
L 249.309406 169.739976 
L 249.949253 169.987106 
L 250.5891 168.70725 
L 251.228948 161.312319 
L 251.868795 161.636295 
L 252.508642 162.464649 
L 253.148489 161.723925 
L 253.788336 161.423836 
L 254.428183 161.955502 
L 255.06803 163.568127 
L 255.707877 163.509817 
L 256.347724 161.434453 
L 256.987572 163.206577 
L 257.627419 159.310359 
L 258.267266 160.525685 
L 258.907113 160.495825 
L 259.54696 159.022794 
L 260.186807 158.973816 
L 260.826654 161.161403 
L 261.466501 160.119304 
L 262.106348 160.244673 
L 262.746196 162.69884 
L 263.386043 162.717834 
L 264.02589 165.25511 
L 264.665737 166.518958 
L 265.305584 166.124894 
L 265.945431 166.808761 
L 266.585278 171.780339 
L 267.225125 172.532468 
L 267.864972 176.486415 
L 268.50482 177.594993 
L 269.784514 166.863919 
L 270.424361 171.080547 
L 271.064208 174.045851 
L 271.704055 177.880401 
L 272.343902 175.670088 
L 272.983749 174.183578 
L 273.623596 173.963364 
L 274.263444 174.25661 
L 274.903291 172.904884 
L 275.543138 174.249394 
L 276.182985 173.785741 
L 276.822832 171.41008 
L 277.462679 171.126248 
L 278.102526 173.392963 
L 278.742373 173.725607 
L 279.38222 173.215008 
L 280.022068 176.039766 
L 280.661915 175.873962 
L 281.301762 174.281327 
L 281.941609 173.481008 
L 282.581456 172.344726 
L 283.221303 177.431595 
L 283.86115 179.732566 
L 284.500997 179.097676 
L 285.140844 179.677077 
L 285.780692 178.831387 
L 286.420539 180.748828 
L 287.060386 180.970701 
L 287.700233 182.193492 
L 288.34008 175.079988 
L 288.979927 174.916507 
L 289.619774 178.58488 
L 290.259621 179.801326 
L 290.899468 178.855855 
L 291.539315 175.027816 
L 292.179163 174.944915 
L 292.81901 173.698899 
L 293.458857 177.53938 
L 294.098704 176.078127 
L 294.738551 172.576097 
L 295.378398 171.601389 
L 296.018245 170.911964 
L 296.658092 171.546563 
L 297.297939 171.183147 
L 297.937787 168.061702 
L 298.577634 162.17244 
L 299.217481 166.828999 
L 299.857328 168.460079 
L 300.497175 168.774807 
L 301.137022 169.766352 
L 301.776869 174.2287 
L 302.416716 172.55366 
L 303.696411 170.1442 
L 304.336258 167.8548 
L 305.615952 161.823415 
L 306.255799 159.892164 
L 306.895646 152.962752 
L 307.535493 149.082127 
L 308.17534 149.932006 
L 308.815187 149.901565 
L 309.455035 151.796155 
L 310.094882 151.306375 
L 310.734729 149.018883 
L 311.374576 148.1824 
L 312.014423 149.692175 
L 312.65427 148.470131 
L 313.294117 150.452226 
L 315.213659 138.875627 
L 315.853506 138.79932 
L 316.493353 137.260639 
L 317.1332 137.049549 
L 317.773047 136.566653 
L 319.052741 138.018699 
L 319.692588 136.05593 
L 320.332435 139.243771 
L 320.972283 140.850216 
L 321.61213 145.19043 
L 322.251977 144.389488 
L 322.891824 145.047601 
L 323.531671 143.221605 
L 324.171518 139.179656 
L 324.811365 129.394798 
L 325.451212 129.323881 
L 326.091059 121.80719 
L 326.730907 116.546555 
L 327.370754 115.231407 
L 328.010601 113.613101 
L 328.650448 110.507415 
L 329.290295 110.776317 
L 329.930142 115.29378 
L 330.569989 115.400984 
L 331.209836 113.461356 
L 331.849683 112.410755 
L 332.48953 115.935305 
L 333.129378 116.86091 
L 333.769225 112.658133 
L 334.409072 110.595127 
L 335.048919 109.750972 
L 335.688766 111.38201 
L 336.328613 110.626023 
L 336.96846 113.159525 
L 337.608307 111.310181 
L 338.248154 114.329564 
L 338.888002 113.62351 
L 339.527849 113.56574 
L 340.167696 113.933801 
L 340.807543 115.536389 
L 341.44739 113.399771 
L 342.087237 105.376586 
L 342.727084 105.363937 
L 343.366931 104.488554 
L 344.006778 103.832182 
L 344.646626 106.256075 
L 345.286473 102.096719 
L 345.92632 99.056849 
L 346.566167 97.392675 
L 347.206014 102.315814 
L 347.845861 102.932248 
L 348.485708 102.457108 
L 349.125555 100.031432 
L 349.765402 98.621272 
L 350.40525 102.399255 
L 351.045097 100.547422 
L 351.684944 104.352278 
L 352.324791 106.674855 
L 352.964638 107.645623 
L 353.604485 108.329242 
L 354.244332 114.29929 
L 354.884179 113.924138 
L 355.524026 115.253055 
L 356.163874 113.776333 
L 356.803721 115.21179 
L 358.083415 110.292467 
L 358.723262 110.4946 
L 359.363109 111.32677 
L 360.002956 110.846984 
L 361.28265 107.709987 
L 361.922498 104.855827 
L 362.562345 103.748368 
L 363.202192 103.108793 
L 363.842039 103.489212 
L 364.481886 100.746569 
L 365.121733 100.57301 
L 365.76158 100.517106 
L 366.401427 95.452798 
L 367.041274 92.773274 
L 367.681122 93.234024 
L 368.320969 92.951644 
L 368.960816 92.455726 
L 369.600663 89.881209 
L 370.24051 95.282308 
L 370.880357 94.867924 
L 371.520204 93.388382 
L 372.160051 94.964511 
L 372.799898 93.440511 
L 373.439745 89.980202 
L 374.079593 88.622794 
L 374.71944 98.686714 
L 375.359287 98.801964 
L 375.999134 97.549272 
L 376.638981 97.168479 
L 377.278828 94.838935 
L 377.918675 89.596589 
L 378.558522 88.456078 
L 379.198369 91.120754 
L 380.478064 86.764533 
L 381.117911 88.580575 
L 381.757758 86.11687 
L 382.397605 88.555775 
L 383.037452 88.70893 
L 383.677299 89.522604 
L 384.317146 90.114777 
L 384.956993 89.781511 
L 385.596841 89.936739 
L 386.236688 86.394191 
L 386.876535 89.918989 
L 387.516382 90.433321 
L 388.156229 92.63028 
L 388.796076 90.809261 
L 389.435923 88.555112 
L 390.07577 84.872473 
L 390.715617 83.934509 
L 391.355465 82.414242 
L 391.995312 85.726456 
L 392.635159 86.994659 
L 393.275006 85.646084 
L 393.914853 87.974177 
L 394.5547 85.703398 
L 395.834394 82.140653 
L 396.474241 81.115101 
L 397.753936 75.140284 
L 398.393783 73.203517 
L 399.03363 69.811801 
L 399.673477 67.782179 
L 400.313324 68.142526 
L 400.953171 67.667593 
L 401.593018 69.702399 
L 402.232865 68.51291 
L 402.872713 66.525174 
L 403.51256 65.996577 
L 404.152407 64.694699 
L 405.432101 51.390393 
L 406.071948 57.933331 
L 406.711795 50.245942 
L 407.351642 47.566418 
L 407.991489 46.041465 
L 408.631337 44.208958 
L 409.271184 43.856076 
L 409.911031 44.351579 
L 411.190725 41.060598 
L 411.830572 38.2533 
L 412.470419 41.529186 
L 413.110266 45.587682 
L 413.750113 44.474501 
L 414.38996 44.114942 
L 415.029808 43.283436 
L 415.669655 48.588404 
L 416.309502 50.397147 
L 416.949349 53.877778 
L 417.589196 52.351042 
L 418.229043 54.793265 
L 418.86889 55.702281 
L 419.508737 56.816334 
L 420.148584 58.509123 
L 420.788432 57.868303 
L 421.428279 57.541009 
L 421.428279 57.541009 
" clip-path="url(#pc0db9c6dca)" style="fill: none; stroke: #ff8c00; stroke-width: 1.5; stroke-linecap: square"/>
   </g>
   <g id="line2d_15">
    <path d="M 38.799707 289.148496 
L 421.428279 65.948967 
L 421.428279 65.948967 
" clip-path="url(#pc0db9c6dca)" style="fill: none; stroke: #000000; stroke-width: 2.5; stroke-linecap: square"/>
   </g>
   <g id="patch_3">
    <path d="M 38.799707 302.8533 
L 38.799707 25.6533 
" style="fill: none; stroke: #000000; stroke-width: 0.8; stroke-linejoin: miter; stroke-linecap: square"/>
   </g>
   <g id="patch_4">
    <path d="M 440.559707 302.8533 
L 440.559707 25.6533 
" style="fill: none; stroke: #000000; stroke-width: 0.8; stroke-linejoin: miter; stroke-linecap: square"/>
   </g>
   <g id="patch_5">
    <path d="M 38.799707 302.8533 
L 440.559707 302.8533 
" style="fill: none; stroke: #000000; stroke-width: 0.8; stroke-linejoin: miter; stroke-linecap: square"/>
   </g>
   <g id="patch_6">
    <path d="M 38.799707 25.6533 
L 440.559707 25.6533 
" style="fill: none; stroke: #000000; stroke-width: 0.8; stroke-linejoin: miter; stroke-linecap: square"/>
   </g>
   <g id="text_15">
    <!-- Comparison of Particle Filters -->
    <g transform="translate(131.215332 19.6533) scale(0.18 -0.18)">
     <defs>
      <path id="CMR17-43" d="M 3974 4289 
C 3974 4403 3968 4410 3930 4410 
C 3904 4410 3898 4403 3853 4327 
L 3571 3792 
C 3258 4187 2874 4416 2381 4416 
C 1286 4416 294 3456 294 2148 
C 294 826 1286 -128 2387 -128 
C 3366 -128 3974 730 3974 1461 
C 3974 1524 3974 1550 3917 1550 
C 3866 1550 3866 1531 3859 1474 
C 3808 585 3168 38 2477 38 
C 1824 38 781 495 781 2147 
C 781 3805 1843 4250 2464 4250 
C 3187 4250 3712 3628 3834 2745 
C 3846 2668 3846 2655 3904 2655 
C 3974 2655 3974 2668 3974 2783 
L 3974 4289 
z
" transform="scale(0.015625)"/>
      <path id="CMR17-61" d="M 2304 1653 
C 2304 2072 2304 2294 2035 2543 
C 1798 2752 1523 2816 1306 2816 
C 800 2816 435 2407 435 1971 
C 435 1728 627 1728 666 1728 
C 749 1728 896 1778 896 1954 
C 896 2112 774 2181 666 2181 
C 640 2181 608 2174 589 2168 
C 723 2592 1069 2714 1293 2714 
C 1613 2714 1965 2429 1965 1885 
L 1965 1600 
C 1587 1600 1133 1549 774 1357 
C 371 1133 256 813 256 570 
C 256 77 832 -64 1171 -64 
C 1523 -64 1850 139 1990 511 
C 2003 233 2182 -18 2464 -18 
C 2598 -18 2938 70 2938 567 
L 2938 920 
L 2822 920 
L 2822 562 
C 2822 178 2650 128 2566 128 
C 2304 128 2304 458 2304 738 
L 2304 1653 
z
M 1965 870 
C 1965 317 1568 38 1216 38 
C 896 38 646 275 646 570 
C 646 761 730 1100 1101 1305 
C 1408 1478 1760 1504 1965 1504 
L 1965 870 
z
" transform="scale(0.015625)"/>
      <path id="CMR17-72" d="M 960 1497 
C 960 2112 1222 2688 1702 2688 
C 1747 2688 1792 2682 1837 2662 
C 1837 2662 1696 2617 1696 2452 
C 1696 2298 1818 2234 1914 2234 
C 1990 2234 2131 2279 2131 2458 
C 2131 2663 1926 2790 1709 2790 
C 1222 2790 1011 2317 947 2093 
L 941 2093 
L 941 2790 
L 198 2720 
L 198 2554 
C 576 2554 634 2515 634 2208 
L 634 428 
C 634 184 608 153 198 153 
L 198 -13 
C 352 0 646 0 813 0 
C 998 0 1325 0 1498 -13 
L 1498 153 
C 1037 153 960 153 960 440 
L 960 1497 
z
" transform="scale(0.015625)"/>
      <path id="CMR17-66" d="M 979 2560 
L 1709 2560 
L 1709 2725 
L 966 2725 
L 966 3494 
C 966 4022 1235 4352 1510 4352 
C 1594 4352 1690 4327 1754 4282 
C 1702 4269 1568 4225 1568 4067 
C 1568 3901 1696 3850 1786 3850 
C 1875 3850 2003 3901 2003 4067 
C 2003 4308 1773 4454 1517 4454 
C 1152 4454 653 4156 653 3481 
L 653 2725 
L 141 2725 
L 141 2560 
L 653 2560 
L 653 427 
C 653 184 627 153 218 153 
L 218 -13 
C 371 0 666 0 832 0 
C 1018 0 1344 0 1517 -13 
L 1517 153 
C 1056 153 979 153 979 439 
L 979 2560 
z
" transform="scale(0.015625)"/>
      <path id="CMR17-50" d="M 1267 2042 
L 2291 2042 
C 3117 2042 3718 2578 3718 3184 
C 3718 3791 3130 4352 2291 4352 
L 333 4352 
L 333 4186 
C 774 4186 845 4186 845 3899 
L 845 446 
C 845 160 774 160 333 160 
L 333 0 
C 518 0 858 0 1056 0 
C 1254 0 1594 0 1779 0 
L 1779 160 
C 1338 160 1267 160 1267 446 
L 1267 2042 
z
M 1254 2176 
L 1254 3938 
C 1254 4155 1267 4186 1523 4186 
L 2170 4186 
C 2995 4186 3232 3714 3232 3184 
C 3232 2604 2950 2176 2170 2176 
L 1254 2176 
z
" transform="scale(0.015625)"/>
      <path id="CMR17-63" d="M 2234 2240 
C 2112 2240 1933 2240 1933 2017 
C 1933 1838 2080 1787 2163 1787 
C 2208 1787 2394 1807 2394 2024 
C 2394 2467 1958 2803 1466 2803 
C 787 2803 211 2178 211 1363 
C 211 516 813 -64 1466 -64 
C 2259 -64 2458 677 2458 748 
C 2458 774 2451 793 2406 793 
C 2362 793 2355 787 2330 703 
C 2163 180 1798 51 1523 51 
C 1114 51 621 427 621 1369 
C 621 2338 1094 2688 1472 2688 
C 1722 2688 2093 2573 2234 2240 
z
" transform="scale(0.015625)"/>
      <path id="CMR17-6c" d="M 979 4396 
L 218 4326 
L 218 4160 
C 595 4160 653 4122 653 3817 
L 653 426 
C 653 184 627 153 218 153 
L 218 -13 
C 371 0 653 0 813 0 
C 979 0 1261 0 1414 -13 
L 1414 153 
C 1005 153 979 178 979 426 
L 979 4396 
z
" transform="scale(0.015625)"/>
      <path id="CMR17-46" d="M 3482 4325 
L 326 4325 
L 326 4160 
C 768 4160 838 4160 838 3874 
L 838 446 
C 838 160 768 160 326 160 
L 326 0 
C 512 0 870 0 1069 0 
C 1331 0 1638 0 1901 0 
L 1901 160 
L 1760 160 
C 1274 160 1261 223 1261 452 
L 1261 2075 
L 1837 2075 
C 2432 2075 2490 1865 2490 1332 
L 2605 1332 
L 2605 2987 
L 2490 2987 
C 2490 2450 2432 2240 1837 2240 
L 1261 2240 
L 1261 3911 
C 1261 4128 1274 4160 1530 4160 
L 2355 4160 
C 3322 4160 3430 3765 3520 2916 
L 3635 2916 
L 3482 4325 
z
" transform="scale(0.015625)"/>
     </defs>
     <use xlink:href="#CMR17-43" transform="scale(0.996264)"/>
     <use xlink:href="#CMR17-6f" transform="translate(66.509881 0) scale(0.996264)"/>
     <use xlink:href="#CMR17-6d" transform="translate(112.200358 0) scale(0.996264)"/>
     <use xlink:href="#CMR17-70" transform="translate(189.119948 0) scale(0.996264)"/>
     <use xlink:href="#CMR17-61" transform="translate(240.015317 0) scale(0.996264)"/>
     <use xlink:href="#CMR17-72" transform="translate(285.705794 0) scale(0.996264)"/>
     <use xlink:href="#CMR17-69" transform="translate(320.986562 0) scale(0.996264)"/>
     <use xlink:href="#CMR17-73" transform="translate(345.857621 0) scale(0.996264)"/>
     <use xlink:href="#CMR17-6f" transform="translate(381.658958 0) scale(0.996264)"/>
     <use xlink:href="#CMR17-6e" transform="translate(427.349435 0) scale(0.996264)"/>
     <use xlink:href="#CMR17-6f" transform="translate(508.320772 0) scale(0.996264)"/>
     <use xlink:href="#CMR17-66" transform="translate(554.011249 0) scale(0.996264)"/>
     <use xlink:href="#CMR17-50" transform="translate(611.560727 0) scale(0.996264)"/>
     <use xlink:href="#CMR17-61" transform="translate(671.544574 0) scale(0.996264)"/>
     <use xlink:href="#CMR17-72" transform="translate(717.235051 0) scale(0.996264)"/>
     <use xlink:href="#CMR17-74" transform="translate(752.515819 0) scale(0.996264)"/>
     <use xlink:href="#CMR17-69" transform="translate(787.796587 0) scale(0.996264)"/>
     <use xlink:href="#CMR17-63" transform="translate(812.667645 0) scale(0.996264)"/>
     <use xlink:href="#CMR17-6c" transform="translate(853.153306 0) scale(0.996264)"/>
     <use xlink:href="#CMR17-65" transform="translate(878.024364 0) scale(0.996264)"/>
     <use xlink:href="#CMR17-46" transform="translate(948.585991 0) scale(0.996264)"/>
     <use xlink:href="#CMR17-69" transform="translate(1008.569838 0) scale(0.996264)"/>
     <use xlink:href="#CMR17-6c" transform="translate(1033.440896 0) scale(0.996264)"/>
     <use xlink:href="#CMR17-74" transform="translate(1058.311955 0) scale(0.996264)"/>
     <use xlink:href="#CMR17-65" transform="translate(1093.592722 0) scale(0.996264)"/>
     <use xlink:href="#CMR17-72" transform="translate(1134.078383 0) scale(0.996264)"/>
     <use xlink:href="#CMR17-73" transform="translate(1169.359151 0) scale(0.996264)"/>
    </g>
   </g>
   <g id="legend_1">
    <g id="patch_7">
     <path d="M 47.199707 85.427087 
L 201.190062 85.427087 
Q 203.590062 85.427087 203.590062 83.027087 
L 203.590062 34.0533 
Q 203.590062 31.6533 201.190062 31.6533 
L 47.199707 31.6533 
Q 44.799707 31.6533 44.799707 34.0533 
L 44.799707 83.027087 
Q 44.799707 85.427087 47.199707 85.427087 
z
" style="fill: #ffffff; opacity: 0.8; stroke: #cccccc; stroke-linejoin: miter"/>
    </g>
    <g id="line2d_16">
     <path d="M 49.599707 40.6533 
L 61.599707 40.6533 
L 73.599707 40.6533 
" style="fill: none; stroke: #4169e1; stroke-width: 1.5; stroke-linecap: square"/>
    </g>
    <g id="text_16">
     <!-- Regular Particle Filter -->
     <g transform="translate(83.199707 44.8533) scale(0.12 -0.12)">
      <defs>
       <path id="CMR17-52" d="M 2509 2146 
C 3117 2268 3629 2676 3629 3186 
C 3629 3785 2950 4326 2054 4326 
L 333 4326 
L 333 4160 
C 774 4160 845 4160 845 3873 
L 845 415 
C 845 128 774 128 333 128 
L 333 -26 
C 518 -26 851 -26 1050 -26 
C 1248 -26 1581 -26 1766 -26 
L 1766 128 
C 1325 128 1254 128 1254 417 
L 1254 2112 
L 2003 2112 
C 2368 2112 2573 1964 2662 1881 
C 2918 1632 2918 1459 2918 1024 
C 2918 595 2918 377 3110 160 
C 3354 -102 3680 -128 3821 -128 
C 4294 -128 4365 396 4365 503 
C 4365 540 4365 585 4307 585 
C 4256 585 4250 547 4250 522 
C 4218 112 4032 -26 3834 -26 
C 3482 -26 3443 375 3405 764 
C 3386 898 3373 993 3360 1133 
C 3322 1452 3270 1917 2509 2146 
z
M 1984 2214 
L 1254 2214 
L 1254 3913 
C 1254 4129 1267 4160 1523 4160 
L 1990 4160 
C 2522 4160 3142 3977 3142 3190 
C 3142 2372 2464 2214 1984 2214 
z
" transform="scale(0.015625)"/>
       <path id="CMR17-67" d="M 710 1164 
C 832 1068 1043 960 1299 960 
C 1805 960 2240 1357 2240 1888 
C 2240 2054 2189 2310 1997 2509 
C 2176 2692 2438 2752 2586 2752 
C 2611 2752 2650 2752 2682 2734 
C 2656 2728 2598 2703 2598 2605 
C 2598 2527 2656 2471 2739 2471 
C 2835 2471 2886 2533 2886 2614 
C 2886 2731 2790 2854 2586 2854 
C 2330 2854 2106 2738 1926 2580 
C 1734 2753 1504 2816 1299 2816 
C 794 2816 358 2419 358 1888 
C 358 1522 570 1292 634 1228 
C 442 1004 442 743 442 711 
C 442 545 506 302 723 168 
C 390 85 128 -169 128 -486 
C 128 -943 736 -1280 1466 -1280 
C 2170 -1280 2803 -956 2803 -479 
C 2803 384 1856 384 1363 384 
C 1216 384 954 384 922 391 
C 723 423 589 602 589 826 
C 589 883 589 1024 710 1164 
z
M 1299 1068 
C 736 1068 736 1760 736 1889 
C 736 2016 736 2708 1299 2708 
C 1862 2708 1862 2016 1862 1889 
C 1862 1760 1862 1068 1299 1068 
z
M 1466 -1171 
C 826 -1171 384 -835 384 -486 
C 384 -289 493 -105 634 -4 
C 794 104 858 104 1293 104 
C 1818 104 2547 104 2547 -486 
C 2547 -835 2106 -1171 1466 -1171 
z
" transform="scale(0.015625)"/>
       <path id="CMR17-75" d="M 1882 2693 
L 1882 2528 
C 2259 2528 2317 2489 2317 2186 
L 2317 1032 
C 2317 500 2029 38 1555 38 
C 1030 38 986 348 986 678 
L 986 2763 
L 211 2693 
L 211 2528 
C 467 2528 640 2528 646 2274 
L 646 1058 
C 646 633 646 361 813 183 
C 896 101 1056 -64 1517 -64 
C 2061 -64 2272 377 2323 506 
L 2330 506 
L 2330 -63 
L 3091 -63 
L 3091 128 
C 2714 128 2656 166 2656 473 
L 2656 2763 
L 1882 2693 
z
" transform="scale(0.015625)"/>
      </defs>
      <use xlink:href="#CMR17-52" transform="scale(0.996264)"/>
      <use xlink:href="#CMR17-65" transform="translate(67.791102 0) scale(0.996264)"/>
      <use xlink:href="#CMR17-67" transform="translate(108.276762 0) scale(0.996264)"/>
      <use xlink:href="#CMR17-75" transform="translate(153.96724 0) scale(0.996264)"/>
      <use xlink:href="#CMR17-6c" transform="translate(204.862609 0) scale(0.996264)"/>
      <use xlink:href="#CMR17-61" transform="translate(229.733668 0) scale(0.996264)"/>
      <use xlink:href="#CMR17-72" transform="translate(275.424145 0) scale(0.996264)"/>
      <use xlink:href="#CMR17-50" transform="translate(340.780879 0) scale(0.996264)"/>
      <use xlink:href="#CMR17-61" transform="translate(400.764726 0) scale(0.996264)"/>
      <use xlink:href="#CMR17-72" transform="translate(446.455203 0) scale(0.996264)"/>
      <use xlink:href="#CMR17-74" transform="translate(481.735971 0) scale(0.996264)"/>
      <use xlink:href="#CMR17-69" transform="translate(517.016738 0) scale(0.996264)"/>
      <use xlink:href="#CMR17-63" transform="translate(541.887797 0) scale(0.996264)"/>
      <use xlink:href="#CMR17-6c" transform="translate(582.373457 0) scale(0.996264)"/>
      <use xlink:href="#CMR17-65" transform="translate(607.244516 0) scale(0.996264)"/>
      <use xlink:href="#CMR17-46" transform="translate(677.806143 0) scale(0.996264)"/>
      <use xlink:href="#CMR17-69" transform="translate(737.789989 0) scale(0.996264)"/>
      <use xlink:href="#CMR17-6c" transform="translate(762.661048 0) scale(0.996264)"/>
      <use xlink:href="#CMR17-74" transform="translate(787.532106 0) scale(0.996264)"/>
      <use xlink:href="#CMR17-65" transform="translate(822.812874 0) scale(0.996264)"/>
      <use xlink:href="#CMR17-72" transform="translate(863.298534 0) scale(0.996264)"/>
     </g>
    </g>
    <g id="line2d_17">
     <path d="M 49.599707 57.377896 
L 61.599707 57.377896 
L 73.599707 57.377896 
" style="fill: none; stroke: #ff8c00; stroke-width: 1.5; stroke-linecap: square"/>
    </g>
    <g id="text_17">
     <!-- KLD Adaptive Filter -->
     <g transform="translate(83.199707 61.577896) scale(0.12 -0.12)">
      <defs>
       <path id="CMR17-4b" d="M 2362 2675 
L 3469 3782 
C 3699 4006 3942 4186 4301 4186 
L 4301 4352 
C 4173 4352 4013 4352 3885 4352 
C 3712 4352 3411 4352 3245 4358 
L 3245 4192 
C 3411 4180 3437 4065 3437 4019 
C 3437 3975 3411 3905 3386 3867 
L 1261 1738 
L 1261 3900 
C 1261 4186 1331 4186 1773 4186 
L 1773 4352 
C 1587 4352 1248 4352 1050 4352 
C 851 4352 512 4352 326 4352 
L 326 4186 
C 768 4186 838 4186 838 3899 
L 838 446 
C 838 160 768 160 326 160 
L 326 0 
C 512 0 851 0 1050 0 
C 1248 0 1587 0 1773 0 
L 1773 160 
C 1331 160 1261 160 1261 447 
L 1261 1579 
L 2080 2390 
L 3290 537 
C 3328 473 3373 390 3373 326 
C 3373 160 3194 160 3110 160 
L 3110 0 
C 3315 0 3610 0 3821 0 
C 3974 0 4237 0 4384 -6 
L 4384 160 
C 4077 160 3981 198 3789 493 
L 2362 2675 
z
" transform="scale(0.015625)"/>
       <path id="CMR17-4c" d="M 3469 1615 
L 3354 1615 
C 3302 983 3219 166 2125 166 
L 1530 166 
C 1274 166 1261 197 1261 414 
L 1261 3898 
C 1261 4129 1274 4192 1760 4192 
L 1901 4192 
L 1901 4352 
C 1638 4352 1331 4352 1069 4352 
C 870 4352 512 4352 326 4352 
L 326 4192 
C 768 4192 838 4192 838 3905 
L 838 452 
C 838 166 768 166 326 166 
L 326 0 
L 3315 0 
L 3469 1615 
z
" transform="scale(0.015625)"/>
       <path id="CMR17-44" d="M 333 4352 
L 333 4186 
C 774 4186 845 4186 845 3900 
L 845 452 
C 845 166 774 166 333 166 
L 333 0 
L 2368 0 
C 3398 0 4224 943 4224 2141 
C 4224 3346 3411 4352 2368 4352 
L 333 4352 
z
M 1523 166 
C 1267 166 1254 197 1254 414 
L 1254 3938 
C 1254 4155 1267 4186 1523 4186 
L 2240 4186 
C 2771 4186 3750 3874 3750 2141 
C 3750 1242 3488 879 3366 707 
C 3213 510 2848 166 2240 166 
L 1523 166 
z
" transform="scale(0.015625)"/>
       <path id="CMR17-41" d="M 2323 4378 
C 2291 4461 2278 4480 2214 4480 
C 2150 4480 2138 4461 2106 4378 
L 749 566 
C 627 223 371 153 147 153 
L 147 -13 
C 262 0 518 0 640 0 
C 800 0 1056 0 1210 -13 
L 1210 153 
C 909 153 864 361 864 439 
C 864 497 877 530 890 569 
L 1229 1536 
L 2906 1536 
L 3290 442 
C 3322 365 3322 352 3322 327 
C 3322 153 3046 153 2925 153 
L 2925 0 
C 3110 0 3443 0 3642 0 
C 3808 0 4128 0 4282 -13 
L 4282 153 
C 3942 153 3827 153 3744 387 
L 2323 4378 
z
M 2067 3893 
L 2848 1702 
L 1286 1702 
L 2067 3893 
z
" transform="scale(0.015625)"/>
       <path id="CMR17-64" d="M 1869 4326 
L 1869 4160 
C 2246 4160 2304 4122 2304 3820 
L 2304 2345 
C 2278 2377 2016 2790 1498 2790 
C 845 2790 211 2208 211 1364 
C 211 525 806 -64 1434 -64 
C 1978 -64 2259 337 2291 380 
L 2291 -63 
L 3066 -63 
L 3066 128 
C 2688 128 2630 166 2630 473 
L 2630 4396 
L 1869 4326 
z
M 2291 755 
C 2291 563 2176 390 2029 262 
C 1811 70 1594 38 1472 38 
C 1286 38 621 134 621 1356 
C 621 2612 1363 2688 1530 2688 
C 1824 2688 2061 2522 2208 2291 
C 2291 2157 2291 2138 2291 2023 
L 2291 755 
z
" transform="scale(0.015625)"/>
       <path id="CMR17-76" d="M 2502 2163 
C 2560 2304 2662 2560 3034 2560 
L 3034 2726 
C 2912 2726 2752 2726 2630 2726 
C 2496 2726 2285 2726 2157 2732 
L 2157 2566 
C 2317 2553 2406 2477 2406 2311 
C 2406 2253 2406 2240 2368 2151 
L 1664 377 
L 902 2286 
C 864 2369 864 2381 864 2407 
C 864 2560 1075 2560 1171 2560 
L 1171 2732 
C 1018 2726 736 2726 576 2726 
C 403 2726 205 2726 64 2732 
L 64 2560 
C 307 2560 442 2560 518 2362 
L 1446 44 
C 1485 -51 1491 -64 1549 -64 
C 1606 -64 1613 -51 1651 44 
L 2502 2163 
z
" transform="scale(0.015625)"/>
      </defs>
      <use xlink:href="#CMR17-4b" transform="scale(0.996264)"/>
      <use xlink:href="#CMR17-4c" transform="translate(71.674777 0) scale(0.996264)"/>
      <use xlink:href="#CMR17-44" transform="translate(129.056185 0) scale(0.996264)"/>
      <use xlink:href="#CMR17-41" transform="translate(229.525707 0) scale(0.996264)"/>
      <use xlink:href="#CMR17-64" transform="translate(298.598137 0) scale(0.996264)"/>
      <use xlink:href="#CMR17-61" transform="translate(349.493507 0) scale(0.996264)"/>
      <use xlink:href="#CMR17-70" transform="translate(395.183984 0) scale(0.996264)"/>
      <use xlink:href="#CMR17-74" transform="translate(446.079354 0) scale(0.996264)"/>
      <use xlink:href="#CMR17-69" transform="translate(481.360122 0) scale(0.996264)"/>
      <use xlink:href="#CMR17-76" transform="translate(506.23118 0) scale(0.996264)"/>
      <use xlink:href="#CMR17-65" transform="translate(551.921642 0) scale(0.996264)"/>
      <use xlink:href="#CMR17-46" transform="translate(622.483269 0) scale(0.996264)"/>
      <use xlink:href="#CMR17-69" transform="translate(682.467116 0) scale(0.996264)"/>
      <use xlink:href="#CMR17-6c" transform="translate(707.338174 0) scale(0.996264)"/>
      <use xlink:href="#CMR17-74" transform="translate(732.209232 0) scale(0.996264)"/>
      <use xlink:href="#CMR17-65" transform="translate(767.49 0) scale(0.996264)"/>
      <use xlink:href="#CMR17-72" transform="translate(807.975661 0) scale(0.996264)"/>
     </g>
    </g>
    <g id="line2d_18">
     <path d="M 49.599707 74.102492 
L 61.599707 74.102492 
L 73.599707 74.102492 
" style="fill: none; stroke: #000000; stroke-width: 2.5; stroke-linecap: square"/>
    </g>
    <g id="text_18">
     <!-- Ground Truth -->
     <g transform="translate(83.199707 78.302492) scale(0.12 -0.12)">
      <defs>
       <path id="CMR17-47" d="M 3974 1233 
C 3974 1473 3994 1505 4390 1505 
L 4390 1670 
C 4237 1664 3891 1664 3718 1664 
C 3539 1664 3040 1664 2797 1664 
L 2797 1505 
L 2989 1505 
C 3539 1505 3552 1434 3552 1201 
L 3552 774 
C 3552 63 2720 63 2522 63 
C 1862 63 781 511 781 2160 
C 781 3808 1843 4250 2464 4250 
C 3187 4250 3712 3626 3834 2741 
C 3846 2664 3846 2651 3904 2651 
C 3974 2651 3974 2664 3974 2779 
L 3974 4288 
C 3974 4402 3968 4409 3930 4409 
C 3904 4409 3898 4402 3853 4326 
L 3571 3791 
C 3258 4187 2874 4416 2381 4416 
C 1286 4416 294 3456 294 2148 
C 294 845 1267 -128 2394 -128 
C 2912 -128 3418 56 3616 417 
C 3725 158 3904 -20 3936 -20 
C 3968 -20 3974 -13 3974 100 
L 3974 1233 
z
" transform="scale(0.015625)"/>
       <path id="CMR17-68" d="M 2656 1933 
C 2656 2259 2592 2790 1837 2790 
C 1312 2790 1056 2368 979 2157 
L 973 2157 
L 973 4396 
L 211 4326 
L 211 4160 
C 589 4160 646 4122 646 3817 
L 646 426 
C 646 184 621 153 211 153 
L 211 -13 
C 365 0 646 0 813 0 
C 979 0 1267 0 1421 -13 
L 1421 153 
C 1011 153 986 178 986 428 
L 986 1658 
C 986 2247 1344 2688 1792 2688 
C 2266 2688 2317 2266 2317 1958 
L 2317 428 
C 2317 184 2291 153 1882 153 
L 1882 -13 
C 2035 0 2317 0 2483 0 
C 2650 0 2938 0 3091 -13 
L 3091 153 
C 2682 153 2656 178 2656 428 
L 2656 1933 
z
" transform="scale(0.015625)"/>
      </defs>
      <use xlink:href="#CMR17-47" transform="scale(0.996264)"/>
      <use xlink:href="#CMR17-72" transform="translate(72.355346 0) scale(0.996264)"/>
      <use xlink:href="#CMR17-6f" transform="translate(107.636114 0) scale(0.996264)"/>
      <use xlink:href="#CMR17-75" transform="translate(153.326591 0) scale(0.996264)"/>
      <use xlink:href="#CMR17-6e" transform="translate(204.221961 0) scale(0.996264)"/>
      <use xlink:href="#CMR17-64" transform="translate(255.11733 0) scale(0.996264)"/>
      <use xlink:href="#CMR17-54" transform="translate(336.088667 0) scale(0.996264)"/>
      <use xlink:href="#CMR17-72" transform="translate(394.791292 0) scale(0.996264)"/>
      <use xlink:href="#CMR17-75" transform="translate(430.072059 0) scale(0.996264)"/>
      <use xlink:href="#CMR17-74" transform="translate(480.967429 0) scale(0.996264)"/>
      <use xlink:href="#CMR17-68" transform="translate(516.248197 0) scale(0.996264)"/>
     </g>
    </g>
   </g>
  </g>
 </g>
 <defs>
  <clipPath id="pc0db9c6dca">
   <rect x="38.799707" y="25.6533" width="401.76" height="277.2"/>
  </clipPath>
 </defs>
</svg>
