<?xml version="1.0" encoding="utf-8" standalone="no"?>
<!DOCTYPE svg PUBLIC "-//W3C//DTD SVG 1.1//EN"
  "http://www.w3.org/Graphics/SVG/1.1/DTD/svg11.dtd">
<svg xmlns:xlink="http://www.w3.org/1999/xlink" width="460.8pt" height="345.6pt" viewBox="0 0 460.8 345.6" xmlns="http://www.w3.org/2000/svg" version="1.1">
 <metadata>
  <rdf:RDF xmlns:dc="http://purl.org/dc/elements/1.1/" xmlns:cc="http://creativecommons.org/ns#" xmlns:rdf="http://www.w3.org/1999/02/22-rdf-syntax-ns#">
   <cc:Work>
    <dc:type rdf:resource="http://purl.org/dc/dcmitype/StillImage"/>
    <dc:date>2023-06-15T16:02:23.677929</dc:date>
    <dc:format>image/svg+xml</dc:format>
    <dc:creator>
     <cc:Agent>
      <dc:title>Matplotlib v3.6.1, https://matplotlib.org/</dc:title>
     </cc:Agent>
    </dc:creator>
   </cc:Work>
  </rdf:RDF>
 </metadata>
 <defs>
  <style type="text/css">*{stroke-linejoin: round; stroke-linecap: butt}</style>
 </defs>
 <g id="figure_1">
  <g id="patch_1">
   <path d="M 0 345.6 
L 460.8 345.6 
L 460.8 0 
L 0 0 
z
" style="fill: #ffffff"/>
  </g>
  <g id="axes_1">
   <g id="patch_2">
    <path d="M 57.6 307.584 
L 414.72 307.584 
L 414.72 41.472 
L 57.6 41.472 
z
" style="fill: #ffffff"/>
   </g>
   <g id="matplotlib.axis_1">
    <g id="xtick_1">
     <g id="line2d_1">
      <defs>
       <path id="m0f3bc4d8d3" d="M 0 0 
L 0 3.5 
" style="stroke: #000000; stroke-width: 0.8"/>
      </defs>
      <g>
       <use xlink:href="#m0f3bc4d8d3" x="57.6" y="307.584" style="stroke: #000000; stroke-width: 0.8"/>
      </g>
     </g>
     <g id="text_1">
      <!-- 0 -->
      <g transform="translate(54.100625 322.942281) scale(0.11 -0.11)">
       <defs>
        <path id="DejaVuSans-30" d="M 2034 4250 
Q 1547 4250 1301 3770 
Q 1056 3291 1056 2328 
Q 1056 1369 1301 889 
Q 1547 409 2034 409 
Q 2525 409 2770 889 
Q 3016 1369 3016 2328 
Q 3016 3291 2770 3770 
Q 2525 4250 2034 4250 
z
M 2034 4750 
Q 2819 4750 3233 4129 
Q 3647 3509 3647 2328 
Q 3647 1150 3233 529 
Q 2819 -91 2034 -91 
Q 1250 -91 836 529 
Q 422 1150 422 2328 
Q 422 3509 836 4129 
Q 1250 4750 2034 4750 
z
" transform="scale(0.015625)"/>
       </defs>
       <use xlink:href="#DejaVuSans-30"/>
      </g>
     </g>
    </g>
    <g id="xtick_2">
     <g id="line2d_2">
      <g>
       <use xlink:href="#m0f3bc4d8d3" x="114.285714" y="307.584" style="stroke: #000000; stroke-width: 0.8"/>
      </g>
     </g>
     <g id="text_2">
      <!-- 1 -->
      <g transform="translate(110.786339 322.942281) scale(0.11 -0.11)">
       <defs>
        <path id="DejaVuSans-31" d="M 794 531 
L 1825 531 
L 1825 4091 
L 703 3866 
L 703 4441 
L 1819 4666 
L 2450 4666 
L 2450 531 
L 3481 531 
L 3481 0 
L 794 0 
L 794 531 
z
" transform="scale(0.015625)"/>
       </defs>
       <use xlink:href="#DejaVuSans-31"/>
      </g>
     </g>
    </g>
    <g id="xtick_3">
     <g id="line2d_3">
      <g>
       <use xlink:href="#m0f3bc4d8d3" x="170.971429" y="307.584" style="stroke: #000000; stroke-width: 0.8"/>
      </g>
     </g>
     <g id="text_3">
      <!-- 2 -->
      <g transform="translate(167.472054 322.942281) scale(0.11 -0.11)">
       <defs>
        <path id="DejaVuSans-32" d="M 1228 531 
L 3431 531 
L 3431 0 
L 469 0 
L 469 531 
Q 828 903 1448 1529 
Q 2069 2156 2228 2338 
Q 2531 2678 2651 2914 
Q 2772 3150 2772 3378 
Q 2772 3750 2511 3984 
Q 2250 4219 1831 4219 
Q 1534 4219 1204 4116 
Q 875 4013 500 3803 
L 500 4441 
Q 881 4594 1212 4672 
Q 1544 4750 1819 4750 
Q 2544 4750 2975 4387 
Q 3406 4025 3406 3419 
Q 3406 3131 3298 2873 
Q 3191 2616 2906 2266 
Q 2828 2175 2409 1742 
Q 1991 1309 1228 531 
z
" transform="scale(0.015625)"/>
       </defs>
       <use xlink:href="#DejaVuSans-32"/>
      </g>
     </g>
    </g>
    <g id="xtick_4">
     <g id="line2d_4">
      <g>
       <use xlink:href="#m0f3bc4d8d3" x="227.657143" y="307.584" style="stroke: #000000; stroke-width: 0.8"/>
      </g>
     </g>
     <g id="text_4">
      <!-- 3 -->
      <g transform="translate(224.157768 322.942281) scale(0.11 -0.11)">
       <defs>
        <path id="DejaVuSans-33" d="M 2597 2516 
Q 3050 2419 3304 2112 
Q 3559 1806 3559 1356 
Q 3559 666 3084 287 
Q 2609 -91 1734 -91 
Q 1441 -91 1130 -33 
Q 819 25 488 141 
L 488 750 
Q 750 597 1062 519 
Q 1375 441 1716 441 
Q 2309 441 2620 675 
Q 2931 909 2931 1356 
Q 2931 1769 2642 2001 
Q 2353 2234 1838 2234 
L 1294 2234 
L 1294 2753 
L 1863 2753 
Q 2328 2753 2575 2939 
Q 2822 3125 2822 3475 
Q 2822 3834 2567 4026 
Q 2313 4219 1838 4219 
Q 1578 4219 1281 4162 
Q 984 4106 628 3988 
L 628 4550 
Q 988 4650 1302 4700 
Q 1616 4750 1894 4750 
Q 2613 4750 3031 4423 
Q 3450 4097 3450 3541 
Q 3450 3153 3228 2886 
Q 3006 2619 2597 2516 
z
" transform="scale(0.015625)"/>
       </defs>
       <use xlink:href="#DejaVuSans-33"/>
      </g>
     </g>
    </g>
    <g id="xtick_5">
     <g id="line2d_5">
      <g>
       <use xlink:href="#m0f3bc4d8d3" x="284.342857" y="307.584" style="stroke: #000000; stroke-width: 0.8"/>
      </g>
     </g>
     <g id="text_5">
      <!-- 4 -->
      <g transform="translate(280.843482 322.942281) scale(0.11 -0.11)">
       <defs>
        <path id="DejaVuSans-34" d="M 2419 4116 
L 825 1625 
L 2419 1625 
L 2419 4116 
z
M 2253 4666 
L 3047 4666 
L 3047 1625 
L 3713 1625 
L 3713 1100 
L 3047 1100 
L 3047 0 
L 2419 0 
L 2419 1100 
L 313 1100 
L 313 1709 
L 2253 4666 
z
" transform="scale(0.015625)"/>
       </defs>
       <use xlink:href="#DejaVuSans-34"/>
      </g>
     </g>
    </g>
    <g id="xtick_6">
     <g id="line2d_6">
      <g>
       <use xlink:href="#m0f3bc4d8d3" x="341.028571" y="307.584" style="stroke: #000000; stroke-width: 0.8"/>
      </g>
     </g>
     <g id="text_6">
      <!-- 5 -->
      <g transform="translate(337.529196 322.942281) scale(0.11 -0.11)">
       <defs>
        <path id="DejaVuSans-35" d="M 691 4666 
L 3169 4666 
L 3169 4134 
L 1269 4134 
L 1269 2991 
Q 1406 3038 1543 3061 
Q 1681 3084 1819 3084 
Q 2600 3084 3056 2656 
Q 3513 2228 3513 1497 
Q 3513 744 3044 326 
Q 2575 -91 1722 -91 
Q 1428 -91 1123 -41 
Q 819 9 494 109 
L 494 744 
Q 775 591 1075 516 
Q 1375 441 1709 441 
Q 2250 441 2565 725 
Q 2881 1009 2881 1497 
Q 2881 1984 2565 2268 
Q 2250 2553 1709 2553 
Q 1456 2553 1204 2497 
Q 953 2441 691 2322 
L 691 4666 
z
" transform="scale(0.015625)"/>
       </defs>
       <use xlink:href="#DejaVuSans-35"/>
      </g>
     </g>
    </g>
    <g id="xtick_7">
     <g id="line2d_7">
      <g>
       <use xlink:href="#m0f3bc4d8d3" x="397.714286" y="307.584" style="stroke: #000000; stroke-width: 0.8"/>
      </g>
     </g>
     <g id="text_7">
      <!-- 6 -->
      <g transform="translate(394.214911 322.942281) scale(0.11 -0.11)">
       <defs>
        <path id="DejaVuSans-36" d="M 2113 2584 
Q 1688 2584 1439 2293 
Q 1191 2003 1191 1497 
Q 1191 994 1439 701 
Q 1688 409 2113 409 
Q 2538 409 2786 701 
Q 3034 994 3034 1497 
Q 3034 2003 2786 2293 
Q 2538 2584 2113 2584 
z
M 3366 4563 
L 3366 3988 
Q 3128 4100 2886 4159 
Q 2644 4219 2406 4219 
Q 1781 4219 1451 3797 
Q 1122 3375 1075 2522 
Q 1259 2794 1537 2939 
Q 1816 3084 2150 3084 
Q 2853 3084 3261 2657 
Q 3669 2231 3669 1497 
Q 3669 778 3244 343 
Q 2819 -91 2113 -91 
Q 1303 -91 875 529 
Q 447 1150 447 2328 
Q 447 3434 972 4092 
Q 1497 4750 2381 4750 
Q 2619 4750 2861 4703 
Q 3103 4656 3366 4563 
z
" transform="scale(0.015625)"/>
       </defs>
       <use xlink:href="#DejaVuSans-36"/>
      </g>
     </g>
    </g>
    <g id="text_8">
     <!-- Time [s] -->
     <g transform="translate(213.798203 337.588219) scale(0.11 -0.11)">
      <defs>
       <path id="DejaVuSans-54" d="M -19 4666 
L 3928 4666 
L 3928 4134 
L 2272 4134 
L 2272 0 
L 1638 0 
L 1638 4134 
L -19 4134 
L -19 4666 
z
" transform="scale(0.015625)"/>
       <path id="DejaVuSans-69" d="M 603 3500 
L 1178 3500 
L 1178 0 
L 603 0 
L 603 3500 
z
M 603 4863 
L 1178 4863 
L 1178 4134 
L 603 4134 
L 603 4863 
z
" transform="scale(0.015625)"/>
       <path id="DejaVuSans-6d" d="M 3328 2828 
Q 3544 3216 3844 3400 
Q 4144 3584 4550 3584 
Q 5097 3584 5394 3201 
Q 5691 2819 5691 2113 
L 5691 0 
L 5113 0 
L 5113 2094 
Q 5113 2597 4934 2840 
Q 4756 3084 4391 3084 
Q 3944 3084 3684 2787 
Q 3425 2491 3425 1978 
L 3425 0 
L 2847 0 
L 2847 2094 
Q 2847 2600 2669 2842 
Q 2491 3084 2119 3084 
Q 1678 3084 1418 2786 
Q 1159 2488 1159 1978 
L 1159 0 
L 581 0 
L 581 3500 
L 1159 3500 
L 1159 2956 
Q 1356 3278 1631 3431 
Q 1906 3584 2284 3584 
Q 2666 3584 2933 3390 
Q 3200 3197 3328 2828 
z
" transform="scale(0.015625)"/>
       <path id="DejaVuSans-65" d="M 3597 1894 
L 3597 1613 
L 953 1613 
Q 991 1019 1311 708 
Q 1631 397 2203 397 
Q 2534 397 2845 478 
Q 3156 559 3463 722 
L 3463 178 
Q 3153 47 2828 -22 
Q 2503 -91 2169 -91 
Q 1331 -91 842 396 
Q 353 884 353 1716 
Q 353 2575 817 3079 
Q 1281 3584 2069 3584 
Q 2775 3584 3186 3129 
Q 3597 2675 3597 1894 
z
M 3022 2063 
Q 3016 2534 2758 2815 
Q 2500 3097 2075 3097 
Q 1594 3097 1305 2825 
Q 1016 2553 972 2059 
L 3022 2063 
z
" transform="scale(0.015625)"/>
       <path id="DejaVuSans-20" transform="scale(0.015625)"/>
       <path id="DejaVuSans-5b" d="M 550 4863 
L 1875 4863 
L 1875 4416 
L 1125 4416 
L 1125 -397 
L 1875 -397 
L 1875 -844 
L 550 -844 
L 550 4863 
z
" transform="scale(0.015625)"/>
       <path id="DejaVuSans-73" d="M 2834 3397 
L 2834 2853 
Q 2591 2978 2328 3040 
Q 2066 3103 1784 3103 
Q 1356 3103 1142 2972 
Q 928 2841 928 2578 
Q 928 2378 1081 2264 
Q 1234 2150 1697 2047 
L 1894 2003 
Q 2506 1872 2764 1633 
Q 3022 1394 3022 966 
Q 3022 478 2636 193 
Q 2250 -91 1575 -91 
Q 1294 -91 989 -36 
Q 684 19 347 128 
L 347 722 
Q 666 556 975 473 
Q 1284 391 1588 391 
Q 1994 391 2212 530 
Q 2431 669 2431 922 
Q 2431 1156 2273 1281 
Q 2116 1406 1581 1522 
L 1381 1569 
Q 847 1681 609 1914 
Q 372 2147 372 2553 
Q 372 3047 722 3315 
Q 1072 3584 1716 3584 
Q 2034 3584 2315 3537 
Q 2597 3491 2834 3397 
z
" transform="scale(0.015625)"/>
       <path id="DejaVuSans-5d" d="M 1947 4863 
L 1947 -844 
L 622 -844 
L 622 -397 
L 1369 -397 
L 1369 4416 
L 622 4416 
L 622 4863 
L 1947 4863 
z
" transform="scale(0.015625)"/>
      </defs>
      <use xlink:href="#DejaVuSans-54"/>
      <use xlink:href="#DejaVuSans-69" x="57.958984"/>
      <use xlink:href="#DejaVuSans-6d" x="85.742188"/>
      <use xlink:href="#DejaVuSans-65" x="183.154297"/>
      <use xlink:href="#DejaVuSans-20" x="244.677734"/>
      <use xlink:href="#DejaVuSans-5b" x="276.464844"/>
      <use xlink:href="#DejaVuSans-73" x="315.478516"/>
      <use xlink:href="#DejaVuSans-5d" x="367.578125"/>
     </g>
    </g>
   </g>
   <g id="matplotlib.axis_2">
    <g id="ytick_1">
     <g id="line2d_8">
      <defs>
       <path id="m17c0b83b75" d="M 0 0 
L -3.5 0 
" style="stroke: #000000; stroke-width: 0.8"/>
      </defs>
      <g>
       <use xlink:href="#m17c0b83b75" x="57.6" y="295.144018" style="stroke: #000000; stroke-width: 0.8"/>
      </g>
     </g>
     <g id="text_9">
      <!-- 0 -->
      <g transform="translate(43.60125 299.323158) scale(0.11 -0.11)">
       <use xlink:href="#DejaVuSans-30"/>
      </g>
     </g>
    </g>
    <g id="ytick_2">
     <g id="line2d_9">
      <g>
       <use xlink:href="#m17c0b83b75" x="57.6" y="255.331252" style="stroke: #000000; stroke-width: 0.8"/>
      </g>
     </g>
     <g id="text_10">
      <!-- 1 -->
      <g transform="translate(43.60125 259.510393) scale(0.11 -0.11)">
       <use xlink:href="#DejaVuSans-31"/>
      </g>
     </g>
    </g>
    <g id="ytick_3">
     <g id="line2d_10">
      <g>
       <use xlink:href="#m17c0b83b75" x="57.6" y="215.518487" style="stroke: #000000; stroke-width: 0.8"/>
      </g>
     </g>
     <g id="text_11">
      <!-- 2 -->
      <g transform="translate(43.60125 219.697627) scale(0.11 -0.11)">
       <use xlink:href="#DejaVuSans-32"/>
      </g>
     </g>
    </g>
    <g id="ytick_4">
     <g id="line2d_11">
      <g>
       <use xlink:href="#m17c0b83b75" x="57.6" y="175.705721" style="stroke: #000000; stroke-width: 0.8"/>
      </g>
     </g>
     <g id="text_12">
      <!-- 3 -->
      <g transform="translate(43.60125 179.884862) scale(0.11 -0.11)">
       <use xlink:href="#DejaVuSans-33"/>
      </g>
     </g>
    </g>
    <g id="ytick_5">
     <g id="line2d_12">
      <g>
       <use xlink:href="#m17c0b83b75" x="57.6" y="135.892956" style="stroke: #000000; stroke-width: 0.8"/>
      </g>
     </g>
     <g id="text_13">
      <!-- 4 -->
      <g transform="translate(43.60125 140.072096) scale(0.11 -0.11)">
       <use xlink:href="#DejaVuSans-34"/>
      </g>
     </g>
    </g>
    <g id="ytick_6">
     <g id="line2d_13">
      <g>
       <use xlink:href="#m17c0b83b75" x="57.6" y="96.08019" style="stroke: #000000; stroke-width: 0.8"/>
      </g>
     </g>
     <g id="text_14">
      <!-- 5 -->
      <g transform="translate(43.60125 100.259331) scale(0.11 -0.11)">
       <use xlink:href="#DejaVuSans-35"/>
      </g>
     </g>
    </g>
    <g id="ytick_7">
     <g id="line2d_14">
      <g>
       <use xlink:href="#m17c0b83b75" x="57.6" y="56.267425" style="stroke: #000000; stroke-width: 0.8"/>
      </g>
     </g>
     <g id="text_15">
      <!-- 6 -->
      <g transform="translate(43.60125 60.446566) scale(0.11 -0.11)">
       <use xlink:href="#DejaVuSans-36"/>
      </g>
     </g>
    </g>
    <g id="text_16">
     <!-- X-position -->
     <g transform="translate(37.313594 201.789953) rotate(-90) scale(0.11 -0.11)">
      <defs>
       <path id="DejaVuSans-58" d="M 403 4666 
L 1081 4666 
L 2241 2931 
L 3406 4666 
L 4084 4666 
L 2584 2425 
L 4184 0 
L 3506 0 
L 2194 1984 
L 872 0 
L 191 0 
L 1856 2491 
L 403 4666 
z
" transform="scale(0.015625)"/>
       <path id="DejaVuSans-2d" d="M 313 2009 
L 1997 2009 
L 1997 1497 
L 313 1497 
L 313 2009 
z
" transform="scale(0.015625)"/>
       <path id="DejaVuSans-70" d="M 1159 525 
L 1159 -1331 
L 581 -1331 
L 581 3500 
L 1159 3500 
L 1159 2969 
Q 1341 3281 1617 3432 
Q 1894 3584 2278 3584 
Q 2916 3584 3314 3078 
Q 3713 2572 3713 1747 
Q 3713 922 3314 415 
Q 2916 -91 2278 -91 
Q 1894 -91 1617 61 
Q 1341 213 1159 525 
z
M 3116 1747 
Q 3116 2381 2855 2742 
Q 2594 3103 2138 3103 
Q 1681 3103 1420 2742 
Q 1159 2381 1159 1747 
Q 1159 1113 1420 752 
Q 1681 391 2138 391 
Q 2594 391 2855 752 
Q 3116 1113 3116 1747 
z
" transform="scale(0.015625)"/>
       <path id="DejaVuSans-6f" d="M 1959 3097 
Q 1497 3097 1228 2736 
Q 959 2375 959 1747 
Q 959 1119 1226 758 
Q 1494 397 1959 397 
Q 2419 397 2687 759 
Q 2956 1122 2956 1747 
Q 2956 2369 2687 2733 
Q 2419 3097 1959 3097 
z
M 1959 3584 
Q 2709 3584 3137 3096 
Q 3566 2609 3566 1747 
Q 3566 888 3137 398 
Q 2709 -91 1959 -91 
Q 1206 -91 779 398 
Q 353 888 353 1747 
Q 353 2609 779 3096 
Q 1206 3584 1959 3584 
z
" transform="scale(0.015625)"/>
       <path id="DejaVuSans-74" d="M 1172 4494 
L 1172 3500 
L 2356 3500 
L 2356 3053 
L 1172 3053 
L 1172 1153 
Q 1172 725 1289 603 
Q 1406 481 1766 481 
L 2356 481 
L 2356 0 
L 1766 0 
Q 1100 0 847 248 
Q 594 497 594 1153 
L 594 3053 
L 172 3053 
L 172 3500 
L 594 3500 
L 594 4494 
L 1172 4494 
z
" transform="scale(0.015625)"/>
       <path id="DejaVuSans-6e" d="M 3513 2113 
L 3513 0 
L 2938 0 
L 2938 2094 
Q 2938 2591 2744 2837 
Q 2550 3084 2163 3084 
Q 1697 3084 1428 2787 
Q 1159 2491 1159 1978 
L 1159 0 
L 581 0 
L 581 3500 
L 1159 3500 
L 1159 2956 
Q 1366 3272 1645 3428 
Q 1925 3584 2291 3584 
Q 2894 3584 3203 3211 
Q 3513 2838 3513 2113 
z
" transform="scale(0.015625)"/>
      </defs>
      <use xlink:href="#DejaVuSans-58"/>
      <use xlink:href="#DejaVuSans-2d" x="63.505859"/>
      <use xlink:href="#DejaVuSans-70" x="99.589844"/>
      <use xlink:href="#DejaVuSans-6f" x="163.066406"/>
      <use xlink:href="#DejaVuSans-73" x="224.248047"/>
      <use xlink:href="#DejaVuSans-69" x="276.347656"/>
      <use xlink:href="#DejaVuSans-74" x="304.130859"/>
      <use xlink:href="#DejaVuSans-69" x="343.339844"/>
      <use xlink:href="#DejaVuSans-6f" x="371.123047"/>
      <use xlink:href="#DejaVuSans-6e" x="432.304688"/>
     </g>
    </g>
   </g>
   <g id="line2d_15">
    <path d="M 57.6 290.342996 
L 58.168753 291.924001 
L 58.737506 292.211489 
L 59.306259 294.583295 
L 59.875012 292.161245 
L 60.443765 292.221681 
L 61.012518 289.000032 
L 61.581271 289.373038 
L 62.150024 288.551939 
L 62.718777 282.990892 
L 63.28753 283.202696 
L 63.856283 280.465927 
L 64.993789 269.278739 
L 66.131295 271.347729 
L 66.700048 266.638516 
L 67.268801 264.076644 
L 67.837554 263.652479 
L 68.406307 266.808596 
L 68.97506 267.262939 
L 69.543813 261.254237 
L 70.112566 256.636992 
L 70.681319 264.961124 
L 71.250072 270.847402 
L 71.818825 266.772366 
L 72.387578 269.475653 
L 72.956331 268.526795 
L 73.525084 266.443154 
L 74.093837 268.128031 
L 74.66259 255.393957 
L 75.231343 262.285945 
L 75.800096 271.286377 
L 76.368849 268.990733 
L 76.937602 271.232949 
L 77.506355 274.440384 
L 78.075108 275.32578 
L 78.64386 276.640836 
L 79.212613 270.317653 
L 79.781366 269.158703 
L 80.350119 273.9948 
L 80.918872 274.275798 
L 81.487625 276.114272 
L 82.056378 280.257666 
L 82.625131 282.194518 
L 83.193884 281.354428 
L 83.762637 282.039726 
L 84.33139 282.006004 
L 85.468896 286.921686 
L 86.037649 279.388832 
L 87.175155 270.906285 
L 87.743908 273.145116 
L 88.312661 270.813561 
L 88.881414 272.552782 
L 89.450167 280.448051 
L 90.01892 271.240314 
L 90.587673 264.302103 
L 91.156426 266.397609 
L 91.725179 274.05424 
L 92.293932 271.066491 
L 92.862685 266.542129 
L 93.431438 263.054531 
L 94.000191 264.298441 
L 94.568944 272.400219 
L 95.137697 265.562695 
L 95.70645 271.569844 
L 96.275203 270.731945 
L 96.843956 268.358626 
L 97.412709 268.212036 
L 97.981462 266.674626 
L 98.550215 271.192658 
L 99.118968 273.42914 
L 99.687721 272.415786 
L 100.825227 265.73385 
L 101.39398 270.183524 
L 101.962733 272.859977 
L 102.531486 270.89024 
L 103.100239 277.558679 
L 104.237745 271.169447 
L 104.806498 274.691563 
L 105.375251 272.819686 
L 105.944004 263.334295 
L 106.512757 263.58416 
L 107.08151 261.804529 
L 107.650263 261.548931 
L 108.219016 258.571414 
L 108.787769 266.713642 
L 109.356522 271.70035 
L 109.925275 267.597685 
L 110.494028 267.528371 
L 111.062781 267.182557 
L 111.631534 268.808033 
L 112.200287 269.878837 
L 113.337793 268.624297 
L 113.906546 265.342172 
L 114.475299 269.011874 
L 115.044052 265.838717 
L 115.612805 266.148739 
L 116.181558 264.250705 
L 116.750311 264.631236 
L 117.319064 262.763698 
L 117.887817 259.769898 
L 118.45657 261.846054 
L 119.025323 262.861598 
L 119.594075 261.585241 
L 120.162828 257.734669 
L 120.731581 259.344299 
L 121.300334 262.58251 
L 122.43784 266.636326 
L 123.006593 266.647553 
L 123.575346 264.769625 
L 124.144099 261.127155 
L 124.712852 264.554994 
L 125.281605 257.269935 
L 125.850358 257.223354 
L 126.419111 259.681394 
L 126.987864 257.561006 
L 127.556617 257.761861 
L 128.12537 260.144894 
L 128.694123 260.402204 
L 129.262876 256.655743 
L 129.831629 259.372845 
L 130.400382 254.879258 
L 130.969135 254.130499 
L 131.537888 254.333584 
L 132.106641 253.597287 
L 132.675394 249.916477 
L 133.244147 253.159426 
L 133.8129 251.422395 
L 134.381653 251.957439 
L 134.950406 260.428321 
L 135.519159 259.977004 
L 136.656665 234.136409 
L 137.225418 236.389254 
L 137.794171 242.174646 
L 138.362924 240.058478 
L 138.931677 241.584263 
L 139.50043 238.565062 
L 140.069183 239.193108 
L 140.637936 242.272745 
L 141.206689 240.369973 
L 141.775442 237.053809 
L 142.912948 244.521688 
L 143.481701 242.491436 
L 144.050454 246.203021 
L 144.619207 244.336798 
L 145.18796 246.787831 
L 145.756713 240.626487 
L 146.325466 244.231413 
L 146.894219 242.178548 
L 147.462972 242.496015 
L 148.031725 239.03103 
L 148.600478 239.058182 
L 149.169231 239.350647 
L 149.737984 245.643493 
L 150.306737 247.3132 
L 150.87549 242.995983 
L 151.444243 245.149814 
L 152.012996 246.224839 
L 152.581749 249.723704 
L 153.150502 249.443621 
L 153.719255 245.475801 
L 154.288008 246.632083 
L 154.856761 244.041626 
L 155.425514 242.876426 
L 155.994267 252.217775 
L 156.56302 251.702677 
L 157.131773 248.509415 
L 157.700526 249.90736 
L 158.269279 249.715064 
L 158.838032 249.883393 
L 159.406785 253.762112 
L 159.975538 253.439708 
L 160.54429 247.079499 
L 161.113043 242.825664 
L 161.681796 248.713535 
L 162.250549 250.395783 
L 162.819302 254.609566 
L 163.388055 250.192459 
L 163.956808 248.266278 
L 164.525561 250.966579 
L 165.094314 250.550774 
L 165.663067 251.94649 
L 166.23182 257.888984 
L 166.800573 257.523821 
L 167.369326 260.152658 
L 167.938079 255.692115 
L 168.506832 253.944733 
L 169.075585 256.043463 
L 169.644338 259.147107 
L 170.213091 261.503425 
L 170.781844 266.633181 
L 171.350597 264.671407 
L 171.91935 257.194251 
L 172.488103 254.251371 
L 173.056856 250.185452 
L 173.625609 249.891873 
L 174.194362 247.198022 
L 174.763115 248.506787 
L 175.331868 244.505166 
L 175.900621 243.070513 
L 176.469374 245.581902 
L 177.038127 240.814562 
L 177.60688 230.120495 
L 178.175633 227.673205 
L 178.744386 230.527302 
L 179.313139 230.527899 
L 179.881892 236.650227 
L 180.450645 236.990069 
L 181.019398 237.78079 
L 181.588151 224.024285 
L 182.156904 239.339858 
L 182.725657 241.968496 
L 183.29441 242.303719 
L 183.863163 241.996245 
L 184.431916 242.079573 
L 185.000669 243.245729 
L 185.569422 244.101066 
L 186.138175 238.077116 
L 186.706928 236.825522 
L 187.275681 227.252025 
L 187.844434 230.236311 
L 188.413187 227.431382 
L 188.98194 230.149837 
L 189.550693 227.232716 
L 190.119446 226.88523 
L 190.688199 228.991365 
L 191.256952 227.036399 
L 191.825705 227.454433 
L 192.394458 228.324064 
L 192.963211 225.217036 
L 193.531964 230.447916 
L 194.100717 234.312859 
L 194.66947 231.539462 
L 195.238223 244.940439 
L 195.806976 247.563901 
L 196.375729 247.849916 
L 196.944482 247.459751 
L 197.513235 243.058012 
L 198.081988 243.579559 
L 198.650741 245.683106 
L 199.788247 246.014627 
L 200.925753 241.135414 
L 201.494505 237.091273 
L 202.063258 234.596286 
L 202.632011 240.515847 
L 203.200764 241.738298 
L 203.769517 247.276055 
L 204.33827 242.598373 
L 204.907023 240.767544 
L 205.475776 242.909192 
L 206.044529 242.984438 
L 206.613282 247.735892 
L 207.182035 246.618069 
L 207.750788 244.962416 
L 208.319541 247.910392 
L 208.888294 249.27804 
L 209.457047 244.975474 
L 210.0258 244.361999 
L 210.594553 236.234024 
L 211.163306 234.167184 
L 211.732059 238.105344 
L 212.300812 230.347786 
L 212.869565 238.019268 
L 213.438318 238.007882 
L 214.007071 242.395687 
L 214.575824 237.513567 
L 215.144577 239.863236 
L 215.71333 239.884815 
L 216.282083 234.202896 
L 216.850836 232.69447 
L 217.419589 239.953373 
L 217.988342 237.609874 
L 218.557095 236.089424 
L 219.125848 231.950091 
L 219.694601 230.932676 
L 220.263354 232.048389 
L 220.832107 232.835606 
L 221.40086 231.318899 
L 221.969613 230.749895 
L 222.538366 232.713142 
L 223.107119 231.245485 
L 223.675872 231.797966 
L 224.244625 228.866752 
L 224.813378 228.151953 
L 225.382131 230.13216 
L 225.950884 233.256547 
L 226.519637 230.842181 
L 227.08839 219.166132 
L 227.657143 220.494883 
L 228.225896 218.844445 
L 228.794649 222.862947 
L 229.363402 216.352086 
L 229.932155 217.796295 
L 230.500908 210.295848 
L 231.069661 208.98358 
L 231.638414 209.724854 
L 232.207167 208.323165 
L 232.77592 208.791244 
L 233.344673 213.495282 
L 233.913426 211.858858 
L 235.050932 207.696791 
L 235.619685 214.33553 
L 236.188438 216.449827 
L 236.757191 209.694994 
L 237.325944 208.548147 
L 237.894697 212.084676 
L 238.46345 213.602975 
L 239.032203 212.4281 
L 239.600956 209.526029 
L 240.169709 207.282738 
L 240.738462 213.397581 
L 241.875968 209.323541 
L 242.44472 209.13443 
L 243.582226 195.149201 
L 244.150979 195.402609 
L 244.719732 201.168692 
L 245.288485 196.04666 
L 245.857238 195.515399 
L 246.425991 198.926477 
L 246.994744 197.361636 
L 247.563497 199.387509 
L 248.13225 196.348242 
L 248.701003 197.265966 
L 249.269756 199.243785 
L 249.838509 206.27663 
L 250.407262 205.395693 
L 250.976015 201.276625 
L 251.544768 196.234378 
L 252.113521 195.064559 
L 252.682274 194.230999 
L 253.251027 193.690859 
L 253.81978 190.547283 
L 254.388533 194.888308 
L 255.526039 196.938864 
L 256.094792 202.244075 
L 256.663545 192.499701 
L 257.232298 187.955592 
L 257.801051 188.881597 
L 258.369804 190.619862 
L 258.938557 191.669764 
L 259.50731 184.753809 
L 260.644816 195.085142 
L 262.351075 191.779966 
L 262.919828 183.421674 
L 264.057334 181.00066 
L 264.626087 182.046422 
L 265.19484 177.700102 
L 265.763593 185.386195 
L 266.332346 186.468625 
L 266.901099 178.719189 
L 267.469852 180.232751 
L 268.038605 180.233786 
L 268.607358 180.701188 
L 269.176111 178.392287 
L 269.744864 178.279617 
L 271.451123 191.299506 
L 272.019876 191.200651 
L 272.588629 185.545884 
L 273.157382 185.964356 
L 273.726135 196.589109 
L 274.294888 196.267542 
L 274.863641 201.212287 
L 275.432394 197.107631 
L 276.001147 194.291674 
L 276.5699 209.042104 
L 277.138653 210.390682 
L 277.707406 217.442439 
L 278.276159 217.450003 
L 278.844912 210.738765 
L 279.413665 211.119375 
L 279.982418 210.327977 
L 280.551171 205.65778 
L 281.119924 211.066743 
L 281.688677 210.356443 
L 282.25743 205.48149 
L 282.826183 205.095584 
L 283.394935 204.091586 
L 283.963688 207.960073 
L 284.532441 212.802977 
L 285.101194 209.610432 
L 285.669947 211.980446 
L 286.2387 213.427281 
L 286.807453 207.222303 
L 287.376206 208.144725 
L 287.944959 210.725746 
L 288.513712 203.559568 
L 289.082465 202.47897 
L 289.651218 196.837143 
L 290.219971 198.953191 
L 290.788724 197.754469 
L 291.357477 195.511099 
L 291.92623 198.016278 
L 292.494983 196.973661 
L 293.063736 201.998669 
L 293.632489 204.877172 
L 294.201242 202.82339 
L 294.769995 202.083988 
L 295.338748 201.85164 
L 295.907501 197.653105 
L 296.476254 199.641912 
L 297.045007 201.179999 
L 297.61376 209.182444 
L 298.182513 211.876773 
L 298.751266 205.612832 
L 299.320019 204.430313 
L 299.888772 201.626619 
L 300.457525 198.235487 
L 301.026278 198.499127 
L 301.595031 200.172537 
L 302.732537 210.298635 
L 303.30129 213.798137 
L 303.870043 209.311119 
L 304.438796 198.508761 
L 305.007549 197.285395 
L 305.576302 205.368979 
L 306.145055 210.458762 
L 306.713808 209.579378 
L 307.282561 208.058251 
L 307.851314 211.218151 
L 308.420067 208.920357 
L 308.98882 211.158551 
L 309.557573 210.07218 
L 310.126326 209.872599 
L 310.695079 208.904193 
L 311.263832 211.846038 
L 311.832585 211.392889 
L 312.401338 214.120183 
L 312.970091 210.251855 
L 313.538844 205.45171 
L 314.107597 205.158449 
L 314.67635 208.289245 
L 315.245103 209.833861 
L 315.813856 203.549137 
L 316.382609 204.033858 
L 316.951362 199.904358 
L 317.520115 200.222741 
L 318.657621 193.00174 
L 319.226374 198.357075 
L 319.795127 200.757785 
L 320.36388 204.068734 
L 320.932633 204.47136 
L 321.501386 201.471189 
L 322.070139 200.595269 
L 322.638892 204.181881 
L 323.207645 198.695722 
L 323.776398 196.672756 
L 324.345151 193.648658 
L 324.913903 194.368353 
L 325.482656 189.773522 
L 326.051409 188.518942 
L 327.188915 192.58717 
L 327.757668 191.15196 
L 328.326421 186.962582 
L 328.895174 187.045551 
L 329.463927 174.893501 
L 330.03268 175.566058 
L 330.601433 178.593461 
L 331.170186 179.351456 
L 331.738939 182.370896 
L 332.307692 187.231875 
L 332.876445 185.695222 
L 333.445198 189.700864 
L 334.013951 183.3098 
L 334.582704 182.179476 
L 335.151457 185.479238 
L 335.72021 184.587671 
L 336.288963 187.432213 
L 336.857716 187.838184 
L 337.426469 194.224788 
L 337.995222 188.13236 
L 338.563975 187.400801 
L 339.132728 188.239934 
L 340.270234 192.821866 
L 340.838987 203.187398 
L 341.40774 204.096642 
L 341.976493 207.750777 
L 342.545246 209.283449 
L 343.113999 211.407062 
L 343.682752 214.26327 
L 344.251505 215.496072 
L 344.820258 214.908237 
L 345.389011 209.823828 
L 345.957764 210.696205 
L 346.526517 216.702439 
L 347.09527 226.70671 
L 347.664023 227.140868 
L 348.801529 242.228592 
L 349.370282 236.826956 
L 349.939035 202.991201 
L 351.076541 198.905297 
L 351.645294 197.980167 
L 352.214047 199.558943 
L 352.7828 200.730115 
L 353.351553 200.272825 
L 354.489059 204.795356 
L 355.057812 200.902345 
L 355.626565 202.830517 
L 356.195318 202.08144 
L 356.764071 206.934735 
L 357.901577 193.436535 
L 358.47033 188.722346 
L 359.039083 192.149588 
L 359.607836 192.882859 
L 360.176589 192.938916 
L 360.745342 192.163841 
L 361.314095 193.017904 
L 361.882848 195.184276 
L 362.451601 197.932273 
L 363.020354 197.381582 
L 363.589107 185.274282 
L 364.15786 183.38011 
L 364.726613 197.055038 
L 365.295366 193.258453 
L 365.864118 193.975998 
L 366.432871 191.427185 
L 367.001624 193.000426 
L 367.570377 187.810116 
L 368.13913 190.678904 
L 369.276636 187.226023 
L 369.845389 180.689244 
L 370.414142 193.71204 
L 370.982895 193.404128 
L 371.551648 193.82252 
L 372.120401 191.138503 
L 372.689154 195.36837 
L 373.257907 195.907196 
L 373.82666 189.822094 
L 374.395413 191.920864 
L 374.964166 191.664867 
L 375.532919 190.317723 
L 376.101672 188.578064 
L 376.670425 187.456618 
L 377.239178 192.295661 
L 378.376684 177.887023 
L 378.945437 178.958504 
L 380.651696 179.088094 
L 381.220449 180.415571 
L 381.789202 183.463836 
L 382.357955 181.561741 
L 382.926708 180.424012 
L 383.495461 183.715293 
L 384.064214 188.277478 
L 384.632967 191.178117 
L 385.20172 183.456152 
L 385.770473 185.162885 
L 386.339226 184.378176 
L 386.907979 186.579424 
L 387.476732 187.586169 
L 388.045485 179.295479 
L 388.614238 176.08868 
L 389.182991 171.911764 
L 389.751744 173.065179 
L 390.320497 177.313321 
L 390.88925 177.990894 
L 391.458003 180.669298 
L 392.026756 176.356979 
L 392.595509 175.928394 
L 393.164262 191.551958 
L 393.733015 195.728039 
L 394.870521 183.731975 
L 395.439274 183.678705 
L 396.008027 183.502653 
L 396.57678 180.840175 
L 397.145533 178.864506 
L 397.714286 178.694028 
L 397.714286 178.694028 
" clip-path="url(#pbf1fb1e589)" style="fill: none; stroke: #4169e1; stroke-width: 1.5; stroke-linecap: square"/>
   </g>
   <g id="line2d_16">
    <path d="M 57.6 293.473434 
L 58.168753 293.377048 
L 58.737506 293.772548 
L 59.306259 293.833302 
L 59.875012 292.688207 
L 60.443765 291.009144 
L 61.012518 295.441459 
L 61.581271 288.523911 
L 62.718777 284.671748 
L 63.28753 289.924126 
L 63.856283 288.83461 
L 64.993789 292.169925 
L 65.562542 293.554891 
L 66.131295 292.41334 
L 66.700048 293.321349 
L 67.268801 294.880935 
L 67.837554 295.488 
L 68.406307 290.226982 
L 68.97506 290.476807 
L 69.543813 282.472689 
L 70.112566 276.836954 
L 70.681319 273.659019 
L 71.250072 271.537198 
L 71.818825 274.074306 
L 72.387578 277.267608 
L 72.956331 272.612461 
L 73.525084 269.310549 
L 74.093837 274.144974 
L 74.66259 272.467622 
L 75.231343 265.409137 
L 75.800096 265.446004 
L 76.368849 272.150434 
L 76.937602 277.315145 
L 77.506355 273.699827 
L 78.075108 276.368517 
L 78.64386 273.071223 
L 79.212613 272.717805 
L 79.781366 276.490543 
L 80.350119 277.377173 
L 80.918872 276.504557 
L 81.487625 272.847316 
L 82.056378 268.232619 
L 82.625131 259.751385 
L 83.193884 263.621982 
L 84.33139 276.470915 
L 84.900143 279.384931 
L 85.468896 280.300585 
L 86.037649 287.21228 
L 86.606402 290.200188 
L 87.175155 290.200347 
L 87.743908 290.491936 
L 88.312661 285.541497 
L 88.881414 284.779361 
L 89.450167 287.359945 
L 90.01892 288.495843 
L 90.587673 287.164425 
L 91.156426 286.160267 
L 92.293932 277.571141 
L 92.862685 274.931196 
L 93.431438 282.385221 
L 94.000191 276.792483 
L 94.568944 280.19735 
L 95.137697 271.976492 
L 95.70645 271.602491 
L 96.275203 268.730477 
L 96.843956 271.379778 
L 97.412709 270.612626 
L 97.981462 269.540269 
L 98.550215 271.912234 
L 99.118968 272.275406 
L 99.687721 270.180379 
L 100.256474 274.713102 
L 100.825227 276.355219 
L 101.39398 271.860756 
L 101.962733 274.826011 
L 102.531486 279.343605 
L 103.100239 269.222762 
L 103.668992 266.901837 
L 104.237745 267.047791 
L 104.806498 271.22829 
L 105.375251 269.711026 
L 105.944004 273.761577 
L 106.512757 262.944568 
L 107.08151 261.460746 
L 107.650263 268.716503 
L 108.219016 272.276162 
L 108.787769 272.303474 
L 109.356522 271.34737 
L 109.925275 268.64703 
L 110.494028 269.060207 
L 111.631534 268.316226 
L 112.76904 261.368619 
L 113.337793 265.479765 
L 114.475299 262.954083 
L 115.044052 266.242458 
L 115.612805 268.452186 
L 116.181558 269.903481 
L 116.750311 271.731205 
L 117.319064 271.204801 
L 118.45657 274.463595 
L 119.025323 275.578034 
L 119.594075 277.519145 
L 120.162828 273.569679 
L 120.731581 272.810649 
L 121.300334 270.600403 
L 121.869087 270.510506 
L 122.43784 270.971418 
L 123.006593 271.042763 
L 123.575346 273.771211 
L 124.144099 269.514829 
L 124.712852 270.342218 
L 125.281605 268.522615 
L 125.850358 271.922625 
L 126.419111 271.994368 
L 127.556617 275.662915 
L 128.12537 273.649504 
L 128.694123 276.056902 
L 129.262876 273.715115 
L 129.831629 275.490804 
L 130.400382 274.482984 
L 130.969135 274.110337 
L 131.537888 271.86195 
L 132.675394 263.004048 
L 133.244147 260.043252 
L 133.8129 262.798813 
L 134.381653 259.795816 
L 134.950406 255.864027 
L 136.087912 250.106543 
L 136.656665 244.661152 
L 137.225418 243.664599 
L 137.794171 247.473287 
L 138.362924 246.986497 
L 138.931677 246.316527 
L 139.50043 245.372089 
L 140.069183 245.255039 
L 140.637936 243.368949 
L 141.206689 240.069825 
L 141.775442 241.050493 
L 142.344195 244.8425 
L 142.912948 249.447762 
L 144.050454 246.026332 
L 144.619207 247.216176 
L 145.18796 246.201269 
L 145.756713 239.711868 
L 146.325466 245.072458 
L 146.894219 245.912826 
L 147.462972 244.705822 
L 148.031725 245.44622 
L 148.600478 243.749918 
L 149.169231 241.035483 
L 149.737984 240.84693 
L 150.306737 238.486949 
L 150.87549 237.232011 
L 151.444243 238.611961 
L 152.581749 229.799684 
L 153.150502 228.719444 
L 153.719255 229.545838 
L 154.288008 229.703576 
L 154.856761 231.507293 
L 155.425514 224.729528 
L 155.994267 223.168788 
L 156.56302 222.830141 
L 157.131773 223.910858 
L 157.700526 215.483292 
L 158.269279 210.078869 
L 158.838032 210.513425 
L 159.406785 205.76412 
L 159.975538 206.577017 
L 160.54429 205.858596 
L 161.681796 205.389442 
L 162.250549 211.652428 
L 162.819302 210.270408 
L 163.956808 209.692287 
L 164.525561 213.547038 
L 165.094314 215.842722 
L 165.663067 211.744834 
L 166.23182 212.320088 
L 166.800573 215.981987 
L 167.369326 217.65902 
L 167.938079 223.220147 
L 168.506832 226.153591 
L 169.075585 227.322852 
L 169.644338 222.347053 
L 170.213091 224.108927 
L 170.781844 222.12856 
L 171.350597 221.938295 
L 171.91935 226.569236 
L 172.488103 223.26836 
L 173.056856 226.610602 
L 173.625609 228.801498 
L 174.194362 228.332982 
L 174.763115 229.81541 
L 175.331868 227.063512 
L 176.469374 224.143047 
L 177.038127 223.757898 
L 177.60688 223.786643 
L 178.175633 222.65608 
L 178.744386 220.646371 
L 179.313139 221.578587 
L 179.881892 224.295569 
L 180.450645 226.291781 
L 181.588151 226.235327 
L 182.156904 227.664764 
L 182.725657 228.402137 
L 183.29441 227.515705 
L 183.863163 227.997718 
L 184.431916 224.105583 
L 185.000669 222.636332 
L 185.569422 221.642407 
L 186.138175 221.086103 
L 186.706928 218.904443 
L 187.275681 220.437434 
L 187.844434 219.64711 
L 188.413187 219.252645 
L 188.98194 221.477821 
L 190.119446 213.912918 
L 190.688199 212.525443 
L 191.256952 206.201225 
L 191.825705 201.572394 
L 192.394458 202.331862 
L 193.531964 205.527314 
L 194.100717 208.167139 
L 194.66947 206.486802 
L 195.806976 208.827514 
L 196.375729 210.621477 
L 196.944482 211.935059 
L 197.513235 211.188012 
L 198.081988 210.843393 
L 198.650741 209.17066 
L 199.219494 210.048691 
L 199.788247 209.363632 
L 200.357 209.335724 
L 200.925753 211.843649 
L 201.494505 203.245246 
L 202.063258 201.289564 
L 202.632011 201.785591 
L 203.200764 204.276278 
L 203.769517 201.908294 
L 204.33827 205.080177 
L 204.907023 201.103041 
L 205.475776 200.845691 
L 206.044529 203.238359 
L 206.613282 198.885231 
L 207.750788 197.168823 
L 208.319541 199.385319 
L 208.888294 199.784561 
L 209.457047 193.139851 
L 210.0258 192.554444 
L 210.594553 193.342856 
L 211.163306 192.486165 
L 211.732059 190.215165 
L 212.300812 194.06291 
L 212.869565 194.066453 
L 213.438318 192.96985 
L 214.007071 192.786194 
L 214.575824 191.044784 
L 215.144577 191.532331 
L 215.71333 192.675514 
L 216.282083 192.884731 
L 216.850836 192.643784 
L 217.988342 193.657297 
L 219.694601 188.464996 
L 220.263354 192.392008 
L 220.832107 194.365726 
L 221.40086 192.633313 
L 221.969613 192.430387 
L 223.107119 195.835812 
L 223.675872 195.397115 
L 224.244625 194.452119 
L 224.813378 199.526336 
L 225.382131 194.008167 
L 225.950884 183.63527 
L 226.519637 183.76486 
L 227.08839 184.953032 
L 227.657143 186.531768 
L 228.225896 186.567639 
L 228.794649 187.356927 
L 229.363402 186.697269 
L 229.932155 182.534287 
L 230.500908 180.706603 
L 231.069661 181.986663 
L 231.638414 175.715276 
L 232.207167 178.780501 
L 232.77592 176.692361 
L 233.344673 179.464405 
L 234.482179 182.228605 
L 235.050932 185.10241 
L 235.619685 181.240651 
L 236.188438 182.007525 
L 236.757191 182.091968 
L 237.325944 181.316694 
L 237.894697 181.73433 
L 238.46345 180.965585 
L 239.032203 181.360129 
L 239.600956 179.635201 
L 240.169709 175.612719 
L 241.307215 177.908283 
L 241.875968 176.919095 
L 242.44472 178.277626 
L 243.013473 178.765372 
L 243.582226 178.323689 
L 244.150979 178.72114 
L 244.719732 179.795209 
L 245.288485 180.032453 
L 245.857238 178.803791 
L 246.425991 171.704658 
L 246.994744 172.015675 
L 247.563497 172.810895 
L 248.13225 172.0998 
L 248.701003 171.811714 
L 249.269756 172.322114 
L 249.838509 173.870233 
L 250.407262 173.814257 
L 250.976015 171.821906 
L 251.544768 173.523146 
L 252.113521 169.782776 
L 252.682274 170.949489 
L 253.251027 170.920824 
L 253.81978 169.506714 
L 254.388533 169.459696 
L 254.957286 171.559779 
L 255.526039 170.559364 
L 256.094792 170.679718 
L 256.663545 173.035718 
L 257.232298 173.053952 
L 257.801051 175.489737 
L 258.369804 176.703031 
L 258.938557 176.32473 
L 259.50731 176.981243 
L 260.076063 181.753957 
L 260.644816 182.476002 
L 261.213569 186.27179 
L 261.782322 187.336025 
L 262.919828 177.034194 
L 263.488581 181.082157 
L 264.057334 183.928849 
L 264.626087 187.610017 
L 265.19484 185.488116 
L 265.763593 184.061067 
L 266.332346 183.849661 
L 266.901099 184.131177 
L 267.469852 182.83352 
L 268.038605 184.12425 
L 268.607358 183.679143 
L 269.176111 181.398509 
L 269.744864 181.12603 
L 270.313617 183.302077 
L 270.88237 183.621415 
L 271.451123 183.13124 
L 272.019876 185.843007 
L 272.588629 185.683835 
L 273.157382 184.154906 
L 273.726135 183.386599 
L 274.294888 182.295769 
L 274.863641 187.179163 
L 275.432394 189.388095 
L 276.001147 188.778601 
L 276.5699 189.334825 
L 277.138653 188.522963 
L 277.707406 190.363707 
L 278.276159 190.576705 
L 278.844912 191.750584 
L 279.413665 184.92162 
L 279.982418 184.764678 
L 280.551171 188.286316 
L 281.119924 189.454104 
L 281.688677 188.546453 
L 282.25743 184.871536 
L 282.826183 184.79195 
L 283.394935 183.595775 
L 283.963688 187.282637 
L 284.532441 185.879834 
L 285.101194 182.517885 
L 285.669947 181.582165 
L 286.2387 180.920318 
L 286.807453 181.529533 
L 287.376206 181.180653 
L 287.944959 178.184066 
L 288.513712 172.530375 
L 289.082465 177.000671 
L 289.651218 178.566507 
L 290.219971 178.868646 
L 290.788724 179.82053 
L 291.357477 184.104383 
L 291.92623 182.496346 
L 293.063736 180.183264 
L 293.632489 177.98544 
L 294.769995 172.19531 
L 295.338748 170.341309 
L 295.907501 163.689074 
L 296.476254 159.963674 
L 297.045007 160.779557 
L 297.61376 160.750335 
L 298.182513 162.569141 
L 298.751266 162.098952 
L 299.320019 159.90296 
L 299.888772 159.099936 
L 300.457525 160.54932 
L 301.026278 159.376157 
L 301.595031 161.278969 
L 303.30129 150.165434 
L 303.870043 150.092179 
L 304.438796 148.615045 
L 305.007549 148.412398 
L 305.576302 147.948819 
L 306.713808 149.342783 
L 307.282561 147.458524 
L 307.851314 150.518852 
L 308.420067 152.061039 
L 308.98882 156.227644 
L 309.557573 155.45874 
L 310.126326 156.090529 
L 310.695079 154.337573 
L 311.263832 150.457302 
L 311.832585 141.063838 
L 312.401338 140.995758 
L 312.970091 133.779734 
L 313.538844 128.729525 
L 314.107597 127.466982 
L 314.67635 125.913408 
L 315.245103 122.93195 
L 315.813856 123.190096 
L 316.382609 127.526861 
L 316.951362 127.629777 
L 317.520115 125.767734 
L 318.088868 124.759157 
L 318.657621 128.142724 
L 319.226374 129.031305 
L 319.795127 124.99664 
L 320.36388 123.016154 
L 320.932633 122.205765 
L 321.501386 123.771561 
L 322.070139 123.045814 
L 322.638892 125.477976 
L 323.207645 123.702606 
L 323.776398 126.601214 
L 324.345151 125.923401 
L 324.913903 125.867942 
L 325.482656 126.221281 
L 326.051409 127.759765 
L 326.620162 125.708612 
L 327.188915 118.006354 
L 327.757668 117.994211 
L 328.326421 117.153844 
L 328.895174 116.523727 
L 329.463927 118.850664 
L 330.03268 114.857682 
L 330.601433 111.939406 
L 331.170186 110.3418 
L 331.738939 115.068013 
L 332.307692 115.65979 
L 332.876445 115.203655 
L 333.445198 112.875006 
L 334.013951 111.521253 
L 334.582704 115.148116 
L 335.151457 113.370357 
L 335.72021 117.023019 
L 336.288963 119.252693 
L 336.857716 120.18463 
L 337.426469 120.840904 
L 337.995222 126.57215 
L 338.563975 126.212004 
L 339.132728 127.487764 
L 339.701481 126.070111 
L 340.270234 127.448151 
L 341.40774 122.7256 
L 341.976493 122.919648 
L 342.545246 123.718531 
L 343.113999 123.257937 
L 344.251505 120.24642 
L 344.820258 117.506425 
L 345.389011 116.443265 
L 345.957764 115.829273 
L 346.526517 116.194475 
L 347.09527 113.561538 
L 348.232776 113.341254 
L 348.801529 108.479518 
L 349.370282 105.907175 
L 349.939035 106.349495 
L 350.507788 106.07841 
L 351.076541 105.602329 
L 351.645294 103.130792 
L 352.214047 108.315848 
L 352.7828 107.918038 
L 353.351553 106.497678 
L 353.920306 108.010762 
L 354.489059 106.547723 
L 355.057812 103.225825 
L 355.626565 101.922714 
L 356.195318 111.584078 
L 356.764071 111.694717 
L 357.332824 110.492133 
L 357.901577 110.126572 
L 358.47033 107.890209 
L 359.039083 102.857557 
L 359.607836 101.762666 
L 360.176589 104.320756 
L 361.314095 100.138783 
L 361.882848 101.882184 
L 362.451601 99.517027 
L 363.020354 101.858376 
L 363.589107 102.005405 
L 364.15786 102.786531 
L 364.726613 103.355018 
L 365.295366 103.035082 
L 365.864118 103.184102 
L 366.432871 99.783255 
L 367.001624 103.167062 
L 367.570377 103.66082 
L 368.13913 105.769901 
L 368.707883 104.021722 
L 369.276636 101.857739 
L 369.845389 98.322406 
L 370.414142 97.42196 
L 370.982895 95.962504 
L 371.551648 99.14223 
L 372.120401 100.359704 
L 372.689154 99.065073 
L 373.257907 101.300042 
L 373.82666 99.120094 
L 374.964166 95.699859 
L 375.532919 94.715329 
L 376.670425 88.979504 
L 377.239178 87.120208 
L 377.807931 83.864161 
L 378.376684 81.915724 
L 378.945437 82.261657 
L 379.51419 81.805721 
L 380.082943 83.759135 
L 380.651696 82.617225 
L 381.220449 80.708999 
L 381.789202 80.201546 
L 382.357955 78.951743 
L 383.495461 66.179609 
L 384.064214 72.460829 
L 384.632967 65.080936 
L 385.20172 62.508593 
L 386.339226 59.285432 
L 386.907979 58.946665 
L 387.476732 59.422348 
L 388.614238 56.263006 
L 389.182991 53.568 
L 389.751744 56.71285 
L 390.320497 60.609007 
L 390.88925 59.540353 
L 391.458003 59.195176 
L 392.026756 58.39693 
L 392.595509 63.489699 
L 393.164262 65.226093 
L 393.733015 68.567499 
L 394.301768 67.101832 
L 394.870521 69.446366 
L 396.008027 71.388512 
L 396.57678 73.01359 
L 397.145533 72.398403 
L 397.714286 72.084201 
L 397.714286 72.084201 
" clip-path="url(#pbf1fb1e589)" style="fill: none; stroke: #ff8c00; stroke-width: 1.5; stroke-linecap: square"/>
   </g>
   <g id="line2d_17">
    <path d="M 57.6 294.427388 
L 397.714286 80.155841 
L 397.714286 80.155841 
" clip-path="url(#pbf1fb1e589)" style="fill: none; stroke: #000000; stroke-width: 2.5; stroke-linecap: square"/>
   </g>
   <g id="patch_3">
    <path d="M 57.6 307.584 
L 57.6 41.472 
" style="fill: none; stroke: #000000; stroke-width: 0.8; stroke-linejoin: miter; stroke-linecap: square"/>
   </g>
   <g id="patch_4">
    <path d="M 414.72 307.584 
L 414.72 41.472 
" style="fill: none; stroke: #000000; stroke-width: 0.8; stroke-linejoin: miter; stroke-linecap: square"/>
   </g>
   <g id="patch_5">
    <path d="M 57.6 307.584 
L 414.72 307.584 
" style="fill: none; stroke: #000000; stroke-width: 0.8; stroke-linejoin: miter; stroke-linecap: square"/>
   </g>
   <g id="patch_6">
    <path d="M 57.6 41.472 
L 414.72 41.472 
" style="fill: none; stroke: #000000; stroke-width: 0.8; stroke-linejoin: miter; stroke-linecap: square"/>
   </g>
   <g id="text_17">
    <!-- Comparison Between Particle Filters -->
    <g transform="translate(117.30225 35.472) scale(0.132 -0.132)">
     <defs>
      <path id="DejaVuSans-43" d="M 4122 4306 
L 4122 3641 
Q 3803 3938 3442 4084 
Q 3081 4231 2675 4231 
Q 1875 4231 1450 3742 
Q 1025 3253 1025 2328 
Q 1025 1406 1450 917 
Q 1875 428 2675 428 
Q 3081 428 3442 575 
Q 3803 722 4122 1019 
L 4122 359 
Q 3791 134 3420 21 
Q 3050 -91 2638 -91 
Q 1578 -91 968 557 
Q 359 1206 359 2328 
Q 359 3453 968 4101 
Q 1578 4750 2638 4750 
Q 3056 4750 3426 4639 
Q 3797 4528 4122 4306 
z
" transform="scale(0.015625)"/>
      <path id="DejaVuSans-61" d="M 2194 1759 
Q 1497 1759 1228 1600 
Q 959 1441 959 1056 
Q 959 750 1161 570 
Q 1363 391 1709 391 
Q 2188 391 2477 730 
Q 2766 1069 2766 1631 
L 2766 1759 
L 2194 1759 
z
M 3341 1997 
L 3341 0 
L 2766 0 
L 2766 531 
Q 2569 213 2275 61 
Q 1981 -91 1556 -91 
Q 1019 -91 701 211 
Q 384 513 384 1019 
Q 384 1609 779 1909 
Q 1175 2209 1959 2209 
L 2766 2209 
L 2766 2266 
Q 2766 2663 2505 2880 
Q 2244 3097 1772 3097 
Q 1472 3097 1187 3025 
Q 903 2953 641 2809 
L 641 3341 
Q 956 3463 1253 3523 
Q 1550 3584 1831 3584 
Q 2591 3584 2966 3190 
Q 3341 2797 3341 1997 
z
" transform="scale(0.015625)"/>
      <path id="DejaVuSans-72" d="M 2631 2963 
Q 2534 3019 2420 3045 
Q 2306 3072 2169 3072 
Q 1681 3072 1420 2755 
Q 1159 2438 1159 1844 
L 1159 0 
L 581 0 
L 581 3500 
L 1159 3500 
L 1159 2956 
Q 1341 3275 1631 3429 
Q 1922 3584 2338 3584 
Q 2397 3584 2469 3576 
Q 2541 3569 2628 3553 
L 2631 2963 
z
" transform="scale(0.015625)"/>
      <path id="DejaVuSans-42" d="M 1259 2228 
L 1259 519 
L 2272 519 
Q 2781 519 3026 730 
Q 3272 941 3272 1375 
Q 3272 1813 3026 2020 
Q 2781 2228 2272 2228 
L 1259 2228 
z
M 1259 4147 
L 1259 2741 
L 2194 2741 
Q 2656 2741 2882 2914 
Q 3109 3088 3109 3444 
Q 3109 3797 2882 3972 
Q 2656 4147 2194 4147 
L 1259 4147 
z
M 628 4666 
L 2241 4666 
Q 2963 4666 3353 4366 
Q 3744 4066 3744 3513 
Q 3744 3084 3544 2831 
Q 3344 2578 2956 2516 
Q 3422 2416 3680 2098 
Q 3938 1781 3938 1306 
Q 3938 681 3513 340 
Q 3088 0 2303 0 
L 628 0 
L 628 4666 
z
" transform="scale(0.015625)"/>
      <path id="DejaVuSans-77" d="M 269 3500 
L 844 3500 
L 1563 769 
L 2278 3500 
L 2956 3500 
L 3675 769 
L 4391 3500 
L 4966 3500 
L 4050 0 
L 3372 0 
L 2619 2869 
L 1863 0 
L 1184 0 
L 269 3500 
z
" transform="scale(0.015625)"/>
      <path id="DejaVuSans-50" d="M 1259 4147 
L 1259 2394 
L 2053 2394 
Q 2494 2394 2734 2622 
Q 2975 2850 2975 3272 
Q 2975 3691 2734 3919 
Q 2494 4147 2053 4147 
L 1259 4147 
z
M 628 4666 
L 2053 4666 
Q 2838 4666 3239 4311 
Q 3641 3956 3641 3272 
Q 3641 2581 3239 2228 
Q 2838 1875 2053 1875 
L 1259 1875 
L 1259 0 
L 628 0 
L 628 4666 
z
" transform="scale(0.015625)"/>
      <path id="DejaVuSans-63" d="M 3122 3366 
L 3122 2828 
Q 2878 2963 2633 3030 
Q 2388 3097 2138 3097 
Q 1578 3097 1268 2742 
Q 959 2388 959 1747 
Q 959 1106 1268 751 
Q 1578 397 2138 397 
Q 2388 397 2633 464 
Q 2878 531 3122 666 
L 3122 134 
Q 2881 22 2623 -34 
Q 2366 -91 2075 -91 
Q 1284 -91 818 406 
Q 353 903 353 1747 
Q 353 2603 823 3093 
Q 1294 3584 2113 3584 
Q 2378 3584 2631 3529 
Q 2884 3475 3122 3366 
z
" transform="scale(0.015625)"/>
      <path id="DejaVuSans-6c" d="M 603 4863 
L 1178 4863 
L 1178 0 
L 603 0 
L 603 4863 
z
" transform="scale(0.015625)"/>
      <path id="DejaVuSans-46" d="M 628 4666 
L 3309 4666 
L 3309 4134 
L 1259 4134 
L 1259 2759 
L 3109 2759 
L 3109 2228 
L 1259 2228 
L 1259 0 
L 628 0 
L 628 4666 
z
" transform="scale(0.015625)"/>
     </defs>
     <use xlink:href="#DejaVuSans-43"/>
     <use xlink:href="#DejaVuSans-6f" x="69.824219"/>
     <use xlink:href="#DejaVuSans-6d" x="131.005859"/>
     <use xlink:href="#DejaVuSans-70" x="228.417969"/>
     <use xlink:href="#DejaVuSans-61" x="291.894531"/>
     <use xlink:href="#DejaVuSans-72" x="353.173828"/>
     <use xlink:href="#DejaVuSans-69" x="394.287109"/>
     <use xlink:href="#DejaVuSans-73" x="422.070312"/>
     <use xlink:href="#DejaVuSans-6f" x="474.169922"/>
     <use xlink:href="#DejaVuSans-6e" x="535.351562"/>
     <use xlink:href="#DejaVuSans-20" x="598.730469"/>
     <use xlink:href="#DejaVuSans-42" x="630.517578"/>
     <use xlink:href="#DejaVuSans-65" x="699.121094"/>
     <use xlink:href="#DejaVuSans-74" x="760.644531"/>
     <use xlink:href="#DejaVuSans-77" x="799.853516"/>
     <use xlink:href="#DejaVuSans-65" x="881.640625"/>
     <use xlink:href="#DejaVuSans-65" x="943.164062"/>
     <use xlink:href="#DejaVuSans-6e" x="1004.6875"/>
     <use xlink:href="#DejaVuSans-20" x="1068.066406"/>
     <use xlink:href="#DejaVuSans-50" x="1099.853516"/>
     <use xlink:href="#DejaVuSans-61" x="1155.65625"/>
     <use xlink:href="#DejaVuSans-72" x="1216.935547"/>
     <use xlink:href="#DejaVuSans-74" x="1258.048828"/>
     <use xlink:href="#DejaVuSans-69" x="1297.257812"/>
     <use xlink:href="#DejaVuSans-63" x="1325.041016"/>
     <use xlink:href="#DejaVuSans-6c" x="1380.021484"/>
     <use xlink:href="#DejaVuSans-65" x="1407.804688"/>
     <use xlink:href="#DejaVuSans-20" x="1469.328125"/>
     <use xlink:href="#DejaVuSans-46" x="1501.115234"/>
     <use xlink:href="#DejaVuSans-69" x="1551.384766"/>
     <use xlink:href="#DejaVuSans-6c" x="1579.167969"/>
     <use xlink:href="#DejaVuSans-74" x="1606.951172"/>
     <use xlink:href="#DejaVuSans-65" x="1646.160156"/>
     <use xlink:href="#DejaVuSans-72" x="1707.683594"/>
     <use xlink:href="#DejaVuSans-73" x="1748.796875"/>
    </g>
   </g>
   <g id="legend_1">
    <g id="patch_7">
     <path d="M 65.3 98.709812 
L 217.5675 98.709812 
Q 219.7675 98.709812 219.7675 96.509812 
L 219.7675 49.172 
Q 219.7675 46.972 217.5675 46.972 
L 65.3 46.972 
Q 63.1 46.972 63.1 49.172 
L 63.1 96.509812 
Q 63.1 98.709812 65.3 98.709812 
z
" style="fill: #ffffff; opacity: 0.8; stroke: #cccccc; stroke-linejoin: miter"/>
    </g>
    <g id="line2d_18">
     <path d="M 67.5 55.880281 
L 78.5 55.880281 
L 89.5 55.880281 
" style="fill: none; stroke: #4169e1; stroke-width: 1.5; stroke-linecap: square"/>
    </g>
    <g id="text_18">
     <!-- Regular Particle Filter -->
     <g transform="translate(98.3 59.730281) scale(0.11 -0.11)">
      <defs>
       <path id="DejaVuSans-52" d="M 2841 2188 
Q 3044 2119 3236 1894 
Q 3428 1669 3622 1275 
L 4263 0 
L 3584 0 
L 2988 1197 
Q 2756 1666 2539 1819 
Q 2322 1972 1947 1972 
L 1259 1972 
L 1259 0 
L 628 0 
L 628 4666 
L 2053 4666 
Q 2853 4666 3247 4331 
Q 3641 3997 3641 3322 
Q 3641 2881 3436 2590 
Q 3231 2300 2841 2188 
z
M 1259 4147 
L 1259 2491 
L 2053 2491 
Q 2509 2491 2742 2702 
Q 2975 2913 2975 3322 
Q 2975 3731 2742 3939 
Q 2509 4147 2053 4147 
L 1259 4147 
z
" transform="scale(0.015625)"/>
       <path id="DejaVuSans-67" d="M 2906 1791 
Q 2906 2416 2648 2759 
Q 2391 3103 1925 3103 
Q 1463 3103 1205 2759 
Q 947 2416 947 1791 
Q 947 1169 1205 825 
Q 1463 481 1925 481 
Q 2391 481 2648 825 
Q 2906 1169 2906 1791 
z
M 3481 434 
Q 3481 -459 3084 -895 
Q 2688 -1331 1869 -1331 
Q 1566 -1331 1297 -1286 
Q 1028 -1241 775 -1147 
L 775 -588 
Q 1028 -725 1275 -790 
Q 1522 -856 1778 -856 
Q 2344 -856 2625 -561 
Q 2906 -266 2906 331 
L 2906 616 
Q 2728 306 2450 153 
Q 2172 0 1784 0 
Q 1141 0 747 490 
Q 353 981 353 1791 
Q 353 2603 747 3093 
Q 1141 3584 1784 3584 
Q 2172 3584 2450 3431 
Q 2728 3278 2906 2969 
L 2906 3500 
L 3481 3500 
L 3481 434 
z
" transform="scale(0.015625)"/>
       <path id="DejaVuSans-75" d="M 544 1381 
L 544 3500 
L 1119 3500 
L 1119 1403 
Q 1119 906 1312 657 
Q 1506 409 1894 409 
Q 2359 409 2629 706 
Q 2900 1003 2900 1516 
L 2900 3500 
L 3475 3500 
L 3475 0 
L 2900 0 
L 2900 538 
Q 2691 219 2414 64 
Q 2138 -91 1772 -91 
Q 1169 -91 856 284 
Q 544 659 544 1381 
z
M 1991 3584 
L 1991 3584 
z
" transform="scale(0.015625)"/>
      </defs>
      <use xlink:href="#DejaVuSans-52"/>
      <use xlink:href="#DejaVuSans-65" x="64.982422"/>
      <use xlink:href="#DejaVuSans-67" x="126.505859"/>
      <use xlink:href="#DejaVuSans-75" x="189.982422"/>
      <use xlink:href="#DejaVuSans-6c" x="253.361328"/>
      <use xlink:href="#DejaVuSans-61" x="281.144531"/>
      <use xlink:href="#DejaVuSans-72" x="342.423828"/>
      <use xlink:href="#DejaVuSans-20" x="383.537109"/>
      <use xlink:href="#DejaVuSans-50" x="415.324219"/>
      <use xlink:href="#DejaVuSans-61" x="471.126953"/>
      <use xlink:href="#DejaVuSans-72" x="532.40625"/>
      <use xlink:href="#DejaVuSans-74" x="573.519531"/>
      <use xlink:href="#DejaVuSans-69" x="612.728516"/>
      <use xlink:href="#DejaVuSans-63" x="640.511719"/>
      <use xlink:href="#DejaVuSans-6c" x="695.492188"/>
      <use xlink:href="#DejaVuSans-65" x="723.275391"/>
      <use xlink:href="#DejaVuSans-20" x="784.798828"/>
      <use xlink:href="#DejaVuSans-46" x="816.585938"/>
      <use xlink:href="#DejaVuSans-69" x="866.855469"/>
      <use xlink:href="#DejaVuSans-6c" x="894.638672"/>
      <use xlink:href="#DejaVuSans-74" x="922.421875"/>
      <use xlink:href="#DejaVuSans-65" x="961.630859"/>
      <use xlink:href="#DejaVuSans-72" x="1023.154297"/>
     </g>
    </g>
    <g id="line2d_19">
     <path d="M 67.5 72.026219 
L 78.5 72.026219 
L 89.5 72.026219 
" style="fill: none; stroke: #ff8c00; stroke-width: 1.5; stroke-linecap: square"/>
    </g>
    <g id="text_19">
     <!-- KLD Adaptive Filter -->
     <g transform="translate(98.3 75.876219) scale(0.11 -0.11)">
      <defs>
       <path id="DejaVuSans-4b" d="M 628 4666 
L 1259 4666 
L 1259 2694 
L 3353 4666 
L 4166 4666 
L 1850 2491 
L 4331 0 
L 3500 0 
L 1259 2247 
L 1259 0 
L 628 0 
L 628 4666 
z
" transform="scale(0.015625)"/>
       <path id="DejaVuSans-4c" d="M 628 4666 
L 1259 4666 
L 1259 531 
L 3531 531 
L 3531 0 
L 628 0 
L 628 4666 
z
" transform="scale(0.015625)"/>
       <path id="DejaVuSans-44" d="M 1259 4147 
L 1259 519 
L 2022 519 
Q 2988 519 3436 956 
Q 3884 1394 3884 2338 
Q 3884 3275 3436 3711 
Q 2988 4147 2022 4147 
L 1259 4147 
z
M 628 4666 
L 1925 4666 
Q 3281 4666 3915 4102 
Q 4550 3538 4550 2338 
Q 4550 1131 3912 565 
Q 3275 0 1925 0 
L 628 0 
L 628 4666 
z
" transform="scale(0.015625)"/>
       <path id="DejaVuSans-41" d="M 2188 4044 
L 1331 1722 
L 3047 1722 
L 2188 4044 
z
M 1831 4666 
L 2547 4666 
L 4325 0 
L 3669 0 
L 3244 1197 
L 1141 1197 
L 716 0 
L 50 0 
L 1831 4666 
z
" transform="scale(0.015625)"/>
       <path id="DejaVuSans-64" d="M 2906 2969 
L 2906 4863 
L 3481 4863 
L 3481 0 
L 2906 0 
L 2906 525 
Q 2725 213 2448 61 
Q 2172 -91 1784 -91 
Q 1150 -91 751 415 
Q 353 922 353 1747 
Q 353 2572 751 3078 
Q 1150 3584 1784 3584 
Q 2172 3584 2448 3432 
Q 2725 3281 2906 2969 
z
M 947 1747 
Q 947 1113 1208 752 
Q 1469 391 1925 391 
Q 2381 391 2643 752 
Q 2906 1113 2906 1747 
Q 2906 2381 2643 2742 
Q 2381 3103 1925 3103 
Q 1469 3103 1208 2742 
Q 947 2381 947 1747 
z
" transform="scale(0.015625)"/>
       <path id="DejaVuSans-76" d="M 191 3500 
L 800 3500 
L 1894 563 
L 2988 3500 
L 3597 3500 
L 2284 0 
L 1503 0 
L 191 3500 
z
" transform="scale(0.015625)"/>
      </defs>
      <use xlink:href="#DejaVuSans-4b"/>
      <use xlink:href="#DejaVuSans-4c" x="65.576172"/>
      <use xlink:href="#DejaVuSans-44" x="121.289062"/>
      <use xlink:href="#DejaVuSans-20" x="198.291016"/>
      <use xlink:href="#DejaVuSans-41" x="230.078125"/>
      <use xlink:href="#DejaVuSans-64" x="296.736328"/>
      <use xlink:href="#DejaVuSans-61" x="360.212891"/>
      <use xlink:href="#DejaVuSans-70" x="421.492188"/>
      <use xlink:href="#DejaVuSans-74" x="484.96875"/>
      <use xlink:href="#DejaVuSans-69" x="524.177734"/>
      <use xlink:href="#DejaVuSans-76" x="551.960938"/>
      <use xlink:href="#DejaVuSans-65" x="611.140625"/>
      <use xlink:href="#DejaVuSans-20" x="672.664062"/>
      <use xlink:href="#DejaVuSans-46" x="704.451172"/>
      <use xlink:href="#DejaVuSans-69" x="754.720703"/>
      <use xlink:href="#DejaVuSans-6c" x="782.503906"/>
      <use xlink:href="#DejaVuSans-74" x="810.287109"/>
      <use xlink:href="#DejaVuSans-65" x="849.496094"/>
      <use xlink:href="#DejaVuSans-72" x="911.019531"/>
     </g>
    </g>
    <g id="line2d_20">
     <path d="M 67.5 88.172156 
L 78.5 88.172156 
L 89.5 88.172156 
" style="fill: none; stroke: #000000; stroke-width: 2.5; stroke-linecap: square"/>
    </g>
    <g id="text_20">
     <!-- Ground Truth -->
     <g transform="translate(98.3 92.022156) scale(0.11 -0.11)">
      <defs>
       <path id="DejaVuSans-47" d="M 3809 666 
L 3809 1919 
L 2778 1919 
L 2778 2438 
L 4434 2438 
L 4434 434 
Q 4069 175 3628 42 
Q 3188 -91 2688 -91 
Q 1594 -91 976 548 
Q 359 1188 359 2328 
Q 359 3472 976 4111 
Q 1594 4750 2688 4750 
Q 3144 4750 3555 4637 
Q 3966 4525 4313 4306 
L 4313 3634 
Q 3963 3931 3569 4081 
Q 3175 4231 2741 4231 
Q 1884 4231 1454 3753 
Q 1025 3275 1025 2328 
Q 1025 1384 1454 906 
Q 1884 428 2741 428 
Q 3075 428 3337 486 
Q 3600 544 3809 666 
z
" transform="scale(0.015625)"/>
       <path id="DejaVuSans-68" d="M 3513 2113 
L 3513 0 
L 2938 0 
L 2938 2094 
Q 2938 2591 2744 2837 
Q 2550 3084 2163 3084 
Q 1697 3084 1428 2787 
Q 1159 2491 1159 1978 
L 1159 0 
L 581 0 
L 581 4863 
L 1159 4863 
L 1159 2956 
Q 1366 3272 1645 3428 
Q 1925 3584 2291 3584 
Q 2894 3584 3203 3211 
Q 3513 2838 3513 2113 
z
" transform="scale(0.015625)"/>
      </defs>
      <use xlink:href="#DejaVuSans-47"/>
      <use xlink:href="#DejaVuSans-72" x="77.490234"/>
      <use xlink:href="#DejaVuSans-6f" x="116.353516"/>
      <use xlink:href="#DejaVuSans-75" x="177.535156"/>
      <use xlink:href="#DejaVuSans-6e" x="240.914062"/>
      <use xlink:href="#DejaVuSans-64" x="304.292969"/>
      <use xlink:href="#DejaVuSans-20" x="367.769531"/>
      <use xlink:href="#DejaVuSans-54" x="399.556641"/>
      <use xlink:href="#DejaVuSans-72" x="445.890625"/>
      <use xlink:href="#DejaVuSans-75" x="487.003906"/>
      <use xlink:href="#DejaVuSans-74" x="550.382812"/>
      <use xlink:href="#DejaVuSans-68" x="589.591797"/>
     </g>
    </g>
   </g>
  </g>
 </g>
 <defs>
  <clipPath id="pbf1fb1e589">
   <rect x="57.6" y="41.472" width="357.12" height="266.112"/>
  </clipPath>
 </defs>
</svg>
