<?xml version="1.0" encoding="utf-8" standalone="no"?>
<!DOCTYPE svg PUBLIC "-//W3C//DTD SVG 1.1//EN"
  "http://www.w3.org/Graphics/SVG/1.1/DTD/svg11.dtd">
<svg xmlns:xlink="http://www.w3.org/1999/xlink" width="460.8pt" height="345.6pt" viewBox="0 0 460.8 345.6" xmlns="http://www.w3.org/2000/svg" version="1.1">
 <metadata>
  <rdf:RDF xmlns:dc="http://purl.org/dc/elements/1.1/" xmlns:cc="http://creativecommons.org/ns#" xmlns:rdf="http://www.w3.org/1999/02/22-rdf-syntax-ns#">
   <cc:Work>
    <dc:type rdf:resource="http://purl.org/dc/dcmitype/StillImage"/>
    <dc:date>2023-06-19T13:50:21.182930</dc:date>
    <dc:format>image/svg+xml</dc:format>
    <dc:creator>
     <cc:Agent>
      <dc:title>Matplotlib v3.6.1, https://matplotlib.org/</dc:title>
     </cc:Agent>
    </dc:creator>
   </cc:Work>
  </rdf:RDF>
 </metadata>
 <defs>
  <style type="text/css">*{stroke-linejoin: round; stroke-linecap: butt}</style>
 </defs>
 <g id="figure_1">
  <g id="patch_1">
   <path d="M 0 345.6 
L 460.8 345.6 
L 460.8 0 
L 0 0 
z
" style="fill: #ffffff"/>
  </g>
  <g id="axes_1">
   <g id="patch_2">
    <path d="M 57.6 307.584 
L 414.72 307.584 
L 414.72 41.472 
L 57.6 41.472 
z
" style="fill: #ffffff"/>
   </g>
   <g id="matplotlib.axis_1">
    <g id="xtick_1">
     <g id="line2d_1">
      <defs>
       <path id="m7b5c1c3639" d="M 0 0 
L 0 3.5 
" style="stroke: #000000; stroke-width: 0.8"/>
      </defs>
      <g>
       <use xlink:href="#m7b5c1c3639" x="57.6" y="307.584" style="stroke: #000000; stroke-width: 0.8"/>
      </g>
     </g>
     <g id="text_1">
      <!-- 0 -->
      <g transform="translate(54.100625 322.942281) scale(0.11 -0.11)">
       <defs>
        <path id="DejaVuSans-30" d="M 2034 4250 
Q 1547 4250 1301 3770 
Q 1056 3291 1056 2328 
Q 1056 1369 1301 889 
Q 1547 409 2034 409 
Q 2525 409 2770 889 
Q 3016 1369 3016 2328 
Q 3016 3291 2770 3770 
Q 2525 4250 2034 4250 
z
M 2034 4750 
Q 2819 4750 3233 4129 
Q 3647 3509 3647 2328 
Q 3647 1150 3233 529 
Q 2819 -91 2034 -91 
Q 1250 -91 836 529 
Q 422 1150 422 2328 
Q 422 3509 836 4129 
Q 1250 4750 2034 4750 
z
" transform="scale(0.015625)"/>
       </defs>
       <use xlink:href="#DejaVuSans-30"/>
      </g>
     </g>
    </g>
    <g id="xtick_2">
     <g id="line2d_2">
      <g>
       <use xlink:href="#m7b5c1c3639" x="125.622857" y="307.584" style="stroke: #000000; stroke-width: 0.8"/>
      </g>
     </g>
     <g id="text_2">
      <!-- 100 -->
      <g transform="translate(115.124732 322.942281) scale(0.11 -0.11)">
       <defs>
        <path id="DejaVuSans-31" d="M 794 531 
L 1825 531 
L 1825 4091 
L 703 3866 
L 703 4441 
L 1819 4666 
L 2450 4666 
L 2450 531 
L 3481 531 
L 3481 0 
L 794 0 
L 794 531 
z
" transform="scale(0.015625)"/>
       </defs>
       <use xlink:href="#DejaVuSans-31"/>
       <use xlink:href="#DejaVuSans-30" x="63.623047"/>
       <use xlink:href="#DejaVuSans-30" x="127.246094"/>
      </g>
     </g>
    </g>
    <g id="xtick_3">
     <g id="line2d_3">
      <g>
       <use xlink:href="#m7b5c1c3639" x="193.645714" y="307.584" style="stroke: #000000; stroke-width: 0.8"/>
      </g>
     </g>
     <g id="text_3">
      <!-- 200 -->
      <g transform="translate(183.147589 322.942281) scale(0.11 -0.11)">
       <defs>
        <path id="DejaVuSans-32" d="M 1228 531 
L 3431 531 
L 3431 0 
L 469 0 
L 469 531 
Q 828 903 1448 1529 
Q 2069 2156 2228 2338 
Q 2531 2678 2651 2914 
Q 2772 3150 2772 3378 
Q 2772 3750 2511 3984 
Q 2250 4219 1831 4219 
Q 1534 4219 1204 4116 
Q 875 4013 500 3803 
L 500 4441 
Q 881 4594 1212 4672 
Q 1544 4750 1819 4750 
Q 2544 4750 2975 4387 
Q 3406 4025 3406 3419 
Q 3406 3131 3298 2873 
Q 3191 2616 2906 2266 
Q 2828 2175 2409 1742 
Q 1991 1309 1228 531 
z
" transform="scale(0.015625)"/>
       </defs>
       <use xlink:href="#DejaVuSans-32"/>
       <use xlink:href="#DejaVuSans-30" x="63.623047"/>
       <use xlink:href="#DejaVuSans-30" x="127.246094"/>
      </g>
     </g>
    </g>
    <g id="xtick_4">
     <g id="line2d_4">
      <g>
       <use xlink:href="#m7b5c1c3639" x="261.668571" y="307.584" style="stroke: #000000; stroke-width: 0.8"/>
      </g>
     </g>
     <g id="text_4">
      <!-- 300 -->
      <g transform="translate(251.170446 322.942281) scale(0.11 -0.11)">
       <defs>
        <path id="DejaVuSans-33" d="M 2597 2516 
Q 3050 2419 3304 2112 
Q 3559 1806 3559 1356 
Q 3559 666 3084 287 
Q 2609 -91 1734 -91 
Q 1441 -91 1130 -33 
Q 819 25 488 141 
L 488 750 
Q 750 597 1062 519 
Q 1375 441 1716 441 
Q 2309 441 2620 675 
Q 2931 909 2931 1356 
Q 2931 1769 2642 2001 
Q 2353 2234 1838 2234 
L 1294 2234 
L 1294 2753 
L 1863 2753 
Q 2328 2753 2575 2939 
Q 2822 3125 2822 3475 
Q 2822 3834 2567 4026 
Q 2313 4219 1838 4219 
Q 1578 4219 1281 4162 
Q 984 4106 628 3988 
L 628 4550 
Q 988 4650 1302 4700 
Q 1616 4750 1894 4750 
Q 2613 4750 3031 4423 
Q 3450 4097 3450 3541 
Q 3450 3153 3228 2886 
Q 3006 2619 2597 2516 
z
" transform="scale(0.015625)"/>
       </defs>
       <use xlink:href="#DejaVuSans-33"/>
       <use xlink:href="#DejaVuSans-30" x="63.623047"/>
       <use xlink:href="#DejaVuSans-30" x="127.246094"/>
      </g>
     </g>
    </g>
    <g id="xtick_5">
     <g id="line2d_5">
      <g>
       <use xlink:href="#m7b5c1c3639" x="329.691429" y="307.584" style="stroke: #000000; stroke-width: 0.8"/>
      </g>
     </g>
     <g id="text_5">
      <!-- 400 -->
      <g transform="translate(319.193304 322.942281) scale(0.11 -0.11)">
       <defs>
        <path id="DejaVuSans-34" d="M 2419 4116 
L 825 1625 
L 2419 1625 
L 2419 4116 
z
M 2253 4666 
L 3047 4666 
L 3047 1625 
L 3713 1625 
L 3713 1100 
L 3047 1100 
L 3047 0 
L 2419 0 
L 2419 1100 
L 313 1100 
L 313 1709 
L 2253 4666 
z
" transform="scale(0.015625)"/>
       </defs>
       <use xlink:href="#DejaVuSans-34"/>
       <use xlink:href="#DejaVuSans-30" x="63.623047"/>
       <use xlink:href="#DejaVuSans-30" x="127.246094"/>
      </g>
     </g>
    </g>
    <g id="xtick_6">
     <g id="line2d_6">
      <g>
       <use xlink:href="#m7b5c1c3639" x="397.714286" y="307.584" style="stroke: #000000; stroke-width: 0.8"/>
      </g>
     </g>
     <g id="text_6">
      <!-- 500 -->
      <g transform="translate(387.216161 322.942281) scale(0.11 -0.11)">
       <defs>
        <path id="DejaVuSans-35" d="M 691 4666 
L 3169 4666 
L 3169 4134 
L 1269 4134 
L 1269 2991 
Q 1406 3038 1543 3061 
Q 1681 3084 1819 3084 
Q 2600 3084 3056 2656 
Q 3513 2228 3513 1497 
Q 3513 744 3044 326 
Q 2575 -91 1722 -91 
Q 1428 -91 1123 -41 
Q 819 9 494 109 
L 494 744 
Q 775 591 1075 516 
Q 1375 441 1709 441 
Q 2250 441 2565 725 
Q 2881 1009 2881 1497 
Q 2881 1984 2565 2268 
Q 2250 2553 1709 2553 
Q 1456 2553 1204 2497 
Q 953 2441 691 2322 
L 691 4666 
z
" transform="scale(0.015625)"/>
       </defs>
       <use xlink:href="#DejaVuSans-35"/>
       <use xlink:href="#DejaVuSans-30" x="63.623047"/>
       <use xlink:href="#DejaVuSans-30" x="127.246094"/>
      </g>
     </g>
    </g>
    <g id="text_7">
     <!-- Time [s] -->
     <g transform="translate(213.798203 337.588219) scale(0.11 -0.11)">
      <defs>
       <path id="DejaVuSans-54" d="M -19 4666 
L 3928 4666 
L 3928 4134 
L 2272 4134 
L 2272 0 
L 1638 0 
L 1638 4134 
L -19 4134 
L -19 4666 
z
" transform="scale(0.015625)"/>
       <path id="DejaVuSans-69" d="M 603 3500 
L 1178 3500 
L 1178 0 
L 603 0 
L 603 3500 
z
M 603 4863 
L 1178 4863 
L 1178 4134 
L 603 4134 
L 603 4863 
z
" transform="scale(0.015625)"/>
       <path id="DejaVuSans-6d" d="M 3328 2828 
Q 3544 3216 3844 3400 
Q 4144 3584 4550 3584 
Q 5097 3584 5394 3201 
Q 5691 2819 5691 2113 
L 5691 0 
L 5113 0 
L 5113 2094 
Q 5113 2597 4934 2840 
Q 4756 3084 4391 3084 
Q 3944 3084 3684 2787 
Q 3425 2491 3425 1978 
L 3425 0 
L 2847 0 
L 2847 2094 
Q 2847 2600 2669 2842 
Q 2491 3084 2119 3084 
Q 1678 3084 1418 2786 
Q 1159 2488 1159 1978 
L 1159 0 
L 581 0 
L 581 3500 
L 1159 3500 
L 1159 2956 
Q 1356 3278 1631 3431 
Q 1906 3584 2284 3584 
Q 2666 3584 2933 3390 
Q 3200 3197 3328 2828 
z
" transform="scale(0.015625)"/>
       <path id="DejaVuSans-65" d="M 3597 1894 
L 3597 1613 
L 953 1613 
Q 991 1019 1311 708 
Q 1631 397 2203 397 
Q 2534 397 2845 478 
Q 3156 559 3463 722 
L 3463 178 
Q 3153 47 2828 -22 
Q 2503 -91 2169 -91 
Q 1331 -91 842 396 
Q 353 884 353 1716 
Q 353 2575 817 3079 
Q 1281 3584 2069 3584 
Q 2775 3584 3186 3129 
Q 3597 2675 3597 1894 
z
M 3022 2063 
Q 3016 2534 2758 2815 
Q 2500 3097 2075 3097 
Q 1594 3097 1305 2825 
Q 1016 2553 972 2059 
L 3022 2063 
z
" transform="scale(0.015625)"/>
       <path id="DejaVuSans-20" transform="scale(0.015625)"/>
       <path id="DejaVuSans-5b" d="M 550 4863 
L 1875 4863 
L 1875 4416 
L 1125 4416 
L 1125 -397 
L 1875 -397 
L 1875 -844 
L 550 -844 
L 550 4863 
z
" transform="scale(0.015625)"/>
       <path id="DejaVuSans-73" d="M 2834 3397 
L 2834 2853 
Q 2591 2978 2328 3040 
Q 2066 3103 1784 3103 
Q 1356 3103 1142 2972 
Q 928 2841 928 2578 
Q 928 2378 1081 2264 
Q 1234 2150 1697 2047 
L 1894 2003 
Q 2506 1872 2764 1633 
Q 3022 1394 3022 966 
Q 3022 478 2636 193 
Q 2250 -91 1575 -91 
Q 1294 -91 989 -36 
Q 684 19 347 128 
L 347 722 
Q 666 556 975 473 
Q 1284 391 1588 391 
Q 1994 391 2212 530 
Q 2431 669 2431 922 
Q 2431 1156 2273 1281 
Q 2116 1406 1581 1522 
L 1381 1569 
Q 847 1681 609 1914 
Q 372 2147 372 2553 
Q 372 3047 722 3315 
Q 1072 3584 1716 3584 
Q 2034 3584 2315 3537 
Q 2597 3491 2834 3397 
z
" transform="scale(0.015625)"/>
       <path id="DejaVuSans-5d" d="M 1947 4863 
L 1947 -844 
L 622 -844 
L 622 -397 
L 1369 -397 
L 1369 4416 
L 622 4416 
L 622 4863 
L 1947 4863 
z
" transform="scale(0.015625)"/>
      </defs>
      <use xlink:href="#DejaVuSans-54"/>
      <use xlink:href="#DejaVuSans-69" x="57.958984"/>
      <use xlink:href="#DejaVuSans-6d" x="85.742188"/>
      <use xlink:href="#DejaVuSans-65" x="183.154297"/>
      <use xlink:href="#DejaVuSans-20" x="244.677734"/>
      <use xlink:href="#DejaVuSans-5b" x="276.464844"/>
      <use xlink:href="#DejaVuSans-73" x="315.478516"/>
      <use xlink:href="#DejaVuSans-5d" x="367.578125"/>
     </g>
    </g>
   </g>
   <g id="matplotlib.axis_2">
    <g id="ytick_1">
     <g id="line2d_7">
      <defs>
       <path id="madd5bb13c3" d="M 0 0 
L -3.5 0 
" style="stroke: #000000; stroke-width: 0.8"/>
      </defs>
      <g>
       <use xlink:href="#madd5bb13c3" x="57.6" y="295.038538" style="stroke: #000000; stroke-width: 0.8"/>
      </g>
     </g>
     <g id="text_8">
      <!-- 0 -->
      <g transform="translate(43.60125 299.217679) scale(0.11 -0.11)">
       <use xlink:href="#DejaVuSans-30"/>
      </g>
     </g>
    </g>
    <g id="ytick_2">
     <g id="line2d_8">
      <g>
       <use xlink:href="#madd5bb13c3" x="57.6" y="243.017464" style="stroke: #000000; stroke-width: 0.8"/>
      </g>
     </g>
     <g id="text_9">
      <!-- 1 -->
      <g transform="translate(43.60125 247.196604) scale(0.11 -0.11)">
       <use xlink:href="#DejaVuSans-31"/>
      </g>
     </g>
    </g>
    <g id="ytick_3">
     <g id="line2d_9">
      <g>
       <use xlink:href="#madd5bb13c3" x="57.6" y="190.996389" style="stroke: #000000; stroke-width: 0.8"/>
      </g>
     </g>
     <g id="text_10">
      <!-- 2 -->
      <g transform="translate(43.60125 195.17553) scale(0.11 -0.11)">
       <use xlink:href="#DejaVuSans-32"/>
      </g>
     </g>
    </g>
    <g id="ytick_4">
     <g id="line2d_10">
      <g>
       <use xlink:href="#madd5bb13c3" x="57.6" y="138.975315" style="stroke: #000000; stroke-width: 0.8"/>
      </g>
     </g>
     <g id="text_11">
      <!-- 3 -->
      <g transform="translate(43.60125 143.154456) scale(0.11 -0.11)">
       <use xlink:href="#DejaVuSans-33"/>
      </g>
     </g>
    </g>
    <g id="ytick_5">
     <g id="line2d_11">
      <g>
       <use xlink:href="#madd5bb13c3" x="57.6" y="86.954241" style="stroke: #000000; stroke-width: 0.8"/>
      </g>
     </g>
     <g id="text_12">
      <!-- 4 -->
      <g transform="translate(43.60125 91.133382) scale(0.11 -0.11)">
       <use xlink:href="#DejaVuSans-34"/>
      </g>
     </g>
    </g>
    <g id="text_13">
     <!-- X-position -->
     <g transform="translate(37.313594 201.789953) rotate(-90) scale(0.11 -0.11)">
      <defs>
       <path id="DejaVuSans-58" d="M 403 4666 
L 1081 4666 
L 2241 2931 
L 3406 4666 
L 4084 4666 
L 2584 2425 
L 4184 0 
L 3506 0 
L 2194 1984 
L 872 0 
L 191 0 
L 1856 2491 
L 403 4666 
z
" transform="scale(0.015625)"/>
       <path id="DejaVuSans-2d" d="M 313 2009 
L 1997 2009 
L 1997 1497 
L 313 1497 
L 313 2009 
z
" transform="scale(0.015625)"/>
       <path id="DejaVuSans-70" d="M 1159 525 
L 1159 -1331 
L 581 -1331 
L 581 3500 
L 1159 3500 
L 1159 2969 
Q 1341 3281 1617 3432 
Q 1894 3584 2278 3584 
Q 2916 3584 3314 3078 
Q 3713 2572 3713 1747 
Q 3713 922 3314 415 
Q 2916 -91 2278 -91 
Q 1894 -91 1617 61 
Q 1341 213 1159 525 
z
M 3116 1747 
Q 3116 2381 2855 2742 
Q 2594 3103 2138 3103 
Q 1681 3103 1420 2742 
Q 1159 2381 1159 1747 
Q 1159 1113 1420 752 
Q 1681 391 2138 391 
Q 2594 391 2855 752 
Q 3116 1113 3116 1747 
z
" transform="scale(0.015625)"/>
       <path id="DejaVuSans-6f" d="M 1959 3097 
Q 1497 3097 1228 2736 
Q 959 2375 959 1747 
Q 959 1119 1226 758 
Q 1494 397 1959 397 
Q 2419 397 2687 759 
Q 2956 1122 2956 1747 
Q 2956 2369 2687 2733 
Q 2419 3097 1959 3097 
z
M 1959 3584 
Q 2709 3584 3137 3096 
Q 3566 2609 3566 1747 
Q 3566 888 3137 398 
Q 2709 -91 1959 -91 
Q 1206 -91 779 398 
Q 353 888 353 1747 
Q 353 2609 779 3096 
Q 1206 3584 1959 3584 
z
" transform="scale(0.015625)"/>
       <path id="DejaVuSans-74" d="M 1172 4494 
L 1172 3500 
L 2356 3500 
L 2356 3053 
L 1172 3053 
L 1172 1153 
Q 1172 725 1289 603 
Q 1406 481 1766 481 
L 2356 481 
L 2356 0 
L 1766 0 
Q 1100 0 847 248 
Q 594 497 594 1153 
L 594 3053 
L 172 3053 
L 172 3500 
L 594 3500 
L 594 4494 
L 1172 4494 
z
" transform="scale(0.015625)"/>
       <path id="DejaVuSans-6e" d="M 3513 2113 
L 3513 0 
L 2938 0 
L 2938 2094 
Q 2938 2591 2744 2837 
Q 2550 3084 2163 3084 
Q 1697 3084 1428 2787 
Q 1159 2491 1159 1978 
L 1159 0 
L 581 0 
L 581 3500 
L 1159 3500 
L 1159 2956 
Q 1366 3272 1645 3428 
Q 1925 3584 2291 3584 
Q 2894 3584 3203 3211 
Q 3513 2838 3513 2113 
z
" transform="scale(0.015625)"/>
      </defs>
      <use xlink:href="#DejaVuSans-58"/>
      <use xlink:href="#DejaVuSans-2d" x="63.505859"/>
      <use xlink:href="#DejaVuSans-70" x="99.589844"/>
      <use xlink:href="#DejaVuSans-6f" x="163.066406"/>
      <use xlink:href="#DejaVuSans-73" x="224.248047"/>
      <use xlink:href="#DejaVuSans-69" x="276.347656"/>
      <use xlink:href="#DejaVuSans-74" x="304.130859"/>
      <use xlink:href="#DejaVuSans-69" x="343.339844"/>
      <use xlink:href="#DejaVuSans-6f" x="371.123047"/>
      <use xlink:href="#DejaVuSans-6e" x="432.304688"/>
     </g>
    </g>
   </g>
   <g id="line2d_12">
    <path d="M 57.6 292.110064 
L 58.28296 285.230433 
L 58.965921 286.754026 
L 59.648881 285.7315 
L 60.331842 279.52705 
L 61.014802 281.546456 
L 61.697762 273.339559 
L 62.380723 276.679468 
L 63.063683 283.460884 
L 63.746644 284.300972 
L 64.429604 286.471083 
L 65.795525 289.306752 
L 66.478485 287.339575 
L 67.844406 277.23188 
L 68.527367 276.657724 
L 69.893287 276.511961 
L 70.576248 275.650075 
L 71.259208 273.481161 
L 71.942169 275.314436 
L 72.625129 274.426488 
L 73.30809 274.056826 
L 74.67401 270.562831 
L 75.356971 284.308047 
L 76.039931 286.288541 
L 76.722892 283.479975 
L 77.405852 282.218672 
L 78.088812 282.293531 
L 78.771773 286.751425 
L 79.454733 292.035986 
L 80.137694 294.284492 
L 80.820654 290.929237 
L 81.503614 286.896043 
L 82.186575 287.136121 
L 82.869535 287.51062 
L 84.235456 284.985205 
L 84.918417 285.688842 
L 85.601377 289.691344 
L 86.284337 287.985885 
L 87.650258 277.429508 
L 88.333219 275.392051 
L 89.016179 274.75859 
L 89.699139 273.075448 
L 90.3821 270.579893 
L 91.06506 269.420344 
L 92.430981 276.755575 
L 93.113941 273.636236 
L 93.796902 274.824345 
L 94.479862 279.522368 
L 95.162823 272.606947 
L 95.845783 268.497126 
L 96.528744 266.48828 
L 97.211704 266.68211 
L 97.894664 268.910381 
L 98.577625 270.272761 
L 99.260585 270.858987 
L 99.943546 276.187869 
L 100.626506 274.037162 
L 101.309466 274.803068 
L 101.992427 276.594934 
L 102.675387 275.882506 
L 103.358348 277.781431 
L 104.041308 278.84032 
L 104.724269 278.742052 
L 105.407229 275.382323 
L 106.090189 273.752815 
L 106.77315 273.284053 
L 107.45611 276.317402 
L 108.822031 285.047214 
L 109.504991 283.965644 
L 110.187952 283.835071 
L 110.870912 276.06484 
L 111.553873 278.041432 
L 112.236833 275.86487 
L 112.919793 277.455987 
L 113.602754 283.100274 
L 114.285714 283.577671 
L 114.968675 280.917625 
L 115.651635 279.37364 
L 116.334596 273.280932 
L 117.017556 270.236762 
L 117.700516 271.952053 
L 118.383477 266.831827 
L 119.066437 268.672021 
L 119.749398 257.847944 
L 120.432358 250.207348 
L 121.115318 250.771569 
L 121.798279 248.601718 
L 122.481239 247.392072 
L 123.1642 251.065332 
L 123.84716 251.464126 
L 124.53012 252.719134 
L 125.213081 244.399247 
L 125.896041 244.605719 
L 126.579002 246.45434 
L 127.261962 245.544856 
L 128.627883 251.142531 
L 129.310843 248.209531 
L 129.993804 238.161713 
L 130.676764 239.995716 
L 131.359725 240.670897 
L 132.042685 239.873206 
L 132.725645 239.836999 
L 133.408606 227.0729 
L 134.091566 226.928438 
L 134.774527 224.16513 
L 135.457487 230.773315 
L 136.140448 229.058025 
L 136.823408 236.376505 
L 137.506368 232.795687 
L 138.189329 234.507388 
L 139.55525 236.75704 
L 140.23821 239.793718 
L 140.92117 231.035606 
L 141.604131 219.943984 
L 142.287091 224.020044 
L 142.970052 228.805358 
L 144.335972 220.420758 
L 145.018933 219.312865 
L 146.384854 212.234565 
L 147.067814 217.681068 
L 147.750775 227.608093 
L 148.433735 229.276305 
L 149.116695 228.026811 
L 150.482616 237.403089 
L 151.165577 236.773218 
L 151.848537 235.058499 
L 152.531497 232.313295 
L 153.214458 230.584011 
L 154.580379 239.530127 
L 155.263339 240.724115 
L 155.946299 238.081288 
L 156.62926 236.444549 
L 157.31222 237.570233 
L 157.995181 236.672921 
L 158.678141 246.214731 
L 159.361102 239.753974 
L 160.727022 232.521744 
L 161.409983 248.734268 
L 162.092943 254.35296 
L 162.775904 252.675384 
L 163.458864 260.328204 
L 164.141824 262.207518 
L 164.824785 262.581185 
L 165.507745 261.648291 
L 166.190706 260.934354 
L 166.873666 263.230408 
L 167.556627 259.737349 
L 168.239587 258.92041 
L 168.922547 255.203556 
L 169.605508 256.610726 
L 170.288468 251.960303 
L 170.971429 257.22572 
L 171.654389 257.878688 
L 173.02031 248.860887 
L 174.386231 244.957902 
L 175.069191 244.724795 
L 175.752151 236.184756 
L 176.435112 237.233397 
L 177.118072 233.089086 
L 177.801033 223.801763 
L 178.483993 223.611522 
L 179.166954 226.122059 
L 179.849914 225.690232 
L 180.532874 224.009223 
L 181.215835 223.38908 
L 181.898795 221.001105 
L 182.581756 221.092818 
L 183.264716 220.815025 
L 183.947676 222.562881 
L 184.630637 221.416077 
L 185.313597 217.493896 
L 185.996558 220.168351 
L 186.679518 218.076012 
L 187.362478 216.633467 
L 188.045439 220.354015 
L 188.728399 222.444481 
L 189.41136 220.061136 
L 190.09432 219.898258 
L 190.777281 219.362389 
L 191.460241 219.191292 
L 192.143201 218.901846 
L 192.826162 215.656928 
L 193.509122 217.321394 
L 194.192083 218.150818 
L 194.875043 213.957867 
L 195.558003 214.859653 
L 196.240964 216.223073 
L 196.923924 215.580093 
L 197.606885 215.542117 
L 198.289845 218.058741 
L 199.655766 219.087666 
L 200.338726 215.973476 
L 201.021687 219.004484 
L 202.387608 226.70532 
L 203.070568 226.599769 
L 203.753528 230.3894 
L 204.436489 231.039247 
L 205.119449 231.026398 
L 205.80241 232.30388 
L 206.48537 228.934371 
L 207.16833 221.322907 
L 207.851291 221.669523 
L 208.534251 223.490261 
L 209.217212 226.635663 
L 209.900172 226.566059 
L 210.583133 224.693196 
L 211.266093 225.743554 
L 211.949053 222.533958 
L 212.632014 221.624109 
L 213.314974 222.095576 
L 213.997935 221.355888 
L 214.680895 221.652409 
L 215.363855 217.975455 
L 216.046816 220.263654 
L 216.729776 226.550349 
L 217.412737 227.244518 
L 218.095697 229.379307 
L 218.778657 223.498949 
L 219.461618 216.564435 
L 220.827539 219.38018 
L 221.510499 218.315673 
L 222.19346 207.765591 
L 222.87642 200.02756 
L 223.55938 204.436086 
L 224.242341 201.625335 
L 224.925301 201.848662 
L 225.608262 200.246881 
L 226.291222 201.987714 
L 226.974182 200.931218 
L 227.657143 201.118754 
L 228.340103 196.973923 
L 229.023064 198.672827 
L 229.706024 195.507345 
L 230.388985 198.27986 
L 231.071945 196.288858 
L 231.754905 197.17795 
L 232.437866 194.030883 
L 233.120826 192.757355 
L 233.803787 193.574554 
L 234.486747 196.498294 
L 235.169707 193.609148 
L 235.852668 192.672873 
L 236.535628 192.050232 
L 237.218589 197.639533 
L 237.901549 201.549333 
L 238.584509 202.673092 
L 239.26747 200.31789 
L 239.95043 196.402159 
L 240.633391 197.513434 
L 241.316351 192.740916 
L 241.999312 190.540217 
L 242.682272 184.194946 
L 243.365232 184.491674 
L 244.048193 185.777271 
L 244.731153 185.50853 
L 245.414114 188.018651 
L 246.097074 178.983527 
L 246.780034 181.818363 
L 247.462995 179.852955 
L 248.145955 178.85722 
L 248.828916 179.745011 
L 249.511876 183.273653 
L 250.194836 181.103074 
L 250.877797 178.13756 
L 251.560757 176.625724 
L 252.243718 174.096615 
L 252.926678 172.81466 
L 253.609639 173.853417 
L 254.292599 184.180744 
L 254.975559 182.613662 
L 255.65852 178.41915 
L 256.34148 181.730084 
L 257.024441 177.2969 
L 257.707401 177.607205 
L 258.390361 178.477154 
L 259.073322 176.281344 
L 259.756282 175.357554 
L 260.439243 175.746672 
L 261.122203 174.527246 
L 261.805164 175.63311 
L 262.488124 173.786934 
L 263.171084 175.030446 
L 263.854045 175.674987 
L 264.537005 177.460142 
L 265.219966 176.614591 
L 265.902926 175.154204 
L 266.585886 172.46461 
L 267.268847 168.478755 
L 267.951807 171.048596 
L 268.634768 172.071955 
L 269.317728 169.939663 
L 270.000688 159.358317 
L 270.683649 158.624299 
L 272.04957 162.142224 
L 272.73253 151.937354 
L 274.098451 151.456315 
L 274.781411 152.51536 
L 275.464372 149.327405 
L 276.147332 150.977097 
L 276.830293 147.058766 
L 277.513253 145.536005 
L 278.196213 144.465776 
L 278.879174 141.456096 
L 280.245095 152.848399 
L 280.928055 152.066991 
L 281.611015 145.965179 
L 282.293976 147.280168 
L 283.659897 148.269817 
L 284.342857 150.807769 
L 285.025818 152.623148 
L 285.708778 148.077391 
L 286.391738 148.252025 
L 287.074699 144.203745 
L 287.757659 140.936458 
L 288.44062 144.825709 
L 289.12358 145.194903 
L 289.80654 144.242813 
L 290.489501 139.902695 
L 291.172461 139.282344 
L 291.855422 136.901859 
L 292.538382 138.660068 
L 293.221343 138.11395 
L 293.904303 137.930836 
L 294.587263 145.686866 
L 295.270224 143.435342 
L 295.953184 149.485705 
L 296.636145 151.057054 
L 297.319105 149.792942 
L 298.002065 150.002639 
L 298.685026 151.105433 
L 299.367986 148.669859 
L 300.050947 158.785252 
L 301.416867 175.016244 
L 302.099828 173.707133 
L 302.782788 172.021599 
L 303.465749 172.0062 
L 304.148709 172.916829 
L 304.83167 171.741673 
L 305.51463 178.62968 
L 306.19759 181.038047 
L 306.880551 174.119661 
L 308.246472 175.117529 
L 308.929432 173.713324 
L 309.612392 176.599349 
L 310.295353 172.555855 
L 310.978313 175.491664 
L 311.661274 179.479964 
L 312.344234 182.432368 
L 313.027194 181.285772 
L 313.710155 186.923191 
L 314.393115 189.433052 
L 315.076076 188.462495 
L 317.124957 176.770082 
L 317.807917 171.163823 
L 318.490878 163.338449 
L 319.173838 157.909114 
L 319.856799 155.208023 
L 320.539759 151.516972 
L 321.222719 152.349413 
L 321.90568 164.296417 
L 322.58864 165.861575 
L 323.271601 147.000502 
L 323.954561 139.314649 
L 324.637522 143.294625 
L 325.320482 141.126491 
L 326.003442 138.149637 
L 326.686403 140.062868 
L 327.369363 135.705323 
L 328.052324 139.894996 
L 328.735284 148.406944 
L 329.418244 142.788512 
L 330.784165 155.23497 
L 331.467126 148.495848 
L 332.150086 149.431239 
L 332.833046 151.228827 
L 333.516007 151.514423 
L 334.198967 148.908167 
L 335.564888 145.923926 
L 336.247849 154.973252 
L 336.930809 160.786139 
L 337.613769 162.020755 
L 338.29673 162.044477 
L 338.97969 159.551367 
L 339.662651 155.97497 
L 340.345611 155.340209 
L 341.028571 156.842109 
L 341.711532 160.908857 
L 342.394492 158.981008 
L 343.077453 160.561512 
L 343.760413 162.45768 
L 345.126334 168.021542 
L 345.809294 167.880409 
L 346.492255 163.180357 
L 347.858176 157.257185 
L 348.541136 158.574203 
L 349.224096 156.88383 
L 349.907057 159.267696 
L 350.590017 162.692711 
L 351.272978 162.638505 
L 351.955938 154.166457 
L 352.638898 163.127035 
L 353.321859 167.88353 
L 354.004819 166.606361 
L 354.68778 174.670148 
L 355.37074 173.785061 
L 356.053701 161.252352 
L 356.736661 151.544387 
L 357.419621 144.21467 
L 358.102582 145.381242 
L 358.785542 150.757881 
L 359.468503 151.448044 
L 360.151463 149.150793 
L 360.834423 159.985535 
L 361.517384 168.529528 
L 362.200344 165.481093 
L 363.566265 174.972234 
L 364.249225 175.865644 
L 364.932186 173.438237 
L 365.615146 171.604962 
L 366.298107 172.745212 
L 367.664028 177.450622 
L 368.346988 185.210866 
L 369.029948 190.095853 
L 369.712909 182.407762 
L 370.395869 180.732163 
L 371.07883 173.23343 
L 371.76179 168.837025 
L 372.44475 169.68861 
L 373.127711 172.141091 
L 373.810671 163.606462 
L 374.493632 152.524672 
L 375.176592 148.013821 
L 375.859552 147.437323 
L 376.542513 145.946503 
L 377.225473 146.889073 
L 377.908434 152.949424 
L 378.591394 152.801164 
L 379.274355 153.006127 
L 379.957315 152.853081 
L 380.640275 158.4493 
L 381.323236 159.765069 
L 382.006196 160.766163 
L 382.689157 160.525826 
L 383.372117 163.463612 
L 384.055077 164.203351 
L 384.738038 162.208915 
L 385.420998 163.082505 
L 386.103959 159.31722 
L 386.786919 156.520463 
L 387.46988 156.698843 
L 388.15284 155.268992 
L 388.8358 153.494605 
L 389.518761 158.62997 
L 390.201721 162.598085 
L 390.884682 159.982309 
L 391.567642 156.491279 
L 392.250602 155.496636 
L 392.933563 161.942568 
L 393.616523 166.216931 
L 394.299484 155.321689 
L 394.982444 157.84159 
L 396.348365 164.062062 
L 397.031325 161.781822 
L 397.714286 164.365241 
L 397.714286 164.365241 
" clip-path="url(#p242b67f06d)" style="fill: none; stroke: #4169e1; stroke-width: 1.5; stroke-linecap: square"/>
   </g>
   <g id="line2d_13">
    <path d="M 57.6 292.855682 
L 58.28296 292.729739 
L 58.965921 293.246516 
L 59.648881 293.3259 
L 60.331842 291.82967 
L 61.014802 289.635733 
L 61.697762 295.427187 
L 62.380723 286.388422 
L 63.746644 281.355019 
L 64.429604 288.218003 
L 65.112565 286.794394 
L 65.795525 289.190121 
L 67.161446 292.962117 
L 67.844406 291.470516 
L 68.527367 292.656961 
L 69.210327 294.694783 
L 69.893287 295.488 
L 70.576248 288.613727 
L 71.259208 288.940159 
L 71.942169 278.481635 
L 72.625129 271.117739 
L 73.30809 266.965313 
L 73.99105 264.19285 
L 74.67401 267.507945 
L 75.356971 271.680451 
L 76.039931 265.597835 
L 76.722892 261.283415 
L 77.405852 267.600282 
L 78.088812 265.408583 
L 78.771773 256.185662 
L 79.454733 256.233834 
L 80.137694 264.994131 
L 80.820654 271.742565 
L 81.503614 267.018635 
L 82.186575 270.505659 
L 82.869535 266.197274 
L 83.552496 265.735483 
L 84.235456 270.665104 
L 84.918417 271.823613 
L 85.601377 270.683415 
L 86.284337 265.904708 
L 86.967298 259.874945 
L 87.650258 248.792999 
L 88.333219 253.850488 
L 89.699139 270.639458 
L 90.3821 274.447036 
L 91.06506 275.643469 
L 91.748021 284.674587 
L 92.430981 288.578717 
L 93.113941 288.578925 
L 93.796902 288.959927 
L 94.479862 282.491471 
L 95.162823 281.495632 
L 95.845783 284.867534 
L 96.528744 286.351747 
L 97.211704 284.612058 
L 97.894664 283.299983 
L 99.260585 272.07706 
L 99.943546 268.627595 
L 100.626506 278.367344 
L 101.309466 271.059632 
L 101.992427 275.508578 
L 102.675387 264.766851 
L 103.358348 264.278165 
L 104.041308 260.525468 
L 104.724269 263.987159 
L 105.407229 262.984765 
L 106.090189 261.583577 
L 106.77315 264.682889 
L 107.45611 265.157425 
L 108.139071 262.419972 
L 108.822031 268.342623 
L 109.504991 270.488284 
L 110.187952 264.615625 
L 110.870912 268.490155 
L 111.553873 274.393038 
L 112.236833 261.168709 
L 112.919793 258.136088 
L 113.602754 258.326798 
L 114.285714 263.789219 
L 114.968675 261.806695 
L 115.651635 267.099319 
L 116.334596 252.96535 
L 117.017556 251.026524 
L 117.700516 260.507209 
L 118.383477 265.158413 
L 119.066437 265.1941 
L 119.749398 263.944814 
L 120.432358 260.416432 
L 121.115318 260.956307 
L 121.798279 260.536861 
L 122.481239 259.984189 
L 123.1642 255.796753 
L 123.84716 250.906147 
L 124.53012 256.277948 
L 125.896041 252.977783 
L 126.579002 257.274515 
L 127.261962 260.161841 
L 127.944923 262.058165 
L 128.627883 264.446349 
L 129.310843 263.758526 
L 130.676764 268.016607 
L 131.359725 269.472781 
L 132.042685 272.00912 
L 132.725645 266.848578 
L 133.408606 265.856796 
L 134.091566 262.968794 
L 134.774527 262.851331 
L 135.457487 263.453579 
L 136.140448 263.5468 
L 136.823408 267.111909 
L 137.506368 261.550336 
L 138.189329 262.631438 
L 138.872289 260.253866 
L 139.55525 264.696466 
L 140.23821 264.790208 
L 141.604131 269.58369 
L 142.287091 266.95288 
L 142.970052 270.09849 
L 143.653012 267.038611 
L 144.335972 269.358803 
L 145.018933 268.041941 
L 145.701893 267.555024 
L 146.384854 264.617186 
L 147.750775 253.043069 
L 148.433735 249.174366 
L 149.116695 252.774901 
L 149.799656 248.851055 
L 150.482616 243.71361 
L 151.165577 240.256965 
L 151.848537 236.190634 
L 152.531497 229.075452 
L 153.214458 227.773312 
L 153.897418 232.749908 
L 154.580379 232.113847 
L 155.263339 231.238436 
L 155.946299 230.004392 
L 156.62926 229.85145 
L 157.31222 227.387004 
L 157.995181 223.076225 
L 158.678141 224.357608 
L 159.361102 229.312408 
L 160.044062 235.329841 
L 160.727022 232.876684 
L 161.409983 230.859254 
L 162.092943 232.413956 
L 162.775904 231.087835 
L 163.458864 222.608504 
L 164.141824 229.612881 
L 164.824785 230.710942 
L 165.507745 229.133819 
L 166.190706 230.101255 
L 166.873666 227.884793 
L 167.556627 224.337996 
L 168.239587 224.091625 
L 168.922547 221.007971 
L 169.605508 219.368215 
L 170.288468 221.171318 
L 170.971429 214.859705 
L 171.654389 209.656817 
L 172.337349 208.245329 
L 173.02031 209.325131 
L 173.70327 209.531238 
L 174.386231 211.888053 
L 175.069191 203.031933 
L 175.752151 200.992603 
L 176.435112 200.550112 
L 177.118072 201.962224 
L 177.801033 190.950403 
L 178.483993 183.88875 
L 179.166954 184.45656 
L 179.849914 178.250914 
L 180.532874 179.31308 
L 181.215835 178.37436 
L 182.581756 177.761344 
L 183.264716 185.944831 
L 183.947676 184.139024 
L 184.630637 183.834388 
L 185.313597 183.383625 
L 185.996558 188.42041 
L 186.679518 191.420049 
L 187.362478 186.065572 
L 188.045439 186.817224 
L 188.728399 191.602019 
L 189.41136 193.793303 
L 190.09432 201.05971 
L 190.777281 204.892675 
L 191.460241 206.420482 
L 192.143201 199.918888 
L 192.826162 202.221029 
L 193.509122 199.633396 
L 194.192083 199.384788 
L 194.875043 205.435775 
L 195.558003 201.122708 
L 196.240964 205.489825 
L 196.923924 208.352545 
L 197.606885 207.740361 
L 198.289845 209.677365 
L 198.972806 206.081617 
L 200.338726 202.265611 
L 201.021687 201.762359 
L 201.704647 201.799918 
L 202.387608 200.322676 
L 203.070568 197.696704 
L 203.753528 198.914777 
L 204.436489 202.464903 
L 205.119449 205.07324 
L 205.80241 205.097482 
L 206.48537 204.999474 
L 207.16833 206.867239 
L 207.851291 207.830721 
L 208.534251 206.672472 
L 209.217212 207.302291 
L 209.900172 202.216659 
L 210.583133 200.296873 
L 211.266093 198.998167 
L 211.949053 198.271277 
L 212.632014 195.420626 
L 213.314974 197.423697 
L 213.997935 196.391027 
L 214.680895 195.875602 
L 215.363855 198.783112 
L 216.729776 188.898484 
L 217.412737 187.085549 
L 218.095697 178.822054 
L 218.778657 172.773823 
L 219.461618 173.766177 
L 220.827539 177.941493 
L 221.510499 181.390802 
L 222.19346 179.195201 
L 223.55938 182.253676 
L 224.242341 184.597745 
L 224.925301 186.314129 
L 225.608262 185.338005 
L 226.291222 184.887711 
L 226.974182 182.702045 
L 227.657143 183.849318 
L 228.340103 182.954192 
L 229.023064 182.917725 
L 229.706024 186.194688 
L 230.388985 174.959645 
L 231.071945 172.404266 
L 231.754905 173.052396 
L 232.437866 176.306835 
L 233.120826 173.212725 
L 233.803787 177.357244 
L 234.486747 172.160547 
L 235.169707 171.824283 
L 235.852668 174.950645 
L 236.535628 169.262661 
L 237.901549 167.019928 
L 238.584509 169.916098 
L 239.26747 170.437765 
L 239.95043 161.7555 
L 240.633391 160.990582 
L 241.316351 162.020755 
L 241.999312 160.901366 
L 242.682272 157.93398 
L 243.365232 162.961608 
L 244.048193 162.966238 
L 244.731153 161.53337 
L 245.414114 161.293397 
L 246.097074 159.017995 
L 246.780034 159.655045 
L 247.462995 161.148778 
L 248.145955 161.422149 
L 248.828916 161.107317 
L 250.194836 162.431618 
L 250.877797 160.188573 
L 251.560757 157.487899 
L 252.243718 155.647133 
L 252.926678 160.778336 
L 253.609639 163.357281 
L 254.292599 161.093636 
L 254.975559 160.828484 
L 256.34148 165.278159 
L 257.024441 164.704939 
L 257.707401 163.470166 
L 258.390361 170.100356 
L 259.073322 162.890079 
L 259.756282 149.336405 
L 260.439243 149.505733 
L 261.122203 151.05825 
L 261.805164 153.121094 
L 262.488124 153.167965 
L 263.171084 154.199283 
L 263.854045 153.337345 
L 264.537005 147.897814 
L 265.219966 145.509682 
L 265.902926 147.182264 
L 266.585886 138.9878 
L 267.268847 142.992955 
L 267.951807 140.264502 
L 268.634768 143.886573 
L 270.000688 147.498396 
L 270.683649 151.253433 
L 271.366609 146.207493 
L 272.04957 147.209523 
L 272.73253 147.31986 
L 273.415491 146.306853 
L 274.098451 146.852554 
L 274.781411 145.84808 
L 275.464372 146.363608 
L 276.147332 144.109743 
L 276.830293 138.853794 
L 278.196213 141.853277 
L 278.879174 140.560762 
L 279.562134 142.335877 
L 280.245095 142.973187 
L 280.928055 142.396065 
L 281.611015 142.915391 
L 282.293976 144.318816 
L 282.976936 144.62881 
L 283.659897 143.023387 
L 284.342857 133.747353 
L 285.025818 134.153742 
L 285.708778 135.192811 
L 286.391738 134.263663 
L 287.074699 133.887238 
L 287.757659 134.554148 
L 288.44062 136.576988 
L 289.12358 136.503846 
L 289.80654 133.900555 
L 290.489501 136.123468 
L 291.172461 131.23614 
L 291.855422 132.760618 
L 292.538382 132.723162 
L 293.221343 130.875426 
L 293.904303 130.813989 
L 294.587263 133.558049 
L 295.270224 132.250863 
L 295.953184 132.408123 
L 296.636145 135.486574 
L 297.319105 135.5104 
L 298.002065 138.693101 
L 298.685026 140.278443 
L 299.367986 139.784139 
L 300.050947 140.641966 
L 300.733907 146.878201 
L 301.416867 147.821655 
L 302.099828 152.781396 
L 302.782788 154.171972 
L 304.148709 140.711154 
L 304.83167 146.000397 
L 305.51463 149.720008 
L 306.19759 154.529981 
L 306.880551 151.757413 
L 307.563511 149.89277 
L 308.246472 149.616538 
L 308.929432 149.984379 
L 309.612392 148.288804 
L 310.295353 149.975327 
L 310.978313 149.393732 
L 311.661274 146.413757 
L 312.344234 146.057724 
L 313.027194 148.90104 
L 313.710155 149.318301 
L 314.393115 148.677818 
L 315.076076 152.221129 
L 315.759036 152.013149 
L 316.441997 150.015384 
L 317.124957 149.011481 
L 317.807917 147.586156 
L 318.490878 153.967009 
L 319.173838 156.853294 
L 319.856799 156.056903 
L 320.539759 156.78369 
L 321.222719 155.722876 
L 321.90568 158.12807 
L 322.58864 158.406383 
L 323.271601 159.940224 
L 323.954561 151.017206 
L 324.637522 150.812138 
L 325.320482 155.413663 
L 326.003442 156.939545 
L 326.686403 155.753568 
L 327.369363 150.951763 
L 328.052324 150.847773 
L 328.735284 149.2848 
L 329.418244 154.102211 
L 330.101205 152.269249 
L 330.784165 147.876381 
L 331.467126 146.65373 
L 332.150086 145.788932 
L 332.833046 146.584958 
L 333.516007 146.129097 
L 334.198967 142.213627 
L 334.881928 134.82627 
L 335.564888 140.667353 
L 336.247849 142.713342 
L 336.930809 143.10813 
L 337.613769 144.351901 
L 338.29673 149.949369 
L 338.97969 147.848238 
L 339.662651 146.46609 
L 340.345611 144.825865 
L 341.028571 141.954094 
L 342.394492 134.388461 
L 343.077453 131.965944 
L 343.760413 123.273846 
L 344.443373 118.406078 
L 345.126334 119.472146 
L 345.809294 119.433963 
L 346.492255 121.810494 
L 347.175215 121.196125 
L 347.858176 118.326746 
L 348.541136 117.277481 
L 349.224096 119.171308 
L 349.907057 117.638404 
L 350.590017 120.124699 
L 352.638898 105.603276 
L 353.321859 105.507557 
L 354.004819 103.577471 
L 354.68778 103.312684 
L 355.37074 102.706951 
L 356.053701 103.52441 
L 356.736661 104.528365 
L 357.419621 102.066311 
L 358.102582 106.065067 
L 358.785542 108.080155 
L 359.468503 113.524421 
L 360.151463 112.519738 
L 360.834423 113.34526 
L 361.517384 111.054772 
L 362.200344 105.984642 
L 362.883305 93.710738 
L 363.566265 93.621782 
L 364.249225 84.193014 
L 364.932186 77.594193 
L 365.615146 75.944501 
L 366.298107 73.914535 
L 366.981067 70.018832 
L 367.664028 70.356137 
L 368.346988 76.022741 
L 369.029948 76.157215 
L 369.712909 73.724189 
L 370.395869 72.40634 
L 371.07883 76.827455 
L 371.76179 77.988513 
L 372.44475 72.716645 
L 373.127711 70.128857 
L 373.810671 69.069968 
L 374.493632 71.115905 
L 375.176592 70.167613 
L 375.859552 73.34558 
L 376.542513 71.025804 
L 377.225473 74.813251 
L 377.908434 73.927592 
L 378.591394 73.855127 
L 379.274355 74.316814 
L 379.957315 76.327064 
L 380.640275 73.646938 
L 381.323236 63.582837 
L 382.006196 63.566971 
L 382.689157 62.46891 
L 383.372117 61.645572 
L 384.055077 64.686048 
L 384.738038 59.468646 
L 385.420998 55.655502 
L 386.103959 53.568 
L 386.786919 59.743474 
L 387.46988 60.516715 
L 388.15284 59.92071 
L 388.8358 56.877997 
L 389.518761 55.109124 
L 390.201721 59.84814 
L 390.884682 57.525243 
L 391.567642 62.297969 
L 392.250602 65.211357 
L 392.933563 66.429066 
L 393.616523 67.286582 
L 394.299484 74.775275 
L 394.982444 74.304693 
L 395.665404 75.971656 
L 396.348365 74.11929 
L 397.031325 75.919895 
L 397.714286 72.546796 
L 397.714286 72.546796 
" clip-path="url(#p242b67f06d)" style="fill: none; stroke: #ff8c00; stroke-width: 1.5; stroke-linecap: square"/>
   </g>
   <g id="line2d_14">
    <path d="M 57.6 294.102159 
L 397.714286 60.943808 
L 397.714286 60.943808 
" clip-path="url(#p242b67f06d)" style="fill: none; stroke: #000000; stroke-width: 2.5; stroke-linecap: square"/>
   </g>
   <g id="patch_3">
    <path d="M 57.6 307.584 
L 57.6 41.472 
" style="fill: none; stroke: #000000; stroke-width: 0.8; stroke-linejoin: miter; stroke-linecap: square"/>
   </g>
   <g id="patch_4">
    <path d="M 414.72 307.584 
L 414.72 41.472 
" style="fill: none; stroke: #000000; stroke-width: 0.8; stroke-linejoin: miter; stroke-linecap: square"/>
   </g>
   <g id="patch_5">
    <path d="M 57.6 307.584 
L 414.72 307.584 
" style="fill: none; stroke: #000000; stroke-width: 0.8; stroke-linejoin: miter; stroke-linecap: square"/>
   </g>
   <g id="patch_6">
    <path d="M 57.6 41.472 
L 414.72 41.472 
" style="fill: none; stroke: #000000; stroke-width: 0.8; stroke-linejoin: miter; stroke-linecap: square"/>
   </g>
   <g id="text_14">
    <!-- Independence of 6 DoF -->
    <g transform="translate(159.4515 35.472) scale(0.132 -0.132)">
     <defs>
      <path id="DejaVuSans-49" d="M 628 4666 
L 1259 4666 
L 1259 0 
L 628 0 
L 628 4666 
z
" transform="scale(0.015625)"/>
      <path id="DejaVuSans-64" d="M 2906 2969 
L 2906 4863 
L 3481 4863 
L 3481 0 
L 2906 0 
L 2906 525 
Q 2725 213 2448 61 
Q 2172 -91 1784 -91 
Q 1150 -91 751 415 
Q 353 922 353 1747 
Q 353 2572 751 3078 
Q 1150 3584 1784 3584 
Q 2172 3584 2448 3432 
Q 2725 3281 2906 2969 
z
M 947 1747 
Q 947 1113 1208 752 
Q 1469 391 1925 391 
Q 2381 391 2643 752 
Q 2906 1113 2906 1747 
Q 2906 2381 2643 2742 
Q 2381 3103 1925 3103 
Q 1469 3103 1208 2742 
Q 947 2381 947 1747 
z
" transform="scale(0.015625)"/>
      <path id="DejaVuSans-63" d="M 3122 3366 
L 3122 2828 
Q 2878 2963 2633 3030 
Q 2388 3097 2138 3097 
Q 1578 3097 1268 2742 
Q 959 2388 959 1747 
Q 959 1106 1268 751 
Q 1578 397 2138 397 
Q 2388 397 2633 464 
Q 2878 531 3122 666 
L 3122 134 
Q 2881 22 2623 -34 
Q 2366 -91 2075 -91 
Q 1284 -91 818 406 
Q 353 903 353 1747 
Q 353 2603 823 3093 
Q 1294 3584 2113 3584 
Q 2378 3584 2631 3529 
Q 2884 3475 3122 3366 
z
" transform="scale(0.015625)"/>
      <path id="DejaVuSans-66" d="M 2375 4863 
L 2375 4384 
L 1825 4384 
Q 1516 4384 1395 4259 
Q 1275 4134 1275 3809 
L 1275 3500 
L 2222 3500 
L 2222 3053 
L 1275 3053 
L 1275 0 
L 697 0 
L 697 3053 
L 147 3053 
L 147 3500 
L 697 3500 
L 697 3744 
Q 697 4328 969 4595 
Q 1241 4863 1831 4863 
L 2375 4863 
z
" transform="scale(0.015625)"/>
      <path id="DejaVuSans-36" d="M 2113 2584 
Q 1688 2584 1439 2293 
Q 1191 2003 1191 1497 
Q 1191 994 1439 701 
Q 1688 409 2113 409 
Q 2538 409 2786 701 
Q 3034 994 3034 1497 
Q 3034 2003 2786 2293 
Q 2538 2584 2113 2584 
z
M 3366 4563 
L 3366 3988 
Q 3128 4100 2886 4159 
Q 2644 4219 2406 4219 
Q 1781 4219 1451 3797 
Q 1122 3375 1075 2522 
Q 1259 2794 1537 2939 
Q 1816 3084 2150 3084 
Q 2853 3084 3261 2657 
Q 3669 2231 3669 1497 
Q 3669 778 3244 343 
Q 2819 -91 2113 -91 
Q 1303 -91 875 529 
Q 447 1150 447 2328 
Q 447 3434 972 4092 
Q 1497 4750 2381 4750 
Q 2619 4750 2861 4703 
Q 3103 4656 3366 4563 
z
" transform="scale(0.015625)"/>
      <path id="DejaVuSans-44" d="M 1259 4147 
L 1259 519 
L 2022 519 
Q 2988 519 3436 956 
Q 3884 1394 3884 2338 
Q 3884 3275 3436 3711 
Q 2988 4147 2022 4147 
L 1259 4147 
z
M 628 4666 
L 1925 4666 
Q 3281 4666 3915 4102 
Q 4550 3538 4550 2338 
Q 4550 1131 3912 565 
Q 3275 0 1925 0 
L 628 0 
L 628 4666 
z
" transform="scale(0.015625)"/>
      <path id="DejaVuSans-46" d="M 628 4666 
L 3309 4666 
L 3309 4134 
L 1259 4134 
L 1259 2759 
L 3109 2759 
L 3109 2228 
L 1259 2228 
L 1259 0 
L 628 0 
L 628 4666 
z
" transform="scale(0.015625)"/>
     </defs>
     <use xlink:href="#DejaVuSans-49"/>
     <use xlink:href="#DejaVuSans-6e" x="29.492188"/>
     <use xlink:href="#DejaVuSans-64" x="92.871094"/>
     <use xlink:href="#DejaVuSans-65" x="156.347656"/>
     <use xlink:href="#DejaVuSans-70" x="217.871094"/>
     <use xlink:href="#DejaVuSans-65" x="281.347656"/>
     <use xlink:href="#DejaVuSans-6e" x="342.871094"/>
     <use xlink:href="#DejaVuSans-64" x="406.25"/>
     <use xlink:href="#DejaVuSans-65" x="469.726562"/>
     <use xlink:href="#DejaVuSans-6e" x="531.25"/>
     <use xlink:href="#DejaVuSans-63" x="594.628906"/>
     <use xlink:href="#DejaVuSans-65" x="649.609375"/>
     <use xlink:href="#DejaVuSans-20" x="711.132812"/>
     <use xlink:href="#DejaVuSans-6f" x="742.919922"/>
     <use xlink:href="#DejaVuSans-66" x="804.101562"/>
     <use xlink:href="#DejaVuSans-20" x="839.306641"/>
     <use xlink:href="#DejaVuSans-36" x="871.09375"/>
     <use xlink:href="#DejaVuSans-20" x="934.716797"/>
     <use xlink:href="#DejaVuSans-44" x="966.503906"/>
     <use xlink:href="#DejaVuSans-6f" x="1043.505859"/>
     <use xlink:href="#DejaVuSans-46" x="1104.6875"/>
    </g>
   </g>
   <g id="legend_1">
    <g id="patch_7">
     <path d="M 65.3 98.709812 
L 175.4375 98.709812 
Q 177.6375 98.709812 177.6375 96.509812 
L 177.6375 49.172 
Q 177.6375 46.972 175.4375 46.972 
L 65.3 46.972 
Q 63.1 46.972 63.1 49.172 
L 63.1 96.509812 
Q 63.1 98.709812 65.3 98.709812 
z
" style="fill: #ffffff; opacity: 0.8; stroke: #cccccc; stroke-linejoin: miter"/>
    </g>
    <g id="line2d_15">
     <path d="M 67.5 55.880281 
L 78.5 55.880281 
L 89.5 55.880281 
" style="fill: none; stroke: #4169e1; stroke-width: 1.5; stroke-linecap: square"/>
    </g>
    <g id="text_15">
     <!-- Move X and Y -->
     <g transform="translate(98.3 59.730281) scale(0.11 -0.11)">
      <defs>
       <path id="DejaVuSans-4d" d="M 628 4666 
L 1569 4666 
L 2759 1491 
L 3956 4666 
L 4897 4666 
L 4897 0 
L 4281 0 
L 4281 4097 
L 3078 897 
L 2444 897 
L 1241 4097 
L 1241 0 
L 628 0 
L 628 4666 
z
" transform="scale(0.015625)"/>
       <path id="DejaVuSans-76" d="M 191 3500 
L 800 3500 
L 1894 563 
L 2988 3500 
L 3597 3500 
L 2284 0 
L 1503 0 
L 191 3500 
z
" transform="scale(0.015625)"/>
       <path id="DejaVuSans-61" d="M 2194 1759 
Q 1497 1759 1228 1600 
Q 959 1441 959 1056 
Q 959 750 1161 570 
Q 1363 391 1709 391 
Q 2188 391 2477 730 
Q 2766 1069 2766 1631 
L 2766 1759 
L 2194 1759 
z
M 3341 1997 
L 3341 0 
L 2766 0 
L 2766 531 
Q 2569 213 2275 61 
Q 1981 -91 1556 -91 
Q 1019 -91 701 211 
Q 384 513 384 1019 
Q 384 1609 779 1909 
Q 1175 2209 1959 2209 
L 2766 2209 
L 2766 2266 
Q 2766 2663 2505 2880 
Q 2244 3097 1772 3097 
Q 1472 3097 1187 3025 
Q 903 2953 641 2809 
L 641 3341 
Q 956 3463 1253 3523 
Q 1550 3584 1831 3584 
Q 2591 3584 2966 3190 
Q 3341 2797 3341 1997 
z
" transform="scale(0.015625)"/>
       <path id="DejaVuSans-59" d="M -13 4666 
L 666 4666 
L 1959 2747 
L 3244 4666 
L 3922 4666 
L 2272 2222 
L 2272 0 
L 1638 0 
L 1638 2222 
L -13 4666 
z
" transform="scale(0.015625)"/>
      </defs>
      <use xlink:href="#DejaVuSans-4d"/>
      <use xlink:href="#DejaVuSans-6f" x="86.279297"/>
      <use xlink:href="#DejaVuSans-76" x="147.460938"/>
      <use xlink:href="#DejaVuSans-65" x="206.640625"/>
      <use xlink:href="#DejaVuSans-20" x="268.164062"/>
      <use xlink:href="#DejaVuSans-58" x="299.951172"/>
      <use xlink:href="#DejaVuSans-20" x="368.457031"/>
      <use xlink:href="#DejaVuSans-61" x="400.244141"/>
      <use xlink:href="#DejaVuSans-6e" x="461.523438"/>
      <use xlink:href="#DejaVuSans-64" x="524.902344"/>
      <use xlink:href="#DejaVuSans-20" x="588.378906"/>
      <use xlink:href="#DejaVuSans-59" x="620.166016"/>
     </g>
    </g>
    <g id="line2d_16">
     <path d="M 67.5 72.026219 
L 78.5 72.026219 
L 89.5 72.026219 
" style="fill: none; stroke: #ff8c00; stroke-width: 1.5; stroke-linecap: square"/>
    </g>
    <g id="text_16">
     <!-- Move X -->
     <g transform="translate(98.3 75.876219) scale(0.11 -0.11)">
      <use xlink:href="#DejaVuSans-4d"/>
      <use xlink:href="#DejaVuSans-6f" x="86.279297"/>
      <use xlink:href="#DejaVuSans-76" x="147.460938"/>
      <use xlink:href="#DejaVuSans-65" x="206.640625"/>
      <use xlink:href="#DejaVuSans-20" x="268.164062"/>
      <use xlink:href="#DejaVuSans-58" x="299.951172"/>
     </g>
    </g>
    <g id="line2d_17">
     <path d="M 67.5 88.172156 
L 78.5 88.172156 
L 89.5 88.172156 
" style="fill: none; stroke: #000000; stroke-width: 2.5; stroke-linecap: square"/>
    </g>
    <g id="text_17">
     <!-- Ground Truth -->
     <g transform="translate(98.3 92.022156) scale(0.11 -0.11)">
      <defs>
       <path id="DejaVuSans-47" d="M 3809 666 
L 3809 1919 
L 2778 1919 
L 2778 2438 
L 4434 2438 
L 4434 434 
Q 4069 175 3628 42 
Q 3188 -91 2688 -91 
Q 1594 -91 976 548 
Q 359 1188 359 2328 
Q 359 3472 976 4111 
Q 1594 4750 2688 4750 
Q 3144 4750 3555 4637 
Q 3966 4525 4313 4306 
L 4313 3634 
Q 3963 3931 3569 4081 
Q 3175 4231 2741 4231 
Q 1884 4231 1454 3753 
Q 1025 3275 1025 2328 
Q 1025 1384 1454 906 
Q 1884 428 2741 428 
Q 3075 428 3337 486 
Q 3600 544 3809 666 
z
" transform="scale(0.015625)"/>
       <path id="DejaVuSans-72" d="M 2631 2963 
Q 2534 3019 2420 3045 
Q 2306 3072 2169 3072 
Q 1681 3072 1420 2755 
Q 1159 2438 1159 1844 
L 1159 0 
L 581 0 
L 581 3500 
L 1159 3500 
L 1159 2956 
Q 1341 3275 1631 3429 
Q 1922 3584 2338 3584 
Q 2397 3584 2469 3576 
Q 2541 3569 2628 3553 
L 2631 2963 
z
" transform="scale(0.015625)"/>
       <path id="DejaVuSans-75" d="M 544 1381 
L 544 3500 
L 1119 3500 
L 1119 1403 
Q 1119 906 1312 657 
Q 1506 409 1894 409 
Q 2359 409 2629 706 
Q 2900 1003 2900 1516 
L 2900 3500 
L 3475 3500 
L 3475 0 
L 2900 0 
L 2900 538 
Q 2691 219 2414 64 
Q 2138 -91 1772 -91 
Q 1169 -91 856 284 
Q 544 659 544 1381 
z
M 1991 3584 
L 1991 3584 
z
" transform="scale(0.015625)"/>
       <path id="DejaVuSans-68" d="M 3513 2113 
L 3513 0 
L 2938 0 
L 2938 2094 
Q 2938 2591 2744 2837 
Q 2550 3084 2163 3084 
Q 1697 3084 1428 2787 
Q 1159 2491 1159 1978 
L 1159 0 
L 581 0 
L 581 4863 
L 1159 4863 
L 1159 2956 
Q 1366 3272 1645 3428 
Q 1925 3584 2291 3584 
Q 2894 3584 3203 3211 
Q 3513 2838 3513 2113 
z
" transform="scale(0.015625)"/>
      </defs>
      <use xlink:href="#DejaVuSans-47"/>
      <use xlink:href="#DejaVuSans-72" x="77.490234"/>
      <use xlink:href="#DejaVuSans-6f" x="116.353516"/>
      <use xlink:href="#DejaVuSans-75" x="177.535156"/>
      <use xlink:href="#DejaVuSans-6e" x="240.914062"/>
      <use xlink:href="#DejaVuSans-64" x="304.292969"/>
      <use xlink:href="#DejaVuSans-20" x="367.769531"/>
      <use xlink:href="#DejaVuSans-54" x="399.556641"/>
      <use xlink:href="#DejaVuSans-72" x="445.890625"/>
      <use xlink:href="#DejaVuSans-75" x="487.003906"/>
      <use xlink:href="#DejaVuSans-74" x="550.382812"/>
      <use xlink:href="#DejaVuSans-68" x="589.591797"/>
     </g>
    </g>
   </g>
  </g>
 </g>
 <defs>
  <clipPath id="p242b67f06d">
   <rect x="57.6" y="41.472" width="357.12" height="266.112"/>
  </clipPath>
 </defs>
</svg>
