<?xml version="1.0" encoding="utf-8" standalone="no"?>
<!DOCTYPE svg PUBLIC "-//W3C//DTD SVG 1.1//EN"
  "http://www.w3.org/Graphics/SVG/1.1/DTD/svg11.dtd">
<svg xmlns:xlink="http://www.w3.org/1999/xlink" width="460.8pt" height="345.6pt" viewBox="0 0 460.8 345.6" xmlns="http://www.w3.org/2000/svg" version="1.1">
 <metadata>
  <rdf:RDF xmlns:dc="http://purl.org/dc/elements/1.1/" xmlns:cc="http://creativecommons.org/ns#" xmlns:rdf="http://www.w3.org/1999/02/22-rdf-syntax-ns#">
   <cc:Work>
    <dc:type rdf:resource="http://purl.org/dc/dcmitype/StillImage"/>
    <dc:date>2023-06-19T12:36:07.368537</dc:date>
    <dc:format>image/svg+xml</dc:format>
    <dc:creator>
     <cc:Agent>
      <dc:title>Matplotlib v3.6.1, https://matplotlib.org/</dc:title>
     </cc:Agent>
    </dc:creator>
   </cc:Work>
  </rdf:RDF>
 </metadata>
 <defs>
  <style type="text/css">*{stroke-linejoin: round; stroke-linecap: butt}</style>
 </defs>
 <g id="figure_1">
  <g id="patch_1">
   <path d="M 0 345.6 
L 460.8 345.6 
L 460.8 0 
L 0 0 
z
" style="fill: #ffffff"/>
  </g>
  <g id="axes_1">
   <g id="patch_2">
    <path d="M 57.6 307.584 
L 414.72 307.584 
L 414.72 41.472 
L 57.6 41.472 
z
" style="fill: #ffffff"/>
   </g>
   <g id="matplotlib.axis_1">
    <g id="xtick_1">
     <g id="line2d_1">
      <defs>
       <path id="md6619f2815" d="M 0 0 
L 0 3.5 
" style="stroke: #000000; stroke-width: 0.8"/>
      </defs>
      <g>
       <use xlink:href="#md6619f2815" x="57.6" y="307.584" style="stroke: #000000; stroke-width: 0.8"/>
      </g>
     </g>
     <g id="text_1">
      <!-- 0 -->
      <g transform="translate(54.100625 322.942281) scale(0.11 -0.11)">
       <defs>
        <path id="DejaVuSans-30" d="M 2034 4250 
Q 1547 4250 1301 3770 
Q 1056 3291 1056 2328 
Q 1056 1369 1301 889 
Q 1547 409 2034 409 
Q 2525 409 2770 889 
Q 3016 1369 3016 2328 
Q 3016 3291 2770 3770 
Q 2525 4250 2034 4250 
z
M 2034 4750 
Q 2819 4750 3233 4129 
Q 3647 3509 3647 2328 
Q 3647 1150 3233 529 
Q 2819 -91 2034 -91 
Q 1250 -91 836 529 
Q 422 1150 422 2328 
Q 422 3509 836 4129 
Q 1250 4750 2034 4750 
z
" transform="scale(0.015625)"/>
       </defs>
       <use xlink:href="#DejaVuSans-30"/>
      </g>
     </g>
    </g>
    <g id="xtick_2">
     <g id="line2d_2">
      <g>
       <use xlink:href="#md6619f2815" x="114.285714" y="307.584" style="stroke: #000000; stroke-width: 0.8"/>
      </g>
     </g>
     <g id="text_2">
      <!-- 1 -->
      <g transform="translate(110.786339 322.942281) scale(0.11 -0.11)">
       <defs>
        <path id="DejaVuSans-31" d="M 794 531 
L 1825 531 
L 1825 4091 
L 703 3866 
L 703 4441 
L 1819 4666 
L 2450 4666 
L 2450 531 
L 3481 531 
L 3481 0 
L 794 0 
L 794 531 
z
" transform="scale(0.015625)"/>
       </defs>
       <use xlink:href="#DejaVuSans-31"/>
      </g>
     </g>
    </g>
    <g id="xtick_3">
     <g id="line2d_3">
      <g>
       <use xlink:href="#md6619f2815" x="170.971429" y="307.584" style="stroke: #000000; stroke-width: 0.8"/>
      </g>
     </g>
     <g id="text_3">
      <!-- 2 -->
      <g transform="translate(167.472054 322.942281) scale(0.11 -0.11)">
       <defs>
        <path id="DejaVuSans-32" d="M 1228 531 
L 3431 531 
L 3431 0 
L 469 0 
L 469 531 
Q 828 903 1448 1529 
Q 2069 2156 2228 2338 
Q 2531 2678 2651 2914 
Q 2772 3150 2772 3378 
Q 2772 3750 2511 3984 
Q 2250 4219 1831 4219 
Q 1534 4219 1204 4116 
Q 875 4013 500 3803 
L 500 4441 
Q 881 4594 1212 4672 
Q 1544 4750 1819 4750 
Q 2544 4750 2975 4387 
Q 3406 4025 3406 3419 
Q 3406 3131 3298 2873 
Q 3191 2616 2906 2266 
Q 2828 2175 2409 1742 
Q 1991 1309 1228 531 
z
" transform="scale(0.015625)"/>
       </defs>
       <use xlink:href="#DejaVuSans-32"/>
      </g>
     </g>
    </g>
    <g id="xtick_4">
     <g id="line2d_4">
      <g>
       <use xlink:href="#md6619f2815" x="227.657143" y="307.584" style="stroke: #000000; stroke-width: 0.8"/>
      </g>
     </g>
     <g id="text_4">
      <!-- 3 -->
      <g transform="translate(224.157768 322.942281) scale(0.11 -0.11)">
       <defs>
        <path id="DejaVuSans-33" d="M 2597 2516 
Q 3050 2419 3304 2112 
Q 3559 1806 3559 1356 
Q 3559 666 3084 287 
Q 2609 -91 1734 -91 
Q 1441 -91 1130 -33 
Q 819 25 488 141 
L 488 750 
Q 750 597 1062 519 
Q 1375 441 1716 441 
Q 2309 441 2620 675 
Q 2931 909 2931 1356 
Q 2931 1769 2642 2001 
Q 2353 2234 1838 2234 
L 1294 2234 
L 1294 2753 
L 1863 2753 
Q 2328 2753 2575 2939 
Q 2822 3125 2822 3475 
Q 2822 3834 2567 4026 
Q 2313 4219 1838 4219 
Q 1578 4219 1281 4162 
Q 984 4106 628 3988 
L 628 4550 
Q 988 4650 1302 4700 
Q 1616 4750 1894 4750 
Q 2613 4750 3031 4423 
Q 3450 4097 3450 3541 
Q 3450 3153 3228 2886 
Q 3006 2619 2597 2516 
z
" transform="scale(0.015625)"/>
       </defs>
       <use xlink:href="#DejaVuSans-33"/>
      </g>
     </g>
    </g>
    <g id="xtick_5">
     <g id="line2d_5">
      <g>
       <use xlink:href="#md6619f2815" x="284.342857" y="307.584" style="stroke: #000000; stroke-width: 0.8"/>
      </g>
     </g>
     <g id="text_5">
      <!-- 4 -->
      <g transform="translate(280.843482 322.942281) scale(0.11 -0.11)">
       <defs>
        <path id="DejaVuSans-34" d="M 2419 4116 
L 825 1625 
L 2419 1625 
L 2419 4116 
z
M 2253 4666 
L 3047 4666 
L 3047 1625 
L 3713 1625 
L 3713 1100 
L 3047 1100 
L 3047 0 
L 2419 0 
L 2419 1100 
L 313 1100 
L 313 1709 
L 2253 4666 
z
" transform="scale(0.015625)"/>
       </defs>
       <use xlink:href="#DejaVuSans-34"/>
      </g>
     </g>
    </g>
    <g id="xtick_6">
     <g id="line2d_6">
      <g>
       <use xlink:href="#md6619f2815" x="341.028571" y="307.584" style="stroke: #000000; stroke-width: 0.8"/>
      </g>
     </g>
     <g id="text_6">
      <!-- 5 -->
      <g transform="translate(337.529196 322.942281) scale(0.11 -0.11)">
       <defs>
        <path id="DejaVuSans-35" d="M 691 4666 
L 3169 4666 
L 3169 4134 
L 1269 4134 
L 1269 2991 
Q 1406 3038 1543 3061 
Q 1681 3084 1819 3084 
Q 2600 3084 3056 2656 
Q 3513 2228 3513 1497 
Q 3513 744 3044 326 
Q 2575 -91 1722 -91 
Q 1428 -91 1123 -41 
Q 819 9 494 109 
L 494 744 
Q 775 591 1075 516 
Q 1375 441 1709 441 
Q 2250 441 2565 725 
Q 2881 1009 2881 1497 
Q 2881 1984 2565 2268 
Q 2250 2553 1709 2553 
Q 1456 2553 1204 2497 
Q 953 2441 691 2322 
L 691 4666 
z
" transform="scale(0.015625)"/>
       </defs>
       <use xlink:href="#DejaVuSans-35"/>
      </g>
     </g>
    </g>
    <g id="xtick_7">
     <g id="line2d_7">
      <g>
       <use xlink:href="#md6619f2815" x="397.714286" y="307.584" style="stroke: #000000; stroke-width: 0.8"/>
      </g>
     </g>
     <g id="text_7">
      <!-- 6 -->
      <g transform="translate(394.214911 322.942281) scale(0.11 -0.11)">
       <defs>
        <path id="DejaVuSans-36" d="M 2113 2584 
Q 1688 2584 1439 2293 
Q 1191 2003 1191 1497 
Q 1191 994 1439 701 
Q 1688 409 2113 409 
Q 2538 409 2786 701 
Q 3034 994 3034 1497 
Q 3034 2003 2786 2293 
Q 2538 2584 2113 2584 
z
M 3366 4563 
L 3366 3988 
Q 3128 4100 2886 4159 
Q 2644 4219 2406 4219 
Q 1781 4219 1451 3797 
Q 1122 3375 1075 2522 
Q 1259 2794 1537 2939 
Q 1816 3084 2150 3084 
Q 2853 3084 3261 2657 
Q 3669 2231 3669 1497 
Q 3669 778 3244 343 
Q 2819 -91 2113 -91 
Q 1303 -91 875 529 
Q 447 1150 447 2328 
Q 447 3434 972 4092 
Q 1497 4750 2381 4750 
Q 2619 4750 2861 4703 
Q 3103 4656 3366 4563 
z
" transform="scale(0.015625)"/>
       </defs>
       <use xlink:href="#DejaVuSans-36"/>
      </g>
     </g>
    </g>
    <g id="text_8">
     <!-- Time [s] -->
     <g transform="translate(213.798203 337.588219) scale(0.11 -0.11)">
      <defs>
       <path id="DejaVuSans-54" d="M -19 4666 
L 3928 4666 
L 3928 4134 
L 2272 4134 
L 2272 0 
L 1638 0 
L 1638 4134 
L -19 4134 
L -19 4666 
z
" transform="scale(0.015625)"/>
       <path id="DejaVuSans-69" d="M 603 3500 
L 1178 3500 
L 1178 0 
L 603 0 
L 603 3500 
z
M 603 4863 
L 1178 4863 
L 1178 4134 
L 603 4134 
L 603 4863 
z
" transform="scale(0.015625)"/>
       <path id="DejaVuSans-6d" d="M 3328 2828 
Q 3544 3216 3844 3400 
Q 4144 3584 4550 3584 
Q 5097 3584 5394 3201 
Q 5691 2819 5691 2113 
L 5691 0 
L 5113 0 
L 5113 2094 
Q 5113 2597 4934 2840 
Q 4756 3084 4391 3084 
Q 3944 3084 3684 2787 
Q 3425 2491 3425 1978 
L 3425 0 
L 2847 0 
L 2847 2094 
Q 2847 2600 2669 2842 
Q 2491 3084 2119 3084 
Q 1678 3084 1418 2786 
Q 1159 2488 1159 1978 
L 1159 0 
L 581 0 
L 581 3500 
L 1159 3500 
L 1159 2956 
Q 1356 3278 1631 3431 
Q 1906 3584 2284 3584 
Q 2666 3584 2933 3390 
Q 3200 3197 3328 2828 
z
" transform="scale(0.015625)"/>
       <path id="DejaVuSans-65" d="M 3597 1894 
L 3597 1613 
L 953 1613 
Q 991 1019 1311 708 
Q 1631 397 2203 397 
Q 2534 397 2845 478 
Q 3156 559 3463 722 
L 3463 178 
Q 3153 47 2828 -22 
Q 2503 -91 2169 -91 
Q 1331 -91 842 396 
Q 353 884 353 1716 
Q 353 2575 817 3079 
Q 1281 3584 2069 3584 
Q 2775 3584 3186 3129 
Q 3597 2675 3597 1894 
z
M 3022 2063 
Q 3016 2534 2758 2815 
Q 2500 3097 2075 3097 
Q 1594 3097 1305 2825 
Q 1016 2553 972 2059 
L 3022 2063 
z
" transform="scale(0.015625)"/>
       <path id="DejaVuSans-20" transform="scale(0.015625)"/>
       <path id="DejaVuSans-5b" d="M 550 4863 
L 1875 4863 
L 1875 4416 
L 1125 4416 
L 1125 -397 
L 1875 -397 
L 1875 -844 
L 550 -844 
L 550 4863 
z
" transform="scale(0.015625)"/>
       <path id="DejaVuSans-73" d="M 2834 3397 
L 2834 2853 
Q 2591 2978 2328 3040 
Q 2066 3103 1784 3103 
Q 1356 3103 1142 2972 
Q 928 2841 928 2578 
Q 928 2378 1081 2264 
Q 1234 2150 1697 2047 
L 1894 2003 
Q 2506 1872 2764 1633 
Q 3022 1394 3022 966 
Q 3022 478 2636 193 
Q 2250 -91 1575 -91 
Q 1294 -91 989 -36 
Q 684 19 347 128 
L 347 722 
Q 666 556 975 473 
Q 1284 391 1588 391 
Q 1994 391 2212 530 
Q 2431 669 2431 922 
Q 2431 1156 2273 1281 
Q 2116 1406 1581 1522 
L 1381 1569 
Q 847 1681 609 1914 
Q 372 2147 372 2553 
Q 372 3047 722 3315 
Q 1072 3584 1716 3584 
Q 2034 3584 2315 3537 
Q 2597 3491 2834 3397 
z
" transform="scale(0.015625)"/>
       <path id="DejaVuSans-5d" d="M 1947 4863 
L 1947 -844 
L 622 -844 
L 622 -397 
L 1369 -397 
L 1369 4416 
L 622 4416 
L 622 4863 
L 1947 4863 
z
" transform="scale(0.015625)"/>
      </defs>
      <use xlink:href="#DejaVuSans-54"/>
      <use xlink:href="#DejaVuSans-69" x="57.958984"/>
      <use xlink:href="#DejaVuSans-6d" x="85.742188"/>
      <use xlink:href="#DejaVuSans-65" x="183.154297"/>
      <use xlink:href="#DejaVuSans-20" x="244.677734"/>
      <use xlink:href="#DejaVuSans-5b" x="276.464844"/>
      <use xlink:href="#DejaVuSans-73" x="315.478516"/>
      <use xlink:href="#DejaVuSans-5d" x="367.578125"/>
     </g>
    </g>
   </g>
   <g id="matplotlib.axis_2">
    <g id="ytick_1">
     <g id="line2d_8">
      <defs>
       <path id="m87470990d5" d="M 0 0 
L -3.5 0 
" style="stroke: #000000; stroke-width: 0.8"/>
      </defs>
      <g>
       <use xlink:href="#m87470990d5" x="57.6" y="286.135646" style="stroke: #000000; stroke-width: 0.8"/>
      </g>
     </g>
     <g id="text_9">
      <!-- −1 -->
      <g transform="translate(34.383594 290.314786) scale(0.11 -0.11)">
       <defs>
        <path id="DejaVuSans-2212" d="M 678 2272 
L 4684 2272 
L 4684 1741 
L 678 1741 
L 678 2272 
z
" transform="scale(0.015625)"/>
       </defs>
       <use xlink:href="#DejaVuSans-2212"/>
       <use xlink:href="#DejaVuSans-31" x="83.789062"/>
      </g>
     </g>
    </g>
    <g id="ytick_2">
     <g id="line2d_9">
      <g>
       <use xlink:href="#m87470990d5" x="57.6" y="251.951814" style="stroke: #000000; stroke-width: 0.8"/>
      </g>
     </g>
     <g id="text_10">
      <!-- 0 -->
      <g transform="translate(43.60125 256.130955) scale(0.11 -0.11)">
       <use xlink:href="#DejaVuSans-30"/>
      </g>
     </g>
    </g>
    <g id="ytick_3">
     <g id="line2d_10">
      <g>
       <use xlink:href="#m87470990d5" x="57.6" y="217.767983" style="stroke: #000000; stroke-width: 0.8"/>
      </g>
     </g>
     <g id="text_11">
      <!-- 1 -->
      <g transform="translate(43.60125 221.947123) scale(0.11 -0.11)">
       <use xlink:href="#DejaVuSans-31"/>
      </g>
     </g>
    </g>
    <g id="ytick_4">
     <g id="line2d_11">
      <g>
       <use xlink:href="#m87470990d5" x="57.6" y="183.584152" style="stroke: #000000; stroke-width: 0.8"/>
      </g>
     </g>
     <g id="text_12">
      <!-- 2 -->
      <g transform="translate(43.60125 187.763292) scale(0.11 -0.11)">
       <use xlink:href="#DejaVuSans-32"/>
      </g>
     </g>
    </g>
    <g id="ytick_5">
     <g id="line2d_12">
      <g>
       <use xlink:href="#m87470990d5" x="57.6" y="149.40032" style="stroke: #000000; stroke-width: 0.8"/>
      </g>
     </g>
     <g id="text_13">
      <!-- 3 -->
      <g transform="translate(43.60125 153.579461) scale(0.11 -0.11)">
       <use xlink:href="#DejaVuSans-33"/>
      </g>
     </g>
    </g>
    <g id="ytick_6">
     <g id="line2d_13">
      <g>
       <use xlink:href="#m87470990d5" x="57.6" y="115.216489" style="stroke: #000000; stroke-width: 0.8"/>
      </g>
     </g>
     <g id="text_14">
      <!-- 4 -->
      <g transform="translate(43.60125 119.395629) scale(0.11 -0.11)">
       <use xlink:href="#DejaVuSans-34"/>
      </g>
     </g>
    </g>
    <g id="ytick_7">
     <g id="line2d_14">
      <g>
       <use xlink:href="#m87470990d5" x="57.6" y="81.032657" style="stroke: #000000; stroke-width: 0.8"/>
      </g>
     </g>
     <g id="text_15">
      <!-- 5 -->
      <g transform="translate(43.60125 85.211798) scale(0.11 -0.11)">
       <use xlink:href="#DejaVuSans-35"/>
      </g>
     </g>
    </g>
    <g id="ytick_8">
     <g id="line2d_15">
      <g>
       <use xlink:href="#m87470990d5" x="57.6" y="46.848826" style="stroke: #000000; stroke-width: 0.8"/>
      </g>
     </g>
     <g id="text_16">
      <!-- 6 -->
      <g transform="translate(43.60125 51.027967) scale(0.11 -0.11)">
       <use xlink:href="#DejaVuSans-36"/>
      </g>
     </g>
    </g>
    <g id="text_17">
     <!-- X-position -->
     <g transform="translate(28.095938 201.789953) rotate(-90) scale(0.11 -0.11)">
      <defs>
       <path id="DejaVuSans-58" d="M 403 4666 
L 1081 4666 
L 2241 2931 
L 3406 4666 
L 4084 4666 
L 2584 2425 
L 4184 0 
L 3506 0 
L 2194 1984 
L 872 0 
L 191 0 
L 1856 2491 
L 403 4666 
z
" transform="scale(0.015625)"/>
       <path id="DejaVuSans-2d" d="M 313 2009 
L 1997 2009 
L 1997 1497 
L 313 1497 
L 313 2009 
z
" transform="scale(0.015625)"/>
       <path id="DejaVuSans-70" d="M 1159 525 
L 1159 -1331 
L 581 -1331 
L 581 3500 
L 1159 3500 
L 1159 2969 
Q 1341 3281 1617 3432 
Q 1894 3584 2278 3584 
Q 2916 3584 3314 3078 
Q 3713 2572 3713 1747 
Q 3713 922 3314 415 
Q 2916 -91 2278 -91 
Q 1894 -91 1617 61 
Q 1341 213 1159 525 
z
M 3116 1747 
Q 3116 2381 2855 2742 
Q 2594 3103 2138 3103 
Q 1681 3103 1420 2742 
Q 1159 2381 1159 1747 
Q 1159 1113 1420 752 
Q 1681 391 2138 391 
Q 2594 391 2855 752 
Q 3116 1113 3116 1747 
z
" transform="scale(0.015625)"/>
       <path id="DejaVuSans-6f" d="M 1959 3097 
Q 1497 3097 1228 2736 
Q 959 2375 959 1747 
Q 959 1119 1226 758 
Q 1494 397 1959 397 
Q 2419 397 2687 759 
Q 2956 1122 2956 1747 
Q 2956 2369 2687 2733 
Q 2419 3097 1959 3097 
z
M 1959 3584 
Q 2709 3584 3137 3096 
Q 3566 2609 3566 1747 
Q 3566 888 3137 398 
Q 2709 -91 1959 -91 
Q 1206 -91 779 398 
Q 353 888 353 1747 
Q 353 2609 779 3096 
Q 1206 3584 1959 3584 
z
" transform="scale(0.015625)"/>
       <path id="DejaVuSans-74" d="M 1172 4494 
L 1172 3500 
L 2356 3500 
L 2356 3053 
L 1172 3053 
L 1172 1153 
Q 1172 725 1289 603 
Q 1406 481 1766 481 
L 2356 481 
L 2356 0 
L 1766 0 
Q 1100 0 847 248 
Q 594 497 594 1153 
L 594 3053 
L 172 3053 
L 172 3500 
L 594 3500 
L 594 4494 
L 1172 4494 
z
" transform="scale(0.015625)"/>
       <path id="DejaVuSans-6e" d="M 3513 2113 
L 3513 0 
L 2938 0 
L 2938 2094 
Q 2938 2591 2744 2837 
Q 2550 3084 2163 3084 
Q 1697 3084 1428 2787 
Q 1159 2491 1159 1978 
L 1159 0 
L 581 0 
L 581 3500 
L 1159 3500 
L 1159 2956 
Q 1366 3272 1645 3428 
Q 1925 3584 2291 3584 
Q 2894 3584 3203 3211 
Q 3513 2838 3513 2113 
z
" transform="scale(0.015625)"/>
      </defs>
      <use xlink:href="#DejaVuSans-58"/>
      <use xlink:href="#DejaVuSans-2d" x="63.505859"/>
      <use xlink:href="#DejaVuSans-70" x="99.589844"/>
      <use xlink:href="#DejaVuSans-6f" x="163.066406"/>
      <use xlink:href="#DejaVuSans-73" x="224.248047"/>
      <use xlink:href="#DejaVuSans-69" x="276.347656"/>
      <use xlink:href="#DejaVuSans-74" x="304.130859"/>
      <use xlink:href="#DejaVuSans-69" x="343.339844"/>
      <use xlink:href="#DejaVuSans-6f" x="371.123047"/>
      <use xlink:href="#DejaVuSans-6e" x="432.304688"/>
     </g>
    </g>
   </g>
   <g id="line2d_16">
    <path d="M 57.6 245.344763 
L 58.28296 244.083551 
L 58.965921 240.734732 
L 59.648881 245.575333 
L 60.331842 245.009488 
L 61.014802 238.302997 
L 61.697762 243.31397 
L 62.380723 247.374565 
L 63.746644 244.606085 
L 64.429604 243.512783 
L 65.112565 245.969507 
L 65.795525 247.955109 
L 66.478485 240.737125 
L 67.161446 237.091111 
L 67.844406 237.431275 
L 68.527367 251.544822 
L 69.210327 241.078279 
L 69.893287 243.116217 
L 70.576248 215.586063 
L 71.259208 202.201145 
L 71.942169 208.926882 
L 72.625129 205.435106 
L 73.30809 205.286782 
L 73.99105 207.625162 
L 74.67401 213.278791 
L 75.356971 212.99298 
L 76.039931 209.793955 
L 76.722892 211.738707 
L 77.405852 220.150015 
L 78.088812 207.703203 
L 78.771773 219.720051 
L 79.454733 227.561719 
L 80.137694 224.431095 
L 80.820654 219.395783 
L 81.503614 218.178565 
L 82.186575 222.294025 
L 82.869535 222.049952 
L 83.552496 222.23957 
L 84.235456 222.281719 
L 85.601377 236.25959 
L 86.284337 247.692406 
L 86.967298 254.987441 
L 87.650258 258.538423 
L 88.333219 262.765767 
L 89.016179 263.153001 
L 90.3821 265.892733 
L 91.06506 270.54252 
L 91.748021 266.362487 
L 92.430981 274.755575 
L 93.113941 280.476752 
L 93.796902 292.440272 
L 94.479862 295.488 
L 95.162823 290.263685 
L 95.845783 288.414169 
L 96.528744 290.786971 
L 97.211704 292.082846 
L 97.894664 287.420787 
L 99.260585 282.668619 
L 99.943546 281.500215 
L 100.626506 282.186046 
L 101.309466 267.386293 
L 101.992427 258.363539 
L 102.675387 263.37776 
L 103.358348 266.578973 
L 104.041308 273.620535 
L 104.724269 274.21106 
L 105.407229 270.836364 
L 106.090189 273.711088 
L 106.77315 271.47338 
L 107.45611 270.569423 
L 108.139071 268.093283 
L 108.822031 263.930752 
L 109.504991 262.138357 
L 110.187952 263.900841 
L 110.870912 263.453374 
L 111.553873 259.460737 
L 112.236833 253.892396 
L 112.919793 257.177462 
L 113.602754 259.394523 
L 114.285714 258.206703 
L 114.968675 255.067978 
L 115.651635 247.139483 
L 116.334596 243.956866 
L 117.017556 239.616955 
L 117.700516 237.106494 
L 118.383477 231.469307 
L 119.066437 234.361772 
L 119.749398 228.499416 
L 120.432358 221.183973 
L 121.115318 220.289485 
L 121.798279 220.319464 
L 122.481239 220.190318 
L 123.1642 216.691773 
L 123.84716 219.499804 
L 124.53012 215.370226 
L 125.213081 214.986171 
L 125.896041 210.885308 
L 126.579002 223.075911 
L 127.944923 232.672714 
L 128.627883 250.093376 
L 129.310843 256.485513 
L 129.993804 258.768754 
L 130.676764 257.17777 
L 131.359725 252.572148 
L 132.042685 242.56931 
L 132.725645 237.526169 
L 133.408606 251.445005 
L 134.091566 239.217448 
L 134.774527 258.185441 
L 135.457487 255.340697 
L 136.140448 244.126007 
L 136.823408 241.412187 
L 137.506368 249.229175 
L 138.189329 242.442556 
L 138.872289 243.097005 
L 139.55525 240.681815 
L 140.23821 240.710906 
L 140.92117 231.155431 
L 141.604131 229.041503 
L 142.970052 220.586235 
L 143.653012 204.970787 
L 145.018933 193.226966 
L 145.701893 196.751934 
L 146.384854 205.153465 
L 147.067814 206.37123 
L 147.750775 213.982158 
L 148.433735 203.939187 
L 149.116695 201.225333 
L 149.799656 202.286126 
L 150.482616 212.419752 
L 151.165577 233.288878 
L 151.848537 223.149578 
L 153.897418 214.246467 
L 154.580379 214.374041 
L 155.263339 223.387839 
L 155.946299 223.181266 
L 156.62926 229.303693 
L 157.31222 229.37876 
L 157.995181 231.419672 
L 158.678141 221.190605 
L 159.361102 223.339093 
L 160.044062 214.696087 
L 160.727022 211.948767 
L 161.409983 196.100937 
L 162.092943 200.423893 
L 162.775904 194.48811 
L 163.458864 197.055999 
L 164.141824 191.630718 
L 164.824785 197.415135 
L 165.507745 193.905036 
L 166.190706 195.799778 
L 166.873666 199.123267 
L 167.556627 213.026685 
L 168.239587 218.607982 
L 168.922547 219.19861 
L 169.605508 215.856936 
L 170.288468 210.793216 
L 170.971429 201.823242 
L 171.654389 195.867291 
L 172.337349 183.431418 
L 173.02031 180.014368 
L 174.386231 183.966942 
L 175.069191 180.223231 
L 175.752151 175.043355 
L 176.435112 157.21953 
L 177.118072 164.710951 
L 177.801033 168.772092 
L 178.483993 160.205932 
L 179.166954 157.741448 
L 181.215835 140.556963 
L 181.898795 121.484778 
L 182.581756 118.867493 
L 183.264716 117.75751 
L 183.947676 120.206268 
L 184.630637 112.106034 
L 185.996558 105.780623 
L 186.679518 107.196859 
L 187.362478 110.42207 
L 188.045439 115.211156 
L 188.728399 129.289459 
L 189.41136 139.580536 
L 190.09432 135.789105 
L 190.777281 131.119388 
L 192.143201 113.235843 
L 192.826162 105.227153 
L 193.509122 105.702616 
L 194.192083 86.398733 
L 194.875043 84.329517 
L 195.558003 82.807892 
L 196.240964 81.727615 
L 196.923924 60.36983 
L 197.606885 53.568 
L 200.338726 98.486341 
L 201.021687 92.123602 
L 201.704647 81.343012 
L 202.387608 78.015182 
L 203.070568 73.279491 
L 203.753528 73.381632 
L 204.436489 65.014866 
L 205.119449 70.924191 
L 205.80241 67.176823 
L 206.48537 70.991977 
L 207.16833 72.767827 
L 207.851291 92.300981 
L 208.534251 85.329428 
L 209.217212 90.061838 
L 209.900172 93.1123 
L 210.583133 87.03462 
L 211.266093 86.552287 
L 211.949053 85.599002 
L 212.632014 93.939789 
L 213.997935 105.720938 
L 214.680895 105.856887 
L 215.363855 102.074002 
L 216.046816 97.330654 
L 216.729776 95.801679 
L 217.412737 93.05641 
L 218.095697 96.997635 
L 218.778657 97.039442 
L 219.461618 111.411213 
L 220.144578 98.957257 
L 220.827539 95.429691 
L 221.510499 98.09767 
L 222.19346 102.446367 
L 223.55938 70.755562 
L 224.242341 74.044286 
L 224.925301 66.402798 
L 225.608262 63.256279 
L 226.291222 69.893924 
L 226.974182 72.982126 
L 227.657143 78.013747 
L 228.340103 87.612259 
L 229.023064 90.823385 
L 229.706024 92.195524 
L 230.388985 100.543729 
L 231.071945 104.068697 
L 231.754905 106.439414 
L 232.437866 105.4729 
L 233.120826 106.03225 
L 233.803787 104.570242 
L 234.486747 108.927621 
L 235.169707 106.127931 
L 235.852668 111.004289 
L 236.535628 107.546628 
L 237.218589 101.254069 
L 237.901549 103.403104 
L 238.584509 99.654573 
L 239.26747 102.923197 
L 239.95043 104.735282 
L 240.633391 106.090226 
L 241.316351 104.093173 
L 241.999312 108.524423 
L 242.682272 116.072349 
L 243.365232 121.727654 
L 244.048193 122.263759 
L 245.414114 125.282533 
L 246.097074 131.418907 
L 246.780034 129.441201 
L 247.462995 104.957442 
L 248.145955 97.352702 
L 248.828916 98.104473 
L 249.511876 99.619911 
L 250.194836 112.914755 
L 250.877797 120.379444 
L 251.560757 117.704764 
L 252.243718 132.136528 
L 252.926678 131.938023 
L 253.609639 124.339538 
L 254.292599 130.310804 
L 254.975559 133.948237 
L 255.65852 131.504059 
L 256.34148 132.903579 
L 257.024441 138.79841 
L 259.073322 164.687808 
L 259.756282 172.029743 
L 260.439243 173.721911 
L 261.122203 161.671495 
L 261.805164 159.510906 
L 262.488124 171.767348 
L 263.171084 148.648789 
L 263.854045 148.544015 
L 264.537005 146.508265 
L 265.902926 124.651602 
L 266.585886 128.865272 
L 267.268847 145.223056 
L 267.951807 138.45623 
L 268.634768 140.79037 
L 269.317728 166.765125 
L 270.000688 167.253339 
L 270.683649 170.165767 
L 271.366609 167.296855 
L 272.04957 167.248998 
L 272.73253 166.834416 
L 273.415491 147.536515 
L 274.098451 160.397293 
L 274.781411 178.854955 
L 275.464372 185.473868 
L 276.147332 204.473412 
L 276.830293 233.925484 
L 277.513253 241.149963 
L 278.196213 222.01823 
L 278.879174 217.91764 
L 279.562134 225.561555 
L 280.245095 226.478775 
L 280.928055 229.63825 
L 281.611015 228.56939 
L 282.293976 228.185779 
L 282.976936 221.93171 
L 283.659897 224.60051 
L 284.342857 224.303316 
L 285.025818 219.733211 
L 285.708778 210.371627 
L 286.391738 208.045007 
L 287.074699 202.810403 
L 287.757659 201.942886 
L 288.44062 205.370977 
L 289.12358 201.820576 
L 289.80654 208.434464 
L 290.489501 217.223913 
L 291.172461 222.389398 
L 291.855422 218.885213 
L 292.538382 226.377864 
L 293.221343 241.441995 
L 293.904303 250.52211 
L 294.587263 248.33137 
L 295.270224 245.620764 
L 295.953184 249.386865 
L 296.636145 255.466903 
L 297.319105 252.977056 
L 298.002065 247.500362 
L 299.367986 251.8722 
L 300.050947 251.863722 
L 300.733907 244.289474 
L 301.416867 243.932766 
L 302.099828 228.106712 
L 302.782788 229.656572 
L 304.148709 217.968847 
L 304.83167 218.139903 
L 305.51463 221.365934 
L 306.19759 222.561855 
L 306.880551 231.283518 
L 307.563511 237.46392 
L 308.246472 245.118432 
L 308.929432 242.029889 
L 309.612392 241.463155 
L 310.295353 255.498694 
L 310.978313 258.928768 
L 311.661274 264.059693 
L 313.027194 282.271915 
L 313.710155 283.219252 
L 314.393115 277.536464 
L 315.076076 265.866445 
L 315.759036 268.396186 
L 316.441997 274.890943 
L 317.124957 264.23427 
L 317.807917 264.849716 
L 318.490878 240.849179 
L 319.173838 234.614151 
L 319.856799 230.312321 
L 320.539759 223.972895 
L 321.222719 220.396173 
L 321.90568 215.248395 
L 322.58864 212.591765 
L 323.271601 217.652954 
L 323.954561 218.979595 
L 324.637522 218.531581 
L 325.320482 218.432175 
L 326.003442 199.599037 
L 326.686403 201.415669 
L 327.369363 192.491296 
L 328.052324 185.233897 
L 328.735284 185.401637 
L 329.418244 185.858402 
L 330.101205 178.204403 
L 330.784165 185.07108 
L 331.467126 189.836408 
L 332.150086 192.436567 
L 333.516007 201.342378 
L 334.198967 199.793406 
L 334.881928 206.893696 
L 335.564888 190.248084 
L 336.247849 190.925369 
L 336.930809 184.643577 
L 337.613769 182.982858 
L 338.29673 176.391361 
L 338.97969 157.891652 
L 339.662651 165.191062 
L 341.028571 171.141955 
L 341.711532 169.055169 
L 342.394492 170.27454 
L 343.077453 164.791898 
L 343.760413 153.438935 
L 344.443373 144.749507 
L 345.126334 157.80503 
L 345.809294 157.489992 
L 346.492255 154.230154 
L 347.175215 158.030746 
L 347.858176 155.137803 
L 349.224096 140.073467 
L 349.907057 136.246484 
L 350.590017 130.795189 
L 351.272978 122.031172 
L 351.955938 118.978659 
L 352.638898 112.118135 
L 354.004819 119.079672 
L 355.37074 129.593969 
L 356.053701 132.805643 
L 356.736661 132.995602 
L 357.419621 136.559198 
L 358.102582 136.009796 
L 358.785542 125.671785 
L 360.151463 95.053122 
L 360.834423 89.699797 
L 361.517384 91.066125 
L 362.883305 106.012561 
L 363.566265 107.57442 
L 364.249225 103.629879 
L 364.932186 112.511762 
L 365.615146 128.696233 
L 366.298107 140.729455 
L 366.981067 136.336456 
L 367.664028 145.50832 
L 368.346988 146.248673 
L 369.029948 148.825998 
L 369.712909 147.681523 
L 370.395869 144.611131 
L 371.07883 145.453865 
L 371.76179 141.999999 
L 372.44475 136.875569 
L 373.127711 133.458212 
L 374.493632 122.135638 
L 375.176592 118.518373 
L 375.859552 105.376946 
L 376.542513 101.066536 
L 377.225473 102.826217 
L 377.908434 102.711531 
L 378.591394 107.479936 
L 379.274355 122.704936 
L 379.957315 124.745027 
L 380.640275 117.222259 
L 382.006196 112.356123 
L 382.689157 119.934234 
L 383.372117 117.367541 
L 384.055077 113.451133 
L 384.738038 129.357143 
L 385.420998 130.849131 
L 386.786919 146.250109 
L 387.46988 164.08525 
L 388.15284 152.88355 
L 388.8358 132.696459 
L 389.518761 130.122519 
L 390.201721 133.288284 
L 390.884682 140.682247 
L 391.567642 142.226125 
L 392.250602 139.807859 
L 392.933563 140.966383 
L 393.616523 132.110754 
L 394.299484 126.959489 
L 394.982444 141.559541 
L 395.665404 129.672318 
L 396.348365 94.981814 
L 397.031325 108.567768 
L 397.714286 108.476053 
L 397.714286 108.476053 
" clip-path="url(#p421e835055)" style="fill: none; stroke: #4169e1; stroke-width: 1.5; stroke-linecap: square"/>
   </g>
   <g id="line2d_17">
    <path d="M 57.6 250.517426 
L 58.28296 250.434667 
L 58.965921 250.77425 
L 59.648881 250.826414 
L 60.331842 249.843219 
L 61.014802 248.40155 
L 61.697762 252.207202 
L 62.380723 246.267693 
L 63.746644 242.960168 
L 64.429604 247.469938 
L 65.112565 246.534463 
L 65.795525 248.108731 
L 67.161446 250.587367 
L 67.844406 249.607214 
L 68.527367 250.386844 
L 69.210327 251.725927 
L 69.893287 252.247163 
L 70.576248 247.729974 
L 71.259208 247.944478 
L 71.942169 241.072024 
L 72.625129 236.233097 
L 73.30809 233.504475 
L 73.99105 231.682648 
L 74.67401 233.861047 
L 75.356971 236.602864 
L 76.039931 232.605885 
L 76.722892 229.770815 
L 77.405852 233.921723 
L 78.088812 232.481524 
L 78.771773 226.421004 
L 79.454733 226.452659 
L 80.137694 232.209182 
L 80.820654 236.643679 
L 81.503614 233.539514 
L 82.186575 235.83089 
L 82.869535 232.999785 
L 83.552496 232.696335 
L 84.235456 235.935664 
L 84.918417 236.696938 
L 85.601377 235.947696 
L 86.284337 232.807536 
L 86.967298 228.845288 
L 87.650258 221.563174 
L 88.333219 224.886526 
L 89.699139 235.918811 
L 90.3821 238.420828 
L 91.06506 239.207022 
L 91.748021 245.141506 
L 92.430981 247.706969 
L 93.113941 247.707105 
L 93.796902 247.957468 
L 94.479862 243.706948 
L 95.162823 243.052566 
L 95.845783 245.268294 
L 96.528744 246.243593 
L 97.211704 245.100417 
L 97.894664 244.238233 
L 99.260585 236.863481 
L 99.943546 234.596786 
L 100.626506 240.996922 
L 101.309466 236.194914 
L 101.992427 239.118384 
L 102.675387 232.059833 
L 103.358348 231.73871 
L 104.041308 229.272756 
L 104.724269 231.547485 
L 105.407229 230.888797 
L 106.090189 229.968056 
L 106.77315 232.00466 
L 107.45611 232.316485 
L 108.139071 230.517663 
L 108.822031 234.409527 
L 109.504991 235.819473 
L 110.187952 231.96046 
L 110.870912 234.506472 
L 111.553873 238.385345 
L 112.236833 229.695439 
L 112.919793 227.702659 
L 113.602754 227.827977 
L 114.285714 231.417416 
L 114.968675 230.11467 
L 115.651635 233.592533 
L 116.334596 224.304889 
L 117.017556 223.030857 
L 117.700516 229.260758 
L 118.383477 232.317134 
L 119.066437 232.340584 
L 119.749398 231.51966 
L 120.432358 229.201107 
L 121.115318 229.555867 
L 122.481239 228.917074 
L 123.1642 226.165446 
L 123.84716 222.951756 
L 124.53012 226.481647 
L 125.896041 224.313059 
L 126.579002 227.136506 
L 127.261962 229.033811 
L 127.944923 230.279915 
L 128.627883 231.849226 
L 129.310843 231.397247 
L 130.676764 234.195297 
L 131.359725 235.15217 
L 132.042685 236.818837 
L 132.725645 233.427767 
L 133.408606 232.776052 
L 134.091566 230.878303 
L 134.774527 230.801116 
L 135.457487 231.196862 
L 136.140448 231.258119 
L 136.823408 233.600805 
L 137.506368 229.946212 
L 138.189329 230.65662 
L 138.872289 229.094283 
L 139.55525 232.013582 
L 140.23821 232.075181 
L 141.604131 235.22505 
L 142.287091 233.496306 
L 142.970052 235.563333 
L 143.653012 233.55264 
L 144.335972 235.077274 
L 145.018933 234.211944 
L 145.701893 233.891983 
L 146.384854 231.961486 
L 147.750775 224.355959 
L 148.433735 221.813776 
L 149.116695 224.179742 
L 149.799656 221.601324 
L 150.482616 218.225431 
L 151.165577 215.954018 
L 151.848537 213.28197 
L 152.531497 208.606477 
L 153.214458 207.750821 
L 153.897418 211.021018 
L 154.580379 210.603052 
L 155.263339 210.027806 
L 155.946299 209.216897 
L 156.62926 209.116397 
L 157.31222 207.496972 
L 157.995181 204.664295 
L 158.678141 205.506311 
L 159.361102 208.762184 
L 160.044062 212.71633 
L 160.727022 211.104324 
L 161.409983 209.77864 
L 162.092943 210.800258 
L 162.775904 209.928844 
L 163.458864 204.356948 
L 164.141824 208.95963 
L 164.824785 209.681182 
L 165.507745 208.644831 
L 166.190706 209.280548 
L 166.873666 207.824077 
L 167.556627 205.493424 
L 168.239587 205.331529 
L 168.922547 203.305214 
L 169.605508 202.227705 
L 170.288468 203.412551 
L 170.971429 199.265095 
L 171.654389 195.846199 
L 172.337349 194.91869 
L 173.02031 195.628243 
L 173.70327 195.76368 
L 174.386231 197.312378 
L 175.069191 191.492889 
L 175.752151 190.152814 
L 176.435112 189.862046 
L 177.118072 190.789966 
L 177.801033 183.553933 
L 178.483993 178.913615 
L 179.166954 179.286731 
L 179.849914 175.208908 
L 180.532874 175.906873 
L 181.215835 175.290026 
L 182.581756 174.887204 
L 183.264716 180.264696 
L 183.947676 179.078073 
L 185.313597 178.58169 
L 185.996558 181.891437 
L 186.679518 183.862545 
L 187.362478 180.344037 
L 188.045439 180.837959 
L 188.728399 183.98212 
L 189.41136 185.422045 
L 190.09432 190.196911 
L 190.777281 192.71561 
L 191.460241 193.719555 
L 192.143201 189.44726 
L 192.826162 190.960031 
L 193.509122 189.259659 
L 194.192083 189.096294 
L 194.875043 193.072489 
L 195.558003 190.238308 
L 196.240964 193.108006 
L 196.923924 194.989142 
L 197.606885 194.586867 
L 198.289845 195.859702 
L 198.972806 193.496881 
L 200.338726 190.989327 
L 201.021687 190.658632 
L 201.704647 190.683313 
L 202.387608 189.712595 
L 203.070568 187.987029 
L 203.753528 188.787443 
L 204.436489 191.120285 
L 205.119449 192.834262 
L 206.48537 192.785789 
L 207.16833 194.013126 
L 207.851291 194.646244 
L 208.534251 193.885141 
L 209.217212 194.299005 
L 209.900172 190.95716 
L 210.583133 189.695639 
L 211.266093 188.84224 
L 211.949053 188.364589 
L 212.632014 186.491384 
L 213.314974 187.807632 
L 213.997935 187.129049 
L 214.680895 186.790356 
L 215.363855 188.700924 
L 216.729776 182.205586 
L 217.412737 181.014279 
L 218.095697 175.584212 
L 218.778657 171.609829 
L 219.461618 172.26192 
L 220.827539 175.005582 
L 221.510499 177.272175 
L 222.19346 175.829413 
L 223.55938 177.839183 
L 224.242341 179.379506 
L 224.925301 180.507367 
L 225.608262 179.865942 
L 226.291222 179.570047 
L 226.974182 178.133813 
L 227.657143 178.887703 
L 228.340103 178.299502 
L 229.023064 178.275539 
L 229.706024 180.428881 
L 230.388985 173.046165 
L 231.071945 171.366987 
L 231.754905 171.792883 
L 232.437866 173.931424 
L 233.120826 171.898238 
L 233.803787 174.621664 
L 234.486747 171.206836 
L 235.169707 170.985871 
L 235.852668 173.040251 
L 236.535628 169.302591 
L 237.901549 167.828858 
L 238.584509 169.731974 
L 239.26747 170.07477 
L 239.95043 164.369522 
L 240.633391 163.866883 
L 241.316351 164.543826 
L 241.999312 163.808258 
L 242.682272 161.858344 
L 243.365232 165.162075 
L 244.048193 165.165117 
L 244.731153 164.223558 
L 245.414114 164.065867 
L 246.097074 162.570667 
L 246.780034 162.989282 
L 247.462995 163.970836 
L 248.145955 164.150472 
L 248.828916 163.943592 
L 250.194836 164.81381 
L 250.877797 163.339871 
L 251.560757 161.565218 
L 252.243718 160.355623 
L 252.926678 163.727413 
L 253.609639 165.422077 
L 254.292599 163.934602 
L 254.975559 163.760367 
L 256.34148 166.684315 
L 257.024441 166.307643 
L 257.707401 165.496256 
L 258.390361 169.853053 
L 259.073322 165.115072 
L 259.756282 156.208748 
L 260.439243 156.320016 
L 261.122203 157.340199 
L 261.805164 158.695724 
L 262.488124 158.726524 
L 263.171084 159.404218 
L 263.854045 158.837827 
L 264.537005 155.263428 
L 265.219966 153.694151 
L 265.902926 154.79323 
L 266.585886 149.408524 
L 267.268847 152.040372 
L 267.951807 150.247464 
L 268.634768 152.627582 
L 270.000688 155.000965 
L 270.683649 157.468456 
L 271.366609 154.152693 
L 272.04957 154.811142 
L 272.73253 154.883646 
L 273.415491 154.217984 
L 274.098451 154.576573 
L 274.781411 153.916517 
L 275.464372 154.255279 
L 276.147332 152.77423 
L 276.830293 149.320467 
L 278.196213 151.291472 
L 278.879174 150.442141 
L 279.562134 151.608596 
L 280.245095 152.027382 
L 280.928055 151.648146 
L 281.611015 151.989404 
L 282.293976 152.911615 
L 282.976936 153.115316 
L 283.659897 152.060369 
L 284.342857 145.964948 
L 285.025818 146.231992 
L 285.708778 146.91478 
L 286.391738 146.304222 
L 287.074699 146.056868 
L 287.757659 146.495105 
L 288.44062 147.824343 
L 289.12358 147.776281 
L 289.80654 146.065619 
L 290.489501 147.526328 
L 291.172461 144.314792 
L 291.855422 145.316549 
L 292.538382 145.291936 
L 293.221343 144.077761 
L 293.904303 144.03739 
L 294.587263 145.840553 
L 295.270224 144.981581 
L 295.953184 145.084919 
L 296.636145 147.107816 
L 297.319105 147.123472 
L 298.002065 149.214873 
L 298.685026 150.256625 
L 299.367986 149.93181 
L 300.050947 150.495502 
L 300.733907 154.593425 
L 301.416867 155.213383 
L 302.099828 158.472504 
L 302.782788 159.386272 
L 304.148709 150.540966 
L 304.83167 154.016607 
L 305.51463 156.46082 
L 306.19759 159.621525 
L 306.880551 157.799629 
L 307.563511 156.574344 
L 308.246472 156.392828 
L 308.929432 156.634542 
L 309.612392 155.520354 
L 310.295353 156.628594 
L 310.978313 156.246419 
L 311.661274 154.288232 
L 312.344234 154.054278 
L 313.027194 155.922664 
L 313.710155 156.196852 
L 314.393115 155.775981 
L 315.076076 158.104344 
L 315.759036 157.967677 
L 316.441997 156.654915 
L 317.124957 155.995236 
L 317.807917 155.058633 
L 318.490878 159.251588 
L 319.173838 161.148209 
L 319.856799 160.624889 
L 320.539759 161.102471 
L 321.222719 160.405394 
L 321.90568 161.985884 
L 322.58864 162.168767 
L 323.271601 163.176678 
L 323.954561 157.313228 
L 324.637522 157.178475 
L 325.320482 160.202206 
L 326.003442 161.204886 
L 326.686403 160.425563 
L 327.369363 157.270224 
L 328.052324 157.201891 
L 328.735284 156.174838 
L 329.418244 159.340431 
L 330.101205 158.135964 
L 330.784165 155.249345 
L 331.467126 154.445922 
L 332.150086 153.87765 
L 332.833046 154.400731 
L 333.516007 154.101178 
L 334.198967 151.528264 
L 334.881928 146.67392 
L 335.564888 150.512183 
L 336.247849 151.856634 
L 336.930809 152.116055 
L 337.613769 152.933356 
L 338.29673 156.611536 
L 338.97969 155.230851 
L 340.345611 153.244805 
L 341.028571 151.357721 
L 342.394492 146.386229 
L 343.077453 144.794357 
L 343.760413 139.082649 
L 344.443373 135.883965 
L 345.126334 136.584494 
L 345.809294 136.559403 
L 346.492255 138.121057 
L 347.175215 137.717346 
L 347.858176 135.831835 
L 348.541136 135.142347 
L 349.224096 136.386809 
L 349.907057 135.379514 
L 350.590017 137.013296 
L 352.638898 127.471051 
L 353.321859 127.408152 
L 354.004819 126.139864 
L 354.68778 125.965868 
L 355.37074 125.567832 
L 356.736661 126.76471 
L 357.419621 125.146858 
L 358.102582 127.7745 
L 358.785542 129.098645 
L 359.468503 132.676154 
L 360.151463 132.015962 
L 360.834423 132.558425 
L 361.517384 131.053311 
L 362.200344 127.721652 
L 362.883305 119.656285 
L 363.566265 119.59783 
L 364.249225 113.402045 
L 364.932186 109.06586 
L 365.615146 107.981823 
L 366.298107 106.647901 
L 366.981067 104.087977 
L 367.664028 104.309625 
L 368.346988 108.033235 
L 369.029948 108.1216 
L 369.712909 106.522823 
L 370.395869 105.656844 
L 371.07883 108.562025 
L 371.76179 109.324974 
L 372.44475 105.86075 
L 373.127711 104.160276 
L 373.810671 103.464464 
L 374.493632 104.80888 
L 375.176592 104.185742 
L 375.859552 106.274033 
L 376.542513 104.749673 
L 377.225473 107.238461 
L 377.908434 106.656481 
L 378.591394 106.608863 
L 379.274355 106.912245 
L 379.957315 108.233211 
L 380.640275 106.47206 
L 381.323236 99.858787 
L 382.006196 99.848361 
L 382.689157 99.126809 
L 383.372117 98.585781 
L 384.055077 100.583724 
L 384.738038 97.155291 
L 385.420998 94.649616 
L 386.103959 93.277887 
L 386.786919 97.335884 
L 387.46988 97.843992 
L 388.15284 97.452348 
L 388.8358 95.452936 
L 389.518761 94.290583 
L 390.201721 97.404662 
L 390.884682 95.878251 
L 391.567642 99.014481 
L 392.250602 100.928912 
L 392.933563 101.729087 
L 393.616523 102.292574 
L 394.299484 107.213507 
L 394.982444 106.90428 
L 395.665404 107.999667 
L 396.348365 106.782449 
L 397.031325 107.965654 
L 397.714286 105.74914 
L 397.714286 105.74914 
" clip-path="url(#p421e835055)" style="fill: none; stroke: #ff8c00; stroke-width: 1.5; stroke-linecap: square"/>
   </g>
   <g id="line2d_18">
    <path d="M 57.6 251.336505 
L 397.714286 98.124642 
L 397.714286 98.124642 
" clip-path="url(#p421e835055)" style="fill: none; stroke: #000000; stroke-width: 2.5; stroke-linecap: square"/>
   </g>
   <g id="patch_3">
    <path d="M 57.6 307.584 
L 57.6 41.472 
" style="fill: none; stroke: #000000; stroke-width: 0.8; stroke-linejoin: miter; stroke-linecap: square"/>
   </g>
   <g id="patch_4">
    <path d="M 414.72 307.584 
L 414.72 41.472 
" style="fill: none; stroke: #000000; stroke-width: 0.8; stroke-linejoin: miter; stroke-linecap: square"/>
   </g>
   <g id="patch_5">
    <path d="M 57.6 307.584 
L 414.72 307.584 
" style="fill: none; stroke: #000000; stroke-width: 0.8; stroke-linejoin: miter; stroke-linecap: square"/>
   </g>
   <g id="patch_6">
    <path d="M 57.6 41.472 
L 414.72 41.472 
" style="fill: none; stroke: #000000; stroke-width: 0.8; stroke-linejoin: miter; stroke-linecap: square"/>
   </g>
   <g id="text_18">
    <!-- Comparison Between Particle Filters -->
    <g transform="translate(117.30225 35.472) scale(0.132 -0.132)">
     <defs>
      <path id="DejaVuSans-43" d="M 4122 4306 
L 4122 3641 
Q 3803 3938 3442 4084 
Q 3081 4231 2675 4231 
Q 1875 4231 1450 3742 
Q 1025 3253 1025 2328 
Q 1025 1406 1450 917 
Q 1875 428 2675 428 
Q 3081 428 3442 575 
Q 3803 722 4122 1019 
L 4122 359 
Q 3791 134 3420 21 
Q 3050 -91 2638 -91 
Q 1578 -91 968 557 
Q 359 1206 359 2328 
Q 359 3453 968 4101 
Q 1578 4750 2638 4750 
Q 3056 4750 3426 4639 
Q 3797 4528 4122 4306 
z
" transform="scale(0.015625)"/>
      <path id="DejaVuSans-61" d="M 2194 1759 
Q 1497 1759 1228 1600 
Q 959 1441 959 1056 
Q 959 750 1161 570 
Q 1363 391 1709 391 
Q 2188 391 2477 730 
Q 2766 1069 2766 1631 
L 2766 1759 
L 2194 1759 
z
M 3341 1997 
L 3341 0 
L 2766 0 
L 2766 531 
Q 2569 213 2275 61 
Q 1981 -91 1556 -91 
Q 1019 -91 701 211 
Q 384 513 384 1019 
Q 384 1609 779 1909 
Q 1175 2209 1959 2209 
L 2766 2209 
L 2766 2266 
Q 2766 2663 2505 2880 
Q 2244 3097 1772 3097 
Q 1472 3097 1187 3025 
Q 903 2953 641 2809 
L 641 3341 
Q 956 3463 1253 3523 
Q 1550 3584 1831 3584 
Q 2591 3584 2966 3190 
Q 3341 2797 3341 1997 
z
" transform="scale(0.015625)"/>
      <path id="DejaVuSans-72" d="M 2631 2963 
Q 2534 3019 2420 3045 
Q 2306 3072 2169 3072 
Q 1681 3072 1420 2755 
Q 1159 2438 1159 1844 
L 1159 0 
L 581 0 
L 581 3500 
L 1159 3500 
L 1159 2956 
Q 1341 3275 1631 3429 
Q 1922 3584 2338 3584 
Q 2397 3584 2469 3576 
Q 2541 3569 2628 3553 
L 2631 2963 
z
" transform="scale(0.015625)"/>
      <path id="DejaVuSans-42" d="M 1259 2228 
L 1259 519 
L 2272 519 
Q 2781 519 3026 730 
Q 3272 941 3272 1375 
Q 3272 1813 3026 2020 
Q 2781 2228 2272 2228 
L 1259 2228 
z
M 1259 4147 
L 1259 2741 
L 2194 2741 
Q 2656 2741 2882 2914 
Q 3109 3088 3109 3444 
Q 3109 3797 2882 3972 
Q 2656 4147 2194 4147 
L 1259 4147 
z
M 628 4666 
L 2241 4666 
Q 2963 4666 3353 4366 
Q 3744 4066 3744 3513 
Q 3744 3084 3544 2831 
Q 3344 2578 2956 2516 
Q 3422 2416 3680 2098 
Q 3938 1781 3938 1306 
Q 3938 681 3513 340 
Q 3088 0 2303 0 
L 628 0 
L 628 4666 
z
" transform="scale(0.015625)"/>
      <path id="DejaVuSans-77" d="M 269 3500 
L 844 3500 
L 1563 769 
L 2278 3500 
L 2956 3500 
L 3675 769 
L 4391 3500 
L 4966 3500 
L 4050 0 
L 3372 0 
L 2619 2869 
L 1863 0 
L 1184 0 
L 269 3500 
z
" transform="scale(0.015625)"/>
      <path id="DejaVuSans-50" d="M 1259 4147 
L 1259 2394 
L 2053 2394 
Q 2494 2394 2734 2622 
Q 2975 2850 2975 3272 
Q 2975 3691 2734 3919 
Q 2494 4147 2053 4147 
L 1259 4147 
z
M 628 4666 
L 2053 4666 
Q 2838 4666 3239 4311 
Q 3641 3956 3641 3272 
Q 3641 2581 3239 2228 
Q 2838 1875 2053 1875 
L 1259 1875 
L 1259 0 
L 628 0 
L 628 4666 
z
" transform="scale(0.015625)"/>
      <path id="DejaVuSans-63" d="M 3122 3366 
L 3122 2828 
Q 2878 2963 2633 3030 
Q 2388 3097 2138 3097 
Q 1578 3097 1268 2742 
Q 959 2388 959 1747 
Q 959 1106 1268 751 
Q 1578 397 2138 397 
Q 2388 397 2633 464 
Q 2878 531 3122 666 
L 3122 134 
Q 2881 22 2623 -34 
Q 2366 -91 2075 -91 
Q 1284 -91 818 406 
Q 353 903 353 1747 
Q 353 2603 823 3093 
Q 1294 3584 2113 3584 
Q 2378 3584 2631 3529 
Q 2884 3475 3122 3366 
z
" transform="scale(0.015625)"/>
      <path id="DejaVuSans-6c" d="M 603 4863 
L 1178 4863 
L 1178 0 
L 603 0 
L 603 4863 
z
" transform="scale(0.015625)"/>
      <path id="DejaVuSans-46" d="M 628 4666 
L 3309 4666 
L 3309 4134 
L 1259 4134 
L 1259 2759 
L 3109 2759 
L 3109 2228 
L 1259 2228 
L 1259 0 
L 628 0 
L 628 4666 
z
" transform="scale(0.015625)"/>
     </defs>
     <use xlink:href="#DejaVuSans-43"/>
     <use xlink:href="#DejaVuSans-6f" x="69.824219"/>
     <use xlink:href="#DejaVuSans-6d" x="131.005859"/>
     <use xlink:href="#DejaVuSans-70" x="228.417969"/>
     <use xlink:href="#DejaVuSans-61" x="291.894531"/>
     <use xlink:href="#DejaVuSans-72" x="353.173828"/>
     <use xlink:href="#DejaVuSans-69" x="394.287109"/>
     <use xlink:href="#DejaVuSans-73" x="422.070312"/>
     <use xlink:href="#DejaVuSans-6f" x="474.169922"/>
     <use xlink:href="#DejaVuSans-6e" x="535.351562"/>
     <use xlink:href="#DejaVuSans-20" x="598.730469"/>
     <use xlink:href="#DejaVuSans-42" x="630.517578"/>
     <use xlink:href="#DejaVuSans-65" x="699.121094"/>
     <use xlink:href="#DejaVuSans-74" x="760.644531"/>
     <use xlink:href="#DejaVuSans-77" x="799.853516"/>
     <use xlink:href="#DejaVuSans-65" x="881.640625"/>
     <use xlink:href="#DejaVuSans-65" x="943.164062"/>
     <use xlink:href="#DejaVuSans-6e" x="1004.6875"/>
     <use xlink:href="#DejaVuSans-20" x="1068.066406"/>
     <use xlink:href="#DejaVuSans-50" x="1099.853516"/>
     <use xlink:href="#DejaVuSans-61" x="1155.65625"/>
     <use xlink:href="#DejaVuSans-72" x="1216.935547"/>
     <use xlink:href="#DejaVuSans-74" x="1258.048828"/>
     <use xlink:href="#DejaVuSans-69" x="1297.257812"/>
     <use xlink:href="#DejaVuSans-63" x="1325.041016"/>
     <use xlink:href="#DejaVuSans-6c" x="1380.021484"/>
     <use xlink:href="#DejaVuSans-65" x="1407.804688"/>
     <use xlink:href="#DejaVuSans-20" x="1469.328125"/>
     <use xlink:href="#DejaVuSans-46" x="1501.115234"/>
     <use xlink:href="#DejaVuSans-69" x="1551.384766"/>
     <use xlink:href="#DejaVuSans-6c" x="1579.167969"/>
     <use xlink:href="#DejaVuSans-74" x="1606.951172"/>
     <use xlink:href="#DejaVuSans-65" x="1646.160156"/>
     <use xlink:href="#DejaVuSans-72" x="1707.683594"/>
     <use xlink:href="#DejaVuSans-73" x="1748.796875"/>
    </g>
   </g>
   <g id="legend_1">
    <g id="patch_7">
     <path d="M 65.3 98.709812 
L 172.323125 98.709812 
Q 174.523125 98.709812 174.523125 96.509812 
L 174.523125 49.172 
Q 174.523125 46.972 172.323125 46.972 
L 65.3 46.972 
Q 63.1 46.972 63.1 49.172 
L 63.1 96.509812 
Q 63.1 98.709812 65.3 98.709812 
z
" style="fill: #ffffff; opacity: 0.8; stroke: #cccccc; stroke-linejoin: miter"/>
    </g>
    <g id="line2d_19">
     <path d="M 67.5 55.880281 
L 78.5 55.880281 
L 89.5 55.880281 
" style="fill: none; stroke: #4169e1; stroke-width: 1.5; stroke-linecap: square"/>
    </g>
    <g id="text_19">
     <!-- Move X-Y -->
     <g transform="translate(98.3 59.730281) scale(0.11 -0.11)">
      <defs>
       <path id="DejaVuSans-4d" d="M 628 4666 
L 1569 4666 
L 2759 1491 
L 3956 4666 
L 4897 4666 
L 4897 0 
L 4281 0 
L 4281 4097 
L 3078 897 
L 2444 897 
L 1241 4097 
L 1241 0 
L 628 0 
L 628 4666 
z
" transform="scale(0.015625)"/>
       <path id="DejaVuSans-76" d="M 191 3500 
L 800 3500 
L 1894 563 
L 2988 3500 
L 3597 3500 
L 2284 0 
L 1503 0 
L 191 3500 
z
" transform="scale(0.015625)"/>
       <path id="DejaVuSans-59" d="M -13 4666 
L 666 4666 
L 1959 2747 
L 3244 4666 
L 3922 4666 
L 2272 2222 
L 2272 0 
L 1638 0 
L 1638 2222 
L -13 4666 
z
" transform="scale(0.015625)"/>
      </defs>
      <use xlink:href="#DejaVuSans-4d"/>
      <use xlink:href="#DejaVuSans-6f" x="86.279297"/>
      <use xlink:href="#DejaVuSans-76" x="147.460938"/>
      <use xlink:href="#DejaVuSans-65" x="206.640625"/>
      <use xlink:href="#DejaVuSans-20" x="268.164062"/>
      <use xlink:href="#DejaVuSans-58" x="299.951172"/>
      <use xlink:href="#DejaVuSans-2d" x="363.457031"/>
      <use xlink:href="#DejaVuSans-59" x="387.666016"/>
     </g>
    </g>
    <g id="line2d_20">
     <path d="M 67.5 72.026219 
L 78.5 72.026219 
L 89.5 72.026219 
" style="fill: none; stroke: #ff8c00; stroke-width: 1.5; stroke-linecap: square"/>
    </g>
    <g id="text_20">
     <!-- Move X -->
     <g transform="translate(98.3 75.876219) scale(0.11 -0.11)">
      <use xlink:href="#DejaVuSans-4d"/>
      <use xlink:href="#DejaVuSans-6f" x="86.279297"/>
      <use xlink:href="#DejaVuSans-76" x="147.460938"/>
      <use xlink:href="#DejaVuSans-65" x="206.640625"/>
      <use xlink:href="#DejaVuSans-20" x="268.164062"/>
      <use xlink:href="#DejaVuSans-58" x="299.951172"/>
     </g>
    </g>
    <g id="line2d_21">
     <path d="M 67.5 88.172156 
L 78.5 88.172156 
L 89.5 88.172156 
" style="fill: none; stroke: #000000; stroke-width: 2.5; stroke-linecap: square"/>
    </g>
    <g id="text_21">
     <!-- Ground Truth -->
     <g transform="translate(98.3 92.022156) scale(0.11 -0.11)">
      <defs>
       <path id="DejaVuSans-47" d="M 3809 666 
L 3809 1919 
L 2778 1919 
L 2778 2438 
L 4434 2438 
L 4434 434 
Q 4069 175 3628 42 
Q 3188 -91 2688 -91 
Q 1594 -91 976 548 
Q 359 1188 359 2328 
Q 359 3472 976 4111 
Q 1594 4750 2688 4750 
Q 3144 4750 3555 4637 
Q 3966 4525 4313 4306 
L 4313 3634 
Q 3963 3931 3569 4081 
Q 3175 4231 2741 4231 
Q 1884 4231 1454 3753 
Q 1025 3275 1025 2328 
Q 1025 1384 1454 906 
Q 1884 428 2741 428 
Q 3075 428 3337 486 
Q 3600 544 3809 666 
z
" transform="scale(0.015625)"/>
       <path id="DejaVuSans-75" d="M 544 1381 
L 544 3500 
L 1119 3500 
L 1119 1403 
Q 1119 906 1312 657 
Q 1506 409 1894 409 
Q 2359 409 2629 706 
Q 2900 1003 2900 1516 
L 2900 3500 
L 3475 3500 
L 3475 0 
L 2900 0 
L 2900 538 
Q 2691 219 2414 64 
Q 2138 -91 1772 -91 
Q 1169 -91 856 284 
Q 544 659 544 1381 
z
M 1991 3584 
L 1991 3584 
z
" transform="scale(0.015625)"/>
       <path id="DejaVuSans-64" d="M 2906 2969 
L 2906 4863 
L 3481 4863 
L 3481 0 
L 2906 0 
L 2906 525 
Q 2725 213 2448 61 
Q 2172 -91 1784 -91 
Q 1150 -91 751 415 
Q 353 922 353 1747 
Q 353 2572 751 3078 
Q 1150 3584 1784 3584 
Q 2172 3584 2448 3432 
Q 2725 3281 2906 2969 
z
M 947 1747 
Q 947 1113 1208 752 
Q 1469 391 1925 391 
Q 2381 391 2643 752 
Q 2906 1113 2906 1747 
Q 2906 2381 2643 2742 
Q 2381 3103 1925 3103 
Q 1469 3103 1208 2742 
Q 947 2381 947 1747 
z
" transform="scale(0.015625)"/>
       <path id="DejaVuSans-68" d="M 3513 2113 
L 3513 0 
L 2938 0 
L 2938 2094 
Q 2938 2591 2744 2837 
Q 2550 3084 2163 3084 
Q 1697 3084 1428 2787 
Q 1159 2491 1159 1978 
L 1159 0 
L 581 0 
L 581 4863 
L 1159 4863 
L 1159 2956 
Q 1366 3272 1645 3428 
Q 1925 3584 2291 3584 
Q 2894 3584 3203 3211 
Q 3513 2838 3513 2113 
z
" transform="scale(0.015625)"/>
      </defs>
      <use xlink:href="#DejaVuSans-47"/>
      <use xlink:href="#DejaVuSans-72" x="77.490234"/>
      <use xlink:href="#DejaVuSans-6f" x="116.353516"/>
      <use xlink:href="#DejaVuSans-75" x="177.535156"/>
      <use xlink:href="#DejaVuSans-6e" x="240.914062"/>
      <use xlink:href="#DejaVuSans-64" x="304.292969"/>
      <use xlink:href="#DejaVuSans-20" x="367.769531"/>
      <use xlink:href="#DejaVuSans-54" x="399.556641"/>
      <use xlink:href="#DejaVuSans-72" x="445.890625"/>
      <use xlink:href="#DejaVuSans-75" x="487.003906"/>
      <use xlink:href="#DejaVuSans-74" x="550.382812"/>
      <use xlink:href="#DejaVuSans-68" x="589.591797"/>
     </g>
    </g>
   </g>
  </g>
 </g>
 <defs>
  <clipPath id="p421e835055">
   <rect x="57.6" y="41.472" width="357.12" height="266.112"/>
  </clipPath>
 </defs>
</svg>
