<?xml version="1.0" encoding="utf-8" standalone="no"?>
<!DOCTYPE svg PUBLIC "-//W3C//DTD SVG 1.1//EN"
  "http://www.w3.org/Graphics/SVG/1.1/DTD/svg11.dtd">
<svg xmlns:xlink="http://www.w3.org/1999/xlink" width="460.8pt" height="345.6pt" viewBox="0 0 460.8 345.6" xmlns="http://www.w3.org/2000/svg" version="1.1">
 <metadata>
  <rdf:RDF xmlns:dc="http://purl.org/dc/elements/1.1/" xmlns:cc="http://creativecommons.org/ns#" xmlns:rdf="http://www.w3.org/1999/02/22-rdf-syntax-ns#">
   <cc:Work>
    <dc:type rdf:resource="http://purl.org/dc/dcmitype/StillImage"/>
    <dc:date>2023-06-19T14:07:50.740381</dc:date>
    <dc:format>image/svg+xml</dc:format>
    <dc:creator>
     <cc:Agent>
      <dc:title>Matplotlib v3.6.1, https://matplotlib.org/</dc:title>
     </cc:Agent>
    </dc:creator>
   </cc:Work>
  </rdf:RDF>
 </metadata>
 <defs>
  <style type="text/css">*{stroke-linejoin: round; stroke-linecap: butt}</style>
 </defs>
 <g id="figure_1">
  <g id="patch_1">
   <path d="M 0 345.6 
L 460.8 345.6 
L 460.8 0 
L 0 0 
z
" style="fill: #ffffff"/>
  </g>
  <g id="axes_1">
   <g id="patch_2">
    <path d="M 57.6 307.584 
L 414.72 307.584 
L 414.72 41.472 
L 57.6 41.472 
z
" style="fill: #ffffff"/>
   </g>
   <g id="matplotlib.axis_1">
    <g id="xtick_1">
     <g id="line2d_1">
      <defs>
       <path id="me145bef092" d="M 0 0 
L 0 3.5 
" style="stroke: #000000; stroke-width: 0.8"/>
      </defs>
      <g>
       <use xlink:href="#me145bef092" x="57.6" y="307.584" style="stroke: #000000; stroke-width: 0.8"/>
      </g>
     </g>
     <g id="text_1">
      <!-- 0 -->
      <g transform="translate(54.100625 322.942281) scale(0.11 -0.11)">
       <defs>
        <path id="DejaVuSans-30" d="M 2034 4250 
Q 1547 4250 1301 3770 
Q 1056 3291 1056 2328 
Q 1056 1369 1301 889 
Q 1547 409 2034 409 
Q 2525 409 2770 889 
Q 3016 1369 3016 2328 
Q 3016 3291 2770 3770 
Q 2525 4250 2034 4250 
z
M 2034 4750 
Q 2819 4750 3233 4129 
Q 3647 3509 3647 2328 
Q 3647 1150 3233 529 
Q 2819 -91 2034 -91 
Q 1250 -91 836 529 
Q 422 1150 422 2328 
Q 422 3509 836 4129 
Q 1250 4750 2034 4750 
z
" transform="scale(0.015625)"/>
       </defs>
       <use xlink:href="#DejaVuSans-30"/>
      </g>
     </g>
    </g>
    <g id="xtick_2">
     <g id="line2d_2">
      <g>
       <use xlink:href="#me145bef092" x="125.622857" y="307.584" style="stroke: #000000; stroke-width: 0.8"/>
      </g>
     </g>
     <g id="text_2">
      <!-- 100 -->
      <g transform="translate(115.124732 322.942281) scale(0.11 -0.11)">
       <defs>
        <path id="DejaVuSans-31" d="M 794 531 
L 1825 531 
L 1825 4091 
L 703 3866 
L 703 4441 
L 1819 4666 
L 2450 4666 
L 2450 531 
L 3481 531 
L 3481 0 
L 794 0 
L 794 531 
z
" transform="scale(0.015625)"/>
       </defs>
       <use xlink:href="#DejaVuSans-31"/>
       <use xlink:href="#DejaVuSans-30" x="63.623047"/>
       <use xlink:href="#DejaVuSans-30" x="127.246094"/>
      </g>
     </g>
    </g>
    <g id="xtick_3">
     <g id="line2d_3">
      <g>
       <use xlink:href="#me145bef092" x="193.645714" y="307.584" style="stroke: #000000; stroke-width: 0.8"/>
      </g>
     </g>
     <g id="text_3">
      <!-- 200 -->
      <g transform="translate(183.147589 322.942281) scale(0.11 -0.11)">
       <defs>
        <path id="DejaVuSans-32" d="M 1228 531 
L 3431 531 
L 3431 0 
L 469 0 
L 469 531 
Q 828 903 1448 1529 
Q 2069 2156 2228 2338 
Q 2531 2678 2651 2914 
Q 2772 3150 2772 3378 
Q 2772 3750 2511 3984 
Q 2250 4219 1831 4219 
Q 1534 4219 1204 4116 
Q 875 4013 500 3803 
L 500 4441 
Q 881 4594 1212 4672 
Q 1544 4750 1819 4750 
Q 2544 4750 2975 4387 
Q 3406 4025 3406 3419 
Q 3406 3131 3298 2873 
Q 3191 2616 2906 2266 
Q 2828 2175 2409 1742 
Q 1991 1309 1228 531 
z
" transform="scale(0.015625)"/>
       </defs>
       <use xlink:href="#DejaVuSans-32"/>
       <use xlink:href="#DejaVuSans-30" x="63.623047"/>
       <use xlink:href="#DejaVuSans-30" x="127.246094"/>
      </g>
     </g>
    </g>
    <g id="xtick_4">
     <g id="line2d_4">
      <g>
       <use xlink:href="#me145bef092" x="261.668571" y="307.584" style="stroke: #000000; stroke-width: 0.8"/>
      </g>
     </g>
     <g id="text_4">
      <!-- 300 -->
      <g transform="translate(251.170446 322.942281) scale(0.11 -0.11)">
       <defs>
        <path id="DejaVuSans-33" d="M 2597 2516 
Q 3050 2419 3304 2112 
Q 3559 1806 3559 1356 
Q 3559 666 3084 287 
Q 2609 -91 1734 -91 
Q 1441 -91 1130 -33 
Q 819 25 488 141 
L 488 750 
Q 750 597 1062 519 
Q 1375 441 1716 441 
Q 2309 441 2620 675 
Q 2931 909 2931 1356 
Q 2931 1769 2642 2001 
Q 2353 2234 1838 2234 
L 1294 2234 
L 1294 2753 
L 1863 2753 
Q 2328 2753 2575 2939 
Q 2822 3125 2822 3475 
Q 2822 3834 2567 4026 
Q 2313 4219 1838 4219 
Q 1578 4219 1281 4162 
Q 984 4106 628 3988 
L 628 4550 
Q 988 4650 1302 4700 
Q 1616 4750 1894 4750 
Q 2613 4750 3031 4423 
Q 3450 4097 3450 3541 
Q 3450 3153 3228 2886 
Q 3006 2619 2597 2516 
z
" transform="scale(0.015625)"/>
       </defs>
       <use xlink:href="#DejaVuSans-33"/>
       <use xlink:href="#DejaVuSans-30" x="63.623047"/>
       <use xlink:href="#DejaVuSans-30" x="127.246094"/>
      </g>
     </g>
    </g>
    <g id="xtick_5">
     <g id="line2d_5">
      <g>
       <use xlink:href="#me145bef092" x="329.691429" y="307.584" style="stroke: #000000; stroke-width: 0.8"/>
      </g>
     </g>
     <g id="text_5">
      <!-- 400 -->
      <g transform="translate(319.193304 322.942281) scale(0.11 -0.11)">
       <defs>
        <path id="DejaVuSans-34" d="M 2419 4116 
L 825 1625 
L 2419 1625 
L 2419 4116 
z
M 2253 4666 
L 3047 4666 
L 3047 1625 
L 3713 1625 
L 3713 1100 
L 3047 1100 
L 3047 0 
L 2419 0 
L 2419 1100 
L 313 1100 
L 313 1709 
L 2253 4666 
z
" transform="scale(0.015625)"/>
       </defs>
       <use xlink:href="#DejaVuSans-34"/>
       <use xlink:href="#DejaVuSans-30" x="63.623047"/>
       <use xlink:href="#DejaVuSans-30" x="127.246094"/>
      </g>
     </g>
    </g>
    <g id="xtick_6">
     <g id="line2d_6">
      <g>
       <use xlink:href="#me145bef092" x="397.714286" y="307.584" style="stroke: #000000; stroke-width: 0.8"/>
      </g>
     </g>
     <g id="text_6">
      <!-- 500 -->
      <g transform="translate(387.216161 322.942281) scale(0.11 -0.11)">
       <defs>
        <path id="DejaVuSans-35" d="M 691 4666 
L 3169 4666 
L 3169 4134 
L 1269 4134 
L 1269 2991 
Q 1406 3038 1543 3061 
Q 1681 3084 1819 3084 
Q 2600 3084 3056 2656 
Q 3513 2228 3513 1497 
Q 3513 744 3044 326 
Q 2575 -91 1722 -91 
Q 1428 -91 1123 -41 
Q 819 9 494 109 
L 494 744 
Q 775 591 1075 516 
Q 1375 441 1709 441 
Q 2250 441 2565 725 
Q 2881 1009 2881 1497 
Q 2881 1984 2565 2268 
Q 2250 2553 1709 2553 
Q 1456 2553 1204 2497 
Q 953 2441 691 2322 
L 691 4666 
z
" transform="scale(0.015625)"/>
       </defs>
       <use xlink:href="#DejaVuSans-35"/>
       <use xlink:href="#DejaVuSans-30" x="63.623047"/>
       <use xlink:href="#DejaVuSans-30" x="127.246094"/>
      </g>
     </g>
    </g>
    <g id="text_7">
     <!-- Time [s] -->
     <g transform="translate(213.798203 337.588219) scale(0.11 -0.11)">
      <defs>
       <path id="DejaVuSans-54" d="M -19 4666 
L 3928 4666 
L 3928 4134 
L 2272 4134 
L 2272 0 
L 1638 0 
L 1638 4134 
L -19 4134 
L -19 4666 
z
" transform="scale(0.015625)"/>
       <path id="DejaVuSans-69" d="M 603 3500 
L 1178 3500 
L 1178 0 
L 603 0 
L 603 3500 
z
M 603 4863 
L 1178 4863 
L 1178 4134 
L 603 4134 
L 603 4863 
z
" transform="scale(0.015625)"/>
       <path id="DejaVuSans-6d" d="M 3328 2828 
Q 3544 3216 3844 3400 
Q 4144 3584 4550 3584 
Q 5097 3584 5394 3201 
Q 5691 2819 5691 2113 
L 5691 0 
L 5113 0 
L 5113 2094 
Q 5113 2597 4934 2840 
Q 4756 3084 4391 3084 
Q 3944 3084 3684 2787 
Q 3425 2491 3425 1978 
L 3425 0 
L 2847 0 
L 2847 2094 
Q 2847 2600 2669 2842 
Q 2491 3084 2119 3084 
Q 1678 3084 1418 2786 
Q 1159 2488 1159 1978 
L 1159 0 
L 581 0 
L 581 3500 
L 1159 3500 
L 1159 2956 
Q 1356 3278 1631 3431 
Q 1906 3584 2284 3584 
Q 2666 3584 2933 3390 
Q 3200 3197 3328 2828 
z
" transform="scale(0.015625)"/>
       <path id="DejaVuSans-65" d="M 3597 1894 
L 3597 1613 
L 953 1613 
Q 991 1019 1311 708 
Q 1631 397 2203 397 
Q 2534 397 2845 478 
Q 3156 559 3463 722 
L 3463 178 
Q 3153 47 2828 -22 
Q 2503 -91 2169 -91 
Q 1331 -91 842 396 
Q 353 884 353 1716 
Q 353 2575 817 3079 
Q 1281 3584 2069 3584 
Q 2775 3584 3186 3129 
Q 3597 2675 3597 1894 
z
M 3022 2063 
Q 3016 2534 2758 2815 
Q 2500 3097 2075 3097 
Q 1594 3097 1305 2825 
Q 1016 2553 972 2059 
L 3022 2063 
z
" transform="scale(0.015625)"/>
       <path id="DejaVuSans-20" transform="scale(0.015625)"/>
       <path id="DejaVuSans-5b" d="M 550 4863 
L 1875 4863 
L 1875 4416 
L 1125 4416 
L 1125 -397 
L 1875 -397 
L 1875 -844 
L 550 -844 
L 550 4863 
z
" transform="scale(0.015625)"/>
       <path id="DejaVuSans-73" d="M 2834 3397 
L 2834 2853 
Q 2591 2978 2328 3040 
Q 2066 3103 1784 3103 
Q 1356 3103 1142 2972 
Q 928 2841 928 2578 
Q 928 2378 1081 2264 
Q 1234 2150 1697 2047 
L 1894 2003 
Q 2506 1872 2764 1633 
Q 3022 1394 3022 966 
Q 3022 478 2636 193 
Q 2250 -91 1575 -91 
Q 1294 -91 989 -36 
Q 684 19 347 128 
L 347 722 
Q 666 556 975 473 
Q 1284 391 1588 391 
Q 1994 391 2212 530 
Q 2431 669 2431 922 
Q 2431 1156 2273 1281 
Q 2116 1406 1581 1522 
L 1381 1569 
Q 847 1681 609 1914 
Q 372 2147 372 2553 
Q 372 3047 722 3315 
Q 1072 3584 1716 3584 
Q 2034 3584 2315 3537 
Q 2597 3491 2834 3397 
z
" transform="scale(0.015625)"/>
       <path id="DejaVuSans-5d" d="M 1947 4863 
L 1947 -844 
L 622 -844 
L 622 -397 
L 1369 -397 
L 1369 4416 
L 622 4416 
L 622 4863 
L 1947 4863 
z
" transform="scale(0.015625)"/>
      </defs>
      <use xlink:href="#DejaVuSans-54"/>
      <use xlink:href="#DejaVuSans-69" x="57.958984"/>
      <use xlink:href="#DejaVuSans-6d" x="85.742188"/>
      <use xlink:href="#DejaVuSans-65" x="183.154297"/>
      <use xlink:href="#DejaVuSans-20" x="244.677734"/>
      <use xlink:href="#DejaVuSans-5b" x="276.464844"/>
      <use xlink:href="#DejaVuSans-73" x="315.478516"/>
      <use xlink:href="#DejaVuSans-5d" x="367.578125"/>
     </g>
    </g>
   </g>
   <g id="matplotlib.axis_2">
    <g id="ytick_1">
     <g id="line2d_7">
      <defs>
       <path id="m3f37940c33" d="M 0 0 
L -3.5 0 
" style="stroke: #000000; stroke-width: 0.8"/>
      </defs>
      <g>
       <use xlink:href="#m3f37940c33" x="57.6" y="290.882593" style="stroke: #000000; stroke-width: 0.8"/>
      </g>
     </g>
     <g id="text_8">
      <!-- 0 -->
      <g transform="translate(43.60125 295.061734) scale(0.11 -0.11)">
       <use xlink:href="#DejaVuSans-30"/>
      </g>
     </g>
    </g>
    <g id="ytick_2">
     <g id="line2d_8">
      <g>
       <use xlink:href="#m3f37940c33" x="57.6" y="239.756853" style="stroke: #000000; stroke-width: 0.8"/>
      </g>
     </g>
     <g id="text_9">
      <!-- 1 -->
      <g transform="translate(43.60125 243.935993) scale(0.11 -0.11)">
       <use xlink:href="#DejaVuSans-31"/>
      </g>
     </g>
    </g>
    <g id="ytick_3">
     <g id="line2d_9">
      <g>
       <use xlink:href="#m3f37940c33" x="57.6" y="188.631112" style="stroke: #000000; stroke-width: 0.8"/>
      </g>
     </g>
     <g id="text_10">
      <!-- 2 -->
      <g transform="translate(43.60125 192.810253) scale(0.11 -0.11)">
       <use xlink:href="#DejaVuSans-32"/>
      </g>
     </g>
    </g>
    <g id="ytick_4">
     <g id="line2d_10">
      <g>
       <use xlink:href="#m3f37940c33" x="57.6" y="137.505372" style="stroke: #000000; stroke-width: 0.8"/>
      </g>
     </g>
     <g id="text_11">
      <!-- 3 -->
      <g transform="translate(43.60125 141.684512) scale(0.11 -0.11)">
       <use xlink:href="#DejaVuSans-33"/>
      </g>
     </g>
    </g>
    <g id="ytick_5">
     <g id="line2d_11">
      <g>
       <use xlink:href="#m3f37940c33" x="57.6" y="86.379631" style="stroke: #000000; stroke-width: 0.8"/>
      </g>
     </g>
     <g id="text_12">
      <!-- 4 -->
      <g transform="translate(43.60125 90.558772) scale(0.11 -0.11)">
       <use xlink:href="#DejaVuSans-34"/>
      </g>
     </g>
    </g>
    <g id="text_13">
     <!-- X-position -->
     <g transform="translate(37.313594 201.789953) rotate(-90) scale(0.11 -0.11)">
      <defs>
       <path id="DejaVuSans-58" d="M 403 4666 
L 1081 4666 
L 2241 2931 
L 3406 4666 
L 4084 4666 
L 2584 2425 
L 4184 0 
L 3506 0 
L 2194 1984 
L 872 0 
L 191 0 
L 1856 2491 
L 403 4666 
z
" transform="scale(0.015625)"/>
       <path id="DejaVuSans-2d" d="M 313 2009 
L 1997 2009 
L 1997 1497 
L 313 1497 
L 313 2009 
z
" transform="scale(0.015625)"/>
       <path id="DejaVuSans-70" d="M 1159 525 
L 1159 -1331 
L 581 -1331 
L 581 3500 
L 1159 3500 
L 1159 2969 
Q 1341 3281 1617 3432 
Q 1894 3584 2278 3584 
Q 2916 3584 3314 3078 
Q 3713 2572 3713 1747 
Q 3713 922 3314 415 
Q 2916 -91 2278 -91 
Q 1894 -91 1617 61 
Q 1341 213 1159 525 
z
M 3116 1747 
Q 3116 2381 2855 2742 
Q 2594 3103 2138 3103 
Q 1681 3103 1420 2742 
Q 1159 2381 1159 1747 
Q 1159 1113 1420 752 
Q 1681 391 2138 391 
Q 2594 391 2855 752 
Q 3116 1113 3116 1747 
z
" transform="scale(0.015625)"/>
       <path id="DejaVuSans-6f" d="M 1959 3097 
Q 1497 3097 1228 2736 
Q 959 2375 959 1747 
Q 959 1119 1226 758 
Q 1494 397 1959 397 
Q 2419 397 2687 759 
Q 2956 1122 2956 1747 
Q 2956 2369 2687 2733 
Q 2419 3097 1959 3097 
z
M 1959 3584 
Q 2709 3584 3137 3096 
Q 3566 2609 3566 1747 
Q 3566 888 3137 398 
Q 2709 -91 1959 -91 
Q 1206 -91 779 398 
Q 353 888 353 1747 
Q 353 2609 779 3096 
Q 1206 3584 1959 3584 
z
" transform="scale(0.015625)"/>
       <path id="DejaVuSans-74" d="M 1172 4494 
L 1172 3500 
L 2356 3500 
L 2356 3053 
L 1172 3053 
L 1172 1153 
Q 1172 725 1289 603 
Q 1406 481 1766 481 
L 2356 481 
L 2356 0 
L 1766 0 
Q 1100 0 847 248 
Q 594 497 594 1153 
L 594 3053 
L 172 3053 
L 172 3500 
L 594 3500 
L 594 4494 
L 1172 4494 
z
" transform="scale(0.015625)"/>
       <path id="DejaVuSans-6e" d="M 3513 2113 
L 3513 0 
L 2938 0 
L 2938 2094 
Q 2938 2591 2744 2837 
Q 2550 3084 2163 3084 
Q 1697 3084 1428 2787 
Q 1159 2491 1159 1978 
L 1159 0 
L 581 0 
L 581 3500 
L 1159 3500 
L 1159 2956 
Q 1366 3272 1645 3428 
Q 1925 3584 2291 3584 
Q 2894 3584 3203 3211 
Q 3513 2838 3513 2113 
z
" transform="scale(0.015625)"/>
      </defs>
      <use xlink:href="#DejaVuSans-58"/>
      <use xlink:href="#DejaVuSans-2d" x="63.505859"/>
      <use xlink:href="#DejaVuSans-70" x="99.589844"/>
      <use xlink:href="#DejaVuSans-6f" x="163.066406"/>
      <use xlink:href="#DejaVuSans-73" x="224.248047"/>
      <use xlink:href="#DejaVuSans-69" x="276.347656"/>
      <use xlink:href="#DejaVuSans-74" x="304.130859"/>
      <use xlink:href="#DejaVuSans-69" x="343.339844"/>
      <use xlink:href="#DejaVuSans-6f" x="371.123047"/>
      <use xlink:href="#DejaVuSans-6e" x="432.304688"/>
     </g>
    </g>
   </g>
   <g id="line2d_12">
    <path d="M 57.6 290.610195 
L 58.28296 292.651544 
L 59.648881 294.497643 
L 60.331842 292.285944 
L 61.014802 292.4111 
L 61.697762 295.488 
L 62.380723 293.298387 
L 63.063683 290.279003 
L 63.746644 289.250353 
L 64.429604 289.802818 
L 65.112565 295.0361 
L 65.795525 291.969578 
L 66.478485 294.828529 
L 67.161446 284.169119 
L 67.844406 281.790085 
L 69.210327 270.700452 
L 70.576248 261.845422 
L 71.259208 255.219168 
L 71.942169 257.288841 
L 72.625129 258.049387 
L 73.30809 249.612924 
L 73.99105 249.545898 
L 74.67401 248.428494 
L 75.356971 251.245983 
L 76.039931 253.015905 
L 77.405852 252.012255 
L 78.088812 249.54508 
L 78.771773 256.516995 
L 79.454733 255.453375 
L 80.137694 262.227945 
L 80.820654 264.359888 
L 81.503614 260.132914 
L 82.186575 259.754482 
L 82.869535 261.304563 
L 83.552496 261.928348 
L 84.235456 257.891255 
L 85.601377 257.541504 
L 86.284337 259.62498 
L 86.967298 263.770204 
L 87.650258 263.441926 
L 88.333219 259.404935 
L 89.016179 258.702109 
L 89.699139 265.316451 
L 90.3821 267.607907 
L 91.06506 270.52642 
L 91.748021 269.319494 
L 92.430981 269.417707 
L 93.113941 276.546373 
L 93.796902 278.489254 
L 94.479862 277.615003 
L 95.162823 269.642967 
L 95.845783 271.476438 
L 96.528744 276.690957 
L 97.211704 275.897639 
L 97.894664 276.6861 
L 98.577625 275.421198 
L 99.260585 271.869646 
L 99.943546 271.402715 
L 100.626506 268.493404 
L 101.309466 268.619736 
L 101.992427 270.283726 
L 102.675387 270.350036 
L 103.358348 271.036194 
L 104.041308 271.020294 
L 104.724269 272.308305 
L 105.407229 271.27899 
L 106.090189 270.471408 
L 106.77315 267.130392 
L 107.45611 265.069258 
L 108.139071 273.730112 
L 108.822031 277.552426 
L 109.504991 277.684637 
L 110.187952 276.899499 
L 110.870912 270.503157 
L 111.553873 272.721861 
L 112.236833 271.037779 
L 112.919793 271.167894 
L 113.602754 280.298389 
L 114.285714 274.295307 
L 114.968675 278.295589 
L 115.651635 279.805588 
L 117.017556 281.282815 
L 118.383477 277.170005 
L 119.066437 276.961105 
L 119.749398 269.970785 
L 120.432358 266.675987 
L 121.115318 269.528394 
L 121.798279 269.102874 
L 122.481239 263.952927 
L 123.1642 257.525297 
L 123.84716 248.752938 
L 124.53012 242.816217 
L 125.213081 243.91404 
L 125.896041 235.865622 
L 126.579002 230.809081 
L 127.261962 226.914782 
L 128.627883 217.713581 
L 129.310843 214.22476 
L 129.993804 209.235399 
L 130.676764 208.959985 
L 131.359725 211.832638 
L 132.042685 211.612081 
L 132.725645 213.796224 
L 133.408606 211.250367 
L 134.091566 210.028002 
L 134.774527 212.009584 
L 135.457487 212.86548 
L 136.823408 211.027305 
L 138.189329 222.869407 
L 138.872289 224.704208 
L 139.55525 229.459413 
L 140.23821 232.109669 
L 140.92117 231.105457 
L 141.604131 234.442639 
L 143.653012 241.521407 
L 144.335972 234.375051 
L 145.018933 236.52315 
L 145.701893 235.222664 
L 146.384854 239.726586 
L 147.067814 241.631685 
L 147.750775 241.18822 
L 148.433735 245.04852 
L 149.116695 245.217644 
L 149.799656 243.283762 
L 150.482616 247.20572 
L 151.165577 253.057214 
L 152.531497 246.119758 
L 153.214458 256.102008 
L 153.897418 260.164766 
L 154.580379 261.282017 
L 155.263339 256.47814 
L 155.946299 252.558176 
L 156.62926 252.090682 
L 157.31222 252.270798 
L 157.995181 253.392497 
L 158.678141 251.360249 
L 159.361102 251.203957 
L 160.044062 250.216617 
L 160.727022 248.36382 
L 161.409983 245.617345 
L 162.092943 249.802192 
L 162.775904 244.733995 
L 163.458864 249.377592 
L 164.141824 251.580089 
L 164.824785 251.310145 
L 165.507745 256.012486 
L 166.190706 257.61083 
L 166.873666 258.552567 
L 167.556627 260.193192 
L 168.239587 258.197396 
L 168.922547 265.06573 
L 169.605508 268.108734 
L 170.288468 270.176055 
L 170.971429 269.259933 
L 171.654389 269.389843 
L 172.337349 269.229053 
L 173.02031 271.168712 
L 173.70327 270.443085 
L 175.069191 260.80849 
L 175.752151 256.584839 
L 176.435112 259.383309 
L 177.118072 260.168651 
L 178.483993 257.831898 
L 179.166954 258.445458 
L 180.532874 259.195524 
L 181.215835 261.160082 
L 181.898795 261.443063 
L 182.581756 263.481599 
L 183.264716 263.37127 
L 183.947676 258.122548 
L 184.630637 263.24683 
L 185.313597 267.260149 
L 185.996558 261.999669 
L 186.679518 260.024017 
L 187.362478 259.804687 
L 188.045439 258.553078 
L 188.728399 255.855019 
L 189.41136 257.158419 
L 190.09432 254.962824 
L 190.777281 255.600822 
L 191.460241 257.951941 
L 192.143201 258.612128 
L 192.826162 261.068618 
L 193.509122 258.106699 
L 194.875043 257.941103 
L 196.240964 270.792273 
L 196.923924 268.167171 
L 197.606885 269.781415 
L 198.289845 268.153623 
L 198.972806 269.332276 
L 199.655766 270.03459 
L 200.338726 264.578809 
L 201.021687 260.23128 
L 201.704647 267.617825 
L 203.070568 270.928728 
L 203.753528 272.109886 
L 204.436489 270.015878 
L 205.119449 271.608138 
L 205.80241 272.83945 
L 206.48537 276.173922 
L 207.16833 273.035722 
L 207.851291 272.157586 
L 208.534251 271.479403 
L 209.217212 271.04054 
L 209.900172 267.602487 
L 210.583133 264.946352 
L 211.266093 259.134224 
L 212.632014 262.586643 
L 213.314974 262.367569 
L 213.997935 261.783151 
L 214.680895 259.421602 
L 215.363855 260.638497 
L 216.046816 261.351803 
L 217.412737 260.735891 
L 218.095697 260.681749 
L 218.778657 268.863708 
L 219.461618 266.560494 
L 220.144578 269.27343 
L 220.827539 266.008796 
L 221.510499 273.081326 
L 222.87642 265.32683 
L 223.55938 262.481835 
L 224.242341 263.273109 
L 224.925301 272.036674 
L 225.608262 271.237681 
L 227.657143 257.951788 
L 229.023064 254.294201 
L 229.706024 254.049411 
L 230.388985 252.820042 
L 231.071945 255.53216 
L 231.754905 251.969054 
L 232.437866 249.662823 
L 233.120826 251.39256 
L 233.803787 252.759867 
L 234.486747 249.408932 
L 235.169707 249.855414 
L 235.852668 251.642156 
L 236.535628 258.101893 
L 237.901549 253.917967 
L 238.584509 249.11772 
L 239.95043 250.512277 
L 240.633391 247.506083 
L 241.316351 248.470519 
L 241.999312 252.188946 
L 242.682272 251.127166 
L 243.365232 251.630908 
L 244.048193 251.770482 
L 244.731153 246.272368 
L 245.414114 243.936842 
L 246.097074 237.863053 
L 246.780034 237.964998 
L 248.145955 230.726104 
L 248.828916 232.392957 
L 249.511876 238.029979 
L 250.194836 239.748059 
L 250.877797 237.462636 
L 251.560757 235.878301 
L 252.243718 235.538008 
L 252.926678 234.589574 
L 253.609639 235.513876 
L 254.292599 232.628953 
L 254.975559 231.121051 
L 255.65852 233.163013 
L 256.34148 231.284295 
L 257.024441 227.299248 
L 257.707401 221.287526 
L 258.390361 216.798072 
L 259.073322 214.099655 
L 259.756282 213.9132 
L 260.439243 212.496812 
L 261.122203 216.639122 
L 261.805164 209.851158 
L 262.488124 207.451827 
L 263.171084 198.972316 
L 263.854045 194.465377 
L 264.537005 195.484927 
L 265.219966 193.836377 
L 265.902926 195.128222 
L 266.585886 198.871291 
L 267.268847 200.857884 
L 267.951807 197.538341 
L 268.634768 198.403593 
L 269.317728 197.183733 
L 270.000688 200.340952 
L 270.683649 201.422977 
L 271.366609 200.81954 
L 272.04957 200.578584 
L 272.73253 200.607266 
L 273.415491 198.872467 
L 274.098451 198.437592 
L 274.781411 201.362035 
L 275.464372 208.128374 
L 276.147332 212.071548 
L 276.830293 213.667438 
L 277.513253 211.262637 
L 278.196213 213.937894 
L 278.879174 204.299771 
L 279.562134 204.12078 
L 280.245095 204.891449 
L 280.928055 204.251304 
L 281.611015 204.12303 
L 282.293976 197.547441 
L 282.976936 210.222228 
L 283.659897 217.880302 
L 285.025818 186.486234 
L 285.708778 184.594326 
L 287.074699 186.120992 
L 287.757659 186.741863 
L 288.44062 185.920528 
L 289.12358 183.820947 
L 289.80654 185.714082 
L 290.489501 185.751813 
L 291.855422 190.154864 
L 293.221343 186.236025 
L 293.904303 181.993611 
L 294.587263 180.6738 
L 295.270224 179.850573 
L 295.953184 180.369857 
L 296.636145 179.887895 
L 297.319105 178.402488 
L 298.002065 178.746359 
L 298.685026 174.562791 
L 299.367986 172.859895 
L 300.050947 168.795654 
L 300.733907 172.184115 
L 301.416867 173.007597 
L 302.099828 170.991607 
L 302.782788 169.525423 
L 303.465749 167.510558 
L 304.148709 163.911714 
L 304.83167 162.660923 
L 305.51463 165.189807 
L 306.19759 160.287462 
L 306.880551 161.682325 
L 307.563511 157.187606 
L 308.246472 154.380291 
L 310.295353 138.585556 
L 310.978313 141.148132 
L 311.661274 136.518236 
L 312.344234 136.844469 
L 313.027194 141.924425 
L 313.710155 134.002287 
L 315.076076 130.059879 
L 316.441997 132.425927 
L 317.124957 129.278013 
L 317.807917 132.803951 
L 318.490878 129.814015 
L 319.173838 127.374193 
L 319.856799 126.182758 
L 320.539759 136.852956 
L 321.222719 132.903339 
L 321.90568 133.091022 
L 322.58864 132.780944 
L 323.271601 132.966428 
L 323.954561 130.842512 
L 325.320482 127.951453 
L 326.003442 124.854052 
L 326.686403 126.669527 
L 327.369363 129.636558 
L 328.735284 131.703418 
L 329.418244 131.665329 
L 330.101205 130.319649 
L 330.784165 129.754249 
L 331.467126 127.803547 
L 332.150086 128.834088 
L 332.833046 125.987356 
L 333.516007 124.153782 
L 334.198967 116.288189 
L 334.881928 117.858874 
L 335.564888 122.751199 
L 336.247849 126.013481 
L 336.930809 130.176855 
L 337.613769 127.569851 
L 338.29673 128.744414 
L 338.97969 125.007378 
L 339.662651 126.89356 
L 340.345611 128.400542 
L 341.028571 128.882146 
L 341.711532 121.577812 
L 342.394492 128.721049 
L 343.077453 133.698702 
L 343.760413 140.302359 
L 345.126334 155.216146 
L 345.809294 153.462789 
L 346.492255 152.21711 
L 347.175215 152.444057 
L 347.858176 156.609476 
L 348.541136 149.030545 
L 349.224096 154.25805 
L 349.907057 157.008155 
L 350.590017 158.2001 
L 351.272978 157.213629 
L 352.638898 157.493849 
L 353.321859 159.191837 
L 354.004819 153.841171 
L 354.68778 153.089367 
L 355.37074 148.064217 
L 356.053701 147.479288 
L 356.736661 148.614637 
L 357.419621 144.70587 
L 358.102582 141.943904 
L 358.785542 145.108332 
L 359.468503 146.141634 
L 360.151463 145.913102 
L 360.834423 148.046988 
L 361.517384 148.677931 
L 362.883305 128.988488 
L 363.566265 125.152677 
L 364.249225 122.228387 
L 364.932186 123.203253 
L 366.298107 128.869416 
L 366.981067 130.46592 
L 367.664028 131.076054 
L 368.346988 129.072845 
L 369.029948 129.564982 
L 369.712909 126.329489 
L 370.395869 120.158664 
L 371.07883 123.629488 
L 372.44475 113.809307 
L 373.127711 112.82212 
L 373.810671 106.979828 
L 374.493632 111.029089 
L 375.176592 113.419984 
L 375.859552 110.573763 
L 376.542513 111.399444 
L 377.225473 108.889017 
L 377.908434 110.62039 
L 378.591394 107.159535 
L 379.274355 110.121607 
L 379.957315 109.729524 
L 380.640275 110.213838 
L 381.323236 107.961238 
L 382.006196 103.496938 
L 382.689157 101.750534 
L 383.372117 103.459054 
L 384.055077 105.551835 
L 384.738038 104.792413 
L 385.420998 105.872598 
L 386.103959 97.835222 
L 386.786919 111.237375 
L 387.46988 112.904483 
L 388.15284 111.304912 
L 388.8358 114.334368 
L 389.518761 114.126695 
L 390.201721 113.365535 
L 390.884682 106.106191 
L 391.567642 102.291291 
L 392.250602 100.942798 
L 392.933563 99.949936 
L 393.616523 96.53714 
L 394.299484 92.082196 
L 394.982444 91.6282 
L 395.665404 89.552239 
L 396.348365 88.389231 
L 397.714286 77.518211 
L 397.714286 77.518211 
" clip-path="url(#pd386b0c144)" style="fill: none; stroke: #4169e1; stroke-width: 1.5; stroke-linecap: square"/>
   </g>
   <g id="line2d_13">
    <path d="M 57.6 288.737306 
L 58.28296 288.613531 
L 58.965921 289.121414 
L 59.648881 289.199432 
L 60.331842 287.728953 
L 61.014802 285.572776 
L 61.697762 291.264554 
L 62.380723 282.381354 
L 63.746644 277.434581 
L 64.429604 284.179446 
L 65.112565 282.780339 
L 65.795525 285.134833 
L 67.161446 288.841909 
L 67.844406 287.375981 
L 68.527367 288.542006 
L 69.210327 290.544754 
L 69.893287 291.32432 
L 70.576248 284.56836 
L 71.259208 284.889174 
L 71.942169 274.61065 
L 72.625129 267.373495 
L 73.30809 263.292536 
L 73.99105 260.56779 
L 74.67401 263.825829 
L 75.356971 267.926522 
L 76.039931 261.948594 
L 76.722892 257.70843 
L 77.405852 263.916577 
L 78.088812 261.762598 
L 78.771773 252.698414 
L 79.454733 252.745756 
L 80.137694 261.35528 
L 80.820654 267.987566 
L 81.503614 263.34494 
L 82.186575 266.77195 
L 82.869535 262.537716 
L 83.552496 262.083873 
L 84.235456 266.92865 
L 84.918417 268.06722 
L 85.601377 266.946646 
L 86.284337 262.250185 
L 86.967298 256.3242 
L 87.650258 245.432986 
L 88.333219 250.40343 
L 89.699139 266.903445 
L 90.3821 270.645491 
L 91.06506 271.821332 
L 91.748021 280.697017 
L 92.430981 284.533952 
L 93.113941 284.534157 
L 93.796902 284.908602 
L 94.479862 278.551474 
L 95.162823 277.572774 
L 95.845783 280.886642 
L 96.528744 282.34531 
L 97.211704 280.635563 
L 97.894664 279.34607 
L 99.260585 268.316305 
L 99.943546 264.926208 
L 100.626506 274.498327 
L 101.309466 267.316388 
L 101.992427 271.688763 
L 102.675387 261.131911 
L 103.358348 260.651636 
L 104.041308 256.963527 
L 104.724269 260.365639 
L 105.407229 259.380497 
L 106.090189 258.003425 
L 106.77315 261.049394 
L 107.45611 261.515763 
L 108.139071 258.825425 
L 108.822031 264.646141 
L 109.504991 266.754874 
L 110.187952 260.983289 
L 110.870912 264.791134 
L 111.553873 270.592423 
L 112.236833 257.595697 
L 112.919793 254.615271 
L 113.602754 254.802698 
L 114.285714 260.171105 
L 114.968675 258.222703 
L 115.651635 263.424236 
L 116.334596 249.533526 
L 117.017556 247.62807 
L 117.700516 256.945582 
L 118.383477 261.516735 
L 119.066437 261.551807 
L 119.749398 260.324022 
L 120.432358 256.856368 
L 121.115318 257.386951 
L 121.798279 256.974724 
L 122.481239 256.431564 
L 123.1642 252.316198 
L 123.84716 247.509765 
L 124.53012 252.789111 
L 125.896041 249.545745 
L 126.579002 253.768527 
L 127.261962 256.606159 
L 127.944923 258.469845 
L 128.627883 260.816926 
L 129.310843 260.140941 
L 130.676764 264.325736 
L 131.359725 265.756848 
L 132.042685 268.249535 
L 132.725645 263.17781 
L 133.408606 262.203098 
L 134.091566 259.364801 
L 134.774527 259.249359 
L 135.457487 259.841242 
L 136.140448 259.932859 
L 136.823408 263.436609 
L 137.506368 257.970756 
L 138.189329 259.033251 
L 138.872289 256.6966 
L 139.55525 261.062738 
L 140.23821 261.154867 
L 141.604131 265.865848 
L 142.287091 263.280317 
L 142.970052 266.371789 
L 143.653012 263.364572 
L 144.335972 265.644832 
L 145.018933 264.350635 
L 145.701893 263.872098 
L 146.384854 260.984823 
L 147.750775 249.609908 
L 148.433735 245.807789 
L 149.116695 249.346355 
L 149.799656 245.490042 
L 150.482616 240.441017 
L 151.165577 237.043865 
L 151.848537 233.04752 
L 152.531497 226.054796 
L 153.214458 224.775068 
L 153.897418 229.666012 
L 154.580379 229.040898 
L 155.263339 228.180554 
L 155.946299 226.967749 
L 156.62926 226.817439 
L 157.31222 224.395408 
L 157.995181 220.158823 
L 158.678141 221.418152 
L 159.361102 226.287674 
L 160.044062 232.201542 
L 160.727022 229.790605 
L 161.409983 227.807898 
L 162.092943 229.335842 
L 162.775904 228.032545 
L 163.458864 219.699151 
L 164.141824 226.582976 
L 164.824785 227.662139 
L 165.507745 226.112159 
L 166.190706 227.062945 
L 166.873666 224.88463 
L 167.556627 221.398877 
L 168.239587 221.156746 
L 168.922547 218.126165 
L 169.605508 216.514631 
L 170.288468 218.2867 
L 170.971429 212.083716 
L 171.654389 206.970375 
L 172.337349 205.583181 
L 173.02031 206.644398 
L 173.70327 206.846958 
L 174.386231 209.16321 
L 175.069191 200.459512 
L 175.752151 198.455281 
L 176.435112 198.020406 
L 177.118072 199.408214 
L 177.801033 188.585917 
L 178.483993 181.645802 
L 179.166954 182.20384 
L 179.849914 176.104999 
L 180.532874 177.148884 
L 181.215835 176.22632 
L 182.581756 175.623855 
L 183.264716 183.666496 
L 183.947676 181.891768 
L 184.630637 181.592376 
L 185.313597 181.149371 
L 185.996558 186.099468 
L 186.679518 189.04748 
L 187.362478 183.785159 
L 188.045439 184.523875 
L 188.728399 189.226318 
L 189.41136 191.379888 
L 190.09432 198.521233 
L 190.777281 202.288229 
L 191.460241 203.789741 
L 192.143201 197.400046 
L 192.826162 199.662564 
L 193.509122 197.119468 
L 194.192083 196.875138 
L 194.875043 202.821982 
L 195.558003 198.583147 
L 196.240964 202.875101 
L 196.923924 205.688551 
L 197.606885 205.086903 
L 198.289845 206.99057 
L 198.972806 203.456708 
L 200.338726 199.706379 
L 201.021687 199.211789 
L 201.704647 199.248702 
L 202.387608 197.796884 
L 203.070568 195.216108 
L 203.753528 196.413217 
L 204.436489 199.902242 
L 205.119449 202.465686 
L 205.80241 202.489511 
L 206.48537 202.39319 
L 207.16833 204.228809 
L 207.851291 205.175709 
L 208.534251 204.037394 
L 209.217212 204.656373 
L 209.900172 199.65827 
L 210.583133 197.771525 
L 211.266093 196.495171 
L 211.949053 195.780791 
L 212.632014 192.979203 
L 213.314974 194.9478 
L 213.997935 193.932903 
L 214.680895 193.426349 
L 215.363855 196.283818 
L 216.729776 186.569313 
L 217.412737 184.787581 
L 218.095697 176.666309 
L 218.778657 170.722174 
L 219.461618 171.697449 
L 220.827539 175.800903 
L 221.510499 179.190846 
L 222.19346 177.033033 
L 223.55938 180.038869 
L 224.242341 182.342595 
L 224.925301 184.029438 
L 225.608262 183.070114 
L 226.291222 182.62757 
L 226.974182 180.479522 
L 227.657143 181.607049 
L 228.340103 180.727328 
L 229.023064 180.691489 
L 229.706024 183.912053 
L 230.388985 172.870376 
L 231.071945 170.358977 
L 231.754905 170.995953 
L 232.437866 174.194379 
L 233.120826 171.153522 
L 233.803787 175.22671 
L 234.486747 170.119453 
L 235.169707 169.788976 
L 235.852668 172.861531 
L 236.535628 167.271442 
L 237.901549 165.06731 
L 238.584509 167.913633 
L 239.26747 168.426322 
L 239.95043 159.893487 
L 240.633391 159.141734 
L 241.316351 160.154177 
L 241.999312 159.054053 
L 242.682272 156.137739 
L 243.365232 161.078837 
L 244.048193 161.083387 
L 244.731153 159.67518 
L 245.414114 159.439337 
L 246.097074 157.203097 
L 246.780034 157.829183 
L 247.462995 159.297207 
L 248.145955 159.565873 
L 248.828916 159.25646 
L 250.194836 160.557968 
L 250.877797 158.353528 
L 251.560757 155.699336 
L 252.243718 153.890251 
L 252.926678 158.933141 
L 253.609639 161.4677 
L 254.292599 159.243014 
L 254.975559 158.982426 
L 256.34148 163.355517 
L 257.024441 162.792163 
L 257.707401 161.578642 
L 258.390361 168.09472 
L 259.073322 161.008539 
L 259.756282 147.688137 
L 260.439243 147.854551 
L 261.122203 149.380347 
L 261.805164 151.407688 
L 262.488124 151.453752 
L 263.171084 152.46732 
L 263.854045 151.620217 
L 264.537005 146.274305 
L 265.219966 143.927276 
L 265.902926 145.571071 
L 266.585886 137.517642 
L 267.268847 141.453864 
L 267.951807 138.77237 
L 268.634768 142.332102 
L 270.000688 145.881762 
L 270.683649 149.572171 
L 271.366609 144.613077 
L 272.04957 145.597861 
L 272.73253 145.706298 
L 273.415491 144.710727 
L 274.098451 145.247036 
L 274.781411 144.259849 
L 275.464372 144.766505 
L 276.147332 142.551431 
L 276.830293 137.385942 
L 278.196213 140.333801 
L 278.879174 139.063531 
L 279.562134 140.808095 
L 280.245095 141.434436 
L 280.928055 140.867247 
L 281.611015 141.377635 
L 282.293976 142.756905 
L 282.976936 143.061564 
L 283.659897 141.483772 
L 284.342857 132.367388 
L 285.025818 132.766782 
L 285.708778 133.787968 
L 286.391738 132.874811 
L 287.074699 132.504865 
L 287.757659 133.160297 
L 288.44062 135.148322 
L 289.12358 135.076439 
L 289.80654 132.517953 
L 290.489501 134.702607 
L 291.172461 129.899395 
L 291.855422 131.397635 
L 292.538382 131.360825 
L 293.221343 129.544889 
L 293.904303 129.48451 
L 294.587263 132.181342 
L 295.270224 130.896654 
L 295.953184 131.051207 
L 296.636145 134.076675 
L 297.319105 134.100091 
L 298.002065 137.228015 
L 298.685026 138.786071 
L 299.367986 138.300275 
L 300.050947 139.143338 
L 300.733907 145.272241 
L 301.416867 146.199457 
L 302.099828 151.073836 
L 302.782788 152.440479 
L 304.148709 139.211335 
L 304.83167 144.409545 
L 305.51463 148.065138 
L 306.19759 152.792326 
L 306.880551 150.067477 
L 307.563511 148.234926 
L 308.246472 147.963449 
L 308.929432 148.324959 
L 309.612392 146.658566 
L 310.295353 148.316063 
L 310.978313 147.744477 
L 311.661274 144.81579 
L 312.344234 144.465886 
L 313.027194 147.260265 
L 313.710155 147.670345 
L 314.393115 147.040885 
L 315.076076 150.523212 
L 315.759036 150.318812 
L 316.441997 148.35543 
L 317.124957 147.368805 
L 317.807917 145.968011 
L 318.490878 152.239043 
L 319.173838 155.075653 
L 319.856799 154.292969 
L 320.539759 155.007246 
L 321.222719 153.96469 
L 321.90568 156.328489 
L 322.58864 156.602012 
L 323.271601 158.109454 
L 323.954561 149.340009 
L 324.637522 149.138472 
L 325.320482 153.660799 
L 326.003442 155.160419 
L 326.686403 153.994855 
L 327.369363 149.275693 
L 328.052324 149.173493 
L 328.735284 147.63742 
L 329.418244 152.371919 
L 330.101205 150.570504 
L 330.784165 146.253242 
L 331.467126 145.051633 
L 332.150086 144.201719 
L 332.833046 144.984045 
L 333.516007 144.53603 
L 334.198967 140.687949 
L 334.881928 133.427736 
L 335.564888 139.168288 
L 336.247849 141.179063 
L 336.930809 141.567056 
L 337.613769 142.789421 
L 338.29673 148.290551 
L 338.97969 146.225582 
L 339.662651 144.867223 
L 340.345611 143.255228 
L 341.028571 140.432883 
L 342.394492 132.997462 
L 343.077453 130.616638 
L 343.760413 122.074141 
L 344.443373 117.290152 
L 345.126334 118.337871 
L 345.809294 118.300345 
L 346.492255 120.635973 
L 347.175215 120.032178 
L 347.858176 117.212185 
L 348.541136 116.180979 
L 349.224096 118.042211 
L 349.907057 116.535689 
L 350.590017 118.979193 
L 352.638898 104.707698 
L 353.321859 104.613627 
L 354.004819 102.716759 
L 354.68778 102.456529 
L 355.37074 101.861221 
L 356.053701 102.664611 
L 356.736661 103.651287 
L 357.419621 101.231608 
L 358.102582 105.161541 
L 358.785542 107.141948 
L 359.468503 112.492512 
L 360.151463 111.505121 
L 360.834423 112.316435 
L 361.517384 110.065369 
L 362.200344 105.082501 
L 362.883305 93.019842 
L 363.566265 92.932417 
L 364.249225 83.665928 
L 364.932186 77.180679 
L 365.615146 75.559379 
L 366.298107 73.564351 
L 366.981067 69.735697 
L 367.664028 70.067197 
L 368.346988 75.636273 
L 369.029948 75.768433 
L 369.712909 73.377282 
L 370.395869 72.082113 
L 371.07883 76.427137 
L 371.76179 77.568212 
L 372.44475 72.387078 
L 373.127711 69.843828 
L 373.810671 68.803164 
L 374.493632 70.813888 
L 375.176592 69.881917 
L 375.859552 73.005189 
L 376.542513 70.725338 
L 377.225473 74.447599 
L 377.908434 73.577183 
L 378.591394 73.505965 
L 379.274355 73.959706 
L 379.957315 75.935358 
L 380.640275 73.30136 
L 381.323236 63.410472 
L 382.006196 63.394879 
L 382.689157 62.315716 
L 383.372117 61.506549 
L 384.055077 64.494696 
L 384.738038 59.36709 
L 385.420998 55.619574 
L 386.103959 53.568 
L 386.786919 59.637188 
L 387.46988 60.397121 
L 388.15284 59.811373 
L 388.8358 56.821029 
L 389.518761 55.0826 
L 390.201721 59.740053 
L 390.884682 57.457135 
L 391.567642 62.147717 
L 392.250602 65.010963 
L 392.933563 66.207715 
L 393.616523 67.050471 
L 394.299484 74.410277 
L 394.982444 73.947794 
L 395.665404 75.586067 
L 396.348365 73.765582 
L 397.031325 75.535197 
L 397.714286 72.220153 
L 397.714286 72.220153 
" clip-path="url(#pd386b0c144)" style="fill: none; stroke: #ff8c00; stroke-width: 1.5; stroke-linecap: square"/>
   </g>
   <g id="line2d_14">
    <path d="M 57.6 289.96233 
L 397.714286 60.816863 
L 397.714286 60.816863 
" clip-path="url(#pd386b0c144)" style="fill: none; stroke: #000000; stroke-width: 2.5; stroke-linecap: square"/>
   </g>
   <g id="patch_3">
    <path d="M 57.6 307.584 
L 57.6 41.472 
" style="fill: none; stroke: #000000; stroke-width: 0.8; stroke-linejoin: miter; stroke-linecap: square"/>
   </g>
   <g id="patch_4">
    <path d="M 414.72 307.584 
L 414.72 41.472 
" style="fill: none; stroke: #000000; stroke-width: 0.8; stroke-linejoin: miter; stroke-linecap: square"/>
   </g>
   <g id="patch_5">
    <path d="M 57.6 307.584 
L 414.72 307.584 
" style="fill: none; stroke: #000000; stroke-width: 0.8; stroke-linejoin: miter; stroke-linecap: square"/>
   </g>
   <g id="patch_6">
    <path d="M 57.6 41.472 
L 414.72 41.472 
" style="fill: none; stroke: #000000; stroke-width: 0.8; stroke-linejoin: miter; stroke-linecap: square"/>
   </g>
   <g id="text_14">
    <!-- Independence of 6 DoF -->
    <g transform="translate(159.4515 35.472) scale(0.132 -0.132)">
     <defs>
      <path id="DejaVuSans-49" d="M 628 4666 
L 1259 4666 
L 1259 0 
L 628 0 
L 628 4666 
z
" transform="scale(0.015625)"/>
      <path id="DejaVuSans-64" d="M 2906 2969 
L 2906 4863 
L 3481 4863 
L 3481 0 
L 2906 0 
L 2906 525 
Q 2725 213 2448 61 
Q 2172 -91 1784 -91 
Q 1150 -91 751 415 
Q 353 922 353 1747 
Q 353 2572 751 3078 
Q 1150 3584 1784 3584 
Q 2172 3584 2448 3432 
Q 2725 3281 2906 2969 
z
M 947 1747 
Q 947 1113 1208 752 
Q 1469 391 1925 391 
Q 2381 391 2643 752 
Q 2906 1113 2906 1747 
Q 2906 2381 2643 2742 
Q 2381 3103 1925 3103 
Q 1469 3103 1208 2742 
Q 947 2381 947 1747 
z
" transform="scale(0.015625)"/>
      <path id="DejaVuSans-63" d="M 3122 3366 
L 3122 2828 
Q 2878 2963 2633 3030 
Q 2388 3097 2138 3097 
Q 1578 3097 1268 2742 
Q 959 2388 959 1747 
Q 959 1106 1268 751 
Q 1578 397 2138 397 
Q 2388 397 2633 464 
Q 2878 531 3122 666 
L 3122 134 
Q 2881 22 2623 -34 
Q 2366 -91 2075 -91 
Q 1284 -91 818 406 
Q 353 903 353 1747 
Q 353 2603 823 3093 
Q 1294 3584 2113 3584 
Q 2378 3584 2631 3529 
Q 2884 3475 3122 3366 
z
" transform="scale(0.015625)"/>
      <path id="DejaVuSans-66" d="M 2375 4863 
L 2375 4384 
L 1825 4384 
Q 1516 4384 1395 4259 
Q 1275 4134 1275 3809 
L 1275 3500 
L 2222 3500 
L 2222 3053 
L 1275 3053 
L 1275 0 
L 697 0 
L 697 3053 
L 147 3053 
L 147 3500 
L 697 3500 
L 697 3744 
Q 697 4328 969 4595 
Q 1241 4863 1831 4863 
L 2375 4863 
z
" transform="scale(0.015625)"/>
      <path id="DejaVuSans-36" d="M 2113 2584 
Q 1688 2584 1439 2293 
Q 1191 2003 1191 1497 
Q 1191 994 1439 701 
Q 1688 409 2113 409 
Q 2538 409 2786 701 
Q 3034 994 3034 1497 
Q 3034 2003 2786 2293 
Q 2538 2584 2113 2584 
z
M 3366 4563 
L 3366 3988 
Q 3128 4100 2886 4159 
Q 2644 4219 2406 4219 
Q 1781 4219 1451 3797 
Q 1122 3375 1075 2522 
Q 1259 2794 1537 2939 
Q 1816 3084 2150 3084 
Q 2853 3084 3261 2657 
Q 3669 2231 3669 1497 
Q 3669 778 3244 343 
Q 2819 -91 2113 -91 
Q 1303 -91 875 529 
Q 447 1150 447 2328 
Q 447 3434 972 4092 
Q 1497 4750 2381 4750 
Q 2619 4750 2861 4703 
Q 3103 4656 3366 4563 
z
" transform="scale(0.015625)"/>
      <path id="DejaVuSans-44" d="M 1259 4147 
L 1259 519 
L 2022 519 
Q 2988 519 3436 956 
Q 3884 1394 3884 2338 
Q 3884 3275 3436 3711 
Q 2988 4147 2022 4147 
L 1259 4147 
z
M 628 4666 
L 1925 4666 
Q 3281 4666 3915 4102 
Q 4550 3538 4550 2338 
Q 4550 1131 3912 565 
Q 3275 0 1925 0 
L 628 0 
L 628 4666 
z
" transform="scale(0.015625)"/>
      <path id="DejaVuSans-46" d="M 628 4666 
L 3309 4666 
L 3309 4134 
L 1259 4134 
L 1259 2759 
L 3109 2759 
L 3109 2228 
L 1259 2228 
L 1259 0 
L 628 0 
L 628 4666 
z
" transform="scale(0.015625)"/>
     </defs>
     <use xlink:href="#DejaVuSans-49"/>
     <use xlink:href="#DejaVuSans-6e" x="29.492188"/>
     <use xlink:href="#DejaVuSans-64" x="92.871094"/>
     <use xlink:href="#DejaVuSans-65" x="156.347656"/>
     <use xlink:href="#DejaVuSans-70" x="217.871094"/>
     <use xlink:href="#DejaVuSans-65" x="281.347656"/>
     <use xlink:href="#DejaVuSans-6e" x="342.871094"/>
     <use xlink:href="#DejaVuSans-64" x="406.25"/>
     <use xlink:href="#DejaVuSans-65" x="469.726562"/>
     <use xlink:href="#DejaVuSans-6e" x="531.25"/>
     <use xlink:href="#DejaVuSans-63" x="594.628906"/>
     <use xlink:href="#DejaVuSans-65" x="649.609375"/>
     <use xlink:href="#DejaVuSans-20" x="711.132812"/>
     <use xlink:href="#DejaVuSans-6f" x="742.919922"/>
     <use xlink:href="#DejaVuSans-66" x="804.101562"/>
     <use xlink:href="#DejaVuSans-20" x="839.306641"/>
     <use xlink:href="#DejaVuSans-36" x="871.09375"/>
     <use xlink:href="#DejaVuSans-20" x="934.716797"/>
     <use xlink:href="#DejaVuSans-44" x="966.503906"/>
     <use xlink:href="#DejaVuSans-6f" x="1043.505859"/>
     <use xlink:href="#DejaVuSans-46" x="1104.6875"/>
    </g>
   </g>
   <g id="legend_1">
    <g id="patch_7">
     <path d="M 65.3 98.709812 
L 175.4375 98.709812 
Q 177.6375 98.709812 177.6375 96.509812 
L 177.6375 49.172 
Q 177.6375 46.972 175.4375 46.972 
L 65.3 46.972 
Q 63.1 46.972 63.1 49.172 
L 63.1 96.509812 
Q 63.1 98.709812 65.3 98.709812 
z
" style="fill: #ffffff; opacity: 0.8; stroke: #cccccc; stroke-linejoin: miter"/>
    </g>
    <g id="line2d_15">
     <path d="M 67.5 55.880281 
L 78.5 55.880281 
L 89.5 55.880281 
" style="fill: none; stroke: #4169e1; stroke-width: 1.5; stroke-linecap: square"/>
    </g>
    <g id="text_15">
     <!-- Move X and Y -->
     <g transform="translate(98.3 59.730281) scale(0.11 -0.11)">
      <defs>
       <path id="DejaVuSans-4d" d="M 628 4666 
L 1569 4666 
L 2759 1491 
L 3956 4666 
L 4897 4666 
L 4897 0 
L 4281 0 
L 4281 4097 
L 3078 897 
L 2444 897 
L 1241 4097 
L 1241 0 
L 628 0 
L 628 4666 
z
" transform="scale(0.015625)"/>
       <path id="DejaVuSans-76" d="M 191 3500 
L 800 3500 
L 1894 563 
L 2988 3500 
L 3597 3500 
L 2284 0 
L 1503 0 
L 191 3500 
z
" transform="scale(0.015625)"/>
       <path id="DejaVuSans-61" d="M 2194 1759 
Q 1497 1759 1228 1600 
Q 959 1441 959 1056 
Q 959 750 1161 570 
Q 1363 391 1709 391 
Q 2188 391 2477 730 
Q 2766 1069 2766 1631 
L 2766 1759 
L 2194 1759 
z
M 3341 1997 
L 3341 0 
L 2766 0 
L 2766 531 
Q 2569 213 2275 61 
Q 1981 -91 1556 -91 
Q 1019 -91 701 211 
Q 384 513 384 1019 
Q 384 1609 779 1909 
Q 1175 2209 1959 2209 
L 2766 2209 
L 2766 2266 
Q 2766 2663 2505 2880 
Q 2244 3097 1772 3097 
Q 1472 3097 1187 3025 
Q 903 2953 641 2809 
L 641 3341 
Q 956 3463 1253 3523 
Q 1550 3584 1831 3584 
Q 2591 3584 2966 3190 
Q 3341 2797 3341 1997 
z
" transform="scale(0.015625)"/>
       <path id="DejaVuSans-59" d="M -13 4666 
L 666 4666 
L 1959 2747 
L 3244 4666 
L 3922 4666 
L 2272 2222 
L 2272 0 
L 1638 0 
L 1638 2222 
L -13 4666 
z
" transform="scale(0.015625)"/>
      </defs>
      <use xlink:href="#DejaVuSans-4d"/>
      <use xlink:href="#DejaVuSans-6f" x="86.279297"/>
      <use xlink:href="#DejaVuSans-76" x="147.460938"/>
      <use xlink:href="#DejaVuSans-65" x="206.640625"/>
      <use xlink:href="#DejaVuSans-20" x="268.164062"/>
      <use xlink:href="#DejaVuSans-58" x="299.951172"/>
      <use xlink:href="#DejaVuSans-20" x="368.457031"/>
      <use xlink:href="#DejaVuSans-61" x="400.244141"/>
      <use xlink:href="#DejaVuSans-6e" x="461.523438"/>
      <use xlink:href="#DejaVuSans-64" x="524.902344"/>
      <use xlink:href="#DejaVuSans-20" x="588.378906"/>
      <use xlink:href="#DejaVuSans-59" x="620.166016"/>
     </g>
    </g>
    <g id="line2d_16">
     <path d="M 67.5 72.026219 
L 78.5 72.026219 
L 89.5 72.026219 
" style="fill: none; stroke: #ff8c00; stroke-width: 1.5; stroke-linecap: square"/>
    </g>
    <g id="text_16">
     <!-- Move X -->
     <g transform="translate(98.3 75.876219) scale(0.11 -0.11)">
      <use xlink:href="#DejaVuSans-4d"/>
      <use xlink:href="#DejaVuSans-6f" x="86.279297"/>
      <use xlink:href="#DejaVuSans-76" x="147.460938"/>
      <use xlink:href="#DejaVuSans-65" x="206.640625"/>
      <use xlink:href="#DejaVuSans-20" x="268.164062"/>
      <use xlink:href="#DejaVuSans-58" x="299.951172"/>
     </g>
    </g>
    <g id="line2d_17">
     <path d="M 67.5 88.172156 
L 78.5 88.172156 
L 89.5 88.172156 
" style="fill: none; stroke: #000000; stroke-width: 2.5; stroke-linecap: square"/>
    </g>
    <g id="text_17">
     <!-- Ground Truth -->
     <g transform="translate(98.3 92.022156) scale(0.11 -0.11)">
      <defs>
       <path id="DejaVuSans-47" d="M 3809 666 
L 3809 1919 
L 2778 1919 
L 2778 2438 
L 4434 2438 
L 4434 434 
Q 4069 175 3628 42 
Q 3188 -91 2688 -91 
Q 1594 -91 976 548 
Q 359 1188 359 2328 
Q 359 3472 976 4111 
Q 1594 4750 2688 4750 
Q 3144 4750 3555 4637 
Q 3966 4525 4313 4306 
L 4313 3634 
Q 3963 3931 3569 4081 
Q 3175 4231 2741 4231 
Q 1884 4231 1454 3753 
Q 1025 3275 1025 2328 
Q 1025 1384 1454 906 
Q 1884 428 2741 428 
Q 3075 428 3337 486 
Q 3600 544 3809 666 
z
" transform="scale(0.015625)"/>
       <path id="DejaVuSans-72" d="M 2631 2963 
Q 2534 3019 2420 3045 
Q 2306 3072 2169 3072 
Q 1681 3072 1420 2755 
Q 1159 2438 1159 1844 
L 1159 0 
L 581 0 
L 581 3500 
L 1159 3500 
L 1159 2956 
Q 1341 3275 1631 3429 
Q 1922 3584 2338 3584 
Q 2397 3584 2469 3576 
Q 2541 3569 2628 3553 
L 2631 2963 
z
" transform="scale(0.015625)"/>
       <path id="DejaVuSans-75" d="M 544 1381 
L 544 3500 
L 1119 3500 
L 1119 1403 
Q 1119 906 1312 657 
Q 1506 409 1894 409 
Q 2359 409 2629 706 
Q 2900 1003 2900 1516 
L 2900 3500 
L 3475 3500 
L 3475 0 
L 2900 0 
L 2900 538 
Q 2691 219 2414 64 
Q 2138 -91 1772 -91 
Q 1169 -91 856 284 
Q 544 659 544 1381 
z
M 1991 3584 
L 1991 3584 
z
" transform="scale(0.015625)"/>
       <path id="DejaVuSans-68" d="M 3513 2113 
L 3513 0 
L 2938 0 
L 2938 2094 
Q 2938 2591 2744 2837 
Q 2550 3084 2163 3084 
Q 1697 3084 1428 2787 
Q 1159 2491 1159 1978 
L 1159 0 
L 581 0 
L 581 4863 
L 1159 4863 
L 1159 2956 
Q 1366 3272 1645 3428 
Q 1925 3584 2291 3584 
Q 2894 3584 3203 3211 
Q 3513 2838 3513 2113 
z
" transform="scale(0.015625)"/>
      </defs>
      <use xlink:href="#DejaVuSans-47"/>
      <use xlink:href="#DejaVuSans-72" x="77.490234"/>
      <use xlink:href="#DejaVuSans-6f" x="116.353516"/>
      <use xlink:href="#DejaVuSans-75" x="177.535156"/>
      <use xlink:href="#DejaVuSans-6e" x="240.914062"/>
      <use xlink:href="#DejaVuSans-64" x="304.292969"/>
      <use xlink:href="#DejaVuSans-20" x="367.769531"/>
      <use xlink:href="#DejaVuSans-54" x="399.556641"/>
      <use xlink:href="#DejaVuSans-72" x="445.890625"/>
      <use xlink:href="#DejaVuSans-75" x="487.003906"/>
      <use xlink:href="#DejaVuSans-74" x="550.382812"/>
      <use xlink:href="#DejaVuSans-68" x="589.591797"/>
     </g>
    </g>
   </g>
  </g>
 </g>
 <defs>
  <clipPath id="pd386b0c144">
   <rect x="57.6" y="41.472" width="357.12" height="266.112"/>
  </clipPath>
 </defs>
</svg>
