<?xml version="1.0" encoding="utf-8" standalone="no"?>
<!DOCTYPE svg PUBLIC "-//W3C//DTD SVG 1.1//EN"
  "http://www.w3.org/Graphics/SVG/1.1/DTD/svg11.dtd">
<svg xmlns:xlink="http://www.w3.org/1999/xlink" width="460.8pt" height="345.6pt" viewBox="0 0 460.8 345.6" xmlns="http://www.w3.org/2000/svg" version="1.1">
 <metadata>
  <rdf:RDF xmlns:dc="http://purl.org/dc/elements/1.1/" xmlns:cc="http://creativecommons.org/ns#" xmlns:rdf="http://www.w3.org/1999/02/22-rdf-syntax-ns#">
   <cc:Work>
    <dc:type rdf:resource="http://purl.org/dc/dcmitype/StillImage"/>
    <dc:date>2023-06-19T13:31:24.505668</dc:date>
    <dc:format>image/svg+xml</dc:format>
    <dc:creator>
     <cc:Agent>
      <dc:title>Matplotlib v3.6.1, https://matplotlib.org/</dc:title>
     </cc:Agent>
    </dc:creator>
   </cc:Work>
  </rdf:RDF>
 </metadata>
 <defs>
  <style type="text/css">*{stroke-linejoin: round; stroke-linecap: butt}</style>
 </defs>
 <g id="figure_1">
  <g id="patch_1">
   <path d="M 0 345.6 
L 460.8 345.6 
L 460.8 0 
L 0 0 
z
" style="fill: #ffffff"/>
  </g>
  <g id="axes_1">
   <g id="patch_2">
    <path d="M 57.6 307.584 
L 414.72 307.584 
L 414.72 41.472 
L 57.6 41.472 
z
" style="fill: #ffffff"/>
   </g>
   <g id="matplotlib.axis_1">
    <g id="xtick_1">
     <g id="line2d_1">
      <defs>
       <path id="mf97345bc60" d="M 0 0 
L 0 3.5 
" style="stroke: #000000; stroke-width: 0.8"/>
      </defs>
      <g>
       <use xlink:href="#mf97345bc60" x="57.6" y="307.584" style="stroke: #000000; stroke-width: 0.8"/>
      </g>
     </g>
     <g id="text_1">
      <!-- 0 -->
      <g transform="translate(54.100625 322.942281) scale(0.11 -0.11)">
       <defs>
        <path id="DejaVuSans-30" d="M 2034 4250 
Q 1547 4250 1301 3770 
Q 1056 3291 1056 2328 
Q 1056 1369 1301 889 
Q 1547 409 2034 409 
Q 2525 409 2770 889 
Q 3016 1369 3016 2328 
Q 3016 3291 2770 3770 
Q 2525 4250 2034 4250 
z
M 2034 4750 
Q 2819 4750 3233 4129 
Q 3647 3509 3647 2328 
Q 3647 1150 3233 529 
Q 2819 -91 2034 -91 
Q 1250 -91 836 529 
Q 422 1150 422 2328 
Q 422 3509 836 4129 
Q 1250 4750 2034 4750 
z
" transform="scale(0.015625)"/>
       </defs>
       <use xlink:href="#DejaVuSans-30"/>
      </g>
     </g>
    </g>
    <g id="xtick_2">
     <g id="line2d_2">
      <g>
       <use xlink:href="#mf97345bc60" x="125.622857" y="307.584" style="stroke: #000000; stroke-width: 0.8"/>
      </g>
     </g>
     <g id="text_2">
      <!-- 100 -->
      <g transform="translate(115.124732 322.942281) scale(0.11 -0.11)">
       <defs>
        <path id="DejaVuSans-31" d="M 794 531 
L 1825 531 
L 1825 4091 
L 703 3866 
L 703 4441 
L 1819 4666 
L 2450 4666 
L 2450 531 
L 3481 531 
L 3481 0 
L 794 0 
L 794 531 
z
" transform="scale(0.015625)"/>
       </defs>
       <use xlink:href="#DejaVuSans-31"/>
       <use xlink:href="#DejaVuSans-30" x="63.623047"/>
       <use xlink:href="#DejaVuSans-30" x="127.246094"/>
      </g>
     </g>
    </g>
    <g id="xtick_3">
     <g id="line2d_3">
      <g>
       <use xlink:href="#mf97345bc60" x="193.645714" y="307.584" style="stroke: #000000; stroke-width: 0.8"/>
      </g>
     </g>
     <g id="text_3">
      <!-- 200 -->
      <g transform="translate(183.147589 322.942281) scale(0.11 -0.11)">
       <defs>
        <path id="DejaVuSans-32" d="M 1228 531 
L 3431 531 
L 3431 0 
L 469 0 
L 469 531 
Q 828 903 1448 1529 
Q 2069 2156 2228 2338 
Q 2531 2678 2651 2914 
Q 2772 3150 2772 3378 
Q 2772 3750 2511 3984 
Q 2250 4219 1831 4219 
Q 1534 4219 1204 4116 
Q 875 4013 500 3803 
L 500 4441 
Q 881 4594 1212 4672 
Q 1544 4750 1819 4750 
Q 2544 4750 2975 4387 
Q 3406 4025 3406 3419 
Q 3406 3131 3298 2873 
Q 3191 2616 2906 2266 
Q 2828 2175 2409 1742 
Q 1991 1309 1228 531 
z
" transform="scale(0.015625)"/>
       </defs>
       <use xlink:href="#DejaVuSans-32"/>
       <use xlink:href="#DejaVuSans-30" x="63.623047"/>
       <use xlink:href="#DejaVuSans-30" x="127.246094"/>
      </g>
     </g>
    </g>
    <g id="xtick_4">
     <g id="line2d_4">
      <g>
       <use xlink:href="#mf97345bc60" x="261.668571" y="307.584" style="stroke: #000000; stroke-width: 0.8"/>
      </g>
     </g>
     <g id="text_4">
      <!-- 300 -->
      <g transform="translate(251.170446 322.942281) scale(0.11 -0.11)">
       <defs>
        <path id="DejaVuSans-33" d="M 2597 2516 
Q 3050 2419 3304 2112 
Q 3559 1806 3559 1356 
Q 3559 666 3084 287 
Q 2609 -91 1734 -91 
Q 1441 -91 1130 -33 
Q 819 25 488 141 
L 488 750 
Q 750 597 1062 519 
Q 1375 441 1716 441 
Q 2309 441 2620 675 
Q 2931 909 2931 1356 
Q 2931 1769 2642 2001 
Q 2353 2234 1838 2234 
L 1294 2234 
L 1294 2753 
L 1863 2753 
Q 2328 2753 2575 2939 
Q 2822 3125 2822 3475 
Q 2822 3834 2567 4026 
Q 2313 4219 1838 4219 
Q 1578 4219 1281 4162 
Q 984 4106 628 3988 
L 628 4550 
Q 988 4650 1302 4700 
Q 1616 4750 1894 4750 
Q 2613 4750 3031 4423 
Q 3450 4097 3450 3541 
Q 3450 3153 3228 2886 
Q 3006 2619 2597 2516 
z
" transform="scale(0.015625)"/>
       </defs>
       <use xlink:href="#DejaVuSans-33"/>
       <use xlink:href="#DejaVuSans-30" x="63.623047"/>
       <use xlink:href="#DejaVuSans-30" x="127.246094"/>
      </g>
     </g>
    </g>
    <g id="xtick_5">
     <g id="line2d_5">
      <g>
       <use xlink:href="#mf97345bc60" x="329.691429" y="307.584" style="stroke: #000000; stroke-width: 0.8"/>
      </g>
     </g>
     <g id="text_5">
      <!-- 400 -->
      <g transform="translate(319.193304 322.942281) scale(0.11 -0.11)">
       <defs>
        <path id="DejaVuSans-34" d="M 2419 4116 
L 825 1625 
L 2419 1625 
L 2419 4116 
z
M 2253 4666 
L 3047 4666 
L 3047 1625 
L 3713 1625 
L 3713 1100 
L 3047 1100 
L 3047 0 
L 2419 0 
L 2419 1100 
L 313 1100 
L 313 1709 
L 2253 4666 
z
" transform="scale(0.015625)"/>
       </defs>
       <use xlink:href="#DejaVuSans-34"/>
       <use xlink:href="#DejaVuSans-30" x="63.623047"/>
       <use xlink:href="#DejaVuSans-30" x="127.246094"/>
      </g>
     </g>
    </g>
    <g id="xtick_6">
     <g id="line2d_6">
      <g>
       <use xlink:href="#mf97345bc60" x="397.714286" y="307.584" style="stroke: #000000; stroke-width: 0.8"/>
      </g>
     </g>
     <g id="text_6">
      <!-- 500 -->
      <g transform="translate(387.216161 322.942281) scale(0.11 -0.11)">
       <defs>
        <path id="DejaVuSans-35" d="M 691 4666 
L 3169 4666 
L 3169 4134 
L 1269 4134 
L 1269 2991 
Q 1406 3038 1543 3061 
Q 1681 3084 1819 3084 
Q 2600 3084 3056 2656 
Q 3513 2228 3513 1497 
Q 3513 744 3044 326 
Q 2575 -91 1722 -91 
Q 1428 -91 1123 -41 
Q 819 9 494 109 
L 494 744 
Q 775 591 1075 516 
Q 1375 441 1709 441 
Q 2250 441 2565 725 
Q 2881 1009 2881 1497 
Q 2881 1984 2565 2268 
Q 2250 2553 1709 2553 
Q 1456 2553 1204 2497 
Q 953 2441 691 2322 
L 691 4666 
z
" transform="scale(0.015625)"/>
       </defs>
       <use xlink:href="#DejaVuSans-35"/>
       <use xlink:href="#DejaVuSans-30" x="63.623047"/>
       <use xlink:href="#DejaVuSans-30" x="127.246094"/>
      </g>
     </g>
    </g>
    <g id="text_7">
     <!-- Time [s] -->
     <g transform="translate(213.798203 337.588219) scale(0.11 -0.11)">
      <defs>
       <path id="DejaVuSans-54" d="M -19 4666 
L 3928 4666 
L 3928 4134 
L 2272 4134 
L 2272 0 
L 1638 0 
L 1638 4134 
L -19 4134 
L -19 4666 
z
" transform="scale(0.015625)"/>
       <path id="DejaVuSans-69" d="M 603 3500 
L 1178 3500 
L 1178 0 
L 603 0 
L 603 3500 
z
M 603 4863 
L 1178 4863 
L 1178 4134 
L 603 4134 
L 603 4863 
z
" transform="scale(0.015625)"/>
       <path id="DejaVuSans-6d" d="M 3328 2828 
Q 3544 3216 3844 3400 
Q 4144 3584 4550 3584 
Q 5097 3584 5394 3201 
Q 5691 2819 5691 2113 
L 5691 0 
L 5113 0 
L 5113 2094 
Q 5113 2597 4934 2840 
Q 4756 3084 4391 3084 
Q 3944 3084 3684 2787 
Q 3425 2491 3425 1978 
L 3425 0 
L 2847 0 
L 2847 2094 
Q 2847 2600 2669 2842 
Q 2491 3084 2119 3084 
Q 1678 3084 1418 2786 
Q 1159 2488 1159 1978 
L 1159 0 
L 581 0 
L 581 3500 
L 1159 3500 
L 1159 2956 
Q 1356 3278 1631 3431 
Q 1906 3584 2284 3584 
Q 2666 3584 2933 3390 
Q 3200 3197 3328 2828 
z
" transform="scale(0.015625)"/>
       <path id="DejaVuSans-65" d="M 3597 1894 
L 3597 1613 
L 953 1613 
Q 991 1019 1311 708 
Q 1631 397 2203 397 
Q 2534 397 2845 478 
Q 3156 559 3463 722 
L 3463 178 
Q 3153 47 2828 -22 
Q 2503 -91 2169 -91 
Q 1331 -91 842 396 
Q 353 884 353 1716 
Q 353 2575 817 3079 
Q 1281 3584 2069 3584 
Q 2775 3584 3186 3129 
Q 3597 2675 3597 1894 
z
M 3022 2063 
Q 3016 2534 2758 2815 
Q 2500 3097 2075 3097 
Q 1594 3097 1305 2825 
Q 1016 2553 972 2059 
L 3022 2063 
z
" transform="scale(0.015625)"/>
       <path id="DejaVuSans-20" transform="scale(0.015625)"/>
       <path id="DejaVuSans-5b" d="M 550 4863 
L 1875 4863 
L 1875 4416 
L 1125 4416 
L 1125 -397 
L 1875 -397 
L 1875 -844 
L 550 -844 
L 550 4863 
z
" transform="scale(0.015625)"/>
       <path id="DejaVuSans-73" d="M 2834 3397 
L 2834 2853 
Q 2591 2978 2328 3040 
Q 2066 3103 1784 3103 
Q 1356 3103 1142 2972 
Q 928 2841 928 2578 
Q 928 2378 1081 2264 
Q 1234 2150 1697 2047 
L 1894 2003 
Q 2506 1872 2764 1633 
Q 3022 1394 3022 966 
Q 3022 478 2636 193 
Q 2250 -91 1575 -91 
Q 1294 -91 989 -36 
Q 684 19 347 128 
L 347 722 
Q 666 556 975 473 
Q 1284 391 1588 391 
Q 1994 391 2212 530 
Q 2431 669 2431 922 
Q 2431 1156 2273 1281 
Q 2116 1406 1581 1522 
L 1381 1569 
Q 847 1681 609 1914 
Q 372 2147 372 2553 
Q 372 3047 722 3315 
Q 1072 3584 1716 3584 
Q 2034 3584 2315 3537 
Q 2597 3491 2834 3397 
z
" transform="scale(0.015625)"/>
       <path id="DejaVuSans-5d" d="M 1947 4863 
L 1947 -844 
L 622 -844 
L 622 -397 
L 1369 -397 
L 1369 4416 
L 622 4416 
L 622 4863 
L 1947 4863 
z
" transform="scale(0.015625)"/>
      </defs>
      <use xlink:href="#DejaVuSans-54"/>
      <use xlink:href="#DejaVuSans-69" x="57.958984"/>
      <use xlink:href="#DejaVuSans-6d" x="85.742188"/>
      <use xlink:href="#DejaVuSans-65" x="183.154297"/>
      <use xlink:href="#DejaVuSans-20" x="244.677734"/>
      <use xlink:href="#DejaVuSans-5b" x="276.464844"/>
      <use xlink:href="#DejaVuSans-73" x="315.478516"/>
      <use xlink:href="#DejaVuSans-5d" x="367.578125"/>
     </g>
    </g>
   </g>
   <g id="matplotlib.axis_2">
    <g id="ytick_1">
     <g id="line2d_7">
      <defs>
       <path id="m8026146881" d="M 0 0 
L -3.5 0 
" style="stroke: #000000; stroke-width: 0.8"/>
      </defs>
      <g>
       <use xlink:href="#m8026146881" x="57.6" y="292.107994" style="stroke: #000000; stroke-width: 0.8"/>
      </g>
     </g>
     <g id="text_8">
      <!-- 0 -->
      <g transform="translate(43.60125 296.287135) scale(0.11 -0.11)">
       <use xlink:href="#DejaVuSans-30"/>
      </g>
     </g>
    </g>
    <g id="ytick_2">
     <g id="line2d_8">
      <g>
       <use xlink:href="#m8026146881" x="57.6" y="240.71826" style="stroke: #000000; stroke-width: 0.8"/>
      </g>
     </g>
     <g id="text_9">
      <!-- 1 -->
      <g transform="translate(43.60125 244.897401) scale(0.11 -0.11)">
       <use xlink:href="#DejaVuSans-31"/>
      </g>
     </g>
    </g>
    <g id="ytick_3">
     <g id="line2d_9">
      <g>
       <use xlink:href="#m8026146881" x="57.6" y="189.328526" style="stroke: #000000; stroke-width: 0.8"/>
      </g>
     </g>
     <g id="text_10">
      <!-- 2 -->
      <g transform="translate(43.60125 193.507667) scale(0.11 -0.11)">
       <use xlink:href="#DejaVuSans-32"/>
      </g>
     </g>
    </g>
    <g id="ytick_4">
     <g id="line2d_10">
      <g>
       <use xlink:href="#m8026146881" x="57.6" y="137.938792" style="stroke: #000000; stroke-width: 0.8"/>
      </g>
     </g>
     <g id="text_11">
      <!-- 3 -->
      <g transform="translate(43.60125 142.117933) scale(0.11 -0.11)">
       <use xlink:href="#DejaVuSans-33"/>
      </g>
     </g>
    </g>
    <g id="ytick_5">
     <g id="line2d_11">
      <g>
       <use xlink:href="#m8026146881" x="57.6" y="86.549058" style="stroke: #000000; stroke-width: 0.8"/>
      </g>
     </g>
     <g id="text_12">
      <!-- 4 -->
      <g transform="translate(43.60125 90.728198) scale(0.11 -0.11)">
       <use xlink:href="#DejaVuSans-34"/>
      </g>
     </g>
    </g>
    <g id="text_13">
     <!-- X-position -->
     <g transform="translate(37.313594 201.789953) rotate(-90) scale(0.11 -0.11)">
      <defs>
       <path id="DejaVuSans-58" d="M 403 4666 
L 1081 4666 
L 2241 2931 
L 3406 4666 
L 4084 4666 
L 2584 2425 
L 4184 0 
L 3506 0 
L 2194 1984 
L 872 0 
L 191 0 
L 1856 2491 
L 403 4666 
z
" transform="scale(0.015625)"/>
       <path id="DejaVuSans-2d" d="M 313 2009 
L 1997 2009 
L 1997 1497 
L 313 1497 
L 313 2009 
z
" transform="scale(0.015625)"/>
       <path id="DejaVuSans-70" d="M 1159 525 
L 1159 -1331 
L 581 -1331 
L 581 3500 
L 1159 3500 
L 1159 2969 
Q 1341 3281 1617 3432 
Q 1894 3584 2278 3584 
Q 2916 3584 3314 3078 
Q 3713 2572 3713 1747 
Q 3713 922 3314 415 
Q 2916 -91 2278 -91 
Q 1894 -91 1617 61 
Q 1341 213 1159 525 
z
M 3116 1747 
Q 3116 2381 2855 2742 
Q 2594 3103 2138 3103 
Q 1681 3103 1420 2742 
Q 1159 2381 1159 1747 
Q 1159 1113 1420 752 
Q 1681 391 2138 391 
Q 2594 391 2855 752 
Q 3116 1113 3116 1747 
z
" transform="scale(0.015625)"/>
       <path id="DejaVuSans-6f" d="M 1959 3097 
Q 1497 3097 1228 2736 
Q 959 2375 959 1747 
Q 959 1119 1226 758 
Q 1494 397 1959 397 
Q 2419 397 2687 759 
Q 2956 1122 2956 1747 
Q 2956 2369 2687 2733 
Q 2419 3097 1959 3097 
z
M 1959 3584 
Q 2709 3584 3137 3096 
Q 3566 2609 3566 1747 
Q 3566 888 3137 398 
Q 2709 -91 1959 -91 
Q 1206 -91 779 398 
Q 353 888 353 1747 
Q 353 2609 779 3096 
Q 1206 3584 1959 3584 
z
" transform="scale(0.015625)"/>
       <path id="DejaVuSans-74" d="M 1172 4494 
L 1172 3500 
L 2356 3500 
L 2356 3053 
L 1172 3053 
L 1172 1153 
Q 1172 725 1289 603 
Q 1406 481 1766 481 
L 2356 481 
L 2356 0 
L 1766 0 
Q 1100 0 847 248 
Q 594 497 594 1153 
L 594 3053 
L 172 3053 
L 172 3500 
L 594 3500 
L 594 4494 
L 1172 4494 
z
" transform="scale(0.015625)"/>
       <path id="DejaVuSans-6e" d="M 3513 2113 
L 3513 0 
L 2938 0 
L 2938 2094 
Q 2938 2591 2744 2837 
Q 2550 3084 2163 3084 
Q 1697 3084 1428 2787 
Q 1159 2491 1159 1978 
L 1159 0 
L 581 0 
L 581 3500 
L 1159 3500 
L 1159 2956 
Q 1366 3272 1645 3428 
Q 1925 3584 2291 3584 
Q 2894 3584 3203 3211 
Q 3513 2838 3513 2113 
z
" transform="scale(0.015625)"/>
      </defs>
      <use xlink:href="#DejaVuSans-58"/>
      <use xlink:href="#DejaVuSans-2d" x="63.505859"/>
      <use xlink:href="#DejaVuSans-70" x="99.589844"/>
      <use xlink:href="#DejaVuSans-6f" x="163.066406"/>
      <use xlink:href="#DejaVuSans-73" x="224.248047"/>
      <use xlink:href="#DejaVuSans-69" x="276.347656"/>
      <use xlink:href="#DejaVuSans-74" x="304.130859"/>
      <use xlink:href="#DejaVuSans-69" x="343.339844"/>
      <use xlink:href="#DejaVuSans-6f" x="371.123047"/>
      <use xlink:href="#DejaVuSans-6e" x="432.304688"/>
     </g>
    </g>
   </g>
   <g id="line2d_12">
    <path d="M 57.6 289.157144 
L 58.28296 290.555973 
L 58.965921 291.530374 
L 59.648881 291.446197 
L 60.331842 291.479087 
L 61.014802 293.766084 
L 61.697762 293.285847 
L 63.746644 282.658399 
L 64.429604 285.795999 
L 65.112565 281.938994 
L 65.795525 283.299537 
L 66.478485 283.015557 
L 67.161446 278.277989 
L 67.844406 276.961436 
L 68.527367 274.358597 
L 69.210327 272.400083 
L 69.893287 277.480832 
L 71.259208 277.607764 
L 71.942169 281.13829 
L 72.625129 280.67162 
L 73.30809 278.802524 
L 73.99105 280.629121 
L 74.67401 286.782014 
L 76.039931 286.57589 
L 76.722892 287.517915 
L 77.405852 289.400115 
L 78.771773 295.488 
L 79.454733 283.781367 
L 80.137694 289.495803 
L 80.820654 273.680201 
L 81.503614 284.113293 
L 82.186575 287.384867 
L 82.869535 278.272182 
L 83.552496 278.048534 
L 84.235456 267.67824 
L 85.601377 257.659554 
L 86.284337 256.603752 
L 86.967298 264.315193 
L 87.650258 273.993833 
L 88.333219 272.076173 
L 89.016179 264.694706 
L 89.699139 263.069146 
L 90.3821 257.81506 
L 91.06506 256.886858 
L 91.748021 261.640409 
L 92.430981 263.802066 
L 93.113941 260.912319 
L 93.796902 259.76011 
L 94.479862 253.640826 
L 95.162823 245.904409 
L 95.845783 256.833104 
L 96.528744 256.628779 
L 97.211704 257.833303 
L 97.894664 256.221104 
L 98.577625 254.263926 
L 99.260585 255.044228 
L 99.943546 254.40679 
L 100.626506 255.445427 
L 101.309466 252.192457 
L 101.992427 246.44616 
L 102.675387 247.369017 
L 103.358348 247.270965 
L 104.041308 252.955441 
L 104.724269 253.791963 
L 105.407229 252.270621 
L 106.77315 248.024185 
L 107.45611 246.791705 
L 108.139071 251.501882 
L 108.822031 252.318157 
L 109.504991 251.789048 
L 110.187952 249.96759 
L 110.870912 253.414402 
L 111.553873 253.314706 
L 112.919793 254.409205 
L 113.602754 253.630805 
L 114.285714 253.177547 
L 114.968675 253.055034 
L 115.651635 253.128059 
L 116.334596 251.722293 
L 117.017556 249.044836 
L 117.700516 245.012232 
L 118.383477 250.71639 
L 119.066437 262.625498 
L 119.749398 266.103556 
L 120.432358 266.037828 
L 121.115318 267.097536 
L 121.798279 269.874894 
L 122.481239 265.372999 
L 123.1642 265.405066 
L 123.84716 263.386991 
L 124.53012 260.620168 
L 125.213081 261.851261 
L 125.896041 256.346803 
L 126.579002 256.711619 
L 127.261962 254.037554 
L 127.944923 254.870582 
L 128.627883 256.210312 
L 129.310843 253.336855 
L 129.993804 248.14048 
L 130.676764 245.82198 
L 131.359725 244.891621 
L 132.042685 248.70181 
L 132.725645 250.333177 
L 133.408606 251.348278 
L 134.091566 243.092723 
L 134.774527 243.655492 
L 135.457487 242.808229 
L 136.140448 246.266913 
L 136.823408 247.985848 
L 137.506368 253.243788 
L 138.189329 257.429842 
L 138.872289 257.073968 
L 139.55525 262.733674 
L 140.92117 255.481349 
L 141.604131 256.512124 
L 142.287091 255.239817 
L 142.970052 256.97936 
L 143.653012 252.730662 
L 144.335972 253.108325 
L 145.018933 252.591499 
L 145.701893 251.08136 
L 146.384854 249.963839 
L 147.067814 246.900086 
L 147.750775 247.425391 
L 148.433735 242.668398 
L 149.116695 242.722614 
L 149.799656 244.600498 
L 150.482616 247.580023 
L 151.165577 248.961533 
L 151.848537 251.509796 
L 152.531497 247.829623 
L 153.214458 242.260518 
L 153.897418 241.62421 
L 154.580379 239.872385 
L 155.263339 240.43464 
L 155.946299 242.175108 
L 156.62926 245.746951 
L 157.31222 242.005419 
L 157.995181 243.731343 
L 158.678141 240.38063 
L 159.361102 243.37624 
L 160.044062 241.37276 
L 160.727022 244.836839 
L 161.409983 247.646984 
L 162.092943 248.23663 
L 162.775904 246.290809 
L 163.458864 249.069503 
L 164.141824 246.796484 
L 164.824785 246.6732 
L 165.507745 249.037128 
L 166.190706 247.580383 
L 166.873666 247.808502 
L 167.556627 246.491948 
L 168.922547 242.343461 
L 169.605508 246.366506 
L 170.288468 244.297144 
L 170.971429 243.395254 
L 171.654389 243.275876 
L 172.337349 243.927703 
L 173.02031 248.118485 
L 174.386231 239.533573 
L 175.069191 238.136594 
L 175.752151 239.911596 
L 176.435112 238.481368 
L 177.118072 236.528147 
L 177.801033 242.422755 
L 178.483993 241.557198 
L 179.166954 241.567116 
L 179.849914 245.145691 
L 180.532874 240.366703 
L 181.215835 239.81745 
L 181.898795 241.043506 
L 182.581756 240.362849 
L 183.264716 242.64332 
L 183.947676 243.881761 
L 184.630637 235.323417 
L 185.313597 231.573354 
L 185.996558 232.266653 
L 188.728399 227.755046 
L 189.41136 229.179004 
L 190.09432 231.413532 
L 190.777281 238.163111 
L 191.460241 239.825929 
L 192.143201 239.539585 
L 192.826162 237.616736 
L 193.509122 238.241121 
L 194.192083 239.366402 
L 194.875043 239.791703 
L 195.558003 238.718326 
L 196.240964 236.455276 
L 196.923924 235.841118 
L 197.606885 239.566873 
L 198.289845 239.487527 
L 198.972806 241.037236 
L 199.655766 245.387223 
L 200.338726 245.025542 
L 201.021687 241.909937 
L 201.704647 245.443444 
L 202.387608 245.468419 
L 203.070568 246.809383 
L 204.436489 243.842602 
L 205.119449 241.840818 
L 205.80241 242.390122 
L 206.48537 240.615481 
L 207.16833 235.711101 
L 207.851291 236.566638 
L 208.534251 234.979517 
L 209.217212 236.439037 
L 209.900172 233.561315 
L 210.583133 229.666333 
L 211.266093 229.68694 
L 211.949053 228.939939 
L 212.632014 230.004169 
L 213.314974 227.490748 
L 213.997935 225.974648 
L 214.680895 223.950047 
L 215.363855 222.674554 
L 216.046816 225.005952 
L 216.729776 222.989367 
L 217.412737 222.038143 
L 218.095697 217.714108 
L 218.778657 215.224276 
L 220.144578 224.400118 
L 220.827539 224.829068 
L 221.510499 216.502698 
L 222.19346 211.917346 
L 222.87642 208.183985 
L 223.55938 206.5908 
L 224.242341 206.009942 
L 224.925301 203.298414 
L 225.608262 203.347286 
L 226.291222 204.193418 
L 226.974182 205.781566 
L 227.657143 209.608405 
L 229.023064 196.221534 
L 229.706024 195.234234 
L 230.388985 194.506093 
L 231.071945 192.867429 
L 231.754905 194.837351 
L 232.437866 193.793009 
L 233.120826 191.387713 
L 233.803787 185.713104 
L 234.486747 185.816295 
L 235.169707 187.012185 
L 235.852668 182.177799 
L 236.535628 180.570122 
L 237.218589 178.156398 
L 237.901549 174.736308 
L 238.584509 174.520214 
L 239.26747 174.646685 
L 239.95043 173.061877 
L 240.633391 175.982509 
L 241.316351 176.744362 
L 241.999312 172.19411 
L 242.682272 168.826335 
L 243.365232 170.25055 
L 244.048193 178.447726 
L 244.731153 181.771049 
L 245.414114 180.562928 
L 246.097074 177.60144 
L 246.780034 172.674963 
L 247.462995 170.32969 
L 248.145955 169.402105 
L 248.828916 167.175131 
L 249.511876 168.362028 
L 250.194836 169.193669 
L 250.877797 171.405997 
L 251.560757 181.083557 
L 252.243718 182.359307 
L 252.926678 184.692607 
L 253.609639 183.436642 
L 254.975559 176.306624 
L 255.65852 174.792426 
L 256.34148 174.147176 
L 257.024441 176.224812 
L 257.707401 177.483295 
L 258.390361 175.316139 
L 259.073322 177.399273 
L 259.756282 176.45401 
L 260.439243 179.095083 
L 261.122203 178.762848 
L 261.805164 180.94871 
L 263.171084 184.379078 
L 263.854045 188.554905 
L 264.537005 190.426262 
L 265.219966 194.498333 
L 265.902926 193.323667 
L 266.585886 191.353539 
L 267.268847 186.020158 
L 267.951807 186.32901 
L 268.634768 187.549722 
L 269.317728 190.936408 
L 270.000688 191.495271 
L 270.683649 189.496005 
L 271.366609 192.627182 
L 272.04957 194.52557 
L 272.73253 198.640243 
L 273.415491 201.419862 
L 274.098451 205.035798 
L 274.781411 205.541987 
L 275.464372 203.7139 
L 276.147332 204.084831 
L 276.830293 208.848403 
L 277.513253 212.720619 
L 278.196213 210.502022 
L 278.879174 202.999737 
L 279.562134 203.951064 
L 280.245095 205.904696 
L 280.928055 206.150082 
L 281.611015 217.757995 
L 282.293976 213.210363 
L 283.659897 184.121564 
L 284.342857 182.759479 
L 285.025818 179.072009 
L 285.708778 181.63538 
L 286.391738 183.228616 
L 287.074699 178.512888 
L 287.757659 170.281795 
L 288.44062 174.804708 
L 289.80654 176.248143 
L 290.489501 175.970895 
L 292.538382 166.974043 
L 293.221343 170.863629 
L 293.904303 168.177334 
L 294.587263 163.991743 
L 295.270224 163.259696 
L 295.953184 163.31715 
L 296.636145 166.020044 
L 297.319105 164.185739 
L 298.002065 165.103611 
L 298.685026 164.973955 
L 299.367986 161.903161 
L 300.050947 166.529059 
L 300.733907 173.996039 
L 301.416867 171.457592 
L 302.099828 172.743723 
L 302.782788 172.324742 
L 303.465749 175.523034 
L 304.148709 176.353749 
L 304.83167 175.786303 
L 305.51463 175.978038 
L 306.19759 167.729318 
L 307.563511 162.117045 
L 308.246472 160.1888 
L 308.929432 162.016373 
L 309.612392 160.568261 
L 310.978313 163.860904 
L 311.661274 160.127646 
L 313.027194 148.649029 
L 313.710155 146.522779 
L 314.393115 147.159446 
L 315.076076 146.308946 
L 315.759036 145.015004 
L 316.441997 143.466169 
L 317.124957 141.509865 
L 317.807917 142.285798 
L 319.173838 138.565336 
L 319.856799 138.909081 
L 320.539759 138.424733 
L 321.222719 134.269154 
L 322.58864 128.537091 
L 323.954561 119.14865 
L 324.637522 116.748543 
L 325.320482 116.284905 
L 326.003442 116.57942 
L 327.369363 122.896965 
L 328.052324 125.313054 
L 328.735284 126.69184 
L 329.418244 125.566456 
L 330.101205 128.356045 
L 331.467126 131.45351 
L 332.150086 131.442975 
L 332.833046 129.956219 
L 333.516007 131.935752 
L 334.198967 136.998051 
L 334.881928 135.621783 
L 335.564888 134.917795 
L 336.247849 132.589789 
L 336.930809 129.84681 
L 337.613769 129.570333 
L 338.29673 135.544082 
L 338.97969 131.285209 
L 339.662651 134.18323 
L 340.345611 134.044375 
L 341.028571 133.369165 
L 341.711532 134.009533 
L 342.394492 124.173024 
L 343.077453 127.372908 
L 343.760413 128.028898 
L 344.443373 131.200621 
L 345.126334 132.66045 
L 345.809294 133.813995 
L 346.492255 134.707817 
L 347.175215 134.336269 
L 347.858176 135.499013 
L 349.224096 134.336217 
L 349.907057 134.441926 
L 350.590017 133.943446 
L 351.272978 136.297764 
L 351.955938 132.97218 
L 352.638898 123.660617 
L 353.321859 119.637366 
L 354.004819 121.903036 
L 354.68778 120.964506 
L 355.37074 121.303472 
L 356.053701 122.117434 
L 356.736661 122.244675 
L 357.419621 122.932681 
L 358.102582 125.209503 
L 358.785542 119.178867 
L 359.468503 118.245218 
L 360.151463 124.760871 
L 360.834423 124.851111 
L 361.517384 125.733422 
L 362.200344 119.268747 
L 362.883305 117.870741 
L 363.566265 130.093892 
L 364.249225 138.135666 
L 364.932186 129.879083 
L 365.615146 128.868864 
L 366.298107 128.170631 
L 366.981067 125.110321 
L 367.664028 126.277947 
L 368.346988 123.162599 
L 369.029948 123.761084 
L 369.712909 123.1534 
L 370.395869 124.112487 
L 371.07883 124.65876 
L 371.76179 123.360244 
L 372.44475 126.124241 
L 373.127711 127.279225 
L 373.810671 126.57647 
L 374.493632 123.412302 
L 375.176592 121.898052 
L 375.859552 117.650279 
L 377.225473 111.676634 
L 377.908434 113.783047 
L 379.274355 123.745615 
L 379.957315 124.470108 
L 380.640275 123.861037 
L 381.323236 126.561824 
L 382.006196 122.431117 
L 382.689157 121.023398 
L 383.372117 125.407765 
L 385.420998 112.096385 
L 386.103959 111.615171 
L 387.46988 114.573113 
L 388.15284 114.312721 
L 388.8358 111.674475 
L 389.518761 112.158772 
L 390.201721 116.778144 
L 390.884682 118.147115 
L 391.567642 117.468771 
L 392.250602 119.792357 
L 392.933563 119.482837 
L 393.616523 121.748405 
L 394.299484 119.781206 
L 394.982444 119.278511 
L 395.665404 121.237231 
L 396.348365 119.906494 
L 397.031325 124.573967 
L 397.714286 121.167855 
L 397.714286 121.167855 
" clip-path="url(#p07770a00ce)" style="fill: none; stroke: #4169e1; stroke-width: 1.5; stroke-linecap: square"/>
   </g>
   <g id="line2d_13">
    <path d="M 57.6 289.95163 
L 58.28296 289.827215 
L 58.965921 290.337721 
L 59.648881 290.416142 
L 60.331842 288.93807 
L 61.014802 286.770759 
L 61.697762 292.491927 
L 62.380723 283.562858 
L 63.746644 278.590542 
L 64.429604 285.370235 
L 65.112565 283.963904 
L 65.795525 286.330555 
L 67.161446 290.056773 
L 67.844406 288.583275 
L 68.527367 289.755321 
L 69.210327 291.768411 
L 69.893287 292.552002 
L 70.576248 285.761157 
L 71.259208 286.083627 
L 71.942169 275.75203 
L 72.625129 268.477504 
L 73.30809 264.375473 
L 73.99105 261.636657 
L 74.67401 264.911519 
L 75.356971 269.033387 
L 76.039931 263.024591 
L 76.722892 258.762532 
L 77.405852 265.002736 
L 78.088812 262.837635 
L 78.771773 253.726646 
L 79.454733 253.774233 
L 80.137694 262.428213 
L 80.820654 269.094746 
L 81.503614 264.428147 
L 82.186575 267.872853 
L 82.869535 263.616755 
L 83.552496 263.160568 
L 84.235456 268.030362 
L 84.918417 269.174812 
L 85.601377 268.048451 
L 86.284337 263.327739 
L 86.967298 257.371155 
L 87.650258 246.423703 
L 88.333219 251.419813 
L 89.699139 268.005027 
L 90.3821 271.766396 
L 91.06506 272.948308 
L 91.748021 281.869823 
L 92.430981 285.726571 
L 93.113941 285.726777 
L 93.796902 286.103155 
L 94.479862 279.713202 
L 95.162823 278.729448 
L 95.845783 282.060428 
L 96.528744 283.526628 
L 97.211704 281.808053 
L 97.894664 280.511901 
L 99.260585 269.425182 
L 99.943546 266.017581 
L 100.626506 275.639126 
L 101.309466 268.420102 
L 101.992427 272.815055 
L 102.675387 262.203691 
L 103.358348 261.720936 
L 104.041308 258.013784 
L 104.724269 261.433462 
L 105.407229 260.443233 
L 106.090189 259.059051 
L 106.77315 262.120748 
L 107.45611 262.589526 
L 108.139071 259.885295 
L 108.822031 265.736068 
L 109.504991 267.855689 
L 110.187952 262.054301 
L 110.870912 265.881809 
L 111.553873 271.713053 
L 112.236833 258.649218 
L 112.919793 255.653402 
L 113.602754 255.841796 
L 114.285714 261.237924 
L 114.968675 259.279461 
L 115.651635 264.507853 
L 116.334596 250.545416 
L 117.017556 248.630121 
L 117.700516 257.995746 
L 118.383477 262.590502 
L 119.066437 262.625755 
L 119.749398 261.391631 
L 120.432358 257.906071 
L 121.115318 258.439393 
L 121.798279 258.025038 
L 122.481239 257.479073 
L 123.1642 253.342457 
L 123.84716 248.511205 
L 124.53012 253.817812 
L 125.896041 250.557698 
L 126.579002 254.802285 
L 127.261962 257.654569 
L 127.944923 259.527879 
L 128.627883 261.887079 
L 129.310843 261.207604 
L 130.676764 265.414008 
L 131.359725 266.85251 
L 132.042685 269.358067 
L 132.725645 264.260154 
L 133.408606 263.280409 
L 134.091566 260.427457 
L 134.774527 260.311419 
L 135.457487 260.906358 
L 136.140448 260.998448 
L 136.823408 264.520289 
L 137.506368 259.026213 
L 138.189329 260.094194 
L 138.872289 257.745478 
L 139.55525 262.134161 
L 140.23821 262.226765 
L 141.604131 266.962072 
L 142.287091 264.363191 
L 142.970052 267.470625 
L 143.653012 264.447881 
L 144.335972 266.739915 
L 145.018933 265.439035 
L 145.701893 264.958027 
L 146.384854 262.055843 
L 147.750775 250.622193 
L 148.433735 246.800441 
L 149.116695 250.357279 
L 149.799656 246.481054 
L 150.482616 241.405958 
L 151.165577 237.991264 
L 151.848537 233.974283 
L 152.531497 226.945452 
L 153.214458 225.659115 
L 153.897418 230.575314 
L 154.580379 229.946972 
L 155.263339 229.082186 
L 155.946299 227.863118 
L 156.62926 227.712032 
L 157.31222 225.277495 
L 157.995181 221.019033 
L 158.678141 222.284865 
L 159.361102 227.179532 
L 160.044062 233.123937 
L 160.727022 230.700551 
L 161.409983 228.707606 
L 162.092943 230.243439 
L 162.775904 228.933412 
L 163.458864 220.556988 
L 164.141824 227.476359 
L 164.824785 228.561094 
L 165.507745 227.003111 
L 166.190706 227.958806 
L 166.873666 225.769244 
L 167.556627 222.265491 
L 168.239587 222.02211 
L 168.922547 218.97588 
L 169.605508 217.356025 
L 170.288468 219.137244 
L 170.971429 212.90223 
L 171.654389 207.762486 
L 172.337349 206.368129 
L 173.02031 207.434825 
L 173.70327 207.638431 
L 174.386231 209.966643 
L 175.069191 201.218004 
L 175.752151 199.203423 
L 176.435112 198.766302 
L 177.118072 200.161276 
L 177.801033 189.283098 
L 178.483993 182.307147 
L 179.166954 182.868066 
L 179.849914 176.737733 
L 180.532874 177.787008 
L 181.215835 176.859681 
L 182.581756 176.254104 
L 183.264716 184.338275 
L 183.947676 182.554383 
L 184.630637 182.253444 
L 185.313597 181.808152 
L 185.996558 186.783809 
L 186.679518 189.747044 
L 187.362478 184.45755 
L 188.045439 185.20008 
L 188.728399 189.926805 
L 189.41136 192.091495 
L 190.09432 199.269716 
L 190.777281 203.056163 
L 191.460241 204.565428 
L 192.143201 198.142739 
L 192.826162 200.41694 
L 193.509122 197.860712 
L 194.192083 197.615121 
L 194.875043 203.592672 
L 195.558003 199.331949 
L 196.240964 203.646066 
L 196.923924 206.474043 
L 197.606885 205.869288 
L 198.289845 207.782785 
L 198.972806 204.230675 
L 200.338726 200.460981 
L 201.021687 199.963837 
L 201.704647 200.000941 
L 202.387608 198.541626 
L 203.070568 195.947524 
L 203.753528 197.150814 
L 204.436489 200.657855 
L 205.119449 203.234537 
L 205.80241 203.258484 
L 206.48537 203.161666 
L 207.16833 205.006763 
L 207.851291 205.958552 
L 208.534251 204.81436 
L 209.217212 205.436535 
L 209.900172 200.412624 
L 210.583133 198.516137 
L 211.266093 197.233192 
L 211.949053 196.515123 
L 212.632014 193.699069 
L 213.314974 195.677831 
L 213.997935 194.657693 
L 214.680895 194.148523 
L 215.363855 197.020747 
L 216.729776 187.256081 
L 217.412737 185.465149 
L 218.095697 177.301941 
L 218.778657 171.327113 
L 219.461618 172.307424 
L 220.827539 176.432067 
L 221.510499 179.839514 
L 222.19346 177.670559 
L 223.55938 180.691916 
L 224.242341 183.007537 
L 224.925301 184.70309 
L 225.608262 183.738813 
L 226.291222 183.293984 
L 226.974182 181.134844 
L 227.657143 182.268193 
L 228.340103 181.38393 
L 229.023064 181.347906 
L 229.706024 184.585099 
L 230.388985 173.486407 
L 231.071945 170.962041 
L 231.754905 171.602305 
L 232.437866 174.817247 
L 233.120826 171.760689 
L 233.803787 175.854909 
L 234.486747 170.72128 
L 235.169707 170.389097 
L 235.852668 173.477517 
L 236.535628 167.858563 
L 237.901549 165.643049 
L 238.584509 168.50407 
L 239.26747 169.019406 
L 239.95043 160.442511 
L 240.633391 159.686876 
L 241.316351 160.704547 
L 241.999312 159.598743 
L 242.682272 156.667369 
L 243.365232 161.633982 
L 244.048193 161.638555 
L 244.731153 160.223077 
L 245.414114 159.986016 
L 246.097074 157.738229 
L 246.780034 158.367547 
L 247.462995 159.843152 
L 248.145955 160.113205 
L 248.828916 159.802195 
L 250.194836 161.110423 
L 250.877797 158.8946 
L 251.560757 156.226702 
L 252.243718 154.408277 
L 252.926678 159.477206 
L 253.609639 162.024852 
L 254.292599 159.788679 
L 254.975559 159.526746 
L 256.34148 163.922418 
L 257.024441 163.356154 
L 257.707401 162.136368 
L 258.390361 168.686092 
L 259.073322 161.563321 
L 259.756282 148.174137 
L 260.439243 148.34141 
L 261.122203 149.875085 
L 261.805164 151.912894 
L 262.488124 151.959196 
L 263.171084 152.977998 
L 263.854045 152.126521 
L 264.537005 146.753005 
L 265.219966 144.393856 
L 265.902926 146.046139 
L 266.585886 137.951125 
L 267.268847 141.907672 
L 267.951807 139.212332 
L 268.634768 142.790445 
L 270.000688 146.358435 
L 270.683649 150.0679 
L 271.366609 145.083198 
L 272.04957 146.073067 
L 272.73253 146.182065 
L 273.415491 145.181353 
L 274.098451 145.720431 
L 274.781411 144.728147 
L 275.464372 145.237419 
L 276.147332 143.010907 
L 276.830293 137.818746 
L 278.196213 140.781826 
L 278.879174 139.504997 
L 279.562134 141.258569 
L 280.245095 141.888144 
L 280.928055 141.318027 
L 281.611015 141.83105 
L 282.293976 143.217443 
L 282.976936 143.523674 
L 283.659897 141.937735 
L 284.342857 132.774278 
L 285.025818 133.175734 
L 285.708778 134.202193 
L 286.391738 133.284321 
L 287.074699 132.912465 
L 287.757659 133.571281 
L 288.44062 135.569571 
L 289.12358 135.497317 
L 289.80654 132.925621 
L 290.489501 135.121555 
L 291.172461 130.293541 
L 291.855422 131.799517 
L 292.538382 131.762517 
L 293.221343 129.937205 
L 293.904303 129.876513 
L 294.587263 132.587271 
L 295.270224 131.295949 
L 295.953184 131.4513 
L 296.636145 134.492391 
L 297.319105 134.515927 
L 298.002065 137.660003 
L 298.685026 139.226105 
L 299.367986 138.7378 
L 300.050947 139.585216 
L 300.733907 145.745766 
L 301.416867 146.67777 
L 302.099828 151.577319 
L 302.782788 152.951018 
L 304.148709 139.653565 
L 304.83167 144.878616 
L 305.51463 148.553085 
L 306.19759 153.304682 
L 306.880551 150.565764 
L 307.563511 148.72375 
L 308.246472 148.45087 
L 308.929432 148.814247 
L 309.612392 147.13925 
L 310.295353 148.805305 
L 310.978313 148.230768 
L 311.661274 145.286959 
L 312.344234 144.935247 
L 313.027194 147.744056 
L 313.710155 148.156253 
L 314.393115 147.523543 
L 315.076076 151.023852 
L 315.759036 150.818395 
L 316.441997 148.844875 
L 317.124957 147.853156 
L 317.807917 146.445129 
L 318.490878 152.748542 
L 319.173838 155.599799 
L 319.856799 154.813074 
L 320.539759 155.53104 
L 321.222719 154.4831 
L 321.90568 156.859105 
L 322.58864 157.13404 
L 323.271601 158.649266 
L 323.954561 149.834539 
L 324.637522 149.631961 
L 325.320482 154.17764 
L 326.003442 155.685003 
L 326.686403 154.51342 
L 327.369363 149.769891 
L 328.052324 149.667163 
L 328.735284 148.123158 
L 329.418244 152.882104 
L 330.101205 151.071387 
L 330.784165 146.731832 
L 331.467126 145.524019 
L 332.150086 144.669717 
L 332.833046 145.456082 
L 333.516007 145.005754 
L 334.198967 141.137803 
L 334.881928 133.840101 
L 335.564888 139.610294 
L 336.247849 141.631453 
L 336.930809 142.021449 
L 337.613769 143.250127 
L 338.29673 148.779662 
L 338.97969 146.704031 
L 339.662651 145.338657 
L 340.345611 143.718338 
L 341.028571 140.881419 
L 342.394492 133.407605 
L 343.077453 131.014488 
L 343.760413 122.42788 
L 344.443373 117.619188 
L 345.126334 118.672318 
L 345.809294 118.634598 
L 346.492255 120.982287 
L 347.175215 120.375374 
L 347.858176 117.540819 
L 348.541136 116.504288 
L 349.224096 118.375131 
L 349.907057 116.86083 
L 350.590017 119.316951 
L 352.638898 104.971764 
L 353.321859 104.877206 
L 354.004819 102.970545 
L 354.68778 102.708971 
L 355.37074 102.110589 
L 356.053701 102.918127 
L 356.736661 103.909897 
L 357.419621 101.477724 
L 358.102582 105.42795 
L 358.785542 107.418583 
L 359.468503 112.796776 
L 360.151463 111.804286 
L 360.834423 112.619789 
L 361.517384 110.357099 
L 362.200344 105.348502 
L 362.883305 93.223556 
L 363.566265 93.13568 
L 364.249225 83.821342 
L 364.932186 77.302606 
L 365.615146 75.672934 
L 366.298107 73.667604 
L 366.981067 69.819181 
L 367.664028 70.152392 
L 368.346988 75.750225 
L 369.029948 75.883067 
L 369.712909 73.479569 
L 370.395869 72.177713 
L 371.07883 76.545172 
L 371.76179 77.69214 
L 372.44475 72.484253 
L 373.127711 69.92787 
L 373.810671 68.881832 
L 374.493632 70.902939 
L 375.176592 69.966156 
L 375.859552 73.105555 
L 376.542513 70.813932 
L 377.225473 74.555413 
L 377.908434 73.680503 
L 378.591394 73.608917 
L 379.274355 74.065001 
L 379.957315 76.050855 
L 380.640275 73.403255 
L 381.323236 63.461295 
L 382.006196 63.445621 
L 382.689157 62.360886 
L 383.372117 61.547541 
L 384.055077 64.551117 
L 384.738038 59.397035 
L 385.420998 55.630167 
L 386.103959 53.568 
L 386.786919 59.668527 
L 387.46988 60.432384 
L 388.15284 59.843612 
L 388.8358 56.837826 
L 389.518761 55.090421 
L 390.201721 59.771923 
L 390.884682 57.477217 
L 391.567642 62.19202 
L 392.250602 65.07005 
L 392.933563 66.272981 
L 393.616523 67.12009 
L 394.299484 74.517899 
L 394.982444 74.053027 
L 395.665404 75.69976 
L 396.348365 73.869874 
L 397.031325 75.648627 
L 397.714286 72.316465 
L 397.714286 72.316465 
" clip-path="url(#p07770a00ce)" style="fill: none; stroke: #ff8c00; stroke-width: 1.5; stroke-linecap: square"/>
   </g>
   <g id="line2d_14">
    <path d="M 57.6 291.182979 
L 397.714286 60.854293 
L 397.714286 60.854293 
" clip-path="url(#p07770a00ce)" style="fill: none; stroke: #000000; stroke-width: 2.5; stroke-linecap: square"/>
   </g>
   <g id="patch_3">
    <path d="M 57.6 307.584 
L 57.6 41.472 
" style="fill: none; stroke: #000000; stroke-width: 0.8; stroke-linejoin: miter; stroke-linecap: square"/>
   </g>
   <g id="patch_4">
    <path d="M 414.72 307.584 
L 414.72 41.472 
" style="fill: none; stroke: #000000; stroke-width: 0.8; stroke-linejoin: miter; stroke-linecap: square"/>
   </g>
   <g id="patch_5">
    <path d="M 57.6 307.584 
L 414.72 307.584 
" style="fill: none; stroke: #000000; stroke-width: 0.8; stroke-linejoin: miter; stroke-linecap: square"/>
   </g>
   <g id="patch_6">
    <path d="M 57.6 41.472 
L 414.72 41.472 
" style="fill: none; stroke: #000000; stroke-width: 0.8; stroke-linejoin: miter; stroke-linecap: square"/>
   </g>
   <g id="text_14">
    <!-- Independence of 6 DoF -->
    <g transform="translate(159.4515 35.472) scale(0.132 -0.132)">
     <defs>
      <path id="DejaVuSans-49" d="M 628 4666 
L 1259 4666 
L 1259 0 
L 628 0 
L 628 4666 
z
" transform="scale(0.015625)"/>
      <path id="DejaVuSans-64" d="M 2906 2969 
L 2906 4863 
L 3481 4863 
L 3481 0 
L 2906 0 
L 2906 525 
Q 2725 213 2448 61 
Q 2172 -91 1784 -91 
Q 1150 -91 751 415 
Q 353 922 353 1747 
Q 353 2572 751 3078 
Q 1150 3584 1784 3584 
Q 2172 3584 2448 3432 
Q 2725 3281 2906 2969 
z
M 947 1747 
Q 947 1113 1208 752 
Q 1469 391 1925 391 
Q 2381 391 2643 752 
Q 2906 1113 2906 1747 
Q 2906 2381 2643 2742 
Q 2381 3103 1925 3103 
Q 1469 3103 1208 2742 
Q 947 2381 947 1747 
z
" transform="scale(0.015625)"/>
      <path id="DejaVuSans-63" d="M 3122 3366 
L 3122 2828 
Q 2878 2963 2633 3030 
Q 2388 3097 2138 3097 
Q 1578 3097 1268 2742 
Q 959 2388 959 1747 
Q 959 1106 1268 751 
Q 1578 397 2138 397 
Q 2388 397 2633 464 
Q 2878 531 3122 666 
L 3122 134 
Q 2881 22 2623 -34 
Q 2366 -91 2075 -91 
Q 1284 -91 818 406 
Q 353 903 353 1747 
Q 353 2603 823 3093 
Q 1294 3584 2113 3584 
Q 2378 3584 2631 3529 
Q 2884 3475 3122 3366 
z
" transform="scale(0.015625)"/>
      <path id="DejaVuSans-66" d="M 2375 4863 
L 2375 4384 
L 1825 4384 
Q 1516 4384 1395 4259 
Q 1275 4134 1275 3809 
L 1275 3500 
L 2222 3500 
L 2222 3053 
L 1275 3053 
L 1275 0 
L 697 0 
L 697 3053 
L 147 3053 
L 147 3500 
L 697 3500 
L 697 3744 
Q 697 4328 969 4595 
Q 1241 4863 1831 4863 
L 2375 4863 
z
" transform="scale(0.015625)"/>
      <path id="DejaVuSans-36" d="M 2113 2584 
Q 1688 2584 1439 2293 
Q 1191 2003 1191 1497 
Q 1191 994 1439 701 
Q 1688 409 2113 409 
Q 2538 409 2786 701 
Q 3034 994 3034 1497 
Q 3034 2003 2786 2293 
Q 2538 2584 2113 2584 
z
M 3366 4563 
L 3366 3988 
Q 3128 4100 2886 4159 
Q 2644 4219 2406 4219 
Q 1781 4219 1451 3797 
Q 1122 3375 1075 2522 
Q 1259 2794 1537 2939 
Q 1816 3084 2150 3084 
Q 2853 3084 3261 2657 
Q 3669 2231 3669 1497 
Q 3669 778 3244 343 
Q 2819 -91 2113 -91 
Q 1303 -91 875 529 
Q 447 1150 447 2328 
Q 447 3434 972 4092 
Q 1497 4750 2381 4750 
Q 2619 4750 2861 4703 
Q 3103 4656 3366 4563 
z
" transform="scale(0.015625)"/>
      <path id="DejaVuSans-44" d="M 1259 4147 
L 1259 519 
L 2022 519 
Q 2988 519 3436 956 
Q 3884 1394 3884 2338 
Q 3884 3275 3436 3711 
Q 2988 4147 2022 4147 
L 1259 4147 
z
M 628 4666 
L 1925 4666 
Q 3281 4666 3915 4102 
Q 4550 3538 4550 2338 
Q 4550 1131 3912 565 
Q 3275 0 1925 0 
L 628 0 
L 628 4666 
z
" transform="scale(0.015625)"/>
      <path id="DejaVuSans-46" d="M 628 4666 
L 3309 4666 
L 3309 4134 
L 1259 4134 
L 1259 2759 
L 3109 2759 
L 3109 2228 
L 1259 2228 
L 1259 0 
L 628 0 
L 628 4666 
z
" transform="scale(0.015625)"/>
     </defs>
     <use xlink:href="#DejaVuSans-49"/>
     <use xlink:href="#DejaVuSans-6e" x="29.492188"/>
     <use xlink:href="#DejaVuSans-64" x="92.871094"/>
     <use xlink:href="#DejaVuSans-65" x="156.347656"/>
     <use xlink:href="#DejaVuSans-70" x="217.871094"/>
     <use xlink:href="#DejaVuSans-65" x="281.347656"/>
     <use xlink:href="#DejaVuSans-6e" x="342.871094"/>
     <use xlink:href="#DejaVuSans-64" x="406.25"/>
     <use xlink:href="#DejaVuSans-65" x="469.726562"/>
     <use xlink:href="#DejaVuSans-6e" x="531.25"/>
     <use xlink:href="#DejaVuSans-63" x="594.628906"/>
     <use xlink:href="#DejaVuSans-65" x="649.609375"/>
     <use xlink:href="#DejaVuSans-20" x="711.132812"/>
     <use xlink:href="#DejaVuSans-6f" x="742.919922"/>
     <use xlink:href="#DejaVuSans-66" x="804.101562"/>
     <use xlink:href="#DejaVuSans-20" x="839.306641"/>
     <use xlink:href="#DejaVuSans-36" x="871.09375"/>
     <use xlink:href="#DejaVuSans-20" x="934.716797"/>
     <use xlink:href="#DejaVuSans-44" x="966.503906"/>
     <use xlink:href="#DejaVuSans-6f" x="1043.505859"/>
     <use xlink:href="#DejaVuSans-46" x="1104.6875"/>
    </g>
   </g>
   <g id="legend_1">
    <g id="patch_7">
     <path d="M 65.3 98.709812 
L 175.4375 98.709812 
Q 177.6375 98.709812 177.6375 96.509812 
L 177.6375 49.172 
Q 177.6375 46.972 175.4375 46.972 
L 65.3 46.972 
Q 63.1 46.972 63.1 49.172 
L 63.1 96.509812 
Q 63.1 98.709812 65.3 98.709812 
z
" style="fill: #ffffff; opacity: 0.8; stroke: #cccccc; stroke-linejoin: miter"/>
    </g>
    <g id="line2d_15">
     <path d="M 67.5 55.880281 
L 78.5 55.880281 
L 89.5 55.880281 
" style="fill: none; stroke: #4169e1; stroke-width: 1.5; stroke-linecap: square"/>
    </g>
    <g id="text_15">
     <!-- Move X and Y -->
     <g transform="translate(98.3 59.730281) scale(0.11 -0.11)">
      <defs>
       <path id="DejaVuSans-4d" d="M 628 4666 
L 1569 4666 
L 2759 1491 
L 3956 4666 
L 4897 4666 
L 4897 0 
L 4281 0 
L 4281 4097 
L 3078 897 
L 2444 897 
L 1241 4097 
L 1241 0 
L 628 0 
L 628 4666 
z
" transform="scale(0.015625)"/>
       <path id="DejaVuSans-76" d="M 191 3500 
L 800 3500 
L 1894 563 
L 2988 3500 
L 3597 3500 
L 2284 0 
L 1503 0 
L 191 3500 
z
" transform="scale(0.015625)"/>
       <path id="DejaVuSans-61" d="M 2194 1759 
Q 1497 1759 1228 1600 
Q 959 1441 959 1056 
Q 959 750 1161 570 
Q 1363 391 1709 391 
Q 2188 391 2477 730 
Q 2766 1069 2766 1631 
L 2766 1759 
L 2194 1759 
z
M 3341 1997 
L 3341 0 
L 2766 0 
L 2766 531 
Q 2569 213 2275 61 
Q 1981 -91 1556 -91 
Q 1019 -91 701 211 
Q 384 513 384 1019 
Q 384 1609 779 1909 
Q 1175 2209 1959 2209 
L 2766 2209 
L 2766 2266 
Q 2766 2663 2505 2880 
Q 2244 3097 1772 3097 
Q 1472 3097 1187 3025 
Q 903 2953 641 2809 
L 641 3341 
Q 956 3463 1253 3523 
Q 1550 3584 1831 3584 
Q 2591 3584 2966 3190 
Q 3341 2797 3341 1997 
z
" transform="scale(0.015625)"/>
       <path id="DejaVuSans-59" d="M -13 4666 
L 666 4666 
L 1959 2747 
L 3244 4666 
L 3922 4666 
L 2272 2222 
L 2272 0 
L 1638 0 
L 1638 2222 
L -13 4666 
z
" transform="scale(0.015625)"/>
      </defs>
      <use xlink:href="#DejaVuSans-4d"/>
      <use xlink:href="#DejaVuSans-6f" x="86.279297"/>
      <use xlink:href="#DejaVuSans-76" x="147.460938"/>
      <use xlink:href="#DejaVuSans-65" x="206.640625"/>
      <use xlink:href="#DejaVuSans-20" x="268.164062"/>
      <use xlink:href="#DejaVuSans-58" x="299.951172"/>
      <use xlink:href="#DejaVuSans-20" x="368.457031"/>
      <use xlink:href="#DejaVuSans-61" x="400.244141"/>
      <use xlink:href="#DejaVuSans-6e" x="461.523438"/>
      <use xlink:href="#DejaVuSans-64" x="524.902344"/>
      <use xlink:href="#DejaVuSans-20" x="588.378906"/>
      <use xlink:href="#DejaVuSans-59" x="620.166016"/>
     </g>
    </g>
    <g id="line2d_16">
     <path d="M 67.5 72.026219 
L 78.5 72.026219 
L 89.5 72.026219 
" style="fill: none; stroke: #ff8c00; stroke-width: 1.5; stroke-linecap: square"/>
    </g>
    <g id="text_16">
     <!-- Move X -->
     <g transform="translate(98.3 75.876219) scale(0.11 -0.11)">
      <use xlink:href="#DejaVuSans-4d"/>
      <use xlink:href="#DejaVuSans-6f" x="86.279297"/>
      <use xlink:href="#DejaVuSans-76" x="147.460938"/>
      <use xlink:href="#DejaVuSans-65" x="206.640625"/>
      <use xlink:href="#DejaVuSans-20" x="268.164062"/>
      <use xlink:href="#DejaVuSans-58" x="299.951172"/>
     </g>
    </g>
    <g id="line2d_17">
     <path d="M 67.5 88.172156 
L 78.5 88.172156 
L 89.5 88.172156 
" style="fill: none; stroke: #000000; stroke-width: 2.5; stroke-linecap: square"/>
    </g>
    <g id="text_17">
     <!-- Ground Truth -->
     <g transform="translate(98.3 92.022156) scale(0.11 -0.11)">
      <defs>
       <path id="DejaVuSans-47" d="M 3809 666 
L 3809 1919 
L 2778 1919 
L 2778 2438 
L 4434 2438 
L 4434 434 
Q 4069 175 3628 42 
Q 3188 -91 2688 -91 
Q 1594 -91 976 548 
Q 359 1188 359 2328 
Q 359 3472 976 4111 
Q 1594 4750 2688 4750 
Q 3144 4750 3555 4637 
Q 3966 4525 4313 4306 
L 4313 3634 
Q 3963 3931 3569 4081 
Q 3175 4231 2741 4231 
Q 1884 4231 1454 3753 
Q 1025 3275 1025 2328 
Q 1025 1384 1454 906 
Q 1884 428 2741 428 
Q 3075 428 3337 486 
Q 3600 544 3809 666 
z
" transform="scale(0.015625)"/>
       <path id="DejaVuSans-72" d="M 2631 2963 
Q 2534 3019 2420 3045 
Q 2306 3072 2169 3072 
Q 1681 3072 1420 2755 
Q 1159 2438 1159 1844 
L 1159 0 
L 581 0 
L 581 3500 
L 1159 3500 
L 1159 2956 
Q 1341 3275 1631 3429 
Q 1922 3584 2338 3584 
Q 2397 3584 2469 3576 
Q 2541 3569 2628 3553 
L 2631 2963 
z
" transform="scale(0.015625)"/>
       <path id="DejaVuSans-75" d="M 544 1381 
L 544 3500 
L 1119 3500 
L 1119 1403 
Q 1119 906 1312 657 
Q 1506 409 1894 409 
Q 2359 409 2629 706 
Q 2900 1003 2900 1516 
L 2900 3500 
L 3475 3500 
L 3475 0 
L 2900 0 
L 2900 538 
Q 2691 219 2414 64 
Q 2138 -91 1772 -91 
Q 1169 -91 856 284 
Q 544 659 544 1381 
z
M 1991 3584 
L 1991 3584 
z
" transform="scale(0.015625)"/>
       <path id="DejaVuSans-68" d="M 3513 2113 
L 3513 0 
L 2938 0 
L 2938 2094 
Q 2938 2591 2744 2837 
Q 2550 3084 2163 3084 
Q 1697 3084 1428 2787 
Q 1159 2491 1159 1978 
L 1159 0 
L 581 0 
L 581 4863 
L 1159 4863 
L 1159 2956 
Q 1366 3272 1645 3428 
Q 1925 3584 2291 3584 
Q 2894 3584 3203 3211 
Q 3513 2838 3513 2113 
z
" transform="scale(0.015625)"/>
      </defs>
      <use xlink:href="#DejaVuSans-47"/>
      <use xlink:href="#DejaVuSans-72" x="77.490234"/>
      <use xlink:href="#DejaVuSans-6f" x="116.353516"/>
      <use xlink:href="#DejaVuSans-75" x="177.535156"/>
      <use xlink:href="#DejaVuSans-6e" x="240.914062"/>
      <use xlink:href="#DejaVuSans-64" x="304.292969"/>
      <use xlink:href="#DejaVuSans-20" x="367.769531"/>
      <use xlink:href="#DejaVuSans-54" x="399.556641"/>
      <use xlink:href="#DejaVuSans-72" x="445.890625"/>
      <use xlink:href="#DejaVuSans-75" x="487.003906"/>
      <use xlink:href="#DejaVuSans-74" x="550.382812"/>
      <use xlink:href="#DejaVuSans-68" x="589.591797"/>
     </g>
    </g>
   </g>
  </g>
 </g>
 <defs>
  <clipPath id="p07770a00ce">
   <rect x="57.6" y="41.472" width="357.12" height="266.112"/>
  </clipPath>
 </defs>
</svg>
