<?xml version="1.0" encoding="utf-8" standalone="no"?>
<!DOCTYPE svg PUBLIC "-//W3C//DTD SVG 1.1//EN"
  "http://www.w3.org/Graphics/SVG/1.1/DTD/svg11.dtd">
<svg xmlns:xlink="http://www.w3.org/1999/xlink" width="447.759707pt" height="349.28073pt" viewBox="0 0 447.759707 349.28073" xmlns="http://www.w3.org/2000/svg" version="1.1">
 <metadata>
  <rdf:RDF xmlns:dc="http://purl.org/dc/elements/1.1/" xmlns:cc="http://creativecommons.org/ns#" xmlns:rdf="http://www.w3.org/1999/02/22-rdf-syntax-ns#">
   <cc:Work>
    <dc:type rdf:resource="http://purl.org/dc/dcmitype/StillImage"/>
    <dc:date>2023-06-21T11:01:36.357823</dc:date>
    <dc:format>image/svg+xml</dc:format>
    <dc:creator>
     <cc:Agent>
      <dc:title>Matplotlib v3.6.1, https://matplotlib.org/</dc:title>
     </cc:Agent>
    </dc:creator>
   </cc:Work>
  </rdf:RDF>
 </metadata>
 <defs>
  <style type="text/css">*{stroke-linejoin: round; stroke-linecap: butt}</style>
 </defs>
 <g id="figure_1">
  <g id="patch_1">
   <path d="M 0 349.28073 
L 447.759707 349.28073 
L 447.759707 0 
L 0 0 
z
" style="fill: #ffffff"/>
  </g>
  <g id="axes_1">
   <g id="patch_2">
    <path d="M 38.799707 302.8533 
L 440.559707 302.8533 
L 440.559707 25.6533 
L 38.799707 25.6533 
z
" style="fill: #ffffff"/>
   </g>
   <g id="matplotlib.axis_1">
    <g id="xtick_1">
     <g id="line2d_1">
      <defs>
       <path id="m9d9997de70" d="M 0 0 
L 0 3.5 
" style="stroke: #000000; stroke-width: 0.8"/>
      </defs>
      <g>
       <use xlink:href="#m9d9997de70" x="38.799707" y="302.8533" style="stroke: #000000; stroke-width: 0.8"/>
      </g>
     </g>
     <g id="text_1">
      <!-- $\mathdefault{0}$ -->
      <g transform="translate(35.141588 320.231025) scale(0.15 -0.15)">
       <defs>
        <path id="CMR17-30" d="M 2688 2025 
C 2688 2416 2682 3080 2413 3591 
C 2176 4039 1798 4198 1466 4198 
C 1158 4198 768 4058 525 3597 
C 269 3118 243 2524 243 2025 
C 243 1661 250 1106 448 619 
C 723 -39 1216 -128 1466 -128 
C 1760 -128 2208 -7 2470 600 
C 2662 1042 2688 1559 2688 2025 
z
M 1466 -26 
C 1056 -26 813 325 723 812 
C 653 1188 653 1738 653 2096 
C 653 2588 653 2997 736 3387 
C 858 3929 1216 4096 1466 4096 
C 1728 4096 2067 3923 2189 3400 
C 2272 3036 2278 2607 2278 2096 
C 2278 1680 2278 1169 2202 792 
C 2067 95 1690 -26 1466 -26 
z
" transform="scale(0.015625)"/>
       </defs>
       <use xlink:href="#CMR17-30" transform="scale(0.996264)"/>
      </g>
     </g>
    </g>
    <g id="xtick_2">
     <g id="line2d_2">
      <g>
       <use xlink:href="#m9d9997de70" x="115.325422" y="302.8533" style="stroke: #000000; stroke-width: 0.8"/>
      </g>
     </g>
     <g id="text_2">
      <!-- $\mathdefault{100}$ -->
      <g transform="translate(104.351065 320.231025) scale(0.15 -0.15)">
       <defs>
        <path id="CMR17-31" d="M 1702 4058 
C 1702 4192 1696 4192 1606 4192 
C 1357 3916 979 3827 621 3827 
C 602 3827 570 3827 563 3808 
C 557 3795 557 3782 557 3648 
C 755 3648 1088 3686 1344 3839 
L 1344 461 
C 1344 236 1331 160 781 160 
L 589 160 
L 589 0 
C 896 0 1216 0 1523 0 
C 1830 0 2150 0 2458 0 
L 2458 160 
L 2266 160 
C 1715 160 1702 230 1702 458 
L 1702 4058 
z
" transform="scale(0.015625)"/>
       </defs>
       <use xlink:href="#CMR17-31" transform="scale(0.996264)"/>
       <use xlink:href="#CMR17-30" transform="translate(45.690477 0) scale(0.996264)"/>
       <use xlink:href="#CMR17-30" transform="translate(91.380954 0) scale(0.996264)"/>
      </g>
     </g>
    </g>
    <g id="xtick_3">
     <g id="line2d_3">
      <g>
       <use xlink:href="#m9d9997de70" x="191.851136" y="302.8533" style="stroke: #000000; stroke-width: 0.8"/>
      </g>
     </g>
     <g id="text_3">
      <!-- $\mathdefault{200}$ -->
      <g transform="translate(180.876779 320.231025) scale(0.15 -0.15)">
       <defs>
        <path id="CMR17-32" d="M 2669 989 
L 2554 989 
C 2490 536 2438 459 2413 420 
C 2381 369 1920 369 1830 369 
L 602 369 
C 832 619 1280 1072 1824 1597 
C 2214 1967 2669 2402 2669 3035 
C 2669 3790 2067 4224 1395 4224 
C 691 4224 262 3604 262 3030 
C 262 2780 448 2748 525 2748 
C 589 2748 781 2787 781 3010 
C 781 3207 614 3264 525 3264 
C 486 3264 448 3258 422 3245 
C 544 3790 915 4058 1306 4058 
C 1862 4058 2227 3617 2227 3035 
C 2227 2479 1901 2000 1536 1584 
L 262 146 
L 262 0 
L 2515 0 
L 2669 989 
z
" transform="scale(0.015625)"/>
       </defs>
       <use xlink:href="#CMR17-32" transform="scale(0.996264)"/>
       <use xlink:href="#CMR17-30" transform="translate(45.690477 0) scale(0.996264)"/>
       <use xlink:href="#CMR17-30" transform="translate(91.380954 0) scale(0.996264)"/>
      </g>
     </g>
    </g>
    <g id="xtick_4">
     <g id="line2d_4">
      <g>
       <use xlink:href="#m9d9997de70" x="268.37685" y="302.8533" style="stroke: #000000; stroke-width: 0.8"/>
      </g>
     </g>
     <g id="text_4">
      <!-- $\mathdefault{300}$ -->
      <g transform="translate(257.402493 320.231025) scale(0.15 -0.15)">
       <defs>
        <path id="CMR17-33" d="M 1414 2157 
C 1984 2157 2234 1662 2234 1090 
C 2234 320 1824 25 1453 25 
C 1114 25 563 194 390 693 
C 422 680 454 680 486 680 
C 640 680 755 782 755 948 
C 755 1133 614 1216 486 1216 
C 378 1216 211 1165 211 926 
C 211 335 787 -128 1466 -128 
C 2176 -128 2720 430 2720 1085 
C 2720 1707 2208 2157 1600 2227 
C 2086 2328 2554 2756 2554 3329 
C 2554 3820 2048 4179 1472 4179 
C 890 4179 378 3829 378 3329 
C 378 3110 544 3072 627 3072 
C 762 3072 877 3155 877 3321 
C 877 3486 762 3569 627 3569 
C 602 3569 570 3569 544 3557 
C 730 3959 1235 4032 1459 4032 
C 1683 4032 2106 3925 2106 3320 
C 2106 3143 2080 2828 1862 2550 
C 1670 2304 1453 2304 1242 2284 
C 1210 2284 1062 2269 1037 2269 
C 992 2263 966 2257 966 2208 
C 966 2163 973 2157 1101 2157 
L 1414 2157 
z
" transform="scale(0.015625)"/>
       </defs>
       <use xlink:href="#CMR17-33" transform="scale(0.996264)"/>
       <use xlink:href="#CMR17-30" transform="translate(45.690477 0) scale(0.996264)"/>
       <use xlink:href="#CMR17-30" transform="translate(91.380954 0) scale(0.996264)"/>
      </g>
     </g>
    </g>
    <g id="xtick_5">
     <g id="line2d_5">
      <g>
       <use xlink:href="#m9d9997de70" x="344.902564" y="302.8533" style="stroke: #000000; stroke-width: 0.8"/>
      </g>
     </g>
     <g id="text_5">
      <!-- $\mathdefault{400}$ -->
      <g transform="translate(333.928208 320.231025) scale(0.15 -0.15)">
       <defs>
        <path id="CMR17-34" d="M 2150 4122 
C 2150 4256 2144 4256 2029 4256 
L 128 1254 
L 128 1088 
L 1779 1088 
L 1779 457 
C 1779 224 1766 160 1318 160 
L 1197 160 
L 1197 0 
C 1402 0 1747 0 1965 0 
C 2182 0 2528 0 2733 0 
L 2733 160 
L 2611 160 
C 2163 160 2150 224 2150 457 
L 2150 1088 
L 2803 1088 
L 2803 1254 
L 2150 1254 
L 2150 4122 
z
M 1798 3703 
L 1798 1254 
L 256 1254 
L 1798 3703 
z
" transform="scale(0.015625)"/>
       </defs>
       <use xlink:href="#CMR17-34" transform="scale(0.996264)"/>
       <use xlink:href="#CMR17-30" transform="translate(45.690477 0) scale(0.996264)"/>
       <use xlink:href="#CMR17-30" transform="translate(91.380954 0) scale(0.996264)"/>
      </g>
     </g>
    </g>
    <g id="xtick_6">
     <g id="line2d_6">
      <g>
       <use xlink:href="#m9d9997de70" x="421.428279" y="302.8533" style="stroke: #000000; stroke-width: 0.8"/>
      </g>
     </g>
     <g id="text_6">
      <!-- $\mathdefault{500}$ -->
      <g transform="translate(410.453922 320.231025) scale(0.15 -0.15)">
       <defs>
        <path id="CMR17-35" d="M 730 3692 
C 794 3666 1056 3584 1325 3584 
C 1920 3584 2246 3911 2432 4100 
C 2432 4157 2432 4192 2394 4192 
C 2387 4192 2374 4192 2323 4163 
C 2099 4058 1837 3973 1517 3973 
C 1325 3973 1037 3999 723 4139 
C 653 4171 640 4171 634 4171 
C 602 4171 595 4164 595 4037 
L 595 2203 
C 595 2089 595 2057 659 2057 
C 691 2057 704 2070 736 2114 
C 941 2401 1222 2522 1542 2522 
C 1766 2522 2246 2382 2246 1289 
C 2246 1085 2246 715 2054 421 
C 1894 159 1645 25 1370 25 
C 947 25 518 320 403 814 
C 429 807 480 795 506 795 
C 589 795 749 840 749 1038 
C 749 1210 627 1280 506 1280 
C 358 1280 262 1190 262 1011 
C 262 454 704 -128 1382 -128 
C 2042 -128 2669 440 2669 1264 
C 2669 2030 2170 2624 1549 2624 
C 1222 2624 947 2503 730 2274 
L 730 3692 
z
" transform="scale(0.015625)"/>
       </defs>
       <use xlink:href="#CMR17-35" transform="scale(0.996264)"/>
       <use xlink:href="#CMR17-30" transform="translate(45.690477 0) scale(0.996264)"/>
       <use xlink:href="#CMR17-30" transform="translate(91.380954 0) scale(0.996264)"/>
      </g>
     </g>
    </g>
    <g id="text_7">
     <!-- Time [s] -->
     <g transform="translate(213.625775 338.34474) scale(0.15 -0.15)">
      <defs>
       <path id="CMR17-54" d="M 3981 4326 
L 288 4326 
L 179 2918 
L 294 2918 
C 378 3976 467 4160 1453 4160 
C 1568 4160 1754 4160 1805 4154 
C 1926 4135 1926 4058 1926 3912 
L 1926 459 
C 1926 230 1907 160 1376 160 
L 1197 160 
L 1197 0 
C 1504 0 1824 0 2138 0 
C 2451 0 2771 0 3078 0 
L 3078 160 
L 2899 160 
C 2368 160 2349 230 2349 459 
L 2349 3912 
C 2349 4052 2349 4129 2464 4154 
C 2515 4160 2701 4160 2816 4160 
C 3795 4160 3891 3976 3974 2918 
L 4090 2918 
L 3981 4326 
z
" transform="scale(0.015625)"/>
       <path id="CMR17-69" d="M 992 3909 
C 992 4049 877 4170 730 4170 
C 589 4170 467 4056 467 3909 
C 467 3769 582 3648 730 3648 
C 870 3648 992 3763 992 3909 
z
M 243 2706 
L 243 2541 
C 602 2541 653 2502 653 2197 
L 653 427 
C 653 184 627 153 218 153 
L 218 -13 
C 371 0 646 0 806 0 
C 960 0 1222 0 1370 -13 
L 1370 153 
C 992 153 979 191 979 420 
L 979 2776 
L 243 2706 
z
" transform="scale(0.015625)"/>
       <path id="CMR17-6d" d="M 4326 1933 
C 4326 2252 4269 2790 3507 2790 
C 3072 2790 2771 2496 2656 2151 
L 2650 2151 
C 2573 2676 2195 2790 1837 2790 
C 1331 2790 1069 2400 973 2144 
L 966 2144 
L 966 2790 
L 211 2720 
L 211 2554 
C 589 2554 646 2515 646 2208 
L 646 428 
C 646 184 621 153 211 153 
L 211 -13 
C 365 0 646 0 813 0 
C 979 0 1267 0 1421 -13 
L 1421 153 
C 1011 153 986 178 986 428 
L 986 1658 
C 986 2247 1344 2688 1792 2688 
C 2266 2688 2317 2266 2317 1958 
L 2317 428 
C 2317 184 2291 153 1882 153 
L 1882 -13 
C 2035 0 2317 0 2483 0 
C 2650 0 2938 0 3091 -13 
L 3091 153 
C 2682 153 2656 178 2656 428 
L 2656 1658 
C 2656 2247 3014 2688 3462 2688 
C 3936 2688 3987 2266 3987 1958 
L 3987 428 
C 3987 184 3962 153 3552 153 
L 3552 -13 
C 3706 0 3987 0 4154 0 
C 4320 0 4608 0 4762 -13 
L 4762 153 
C 4352 153 4326 178 4326 428 
L 4326 1933 
z
" transform="scale(0.015625)"/>
       <path id="CMR17-65" d="M 2438 1472 
C 2464 1498 2464 1511 2464 1576 
C 2464 2238 2118 2816 1389 2816 
C 710 2816 173 2169 173 1383 
C 173 551 781 -64 1459 -64 
C 2176 -64 2458 607 2458 740 
C 2458 784 2419 784 2406 784 
C 2362 784 2355 771 2330 696 
C 2189 265 1837 51 1504 51 
C 1229 51 954 203 781 480 
C 582 803 582 1176 582 1472 
L 2438 1472 
z
M 589 1568 
C 634 2505 1126 2714 1382 2714 
C 1818 2714 2112 2297 2118 1568 
L 589 1568 
z
" transform="scale(0.015625)"/>
       <path id="CMR17-5b" d="M 1504 -1600 
L 1504 -1377 
L 902 -1377 
L 902 4544 
L 1504 4544 
L 1504 4767 
L 678 4767 
L 678 -1600 
L 1504 -1600 
z
" transform="scale(0.015625)"/>
       <path id="CMR17-73" d="M 1978 2697 
C 1978 2813 1971 2819 1933 2819 
C 1907 2819 1901 2813 1824 2717 
C 1805 2691 1747 2626 1728 2601 
C 1523 2819 1235 2819 1126 2819 
C 416 2819 160 2447 160 2076 
C 160 1498 813 1365 998 1325 
C 1402 1243 1542 1217 1677 1101 
C 1760 1025 1901 884 1901 654 
C 1901 384 1747 38 1158 38 
C 602 38 403 460 288 1021 
C 269 1110 269 1117 218 1117 
C 166 1117 160 1110 160 983 
L 160 63 
C 160 -51 166 -58 205 -58 
C 237 -58 243 -51 275 0 
C 314 57 410 211 448 276 
C 576 103 800 -64 1158 -64 
C 1792 -64 2131 283 2131 784 
C 2131 1112 1958 1285 1875 1362 
C 1683 1561 1459 1606 1190 1657 
C 838 1735 390 1825 390 2217 
C 390 2383 480 2737 1126 2737 
C 1811 2737 1850 2094 1862 1888 
C 1869 1856 1901 1849 1920 1849 
C 1978 1849 1978 1869 1978 1978 
L 1978 2697 
z
" transform="scale(0.015625)"/>
       <path id="CMR17-5d" d="M 915 4767 
L 90 4767 
L 90 4544 
L 691 4544 
L 691 -1377 
L 90 -1377 
L 90 -1600 
L 915 -1600 
L 915 4767 
z
" transform="scale(0.015625)"/>
      </defs>
      <use xlink:href="#CMR17-54" transform="scale(0.996264)"/>
      <use xlink:href="#CMR17-69" transform="translate(66.509881 0) scale(0.996264)"/>
      <use xlink:href="#CMR17-6d" transform="translate(91.380939 0) scale(0.996264)"/>
      <use xlink:href="#CMR17-65" transform="translate(168.300529 0) scale(0.996264)"/>
      <use xlink:href="#CMR17-5b" transform="translate(238.862156 0) scale(0.996264)"/>
      <use xlink:href="#CMR17-73" transform="translate(263.733214 0) scale(0.996264)"/>
      <use xlink:href="#CMR17-5d" transform="translate(299.534552 0) scale(0.996264)"/>
     </g>
    </g>
   </g>
   <g id="matplotlib.axis_2">
    <g id="ytick_1">
     <g id="line2d_7">
      <defs>
       <path id="m63473b2f52" d="M 0 0 
L -3.5 0 
" style="stroke: #000000; stroke-width: 0.8"/>
      </defs>
      <g>
       <use xlink:href="#m63473b2f52" x="38.799707" y="285.456001" style="stroke: #000000; stroke-width: 0.8"/>
      </g>
     </g>
     <g id="text_8">
      <!-- $\mathdefault{0}$ -->
      <g transform="translate(24.483469 290.644864) scale(0.15 -0.15)">
       <use xlink:href="#CMR17-30" transform="scale(0.996264)"/>
      </g>
     </g>
    </g>
    <g id="ytick_2">
     <g id="line2d_8">
      <g>
       <use xlink:href="#m63473b2f52" x="38.799707" y="232.200022" style="stroke: #000000; stroke-width: 0.8"/>
      </g>
     </g>
     <g id="text_9">
      <!-- $\mathdefault{1}$ -->
      <g transform="translate(24.483469 237.388884) scale(0.15 -0.15)">
       <use xlink:href="#CMR17-31" transform="scale(0.996264)"/>
      </g>
     </g>
    </g>
    <g id="ytick_3">
     <g id="line2d_9">
      <g>
       <use xlink:href="#m63473b2f52" x="38.799707" y="178.944042" style="stroke: #000000; stroke-width: 0.8"/>
      </g>
     </g>
     <g id="text_10">
      <!-- $\mathdefault{2}$ -->
      <g transform="translate(24.483469 184.132904) scale(0.15 -0.15)">
       <use xlink:href="#CMR17-32" transform="scale(0.996264)"/>
      </g>
     </g>
    </g>
    <g id="ytick_4">
     <g id="line2d_10">
      <g>
       <use xlink:href="#m63473b2f52" x="38.799707" y="125.688062" style="stroke: #000000; stroke-width: 0.8"/>
      </g>
     </g>
     <g id="text_11">
      <!-- $\mathdefault{3}$ -->
      <g transform="translate(24.483469 130.876925) scale(0.15 -0.15)">
       <use xlink:href="#CMR17-33" transform="scale(0.996264)"/>
      </g>
     </g>
    </g>
    <g id="ytick_5">
     <g id="line2d_11">
      <g>
       <use xlink:href="#m63473b2f52" x="38.799707" y="72.432083" style="stroke: #000000; stroke-width: 0.8"/>
      </g>
     </g>
     <g id="text_12">
      <!-- $\mathdefault{4}$ -->
      <g transform="translate(24.483469 77.620945) scale(0.15 -0.15)">
       <use xlink:href="#CMR17-34" transform="scale(0.996264)"/>
      </g>
     </g>
    </g>
    <g id="text_13">
     <!-- X-position -->
     <g transform="translate(17.577725 197.620878) rotate(-90) scale(0.15 -0.15)">
      <defs>
       <path id="CMR17-58" d="M 2336 2398 
L 3283 3753 
C 3379 3886 3571 4160 4096 4160 
L 4096 4332 
C 3949 4319 3706 4319 3552 4319 
C 3341 4319 3078 4319 2918 4332 
L 2918 4166 
C 3123 4147 3174 4020 3174 3918 
C 3174 3843 3142 3792 3098 3728 
L 2253 2513 
L 1306 3887 
C 1261 3956 1254 3975 1254 3994 
C 1254 4052 1325 4160 1536 4160 
L 1536 4319 
C 1331 4319 1018 4319 806 4319 
C 640 4319 320 4319 166 4332 
L 166 4160 
C 518 4160 634 4148 774 3951 
L 2010 2163 
L 896 549 
C 621 153 205 153 83 153 
L 83 -13 
C 230 0 474 0 627 0 
C 800 0 1101 0 1261 -13 
L 1261 153 
C 1062 172 1005 299 1005 401 
C 1005 483 1037 528 1069 572 
L 2093 2048 
L 3206 422 
C 3258 352 3258 333 3258 314 
C 3258 263 3200 153 2976 153 
L 2976 0 
C 3181 0 3494 0 3706 0 
C 3872 0 4192 0 4346 -13 
L 4346 153 
C 3936 153 3872 184 3744 363 
L 2336 2398 
z
" transform="scale(0.015625)"/>
       <path id="CMR17-2d" d="M 1632 1216 
L 1632 1496 
L 26 1496 
L 26 1216 
L 1632 1216 
z
" transform="scale(0.015625)"/>
       <path id="CMR17-70" d="M 1408 -1063 
C 998 -1063 973 -1037 973 -789 
L 973 402 
C 1158 134 1427 -38 1766 -38 
C 2406 -38 3053 523 3053 1388 
C 3053 2191 2496 2802 1837 2802 
C 1453 2802 1139 2592 960 2338 
L 960 2802 
L 198 2732 
L 198 2567 
C 576 2567 634 2528 634 2223 
L 634 -789 
C 634 -1031 608 -1063 198 -1063 
L 198 -1228 
C 352 -1216 634 -1216 800 -1216 
C 966 -1216 1254 -1216 1408 -1228 
L 1408 -1063 
z
M 973 2012 
C 973 2102 973 2235 1222 2471 
C 1254 2497 1472 2688 1792 2688 
C 2259 2688 2643 2108 2643 1382 
C 2643 656 2234 64 1728 64 
C 1498 64 1248 172 1056 472 
C 973 612 973 650 973 752 
L 973 2012 
z
" transform="scale(0.015625)"/>
       <path id="CMR17-6f" d="M 2758 1356 
C 2758 2176 2163 2816 1466 2816 
C 768 2816 173 2176 173 1356 
C 173 551 768 -64 1466 -64 
C 2163 -64 2758 551 2758 1356 
z
M 1466 51 
C 1165 51 909 230 762 480 
C 602 767 582 1126 582 1408 
C 582 1677 595 2010 762 2298 
C 890 2509 1139 2714 1466 2714 
C 1754 2714 1997 2554 2150 2330 
C 2349 2029 2349 1607 2349 1408 
C 2349 1158 2336 775 2163 467 
C 1984 173 1709 51 1466 51 
z
" transform="scale(0.015625)"/>
       <path id="CMR17-74" d="M 966 2560 
L 1862 2560 
L 1862 2725 
L 966 2725 
L 966 3904 
L 851 3904 
C 838 3245 614 2668 70 2668 
L 70 2560 
L 627 2560 
L 627 771 
C 627 650 627 -64 1370 -64 
C 1747 -64 1965 306 1965 777 
L 1965 1140 
L 1850 1140 
L 1850 783 
C 1850 344 1677 51 1408 51 
C 1222 51 966 178 966 758 
L 966 2560 
z
" transform="scale(0.015625)"/>
       <path id="CMR17-6e" d="M 2656 1933 
C 2656 2259 2592 2790 1837 2790 
C 1331 2790 1069 2400 973 2144 
L 966 2144 
L 966 2790 
L 211 2720 
L 211 2554 
C 589 2554 646 2515 646 2208 
L 646 428 
C 646 184 621 153 211 153 
L 211 -13 
C 365 0 646 0 813 0 
C 979 0 1267 0 1421 -13 
L 1421 153 
C 1011 153 986 178 986 428 
L 986 1658 
C 986 2247 1344 2688 1792 2688 
C 2266 2688 2317 2266 2317 1958 
L 2317 428 
C 2317 184 2291 153 1882 153 
L 1882 -13 
C 2035 0 2317 0 2483 0 
C 2650 0 2938 0 3091 -13 
L 3091 153 
C 2682 153 2656 178 2656 428 
L 2656 1933 
z
" transform="scale(0.015625)"/>
      </defs>
      <use xlink:href="#CMR17-58" transform="scale(0.996264)"/>
      <use xlink:href="#CMR17-2d" transform="translate(69.07243 0) scale(0.996264)"/>
      <use xlink:href="#CMR17-70" transform="translate(99.148396 0) scale(0.996264)"/>
      <use xlink:href="#CMR17-6f" transform="translate(152.646205 0) scale(0.996264)"/>
      <use xlink:href="#CMR17-73" transform="translate(198.336682 0) scale(0.996264)"/>
      <use xlink:href="#CMR17-69" transform="translate(234.138019 0) scale(0.996264)"/>
      <use xlink:href="#CMR17-74" transform="translate(259.009078 0) scale(0.996264)"/>
      <use xlink:href="#CMR17-69" transform="translate(294.289846 0) scale(0.996264)"/>
      <use xlink:href="#CMR17-6f" transform="translate(319.160904 0) scale(0.996264)"/>
      <use xlink:href="#CMR17-6e" transform="translate(364.851381 0) scale(0.996264)"/>
     </g>
    </g>
   </g>
   <g id="line2d_12">
    <path d="M 38.799707 285.172254 
L 39.568038 287.298658 
L 40.336368 288.35547 
L 41.104699 289.221679 
L 41.873029 286.917825 
L 42.64136 287.048195 
L 43.40969 290.2533 
L 44.178021 287.972453 
L 44.946351 284.827261 
L 45.714681 283.755751 
L 46.483012 284.331235 
L 47.251342 289.782571 
L 48.019673 286.588277 
L 48.788003 289.566351 
L 49.556334 278.462799 
L 50.324664 275.984639 
L 51.861325 264.432937 
L 53.397986 255.208948 
L 54.166317 248.3066 
L 54.934647 250.462509 
L 55.702977 251.254745 
L 56.471308 242.466763 
L 57.239638 242.396944 
L 58.007969 241.232981 
L 58.776299 244.167865 
L 59.54463 246.011534 
L 61.081291 244.966066 
L 61.849621 242.396092 
L 62.617952 249.658504 
L 63.386282 248.550566 
L 64.154613 255.607409 
L 64.922943 257.828184 
L 65.691274 253.425086 
L 66.459604 253.030885 
L 67.227934 254.645553 
L 67.996265 255.295329 
L 68.764595 251.090024 
L 69.532926 250.965991 
L 70.301256 250.7257 
L 71.069587 252.895988 
L 71.837917 257.213929 
L 72.606248 256.871973 
L 73.374578 252.666774 
L 74.142909 251.934664 
L 74.911239 258.824603 
L 75.67957 261.211536 
L 76.4479 264.251654 
L 77.216231 262.99444 
L 77.984561 263.096745 
L 78.752891 270.522439 
L 79.521222 272.546273 
L 80.289552 271.635595 
L 81.057883 263.331391 
L 81.826213 265.241256 
L 82.594544 270.673047 
L 83.362874 269.846674 
L 84.131205 270.667988 
L 84.899535 269.350381 
L 85.667866 265.650848 
L 86.436196 265.164461 
L 87.204527 262.13393 
L 87.972857 262.265525 
L 88.741187 263.998848 
L 89.509518 264.067921 
L 90.277848 264.782669 
L 91.046179 264.766107 
L 91.814509 266.107784 
L 92.58284 265.035582 
L 93.35117 264.19435 
L 94.119501 260.714125 
L 94.887831 258.567111 
L 95.656162 267.588833 
L 96.424492 271.57041 
L 97.192823 271.70813 
L 97.961153 270.890278 
L 98.729484 264.227422 
L 99.497814 266.538572 
L 100.266144 264.78432 
L 101.034475 264.919857 
L 101.802805 274.430789 
L 102.571136 268.177578 
L 103.339466 272.344539 
L 104.107797 273.917454 
L 105.644458 275.456233 
L 107.181119 271.172055 
L 107.949449 270.954451 
L 108.71778 263.672868 
L 109.48611 260.240786 
L 110.25444 263.212044 
L 111.022771 262.768794 
L 111.791101 257.404266 
L 112.559432 250.708818 
L 113.327762 241.570944 
L 114.096093 235.38686 
L 114.864423 236.530425 
L 115.632754 228.146656 
L 116.401084 222.879426 
L 117.169415 218.822865 
L 118.706076 209.23828 
L 119.474406 205.604092 
L 120.242737 200.406841 
L 121.011067 200.119951 
L 121.779397 203.112298 
L 122.547728 202.882552 
L 123.316058 205.1577 
L 124.084389 202.505766 
L 124.852719 201.232468 
L 125.62105 203.296617 
L 126.38938 204.188175 
L 127.926041 202.27341 
L 129.462702 214.608933 
L 130.231033 216.520183 
L 130.999363 221.473522 
L 131.767694 224.234205 
L 132.536024 223.188151 
L 133.304354 226.664382 
L 135.609346 234.038099 
L 136.377676 226.593978 
L 137.146007 228.831581 
L 137.914337 227.476909 
L 138.682668 232.168494 
L 139.450998 234.152972 
L 140.219329 233.691029 
L 140.987659 237.712175 
L 141.75599 237.888346 
L 142.52432 235.873886 
L 143.29265 239.959258 
L 144.060981 246.054565 
L 145.597642 238.828048 
L 146.365972 249.226225 
L 147.134303 253.458264 
L 147.902633 254.622067 
L 148.670964 249.618029 
L 149.439294 245.534733 
L 150.207625 245.047761 
L 150.975955 245.235381 
L 151.744286 246.403818 
L 152.512616 244.286892 
L 153.280947 244.124089 
L 154.049277 243.095609 
L 154.817607 241.165613 
L 155.585938 238.304701 
L 156.354268 242.663916 
L 157.122599 237.384545 
L 157.890929 242.221625 
L 158.65926 244.515893 
L 159.42759 244.234702 
L 160.195921 249.132974 
L 160.964251 250.797915 
L 161.732582 251.77889 
L 162.500912 253.487875 
L 163.269243 251.408921 
L 164.037573 258.563436 
L 164.805903 261.733232 
L 165.574234 263.886691 
L 166.342564 262.932397 
L 167.110895 263.06772 
L 167.879225 262.90023 
L 168.647556 264.920709 
L 169.415886 264.164847 
L 170.184217 258.714257 
L 171.720878 249.729174 
L 172.489208 252.644247 
L 173.257539 253.462312 
L 174.7942 251.028194 
L 175.56253 251.667319 
L 177.099191 252.448638 
L 177.867521 254.495052 
L 178.635852 254.789824 
L 179.404182 256.913299 
L 180.172513 256.798373 
L 180.940843 251.330954 
L 181.709174 256.668748 
L 182.477504 260.849289 
L 183.245835 255.369622 
L 184.014165 253.311651 
L 184.782496 253.083183 
L 185.550826 251.779423 
L 186.319156 248.968945 
L 187.087487 250.326653 
L 187.855817 248.039575 
L 188.624148 248.704156 
L 189.392478 251.153239 
L 190.160809 251.840934 
L 190.929139 254.399777 
L 191.69747 251.314445 
L 193.234131 251.141949 
L 194.770792 264.528585 
L 195.539122 261.794103 
L 196.307453 263.475608 
L 197.075783 261.779991 
L 197.844113 263.007754 
L 198.612444 263.739331 
L 199.380774 258.056226 
L 200.149105 253.52755 
L 200.917435 261.221868 
L 202.454096 264.670725 
L 203.222427 265.901098 
L 203.990757 263.71984 
L 204.759088 265.378444 
L 205.527418 266.661061 
L 206.295749 270.134469 
L 207.064079 266.865511 
L 207.83241 265.950786 
L 208.60074 265.244345 
L 209.36907 264.787196 
L 210.137401 261.205891 
L 210.905731 258.439083 
L 211.674062 252.384784 
L 213.210723 255.981053 
L 213.979053 255.752852 
L 214.747384 255.144082 
L 215.515714 252.684136 
L 216.284045 253.951734 
L 217.052375 254.694762 
L 218.589036 254.053187 
L 219.357366 253.996789 
L 220.125697 262.519663 
L 220.894027 260.120481 
L 221.662358 262.946456 
L 222.430688 259.545796 
L 223.199019 266.913015 
L 224.73568 258.835414 
L 225.50401 255.871879 
L 226.272341 256.696121 
L 227.040671 265.824835 
L 227.809002 264.992551 
L 230.113993 251.153079 
L 231.650654 247.343093 
L 232.418984 247.088104 
L 233.187315 245.80751 
L 233.955645 248.632634 
L 234.723976 244.921065 
L 235.492306 242.518741 
L 236.260637 244.32055 
L 237.028967 245.744828 
L 237.797298 242.254271 
L 238.565628 242.719356 
L 239.333959 244.580546 
L 240.102289 251.309439 
L 241.63895 246.951183 
L 242.40728 241.950925 
L 243.943941 243.403589 
L 244.712272 240.272137 
L 245.480602 241.276758 
L 246.248933 245.150119 
L 247.017263 244.044098 
L 247.785594 244.56883 
L 248.553924 244.714218 
L 249.322255 238.987017 
L 250.090585 236.554177 
L 250.858916 230.227314 
L 251.627246 230.333506 
L 253.163907 222.792992 
L 253.932237 224.529297 
L 254.700568 230.401195 
L 255.468898 232.190862 
L 256.237229 229.810213 
L 257.005559 228.159863 
L 257.77389 227.805392 
L 258.54222 226.81744 
L 259.310551 227.780255 
L 260.078881 224.775126 
L 260.847212 223.204394 
L 261.615542 225.331438 
L 262.383873 223.374441 
L 263.152203 219.22335 
L 263.920533 212.961139 
L 264.688864 208.284625 
L 265.457194 205.473775 
L 266.225525 205.27955 
L 266.993855 203.804146 
L 267.762186 208.119052 
L 268.530516 201.048256 
L 269.298847 198.548953 
L 270.067177 189.716129 
L 270.835508 185.021401 
L 271.603838 186.083432 
L 272.372169 184.366193 
L 273.140499 185.711865 
L 273.908829 189.610895 
L 274.67716 191.680263 
L 275.44549 188.222405 
L 276.213821 189.12371 
L 276.982151 187.853022 
L 277.750482 191.141792 
L 278.518812 192.268901 
L 279.287143 191.640321 
L 280.055473 191.389325 
L 280.823804 191.419202 
L 281.592134 189.61212 
L 282.360465 189.159125 
L 283.128795 192.20542 
L 283.897126 199.253689 
L 284.665456 203.361163 
L 285.433786 205.023549 
L 286.202117 202.518547 
L 286.970447 205.305273 
L 287.738778 195.265562 
L 288.507108 195.079113 
L 289.275439 195.881893 
L 290.043769 195.215075 
L 290.8121 195.081456 
L 291.58043 188.231885 
L 292.348761 201.434788 
L 293.117091 209.411948 
L 294.653752 176.709794 
L 295.422082 174.739056 
L 296.958743 176.329333 
L 297.727074 176.976074 
L 298.495404 176.120516 
L 299.263735 173.933453 
L 300.032065 175.905469 
L 300.800396 175.944772 
L 302.337057 180.531283 
L 303.873718 176.449159 
L 304.642048 172.029978 
L 305.410379 170.655175 
L 306.178709 169.797647 
L 306.947039 170.338568 
L 307.71537 169.836524 
L 308.4837 168.289225 
L 309.252031 168.647424 
L 310.020361 164.289541 
L 310.788692 162.515691 
L 311.557022 158.282107 
L 312.325353 161.811753 
L 313.093683 162.669547 
L 313.862014 160.569557 
L 314.630344 159.042282 
L 315.398675 156.943464 
L 316.167005 153.194669 
L 316.935336 151.891762 
L 317.703666 154.526016 
L 318.471996 149.419406 
L 319.240327 150.872389 
L 320.008657 146.19039 
L 320.776988 143.266104 
L 323.081979 126.813255 
L 323.85031 129.482604 
L 324.61864 124.659796 
L 325.386971 124.999622 
L 326.155301 130.291243 
L 326.923632 122.039016 
L 328.460292 117.932341 
L 329.996953 120.396974 
L 330.765284 117.117897 
L 331.533614 120.790749 
L 332.301945 117.676233 
L 333.070275 115.134751 
L 333.838606 113.893673 
L 334.606936 125.008463 
L 335.375267 120.894279 
L 336.143597 121.089781 
L 336.911928 120.766784 
L 337.680258 120.959996 
L 338.448589 118.747583 
L 339.985249 115.736064 
L 340.75358 112.509604 
L 341.52191 114.400724 
L 342.290241 117.491381 
L 343.826902 119.644361 
L 344.595232 119.604685 
L 345.363563 118.202934 
L 346.131893 117.613976 
L 346.900224 115.581995 
L 347.668554 116.655475 
L 348.436885 113.690129 
L 349.205215 111.780157 
L 349.973545 103.586831 
L 350.741876 105.222961 
L 351.510206 110.319132 
L 352.278537 113.717343 
L 353.046867 118.05419 
L 353.815198 115.338561 
L 354.583528 116.562064 
L 355.351859 112.669319 
L 356.120189 114.634091 
L 356.88852 116.203865 
L 357.65685 116.705536 
L 358.425181 109.096854 
L 359.193511 116.537726 
L 359.961842 121.722782 
L 360.730172 128.60159 
L 362.266833 144.136786 
L 363.035163 142.310372 
L 363.803494 141.01279 
L 364.571824 141.249193 
L 365.340155 145.588171 
L 366.108485 137.693451 
L 366.876816 143.138769 
L 367.645146 146.003461 
L 368.413477 147.245071 
L 369.181807 146.217497 
L 370.718468 146.509393 
L 371.486798 148.278131 
L 372.255129 142.704519 
L 373.023459 141.92139 
L 373.79179 136.68686 
L 374.56012 136.077558 
L 375.328451 137.260214 
L 376.096781 133.188581 
L 376.865112 130.311533 
L 377.633442 133.607812 
L 378.401773 134.684169 
L 379.170103 134.446115 
L 379.938434 136.668913 
L 380.706764 137.326145 
L 382.243425 116.816308 
L 383.011755 112.820672 
L 383.780086 109.774536 
L 384.548416 110.790021 
L 386.085077 116.692275 
L 386.853408 118.3553 
L 387.621738 118.990857 
L 388.390069 116.904181 
L 389.158399 117.416823 
L 389.92673 114.046518 
L 390.69506 107.618575 
L 391.463391 111.234017 
L 393.000052 101.004661 
L 393.768382 99.976342 
L 394.536712 93.890621 
L 395.305043 98.108601 
L 396.073373 100.599117 
L 396.841704 97.634303 
L 397.610034 98.494387 
L 398.378365 95.879359 
L 399.146695 97.682873 
L 399.915026 94.077816 
L 400.683356 97.163307 
L 401.451687 96.754887 
L 402.220017 97.259381 
L 402.988348 94.912923 
L 403.756678 90.262611 
L 404.525008 88.44344 
L 405.293339 90.223148 
L 406.061669 92.403128 
L 406.83 91.612064 
L 407.59833 92.737256 
L 408.366661 84.36499 
L 409.134991 98.325566 
L 409.903322 100.062137 
L 410.671652 98.395917 
L 411.439983 101.5516 
L 412.208313 101.335274 
L 412.976644 100.542399 
L 413.744974 92.980583 
L 414.513305 89.006728 
L 415.281635 87.602048 
L 416.049965 86.567817 
L 416.818296 83.012821 
L 417.586626 78.372255 
L 418.354957 77.899341 
L 419.123287 75.736882 
L 419.891618 74.525415 
L 421.428279 63.201437 
L 421.428279 63.201437 
" clip-path="url(#p481fdd0c98)" style="fill: none; stroke: #4169e1; stroke-width: 1.5; stroke-linecap: square"/>
   </g>
   <g id="line2d_13">
    <path d="M 38.799707 283.221327 
L 39.568038 283.092395 
L 40.336368 283.621439 
L 41.104699 283.702708 
L 41.873029 282.17096 
L 42.64136 279.924942 
L 43.40969 285.853877 
L 44.178021 276.600544 
L 45.714681 271.447655 
L 46.483012 278.473557 
L 47.251342 277.016154 
L 48.019673 279.468751 
L 49.556334 283.330289 
L 50.324664 281.80328 
L 51.092995 283.017889 
L 51.861325 285.104086 
L 52.629656 285.916133 
L 53.397986 278.878675 
L 54.166317 279.212856 
L 54.934647 268.506061 
L 55.702977 260.967358 
L 56.471308 256.716359 
L 57.239638 253.878081 
L 58.007969 257.271872 
L 58.776299 261.543428 
L 59.54463 255.316419 
L 60.31296 250.899581 
L 61.081291 257.366401 
L 61.849621 255.122674 
L 62.617952 245.680814 
L 63.386282 245.730129 
L 64.154613 254.698383 
L 64.922943 261.607015 
L 65.691274 256.770946 
L 66.459604 260.340748 
L 67.227934 255.930087 
L 67.996265 255.457334 
L 68.764595 260.503977 
L 69.532926 261.689988 
L 70.301256 260.522723 
L 71.069587 255.630576 
L 71.837917 249.457675 
L 72.606248 238.11266 
L 73.374578 243.290207 
L 74.142909 251.238928 
L 74.911239 260.477722 
L 75.67957 264.375687 
L 76.4479 265.600521 
L 77.216231 274.846026 
L 77.984561 278.842834 
L 78.752891 278.843047 
L 79.521222 279.233093 
L 80.289552 272.611085 
L 81.057883 271.591606 
L 81.826213 275.043552 
L 82.594544 276.562998 
L 83.362874 274.782012 
L 84.131205 273.43879 
L 85.667866 261.949451 
L 86.436196 258.4181 
L 87.204527 268.389058 
L 87.972857 260.907871 
L 88.741187 265.462429 
L 89.509518 254.465708 
L 90.277848 253.965421 
L 91.046179 250.123641 
L 91.814509 253.667507 
L 92.58284 252.641318 
L 93.35117 251.206868 
L 94.119501 254.379753 
L 94.887831 254.865554 
L 95.656162 252.063118 
L 96.424492 258.126364 
L 97.192823 260.32296 
L 97.961153 254.310893 
L 98.729484 258.277398 
L 99.497814 264.320407 
L 100.266144 250.782151 
L 101.034475 247.677541 
L 101.802805 247.872777 
L 102.571136 253.464868 
L 103.339466 251.435283 
L 104.107797 256.853546 
L 104.876127 242.384056 
L 105.644458 240.399206 
L 106.412788 250.104948 
L 107.181119 254.866566 
L 107.949449 254.903099 
L 108.71778 253.624157 
L 109.48611 250.012017 
L 110.25444 250.564707 
L 111.022771 250.135304 
L 111.791101 249.569513 
L 112.559432 245.282673 
L 113.327762 240.275972 
L 114.096093 245.775291 
L 115.632754 242.396784 
L 116.401084 246.795515 
L 117.169415 249.751382 
L 117.937745 251.692722 
L 118.706076 254.137598 
L 119.474406 253.433447 
L 120.242737 255.80696 
L 121.011067 257.792609 
L 121.779397 259.28335 
L 122.547728 261.879899 
L 123.316058 256.596852 
L 124.084389 255.581527 
L 124.852719 252.624968 
L 125.62105 252.504716 
L 126.38938 253.121261 
L 127.157711 253.216695 
L 127.926041 256.866434 
L 128.694372 251.172837 
L 129.462702 252.279603 
L 130.231033 249.845592 
L 130.999363 254.393652 
L 131.767694 254.48962 
L 133.304354 259.396892 
L 134.072685 256.703631 
L 134.841015 259.923913 
L 135.609346 256.791396 
L 136.377676 259.166666 
L 137.146007 257.818545 
L 137.914337 257.320069 
L 138.682668 254.31249 
L 140.219329 242.463621 
L 140.987659 238.50308 
L 141.75599 242.189086 
L 142.52432 238.172094 
L 143.29265 232.912693 
L 144.060981 229.373993 
L 144.829311 225.211133 
L 145.597642 217.927046 
L 146.365972 216.593996 
L 147.134303 221.688729 
L 147.902633 221.037568 
L 148.670964 220.141377 
L 149.439294 218.878038 
L 150.207625 218.721466 
L 150.975955 216.198517 
L 151.744286 211.785407 
L 152.512616 213.097208 
L 153.280947 218.169627 
L 154.049277 224.329906 
L 154.817607 221.818514 
L 155.585938 219.753194 
L 156.354268 221.344802 
L 157.122599 219.987201 
L 157.890929 211.306583 
L 158.65926 218.477234 
L 159.42759 219.601361 
L 160.195921 217.9868 
L 160.964251 218.977201 
L 161.732582 216.708124 
L 162.500912 213.077131 
L 163.269243 212.824911 
L 164.037573 209.668056 
L 164.805903 207.989374 
L 165.574234 209.83528 
L 166.342564 203.373838 
L 167.110895 198.047441 
L 167.879225 196.602447 
L 168.647556 197.707881 
L 169.415886 197.918881 
L 170.184217 200.331643 
L 170.952547 191.265292 
L 171.720878 189.177551 
L 172.489208 188.724556 
L 173.257539 190.17019 
L 174.025869 178.896964 
L 174.7942 171.667678 
L 175.56253 172.248967 
L 176.33086 165.896007 
L 177.099191 166.983388 
L 177.867521 166.022384 
L 179.404182 165.394815 
L 180.172513 173.772567 
L 180.940843 171.923892 
L 181.709174 171.612025 
L 182.477504 171.150562 
L 183.245835 176.306912 
L 184.014165 179.377759 
L 184.782496 173.896174 
L 185.550826 174.66567 
L 186.319156 179.564048 
L 187.087487 181.80735 
L 187.855817 189.246252 
L 188.624148 193.170205 
L 189.392478 194.73428 
L 190.160809 188.078348 
L 190.929139 190.435138 
L 191.69747 187.786079 
L 192.4658 187.531569 
L 193.234131 193.726198 
L 194.002461 189.310745 
L 194.770792 193.781531 
L 195.539122 196.712207 
L 196.307453 196.085491 
L 197.075783 198.068477 
L 197.844113 194.387371 
L 199.380774 190.480778 
L 200.149105 189.96558 
L 200.917435 190.004031 
L 201.685766 188.491721 
L 202.454096 185.803412 
L 203.222427 187.050401 
L 203.990757 190.684802 
L 204.759088 193.355057 
L 205.527418 193.379874 
L 206.295749 193.27954 
L 207.064079 195.191643 
L 207.83241 196.177997 
L 208.60074 194.992252 
L 209.36907 195.637022 
L 210.137401 190.430665 
L 210.905731 188.465306 
L 211.674062 187.13577 
L 212.442392 186.391625 
L 213.210723 183.473303 
L 213.979053 185.523925 
L 214.747384 184.46674 
L 215.515714 183.93908 
L 216.284045 186.91561 
L 217.820706 176.796335 
L 218.589036 174.940364 
L 219.357366 166.480705 
L 220.125697 160.288898 
L 220.894027 161.304809 
L 222.430688 165.579241 
L 223.199019 169.110432 
L 223.967349 166.86271 
L 225.50401 169.993789 
L 226.272341 172.393503 
L 227.040671 174.150631 
L 227.809002 173.151336 
L 228.577332 172.690352 
L 229.345663 170.452802 
L 230.113993 171.627309 
L 230.882323 170.710934 
L 231.650654 170.673601 
L 232.418984 174.028355 
L 233.187315 162.526608 
L 233.955645 159.910568 
L 234.723976 160.574084 
L 235.492306 163.905778 
L 236.260637 160.738219 
L 237.028967 164.981123 
L 237.797298 159.661064 
L 238.565628 159.316817 
L 239.333959 162.517395 
L 240.102289 156.694386 
L 241.63895 154.398414 
L 242.40728 157.363334 
L 243.175611 157.897385 
L 243.943941 149.009016 
L 244.712272 148.22594 
L 245.480602 149.280568 
L 246.248933 148.134606 
L 247.017263 145.096778 
L 247.785594 150.243755 
L 248.553924 150.248495 
L 249.322255 148.781613 
L 250.090585 148.535943 
L 250.858916 146.206526 
L 251.627246 146.858699 
L 252.395576 148.387891 
L 253.163907 148.667751 
L 253.932237 148.345446 
L 255.468898 149.701184 
L 256.237229 147.404892 
L 257.005559 144.640108 
L 257.77389 142.755645 
L 258.54222 148.008655 
L 259.310551 150.64882 
L 260.078881 148.33144 
L 260.847212 148.059994 
L 262.383873 152.615298 
L 263.152203 152.02847 
L 263.920533 150.764386 
L 264.688864 157.551967 
L 265.457194 150.170528 
L 266.225525 136.295109 
L 266.993855 136.468457 
L 267.762186 138.057829 
L 268.530516 140.169641 
L 269.298847 140.217625 
L 270.067177 141.273425 
L 270.835508 140.391026 
L 271.603838 134.822368 
L 272.372169 132.377546 
L 273.140499 134.089832 
L 273.908829 125.700844 
L 274.67716 129.801075 
L 275.44549 127.007852 
L 276.213821 130.715906 
L 277.750482 134.413469 
L 278.518812 138.257645 
L 279.287143 133.091922 
L 280.055473 134.117738 
L 280.823804 134.230694 
L 281.592134 133.193641 
L 282.360465 133.752296 
L 283.128795 132.723976 
L 283.897126 133.251743 
L 284.665456 130.944374 
L 285.433786 125.563656 
L 286.970447 128.634343 
L 287.738778 127.311145 
L 288.507108 129.128399 
L 289.275439 129.780838 
L 290.043769 129.190016 
L 290.8121 129.72167 
L 291.58043 131.15841 
L 292.348761 131.475762 
L 293.117091 129.83223 
L 293.885422 120.335996 
L 294.653752 120.752032 
L 295.422082 121.815767 
L 296.190413 120.864562 
L 296.958743 120.479201 
L 297.727074 121.161943 
L 298.495404 123.232802 
L 299.263735 123.157924 
L 300.032065 120.492835 
L 300.800396 122.768516 
L 301.568726 117.76517 
L 302.337057 119.325837 
L 303.105387 119.287492 
L 303.873718 117.395893 
L 304.642048 117.332998 
L 305.410379 120.142198 
L 306.178709 118.803981 
L 306.947039 118.964974 
L 307.71537 122.116503 
L 308.4837 122.140895 
L 309.252031 125.399149 
L 310.020361 127.022125 
L 310.788692 126.516086 
L 311.557022 127.394277 
L 312.325353 133.778551 
L 313.093683 134.744401 
L 313.862014 139.82188 
L 314.630344 141.245465 
L 316.167005 127.465108 
L 316.935336 132.87991 
L 317.703666 136.687819 
L 318.471996 141.611973 
L 319.240327 138.773589 
L 320.008657 136.864682 
L 320.776988 136.581892 
L 321.545318 136.958466 
L 322.313649 135.22264 
L 323.081979 136.949199 
L 323.85031 136.353797 
L 324.61864 133.303082 
L 325.386971 132.938598 
L 326.155301 135.84941 
L 326.923632 136.276576 
L 327.691962 135.620888 
L 328.460292 139.248313 
L 329.228623 139.035395 
L 329.996953 136.990206 
L 330.765284 135.962472 
L 331.533614 134.503312 
L 332.301945 141.035637 
L 333.070275 143.990438 
L 333.838606 143.175143 
L 334.606936 143.919182 
L 335.375267 142.833186 
L 336.143597 145.295476 
L 336.911928 145.580396 
L 337.680258 147.150648 
L 338.448589 138.01581 
L 339.216919 137.805875 
L 339.985249 142.516632 
L 340.75358 144.078737 
L 341.52191 142.864607 
L 342.290241 137.948814 
L 343.058571 137.842355 
L 343.826902 136.242279 
L 344.595232 141.174049 
L 345.363563 139.297575 
L 346.131893 134.800427 
L 346.900224 133.548751 
L 347.668554 132.663424 
L 348.436885 133.478347 
L 349.205215 133.011665 
L 349.973545 129.003247 
L 350.741876 121.440525 
L 351.510206 127.420266 
L 352.278537 129.514824 
L 353.046867 129.918984 
L 353.815198 131.192281 
L 354.583528 136.922624 
L 355.351859 134.771615 
L 356.120189 133.356657 
L 356.88852 131.677496 
L 357.65685 128.737553 
L 359.193511 120.992323 
L 359.961842 118.512298 
L 360.730172 109.613863 
L 361.498502 104.630541 
L 362.266833 105.721916 
L 363.035163 105.682826 
L 363.803494 108.115772 
L 364.571824 107.486819 
L 365.340155 104.549326 
L 366.108485 103.475153 
L 366.876816 105.413937 
L 367.645146 103.844643 
L 368.413477 106.389959 
L 370.718468 91.523819 
L 371.486798 91.425828 
L 372.255129 89.449924 
L 373.023459 89.178851 
L 373.79179 88.558739 
L 374.56012 89.395603 
L 375.328451 90.42339 
L 376.096781 87.902891 
L 376.865112 91.996572 
L 377.633442 94.059496 
L 378.401773 99.633 
L 379.170103 98.604468 
L 379.938434 99.449587 
L 380.706764 97.104726 
L 381.475095 91.914238 
L 382.243425 79.348969 
L 383.011755 79.257901 
L 383.780086 69.605308 
L 384.548416 62.849841 
L 385.316747 61.160987 
L 386.085077 59.082832 
L 386.853408 55.094652 
L 387.621738 55.439963 
L 388.390069 61.241084 
L 389.158399 61.378751 
L 389.92673 58.887969 
L 390.69506 57.538835 
L 391.463391 62.064901 
L 392.231721 63.253521 
L 393.000052 57.856507 
L 393.768382 55.207288 
L 394.536712 54.123263 
L 395.305043 56.217767 
L 396.073373 55.246964 
L 396.841704 58.500372 
L 397.610034 56.125528 
L 398.378365 60.002882 
L 399.146695 59.096199 
L 399.915026 59.022014 
L 400.683356 59.494661 
L 401.451687 61.552631 
L 402.220017 58.808883 
L 402.988348 48.505875 
L 403.756678 48.489632 
L 404.525008 47.365505 
L 405.293339 46.522622 
L 406.061669 49.635275 
L 406.83 44.294019 
L 407.59833 40.390356 
L 408.366661 38.2533 
L 409.134991 44.575371 
L 409.903322 45.366968 
L 410.671652 44.756814 
L 411.439983 41.641872 
L 412.208313 39.831009 
L 412.976644 44.682522 
L 413.744974 42.304483 
L 414.513305 47.190506 
L 415.281635 50.173054 
L 416.049965 51.419669 
L 416.818296 52.297541 
L 417.586626 59.964006 
L 418.354957 59.482252 
L 419.123287 61.188787 
L 419.891618 59.292448 
L 420.659948 61.135797 
L 421.428279 57.682626 
L 421.428279 57.682626 
" clip-path="url(#p481fdd0c98)" style="fill: none; stroke: #ff8c00; stroke-width: 1.5; stroke-linecap: square"/>
   </g>
   <g id="line2d_14">
    <path d="M 38.799707 284.497394 
L 421.428279 45.804199 
L 421.428279 45.804199 
" clip-path="url(#p481fdd0c98)" style="fill: none; stroke: #000000; stroke-width: 2.5; stroke-linecap: square"/>
   </g>
   <g id="patch_3">
    <path d="M 38.799707 302.8533 
L 38.799707 25.6533 
" style="fill: none; stroke: #000000; stroke-width: 0.8; stroke-linejoin: miter; stroke-linecap: square"/>
   </g>
   <g id="patch_4">
    <path d="M 440.559707 302.8533 
L 440.559707 25.6533 
" style="fill: none; stroke: #000000; stroke-width: 0.8; stroke-linejoin: miter; stroke-linecap: square"/>
   </g>
   <g id="patch_5">
    <path d="M 38.799707 302.8533 
L 440.559707 302.8533 
" style="fill: none; stroke: #000000; stroke-width: 0.8; stroke-linejoin: miter; stroke-linecap: square"/>
   </g>
   <g id="patch_6">
    <path d="M 38.799707 25.6533 
L 440.559707 25.6533 
" style="fill: none; stroke: #000000; stroke-width: 0.8; stroke-linejoin: miter; stroke-linecap: square"/>
   </g>
   <g id="text_14">
    <!-- Independence of 6 DoF -->
    <g transform="translate(156.142516 19.6533) scale(0.18 -0.18)">
     <defs>
      <path id="CMR17-49" d="M 1261 3905 
C 1261 4192 1338 4192 1798 4192 
L 1798 4352 
C 1594 4352 1267 4352 1050 4352 
C 832 4352 506 4352 301 4352 
L 301 4192 
C 762 4192 838 4192 838 3905 
L 838 447 
C 838 160 762 160 301 160 
L 301 0 
C 506 0 832 0 1050 0 
C 1267 0 1594 0 1798 0 
L 1798 160 
C 1338 160 1261 160 1261 447 
L 1261 3905 
z
" transform="scale(0.015625)"/>
      <path id="CMR17-64" d="M 1869 4326 
L 1869 4160 
C 2246 4160 2304 4122 2304 3820 
L 2304 2345 
C 2278 2377 2016 2790 1498 2790 
C 845 2790 211 2208 211 1364 
C 211 525 806 -64 1434 -64 
C 1978 -64 2259 337 2291 380 
L 2291 -63 
L 3066 -63 
L 3066 128 
C 2688 128 2630 166 2630 473 
L 2630 4396 
L 1869 4326 
z
M 2291 755 
C 2291 563 2176 390 2029 262 
C 1811 70 1594 38 1472 38 
C 1286 38 621 134 621 1356 
C 621 2612 1363 2688 1530 2688 
C 1824 2688 2061 2522 2208 2291 
C 2291 2157 2291 2138 2291 2023 
L 2291 755 
z
" transform="scale(0.015625)"/>
      <path id="CMR17-63" d="M 2234 2240 
C 2112 2240 1933 2240 1933 2017 
C 1933 1838 2080 1787 2163 1787 
C 2208 1787 2394 1807 2394 2024 
C 2394 2467 1958 2803 1466 2803 
C 787 2803 211 2178 211 1363 
C 211 516 813 -64 1466 -64 
C 2259 -64 2458 677 2458 748 
C 2458 774 2451 793 2406 793 
C 2362 793 2355 787 2330 703 
C 2163 180 1798 51 1523 51 
C 1114 51 621 427 621 1369 
C 621 2338 1094 2688 1472 2688 
C 1722 2688 2093 2573 2234 2240 
z
" transform="scale(0.015625)"/>
      <path id="CMR17-66" d="M 979 2560 
L 1709 2560 
L 1709 2725 
L 966 2725 
L 966 3494 
C 966 4022 1235 4352 1510 4352 
C 1594 4352 1690 4327 1754 4282 
C 1702 4269 1568 4225 1568 4067 
C 1568 3901 1696 3850 1786 3850 
C 1875 3850 2003 3901 2003 4067 
C 2003 4308 1773 4454 1517 4454 
C 1152 4454 653 4156 653 3481 
L 653 2725 
L 141 2725 
L 141 2560 
L 653 2560 
L 653 427 
C 653 184 627 153 218 153 
L 218 -13 
C 371 0 666 0 832 0 
C 1018 0 1344 0 1517 -13 
L 1517 153 
C 1056 153 979 153 979 439 
L 979 2560 
z
" transform="scale(0.015625)"/>
      <path id="CMR17-36" d="M 678 2176 
C 678 3690 1395 4032 1811 4032 
C 1946 4032 2272 4009 2400 3776 
C 2298 3776 2106 3776 2106 3553 
C 2106 3381 2246 3323 2336 3323 
C 2394 3323 2566 3348 2566 3560 
C 2566 3954 2246 4179 1805 4179 
C 1043 4179 243 3390 243 1984 
C 243 253 966 -128 1478 -128 
C 2099 -128 2688 427 2688 1283 
C 2688 2081 2170 2662 1517 2662 
C 1126 2662 838 2407 678 1960 
L 678 2176 
z
M 1478 25 
C 691 25 691 1200 691 1436 
C 691 1896 909 2560 1504 2560 
C 1613 2560 1926 2560 2138 2120 
C 2253 1870 2253 1609 2253 1289 
C 2253 944 2253 690 2118 434 
C 1978 171 1773 25 1478 25 
z
" transform="scale(0.015625)"/>
      <path id="CMR17-44" d="M 333 4352 
L 333 4186 
C 774 4186 845 4186 845 3900 
L 845 452 
C 845 166 774 166 333 166 
L 333 0 
L 2368 0 
C 3398 0 4224 943 4224 2141 
C 4224 3346 3411 4352 2368 4352 
L 333 4352 
z
M 1523 166 
C 1267 166 1254 197 1254 414 
L 1254 3938 
C 1254 4155 1267 4186 1523 4186 
L 2240 4186 
C 2771 4186 3750 3874 3750 2141 
C 3750 1242 3488 879 3366 707 
C 3213 510 2848 166 2240 166 
L 1523 166 
z
" transform="scale(0.015625)"/>
      <path id="CMR17-46" d="M 3482 4325 
L 326 4325 
L 326 4160 
C 768 4160 838 4160 838 3874 
L 838 446 
C 838 160 768 160 326 160 
L 326 0 
C 512 0 870 0 1069 0 
C 1331 0 1638 0 1901 0 
L 1901 160 
L 1760 160 
C 1274 160 1261 223 1261 452 
L 1261 2075 
L 1837 2075 
C 2432 2075 2490 1865 2490 1332 
L 2605 1332 
L 2605 2987 
L 2490 2987 
C 2490 2450 2432 2240 1837 2240 
L 1261 2240 
L 1261 3911 
C 1261 4128 1274 4160 1530 4160 
L 2355 4160 
C 3322 4160 3430 3765 3520 2916 
L 3635 2916 
L 3482 4325 
z
" transform="scale(0.015625)"/>
     </defs>
     <use xlink:href="#CMR17-49" transform="scale(0.996264)"/>
     <use xlink:href="#CMR17-6e" transform="translate(32.638409 0) scale(0.996264)"/>
     <use xlink:href="#CMR17-64" transform="translate(83.533779 0) scale(0.996264)"/>
     <use xlink:href="#CMR17-65" transform="translate(134.429149 0) scale(0.996264)"/>
     <use xlink:href="#CMR17-70" transform="translate(174.914809 0) scale(0.996264)"/>
     <use xlink:href="#CMR17-65" transform="translate(228.412618 0) scale(0.996264)"/>
     <use xlink:href="#CMR17-6e" transform="translate(268.898278 0) scale(0.996264)"/>
     <use xlink:href="#CMR17-64" transform="translate(319.793648 0) scale(0.996264)"/>
     <use xlink:href="#CMR17-65" transform="translate(370.689018 0) scale(0.996264)"/>
     <use xlink:href="#CMR17-6e" transform="translate(411.174678 0) scale(0.996264)"/>
     <use xlink:href="#CMR17-63" transform="translate(462.070048 0) scale(0.996264)"/>
     <use xlink:href="#CMR17-65" transform="translate(502.555708 0) scale(0.996264)"/>
     <use xlink:href="#CMR17-6f" transform="translate(573.117335 0) scale(0.996264)"/>
     <use xlink:href="#CMR17-66" transform="translate(618.807812 0) scale(0.996264)"/>
     <use xlink:href="#CMR17-36" transform="translate(676.357291 0) scale(0.996264)"/>
     <use xlink:href="#CMR17-44" transform="translate(752.123735 0) scale(0.996264)"/>
     <use xlink:href="#CMR17-6f" transform="translate(822.517291 0) scale(0.996264)"/>
     <use xlink:href="#CMR17-46" transform="translate(868.207768 0) scale(0.996264)"/>
    </g>
   </g>
   <g id="legend_1">
    <g id="patch_7">
     <path d="M 47.199707 85.427087 
L 161.025798 85.427087 
Q 163.425798 85.427087 163.425798 83.027087 
L 163.425798 34.0533 
Q 163.425798 31.6533 161.025798 31.6533 
L 47.199707 31.6533 
Q 44.799707 31.6533 44.799707 34.0533 
L 44.799707 83.027087 
Q 44.799707 85.427087 47.199707 85.427087 
z
" style="fill: #ffffff; opacity: 0.8; stroke: #cccccc; stroke-linejoin: miter"/>
    </g>
    <g id="line2d_15">
     <path d="M 49.599707 40.6533 
L 61.599707 40.6533 
L 73.599707 40.6533 
" style="fill: none; stroke: #4169e1; stroke-width: 1.5; stroke-linecap: square"/>
    </g>
    <g id="text_15">
     <!-- Move X and Y -->
     <g transform="translate(83.199707 44.8533) scale(0.12 -0.12)">
      <defs>
       <path id="CMR17-4d" d="M 1338 4224 
C 1299 4320 1293 4320 1158 4320 
L 339 4320 
L 339 4160 
C 781 4160 851 4160 851 3875 
L 851 610 
C 851 451 851 153 339 153 
L 339 -13 
C 486 0 755 0 915 0 
C 1075 0 1344 0 1491 -13 
L 1491 153 
C 979 153 979 451 979 610 
L 979 4135 
L 986 4135 
L 2490 89 
C 2515 25 2528 -13 2579 -13 
C 2630 -13 2643 25 2669 89 
L 4186 4166 
L 4192 4166 
L 4192 438 
C 4192 153 4122 153 3680 153 
L 3680 -13 
C 3853 0 4198 0 4384 0 
C 4570 0 4922 0 5094 -13 
L 5094 153 
C 4653 153 4582 153 4582 438 
L 4582 3875 
C 4582 4160 4653 4160 5094 4160 
L 5094 4320 
L 4282 4320 
C 4147 4320 4141 4314 4102 4218 
L 2720 502 
L 1338 4224 
z
" transform="scale(0.015625)"/>
       <path id="CMR17-76" d="M 2502 2163 
C 2560 2304 2662 2560 3034 2560 
L 3034 2726 
C 2912 2726 2752 2726 2630 2726 
C 2496 2726 2285 2726 2157 2732 
L 2157 2566 
C 2317 2553 2406 2477 2406 2311 
C 2406 2253 2406 2240 2368 2151 
L 1664 377 
L 902 2286 
C 864 2369 864 2381 864 2407 
C 864 2560 1075 2560 1171 2560 
L 1171 2732 
C 1018 2726 736 2726 576 2726 
C 403 2726 205 2726 64 2732 
L 64 2560 
C 307 2560 442 2560 518 2362 
L 1446 44 
C 1485 -51 1491 -64 1549 -64 
C 1606 -64 1613 -51 1651 44 
L 2502 2163 
z
" transform="scale(0.015625)"/>
       <path id="CMR17-61" d="M 2304 1653 
C 2304 2072 2304 2294 2035 2543 
C 1798 2752 1523 2816 1306 2816 
C 800 2816 435 2407 435 1971 
C 435 1728 627 1728 666 1728 
C 749 1728 896 1778 896 1954 
C 896 2112 774 2181 666 2181 
C 640 2181 608 2174 589 2168 
C 723 2592 1069 2714 1293 2714 
C 1613 2714 1965 2429 1965 1885 
L 1965 1600 
C 1587 1600 1133 1549 774 1357 
C 371 1133 256 813 256 570 
C 256 77 832 -64 1171 -64 
C 1523 -64 1850 139 1990 511 
C 2003 233 2182 -18 2464 -18 
C 2598 -18 2938 70 2938 567 
L 2938 920 
L 2822 920 
L 2822 562 
C 2822 178 2650 128 2566 128 
C 2304 128 2304 458 2304 738 
L 2304 1653 
z
M 1965 870 
C 1965 317 1568 38 1216 38 
C 896 38 646 275 646 570 
C 646 761 730 1100 1101 1305 
C 1408 1478 1760 1504 1965 1504 
L 1965 870 
z
" transform="scale(0.015625)"/>
       <path id="CMR17-59" d="M 3706 3766 
C 3955 4160 4301 4160 4416 4160 
L 4416 4332 
C 4269 4319 4102 4319 3942 4319 
C 3782 4319 3526 4319 3373 4332 
L 3373 4160 
C 3533 4160 3616 4077 3616 3957 
C 3616 3881 3584 3830 3533 3747 
L 2381 1912 
L 1120 3912 
C 1075 3988 1069 3994 1069 4039 
C 1069 4160 1293 4160 1382 4160 
L 1382 4319 
C 1178 4319 864 4319 653 4319 
C 486 4319 166 4319 13 4332 
L 13 4160 
C 378 4160 480 4141 595 3958 
L 2010 1728 
L 2010 445 
C 2010 160 1939 160 1498 160 
L 1498 0 
C 1683 0 2016 0 2214 0 
C 2413 0 2752 0 2938 0 
L 2938 160 
C 2477 160 2419 160 2419 471 
L 2419 1728 
L 3706 3766 
z
" transform="scale(0.015625)"/>
      </defs>
      <use xlink:href="#CMR17-4d" transform="scale(0.996264)"/>
      <use xlink:href="#CMR17-6f" transform="translate(84.686941 0) scale(0.996264)"/>
      <use xlink:href="#CMR17-76" transform="translate(127.774964 0) scale(0.996264)"/>
      <use xlink:href="#CMR17-65" transform="translate(173.465426 0) scale(0.996264)"/>
      <use xlink:href="#CMR17-58" transform="translate(244.027052 0) scale(0.996264)"/>
      <use xlink:href="#CMR17-61" transform="translate(343.175449 0) scale(0.996264)"/>
      <use xlink:href="#CMR17-6e" transform="translate(388.865926 0) scale(0.996264)"/>
      <use xlink:href="#CMR17-64" transform="translate(439.761296 0) scale(0.996264)"/>
      <use xlink:href="#CMR17-59" transform="translate(520.732632 0) scale(0.996264)"/>
     </g>
    </g>
    <g id="line2d_16">
     <path d="M 49.599707 57.377896 
L 61.599707 57.377896 
L 73.599707 57.377896 
" style="fill: none; stroke: #ff8c00; stroke-width: 1.5; stroke-linecap: square"/>
    </g>
    <g id="text_16">
     <!-- Move X -->
     <g transform="translate(83.199707 61.577896) scale(0.12 -0.12)">
      <use xlink:href="#CMR17-4d" transform="scale(0.996264)"/>
      <use xlink:href="#CMR17-6f" transform="translate(84.686941 0) scale(0.996264)"/>
      <use xlink:href="#CMR17-76" transform="translate(127.774964 0) scale(0.996264)"/>
      <use xlink:href="#CMR17-65" transform="translate(173.465426 0) scale(0.996264)"/>
      <use xlink:href="#CMR17-58" transform="translate(244.027052 0) scale(0.996264)"/>
     </g>
    </g>
    <g id="line2d_17">
     <path d="M 49.599707 74.102492 
L 61.599707 74.102492 
L 73.599707 74.102492 
" style="fill: none; stroke: #000000; stroke-width: 2.5; stroke-linecap: square"/>
    </g>
    <g id="text_17">
     <!-- Ground Truth -->
     <g transform="translate(83.199707 78.302492) scale(0.12 -0.12)">
      <defs>
       <path id="CMR17-47" d="M 3974 1233 
C 3974 1473 3994 1505 4390 1505 
L 4390 1670 
C 4237 1664 3891 1664 3718 1664 
C 3539 1664 3040 1664 2797 1664 
L 2797 1505 
L 2989 1505 
C 3539 1505 3552 1434 3552 1201 
L 3552 774 
C 3552 63 2720 63 2522 63 
C 1862 63 781 511 781 2160 
C 781 3808 1843 4250 2464 4250 
C 3187 4250 3712 3626 3834 2741 
C 3846 2664 3846 2651 3904 2651 
C 3974 2651 3974 2664 3974 2779 
L 3974 4288 
C 3974 4402 3968 4409 3930 4409 
C 3904 4409 3898 4402 3853 4326 
L 3571 3791 
C 3258 4187 2874 4416 2381 4416 
C 1286 4416 294 3456 294 2148 
C 294 845 1267 -128 2394 -128 
C 2912 -128 3418 56 3616 417 
C 3725 158 3904 -20 3936 -20 
C 3968 -20 3974 -13 3974 100 
L 3974 1233 
z
" transform="scale(0.015625)"/>
       <path id="CMR17-72" d="M 960 1497 
C 960 2112 1222 2688 1702 2688 
C 1747 2688 1792 2682 1837 2662 
C 1837 2662 1696 2617 1696 2452 
C 1696 2298 1818 2234 1914 2234 
C 1990 2234 2131 2279 2131 2458 
C 2131 2663 1926 2790 1709 2790 
C 1222 2790 1011 2317 947 2093 
L 941 2093 
L 941 2790 
L 198 2720 
L 198 2554 
C 576 2554 634 2515 634 2208 
L 634 428 
C 634 184 608 153 198 153 
L 198 -13 
C 352 0 646 0 813 0 
C 998 0 1325 0 1498 -13 
L 1498 153 
C 1037 153 960 153 960 440 
L 960 1497 
z
" transform="scale(0.015625)"/>
       <path id="CMR17-75" d="M 1882 2693 
L 1882 2528 
C 2259 2528 2317 2489 2317 2186 
L 2317 1032 
C 2317 500 2029 38 1555 38 
C 1030 38 986 348 986 678 
L 986 2763 
L 211 2693 
L 211 2528 
C 467 2528 640 2528 646 2274 
L 646 1058 
C 646 633 646 361 813 183 
C 896 101 1056 -64 1517 -64 
C 2061 -64 2272 377 2323 506 
L 2330 506 
L 2330 -63 
L 3091 -63 
L 3091 128 
C 2714 128 2656 166 2656 473 
L 2656 2763 
L 1882 2693 
z
" transform="scale(0.015625)"/>
       <path id="CMR17-68" d="M 2656 1933 
C 2656 2259 2592 2790 1837 2790 
C 1312 2790 1056 2368 979 2157 
L 973 2157 
L 973 4396 
L 211 4326 
L 211 4160 
C 589 4160 646 4122 646 3817 
L 646 426 
C 646 184 621 153 211 153 
L 211 -13 
C 365 0 646 0 813 0 
C 979 0 1267 0 1421 -13 
L 1421 153 
C 1011 153 986 178 986 428 
L 986 1658 
C 986 2247 1344 2688 1792 2688 
C 2266 2688 2317 2266 2317 1958 
L 2317 428 
C 2317 184 2291 153 1882 153 
L 1882 -13 
C 2035 0 2317 0 2483 0 
C 2650 0 2938 0 3091 -13 
L 3091 153 
C 2682 153 2656 178 2656 428 
L 2656 1933 
z
" transform="scale(0.015625)"/>
      </defs>
      <use xlink:href="#CMR17-47" transform="scale(0.996264)"/>
      <use xlink:href="#CMR17-72" transform="translate(72.355346 0) scale(0.996264)"/>
      <use xlink:href="#CMR17-6f" transform="translate(107.636114 0) scale(0.996264)"/>
      <use xlink:href="#CMR17-75" transform="translate(153.326591 0) scale(0.996264)"/>
      <use xlink:href="#CMR17-6e" transform="translate(204.221961 0) scale(0.996264)"/>
      <use xlink:href="#CMR17-64" transform="translate(255.11733 0) scale(0.996264)"/>
      <use xlink:href="#CMR17-54" transform="translate(336.088667 0) scale(0.996264)"/>
      <use xlink:href="#CMR17-72" transform="translate(394.791292 0) scale(0.996264)"/>
      <use xlink:href="#CMR17-75" transform="translate(430.072059 0) scale(0.996264)"/>
      <use xlink:href="#CMR17-74" transform="translate(480.967429 0) scale(0.996264)"/>
      <use xlink:href="#CMR17-68" transform="translate(516.248197 0) scale(0.996264)"/>
     </g>
    </g>
   </g>
  </g>
 </g>
 <defs>
  <clipPath id="p481fdd0c98">
   <rect x="38.799707" y="25.6533" width="401.76" height="277.2"/>
  </clipPath>
 </defs>
</svg>
